<svg width="48" height="48" viewBox="0 0 48 48" fill="none" xmlns="http://www.w3.org/2000/svg">
<mask id="path-1-inside-1_25_2334" fill="white">
<path d="M7.2002 9.19995C7.2002 8.09538 8.09563 7.19995 9.2002 7.19995H30.8002C36.323 7.19995 40.8002 11.6771 40.8002 17.1999V38.7999C40.8002 39.9045 39.9048 40.7999 38.8002 40.7999H9.2002C8.09563 40.7999 7.2002 39.9045 7.2002 38.7999V9.19995Z"/>
</mask>
<path d="M7.2002 9.19995C7.2002 8.09538 8.09563 7.19995 9.2002 7.19995H30.8002C36.323 7.19995 40.8002 11.6771 40.8002 17.1999V38.7999C40.8002 39.9045 39.9048 40.7999 38.8002 40.7999H9.2002C8.09563 40.7999 7.2002 39.9045 7.2002 38.7999V9.19995Z" stroke="#3970FF" stroke-width="10" mask="url(#path-1-inside-1_25_2334)"/>
<path d="M16.7998 9.6V0" stroke="#3970FF" stroke-width="5"/>
<path d="M16.7998 47.9999V38.3999" stroke="#3970FF" stroke-width="5"/>
<path d="M31.2002 47.9999V38.3999" stroke="#3970FF" stroke-width="5"/>
<path d="M47.9999 31.2L38.3999 31.2" stroke="#3970FF" stroke-width="5"/>
<path d="M9.6 31.2L0 31.2" stroke="#3970FF" stroke-width="5"/>
<path d="M9.6 16.8L0 16.8" stroke="#3970FF" stroke-width="5"/>
<path d="M31.1999 2.5C33.0778 2.5 34.9373 2.86988 36.6723 3.58852C38.4072 4.30716 39.9837 5.36049 41.3115 6.68837C42.6394 8.01625 43.6927 9.59267 44.4114 11.3276C45.13 13.0626 45.4999 14.9221 45.4999 16.8" stroke="#3970FF" stroke-width="5"/>
</svg>
