<svg width="54" height="54" viewBox="0 0 54 54" fill="none" xmlns="http://www.w3.org/2000/svg">
<path d="M3 7C3 5.59987 3 4.8998 3.27248 4.36502C3.51217 3.89462 3.89462 3.51217 4.36502 3.27248C4.8998 3 5.59987 3 7 3H47C48.4001 3 49.1002 3 49.635 3.27248C50.1054 3.51217 50.4878 3.89462 50.7275 4.36502C51 4.8998 51 5.59987 51 7V47C51 48.4001 51 49.1002 50.7275 49.635C50.4878 50.1054 50.1054 50.4878 49.635 50.7275C49.1002 51 48.4001 51 47 51H7C5.59987 51 4.8998 51 4.36502 50.7275C3.89462 50.4878 3.51217 50.1054 3.27248 49.635C3 49.1002 3 48.4001 3 47V7Z" stroke="#3970FF" stroke-width="5"/>
<circle cx="16.3335" cy="27" r="5.5" stroke="#3970FF" stroke-width="5"/>
<path d="M21.6665 27H32.3332M40.3332 32.3333V27.15C40.3332 27.0672 40.266 27 40.1832 27H32.3332M32.3332 27V32.3333" stroke="#3970FF" stroke-width="5" stroke-linecap="round"/>
</svg>
