<svg width="20" height="20" viewBox="0 0 20 20" fill="none" xmlns="http://www.w3.org/2000/svg">
<path d="M14.1971 0H5.8129C2.17108 0 0 2.17 0 5.81V14.18C0 17.83 2.17108 20 5.8129 20H14.1871C17.8289 20 20 17.83 20 14.19V5.81C20.01 2.17 17.8389 0 14.1971 0ZM15.3577 7.05L13.0165 14.59C12.4562 16.38 9.94496 16.41 9.35466 14.63L8.65431 12.56C8.46422 11.99 8.01399 11.53 7.44371 11.35L5.36267 10.65C3.60179 10.06 3.6218 7.53 5.4127 6.99L12.9565 4.64C14.4372 4.19 15.8279 5.58 15.3577 7.05Z" fill="#3970FF"/>
</svg>
