<svg width="19" height="14" viewBox="0 0 19 14" fill="none" xmlns="http://www.w3.org/2000/svg">
<path d="M4.1966 0C5.18042 0 5.99515 0.243214 6.64078 0.729641C7.28641 1.18567 7.77832 1.8089 8.1165 2.59935C8.45469 3.35939 8.62379 4.21064 8.62379 5.15309C8.62379 6.39957 8.36246 7.60043 7.83981 8.7557C7.3479 9.91097 6.65615 10.9446 5.76456 11.8567C4.87298 12.7687 3.85841 13.4832 2.72087 14L0 11.8567C0.830097 11.5223 1.58333 11.1118 2.25971 10.6254C2.96683 10.139 3.56634 9.59175 4.05825 8.98371C4.55016 8.37568 4.90372 7.75244 5.11893 7.11401L4.88835 6.9772C4.73463 7.0684 4.55016 7.15961 4.33495 7.25081C4.11974 7.31162 3.8123 7.34202 3.41262 7.34202C2.92071 7.34202 2.4288 7.22041 1.93689 6.9772C1.44498 6.70358 1.02994 6.32356 0.691748 5.83713C0.35356 5.3203 0.184466 4.68187 0.184466 3.92182C0.184466 3.10098 0.368932 2.40174 0.737864 1.8241C1.1068 1.24647 1.59871 0.805645 2.21359 0.501628C2.82848 0.167209 3.48948 0 4.1966 0ZM14.5728 0C15.5566 0 16.3714 0.243214 17.017 0.729641C17.6626 1.18567 18.1545 1.8089 18.4927 2.59935C18.8309 3.35939 19 4.21064 19 5.15309C19 6.39957 18.7387 7.60043 18.216 8.7557C17.7241 9.91097 17.0324 10.9446 16.1408 11.8567C15.2492 12.7687 14.2346 13.4832 13.0971 14L10.3762 11.8567C11.2063 11.5223 11.9595 11.1118 12.6359 10.6254C13.343 10.139 13.9426 9.59175 14.4345 8.98371C14.9264 8.37568 15.2799 7.75244 15.4951 7.11401L15.2646 6.9772C15.1108 7.0684 14.9264 7.15961 14.7112 7.25081C14.496 7.31162 14.1885 7.34202 13.7888 7.34202C13.2969 7.34202 12.805 7.22041 12.3131 6.9772C11.8212 6.70358 11.4061 6.32356 11.068 5.83713C10.7298 5.3203 10.5607 4.68187 10.5607 3.92182C10.5607 3.10098 10.7451 2.40174 11.1141 1.8241C11.483 1.24647 11.9749 0.805645 12.5898 0.501628C13.2047 0.167209 13.8657 0 14.5728 0Z" fill="#3970FF"/>
</svg>
