<svg width="15" height="14" viewBox="0 0 15 14" fill="none" xmlns="http://www.w3.org/2000/svg">
<path fill-rule="evenodd" clip-rule="evenodd" d="M1.46243 6.02691C5.22052 4.05119 7.7265 2.74867 8.98037 2.11936C12.5604 0.322542 13.3043 0.0104165 13.7892 0.000109891C13.8959 -0.00215693 14.1343 0.0297341 14.2887 0.180964C14.4192 0.30866 14.4551 0.481158 14.4722 0.602228C14.4894 0.723297 14.5108 0.999097 14.4938 1.2146C14.2998 3.6743 13.4603 9.64334 13.0332 12.3983C12.8525 13.564 12.4967 13.9548 12.1522 13.9931C11.4036 14.0762 10.8351 13.3961 10.1101 12.8225C8.97546 11.9251 8.33448 11.3664 7.23315 10.4907C5.96037 9.47858 6.78546 8.92233 7.51082 8.01324C7.70064 7.77533 10.9991 4.15509 11.0629 3.82668C11.0709 3.7856 11.0783 3.6325 11.003 3.55166C10.9276 3.47081 10.8163 3.49846 10.736 3.52045C10.6223 3.55161 8.8097 4.99723 5.2984 7.8573C4.78392 8.2836 4.31791 8.49131 3.90039 8.48042C3.4401 8.46842 2.55469 8.16638 1.89648 7.90821C1.08916 7.59154 0.447519 7.42412 0.503392 6.88633C0.532494 6.60621 0.852172 6.31974 1.46243 6.02691Z"/>
</svg>
