<svg width="28" height="28" viewBox="0 0 28 28" xmlns="http://www.w3.org/2000/svg">
<circle cx="14" cy="14" r="14" fill="#3970FF"/>
<path id="vector" d="M18.8175 13.2869C18.7333 13.2465 18.6479 13.2077 18.5614 13.1706C18.4106 10.3934 16.8931 8.80338 14.345 8.78711C14.3334 8.78704 14.3219 8.78704 14.3104 8.78704C12.7863 8.78704 11.5187 9.4376 10.7385 10.6214L12.1399 11.5827C12.7228 10.6985 13.6374 10.51 14.3111 10.51C14.3189 10.51 14.3267 10.51 14.3344 10.51C15.1734 10.5154 15.8065 10.7593 16.2163 11.235C16.5145 11.5814 16.7139 12.06 16.8126 12.664C16.0688 12.5375 15.2643 12.4987 14.4043 12.548C11.9816 12.6875 10.4242 14.1005 10.5288 16.0638C10.5819 17.0597 11.078 17.9164 11.9257 18.4761C12.6425 18.9492 13.5656 19.1806 14.525 19.1282C15.792 19.0588 16.786 18.5754 17.4794 17.6915C18.0061 17.0202 18.3391 16.1503 18.4862 15.0543C19.09 15.4187 19.5375 15.8982 19.7847 16.4747C20.2049 17.4546 20.2294 19.0649 18.9155 20.3777C17.7643 21.5278 16.3805 22.0253 14.2892 22.0407C11.9694 22.0235 10.2149 21.2795 9.07425 19.8294C8.00608 18.4715 7.45405 16.5103 7.43346 14C7.45405 11.4897 8.00608 9.52839 9.07425 8.17054C10.2149 6.72046 11.9694 5.9765 14.2892 5.95926C16.6258 5.97663 18.4108 6.72417 19.5952 8.18125C20.1759 8.89579 20.6138 9.79437 20.9024 10.8421L22.5446 10.4039C22.1948 9.11431 21.6442 8.00303 20.8951 7.08142C19.3767 5.21337 17.1561 4.25618 14.2949 4.23633H14.2834C11.4281 4.25611 9.2323 5.21694 7.75719 7.09213C6.44455 8.76081 5.76745 11.0827 5.7447 13.9931L5.74463 14L5.7447 14.0068C5.76745 16.9173 6.44455 19.2392 7.75719 20.9079C9.2323 22.783 11.4281 23.7439 14.2834 23.7636H14.2949C16.8335 23.746 18.6229 23.0814 20.097 21.6086C22.0256 19.6818 21.9676 17.2666 21.3319 15.784C20.8759 14.7208 20.0064 13.8572 18.8175 13.2869ZM14.4343 17.4078C13.3725 17.4676 12.2694 16.991 12.215 15.9702C12.1747 15.2133 12.7537 14.3688 14.4995 14.2682C14.6994 14.2566 14.8956 14.251 15.0883 14.251C15.7225 14.251 16.3157 14.3126 16.8551 14.4305C16.6539 16.9428 15.4739 17.3507 14.4343 17.4078Z" fill="#FFFFFF"/>
</svg>
