<svg width="48" height="48" viewBox="0 0 48 48" fill="none" xmlns="http://www.w3.org/2000/svg">
<rect width="48" height="48" rx="24" fill="#3970FF"/>
<path d="M31.5047 11.4551C26.9309 10.5817 22.1812 10.5817 17.6073 11.4551C15.5843 11.8919 13.0335 14.3376 12.5937 16.2592C11.8021 20.0151 11.8021 23.8583 12.5937 27.6142C13.1215 29.5358 15.6722 31.9815 17.6073 32.4182C17.6953 32.4182 17.7832 32.5056 17.7832 32.5929V38.0957C17.7832 38.3578 18.1351 38.5325 18.311 38.2704L20.9497 35.5627C20.9497 35.5627 23.0607 33.379 23.4126 33.0297C23.4126 33.0297 23.5005 32.9423 23.5885 32.9423C26.2272 33.0297 28.9539 32.7676 31.5927 32.3309C33.6157 31.8942 36.1665 29.4485 36.6063 27.5268C37.3979 23.771 37.3979 19.9277 36.6063 16.1718C36.0785 14.3376 33.5278 11.8919 31.5047 11.4551ZM31.5927 27.8762C31.1529 28.7497 30.6251 29.4485 29.7456 29.8852C29.4817 29.9725 29.2178 30.0599 28.9539 30.1472C28.6021 30.0599 28.3382 29.9725 28.0743 29.8852C25.2597 28.7497 22.6209 27.1775 20.5099 24.9065C19.3665 23.5963 18.399 22.1114 17.6073 20.5392C17.2555 19.753 16.9037 19.0543 16.6398 18.2681C16.3759 17.5694 16.8157 16.8706 17.2555 16.3465C17.6953 15.8225 18.223 15.4731 18.8387 15.211C19.2785 14.949 19.7183 15.1237 20.0702 15.4731C20.7738 16.3465 21.4775 17.22 22.0052 18.1808C22.3571 18.7922 22.2691 19.491 21.6534 19.9277C21.4775 20.0151 21.3895 20.1024 21.2136 20.2771C21.1257 20.3645 20.9497 20.4518 20.8618 20.6265C20.6859 20.8885 20.6859 21.1506 20.7738 21.4126C21.4775 23.4216 22.7969 24.9938 24.8199 25.8673C25.1717 26.042 25.4356 26.1293 25.8754 26.1293C26.4911 26.042 26.755 25.3432 27.1948 24.9938C27.6346 24.6444 28.1623 24.6444 28.6901 24.9065C29.1298 25.1685 29.5696 25.5179 30.0974 25.8673C30.5372 26.2167 30.977 26.4787 31.4168 26.8281C31.6806 27.0028 31.7686 27.4395 31.5927 27.8762ZM27.8984 21.3253C27.7225 21.3253 27.8105 21.3253 27.8984 21.3253C27.5466 21.3253 27.4586 21.1506 27.3707 20.8885C27.3707 20.7138 27.3707 20.4518 27.2827 20.2771C27.1948 19.9277 27.0189 19.5783 26.667 19.3163C26.4911 19.229 26.3152 19.1416 26.1393 19.0543C25.8754 18.9669 25.6995 18.9669 25.4356 18.9669C25.1717 18.8796 25.0838 18.7049 25.0838 18.4428C25.0838 18.2681 25.3476 18.0935 25.5236 18.0935C26.9309 18.1808 27.9864 18.9669 28.1623 20.6265C28.1623 20.7138 28.1623 20.8885 28.1623 20.9759C28.1623 21.1506 28.0743 21.3253 27.8984 21.3253ZM27.0188 17.482C26.5791 17.3073 26.1393 17.1326 25.6115 17.0453C25.4356 17.0453 25.1717 16.958 24.9958 16.958C24.7319 16.958 24.556 16.7833 24.644 16.5212C24.644 16.2592 24.8199 16.0845 25.0838 16.1718C25.9634 16.2592 26.755 16.4339 27.5466 16.7833C29.1298 17.5694 30.0094 18.8796 30.2733 20.6265C30.2733 20.7138 30.2733 20.8012 30.2733 20.8885C30.2733 21.0632 30.2733 21.2379 30.2733 21.5C30.2733 21.5873 30.2733 21.6747 30.2733 21.762C30.1853 22.1114 29.5696 22.1987 29.4817 21.762C29.4817 21.6747 29.3937 21.5 29.3937 21.4126C29.3937 20.6265 29.2178 19.8404 28.866 19.1416C28.3382 18.3555 27.7225 17.8314 27.0188 17.482ZM31.7686 22.7228C31.5047 22.7228 31.3288 22.4608 31.3288 22.1987C31.3288 21.6747 31.2408 21.1506 31.1529 20.6265C30.801 17.8314 28.5141 15.5604 25.7874 15.1237C25.3476 15.0363 24.9079 15.0363 24.556 14.949C24.2921 14.949 23.9403 14.949 23.8524 14.5996C23.7644 14.3376 24.0283 14.0755 24.2921 14.0755C24.3801 14.0755 24.4681 14.0755 24.4681 14.0755C28.0743 14.1629 24.644 14.0755 24.4681 14.0755C28.1623 14.1629 31.2408 16.6086 31.8565 20.2771C31.9445 20.8885 32.0325 21.5 32.0325 22.1987C32.2084 22.4608 32.0325 22.7228 31.7686 22.7228Z" fill="white"/>
</svg>
