<svg width="48" height="48" viewBox="0 0 48 48" fill="none" xmlns="http://www.w3.org/2000/svg">
<rect width="48" height="48" rx="24" fill="#3970FF"/>
<path d="M33.5122 14.475C31.1415 12.1125 27.9805 10.8 24.6439 10.8C17.7073 10.8 12.0878 16.4 12.0878 23.3125C12.0878 25.5 12.7024 27.6875 13.7561 29.525L12 36L18.6732 34.25C20.5171 35.2125 22.5366 35.7376 24.6439 35.7376C31.5805 35.7376 37.2 30.1376 37.2 23.2251C37.1122 19.9876 35.8829 16.8375 33.5122 14.475ZM30.7024 27.775C30.439 28.475 29.2098 29.175 28.5951 29.2625C28.0683 29.35 27.3659 29.3501 26.6634 29.1751C26.2244 29.0001 25.6098 28.8251 24.9073 28.4751C21.7463 27.1626 19.7268 24.0125 19.5512 23.75C19.3756 23.575 18.2341 22.0875 18.2341 20.5125C18.2341 18.9375 19.0244 18.2375 19.2878 17.8875C19.5512 17.5375 19.9024 17.5375 20.1659 17.5375C20.3415 17.5375 20.6049 17.5375 20.7805 17.5375C20.9561 17.5375 21.2195 17.45 21.4829 18.0625C21.7463 18.675 22.361 20.25 22.4488 20.3375C22.5366 20.5125 22.5366 20.6875 22.4488 20.8625C22.361 21.0375 22.2732 21.2125 22.0976 21.3875C21.9219 21.5625 21.7463 21.825 21.6585 21.9125C21.4829 22.0875 21.3073 22.2625 21.4829 22.525C21.6585 22.875 22.2732 23.8375 23.239 24.7125C24.4683 25.7625 25.4341 26.1126 25.7854 26.2876C26.1366 26.4626 26.3122 26.375 26.4878 26.2C26.6634 26.025 27.2781 25.3251 27.4537 24.9751C27.6293 24.6251 27.8927 24.7125 28.1561 24.8C28.4195 24.8875 30 25.6751 30.2634 25.8501C30.6146 26.0251 30.7902 26.1125 30.878 26.2C30.9659 26.4625 30.9659 27.075 30.7024 27.775Z" fill="white"/>
</svg>
