<svg width="115" height="95" viewBox="0 0 115 95" fill="none" xmlns="http://www.w3.org/2000/svg">
<path d="M70.4693 11.2833C70.2945 11.6579 70.2339 11.7865 70.1747 11.9156C69.4353 13.5264 69.7149 14.6118 71.0238 15.2127C72.6084 15.9401 74.2419 15.412 74.9462 13.9445C76.0498 11.6463 74.8799 9.02455 72.224 8.41168C70.7742 8.07701 69.1329 8.03921 67.6801 8.34761C62.7742 9.38895 58.4226 11.6894 54.8546 15.1949C51.1048 18.879 49.9508 23.6342 50.3654 28.7275C50.5286 30.7328 52.1939 32.8696 52.6263 34.8062C52.7213 35.231 51.6546 35.4944 51.7378 35.9151C50.2407 34.6013 49.0994 32.8088 48.4406 30.721C47.2398 26.9157 47.4276 23.0287 48.2281 19.2162C49.3635 13.809 49.452 8.49051 47.7699 3.19091C47.7056 2.98831 47.7229 2.75967 47.6754 2.26574C47.8086 1.81168 48.3812 1.12782 48.6914 1.38573C51.6377 3.83489 52.2594 8.79798 52.4182 12.4434C54.1708 11.257 55.7618 10.0728 57.4534 9.05612C61.6545 6.53114 66.087 4.65312 71.1271 4.90758C74.0918 5.0574 76.5502 6.20292 78.0968 8.89548C79.842 11.9342 78.9954 15.3957 76.0422 17.3507C73.9837 18.7135 71.8685 19.3559 69.6171 17.8478C68.3287 16.9847 67.5349 15.7988 67.747 14.1587C67.9369 12.6891 68.9453 11.9298 70.4693 11.2833Z" fill="#480700"/>
<path d="M34.1366 20.4945C34.182 20.5128 34.9136 19.6517 34.9594 19.6692C35.047 19.7028 37.1366 21.1678 37.7852 19.9469C38.585 18.4418 38.1307 16.7307 36.7273 15.9622C34.4118 14.6943 31.598 16.057 30.9098 18.7756C30.3803 20.8675 30.7079 22.9177 31.3588 24.9003C32.7509 29.1413 34.7688 33.0633 38.0159 36.1933C41.7793 39.8211 46.4764 40.9111 51.5158 40.49C53.8292 40.2966 56.956 38.8192 59.422 38.3025C59.4854 38.2893 58.6943 39.0677 58.758 39.0545C57.6037 39.8937 56.5736 40.8099 55.3981 41.4657C52.066 43.3246 48.4181 43.4112 44.7494 43.0258C41.3976 42.6737 38.0694 42.0696 34.7128 41.799C31.7448 41.5597 28.8257 42.1237 25.9898 43.0487C25.7123 43.1392 25.4189 43.1803 25.0817 43.1141C27.3181 39.3447 31.0264 38.6371 35.1567 38.4034C34.4899 37.5066 33.8916 36.737 33.3306 35.9411C30.7876 32.3328 28.7727 28.4747 27.86 24.1146C27.3911 21.8756 27.2243 19.6178 27.8867 17.389C28.7586 14.4555 30.688 12.5582 33.7007 11.9365C36.0236 11.4574 37.9196 12.3694 39.4134 14.1368C40.921 15.9203 41.8489 17.879 40.9738 20.2735C40.0991 22.6678 37.3807 23.8721 35.5421 22.604C34.8864 22.1515 34.4461 21.3865 33.9075 20.764C33.984 20.6743 34.0603 20.5844 34.1366 20.4945Z" fill="#480700"/>
<path d="M65.8333 65.9781C61.9653 63.4429 61.2194 59.78 61.0373 55.6958C59.5926 56.7127 58.3233 57.6817 56.9812 58.5359C52.9198 61.1208 48.6313 63.1193 43.7109 63.3305C41.0054 63.4466 38.5161 62.8725 36.5201 60.8838C34.5478 58.9189 33.929 55.9627 35.0047 53.6802C36.1783 51.1895 39.1827 49.3613 41.695 49.6088C44.3479 49.8702 46.3327 52.4443 45.5578 54.6554C45.183 55.7248 44.4028 56.3889 43.2981 56.7159C43.2706 56.5749 43.2232 56.488 43.2485 56.4382C43.7588 55.4363 44.1304 54.4302 43.1794 53.4764C42.431 52.726 40.8538 52.4471 39.9652 52.8686C38.7517 53.4444 38.0019 54.6941 38.0669 56.033C38.1663 58.0758 39.569 59.6288 41.7278 60.0255C44.9108 60.6107 47.8189 59.606 50.6315 58.3201C53.5375 56.9916 56.3054 55.3943 58.5937 53.1194C61.6391 50.0917 62.8902 46.2762 63.152 42.0956C63.3639 38.7128 62.7763 35.4482 61.3729 32.341C61.4492 32.2815 62.2169 31.5308 62.2932 31.4716C62.7939 32.0222 66.0529 40.6254 65.7388 44.4088C65.479 47.5354 64.8258 50.6274 64.4663 53.7482C64.0399 57.4489 65.6551 61.4787 66.7552 65.0358C66.7691 65.0806 65.7169 65.3553 65.8333 65.9781Z" fill="#480700"/>
<path d="M88.4852 25.1239C86.0881 28.8624 82.3764 29.5822 78.3774 29.8403C79.5128 31.509 80.659 33.0365 81.6386 34.6642C84.102 38.7563 85.9295 43.0795 85.9123 47.9705C85.898 52.0109 83.6687 55.2294 80.2317 56.1306C77.9109 56.7391 75.8729 56.0928 74.2745 54.3294C72.7272 52.6226 71.5566 50.6725 72.4264 48.2784C72.7706 47.3316 73.4908 46.3621 74.3079 45.7778C76.0368 44.5413 79.0059 44.9909 80.0268 46.6924C80.1943 46.9715 79.1878 47.2841 79.3086 47.6287C79.1906 47.6204 79.082 47.6425 79.0057 47.6028C77.5271 46.8351 76.4395 46.9766 75.7577 48.0332C74.9208 49.3301 75.154 51.0636 76.2917 52.0035C78.4357 53.7748 81.754 52.5493 82.5418 49.6302C83.2543 46.99 82.6186 44.4484 81.6902 41.9771C80.5064 38.827 78.8545 35.9224 76.711 33.3334C74.1532 30.2444 70.7805 28.5401 66.844 27.9397C62.8584 27.3319 59.2617 27.6627 54.816 29.4607C55.7746 27.8574 58.2065 26.3136 60.7841 25.6224C64.5979 24.5995 68.4277 24.8947 72.1939 25.7102C77.5769 26.8758 82.8512 26.7612 88.0867 25.0416C88.1466 25.022 88.228 25.0681 88.4852 25.1239Z" fill="#480700"/>
<path d="M53.7644 24.6578C54.2802 23.4611 54.7043 22.2137 55.3319 21.0791C56.5273 18.9182 58.2052 17.1937 60.5405 16.2679C61.2234 15.997 62.0366 15.9189 62.7781 15.9615C64.0559 16.0353 64.4173 16.9457 63.5721 17.9274C63.1337 18.4363 62.5886 18.9553 61.9827 19.2013C58.8985 20.4531 56.0412 21.995 54.1187 24.895C54.0007 24.816 53.8824 24.7369 53.7644 24.6578Z" fill="#480700"/>
<path d="M66.0081 31.3899C66.5306 31.5059 66.5769 30.29 67.0674 30.4477C70.1937 31.4533 73.1022 34.6926 74.519 37.8616C74.8318 38.5613 74.8931 39.4275 74.8694 40.2107C74.8357 41.3184 73.8661 41.7515 73.0218 41.0289C72.4264 40.5195 71.8334 39.8719 71.5455 39.162C70.3182 36.1331 68.8018 33.3431 66.0081 31.3899Z" fill="#480700"/>
<path d="M59.4255 43.7072C59.2807 47.3782 55.1324 51.742 51.6717 52.2827C51.3006 52.3406 50.8981 52.341 50.5324 52.2643C49.4839 52.0439 49.1446 51.1953 49.8467 50.3985C50.3427 49.8354 50.9417 49.2456 51.6175 48.9787C54.6196 47.793 57.5846 46.2697 59.5333 43.5599" fill="#480700"/>
<path d="M73.0953 22.1757C73.7041 22.0344 73.628 21.3941 74.2067 21.266C75.3825 21.0055 77.1727 21.2646 78.2788 20.9546C79.9519 20.4858 81.2154 19.3658 82.393 18.1237C82.8261 17.6669 83.376 17.214 83.9571 17.0381C84.4249 16.8964 85.1936 17.0001 85.5103 17.3152C85.8337 17.6367 85.9556 18.3936 85.8385 18.8813C85.4744 20.3982 84.2537 21.174 82.9219 21.7488C80.4486 22.8162 77.8473 22.7752 75.2363 22.527C74.5615 22.4627 73.8951 22.3096 73.0953 22.1757Z" fill="#480700"/>
<path d="M47.7302 36.8647C43.7746 36.616 39.2414 32.7127 38.5554 29.1961C38.4835 28.8269 38.466 28.4256 38.5262 28.0559C38.6142 27.5147 39.6341 26.2837 39.9167 26.0982C40.2984 25.8472 40.0043 26.797 40.5485 27.2852C41.0521 27.7367 41.5801 28.2793 41.8178 28.8894C42.8688 31.5884 46.0451 33.8264 48.3975 35.7535C48.766 36.0554 47.3084 36.5916 47.7302 36.8647Z" fill="#480700"/>
<path d="M40.1217 45.8984C38.4908 46.2093 37.4034 46.6214 36.1239 46.9517C34.3132 47.4194 32.7166 48.2934 31.4623 49.736C31.0647 50.1938 30.6305 50.7575 30.1018 50.9283C29.4465 51.1401 28.5003 51.2512 28.0115 50.9186C27.6397 50.6658 27.5491 49.5719 27.7462 48.9925C28.2851 47.4069 29.7046 46.691 31.189 46.2169C33.5586 45.4598 38.2278 44.6284 41.09 45.1435C41.5083 45.2187 40.6668 45.3353 40.4018 45.8984" fill="#480700"/>
<path d="M44.6536 17.3532C44.3901 16.0491 44.1855 14.7295 43.849 13.4448C43.3951 11.7129 42.5912 10.1583 41.2184 8.94316C40.7888 8.56286 40.3843 8.14683 40.0132 7.70913C39.4015 6.98771 39.2805 6.13375 39.8364 5.38236C40.4186 4.59571 41.2594 4.78863 42.0353 5.15464C43.3062 5.75414 44.0117 6.88145 44.4664 8.10626C45.3845 10.5785 46.0317 13.6914 45.6212 16.2123C45.5271 16.7894 44.7877 16.777 44.6536 17.3532Z" fill="#480700"/>
<path d="M68.7263 50.9323C68.7803 51.2322 69.6255 49.8594 69.6785 50.1586C70.0719 52.3809 69.7128 56.2345 71.1416 58.0786C71.6551 58.7417 72.3035 59.2986 72.856 59.9338C73.2029 60.3325 73.6567 60.7522 73.7523 61.2254C73.8598 61.7567 74.2564 61.9321 73.9354 62.3036C73.6539 62.6296 72.4215 63.3056 71.9216 63.2115C70.5894 62.9608 69.8449 61.8883 69.3198 60.7817C67.8053 57.5895 68.0314 54.2576 68.7263 50.9323Z" fill="#480700"/>
<path d="M26.2193 37.4321C24.6999 37.4173 23.4728 36.2188 23.485 34.7619C23.4983 33.2218 24.7202 32.0485 26.2983 32.0605C27.8396 32.0723 29.0212 33.2307 29.0083 34.7171C28.9944 36.3031 27.819 37.4475 26.2193 37.4321Z" fill="#480700"/>
<path d="M60.0693 64.5244C60.0968 65.972 58.8755 67.2822 57.4458 67.3391C56.0204 67.3957 54.6895 66.1497 54.6428 64.7159C54.5936 63.1969 55.8096 61.8954 57.3149 61.8554C58.721 61.8185 60.042 63.0984 60.0693 64.5244Z" fill="#480700"/>
<path d="M58.8057 3.6242C58.8118 5.23742 57.671 6.3588 56.0412 6.34155C54.5217 6.32565 53.3937 5.15716 53.3987 3.60369C53.4036 2.07049 54.5629 0.939269 56.1152 0.952534C57.6873 0.966565 58.7998 2.07091 58.8057 3.6242Z" fill="#480700"/>
<path d="M89.8593 33.5276C89.8446 35.0188 88.5904 36.2344 87.1144 36.1884C85.6653 36.1427 84.5095 34.9476 84.5167 33.502C84.524 31.9658 85.7266 30.7438 87.1967 30.778C88.7125 30.8129 89.8742 32.0127 89.8593 33.5276Z" fill="#480700"/>
<path d="M71.3915 10.3411C71.2168 10.7157 71.1562 10.8443 71.0969 10.9734C70.3575 12.5842 70.6371 13.6696 71.946 14.2705C73.5306 14.9979 75.1641 14.4699 75.8685 13.0023C76.9721 10.7042 75.8021 8.08236 73.1462 7.46949C71.6964 7.13483 70.0551 7.09703 68.6024 7.40542C63.6964 8.44676 59.3448 10.7473 55.7769 14.2527C52.0271 17.9369 50.873 22.692 51.2877 27.7854C51.4866 30.2306 52.1974 32.6341 52.66 34.9729C51.163 33.6591 50.0216 31.8666 49.3629 29.7788C48.162 25.9735 48.3499 22.0865 49.1504 18.2741C50.2858 12.8668 50.3743 7.54832 48.6922 2.24872C48.6279 2.04613 48.6451 1.81748 48.5977 1.32355C52.4162 3.81627 53.165 7.47203 53.3404 11.5012C55.093 10.3149 56.6841 9.13062 58.3756 8.11394C62.5767 5.58895 67.0092 3.71094 72.0493 3.96539C75.0141 4.11521 77.4724 5.26073 79.019 7.95329C80.7643 10.992 79.9177 14.4535 76.9645 16.4085C74.906 17.7714 72.7908 18.4137 70.5394 16.9057C69.251 16.0425 68.4572 14.8566 68.6692 13.2165C68.8591 11.7469 69.8675 10.9877 71.3915 10.3411Z" fill="url(#paint0_linear_46_160)"/>
<path d="M35.0586 19.5523C35.1911 19.6056 35.3264 19.6526 35.4555 19.713C37.0288 20.4492 38.0586 20.2256 38.7072 19.0047C39.507 17.4996 39.0527 15.7885 37.6493 15.02C35.3338 13.7521 32.52 15.1148 31.8318 17.8334C31.3023 19.9253 31.6299 21.9755 32.2808 23.9581C33.6729 28.1991 35.6908 32.1211 38.9379 35.2511C42.7013 38.8789 47.3984 39.9689 52.4378 39.5478C54.8107 39.3494 57.1402 38.633 59.68 38.1123C58.5257 38.9515 57.4956 39.8677 56.3201 40.5235C52.988 42.3824 49.3401 42.469 45.6714 42.0836C42.3196 41.7315 38.9914 41.1274 35.6348 40.8568C32.6668 40.6175 29.7477 41.1815 26.9118 42.1065C26.6343 42.197 26.3409 42.2381 26.0037 42.1719C28.2401 38.4025 31.9484 37.6949 36.0787 37.4612C35.4119 36.5644 34.8136 35.7948 34.2526 34.9989C31.7096 31.3906 29.6947 27.5325 28.782 23.1724C28.3131 20.9334 28.1463 18.6756 28.8087 16.4468C29.6806 13.5133 31.61 11.616 34.6227 10.9943C36.9456 10.5152 38.8416 11.4272 40.3354 13.1946C41.843 14.9781 42.7709 16.9368 41.8958 19.3313C41.0211 21.7256 38.3027 22.9299 36.4641 21.6618C35.8084 21.2093 35.3681 20.4443 34.8295 19.8218C34.906 19.7321 34.9823 19.6422 35.0586 19.5523Z" fill="url(#paint1_linear_46_160)"/>
<path d="M66.7555 65.0358C62.8875 62.5007 62.1416 58.8378 61.9596 54.7536C60.5149 55.7705 59.2456 56.7394 57.9034 57.5936C53.842 60.1785 49.5536 62.1771 44.6331 62.3882C41.9277 62.5044 39.4384 61.9303 37.4424 59.9416C35.4701 57.9767 34.8512 55.0205 35.9269 52.738C37.1006 50.2473 40.105 48.4191 42.6173 48.6666C45.2702 48.928 47.2549 51.5021 46.48 53.7131C46.1052 54.7826 45.325 55.4466 44.2203 55.7737C44.1929 55.6326 44.1454 55.5458 44.1708 55.496C44.6811 54.494 45.0526 53.488 44.1016 52.5342C43.3532 51.7837 41.776 51.5048 40.8875 51.9264C39.6739 52.5022 38.9242 53.7519 38.9892 55.0908C39.0885 57.1336 40.4913 58.6866 42.65 59.0833C45.833 59.6685 48.7411 58.6638 51.5537 57.3779C54.4597 56.0494 57.2276 54.4521 59.5159 52.1772C62.5614 49.1495 63.8124 45.334 64.0743 41.1534C64.2861 37.7706 63.6986 34.5059 62.2951 31.3987C62.3714 31.3393 62.4477 31.28 62.524 31.2208C63.0246 31.7714 63.5702 32.288 64.0187 32.8782C66.4091 36.0244 66.9752 39.6831 66.661 43.4666C66.4013 46.5932 65.7481 49.6851 65.3885 52.8059C64.9568 56.553 65.3957 60.2359 66.5267 63.8357C66.6143 64.1146 66.6391 64.4131 66.7555 65.0358Z" fill="url(#paint2_linear_46_160)"/>
<path d="M89.4071 24.1817C87.01 27.9202 83.2982 28.64 79.2993 28.8981C80.4346 30.5668 81.5809 32.0943 82.5604 33.722C85.0239 37.8141 86.8514 42.1373 86.8341 47.0283C86.8198 51.0687 84.5906 54.2872 81.1535 55.1884C78.8328 55.7969 76.7948 55.1506 75.1964 53.3872C73.6491 51.6804 72.4785 49.7303 73.3483 47.3362C73.6924 46.3894 74.4127 45.4199 75.2298 44.8356C77.2422 43.3962 79.3737 44.2417 80.2304 46.6865C80.1124 46.6782 80.0039 46.7003 79.9276 46.6606C78.449 45.8929 77.3613 46.0344 76.6795 47.091C75.8426 48.3879 76.0759 50.1214 77.2136 51.0613C79.3576 52.8326 82.6759 51.6071 83.4637 48.688C84.1762 46.0478 83.5405 43.5062 82.6121 41.0349C81.4283 37.8848 79.7764 34.9802 77.6328 32.3912C75.0751 29.3022 71.7024 27.5979 67.7659 26.9975C63.7803 26.3897 60.1836 26.7205 55.7379 28.5185C56.6965 26.9152 59.1284 25.3714 61.7059 24.6802C65.5198 23.6573 69.3496 23.9525 73.1157 24.768C78.4988 25.9336 83.773 25.819 89.0086 24.0994C89.0685 24.0798 89.1498 24.1259 89.4071 24.1817Z" fill="url(#paint3_linear_46_160)"/>
<path d="M54.6865 23.7157C55.2024 22.519 55.6265 21.2716 56.2541 20.1369C57.4494 17.9761 59.1273 16.2516 61.4626 15.3257C62.1456 15.0549 62.9587 14.9768 63.7002 15.0194C64.978 15.0932 65.3394 16.0036 64.4942 16.9852C64.0558 17.4942 63.5107 18.0132 62.9048 18.2591C59.8206 19.5109 56.9633 21.0529 55.0408 23.9529C54.9228 23.8738 54.8045 23.7948 54.6865 23.7157Z" fill="url(#paint4_linear_46_160)"/>
<path d="M66.9302 30.4477C70.7832 31.3024 73.8022 33.2532 75.4412 36.9194C75.7539 37.6191 75.8152 38.4853 75.7915 39.2685C75.7578 40.3762 74.7882 40.8093 73.9439 40.0867C73.3486 39.5773 72.7555 38.9297 72.4676 38.2198C71.2403 35.1909 69.7239 32.4009 66.9302 30.4477Z" fill="url(#paint5_linear_46_160)"/>
<path d="M60.225 42.6177C60.0802 46.2886 56.0545 50.7998 52.5938 51.3405C52.2227 51.3983 51.8203 51.3988 51.4545 51.322C50.406 51.1017 50.0667 50.253 50.7688 49.4562C51.2648 48.8932 51.8638 48.3033 52.5396 48.0364C55.5417 46.8508 58.2762 45.3275 60.225 42.6177Z" fill="url(#paint6_linear_46_160)"/>
<path d="M74.0172 21.2334C75.8625 20.8049 77.5501 20.4749 79.2006 20.0123C80.8738 19.5435 82.1373 18.4235 83.3148 17.1814C83.7479 16.7246 84.2979 16.2717 84.8789 16.0958C85.3468 15.9541 86.1155 16.0578 86.4322 16.3729C86.7556 16.6944 86.8775 17.4513 86.7604 17.939C86.3962 19.4559 85.1756 20.2317 83.8438 20.8065C81.3705 21.8739 78.7692 21.8329 76.1582 21.5847C75.4833 21.5204 74.817 21.3673 74.0172 21.2334Z" fill="url(#paint7_linear_46_160)"/>
<path d="M48.6521 35.9225C44.6965 35.6738 40.1633 31.7705 39.4773 28.2539C39.4054 27.8847 39.3879 27.4834 39.448 27.1137C39.6553 25.8412 40.5235 25.4936 41.4703 26.343C41.974 26.7945 42.502 27.3371 42.7396 27.9472C43.9552 31.0689 45.5375 33.906 48.6521 35.9225Z" fill="url(#paint8_linear_46_160)"/>
<path d="M41.2742 45.1867C39.6433 45.4976 38.3254 45.6793 37.0459 46.0095C35.2352 46.4772 33.6386 47.3512 32.3843 48.7938C31.9867 49.2516 31.5525 49.8154 31.0238 49.9861C30.3685 50.198 29.4223 50.3091 28.9335 49.9765C28.5617 49.7236 28.4711 48.6297 28.6682 48.0503C29.207 46.4648 30.6266 45.7489 32.111 45.2748C34.8268 44.407 37.9298 44.3867 41.2742 45.1867Z" fill="url(#paint9_linear_46_160)"/>
<path d="M45.5756 16.4109C45.3121 15.1068 45.1075 13.7873 44.771 12.5026C44.3171 10.7707 43.5132 9.21603 42.1404 8.0009C41.7108 7.6206 41.3063 7.20457 40.9352 6.76687C40.3235 6.04545 40.2025 5.19149 40.7584 4.4401C41.3406 3.65345 42.1814 3.84636 42.9573 4.21238C44.2282 4.81188 44.9337 5.93919 45.3884 7.164C46.5167 10.2023 46.2959 13.318 45.5756 16.4109Z" fill="url(#paint10_linear_46_160)"/>
<path d="M69.6482 49.9901C70.102 52.5181 70.4422 55.044 72.0635 57.1363C72.577 57.7995 73.2254 58.3563 73.7779 58.9915C74.1247 59.3903 74.5786 59.81 74.6742 60.2832C74.7816 60.8145 74.7173 61.5698 74.3963 61.9413C74.1148 62.2672 73.3434 62.3633 72.8435 62.2693C71.5112 62.0185 70.7668 60.9461 70.2417 59.8395C68.7272 56.6473 68.9533 53.3153 69.6482 49.9901Z" fill="url(#paint11_linear_46_160)"/>
<path d="M27.1414 36.4899C25.6221 36.4751 24.3949 35.2766 24.4072 33.8197C24.4204 32.2796 25.6423 31.1063 27.2204 31.1183C28.7617 31.1301 29.9433 32.2885 29.9304 33.7749C29.9165 35.3609 28.7411 36.5053 27.1414 36.4899Z" fill="url(#paint12_linear_46_160)"/>
<path d="M60.9915 63.5821C61.0191 65.0297 59.7978 66.3399 58.368 66.3968C56.9426 66.4534 55.6117 65.2074 55.565 63.7736C55.5158 62.2546 56.7319 60.9531 58.2372 60.9131C59.6432 60.8762 60.9642 62.1561 60.9915 63.5821Z" fill="url(#paint13_linear_46_160)"/>
<path d="M59.7278 2.68203C59.7339 4.29525 58.5931 5.41663 56.9634 5.39938C55.4438 5.38348 54.3158 4.215 54.3208 2.66152C54.3257 1.12832 55.485 -0.0029003 57.0373 0.0103647C58.6094 0.0243957 59.7219 1.12874 59.7278 2.68203Z" fill="url(#paint14_linear_46_160)"/>
<path d="M90.7816 32.5854C90.7668 34.0766 89.5127 35.2922 88.0366 35.2462C86.5875 35.2005 85.4318 34.0054 85.4389 32.5598C85.4463 31.0237 86.6488 29.8016 88.119 29.8358C89.6347 29.8708 90.7964 31.0705 90.7816 32.5854Z" fill="url(#paint15_linear_46_160)"/>
<path d="M15.0847 70.9175C15.131 71.1791 15.1648 71.3606 15.1879 71.4621C15.211 71.5617 15.2235 71.697 15.2235 71.866C15.2235 72.375 15.1115 72.8502 14.8872 73.2898C14.6648 73.7294 14.3604 74.0408 13.9742 74.2259C13.6664 73.8095 13.2872 73.4518 12.8405 73.151C12.3938 72.8502 11.9027 72.6028 11.3705 72.4106C10.8384 72.2166 10.2884 72.0743 9.71716 71.9817C9.14588 71.8892 8.59066 71.8429 8.05142 71.8429C7.51217 71.8429 7.00665 71.8856 6.53503 71.9711C6.06519 72.0547 5.6488 72.1704 5.28574 72.3181C4.92447 72.464 4.6379 72.6456 4.42968 72.8609C4.22146 73.0763 4.11826 73.3236 4.11826 73.6012C4.16453 73.9412 4.37278 74.2847 4.74295 74.6317C5.11313 74.9787 5.56867 75.3169 6.10792 75.6497C6.64717 75.9807 7.24518 76.3082 7.9001 76.6321C8.55681 76.956 9.20106 77.2638 9.83285 77.5575C10.6195 77.9277 11.2975 78.2712 11.8688 78.5879C12.4401 78.903 12.91 79.25 13.2801 79.6291C13.6503 80.0063 13.928 80.4335 14.1131 80.9122C14.2981 81.391 14.3906 81.9694 14.3906 82.6474C14.3906 83.4341 14.259 84.1709 13.9974 84.8578C13.7358 85.543 13.3531 86.141 12.8512 86.65C12.3511 87.1589 11.7461 87.5558 11.036 87.8424C10.3259 88.1271 9.53203 88.2695 8.65287 88.2695C7.78971 88.2695 6.85538 88.1378 5.85341 87.8762C4.85145 87.6145 3.91363 87.255 3.04158 86.8012C2.17131 86.3456 1.44511 85.8206 0.86671 85.228C0.288309 84.6335 0 84.0053 0 83.3415C0 83.0336 0.0890698 82.6403 0.265259 82.1616C0.443229 81.6828 0.763534 81.1827 1.22625 80.6577C1.27253 81.1204 1.52346 81.6686 1.97728 82.3004C2.43288 82.9322 3.11628 83.5195 4.02571 84.0587C4.87462 84.5517 5.74841 84.9112 6.65071 85.1354C7.55302 85.3579 8.39839 85.47 9.18501 85.47C10.0482 85.47 10.7512 85.3615 11.2905 85.1461C11.8297 84.9308 12.255 84.6727 12.5629 84.3719C12.8708 84.0712 13.0879 83.7651 13.2107 83.4572C13.3335 83.1493 13.4029 82.9019 13.419 82.7168C13.4029 82.409 13.2605 82.1117 12.99 81.827C12.7213 81.5405 12.3583 81.2628 11.9027 80.9941C11.4489 80.7236 10.9203 80.4495 10.3187 80.1718C9.71719 79.8942 9.09255 79.6166 8.44474 79.339C7.47303 78.9065 6.63656 78.5025 5.93358 78.1252C5.23238 77.7461 4.65391 77.3617 4.19831 76.9684C3.74449 76.5751 3.41176 76.1622 3.20353 75.7298C2.99531 75.2973 2.892 74.8043 2.892 74.2491C2.892 73.3859 3.15365 72.5672 3.67865 71.7966C4.20366 71.026 4.95823 70.4387 5.94596 70.0383C6.43893 69.823 6.96753 69.6681 7.52991 69.5756C8.09408 69.483 8.64577 69.4368 9.18501 69.4368C10.203 69.4368 11.1979 69.5756 12.1696 69.8532C13.1413 70.1308 14.113 70.485 15.0847 70.9175Z" fill="#7F7D8B"/>
<path d="M15.9176 86.1178C15.9176 85.5785 15.971 84.9414 16.0796 84.21C16.1881 83.4767 16.3447 82.6936 16.5529 81.8608C16.7612 81.0279 17.0086 80.1558 17.2933 79.2464C17.5799 78.337 17.9002 77.4258 18.2543 76.5163C18.5622 75.6995 18.9217 74.8737 19.3293 74.0408C19.7386 73.2079 20.1817 72.391 20.6604 71.5884C21.1392 70.7857 21.6357 70.0223 22.1519 69.2979C22.6697 68.5736 23.1894 67.9098 23.7144 67.3082C23.9618 67.3082 24.227 67.3385 24.5117 67.4008C24.7982 67.4631 25.0759 67.5431 25.3446 67.6446C25.6151 67.7442 25.8625 67.8635 26.085 68.0023C26.3093 68.1411 26.4907 68.2799 26.6295 68.4187C25.4727 69.6058 24.4316 70.8053 23.5062 72.0173C22.5807 73.2275 21.8475 74.3647 21.3083 75.429C21.0146 76.0145 20.7495 76.5626 20.5092 77.0716C20.2708 77.5806 20.0519 78.086 19.8508 78.5879C19.6497 79.088 19.4681 79.5899 19.3061 80.0918C19.1442 80.5919 18.9947 81.1204 18.8559 81.6757C21.8173 77.8974 24.0152 76.0073 25.4497 76.0073C25.8501 76.0073 26.2825 76.1391 26.7452 76.4007C27.2079 76.6623 27.6173 77.0182 27.9715 77.4649C27.4927 77.9899 26.9997 78.6217 26.4907 79.3621C25.9817 80.1024 25.5155 80.8463 25.0901 81.5956C24.6666 82.3431 24.3195 83.0371 24.049 83.6778C23.7802 84.3167 23.645 84.7919 23.645 85.0998C23.645 85.2546 23.6681 85.3579 23.7144 85.413C23.7607 85.4664 23.8604 85.4931 24.0152 85.4931C24.2465 85.4931 24.4317 85.4629 24.5705 85.4006C24.7093 85.3383 24.7947 85.308 24.825 85.308C24.9015 85.4308 24.9478 85.5163 24.9638 85.5625C24.9798 85.6088 24.9869 85.648 24.9869 85.6782C24.9869 85.7405 24.8944 85.8295 24.7093 85.9452C24.5242 86.0609 24.3035 86.1765 24.049 86.2922C23.7945 86.4079 23.5453 86.5111 23.2979 86.6036C23.0506 86.6962 22.8656 86.7425 22.7428 86.7425C22.5879 86.7425 22.4349 86.6997 22.28 86.6161C22.1252 86.5307 21.9899 86.4185 21.8742 86.2797C21.7585 86.1409 21.666 85.9861 21.5966 85.817C21.5272 85.648 21.4934 85.47 21.4934 85.2849C21.4934 85.0535 21.5592 84.7101 21.6891 84.2562C21.8208 83.8006 22.0024 83.2685 22.2338 82.6598C22.4651 82.0494 22.7427 81.382 23.0666 80.6577C23.3905 79.9334 23.7376 79.193 24.1077 78.4367C24.1077 78.3744 24.0775 78.3441 24.0152 78.3441C23.9689 78.3441 23.8497 78.4064 23.6557 78.5292C23.4635 78.652 23.2819 78.7765 23.1128 78.8993C22.5576 79.3158 21.9988 79.8284 21.4346 80.4388C20.8722 81.0475 20.3241 81.7148 19.792 82.4392C19.2599 83.1635 18.7597 83.9323 18.2881 84.7421C17.8183 85.5519 17.4144 86.3652 17.0744 87.1821C17.0282 87.2906 16.9588 87.3902 16.8662 87.4828C16.7737 87.5753 16.6971 87.6216 16.6348 87.6216C16.5886 87.6216 16.5227 87.5682 16.4373 87.4597C16.3536 87.3511 16.2753 87.2176 16.2059 87.0557C16.1365 86.8937 16.0724 86.7264 16.0102 86.5574C15.9479 86.3883 15.9176 86.2406 15.9176 86.1178Z" fill="#7F7D8B"/>
<path d="M26.2129 94.1691C25.9976 94.1068 25.8731 93.8754 25.8429 93.475C25.7806 93.2739 25.7378 93.0354 25.7147 92.7578C25.6916 92.4801 25.6809 92.1633 25.6809 91.8092C25.6809 91.4853 25.7343 91.0422 25.8429 90.4798C25.9514 89.9156 26.1009 89.2803 26.2931 88.5702C26.4871 87.8601 26.722 87.093 26.9996 86.269C27.2772 85.4432 27.5852 84.6068 27.9251 83.7579C28.3415 82.6936 28.7045 81.7717 29.0124 80.994C29.3203 80.2145 29.5783 79.54 29.7866 78.9687C29.9948 78.3974 30.1657 77.9276 30.2956 77.5574C30.4273 77.1872 30.5323 76.8705 30.6088 76.6088C30.6711 76.4237 30.7637 76.1995 30.8865 75.9379C31.0093 75.6763 31.1516 75.4093 31.3136 75.1406C31.4755 74.8701 31.6428 74.6156 31.8119 74.3771C31.9809 74.1368 32.1358 73.9553 32.2746 73.8325C32.8138 73.909 33.3229 74.0479 33.8016 74.249C34.2804 74.4501 34.5722 74.6423 34.6807 74.8274C34.4654 75.0285 34.2181 75.3399 33.9404 75.7653C33.6628 76.1888 33.3923 76.6515 33.1307 77.1534C32.869 77.6535 32.6288 78.166 32.4134 78.691C32.1981 79.2161 32.0361 79.6788 31.9275 80.0793C32.0824 79.8176 32.2817 79.5311 32.5291 79.2232C32.7765 78.9153 33.1538 78.49 33.6628 77.9507C34.2341 77.3652 34.7698 76.9131 35.2699 76.5981C35.7718 76.2814 36.2078 76.123 36.5779 76.123C37.1635 76.123 37.6458 76.2849 38.0231 76.6088C38.4021 76.9327 38.5907 77.3492 38.5907 77.8582C38.5907 78.9687 38.4056 80.0685 38.0355 81.1559C37.6653 82.2433 37.1332 83.2257 36.4391 84.1049C36.1775 84.4448 35.8678 84.7687 35.5136 85.0766C35.1595 85.3845 34.7894 85.6586 34.4032 85.8988C34.017 86.1373 33.6397 86.3259 33.2695 86.4648C32.8993 86.6036 32.5682 86.673 32.2746 86.673C31.997 86.673 31.7532 86.616 31.545 86.5003C31.3367 86.3847 31.1944 86.2405 31.1179 86.0714C31.7194 85.7173 32.3049 85.2225 32.8762 84.5907C33.4474 83.9589 33.9742 83.2293 34.4601 82.4053C34.946 81.5795 35.3712 80.6879 35.7325 79.7322C36.0956 78.7765 36.3697 77.8048 36.5548 76.8171C35.9693 77.125 35.4407 77.4613 34.9691 77.8243C34.4993 78.1856 34.033 78.6608 33.5703 79.2463C33.015 79.9244 32.5754 80.4725 32.2515 80.889C31.9276 81.3054 31.6606 81.6596 31.4524 81.9532C31.2442 82.2469 31.0751 82.521 30.9434 82.7755C30.8135 83.03 30.6711 83.3414 30.5163 83.7116C30.301 84.2046 30.05 84.8577 29.7634 85.6675C29.4787 86.4772 29.1851 87.3831 28.8843 88.3851C28.5836 89.387 28.2828 90.4566 27.982 91.5903C27.6812 92.724 27.3929 93.8523 27.1153 94.9788C26.9462 94.9486 26.7985 94.824 26.6757 94.6086C26.5529 94.4698 26.464 94.3702 26.4088 94.3079C26.3554 94.2456 26.2895 94.1993 26.2129 94.1691Z" fill="#7F7D8B"/>
<path d="M45.7169 86.0021C45.4232 85.7547 45.2274 85.4469 45.126 85.0767C45.0263 84.7065 44.9765 84.3897 44.9765 84.1281C44.9765 83.8042 45.0157 83.5266 45.0922 83.2952C45.0299 83.2952 44.8911 83.418 44.6757 83.6654C44.4604 83.9128 44.2237 84.2046 43.9692 84.5445C43.7148 84.8845 43.4655 85.2155 43.2181 85.5394C42.9707 85.8633 42.7857 86.1018 42.6629 86.2566C42.4618 86.472 42.2731 86.6428 42.0952 86.7656C41.919 86.8884 41.7766 86.9578 41.6681 86.9739C41.4207 86.9578 41.1627 86.908 40.8922 86.8243C40.6234 86.7389 40.3689 86.6197 40.1286 86.4648C39.8902 86.31 39.6819 86.1249 39.5039 85.9096C39.3277 85.6942 39.2085 85.4469 39.1462 85.1692C39.1462 84.7368 39.1569 84.3826 39.18 84.105C39.2032 83.8274 39.2548 83.5266 39.3313 83.2027C39.4702 82.6171 39.6748 81.9533 39.9435 81.213C40.2141 80.4726 40.5272 79.7448 40.8814 79.0275C41.2356 78.3103 41.6324 77.6394 42.072 77.0147C42.5116 76.39 42.9796 75.8988 43.4726 75.5447C43.6114 75.5447 43.7734 75.5571 43.9585 75.5803C44.1436 75.6034 44.3322 75.6443 44.5244 75.7066C44.7184 75.7689 44.9035 75.8419 45.0797 75.9273C45.2577 76.011 45.409 76.1231 45.5318 76.2619C45.393 76.4167 45.0423 76.9328 44.4781 77.812C43.9158 78.6912 43.2876 79.9565 42.5935 81.6063C42.517 81.7753 42.4244 82.0227 42.3159 82.3466C42.2073 82.6706 42.1005 83.0105 41.992 83.3646C41.8834 83.7188 41.7944 84.0659 41.725 84.4058C41.6556 84.7457 41.6218 85.0144 41.6218 85.2155C41.6218 85.3383 41.6413 85.4309 41.6787 85.4932C41.7178 85.5554 41.7535 85.6017 41.7837 85.632C42.0151 85.5394 42.3088 85.2849 42.6629 84.8685C43.0171 84.452 43.5118 83.8114 44.1436 82.9482C44.2984 82.7329 44.4782 82.4855 44.6864 82.2078C44.8946 81.9302 45.1082 81.633 45.3236 81.318C45.5389 81.0012 45.7436 80.6737 45.9358 80.3338C46.1298 79.9939 46.2881 79.6557 46.4109 79.3158C46.4732 79.1307 46.5534 78.9118 46.653 78.6573C46.7545 78.4029 46.8772 78.1359 47.0231 77.8583C47.1708 77.5806 47.3399 77.2994 47.5321 77.0147C47.7261 76.7282 47.954 76.463 48.2156 76.2156C48.4167 76.2156 48.632 76.2387 48.8634 76.285C49.0948 76.3313 49.3137 76.39 49.5219 76.4594C49.7301 76.5288 49.9116 76.6053 50.0664 76.6908C50.2212 76.7744 50.3369 76.8634 50.4135 76.956C50.1358 77.634 49.8279 78.3049 49.488 78.9688C49.1481 79.6326 48.8331 80.284 48.5395 80.9247C48.2458 81.5636 48.0002 82.2007 47.7991 82.8325C47.598 83.4643 47.4983 84.0818 47.4983 84.6834C47.4983 85.0073 47.525 85.2885 47.5784 85.5287C47.6336 85.7672 47.6905 85.9683 47.7528 86.1303C47.8151 86.2922 47.872 86.4257 47.9254 86.5343C47.9806 86.6428 48.0073 86.7354 48.0073 86.8119C48.0073 86.8279 47.9913 86.8511 47.9611 86.8813C47.945 86.8973 47.9308 86.9045 47.9148 86.9045C47.8062 86.9045 47.6674 86.8813 47.4983 86.835C47.3293 86.7888 47.1389 86.7229 46.9307 86.6392C46.7224 86.5538 46.5142 86.4577 46.306 86.3492C46.0977 86.2406 45.902 86.1249 45.7169 86.0021Z" fill="#7F7D8B"/>
<path d="M54.6011 75.2902C55.0015 75.413 55.3805 75.687 55.7347 76.1124C56.0888 76.536 56.3523 77.0022 56.5213 77.5112C56.3523 77.9276 56.0888 78.4295 55.7347 79.015C55.3805 79.6006 55.0246 80.1985 54.6705 80.809C54.3163 81.4176 53.9959 81.996 53.7094 82.5442C53.4246 83.0905 53.2591 83.5426 53.2129 83.8968C53.4602 83.6351 53.7325 83.3308 54.0333 82.9838C54.3341 82.6367 54.6277 82.2897 54.9125 81.9427C55.199 81.5956 55.4642 81.2788 55.7115 80.9941C55.9589 80.7075 56.1511 80.4957 56.29 80.3569C56.5836 80.049 56.9307 79.6895 57.3311 79.282C57.7315 78.8726 58.1515 78.4865 58.591 78.1252C59.0306 77.7621 59.4756 77.4543 59.9223 77.1998C60.369 76.9453 60.7783 76.8171 61.1485 76.8171C61.5489 76.8171 61.8853 76.9524 62.154 77.2229C62.4245 77.4916 62.6364 77.7728 62.7912 78.0665C62.7912 78.0967 62.7324 78.1394 62.6167 78.1946C62.5011 78.248 62.3356 78.3975 62.1202 78.6449C61.9049 78.9225 61.6611 79.3051 61.3906 79.791C61.1219 80.2768 60.8584 80.8001 60.604 81.3642C60.3495 81.9266 60.1377 82.5014 59.9686 83.087C59.7995 83.6725 59.7141 84.2046 59.7141 84.6834C59.7141 85.0695 59.7639 85.3152 59.8636 85.4237C59.965 85.5323 60.1074 85.5857 60.2925 85.5857C60.4616 85.5857 60.6395 85.5465 60.8246 85.47C61.0097 85.3935 61.1556 85.3543 61.2642 85.3543C61.3265 85.3846 61.3764 85.4504 61.4137 85.5519C61.4529 85.6515 61.4724 85.7405 61.4724 85.8171C61.3496 85.9256 61.2019 86.0324 61.0328 86.1409C60.8637 86.2495 60.6858 86.3492 60.5008 86.4417C60.3157 86.5342 60.1341 86.6108 59.9561 86.6731C59.7799 86.7354 59.6216 86.7656 59.4827 86.7656C59.036 86.7656 58.6694 86.6997 58.3829 86.5698C58.0982 86.4381 57.8739 86.2637 57.7119 86.0484C57.55 85.833 57.4397 85.575 57.3774 85.2742C57.3151 84.9734 57.2848 84.6531 57.2848 84.3132C57.2848 84.1281 57.3009 83.9199 57.3311 83.6885C57.3614 83.4572 57.4237 83.1831 57.5162 82.8681C57.6088 82.5513 57.7404 82.174 57.9094 81.7344C58.0785 81.2948 58.2956 80.7662 58.5573 80.1487C58.527 80.1487 58.3188 80.2573 57.9326 80.4726C57.5464 80.6879 57.13 81.0208 56.6833 81.4675C55.9589 82.1616 55.3058 82.8485 54.7274 83.5266C54.149 84.2046 53.5599 84.961 52.9584 85.7939C52.6184 86.2727 52.3213 86.6766 52.0668 87.0094C51.8123 87.3404 51.5934 87.5593 51.4083 87.6679C51.0844 87.4828 50.8459 87.2248 50.691 86.8937C50.5362 86.5609 50.4205 86.2175 50.344 85.8633C50.344 85.5697 50.3867 85.1995 50.4703 84.7528C50.5557 84.3061 50.6714 83.8078 50.8174 83.2614C50.9651 82.7133 51.1467 82.1384 51.362 81.5369C51.5774 80.9354 51.8175 80.3338 52.0792 79.7323C52.6647 78.3744 53.2004 77.3101 53.6862 76.5395C54.1721 75.7689 54.4783 75.3525 54.6011 75.2902Z" fill="#7F7D8B"/>
<path d="M71.3282 77.1641C71.483 77.1641 71.6627 77.1908 71.8709 77.246C72.0792 77.2994 72.2695 77.3688 72.4386 77.4542C72.6077 77.5379 72.7501 77.6268 72.8658 77.7194C72.9815 77.8119 73.0402 77.8973 73.0402 77.9739C72.7323 78.6217 72.4457 79.273 72.1841 79.9297C71.9225 80.5847 71.6983 81.2129 71.5132 81.8144C71.3282 82.416 71.1857 82.9783 71.0843 83.5034C70.9846 84.0284 70.9348 84.4822 70.9348 84.8684C70.9348 85.3008 70.9811 85.6586 71.0736 85.9451C71.1662 86.2299 71.321 86.4345 71.5364 86.5573C71.3513 86.6801 71.1128 86.7816 70.8191 86.8581C70.5255 86.9346 70.2638 86.9738 70.0325 86.9738C69.1996 86.9738 68.7832 86.4025 68.7832 85.2617C68.7832 84.3825 69.0768 83.1794 69.6623 81.6525C69.3544 82.3626 68.9985 83.0299 68.5981 83.6546C68.1977 84.2793 67.7883 84.8292 67.3719 85.308C66.9554 85.7867 66.5354 86.1764 66.1101 86.4772C65.6865 86.778 65.2967 86.9578 64.9426 87.0201C64.3713 86.9898 63.9085 86.7157 63.5544 86.1996C63.2002 85.6817 63.0223 85.0232 63.0223 84.2206C63.0223 83.3575 63.2073 82.4463 63.5775 81.4906C63.9477 80.5349 64.4211 79.6468 64.9995 78.8299C65.5779 78.013 66.2079 77.3296 66.886 76.7832C67.564 76.2351 68.2208 75.945 68.8526 75.9147C69.0074 75.961 69.1801 76.0536 69.3723 76.1924C69.5663 76.3312 69.7514 76.4932 69.9276 76.6783C70.1055 76.8633 70.2567 77.052 70.3795 77.246C70.5023 77.4382 70.5718 77.6037 70.5878 77.7425C69.9702 77.835 69.3349 78.1358 68.6782 78.6448C68.0232 79.1538 67.4289 79.7678 66.8967 80.485C66.3646 81.2022 65.9303 81.9693 65.5904 82.7862C65.2505 83.603 65.0814 84.3665 65.0814 85.0766C65.0814 85.3703 65.19 85.5554 65.4053 85.6319C65.852 85.5394 66.3699 85.1585 66.9554 84.4875C67.5409 83.8166 68.2511 82.7791 69.084 81.3749C69.2388 81.0972 69.4114 80.7893 69.6036 80.4494C69.7976 80.1095 69.9933 79.7553 70.1944 79.3852C70.3955 79.015 70.5913 78.6412 70.7835 78.2639C70.9775 77.8849 71.1591 77.5183 71.3282 77.1641Z" fill="#7F7D8B"/>
<path d="M73.6648 86.0484C73.7413 85.6016 73.8766 85.0108 74.0688 84.2794C74.2628 83.5461 74.4906 82.7666 74.7522 81.9426C75.0138 81.1169 75.2914 80.2875 75.585 79.4546C75.8787 78.6217 76.1635 77.8743 76.4411 77.2104C76.6422 76.7317 76.8184 76.358 76.9733 76.0892C77.1281 75.8187 77.2972 75.5909 77.4823 75.4058C77.6976 75.4361 77.9218 75.4913 78.1531 75.5678C78.3845 75.6443 78.6088 75.7368 78.8241 75.8454C79.0394 75.9539 79.2335 76.0661 79.4025 76.1818C79.5716 76.2975 79.7033 76.4078 79.7958 76.5163C79.3794 77.0093 79.0128 77.5735 78.696 78.2053C78.381 78.8371 78.0607 79.6468 77.7368 80.6345C78.5697 79.8942 79.3064 79.1841 79.9453 78.5061C80.586 77.828 81.184 77.0716 81.7392 76.2387C81.8318 76.1622 81.9938 76.123 82.2251 76.123C82.4405 76.123 82.6487 76.1586 82.8498 76.2281C83.0509 76.2975 83.1897 76.3935 83.2663 76.5163C82.9886 77.2567 82.8498 77.9899 82.8498 78.7142C82.8498 79.3923 82.9495 79.9013 83.1506 80.2412C83.1346 80.3338 83.0313 80.5117 82.8373 80.7734C82.6451 81.035 82.4333 81.2824 82.202 81.5137C81.7855 81.2984 81.4153 81.0012 81.0914 80.6239C80.7675 80.2448 80.5291 79.8319 80.3743 79.3852C79.6499 79.8942 79.0323 80.3925 78.5233 80.8783C78.0143 81.3642 77.5783 81.9035 77.2153 82.4979C76.854 83.0905 76.5443 83.7739 76.2898 84.5445C76.0353 85.3151 75.7933 86.2335 75.5619 87.2977C75.4231 87.2817 75.2576 87.2319 75.0637 87.1482C74.8714 87.0628 74.6792 86.9578 74.4852 86.835C74.293 86.7122 74.1204 86.5805 73.9656 86.4417C73.8107 86.3029 73.7111 86.1711 73.6648 86.0484Z" fill="#7F7D8B"/>
<path d="M91.1556 77.3029C91.1396 77.5965 91.0898 77.9008 91.0043 78.2176C90.9207 78.5326 90.8157 78.8192 90.6929 79.0737C90.5701 79.3282 90.4384 79.54 90.2996 79.709C90.1608 79.8781 90.0291 79.9635 89.9063 79.9635C89.7372 79.9475 89.6357 79.8318 89.6055 79.6165C89.6055 79.5702 89.6251 79.4972 89.6625 79.3976C89.7017 79.2961 89.7443 79.184 89.7906 79.0612C89.8368 78.9384 89.8796 78.8138 89.917 78.691C89.9562 78.5682 89.9757 78.4597 89.9757 78.3671C89.9757 78.1518 89.9259 77.9702 89.8245 77.8243C89.7248 77.6766 89.5896 77.6036 89.4205 77.6036C88.8029 77.6036 88.333 77.9898 88.0091 78.7604C87.6852 79.531 87.5233 80.6647 87.5233 82.1614C87.5233 82.3163 87.5304 82.4088 87.5464 82.4391C87.8703 82.4231 88.1586 82.4124 88.4131 82.4052C88.6676 82.3963 88.9186 82.3928 89.166 82.3928C89.182 82.4231 89.1891 82.4854 89.1891 82.5779C89.1891 82.7167 89.1589 82.8164 89.0966 82.8787C88.7424 82.9552 88.4594 83.021 88.2512 83.0762C88.0429 83.1296 87.8863 83.1794 87.7778 83.2257C87.6692 83.2719 87.6033 83.3218 87.5802 83.377C87.557 83.4304 87.5464 83.5033 87.5464 83.5959C87.5464 83.7187 87.5499 83.8433 87.557 83.9661C87.5659 84.0889 87.5695 84.2437 87.5695 84.4288C87.5695 85.7244 87.219 86.7655 86.516 87.5521C85.8148 88.3387 84.8396 88.7943 83.5902 88.9171C83.3749 88.9011 83.1506 88.8407 82.9192 88.7321C82.6879 88.6235 82.4671 88.4847 82.2589 88.3156C82.0507 88.1466 81.871 87.9579 81.7161 87.7497C81.5613 87.5415 81.4545 87.3279 81.3922 87.1126C81.3922 86.527 81.515 85.9682 81.7624 85.4361C82.0098 84.9039 82.3444 84.4323 82.7679 84.0248C83.1933 83.6154 83.6934 83.2844 84.2718 83.0299C84.8502 82.7754 85.4802 82.6242 86.1583 82.5779C86.1583 82.1917 86.1191 81.8144 86.0426 81.4442C85.9661 81.0741 85.8842 80.7163 85.7988 80.3693C85.7151 80.0223 85.6333 79.6823 85.5567 79.3513C85.4802 79.0185 85.4411 78.6911 85.4411 78.3671C85.4411 77.9507 85.5265 77.5378 85.6956 77.1302C85.8646 76.7209 86.0889 76.3436 86.3665 75.9966C86.6442 75.6496 86.968 75.3523 87.3382 75.105C87.7083 74.8576 88.0946 74.6885 88.495 74.5959C88.6641 74.6422 88.8919 74.7775 89.1766 75.0017C89.4632 75.2242 89.7443 75.4752 90.0219 75.7528C90.2996 76.0304 90.547 76.3116 90.7623 76.5981C90.9777 76.8829 91.1094 77.1178 91.1556 77.3029ZM83.5208 87.8529C83.891 87.6981 84.2416 87.4756 84.5726 87.182C84.9054 86.8883 85.1937 86.5573 85.4411 86.1871C85.6884 85.8169 85.8842 85.4236 86.0301 85.0072C86.1778 84.5907 86.2508 84.1814 86.2508 83.781C85.943 83.8272 85.603 83.9696 85.2328 84.2099C84.8626 84.4483 84.5156 84.7331 84.1917 85.0659C83.8678 85.3969 83.5973 85.7404 83.382 86.0945C83.1666 86.4487 83.0581 86.7584 83.0581 87.02C83.0581 87.3599 83.2129 87.6375 83.5208 87.8529Z" fill="#7F7D8B"/>
<path d="M91.2256 84.3364C91.2256 83.7811 91.3679 83.0104 91.6527 82.0227C91.9392 81.035 92.3129 79.9565 92.7756 78.7837C93.2384 77.6108 93.7634 76.4007 94.349 75.1513C94.9345 73.902 95.5254 72.7381 96.118 71.6578C96.7124 70.5775 97.2837 69.645 97.83 68.8584C98.3782 68.0717 98.8444 67.5396 99.2306 67.262C99.446 67.278 99.6809 67.3705 99.9354 67.5396C100.19 67.7086 100.427 67.9133 100.642 68.1536C100.857 68.3921 101.039 68.643 101.185 68.9046C101.332 69.1662 101.405 69.4065 101.405 69.6218C100.711 70.1771 100.005 70.8908 99.2875 71.7628C98.5703 72.6331 97.8888 73.5906 97.241 74.6317C96.5931 75.6728 95.9952 76.7744 95.447 77.9401C94.9007 79.104 94.4415 80.2484 94.0713 81.3749C94.5643 80.526 95.0821 79.7554 95.6214 79.0613C96.1606 78.3672 96.7017 77.7728 97.241 77.2798C97.7802 76.7868 98.3088 76.4043 98.8249 76.1355C99.3428 75.865 99.8322 75.7226 100.295 75.7066C100.973 76.1996 101.313 76.8563 101.313 77.6731C101.313 78.1661 101.213 78.6645 101.012 79.1663C100.811 79.6664 100.546 80.1292 100.213 80.5545C99.882 80.9781 99.5047 81.3411 99.0793 81.6419C98.6557 81.9427 98.2127 82.1384 97.75 82.231C97.9048 82.7702 98.1006 83.3183 98.339 83.8736C98.5793 84.4289 98.864 84.9681 99.195 85.4931C99.5278 86.0182 99.9051 86.504 100.329 86.9507C100.754 87.3974 101.236 87.7765 101.776 88.0844C101.699 88.2392 101.583 88.3923 101.429 88.5471C101.274 88.7019 101.089 88.8372 100.873 88.9529C100.658 89.0685 100.421 89.1611 100.167 89.2305C99.9122 89.2999 99.6631 89.3337 99.4157 89.3337C98.9993 89.3337 98.6095 89.1255 98.2465 88.7091C97.8852 88.2926 97.5577 87.6911 97.2641 86.9044C97.0327 86.2726 96.8085 85.5162 96.5931 84.6371C96.3778 83.7579 96.1838 82.8396 96.0147 81.8839C96.23 81.7451 96.5006 81.5404 96.8245 81.2717C97.1484 81.0012 97.4884 80.6879 97.8425 80.3338C99.2004 79.0221 99.8785 77.8885 99.8785 76.9328C99.8785 76.81 99.793 76.7477 99.6239 76.7477C99.3161 76.7637 98.953 76.9097 98.5365 77.1873C98.1201 77.465 97.6769 77.8511 97.2053 78.3441C96.7355 78.8371 96.2568 79.4155 95.771 80.0793C95.2851 80.7432 94.8188 81.4603 94.3721 82.231C94.187 82.5388 94.0179 82.8948 93.8631 83.2952C93.7082 83.6956 93.5729 84.1085 93.4573 84.5339C93.3416 84.9575 93.2544 85.3775 93.1921 85.7939C93.1298 86.2104 93.0996 86.5966 93.0996 86.9507C93.0996 87.1661 93.1227 87.344 93.169 87.4828C92.6902 87.4365 92.3984 87.3138 92.2899 87.1127C92.1671 86.9276 92.062 86.778 91.9766 86.6624C91.893 86.5467 91.804 86.4488 91.7115 86.3723C91.5726 86.2637 91.457 86.0324 91.3644 85.6782C91.2719 85.3241 91.2256 84.8756 91.2256 84.3364Z" fill="#7F7D8B"/>
<path d="M111.354 82.9251C110.999 84.0516 110.644 85.0767 110.289 86.0021C109.935 86.9276 109.556 87.78 109.156 88.5596C108.755 89.3373 108.323 90.0545 107.86 90.7112C107.397 91.3662 106.888 91.9872 106.333 92.5728C105.623 93.3131 104.892 93.8808 104.135 94.2741C103.379 94.6675 102.624 94.8632 101.868 94.8632C101.482 94.8632 101.101 94.8205 100.722 94.7369C100.344 94.6515 99.9903 94.5358 99.6575 94.3898C99.3264 94.2421 99.0329 94.073 98.7784 93.8808C98.5239 93.6868 98.344 93.4822 98.2355 93.2668C98.2355 93.0817 98.344 92.9198 98.5594 92.781C98.7445 92.9501 98.8993 93.0817 99.0221 93.1743C99.1449 93.2668 99.2641 93.3434 99.3798 93.4056C99.4955 93.4679 99.6201 93.5053 99.75 93.5213C99.8817 93.5373 100.033 93.5445 100.202 93.5445C101.081 93.5445 101.941 93.2864 102.781 92.7703C103.623 92.2524 104.416 91.521 105.164 90.5724C105.913 89.6238 106.595 88.4741 107.212 87.1251C107.83 85.7743 108.353 84.2669 108.786 82.6012C108.584 82.909 108.339 83.2881 108.045 83.7348C107.752 84.1815 107.428 84.6264 107.073 85.066C106.719 85.5056 106.353 85.9025 105.974 86.2566C105.596 86.6108 105.23 86.8511 104.876 86.9739C104.628 86.9578 104.37 86.908 104.1 86.8243C103.831 86.7389 103.576 86.6197 103.336 86.4648C103.098 86.31 102.886 86.1249 102.701 85.9096C102.516 85.6942 102.393 85.4469 102.331 85.1692C102.331 84.7225 102.347 84.363 102.377 84.0943C102.407 83.8238 102.462 83.5266 102.539 83.2027C102.678 82.6171 102.882 81.9533 103.151 81.213C103.422 80.4726 103.738 79.7448 104.1 79.0275C104.463 78.3103 104.863 77.6394 105.303 77.0147C105.742 76.39 106.201 75.8988 106.68 75.5447C106.803 75.5447 106.958 75.5571 107.143 75.5803C107.328 75.6034 107.52 75.6443 107.721 75.7066C107.922 75.7689 108.115 75.8419 108.3 75.9273C108.485 76.011 108.647 76.1231 108.786 76.2619C108.616 76.4167 108.246 76.9328 107.675 77.812C107.104 78.6912 106.472 79.9565 105.778 81.6063C105.701 81.7753 105.609 82.0227 105.5 82.3466C105.392 82.6706 105.288 83.0105 105.187 83.3646C105.087 83.7188 104.998 84.0659 104.922 84.4058C104.845 84.7457 104.806 85.0144 104.806 85.2155C104.806 85.3383 104.826 85.4309 104.863 85.4932C104.902 85.5554 104.938 85.6017 104.968 85.632C105.246 85.5857 105.616 85.3579 106.079 84.9504C106.541 84.541 107.066 83.9039 107.652 83.0407C108.022 82.4854 108.362 81.9338 108.67 81.3874C108.978 80.8392 109.282 80.2876 109.583 79.7323C109.884 79.177 110.197 78.6057 110.521 78.0202C110.845 77.4347 111.192 76.8331 111.562 76.2156C111.763 76.2156 111.978 76.2387 112.21 76.285C112.441 76.3313 112.665 76.39 112.881 76.4594C113.096 76.5288 113.285 76.6053 113.447 76.6908C113.609 76.7744 113.73 76.8634 113.806 76.956C113.327 77.974 112.881 78.9688 112.464 79.9405C112.048 80.9122 111.678 81.9071 111.354 82.9251Z" fill="#7F7D8B"/>
<path d="M15.7759 70.2259C15.8221 70.4876 15.8559 70.6691 15.8791 70.7705C15.9022 70.8702 15.9147 71.0054 15.9147 71.1745C15.9147 71.6835 15.8026 72.1587 15.5784 72.5983C15.3559 73.0379 15.0516 73.3493 14.6654 73.5344C14.3575 73.118 13.9784 72.7602 13.5317 72.4595C13.085 72.1587 12.5938 71.9113 12.0617 71.7191C11.5296 71.5251 10.9796 71.3827 10.4083 71.2902C9.83704 71.1976 9.28183 71.1514 8.74258 71.1514C8.20333 71.1514 7.69781 71.1941 7.22619 71.2795C6.75635 71.3632 6.33996 71.4788 5.97691 71.6265C5.61563 71.7725 5.32907 71.954 5.12084 72.1694C4.91262 72.3847 4.80942 72.6321 4.80942 72.9097C4.85569 73.2496 5.06394 73.5931 5.43411 73.9402C5.80429 74.2872 6.25983 74.6253 6.79908 74.9581C7.33833 75.2892 7.93634 75.6166 8.59126 75.9405C9.24797 76.2644 9.89222 76.5723 10.524 76.866C11.3106 77.2361 11.9887 77.5796 12.5599 77.8964C13.1312 78.2114 13.6011 78.5584 13.9713 78.9375C14.3415 79.3148 14.6191 79.742 14.8042 80.2207C14.9893 80.6994 15.0818 81.2778 15.0818 81.9559C15.0818 82.7425 14.9502 83.4793 14.6885 84.1663C14.4269 84.8515 14.0442 85.4494 13.5423 85.9584C13.0422 86.4674 12.4372 86.8643 11.7271 87.1508C11.017 87.4356 10.2232 87.5779 9.34403 87.5779C8.48088 87.5779 7.54654 87.4462 6.54457 87.1846C5.54261 86.923 4.60479 86.5635 3.73274 86.1097C2.86247 85.6541 2.13627 85.1291 1.55787 84.5364C0.979472 83.942 0.691162 83.3138 0.691162 82.65C0.691162 82.3421 0.780232 81.9488 0.956422 81.47C1.13439 80.9913 1.4547 80.4912 1.91742 79.9662C1.96369 80.4289 2.21462 80.9771 2.66844 81.6089C3.12404 82.2406 3.80745 82.828 4.71687 83.3672C5.56578 83.8602 6.43957 84.2196 7.34187 84.4439C8.24418 84.6663 9.08955 84.7785 9.87618 84.7785C10.7393 84.7785 11.4424 84.6699 11.9816 84.4546C12.5209 84.2392 12.9462 83.9812 13.2541 83.6804C13.5619 83.3797 13.7791 83.0735 13.9019 82.7656C14.0247 82.4578 14.0941 82.2104 14.1101 82.0253C14.0941 81.7174 13.9517 81.4202 13.6812 81.1355C13.4124 80.8489 13.0494 80.5713 12.5938 80.3025C12.14 80.032 11.6114 79.7579 11.0099 79.4803C10.4083 79.2027 9.78371 78.9251 9.13591 78.6474C8.16419 78.215 7.32772 77.811 6.62474 77.4337C5.92354 77.0546 5.34507 76.6702 4.88947 76.2769C4.43565 75.8836 4.10292 75.4707 3.8947 75.0383C3.68647 74.6058 3.58316 74.1128 3.58316 73.5575C3.58316 72.6944 3.84481 71.8757 4.36982 71.1051C4.89483 70.3345 5.64939 69.7472 6.63712 69.3468C7.1301 69.1314 7.65869 68.9766 8.22108 68.8841C8.78524 68.7915 9.33693 68.7452 9.87618 68.7452C10.8942 68.7452 11.889 68.884 12.8607 69.1617C13.8324 69.4393 14.8042 69.7935 15.7759 70.2259Z" fill="url(#paint16_linear_46_160)"/>
<path d="M16.6088 85.4263C16.6088 84.8871 16.6622 84.2499 16.7707 83.5185C16.8793 82.7853 17.0359 82.0022 17.2441 81.1693C17.4523 80.3364 17.6997 79.4643 17.9845 78.5549C18.271 77.6455 18.5913 76.7343 18.9455 75.8249C19.2534 75.008 19.6129 74.1822 20.0204 73.3493C20.4298 72.5164 20.8729 71.6995 21.3516 70.8969C21.8303 70.0943 22.3269 69.3308 22.843 68.6064C23.3609 67.8821 23.8806 67.2183 24.4056 66.6168C24.6529 66.6168 24.9181 66.647 25.2029 66.7093C25.4894 66.7716 25.7671 66.8517 26.0358 66.9531C26.3063 67.0528 26.5537 67.172 26.7762 67.3108C27.0004 67.4497 27.1819 67.5885 27.3207 67.7273C26.1639 68.9143 25.1228 70.1138 24.1973 71.3258C23.2719 72.536 22.5387 73.6732 21.9994 74.7375C21.7058 75.323 21.4407 75.8712 21.2004 76.3802C20.9619 76.8892 20.743 77.3946 20.5419 77.8964C20.3408 78.3965 20.1592 78.8984 19.9973 79.4003C19.8353 79.9004 19.6859 80.4289 19.547 80.9842C22.5084 77.2059 24.7064 75.3159 26.1408 75.3159C26.5413 75.3159 26.9737 75.4476 27.4364 75.7092C27.8991 75.9708 28.3085 76.3267 28.6626 76.7734C28.1839 77.2984 27.6909 77.9303 27.1819 78.6706C26.6729 79.411 26.2066 80.1549 25.7813 80.9041C25.3577 81.6516 25.0106 82.3457 24.7401 82.9863C24.4714 83.6253 24.3362 84.1005 24.3362 84.4083C24.3362 84.5632 24.3593 84.6664 24.4056 84.7216C24.4518 84.7749 24.5515 84.8017 24.7063 84.8017C24.9377 84.8017 25.1228 84.7714 25.2616 84.7091C25.4004 84.6468 25.4859 84.6166 25.5161 84.6166C25.5927 84.7394 25.6389 84.8248 25.655 84.8711C25.671 84.9173 25.6781 84.9565 25.6781 84.9868C25.6781 85.049 25.5855 85.138 25.4005 85.2537C25.2154 85.3694 24.9946 85.4851 24.7401 85.6008C24.4856 85.7164 24.2365 85.8196 23.9891 85.9122C23.7417 86.0047 23.5567 86.051 23.4339 86.051C23.2791 86.051 23.126 86.0083 22.9712 85.9246C22.8164 85.8392 22.681 85.7271 22.5654 85.5883C22.4497 85.4494 22.3571 85.2947 22.2877 85.1256C22.2183 84.9565 22.1845 84.7785 22.1845 84.5934C22.1845 84.3621 22.2504 84.0186 22.3803 83.5648C22.512 83.1092 22.6936 82.577 22.9249 81.9684C23.1563 81.3579 23.4338 80.6906 23.7577 79.9662C24.0816 79.2419 24.4287 78.5016 24.7989 77.7452C24.7989 77.6829 24.7686 77.6526 24.7063 77.6526C24.6601 77.6526 24.5409 77.7149 24.3469 77.8377C24.1547 77.9605 23.9731 78.0851 23.804 78.2079C23.2487 78.6243 22.6899 79.1369 22.1258 79.7473C21.5634 80.356 21.0153 81.0234 20.4832 81.7477C19.951 82.472 19.4509 83.2409 18.9793 84.0506C18.5094 84.8604 18.1055 85.6737 17.7656 86.4906C17.7193 86.5992 17.6499 86.6988 17.5574 86.7913C17.4648 86.8839 17.3883 86.9301 17.326 86.9301C17.2797 86.9301 17.2138 86.8768 17.1284 86.7682C17.0448 86.6596 16.9665 86.5262 16.8971 86.3642C16.8276 86.2023 16.7636 86.035 16.7013 85.8659C16.639 85.6968 16.6088 85.5491 16.6088 85.4263Z" fill="url(#paint17_linear_46_160)"/>
<path d="M26.9044 93.4776C26.689 93.4153 26.5645 93.1839 26.5343 92.7835C26.472 92.5824 26.4292 92.3439 26.4061 92.0663C26.383 91.7887 26.3723 91.4719 26.3723 91.1177C26.3723 90.7938 26.4257 90.3507 26.5343 89.7883C26.6428 89.2241 26.7923 88.5888 26.9845 87.8787C27.1785 87.1686 27.4134 86.4016 27.691 85.5776C27.9686 84.7518 28.2766 83.9153 28.6165 83.0664C29.0329 82.0021 29.3959 81.0802 29.7038 80.3025C30.0117 79.523 30.2697 78.8485 30.478 78.2772C30.6862 77.7059 30.8571 77.2361 30.987 76.8659C31.1187 76.4958 31.2237 76.179 31.3003 75.9174C31.3625 75.7323 31.4551 75.508 31.5779 75.2464C31.7007 74.9848 31.8431 74.7178 32.005 74.4491C32.167 74.1786 32.3342 73.9241 32.5033 73.6856C32.6723 73.4454 32.8272 73.2639 32.966 73.1411C33.5052 73.2176 34.0143 73.3564 34.493 73.5575C34.9718 73.7586 35.2636 73.9508 35.3721 74.1359C35.1568 74.337 34.9095 74.6484 34.6319 75.0738C34.3542 75.4974 34.0837 75.9601 33.8221 76.462C33.5604 76.962 33.3202 77.4746 33.1048 77.9996C32.8895 78.5246 32.7275 78.9874 32.6189 79.3878C32.7738 79.1262 32.9731 78.8396 33.2205 78.5317C33.4679 78.2238 33.8452 77.7985 34.3542 77.2593C34.9255 76.6737 35.4612 76.2217 35.9613 75.9067C36.4632 75.5899 36.8992 75.4315 37.2693 75.4315C37.8549 75.4315 38.3372 75.5935 38.7145 75.9174C39.0936 76.2413 39.2821 76.6577 39.2821 77.1667C39.2821 78.2772 39.097 79.3771 38.7269 80.4645C38.3567 81.5519 37.8246 82.5343 37.1305 83.4134C36.8689 83.7534 36.5592 84.0773 36.2051 84.3851C35.8509 84.693 35.4808 84.9671 35.0946 85.2074C34.7084 85.4458 34.3311 85.6345 33.9609 85.7733C33.5907 85.9121 33.2596 85.9815 32.966 85.9815C32.6884 85.9815 32.4446 85.9246 32.2364 85.8089C32.0281 85.6932 31.8858 85.549 31.8093 85.38C32.4108 85.0258 32.9963 84.5311 33.5676 83.8993C34.1388 83.2675 34.6657 82.5378 35.1515 81.7138C35.6374 80.888 36.0627 79.9964 36.4239 79.0407C36.787 78.085 37.0611 77.1133 37.2462 76.1256C36.6607 76.4335 36.1321 76.7698 35.6605 77.1329C35.1907 77.4941 34.7244 77.9693 34.2617 78.5549C33.7064 79.2329 33.2668 79.7811 32.9429 80.1975C32.619 80.614 32.352 80.9681 32.1438 81.2618C31.9356 81.5554 31.7665 81.8295 31.6348 82.084C31.5049 82.3385 31.3625 82.6499 31.2077 83.0201C30.9924 83.5131 30.7414 84.1662 30.4548 84.976C30.1701 85.7858 29.8765 86.6916 29.5757 87.6936C29.275 88.6956 28.9742 89.7652 28.6734 90.8988C28.3726 92.0325 28.0843 93.1608 27.8067 94.2873C27.6376 94.2571 27.4899 94.1325 27.3671 93.9172C27.2443 93.7783 27.1554 93.6787 27.1002 93.6164C27.0468 93.5541 26.9809 93.5079 26.9044 93.4776Z" fill="url(#paint18_linear_46_160)"/>
<path d="M46.4082 85.3106C46.1145 85.0633 45.9187 84.7554 45.8173 84.3852C45.7176 84.015 45.6678 83.6983 45.6678 83.4367C45.6678 83.1128 45.707 82.8351 45.7835 82.6037C45.7212 82.6037 45.5824 82.7266 45.367 82.9739C45.1517 83.2213 44.915 83.5132 44.6605 83.8531C44.406 84.193 44.1568 84.5241 43.9094 84.848C43.662 85.1719 43.477 85.4103 43.3542 85.5652C43.1531 85.7805 42.9644 85.9514 42.7864 86.0742C42.6103 86.197 42.4679 86.2664 42.3593 86.2824C42.112 86.2664 41.8539 86.2165 41.5834 86.1329C41.3147 86.0474 41.0602 85.9282 40.8199 85.7734C40.5814 85.6185 40.3732 85.4334 40.1952 85.2181C40.019 85.0028 39.8998 84.7554 39.8375 84.4778C39.8375 84.0453 39.8482 83.6912 39.8713 83.4135C39.8944 83.1359 39.9461 82.8351 40.0226 82.5112C40.1614 81.9257 40.3661 81.2619 40.6348 80.5215C40.9053 79.7812 41.2185 79.0533 41.5727 78.3361C41.9268 77.6189 42.3237 76.9479 42.7633 76.3232C43.2029 75.6985 43.6709 75.2074 44.1639 74.8532C44.3027 74.8532 44.4647 74.8656 44.6498 74.8888C44.8349 74.9119 45.0235 74.9529 45.2157 75.0152C45.4097 75.0775 45.5948 75.1504 45.771 75.2358C45.949 75.3195 46.1003 75.4316 46.2231 75.5704C46.0843 75.7252 45.7336 76.2413 45.1694 77.1205C44.6071 77.9997 43.9789 79.265 43.2848 80.9148C43.2083 81.0839 43.1157 81.3313 43.0072 81.6552C42.8986 81.9791 42.7918 82.319 42.6833 82.6731C42.5747 83.0273 42.4857 83.3744 42.4163 83.7143C42.3468 84.0542 42.3131 84.3229 42.3131 84.524C42.3131 84.6468 42.3326 84.7394 42.37 84.8017C42.4091 84.864 42.4448 84.9103 42.475 84.9405C42.7064 84.848 43.0001 84.5934 43.3542 84.177C43.7084 83.7605 44.2031 83.1199 44.8349 82.2567C44.9897 82.0414 45.1694 81.794 45.3777 81.5164C45.5859 81.2387 45.7995 80.9415 46.0149 80.6265C46.2302 80.3097 46.4348 79.9822 46.6271 79.6423C46.821 79.3024 46.9794 78.9643 47.1022 78.6244C47.1645 78.4393 47.2446 78.2204 47.3443 77.9659C47.4457 77.7114 47.5684 77.4444 47.7144 77.1668C47.8621 76.8892 48.0312 76.608 48.2234 76.3232C48.4174 76.0367 48.6452 75.7715 48.9069 75.5241C49.108 75.5241 49.3233 75.5473 49.5547 75.5935C49.786 75.6398 50.0049 75.6985 50.2132 75.7679C50.4214 75.8373 50.6029 75.9139 50.7577 75.9993C50.9125 76.0829 51.0282 76.172 51.1047 76.2645C50.8271 76.9426 50.5192 77.6135 50.1793 78.2773C49.8394 78.9411 49.5244 79.5925 49.2308 80.2332C48.9371 80.8721 48.6915 81.5093 48.4904 82.1411C48.2893 82.7728 48.1896 83.3904 48.1896 83.9919C48.1896 84.3158 48.2163 84.597 48.2697 84.8373C48.3248 85.0757 48.3818 85.2769 48.4441 85.4388C48.5064 85.6008 48.5633 85.7342 48.6167 85.8428C48.6719 85.9514 48.6986 86.0439 48.6986 86.1204C48.6986 86.1365 48.6826 86.1596 48.6523 86.1898C48.6363 86.2059 48.6221 86.213 48.6061 86.213C48.4975 86.213 48.3587 86.1898 48.1896 86.1436C48.0205 86.0973 47.8302 86.0314 47.6219 85.9478C47.4137 85.8624 47.2055 85.7663 46.9972 85.6577C46.789 85.5491 46.5933 85.4334 46.4082 85.3106Z" fill="url(#paint19_linear_46_160)"/>
<path d="M55.2922 74.5987C55.6927 74.7215 56.0717 74.9956 56.4258 75.4209C56.78 75.8445 57.0434 76.3107 57.2125 76.8197C57.0434 77.2362 56.78 77.738 56.4258 78.3236C56.0717 78.9091 55.7158 79.5071 55.3616 80.1175C55.0075 80.7261 54.6871 81.3046 54.4005 81.8527C54.1158 82.3991 53.9503 82.8511 53.904 83.2053C54.1514 82.9437 54.4237 82.6393 54.7245 82.2923C55.0252 81.9453 55.3189 81.5982 55.6037 81.2512C55.8902 80.9042 56.1553 80.5873 56.4027 80.3026C56.6501 80.0161 56.8423 79.8043 56.9811 79.6655C57.2748 79.3576 57.6218 78.9981 58.0223 78.5905C58.4227 78.1812 58.8426 77.795 59.2822 77.4337C59.7218 77.0707 60.1668 76.7628 60.6135 76.5083C61.0602 76.2538 61.4695 76.1257 61.8396 76.1257C62.2401 76.1257 62.5764 76.2609 62.8452 76.5314C63.1157 76.8002 63.3275 77.0814 63.4824 77.375C63.4824 77.4053 63.4236 77.448 63.3079 77.5031C63.1922 77.5565 63.0267 77.7061 62.8114 77.9534C62.5961 78.2311 62.3523 78.6137 62.0818 79.0995C61.813 79.5854 61.5496 80.1086 61.2951 80.6728C61.0406 81.2352 60.8288 81.81 60.6598 82.3955C60.4907 82.981 60.4053 83.5131 60.4053 83.9919C60.4053 84.3781 60.4551 84.6237 60.5547 84.7323C60.6562 84.8408 60.7986 84.8942 60.9837 84.8942C61.1528 84.8942 61.3306 84.8551 61.5157 84.7785C61.7008 84.702 61.8468 84.6629 61.9553 84.6629C62.0176 84.6931 62.0675 84.7589 62.1049 84.8604C62.1441 84.96 62.1636 85.0491 62.1636 85.1256C62.0408 85.2342 61.893 85.3409 61.724 85.4495C61.5549 85.558 61.377 85.6577 61.1919 85.7502C61.0068 85.8428 60.8252 85.9193 60.6473 85.9816C60.4711 86.0439 60.3127 86.0741 60.1739 86.0741C59.7272 86.0741 59.3606 86.0083 59.0741 85.8784C58.7893 85.7467 58.5651 85.5722 58.4031 85.3569C58.2412 85.1416 58.1308 84.8835 58.0686 84.5827C58.0063 84.282 57.976 83.9617 57.976 83.6217C57.976 83.4367 57.992 83.2284 58.0223 82.9971C58.0525 82.7657 58.1148 82.4916 58.2074 82.1766C58.2999 81.8598 58.4315 81.4825 58.6006 81.043C58.7697 80.6034 58.9868 80.0748 59.2484 79.4572C59.2182 79.4572 59.0099 79.5658 58.6237 79.7811C58.2375 79.9965 57.8211 80.3293 57.3744 80.776C56.6501 81.4701 55.997 82.157 55.4186 82.8351C54.8402 83.5132 54.2511 84.2696 53.6495 85.1025C53.3096 85.5812 53.0124 85.9852 52.7579 86.318C52.5034 86.649 52.2845 86.8679 52.0995 86.9764C51.7755 86.7913 51.537 86.5333 51.3822 86.2023C51.2274 85.8695 51.1117 85.526 51.0352 85.1719C51.0352 84.8782 51.0778 84.508 51.1615 84.0613C51.2469 83.6146 51.3626 83.1163 51.5085 82.5699C51.6563 82.0218 51.8378 81.447 52.0532 80.8454C52.2685 80.2439 52.5087 79.6423 52.7703 79.0408C53.3558 77.6829 53.8915 76.6186 54.3774 75.848C54.8633 75.0774 55.1694 74.661 55.2922 74.5987Z" fill="url(#paint20_linear_46_160)"/>
<path d="M72.0196 76.4727C72.1744 76.4727 72.3541 76.4993 72.5624 76.5545C72.7706 76.6079 72.9609 76.6773 73.13 76.7627C73.2991 76.8464 73.4416 76.9353 73.5572 77.0279C73.6729 77.1204 73.7316 77.2059 73.7316 77.2824C73.4237 77.9302 73.1371 78.5816 72.8755 79.2383C72.6139 79.8932 72.3897 80.5214 72.2047 81.123C72.0196 81.7245 71.8771 82.2869 71.7757 82.8119C71.676 83.3369 71.6262 83.7907 71.6262 84.1769C71.6262 84.6094 71.6725 84.9671 71.7651 85.2536C71.8576 85.5384 72.0124 85.7431 72.2278 85.8659C72.0427 85.9887 71.8042 86.0901 71.5105 86.1666C71.2169 86.2432 70.9553 86.2823 70.7239 86.2823C69.891 86.2823 69.4746 85.711 69.4746 84.5702C69.4746 83.6911 69.7682 82.488 70.3537 80.961C70.0458 81.6711 69.6899 82.3385 69.2895 82.9632C68.8891 83.5878 68.4797 84.1378 68.0633 84.6165C67.6468 85.0953 67.2268 85.485 66.8015 85.7857C66.3779 86.0865 65.9882 86.2663 65.634 86.3286C65.0627 86.2983 64.5999 86.0243 64.2458 85.5082C63.8916 84.9903 63.7137 84.3318 63.7137 83.5291C63.7137 82.666 63.8987 81.7548 64.2689 80.7991C64.6391 79.8434 65.1125 78.9553 65.6909 78.1384C66.2693 77.3215 66.8993 76.6381 67.5774 76.0918C68.2554 75.5436 68.9122 75.2535 69.544 75.2233C69.6989 75.2695 69.8715 75.3621 70.0637 75.5009C70.2577 75.6397 70.4428 75.8017 70.619 75.9868C70.7969 76.1719 70.9481 76.3605 71.0709 76.5545C71.1937 76.7467 71.2632 76.9122 71.2792 77.051C70.6616 77.1436 70.0263 77.4444 69.3696 77.9534C68.7146 78.4624 68.1203 79.0763 67.5881 79.7936C67.056 80.5108 66.6218 81.2778 66.2818 82.0947C65.9419 82.9116 65.7728 83.675 65.7728 84.3851C65.7728 84.6788 65.8814 84.8639 66.0967 84.9404C66.5434 84.8479 67.0613 84.467 67.6468 83.7961C68.2323 83.1251 68.9425 82.0876 69.7754 80.6834C69.9302 80.4058 70.1028 80.0979 70.295 79.7579C70.489 79.418 70.6847 79.0639 70.8858 78.6937C71.087 78.3235 71.2827 77.9498 71.4749 77.5725C71.6689 77.1934 71.8505 76.8268 72.0196 76.4727Z" fill="url(#paint21_linear_46_160)"/>
<path d="M74.3562 85.3569C74.4327 84.9102 74.568 84.3193 74.7602 83.5879C74.9542 82.8547 75.182 82.0752 75.4436 81.2512C75.7052 80.4254 75.9828 79.596 76.2765 78.7631C76.5701 77.9302 76.8549 77.1828 77.1325 76.519C77.3336 76.0402 77.5098 75.6665 77.6647 75.3978C77.8195 75.1272 77.9886 74.8994 78.1737 74.7144C78.389 74.7446 78.6132 74.7998 78.8445 74.8763C79.0759 74.9528 79.3002 75.0453 79.5155 75.1539C79.7308 75.2625 79.9249 75.3746 80.0939 75.4903C80.263 75.606 80.3947 75.7163 80.4873 75.8249C80.0708 76.3178 79.7042 76.882 79.3874 77.5138C79.0724 78.1456 78.7521 78.9553 78.4282 79.9431C79.2611 79.2027 79.9978 78.4927 80.6367 77.8146C81.2774 77.1365 81.8754 76.3801 82.4306 75.5472C82.5232 75.4707 82.6852 75.4315 82.9165 75.4315C83.1319 75.4315 83.3401 75.4672 83.5412 75.5366C83.7423 75.606 83.8812 75.7021 83.9577 75.8249C83.68 76.5652 83.5412 77.2984 83.5412 78.0228C83.5412 78.7008 83.6409 79.2098 83.842 79.5497C83.826 79.6423 83.7227 79.8203 83.5287 80.0819C83.3365 80.3435 83.1247 80.5909 82.8934 80.8223C82.4769 80.6069 82.1067 80.3097 81.7828 79.9324C81.4589 79.5534 81.2205 79.1404 81.0657 78.6937C80.3413 79.2027 79.7237 79.701 79.2147 80.1869C78.7057 80.6727 78.2697 81.212 77.9067 81.8064C77.5454 82.399 77.2357 83.0824 76.9812 83.853C76.7267 84.6236 76.4847 85.542 76.2533 86.6063C76.1145 86.5903 75.949 86.5404 75.7551 86.4568C75.5629 86.3713 75.3706 86.2663 75.1766 86.1435C74.9844 86.0207 74.8118 85.889 74.657 85.7502C74.5021 85.6114 74.4025 85.4797 74.3562 85.3569Z" fill="url(#paint22_linear_46_160)"/>
<path d="M91.8468 76.6114C91.8308 76.9051 91.7809 77.2094 91.6955 77.5262C91.6119 77.8412 91.5069 78.1278 91.3841 78.3823C91.2613 78.6368 91.1296 78.8486 90.9907 79.0176C90.8519 79.1867 90.7202 79.2721 90.5974 79.2721C90.4283 79.2561 90.3269 79.1404 90.2966 78.9251C90.2966 78.8788 90.3163 78.8058 90.3537 78.7061C90.3928 78.6047 90.4355 78.4926 90.4817 78.3698C90.528 78.247 90.5708 78.1224 90.6082 77.9996C90.6473 77.8768 90.6668 77.7683 90.6668 77.6757C90.6668 77.4604 90.6171 77.2788 90.5156 77.1329C90.416 76.9852 90.2807 76.9122 90.1117 76.9122C89.4941 76.9122 89.0242 77.2984 88.7003 78.069C88.3764 78.8396 88.2144 79.9733 88.2144 81.47C88.2144 81.6249 88.2215 81.7174 88.2376 81.7477C88.5615 81.7317 88.8498 81.721 89.1043 81.7138C89.3588 81.7049 89.6098 81.7014 89.8571 81.7014C89.8732 81.7317 89.8803 81.7939 89.8803 81.8865C89.8803 82.0253 89.85 82.125 89.7877 82.1873C89.4336 82.2638 89.1505 82.3296 88.9423 82.3848C88.7341 82.4382 88.5775 82.488 88.4689 82.5343C88.3604 82.5805 88.2945 82.6304 88.2713 82.6856C88.2482 82.739 88.2376 82.8119 88.2376 82.9045C88.2376 83.0273 88.2411 83.1519 88.2482 83.2746C88.2571 83.3974 88.2607 83.5523 88.2607 83.7374C88.2607 85.033 87.9101 86.0741 87.2072 86.8607C86.506 87.6473 85.5307 88.1029 84.2814 88.2257C84.066 88.2097 83.8418 88.1492 83.6104 88.0407C83.379 87.9321 83.1583 87.7933 82.9501 87.6242C82.7419 87.4551 82.5621 87.2665 82.4073 87.0583C82.2525 86.8501 82.1457 86.6365 82.0834 86.4212C82.0834 85.8356 82.2062 85.2768 82.4536 84.7447C82.7009 84.2125 83.0355 83.7409 83.4591 83.3334C83.8844 82.924 84.3846 82.593 84.963 82.3385C85.5414 82.084 86.1714 81.9328 86.8495 81.8865C86.8495 81.5003 86.8103 81.123 86.7338 80.7528C86.6573 80.3827 86.5753 80.0249 86.4899 79.6779C86.4063 79.3309 86.3244 78.9909 86.2479 78.6599C86.1714 78.3271 86.1322 77.9996 86.1322 77.6757C86.1322 77.2593 86.2177 76.8464 86.3867 76.4388C86.5558 76.0295 86.7801 75.6522 87.0577 75.3052C87.3353 74.9582 87.6592 74.6609 88.0293 74.4136C88.3995 74.1662 88.7857 73.9971 89.1862 73.9045C89.3552 73.9508 89.583 74.0861 89.8678 74.3103C90.1543 74.5328 90.4355 74.7838 90.7131 75.0614C90.9907 75.339 91.2381 75.6202 91.4535 75.9067C91.6688 76.1914 91.8005 76.4264 91.8468 76.6114ZM84.212 87.1615C84.5821 87.0066 84.9327 86.7842 85.2638 86.4906C85.5966 86.1969 85.8848 85.8659 86.1322 85.4957C86.3796 85.1255 86.5754 84.7322 86.7213 84.3158C86.869 83.8993 86.942 83.49 86.942 83.0896C86.6341 83.1358 86.2942 83.2782 85.924 83.5185C85.5538 83.7569 85.2067 84.0417 84.8828 84.3745C84.5589 84.7055 84.2885 85.049 84.0731 85.4031C83.8578 85.7573 83.7492 86.067 83.7492 86.3286C83.7492 86.6685 83.9041 86.9461 84.212 87.1615Z" fill="url(#paint23_linear_46_160)"/>
<path d="M91.9164 83.6448C91.9164 83.0896 92.0587 82.3189 92.3435 81.3312C92.63 80.3435 93.0037 79.265 93.4664 78.0921C93.9292 76.9193 94.4542 75.7092 95.0398 74.4598C95.6253 73.2105 96.2162 72.0465 96.8088 70.9663C97.4032 69.886 97.9745 68.9534 98.5208 68.1668C99.069 67.3802 99.5352 66.8481 99.9214 66.5704C100.137 66.5865 100.372 66.679 100.626 66.848C100.881 67.0171 101.117 67.2218 101.333 67.462C101.548 67.7005 101.73 67.9515 101.876 68.2131C102.023 68.4747 102.096 68.715 102.096 68.9303C101.402 69.4856 100.696 70.1992 99.9783 71.0713C99.2611 71.9416 98.5796 72.899 97.9318 73.9402C97.2839 74.9813 96.686 76.0829 96.1378 77.2486C95.5915 78.4125 95.1323 79.5569 94.7621 80.6834C95.2551 79.8345 95.7729 79.0639 96.3122 78.3698C96.8514 77.6757 97.3925 77.0813 97.9318 76.5883C98.471 76.0953 98.9996 75.7127 99.5157 75.444C100.034 75.1735 100.523 75.0311 100.986 75.0151C101.664 75.5081 102.004 76.1647 102.004 76.9816C102.004 77.4746 101.904 77.9729 101.703 78.4748C101.502 78.9749 101.237 79.4376 100.904 79.863C100.573 80.2865 100.195 80.6496 99.7701 80.9504C99.3465 81.2511 98.9035 81.4469 98.4408 81.5394C98.5956 82.0787 98.7914 82.6268 99.0298 83.1821C99.2701 83.7374 99.5548 84.2766 99.8858 84.8016C100.219 85.3266 100.596 85.8125 101.019 86.2592C101.445 86.7059 101.927 87.0849 102.466 87.3928C102.39 87.5477 102.274 87.7007 102.119 87.8556C101.964 88.0104 101.779 88.1457 101.564 88.2613C101.349 88.377 101.112 88.4696 100.858 88.539C100.603 88.6084 100.354 88.6422 100.107 88.6422C99.6901 88.6422 99.3003 88.434 98.9373 88.0175C98.576 87.6011 98.2485 86.9995 97.9549 86.2129C97.7235 85.5811 97.4993 84.8247 97.2839 83.9455C97.0686 83.0664 96.8746 82.1481 96.7055 81.1924C96.9208 81.0536 97.1914 80.8489 97.5153 80.5802C97.8392 80.3097 98.1792 79.9964 98.5333 79.6423C99.8912 78.3306 100.569 77.197 100.569 76.2413C100.569 76.1185 100.484 76.0562 100.315 76.0562C100.007 76.0722 99.6438 76.2182 99.2273 76.4958C98.8109 76.7734 98.3677 77.1596 97.8961 77.6526C97.4263 78.1456 96.9476 78.724 96.4617 79.3878C95.9759 80.0516 95.5096 80.7688 95.0629 81.5394C94.8778 81.8473 94.7087 82.2032 94.5539 82.6037C94.399 83.0041 94.2637 83.417 94.1481 83.8424C94.0324 84.2659 93.9452 84.6859 93.8829 85.1024C93.8206 85.5188 93.7904 85.905 93.7904 86.2592C93.7904 86.4745 93.8135 86.6525 93.8598 86.7913C93.381 86.745 93.0892 86.6222 92.9807 86.4211C92.8579 86.2361 92.7528 86.0865 92.6674 85.9708C92.5838 85.8552 92.4948 85.7573 92.4023 85.6808C92.2634 85.5722 92.1477 85.3409 92.0552 84.9867C91.9627 84.6325 91.9164 84.1841 91.9164 83.6448Z" fill="url(#paint24_linear_46_160)"/>
<path d="M112.045 82.2336C111.691 83.3601 111.335 84.3852 110.98 85.3106C110.626 86.2361 110.247 87.0886 109.847 87.8681C109.446 88.6458 109.014 89.3631 108.551 90.0198C108.088 90.6747 107.579 91.2958 107.024 91.8813C106.314 92.6217 105.583 93.1894 104.826 93.5827C104.07 93.976 103.315 94.1717 102.559 94.1717C102.173 94.1717 101.792 94.1291 101.413 94.0454C101.036 93.96 100.681 93.8443 100.349 93.6984C100.017 93.5506 99.7239 93.3816 99.4694 93.1894C99.2149 92.9954 99.0351 92.7907 98.9265 92.5754C98.9265 92.3903 99.0351 92.2283 99.2504 92.0895C99.4355 92.2586 99.5904 92.3903 99.7132 92.4828C99.836 92.5753 99.9552 92.6519 100.071 92.7142C100.187 92.7765 100.311 92.8138 100.441 92.8299C100.573 92.8459 100.724 92.853 100.893 92.853C101.772 92.853 102.632 92.5949 103.472 92.0788C104.314 91.5609 105.107 90.8295 105.855 89.8809C106.604 88.9324 107.286 87.7827 107.903 86.4337C108.521 85.0829 109.044 83.5755 109.477 81.9097C109.275 82.2176 109.03 82.5966 108.736 83.0433C108.443 83.49 108.119 83.9349 107.764 84.3745C107.41 84.8141 107.044 85.211 106.665 85.5652C106.287 85.9193 105.921 86.1596 105.567 86.2824C105.319 86.2664 105.061 86.2165 104.791 86.1329C104.522 86.0474 104.267 85.9282 104.027 85.7734C103.789 85.6185 103.577 85.4334 103.392 85.2181C103.207 85.0028 103.084 84.7554 103.022 84.4778C103.022 84.0311 103.038 83.6716 103.068 83.4028C103.098 83.1323 103.153 82.8351 103.23 82.5112C103.369 81.9257 103.573 81.2619 103.842 80.5215C104.113 79.7812 104.429 79.0533 104.791 78.3361C105.154 77.6189 105.554 76.9479 105.994 76.3232C106.433 75.6985 106.893 75.2074 107.371 74.8532C107.494 74.8532 107.649 74.8656 107.834 74.8888C108.019 74.9119 108.211 74.9529 108.412 75.0152C108.613 75.0775 108.806 75.1504 108.991 75.2358C109.176 75.3195 109.338 75.4316 109.477 75.5704C109.308 75.7252 108.937 76.2413 108.366 77.1205C107.795 77.9997 107.163 79.265 106.469 80.9148C106.392 81.0839 106.3 81.3313 106.191 81.6552C106.083 81.9791 105.979 82.319 105.878 82.6731C105.778 83.0273 105.689 83.3744 105.613 83.7143C105.536 84.0542 105.497 84.3229 105.497 84.524C105.497 84.6468 105.517 84.7394 105.554 84.8017C105.593 84.864 105.629 84.9103 105.659 84.9405C105.937 84.8942 106.307 84.6664 106.77 84.2589C107.232 83.8496 107.757 83.2124 108.343 82.3492C108.713 81.794 109.053 81.2423 109.361 80.6959C109.669 80.1478 109.973 79.5961 110.274 79.0408C110.575 78.4856 110.888 77.9143 111.212 77.3287C111.536 76.7432 111.883 76.1417 112.253 75.5241C112.454 75.5241 112.669 75.5473 112.901 75.5935C113.132 75.6398 113.356 75.6985 113.572 75.7679C113.787 75.8373 113.976 75.9139 114.138 75.9993C114.3 76.0829 114.421 76.172 114.497 76.2645C114.018 77.2825 113.572 78.2773 113.155 79.2491C112.739 80.2208 112.369 81.2156 112.045 82.2336Z" fill="url(#paint25_linear_46_160)"/>
<defs>
<linearGradient id="paint0_linear_46_160" x1="34.9203" y1="3.92875" x2="82.4512" y2="51.8701" gradientUnits="userSpaceOnUse">
<stop stop-color="#772B24"/>
<stop offset="1" stop-color="#C89B00"/>
</linearGradient>
<linearGradient id="paint1_linear_46_160" x1="34.9204" y1="3.92875" x2="82.4513" y2="51.8701" gradientUnits="userSpaceOnUse">
<stop stop-color="#772B24"/>
<stop offset="1" stop-color="#C89B00"/>
</linearGradient>
<linearGradient id="paint2_linear_46_160" x1="34.9204" y1="3.92877" x2="82.4513" y2="51.8702" gradientUnits="userSpaceOnUse">
<stop stop-color="#772B24"/>
<stop offset="1" stop-color="#C89B00"/>
</linearGradient>
<linearGradient id="paint3_linear_46_160" x1="34.9205" y1="3.92872" x2="82.4514" y2="51.8701" gradientUnits="userSpaceOnUse">
<stop stop-color="#772B24"/>
<stop offset="1" stop-color="#C89B00"/>
</linearGradient>
<linearGradient id="paint4_linear_46_160" x1="34.9207" y1="3.92881" x2="82.4516" y2="51.8702" gradientUnits="userSpaceOnUse">
<stop stop-color="#772B24"/>
<stop offset="1" stop-color="#C89B00"/>
</linearGradient>
<linearGradient id="paint5_linear_46_160" x1="34.9205" y1="3.92876" x2="82.4514" y2="51.8701" gradientUnits="userSpaceOnUse">
<stop stop-color="#772B24"/>
<stop offset="1" stop-color="#C89B00"/>
</linearGradient>
<linearGradient id="paint6_linear_46_160" x1="34.9205" y1="3.92874" x2="82.4514" y2="51.8701" gradientUnits="userSpaceOnUse">
<stop stop-color="#772B24"/>
<stop offset="1" stop-color="#C89B00"/>
</linearGradient>
<linearGradient id="paint7_linear_46_160" x1="34.9205" y1="3.92873" x2="82.4514" y2="51.8701" gradientUnits="userSpaceOnUse">
<stop stop-color="#772B24"/>
<stop offset="1" stop-color="#C89B00"/>
</linearGradient>
<linearGradient id="paint8_linear_46_160" x1="34.9204" y1="3.92879" x2="82.4513" y2="51.8702" gradientUnits="userSpaceOnUse">
<stop stop-color="#772B24"/>
<stop offset="1" stop-color="#C89B00"/>
</linearGradient>
<linearGradient id="paint9_linear_46_160" x1="34.9204" y1="3.92876" x2="82.4513" y2="51.8702" gradientUnits="userSpaceOnUse">
<stop stop-color="#772B24"/>
<stop offset="1" stop-color="#C89B00"/>
</linearGradient>
<linearGradient id="paint10_linear_46_160" x1="34.9204" y1="3.92874" x2="82.4513" y2="51.8701" gradientUnits="userSpaceOnUse">
<stop stop-color="#772B24"/>
<stop offset="1" stop-color="#C89B00"/>
</linearGradient>
<linearGradient id="paint11_linear_46_160" x1="34.9202" y1="3.92877" x2="82.4511" y2="51.8702" gradientUnits="userSpaceOnUse">
<stop stop-color="#772B24"/>
<stop offset="1" stop-color="#C89B00"/>
</linearGradient>
<linearGradient id="paint12_linear_46_160" x1="34.9203" y1="3.92876" x2="82.4513" y2="51.8702" gradientUnits="userSpaceOnUse">
<stop stop-color="#772B24"/>
<stop offset="1" stop-color="#C89B00"/>
</linearGradient>
<linearGradient id="paint13_linear_46_160" x1="34.9207" y1="3.92866" x2="82.4518" y2="51.8701" gradientUnits="userSpaceOnUse">
<stop stop-color="#772B24"/>
<stop offset="1" stop-color="#C89B00"/>
</linearGradient>
<linearGradient id="paint14_linear_46_160" x1="34.9208" y1="3.92879" x2="82.4518" y2="51.8702" gradientUnits="userSpaceOnUse">
<stop stop-color="#772B24"/>
<stop offset="1" stop-color="#C89B00"/>
</linearGradient>
<linearGradient id="paint15_linear_46_160" x1="34.9205" y1="3.92892" x2="82.4515" y2="51.8703" gradientUnits="userSpaceOnUse">
<stop stop-color="#772B24"/>
<stop offset="1" stop-color="#C89B00"/>
</linearGradient>
<linearGradient id="paint16_linear_46_160" x1="0.691162" y1="80.4289" x2="114.497" y2="80.4289" gradientUnits="userSpaceOnUse">
<stop stop-color="#3D0094"/>
<stop offset="1" stop-color="#0F002C"/>
</linearGradient>
<linearGradient id="paint17_linear_46_160" x1="0.691167" y1="80.4289" x2="114.497" y2="80.4289" gradientUnits="userSpaceOnUse">
<stop stop-color="#3D0094"/>
<stop offset="1" stop-color="#0F002C"/>
</linearGradient>
<linearGradient id="paint18_linear_46_160" x1="0.691463" y1="80.4289" x2="114.497" y2="80.4289" gradientUnits="userSpaceOnUse">
<stop stop-color="#3D0094"/>
<stop offset="1" stop-color="#0F002C"/>
</linearGradient>
<linearGradient id="paint19_linear_46_160" x1="0.691441" y1="80.429" x2="114.497" y2="80.429" gradientUnits="userSpaceOnUse">
<stop stop-color="#3D0094"/>
<stop offset="1" stop-color="#0F002C"/>
</linearGradient>
<linearGradient id="paint20_linear_46_160" x1="0.69107" y1="80.429" x2="114.497" y2="80.429" gradientUnits="userSpaceOnUse">
<stop stop-color="#3D0094"/>
<stop offset="1" stop-color="#0F002C"/>
</linearGradient>
<linearGradient id="paint21_linear_46_160" x1="0.691638" y1="80.4289" x2="114.497" y2="80.4289" gradientUnits="userSpaceOnUse">
<stop stop-color="#3D0094"/>
<stop offset="1" stop-color="#0F002C"/>
</linearGradient>
<linearGradient id="paint22_linear_46_160" x1="0.690891" y1="80.429" x2="114.497" y2="80.429" gradientUnits="userSpaceOnUse">
<stop stop-color="#3D0094"/>
<stop offset="1" stop-color="#0F002C"/>
</linearGradient>
<linearGradient id="paint23_linear_46_160" x1="0.690556" y1="80.4289" x2="114.497" y2="80.4289" gradientUnits="userSpaceOnUse">
<stop stop-color="#3D0094"/>
<stop offset="1" stop-color="#0F002C"/>
</linearGradient>
<linearGradient id="paint24_linear_46_160" x1="0.691439" y1="80.4289" x2="114.497" y2="80.4289" gradientUnits="userSpaceOnUse">
<stop stop-color="#3D0094"/>
<stop offset="1" stop-color="#0F002C"/>
</linearGradient>
<linearGradient id="paint25_linear_46_160" x1="0.690771" y1="80.429" x2="114.497" y2="80.429" gradientUnits="userSpaceOnUse">
<stop stop-color="#3D0094"/>
<stop offset="1" stop-color="#0F002C"/>
</linearGradient>
</defs>
</svg>
