<svg width="64" height="97" viewBox="0 0 64 97" fill="none" xmlns="http://www.w3.org/2000/svg">
<path d="M25.7548 54.0694H43.4346C47.7826 54.0694 51.3194 50.5326 51.3194 46.1846C51.3194 41.8372 47.7826 38.3004 43.4346 38.3004H25.7548V54.0694ZM25.7548 86.5024H21.5659V34.1116H43.4346C50.0921 34.1116 55.5083 39.5271 55.5083 46.1846C55.5083 52.8421 50.0921 58.2583 43.4346 58.2583H25.7548V86.5024Z" fill="#3D3E42"/>
<path d="M58.992 66.6633H41.3122C36.9642 66.6633 33.4274 70.2001 33.4274 74.5481C33.4274 78.8955 36.9642 82.4323 41.3122 82.4323H58.992V66.6633ZM58.992 34.1117H63.1809V86.6212H41.3122C34.6547 86.6212 29.2385 81.2057 29.2385 74.5481C29.2385 67.8907 34.6547 62.4745 41.3122 62.4745H58.992V34.1117Z" fill="#3D3E42"/>
<path fill-rule="evenodd" clip-rule="evenodd" d="M43.6034 24.1918C35.9487 26.3178 32.7356 22.9883 31.5494 18.5435C18.9928 36.1985 -1.54377 50.9279 7.98252 65.013C-12.7869 54.6659 18.137 30.5573 31.2307 8.88534L31.2313 8.88104C31.242 8.79557 31.273 8.75266 31.319 8.73917C32.8827 6.13609 34.188 3.56563 35.1119 1.05918C35.1566 0.939134 36.6231 0.994441 36.5693 1.29217C33.3485 19.1043 38.3685 23.4528 46.3713 18.5382C46.4698 18.4775 46.4506 18.5819 46.4519 18.8208C48.0489 24.276 51.0803 28.0102 56.8578 31.2912C52.5646 32.7486 46.9663 31.6784 43.6034 24.1918Z" fill="#E66142" stroke="white" stroke-width="0.204307" stroke-miterlimit="1.5" stroke-linejoin="round"/>
<path d="M63.1817 91.4999H21.5659V96.5275H63.1817V91.4999Z" fill="#E66142" stroke="white" stroke-width="0.2" stroke-miterlimit="1.5" stroke-linejoin="round"/>
</svg>
