<svg width="95" height="95" viewBox="0 0 95 95" fill="none" xmlns="http://www.w3.org/2000/svg">
<path d="M81.2873 80.4338C80.5238 81.1973 79.6705 82.0506 78.7723 82.7692C79.6705 82.0057 80.5238 81.2422 81.2873 80.4338Z" fill="#26A9E0"/>
<path d="M94.0416 39.2513C94.1314 39.8352 94.2213 40.3741 94.3111 40.9579C94.2213 40.419 94.1314 39.8352 94.0416 39.2513Z" fill="#26A9E0"/>
<path d="M94.3112 41.2274C94.401 41.8112 94.4908 42.44 94.4908 43.0238C94.4908 42.3951 94.401 41.8112 94.3112 41.2274Z" fill="#26A9E0"/>
<path d="M93.1885 35.2544C93.3681 35.8382 93.4579 36.3771 93.6376 36.961C93.4579 36.3771 93.3681 35.8831 93.1885 35.2544Z" fill="#26A9E0"/>
<path d="M92.5599 33.2783C92.7396 33.8622 92.9192 34.4011 93.0539 34.9849C92.9192 34.4011 92.7396 33.8172 92.5599 33.2783Z" fill="#26A9E0"/>
<path d="M93.5927 37.3203C93.6825 37.9041 93.8621 38.5328 93.9519 39.1167C93.8621 38.443 93.7723 37.949 93.5927 37.3203Z" fill="#26A9E0"/>
<path d="M94.6257 49.4908C94.6257 49.9849 94.5359 50.6136 94.5359 51.1076C94.6257 50.5687 94.6257 50.0747 94.6257 49.4908Z" fill="#26A9E0"/>
<path d="M94.5358 51.3771C94.5358 51.8711 94.446 52.41 94.3562 52.8591C94.4909 52.41 94.5358 51.8711 94.5358 51.3771Z" fill="#26A9E0"/>
<path d="M94.5359 43.3831C94.6257 43.9669 94.6257 44.5957 94.6257 45.1795C94.6257 44.5508 94.6257 43.9669 94.5359 43.3831Z" fill="#26A9E0"/>
<path d="M94.6259 45.4939V47.3801C94.7157 46.7065 94.7157 46.1226 94.6259 45.4939Z" fill="#26A9E0"/>
<path d="M14.8204 81.7363C14.4612 81.377 14.2366 81.1525 13.8773 80.7932C14.1019 81.1525 14.4612 81.377 14.8204 81.7363Z" fill="#26A9E0"/>
<path d="M83.0388 16.2574C83.3981 16.7065 83.8023 17.1107 84.1616 17.6497C83.8023 17.1107 83.3532 16.7065 83.0388 16.2574Z" fill="#26A9E0"/>
<path d="M84.2966 17.8293C84.6559 18.2784 85.0601 18.7724 85.4194 19.2215C85.105 18.6826 84.6559 18.2335 84.2966 17.8293Z" fill="#26A9E0"/>
<path d="M75.8083 9.56586C76.3024 9.92514 76.8413 10.3293 77.2904 10.7784C76.8413 10.3293 76.3024 9.88023 75.8083 9.56586Z" fill="#26A9E0"/>
<path d="M85.509 19.2664C85.8683 19.7604 86.1827 20.2095 86.542 20.7484C86.2276 20.2993 85.8683 19.8053 85.509 19.2664Z" fill="#26A9E0"/>
<path d="M67.4551 4.49103C67.9491 4.76049 68.5778 4.98504 69.0718 5.2545C68.5778 5.07486 68.0389 4.8054 67.4551 4.49103Z" fill="#26A9E0"/>
<path d="M65.6587 3.68262C66.2425 3.95208 66.7814 4.17663 67.3653 4.44609C66.7814 4.22154 66.1527 3.95208 65.6587 3.68262Z" fill="#26A9E0"/>
<path d="M77.3353 10.7335C77.7844 11.0927 78.2784 11.4969 78.7275 11.946C78.2784 11.5418 77.8742 11.1826 77.3353 10.7335Z" fill="#26A9E0"/>
<path d="M74.3263 8.44312C74.8203 8.8024 75.3592 9.11677 75.8083 9.56587C75.2694 9.11677 74.8652 8.75749 74.3263 8.44312Z" fill="#26A9E0"/>
<path d="M80.3444 13.4282C81.1977 14.2815 82.0509 15.1347 82.8593 16.0779C82.0959 15.1347 81.2426 14.2815 80.3444 13.4282Z" fill="#26A9E0"/>
<path d="M69.2513 5.43408C70.3741 6.01791 71.4968 6.64665 72.5298 7.3203C71.407 6.64665 70.3741 5.92809 69.2513 5.43408Z" fill="#26A9E0"/>
<path d="M78.9073 12.0359C79.3564 12.4851 79.7606 12.7994 80.2097 13.2485C79.7606 12.8892 79.3115 12.4851 78.9073 12.0359Z" fill="#26A9E0"/>
<path d="M15.6738 82.5896C15.3146 82.3201 15.09 82.0955 14.8206 81.7363C15.0451 82.0057 15.4044 82.2303 15.6738 82.5896Z" fill="#26A9E0"/>
<path d="M86.5417 20.8383C86.901 21.3323 87.2154 21.8712 87.4849 22.3203C87.2603 21.8712 86.901 21.3323 86.5417 20.8383Z" fill="#26A9E0"/>
<path d="M18.7725 85.1046C18.503 84.9249 18.2785 84.6555 18.009 84.5208C18.2336 84.6555 18.503 84.9249 18.7725 85.1046Z" fill="#26A9E0"/>
<path d="M89.5508 25.9131C89.8202 26.4072 90.0448 26.9461 90.3143 27.5299C90.0897 27.0359 89.8202 26.497 89.5508 25.9131Z" fill="#26A9E0"/>
<path d="M21.0629 86.7213C20.3893 86.2273 19.6707 85.7782 18.9971 85.2393C19.6258 85.7782 20.2995 86.3171 21.0629 86.7213Z" fill="#26A9E0"/>
<path d="M91.3025 29.6855C91.572 30.1796 91.7516 30.8083 91.8863 31.3023C91.7067 30.7185 91.4372 30.1796 91.3025 29.6855Z" fill="#26A9E0"/>
<path d="M90.4041 27.7095C90.6735 28.2035 90.8532 28.7424 91.0777 29.3262C90.943 28.8322 90.6735 28.2933 90.4041 27.7095Z" fill="#26A9E0"/>
<path d="M91.9761 31.4819C92.1557 31.9759 92.4252 32.6047 92.5599 33.1885C92.4252 32.6047 92.1557 32.1107 91.9761 31.4819Z" fill="#26A9E0"/>
<path d="M87.6646 22.5449C88.0238 23.0389 88.2484 23.5778 88.5178 24.0269C88.2933 23.5778 88.0238 23.0389 87.6646 22.5449Z" fill="#26A9E0"/>
<path d="M88.6976 24.2514C88.9671 24.7454 89.2815 25.2843 89.5509 25.7783C89.3264 25.3742 89.0569 24.8801 88.6976 24.2514Z" fill="#26A9E0"/>
<path d="M17.65 84.2513C17.3805 84.0716 17.156 83.8021 16.9763 83.6674C17.2009 83.892 17.3805 84.0716 17.65 84.2513Z" fill="#26A9E0"/>
<path d="M16.7066 83.3531C16.4371 83.1734 16.2126 82.904 16.033 82.7692C16.1677 83.0387 16.4371 83.2183 16.7066 83.3531Z" fill="#26A9E0"/>
<path d="M61.9312 2.33533C63.1437 2.78443 64.3563 3.18862 65.524 3.63772C64.3563 3.18862 63.1437 2.73952 61.9312 2.33533Z" fill="#26A9E0"/>
<path d="M85.9581 74.8651C85.5988 75.3142 85.2845 75.7183 84.9252 76.2573C85.2845 75.8082 85.5988 75.3591 85.9581 74.8651Z" fill="#26A9E0"/>
<path d="M86.901 73.4728C86.5417 73.9219 86.3172 74.4159 85.9579 74.865C86.2273 74.4159 86.5417 74.0118 86.901 73.4728Z" fill="#26A9E0"/>
<path d="M78.7273 82.859C77.874 83.6225 77.0207 84.341 76.0776 85.0147C77.0207 84.386 77.874 83.6225 78.7273 82.859Z" fill="#26A9E0"/>
<path d="M83.7124 77.7842C83.3531 78.2333 83.0387 78.6375 82.5896 79.0866C82.9489 78.6375 83.2633 78.1884 83.7124 77.7842Z" fill="#26A9E0"/>
<path d="M91.7963 63.907C91.6167 64.4011 91.4371 64.8502 91.2125 65.3891C91.3922 64.8951 91.5269 64.3561 91.7963 63.907Z" fill="#26A9E0"/>
<path d="M91.1226 65.5686C90.943 66.0626 90.6735 66.6015 90.449 67.0506C90.6735 66.6015 90.8532 66.0626 91.1226 65.5686Z" fill="#26A9E0"/>
<path d="M89.6408 68.8471C89.3713 69.3411 89.1468 69.7902 88.8773 70.3291C89.1468 69.7902 89.4162 69.2513 89.6408 68.8471Z" fill="#26A9E0"/>
<path d="M90.3592 67.2753C90.0897 67.7244 89.9101 68.2184 89.6855 68.6675C89.9101 68.2184 90.1796 67.7244 90.3592 67.2753Z" fill="#26A9E0"/>
<path d="M75.988 85.1046C74.5958 86.1375 73.1586 87.1704 71.5868 88.1135C73.1137 87.1704 74.5958 86.2273 75.988 85.1046Z" fill="#26A9E0"/>
<path d="M92.3351 62.2004C92.1554 62.6944 91.9758 63.2333 91.8411 63.7273C91.9758 63.2333 92.1554 62.7393 92.3351 62.2004Z" fill="#26A9E0"/>
<path d="M81.3772 80.344C81.8263 79.8949 82.1407 79.4908 82.5898 79.1315C82.1856 79.4908 81.8263 79.9398 81.3772 80.344Z" fill="#26A9E0"/>
<path d="M13.2485 80.2094C13.4282 80.389 13.6078 80.5686 13.7425 80.7034C13.6078 80.5237 13.4282 80.3441 13.2485 80.2094Z" fill="#26A9E0"/>
<path d="M31.6616 32.1107H32.1107C34.5808 26.8563 36.8263 22.7245 40.1047 17.021L49.9849 0.0898811C49.1316 6.10352e-05 48.2783 6.10352e-05 47.4251 6.10352e-05C36.8263 6.10352e-05 27.0808 3.45813 19.1766 9.29644L23.488 16.9761C26.7664 22.8144 29.2365 27.3503 31.6616 32.1107Z" fill="#26A9E0"/>
<path d="M10.9133 17.2006C4.13185 25.3742 0.00012207 35.973 0.00012207 47.425C0.00012207 55.8681 2.24562 63.7723 6.10789 70.6435L24.521 40.1047L10.9133 17.2006Z" fill="#26A9E0"/>
<path d="M93.3682 58.7424C93.0987 59.7753 92.7844 60.898 92.5149 61.931C92.7394 60.8082 93.0987 59.7753 93.3682 58.7424Z" fill="#26A9E0"/>
<path d="M94.1318 55.1495C94.0419 55.6435 93.9521 56.0926 93.8623 56.6316C93.9521 56.0926 94.0419 55.5986 94.1318 55.1495Z" fill="#26A9E0"/>
<path d="M94.401 53.1735C94.3112 53.6675 94.2214 54.2963 94.1316 54.7903C94.2214 54.2963 94.3112 53.7574 94.401 53.1735Z" fill="#26A9E0"/>
<path d="M93.7724 56.7664C93.6825 57.2604 93.5029 57.7993 93.4131 58.3831C93.5029 57.8891 93.6825 57.3951 93.7724 56.7664Z" fill="#26A9E0"/>
<path d="M41.3622 65.3891C36.7365 57.8891 33.8622 52.9939 31.1227 47.8292H30.8533C28.3383 52.9939 25.8682 57.7094 21.1976 65.4789L13.2036 80.1195L15.5838 82.4998C15.6737 82.5896 15.7635 82.6794 15.8533 82.6794C16.1228 82.8591 16.3473 83.1285 16.527 83.2632C16.6168 83.3531 16.7066 83.4429 16.7964 83.5327C17.0659 83.7123 17.2904 83.9818 17.4701 84.1165C17.5599 84.2064 17.6497 84.2962 17.7395 84.386C18.009 84.5656 18.2335 84.8351 18.503 84.9698C18.5928 85.0596 18.6826 85.0596 18.6826 85.1495C19.3563 85.6435 20.0749 86.1824 20.7485 86.6315C20.8383 86.7213 20.9281 86.7213 21.018 86.8111C21.2874 86.9908 21.512 87.1704 21.7814 87.3051C21.8713 87.395 22.0509 87.4848 22.1407 87.4848C22.4102 87.6644 22.6347 87.8441 22.9042 87.9339C22.994 88.0237 23.1736 88.1135 23.2635 88.1135C23.5329 88.2932 23.7575 88.4728 24.1168 88.5626C24.2066 88.6524 24.2964 88.6525 24.3862 88.7423C25.1497 89.1914 25.9132 89.5057 26.7215 89.9548C26.8114 90.0447 26.9012 90.0447 26.991 90.0447C27.2605 90.2243 27.5748 90.3141 27.8443 90.4938C27.9341 90.5836 28.1137 90.5836 28.2036 90.6734C28.473 90.7632 28.6976 90.9429 28.967 91.0327C29.1467 91.1225 29.2365 91.1225 29.4161 91.2123C29.6856 91.3021 29.9101 91.4818 30.2694 91.5716C30.3592 91.6614 30.5389 91.6614 30.6287 91.7512C30.988 91.8411 31.3024 92.0207 31.6616 92.1105C31.7515 92.1105 31.8413 92.2003 31.9311 92.2003C32.3802 92.38 32.7844 92.4698 33.1437 92.6494C33.2335 92.6494 33.3233 92.7393 33.4131 92.7393C33.7724 92.8291 34.0868 92.9189 34.3562 93.0087C34.5359 93.0087 34.6257 93.0985 34.8053 93.0985C35.0748 93.1884 35.3892 93.2782 35.6586 93.368C35.8383 93.368 36.0179 93.4578 36.1077 93.4578C36.3772 93.5476 36.6916 93.6375 36.961 93.6375C37.1407 93.6375 37.2305 93.7273 37.4101 93.7273C37.7694 93.8171 37.994 93.8171 38.3532 93.9069C38.4431 93.9069 38.6227 93.9967 38.7125 93.9967C39.1616 94.0866 39.5658 94.1764 40.0149 94.2662H40.1945C40.5538 94.356 40.8682 94.356 41.3173 94.4458C41.4969 94.4458 41.5868 94.4458 41.7664 94.5357C42.0359 94.5357 42.3502 94.6255 42.6197 94.6255C42.7993 94.6255 42.979 94.6255 43.1137 94.7153C43.3832 94.7153 43.6975 94.8051 43.967 94.8051H49.1766C49.5358 94.8051 49.8502 94.8051 50.2095 94.7153H50.6586C51.1077 94.7153 51.4221 94.6255 51.8712 94.6255H52.0508C52.5448 94.5357 52.9939 94.5357 53.5328 94.4458C53.9819 94.356 54.4759 94.2662 54.925 94.2662H55.1047C55.5538 94.1764 55.958 94.0866 56.4071 93.9967H56.4969C56.9909 93.9069 57.44 93.8171 57.8891 93.6375L41.3622 65.3891Z" fill="#FAAF40"/>
<path d="M94.6255 45.4939V45.1346C94.6255 44.5508 94.5357 43.922 94.5357 43.3382V42.9789C94.4459 42.3951 94.4459 41.7663 94.3561 41.1825V40.913C94.2663 40.3292 94.1764 39.7005 94.0866 39.2065V39.0268C93.9968 38.443 93.8172 37.8143 93.7273 37.2304C93.7273 37.1406 93.6375 37.0508 93.6375 36.8711C93.5477 36.2873 93.3681 35.7484 93.1884 35.1646C93.1884 35.0747 93.0986 34.9849 93.0986 34.8951C92.919 34.3113 92.7393 33.6825 92.6046 33.1885V33.0987C92.425 32.5149 92.2453 31.9759 92.0208 31.3921C92.0208 31.3023 91.9309 31.2125 91.9309 31.1227C91.7513 30.6286 91.4818 29.9999 91.3471 29.5059C91.3471 29.4161 91.2573 29.3263 91.2573 29.2364C90.9878 28.7424 90.8082 28.2035 90.5836 27.6197C90.5836 27.5299 90.4938 27.44 90.4938 27.44C90.2244 26.946 89.9998 26.4071 89.7304 25.8233V25.7334C89.4609 25.2394 89.2363 24.7005 88.8771 24.2065C88.7872 24.1167 88.7872 24.0269 88.6974 23.937C88.428 23.443 88.1136 22.9041 87.8441 22.455C87.7543 22.3652 87.7543 22.2754 87.6645 22.1856C87.3052 21.6915 87.0807 21.1526 86.7214 20.7035C86.7214 20.7035 86.7214 20.6137 86.6316 20.6137C86.2723 20.1197 85.9579 19.6706 85.5986 19.1317L85.5088 19.0419C85.1495 18.5478 84.8352 18.0987 84.3861 17.6496C84.2962 17.5598 84.2962 17.47 84.2064 17.47C83.8471 17.0209 83.4429 16.5269 83.0837 16.0778C83.0837 15.988 82.9939 15.988 82.9939 15.8982C82.2304 14.955 81.3771 14.1017 80.4789 13.2485C80.3891 13.2485 80.3891 13.1586 80.2992 13.1586C79.8501 12.7095 79.446 12.3952 78.9969 11.9461C78.907 11.8562 78.907 11.8562 78.8172 11.7664C78.3681 11.3173 77.8741 11.003 77.425 10.5539L77.3352 10.464C76.8412 10.0149 76.3921 9.70057 75.8531 9.25147C75.3591 8.89218 74.91 8.57781 74.3711 8.12871C74.2813 8.12871 74.2813 8.03889 74.1915 8.03889C73.6975 7.67961 73.1586 7.36524 72.6645 7.00596C72.5747 7.00596 72.5747 6.91614 72.4849 6.91614C71.452 6.24249 70.3292 5.61375 69.2065 5.02992C69.2065 5.02992 69.1166 5.02992 69.1166 4.9401C68.6226 4.67064 67.9939 4.44609 67.4999 4.17663C67.4101 4.17663 67.4101 4.08681 67.3202 4.08681C66.7364 3.81735 66.1975 3.5928 65.6137 3.32334H65.5238C64.3113 2.82933 63.0987 2.38023 61.931 2.02095L61.5718 1.84131L38.3533 39.3861L48.7724 56.4968V55.0148C48.7724 48.7274 50.0748 43.5627 53.0838 39.6107C55.7335 35.7484 59.6406 33.9969 65.0298 33.0538C67.2753 32.6945 70.0149 32.2903 71.9011 31.5718L71.6316 35.7933C70.1496 36.2873 67.6795 36.7364 65.8831 37.0957C61.3921 37.7693 58.1586 39.2514 56.0029 42.3502C54.2065 44.8651 53.1736 48.6376 52.9939 51.5567H53.1736C54.97 47.5148 58.8322 45.2693 62.8292 45.2693C69.6107 45.2693 74.5957 50.1645 74.5957 58.9669C74.5957 67.9938 69.8801 73.6974 61.7963 73.6974C60.8532 73.6974 59.9999 73.6076 59.1466 73.4279L68.937 89.5955C69.8801 89.1464 70.7334 88.6524 71.5867 88.1135H71.6765C73.2035 87.1704 74.6855 86.2273 76.0777 85.1045L76.1675 85.0147C77.1106 84.341 77.9639 83.5327 78.8172 82.859L78.907 82.7692C79.7603 82.0057 80.5238 81.2423 81.422 80.4339L81.5118 80.3441C81.9609 79.895 82.2753 79.4908 82.7244 79.1315C83.0837 78.6824 83.4879 78.2782 83.8471 77.8291L83.937 77.7393C84.2962 77.2902 84.6106 76.886 84.9699 76.4369C84.9699 76.3471 85.0597 76.3471 85.0597 76.2572C85.419 75.8081 85.7334 75.404 86.0926 74.865C86.4519 74.4159 86.6765 73.9219 87.0358 73.4728C87.1256 73.383 87.1256 73.2932 87.2154 73.2932C87.7992 72.3501 88.428 71.407 88.922 70.4638C88.922 70.374 89.0118 70.2842 89.0118 70.1944C89.2813 69.7004 89.5058 69.2513 89.7753 68.7124C89.7753 68.6225 89.8651 68.6225 89.8651 68.5327C90.1345 68.0836 90.3142 67.5896 90.5387 67.1405C90.5387 67.0507 90.6286 66.9609 90.6286 66.871C90.898 66.377 91.0777 65.9279 91.3022 65.389C91.3022 65.2992 91.392 65.2094 91.392 65.1196C91.5717 64.6705 91.7513 64.1764 91.9759 63.6375C91.9759 63.5477 91.9759 63.5477 92.0657 63.4579C92.2453 62.9639 92.425 62.4249 92.5597 61.9309C92.5597 61.8411 92.6495 61.7513 92.6495 61.5717C93.0088 60.5387 93.2333 59.5058 93.5028 58.383C93.5028 58.2932 93.5926 58.1136 93.5926 58.0238C93.6824 57.5298 93.8621 56.9908 93.9519 56.407V56.1375C94.0417 55.6435 94.1315 55.1944 94.2214 54.6555C94.2214 54.5657 94.2214 54.4759 94.3112 54.2962C94.401 53.8022 94.4908 53.2633 94.5806 52.6795V52.3202C94.6705 51.8262 94.6705 51.2873 94.7603 50.8382V50.5687C94.7603 50.0747 94.8501 49.446 94.8501 48.9519V46.8861C94.7154 46.7064 94.7154 46.1226 94.6255 45.4939Z" fill="#37B34A"/>
<path d="M69.4309 59.3711C69.4309 54.7903 67.6345 48.952 61.7063 48.952C58.6974 48.952 56.6315 50.4789 55.4189 52.7244C54.4758 54.3412 54.0267 56.407 54.0267 58.6525C54.0267 63.2334 56.2722 69.8351 61.7513 69.8351C67.365 69.88 69.4309 64.5357 69.4309 59.3711Z" fill="#37B34A"/>
</svg>
