<svg width="165" height="47" viewBox="0 0 165 47" fill="none" xmlns="http://www.w3.org/2000/svg">
<path d="M61.1365 26.0409V13.3822L59.4108 13.2037V12.7277H64.9071V13.2037L63.18 13.3822V24.9292C63.18 27.8261 62.3788 29.6591 60.7795 30.4255C60.1583 30.7172 59.4428 30.8623 58.6373 30.8623C57.8303 30.8623 57.1627 30.723 56.6329 30.4458C56.1046 30.1671 55.8391 29.6983 55.8391 29.0365C55.8391 28.7593 55.9624 28.5184 56.2062 28.3123C56.4515 28.1076 56.7128 28.0061 56.99 28.0061C57.2672 28.0061 57.4936 28.0322 57.6649 28.0844C57.585 28.3616 57.5458 28.62 57.5458 28.858C57.5458 29.7448 57.9682 30.1874 58.8158 30.1874C60.3629 30.1874 61.1365 28.8043 61.1365 26.0409Z" fill="#252A61"/>
<path d="M70.4214 26.2196C68.3054 26.2196 67.2473 25.2008 67.2473 23.1645C67.2473 21.6696 67.2938 19.5927 67.3867 16.9339L65.7989 16.854V16.3983L69.3315 16.1806C69.2386 19.6726 69.1922 22.047 69.1922 23.3024C69.1922 24.0571 69.3315 24.6188 69.6087 24.9889C69.8859 25.3604 70.3518 25.5447 71.0063 25.5447C71.6609 25.5447 72.2806 25.1775 72.8626 24.4432C73.4446 23.7102 73.7349 23.0644 73.7349 22.5085V16.9339L72.0876 16.854V16.3983L75.6797 16.1806V25.3662L77.3662 25.446L77.385 25.9018L73.8147 26.1398L73.954 23.9976H73.716C73.0266 25.4794 71.9294 26.2196 70.4214 26.2196Z" fill="#252A61"/>
<path d="M84.5677 16.0609C84.9117 16.0609 85.1831 16.1436 85.382 16.3091C85.5793 16.4745 85.6795 16.7024 85.6795 16.9941C85.6795 17.4963 85.4865 17.8272 85.1033 17.9854C84.8914 17.8141 84.5082 17.7271 83.9524 17.7271C83.3965 17.7271 82.8639 17.9099 82.3559 18.2728C81.8465 18.6371 81.591 19.0507 81.591 19.5137V25.4062L83.3776 25.5049V25.9809H78.3385V25.5049L79.6477 25.4265V16.9535L78.0802 16.8751V16.4179L81.591 16.2002L81.472 18.64H81.5518C81.7768 17.9259 82.1904 17.3178 82.7913 16.8156C83.3936 16.312 83.9858 16.0609 84.5677 16.0609Z" fill="#252A61"/>
<path d="M90.0826 13.0555C90.0826 13.3806 89.9709 13.6578 89.7459 13.8886C89.521 14.1208 89.2394 14.2354 88.9027 14.2354C88.5645 14.2354 88.2844 14.1237 88.0594 13.8987C87.8345 13.6738 87.7227 13.3922 87.7227 13.0555C87.7227 12.7188 87.8345 12.4343 88.0594 12.2021C88.2844 11.9713 88.5616 11.8552 88.8925 11.8552C89.2234 11.8552 89.505 11.9742 89.7358 12.2123C89.9665 12.4503 90.0826 12.7318 90.0826 13.0555ZM86.7097 25.9812V25.5052L88.0203 25.4065V16.9741L86.2728 16.9146V16.4575L89.9636 16.2006V25.4065L91.2727 25.5052V25.9812H86.7097Z" fill="#252A61"/>
<path d="M96.2333 25.7037C96.7631 25.7037 97.2217 25.5586 97.6121 25.2668C98.0025 24.9766 98.1985 24.4875 98.1985 23.7995C98.1985 23.3365 97.9895 22.9519 97.5729 22.6486C97.1564 22.3438 96.6368 22.0695 96.0156 21.8257C95.393 21.5804 94.9736 21.4092 94.7544 21.309C94.5382 21.2103 94.2493 21.0478 93.8923 20.8228C93.2436 20.3859 92.9199 19.759 92.9199 18.9375C92.9199 18.1175 93.2436 17.4368 93.8923 16.894C94.5396 16.3526 95.4859 16.0812 96.7297 16.0812C97.5236 16.0812 98.1999 16.2569 98.763 16.6066C99.3247 16.9579 99.6063 17.3773 99.6063 17.8664C99.6063 18.357 99.4205 18.6937 99.0504 18.878C98.853 18.9709 98.6571 19.0173 98.4655 19.0173C98.2739 19.0173 98.0853 18.9781 97.8995 18.8983C97.9532 18.6603 97.9793 18.402 97.9793 18.1247C97.9793 17.8461 97.9126 17.5689 97.7805 17.2917C97.557 16.8142 97.1259 16.5761 96.4917 16.5761C95.856 16.5761 95.3741 16.7489 95.0432 17.0928C94.7123 17.4368 94.5469 17.8867 94.5469 18.4426C94.5469 19.0115 94.7849 19.4339 95.2609 19.7125C95.618 19.936 96.0621 20.1421 96.5904 20.3264C97.1201 20.5122 97.4801 20.6414 97.6716 20.714C97.8632 20.7865 98.1186 20.9084 98.4365 21.0811C98.7529 21.2539 98.9909 21.4309 99.1506 21.6167C99.5598 22.0666 99.7659 22.6747 99.7659 23.441C99.7659 24.2088 99.4205 24.8605 98.734 25.396C98.0461 25.9316 97.2057 26.2001 96.213 26.2001C95.2217 26.2001 94.3524 26.0477 93.6049 25.7429C92.8575 25.4396 92.4845 24.9969 92.4845 24.4135C92.4845 23.8721 92.8865 23.5151 93.6935 23.3438C93.9329 24.9171 94.7791 25.7037 96.2333 25.7037Z" fill="#252A61"/>
<path d="M110.716 19.7714V25.3272L112.442 25.5057V25.9818H106.947V25.5057L108.673 25.3272V13.4029L106.947 13.1649V12.728H116.57L116.589 15.5451H116.073L115.4 13.4421L110.716 13.3826V19.0574H114.844L115.459 17.5886H115.856V21.2794H115.439L114.844 19.7714H110.716Z" fill="#252A61"/>
<path d="M121.53 13.0555C121.53 13.3806 121.417 13.6578 121.193 13.8886C120.967 14.1208 120.687 14.2354 120.35 14.2354C120.012 14.2354 119.73 14.1237 119.505 13.8987C119.282 13.6738 119.169 13.3922 119.169 13.0555C119.169 12.7188 119.282 12.4343 119.505 12.2021C119.73 11.9713 120.009 11.8552 120.34 11.8552C120.671 11.8552 120.951 11.9742 121.183 12.2123C121.414 12.4503 121.53 12.7318 121.53 13.0555ZM118.157 25.9812V25.5052L119.466 25.4065V16.9741L117.72 16.9146V16.4575L121.411 16.2006V25.4065L122.72 25.5052V25.9812H118.157Z" fill="#252A61"/>
<path d="M127.68 25.7037C128.209 25.7037 128.669 25.5586 129.059 25.2668C129.45 24.9766 129.644 24.4875 129.644 23.7995C129.644 23.3365 129.435 22.9519 129.019 22.6486C128.602 22.3438 128.084 22.0695 127.461 21.8257C126.84 21.5804 126.421 21.4092 126.202 21.309C125.984 21.2103 125.696 21.0478 125.339 20.8228C124.691 20.3859 124.367 19.759 124.367 18.9375C124.367 18.1175 124.691 17.4368 125.339 16.894C125.987 16.3526 126.933 16.0812 128.175 16.0812C128.969 16.0812 129.647 16.2569 130.21 16.6066C130.772 16.9579 131.053 17.3773 131.053 17.8664C131.053 18.357 130.868 18.6937 130.498 18.878C130.299 18.9709 130.104 19.0173 129.913 19.0173C129.72 19.0173 129.531 18.9781 129.347 18.8983C129.4 18.6603 129.426 18.402 129.426 18.1247C129.426 17.8461 129.36 17.5689 129.228 17.2917C129.003 16.8142 128.573 16.5761 127.939 16.5761C127.303 16.5761 126.82 16.7489 126.49 17.0928C126.159 17.4368 125.994 17.8867 125.994 18.4426C125.994 19.0115 126.232 19.4339 126.708 19.7125C127.065 19.936 127.508 20.1421 128.038 20.3264C128.566 20.5122 128.926 20.6414 129.119 20.714C129.31 20.7865 129.564 20.9084 129.882 21.0811C130.2 21.2539 130.438 21.4309 130.596 21.6167C131.007 22.0666 131.212 22.6747 131.212 23.441C131.212 24.2088 130.868 24.8605 130.18 25.396C129.492 25.9316 128.651 26.2001 127.66 26.2001C126.669 26.2001 125.798 26.0477 125.051 25.7429C124.303 25.4396 123.93 24.9969 123.93 24.4135C123.93 23.8721 124.334 23.5151 125.141 23.3438C125.379 24.9171 126.225 25.7037 127.68 25.7037Z" fill="#252A61"/>
<path d="M139.307 16.16C141.423 16.16 142.481 17.1789 142.481 19.2151C142.481 20.6839 142.434 22.7477 142.341 25.4066L143.751 25.5053V25.9813H139.327V25.5053L140.397 25.4255C140.49 21.9335 140.536 19.8145 140.536 19.0671C140.536 18.3196 140.397 17.7609 140.119 17.3908C139.842 17.0207 139.363 16.8349 138.681 16.8349C138 16.8349 137.362 17.1586 136.767 17.8073C136.172 18.4561 135.874 19.0511 135.874 19.5925V25.4066L137.183 25.5053V25.9813H132.62V25.5053L133.929 25.4066V11.7363L132.183 11.6565L132.165 11.2008L135.874 10.7828C135.794 15.3197 135.748 17.7406 135.735 18.0453H135.893C136.252 17.4372 136.731 16.9713 137.333 16.6462C137.934 16.3226 138.593 16.16 139.307 16.16Z" fill="#252A61"/>
<path d="M151.806 19.077C151.806 18.4689 151.681 17.9464 151.428 17.5096C151.084 16.9276 150.53 16.6358 149.762 16.6358C148.334 16.6358 147.501 17.6677 147.263 19.7316H151.767C151.793 19.5066 151.806 19.2889 151.806 19.077ZM146.309 24.8113C145.476 23.8853 145.06 22.6619 145.06 21.1408C145.06 19.6198 145.5 18.3963 146.379 17.4704C147.259 16.5444 148.366 16.0814 149.703 16.0814C151.038 16.0814 152.038 16.3819 152.698 16.9842C153.36 17.5865 153.691 18.4225 153.691 19.4936C153.691 19.8114 153.663 20.1292 153.611 20.4456H147.203V21.1408C147.203 22.6212 147.414 23.7431 147.838 24.5036C148.261 25.2641 148.955 25.6444 149.922 25.6444C151.283 25.6444 152.335 25.0493 153.076 23.8578C153.366 23.9507 153.512 24.09 153.512 24.2758C153.512 24.6067 153.208 24.9898 152.6 25.4267C152.308 25.6386 151.899 25.82 151.369 25.9709C150.839 26.1233 150.251 26.2003 149.604 26.2003C148.241 26.2003 147.144 25.7373 146.309 24.8113Z" fill="#252A61"/>
<path d="M161.547 16.0609C161.891 16.0609 162.163 16.1436 162.362 16.3091C162.559 16.4745 162.659 16.7024 162.659 16.9941C162.659 17.4963 162.466 17.8272 162.083 17.9854C161.871 17.8141 161.488 17.7271 160.932 17.7271C160.376 17.7271 159.845 17.9099 159.335 18.2728C158.826 18.6371 158.572 19.0507 158.572 19.5137V25.4062L160.357 25.5049V25.9809H155.318V25.5049L156.627 25.4265V16.9535L155.06 16.8751V16.4179L158.572 16.2002L158.452 18.64H158.531C158.756 17.9259 159.17 17.3178 159.771 16.8156C160.373 16.312 160.965 16.0609 161.547 16.0609Z" fill="#252A61"/>
<path d="M164.769 31.2663H67.1891C67.0614 31.2663 66.9583 31.054 66.9583 30.7909C66.9583 30.5278 67.0614 30.3155 67.1891 30.3155H164.769C164.897 30.3155 165 30.5278 165 30.7909C165 31.054 164.897 31.2663 164.769 31.2663Z" fill="#252A61"/>
<path d="M95.9754 38.0141C95.7591 37.9458 95.5893 37.8602 95.4674 37.7557L95.6445 37.4451C95.7678 37.5409 95.9202 37.6207 96.106 37.6817C96.2918 37.7426 96.4848 37.7717 96.6836 37.7717C96.9492 37.7717 97.1481 37.731 97.2758 37.6483C97.4021 37.5641 97.4659 37.4466 97.4659 37.2942C97.4659 37.1882 97.4311 37.1041 97.3614 37.0431C97.2903 36.9821 97.2018 36.9357 97.0944 36.9038C96.987 36.8718 96.8447 36.8414 96.6677 36.8123C96.4297 36.7673 96.2395 36.7223 96.0958 36.6759C95.9507 36.6295 95.8273 36.5511 95.7257 36.4408C95.6242 36.329 95.5734 36.1752 95.5734 35.9793C95.5734 35.7354 95.675 35.5351 95.8781 35.3798C96.0828 35.2246 96.3658 35.1462 96.7286 35.1462C96.9173 35.1462 97.106 35.1709 97.2947 35.2216C97.4833 35.271 97.6386 35.3363 97.7605 35.4176L97.5878 35.7354C97.3484 35.5685 97.061 35.4843 96.7286 35.4843C96.4761 35.4843 96.286 35.5293 96.1583 35.6179C96.032 35.7079 95.9681 35.824 95.9681 35.9676C95.9681 36.0794 96.003 36.1679 96.0755 36.2347C96.1481 36.3015 96.2381 36.3508 96.344 36.3813C96.4529 36.4132 96.6009 36.4451 96.7896 36.4785C97.0218 36.5235 97.209 36.5671 97.3498 36.612C97.4906 36.6556 97.6111 36.7325 97.7112 36.8399C97.8113 36.9473 97.8607 37.0953 97.8607 37.284C97.8607 37.5395 97.7547 37.7426 97.5414 37.8921C97.328 38.0416 97.0334 38.1171 96.6561 38.1171C96.4195 38.1171 96.1916 38.0823 95.9754 38.0141Z" fill="#252A61"/>
<path d="M102.222 37.6257C102.388 37.5314 102.515 37.3964 102.608 37.2222C102.701 37.0495 102.748 36.8507 102.748 36.6286C102.748 36.4066 102.701 36.2077 102.608 36.035C102.515 35.8609 102.388 35.7259 102.222 35.6315C102.058 35.5372 101.871 35.4908 101.665 35.4908C101.457 35.4908 101.272 35.5372 101.106 35.6315C100.942 35.7259 100.812 35.8609 100.717 36.035C100.623 36.2077 100.576 36.4066 100.576 36.6286C100.576 36.8507 100.623 37.0495 100.717 37.2222C100.812 37.3964 100.942 37.5314 101.106 37.6257C101.272 37.72 101.457 37.7665 101.665 37.7665C101.871 37.7665 102.058 37.72 102.222 37.6257ZM100.904 37.9261C100.678 37.7984 100.5 37.6213 100.37 37.3949C100.241 37.17 100.176 36.9145 100.176 36.6286C100.176 36.3442 100.241 36.0887 100.37 35.8623C100.5 35.6359 100.678 35.4603 100.904 35.334C101.129 35.2092 101.383 35.1468 101.665 35.1468C101.947 35.1468 102.199 35.2092 102.425 35.334C102.65 35.4603 102.828 35.6359 102.955 35.8623C103.083 36.0887 103.147 36.3442 103.147 36.6286C103.147 36.9145 103.083 37.17 102.955 37.3949C102.828 37.6213 102.65 37.7984 102.425 37.9261C102.199 38.0524 101.947 38.1163 101.665 38.1163C101.383 38.1163 101.129 38.0524 100.904 37.9261Z" fill="#252A61"/>
<path d="M106.229 33.969H105.834V38.0894H106.229V33.969Z" fill="#252A61"/>
<path d="M109.21 35.1678H109.603V38.0894H109.21V35.1678ZM109.204 34.4465C109.149 34.3913 109.122 34.3246 109.122 34.2462C109.122 34.1722 109.149 34.1083 109.204 34.0517C109.261 33.9966 109.329 33.969 109.41 33.969C109.492 33.969 109.561 33.9966 109.616 34.0503C109.672 34.1025 109.699 34.1664 109.699 34.2404C109.699 34.3231 109.672 34.3913 109.616 34.4465C109.561 34.5016 109.492 34.5292 109.41 34.5292C109.329 34.5292 109.261 34.5016 109.204 34.4465Z" fill="#252A61"/>
<path d="M113.022 37.9283C112.795 37.802 112.616 37.6264 112.487 37.3971C112.358 37.1707 112.292 36.9138 112.292 36.6279C112.292 36.3434 112.358 36.088 112.487 35.863C112.616 35.6366 112.795 35.461 113.022 35.3347C113.25 35.2085 113.509 35.1461 113.797 35.1461C114.048 35.1461 114.273 35.1954 114.472 35.2941C114.67 35.3913 114.826 35.535 114.941 35.7237L114.646 35.924C114.551 35.7788 114.429 35.6714 114.281 35.5989C114.133 35.5263 113.972 35.49 113.797 35.49C113.586 35.49 113.397 35.5379 113.228 35.6323C113.059 35.7266 112.928 35.8601 112.834 36.0343C112.739 36.2084 112.691 36.4073 112.691 36.6279C112.691 36.8543 112.739 37.0531 112.834 37.2258C112.928 37.3971 113.059 37.5306 113.228 37.6264C113.397 37.7193 113.586 37.7672 113.797 37.7672C113.972 37.7672 114.133 37.7324 114.281 37.6613C114.429 37.5916 114.551 37.4842 114.646 37.3391L114.941 37.5393C114.826 37.728 114.668 37.8717 114.469 37.9689C114.269 38.0676 114.046 38.117 113.797 38.117C113.509 38.117 113.25 38.0531 113.022 37.9283Z" fill="#252A61"/>
<path d="M117.6 35.1678H117.995V38.0894H117.6V35.1678ZM117.596 34.4465C117.539 34.3913 117.512 34.3246 117.512 34.2462C117.512 34.1722 117.539 34.1083 117.596 34.0517C117.651 33.9966 117.719 33.969 117.801 33.969C117.882 33.969 117.95 33.9966 118.005 34.0503C118.062 34.1025 118.089 34.1664 118.089 34.2404C118.089 34.3231 118.062 34.3913 118.005 34.4465C117.95 34.5016 117.882 34.5292 117.801 34.5292C117.719 34.5292 117.651 34.5016 117.596 34.4465Z" fill="#252A61"/>
<path d="M122.515 37.9113C122.441 37.9781 122.349 38.0289 122.241 38.0637C122.13 38.0985 122.017 38.1174 121.898 38.1174C121.624 38.1174 121.413 38.0434 121.265 37.8953C121.117 37.7473 121.043 37.5383 121.043 37.2669V35.5006H120.521V35.1683H121.043V34.5297H121.438V35.1683H122.326V35.5006H121.438V37.2451C121.438 37.4193 121.482 37.5514 121.569 37.6414C121.656 37.7328 121.781 37.7778 121.943 37.7778C122.024 37.7778 122.103 37.7647 122.178 37.7386C122.255 37.7139 122.32 37.6762 122.376 37.6283L122.515 37.9113Z" fill="#252A61"/>
<path d="M126.766 37.6257C126.93 37.5314 127.059 37.3964 127.152 37.2222C127.245 37.0495 127.29 36.8507 127.29 36.6286C127.29 36.4066 127.245 36.2077 127.152 36.035C127.059 35.8609 126.93 35.7259 126.766 35.6315C126.6 35.5372 126.414 35.4908 126.207 35.4908C126.001 35.4908 125.814 35.5372 125.65 35.6315C125.484 35.7259 125.355 35.8609 125.261 36.035C125.166 36.2077 125.12 36.4066 125.12 36.6286C125.12 36.8507 125.166 37.0495 125.261 37.2222C125.355 37.3964 125.484 37.5314 125.65 37.6257C125.814 37.72 126.001 37.7665 126.207 37.7665C126.414 37.7665 126.6 37.72 126.766 37.6257ZM125.446 37.9261C125.221 37.7984 125.043 37.6213 124.914 37.3949C124.785 37.17 124.719 36.9145 124.719 36.6286C124.719 36.3442 124.785 36.0887 124.914 35.8623C125.043 35.6359 125.221 35.4603 125.446 35.334C125.673 35.2092 125.925 35.1468 126.207 35.1468C126.488 35.1468 126.742 35.2092 126.969 35.334C127.194 35.4603 127.371 35.6359 127.499 35.8623C127.626 36.0887 127.69 36.3442 127.69 36.6286C127.69 36.9145 127.626 37.17 127.499 37.3949C127.371 37.6213 127.194 37.7984 126.969 37.9261C126.742 38.0524 126.488 38.1163 126.207 38.1163C125.925 38.1163 125.673 38.0524 125.446 37.9261Z" fill="#252A61"/>
<path d="M131.169 35.2963C131.352 35.1961 131.58 35.1453 131.85 35.1453V35.5299L131.755 35.5241C131.448 35.5241 131.207 35.6185 131.033 35.8071C130.86 35.9958 130.773 36.26 130.773 36.601V38.0887H130.378V35.1685H130.755V35.7404C130.848 35.5444 130.986 35.3964 131.169 35.2963Z" fill="#252A61"/>
<path d="M134.572 38.0141C134.356 37.9458 134.186 37.8602 134.064 37.7557L134.241 37.4451C134.363 37.5409 134.517 37.6207 134.703 37.6817C134.887 37.7426 135.08 37.7717 135.281 37.7717C135.546 37.7717 135.745 37.731 135.873 37.6483C135.999 37.5641 136.063 37.4466 136.063 37.2942C136.063 37.1882 136.028 37.1041 135.958 37.0431C135.887 36.9821 135.799 36.9357 135.691 36.9038C135.584 36.8718 135.442 36.8414 135.265 36.8123C135.027 36.7673 134.836 36.7223 134.691 36.6759C134.548 36.6295 134.424 36.5511 134.323 36.4408C134.221 36.329 134.17 36.1752 134.17 35.9793C134.17 35.7354 134.272 35.5351 134.475 35.3798C134.678 35.2246 134.963 35.1462 135.326 35.1462C135.513 35.1462 135.703 35.1709 135.892 35.2216C136.08 35.271 136.236 35.3363 136.357 35.4176L136.185 35.7354C135.945 35.5685 135.658 35.4843 135.326 35.4843C135.073 35.4843 134.883 35.5293 134.755 35.6179C134.629 35.7079 134.565 35.824 134.565 35.9676C134.565 36.0794 134.6 36.1679 134.672 36.2347C134.745 36.3015 134.835 36.3508 134.941 36.3813C135.05 36.4132 135.198 36.4451 135.387 36.4785C135.619 36.5235 135.806 36.5671 135.947 36.612C136.088 36.6556 136.208 36.7325 136.308 36.8399C136.408 36.9473 136.458 37.0953 136.458 37.284C136.458 37.5395 136.352 37.7426 136.138 37.8921C135.925 38.0416 135.63 38.1171 135.253 38.1171C135.016 38.1171 134.789 38.0823 134.572 38.0141Z" fill="#252A61"/>
<path d="M151.826 13.5854C152.022 13.5854 152.192 13.5463 152.34 13.4679C152.487 13.391 152.6 13.2836 152.681 13.1457C152.762 13.0093 152.803 12.8511 152.803 12.6725C152.803 12.494 152.762 12.3358 152.681 12.198C152.6 12.0615 152.487 11.9541 152.34 11.8758C152.192 11.7988 152.022 11.7596 151.826 11.7596H151.166V13.5854H151.826ZM150.929 11.5565H151.839C152.074 11.5565 152.283 11.6029 152.463 11.6972C152.645 11.793 152.785 11.9236 152.886 12.0935C152.986 12.2618 153.035 12.4563 153.035 12.6725C153.035 12.8903 152.986 13.0818 152.886 13.2516C152.785 13.4214 152.645 13.5535 152.463 13.6464C152.283 13.7422 152.074 13.7901 151.839 13.7901H150.929V11.5565Z" fill="#252A61"/>
<path d="M154.618 13.5231C154.713 13.4679 154.787 13.3924 154.841 13.2909C154.893 13.1907 154.92 13.0775 154.92 12.9498C154.92 12.8221 154.893 12.7089 154.841 12.6087C154.787 12.5086 154.713 12.4317 154.618 12.3765C154.524 12.3228 154.417 12.2952 154.298 12.2952C154.179 12.2952 154.071 12.3228 153.977 12.3765C153.883 12.4317 153.807 12.5086 153.753 12.6087C153.7 12.7089 153.672 12.8221 153.672 12.9498C153.672 13.0775 153.7 13.1907 153.753 13.2909C153.807 13.3924 153.883 13.4679 153.977 13.5231C154.071 13.5768 154.179 13.6043 154.298 13.6043C154.417 13.6043 154.524 13.5768 154.618 13.5231ZM153.861 13.6958C153.73 13.6218 153.629 13.5202 153.555 13.391C153.479 13.2604 153.443 13.1138 153.443 12.9498C153.443 12.7872 153.479 12.6392 153.555 12.51C153.629 12.3794 153.73 12.2793 153.861 12.2067C153.99 12.1341 154.135 12.0978 154.298 12.0978C154.459 12.0978 154.605 12.1341 154.735 12.2067C154.864 12.2793 154.965 12.3794 155.039 12.51C155.113 12.6392 155.15 12.7872 155.15 12.9498C155.15 13.1138 155.113 13.2604 155.039 13.391C154.965 13.5202 154.864 13.6218 154.735 13.6958C154.605 13.7683 154.459 13.8046 154.298 13.8046C154.135 13.8046 153.99 13.7683 153.861 13.6958Z" fill="#252A61"/>
<path d="M155.705 12.1102H155.932V13.7894H155.705V12.1102ZM155.703 11.6966C155.671 11.6646 155.655 11.6254 155.655 11.5819C155.655 11.5384 155.671 11.5006 155.703 11.4701C155.734 11.4382 155.774 11.4222 155.82 11.4222C155.867 11.4222 155.907 11.4382 155.939 11.4687C155.971 11.4992 155.986 11.5354 155.986 11.5775C155.986 11.624 155.971 11.6646 155.939 11.6966C155.907 11.7285 155.867 11.743 155.82 11.743C155.774 11.743 155.734 11.7285 155.703 11.6966Z" fill="#252A61"/>
<path d="M156.883 11.4222H156.656V13.7894H156.883V11.4222Z" fill="#252A61"/>
<path d="M160.197 12.2801C160.318 12.4006 160.377 12.5805 160.377 12.8171V13.7895H160.151V12.8389C160.151 12.6647 160.109 12.5312 160.025 12.4398C159.94 12.3483 159.823 12.3019 159.669 12.3019C159.495 12.3019 159.357 12.3556 159.258 12.463C159.158 12.5718 159.107 12.7199 159.107 12.9085V13.7895H158.881V12.8389C158.881 12.6647 158.839 12.5312 158.755 12.4398C158.671 12.3483 158.552 12.3019 158.396 12.3019C158.224 12.3019 158.087 12.3556 157.987 12.463C157.885 12.5718 157.835 12.7199 157.835 12.9085V13.7895H157.608V12.1103H157.824V12.418C157.884 12.3149 157.967 12.2366 158.074 12.1814C158.18 12.1263 158.302 12.0987 158.441 12.0987C158.581 12.0987 158.702 12.1277 158.807 12.1872C158.909 12.2467 158.987 12.3353 159.038 12.4528C159.099 12.3411 159.189 12.2554 159.303 12.1916C159.419 12.1292 159.553 12.0987 159.701 12.0987C159.911 12.0987 160.077 12.1597 160.197 12.2801Z" fill="#252A61"/>
<path d="M161.34 12.4473C161.229 12.5504 161.167 12.6853 161.153 12.8508H162.343C162.328 12.6853 162.266 12.5504 162.155 12.4473C162.047 12.3443 161.91 12.2935 161.746 12.2935C161.585 12.2935 161.449 12.3443 161.34 12.4473ZM162.557 13.0206H161.153C161.166 13.1948 161.232 13.3355 161.354 13.4429C161.475 13.5503 161.629 13.604 161.813 13.604C161.917 13.604 162.013 13.5852 162.1 13.5489C162.187 13.5112 162.263 13.456 162.327 13.3849L162.456 13.5315C162.38 13.62 162.288 13.6882 162.176 13.7347C162.064 13.7811 161.941 13.8058 161.807 13.8058C161.634 13.8058 161.482 13.7695 161.348 13.6955C161.216 13.6215 161.112 13.5199 161.038 13.3907C160.964 13.2615 160.926 13.1135 160.926 12.9509C160.926 12.7869 160.962 12.6389 161.034 12.5097C161.105 12.3805 161.202 12.279 161.327 12.2064C161.452 12.1338 161.591 12.0975 161.746 12.0975C161.901 12.0975 162.041 12.1338 162.164 12.2064C162.288 12.279 162.385 12.3791 162.456 12.5083C162.524 12.6374 162.56 12.784 162.56 12.9509L162.557 13.0206Z" fill="#252A61"/>
<path fill-rule="evenodd" clip-rule="evenodd" d="M32.6765 7.841C30.6287 7.841 28.6665 8.65376 27.218 10.1022C25.771 11.5492 24.9583 13.5129 24.9583 15.5593V38.8666C27.0047 38.8666 28.9683 38.0538 30.4153 36.6054C31.8638 35.1584 32.6765 33.1947 32.6765 31.1483V7.841Z" fill="#A01C20"/>
<path fill-rule="evenodd" clip-rule="evenodd" d="M21.3164 7.841C19.2686 7.841 17.3049 8.65376 15.8579 10.1022C14.4109 11.5492 13.5967 13.5129 13.5967 15.5593V38.8666C15.6445 38.8666 17.6082 38.0538 19.0552 36.6054C20.5022 35.1584 21.3164 33.1947 21.3164 31.1483V7.841Z" fill="#252A61"/>
<path fill-rule="evenodd" clip-rule="evenodd" d="M38.5123 7.841C40.5674 7.841 42.235 9.50861 42.235 11.5637C42.235 13.6188 40.5674 15.2879 38.5123 15.2879C36.4572 15.2879 34.7896 13.6188 34.7896 11.5637C34.7896 9.50861 36.4572 7.841 38.5123 7.841Z" fill="#A01C20"/>
<path fill-rule="evenodd" clip-rule="evenodd" d="M36.3317 21.4383C37.3897 21.4383 38.2474 22.296 38.2474 23.3541C38.2474 24.4107 37.3897 25.2699 36.3317 25.2699C35.2751 25.2699 34.4159 24.4107 34.4159 23.3541C34.4159 22.296 35.2751 21.4383 36.3317 21.4383Z" fill="#A01C20"/>
<path fill-rule="evenodd" clip-rule="evenodd" d="M7.51086 31.4206C9.56598 31.4206 11.2336 33.0882 11.2336 35.1433C11.2336 37.1984 9.56598 38.8675 7.51086 38.8675C5.45575 38.8675 3.78814 37.1984 3.78814 35.1433C3.78814 33.0882 5.45575 31.4206 7.51086 31.4206Z" fill="#252A61"/>
<path fill-rule="evenodd" clip-rule="evenodd" d="M46.024 0V46.024H0V0H46.024ZM45.5723 0.451615H0.451615V45.5723H45.5723V0.451615Z" fill="#252A61"/>
<path fill-rule="evenodd" clip-rule="evenodd" d="M88.8659 11.5233C89.6976 11.5233 90.3739 12.1996 90.3739 13.0312C90.3739 13.8643 89.6976 14.5392 88.8659 14.5392C88.0329 14.5392 87.3565 13.8643 87.3565 13.0312C87.3565 12.1996 88.0329 11.5233 88.8659 11.5233Z" fill="#A01C20"/>
<path fill-rule="evenodd" clip-rule="evenodd" d="M120.48 11.5233C121.312 11.5233 121.988 12.1996 121.988 13.0312C121.988 13.8643 121.312 14.5392 120.48 14.5392C119.647 14.5392 118.971 13.8643 118.971 13.0312C118.971 12.1996 119.647 11.5233 120.48 11.5233Z" fill="#A01C20"/>
</svg>
