<svg width="118" height="85" viewBox="0 0 118 85" fill="none" xmlns="http://www.w3.org/2000/svg">
<path fill-rule="evenodd" clip-rule="evenodd" d="M99.2394 32.9101C99.2394 32.9101 106.544 31.5322 108.576 30.0504C110.608 28.5693 110.988 28.5508 110.988 28.5508C110.988 28.5508 118.051 28.2938 117.844 32.0142C117.637 35.7353 101.376 34.3919 99.2394 32.9101Z" fill="#FBAB18"/>
<path fill-rule="evenodd" clip-rule="evenodd" d="M61.4283 38.4815C61.2664 37.8892 58.6337 32.9369 61.9684 29.9759C65.3037 27.0155 71.9252 27.0155 70.9025 22.8704C69.8798 18.7253 69.341 18.0794 69.341 18.0794C69.341 18.0794 73.8629 22.5293 77.5776 19.1742C81.2916 15.8185 81.1838 15.5494 81.1838 15.5494C81.1838 15.5494 85.0063 19.3177 82.6376 24.0544C80.2689 28.7918 61.5897 39.0732 61.4283 38.4815Z" fill="#FBAB18"/>
<path fill-rule="evenodd" clip-rule="evenodd" d="M66.0866 38.3242C66.0866 38.3242 85.208 20.1166 88.8577 18.9902C92.5077 17.8634 71.213 20.752 66.0866 38.3242Z" fill="#EF5225"/>
<path fill-rule="evenodd" clip-rule="evenodd" d="M84.8283 31.9745C84.8283 31.9745 96.6444 25.3541 99.4668 25.5401C102.289 25.7257 84.9327 22.368 84.8283 31.9745Z" fill="#F47B06"/>
<path fill-rule="evenodd" clip-rule="evenodd" d="M73.2284 16.1506C73.2284 16.1506 72.9988 15.6565 73.6339 15.5507C74.2689 15.4448 75.3803 14.8455 74.3576 14.6867C73.3342 14.5279 70.618 14.9864 72.117 17.0152C73.6167 19.0435 76.6504 17.6675 77.0738 16.4682C77.4971 15.2688 77.2504 14.44 76.7913 14.1926C76.3329 13.9458 79.3672 14.563 79.9315 15.0215C80.4958 15.4805 80.1604 15.2688 80.1604 15.2688C80.1604 15.2688 78.7321 18.7967 75.8215 19.0964C72.9108 19.396 69.6297 18.9727 70.5122 15.1451C70.8482 13.6869 71.9901 13.4128 72.8273 13.2955C74.1867 13.1048 75.3771 13.8489 75.7329 14.4776C76.7212 16.2214 73.4579 18.2853 73.2284 16.1506Z" fill="#FCAD1C"/>
<path fill-rule="evenodd" clip-rule="evenodd" d="M70.3579 60.5159C70.3579 60.5159 61.3087 55.1875 58.1979 57.3133C55.0871 59.4397 56.5957 62.0232 70.3579 60.5159Z" fill="#F5EA03"/>
<path fill-rule="evenodd" clip-rule="evenodd" d="M68.2125 14.4821C68.2125 14.4821 67.4761 17.6746 68.5957 19.5453C69.7154 21.4154 69.1989 28.6076 61.4903 25.2914C53.7816 21.9752 66.1505 14.2666 68.2125 14.4821Z" fill="#FFA918"/>
<path fill-rule="evenodd" clip-rule="evenodd" d="M75.4036 1.25369C76.4866 1.94526 76.597 3.71211 75.6492 5.19637C74.7011 6.68109 69.3559 8.59164 69.3559 8.59164C69.3559 8.59164 70.775 4.17398 71.723 2.68926C72.6708 1.205 74.3202 0.561849 75.4036 1.25369Z" fill="#601897"/>
<path fill-rule="evenodd" clip-rule="evenodd" d="M29.4175 14.6212C29.9936 13.4726 32.1249 13.3736 34.1735 14.4011C36.2228 15.429 39.8838 21.1548 39.8838 21.1548C39.8838 21.1548 34.1343 19.5929 32.085 18.5651C30.0364 17.5376 28.8412 15.7702 29.4175 14.6212Z" fill="#F28BBA"/>
<path fill-rule="evenodd" clip-rule="evenodd" d="M63.4578 66.4452C61.7303 68.7568 58.8364 69.5209 57.0005 68.1489C55.1641 66.7765 55.1606 57.0264 55.1606 57.0264C55.1606 57.0264 61.4267 58.3965 63.2632 59.7689C65.099 61.1409 65.186 64.1327 63.4578 66.4452Z" fill="#601897"/>
<path fill-rule="evenodd" clip-rule="evenodd" d="M89.4953 58.3877C89.1677 60.5549 87.7348 61.7384 85.4687 61.3959C83.2018 61.0533 77.036 55.3615 77.036 55.3615C77.036 55.3615 83.4473 54.3707 85.7135 54.7132C86.6659 54.8571 87.7646 54.4255 88.3823 55.0521C89.2359 55.9164 89.6853 57.1302 89.4953 58.3877Z" fill="#601897"/>
<path fill-rule="evenodd" clip-rule="evenodd" d="M68.9992 68.3382C67.7479 69.1558 66.1509 68.9319 65.4362 67.838C64.7211 66.7437 66.2857 61.7441 66.2857 61.7441C66.2857 61.7441 69.2576 63.7796 69.9726 64.8739C70.6874 65.9678 70.2511 67.5202 68.9992 68.3382Z" fill="#F28BBA"/>
<path fill-rule="evenodd" clip-rule="evenodd" d="M1.62706 15.9677C2.20316 14.8191 4.47086 14.4481 6.6876 15.1405C8.90502 15.8331 12.9943 20.705 12.9943 20.705C12.9943 20.705 6.81653 19.9971 4.59911 19.3044C2.38237 18.6121 1.05074 17.1168 1.62706 15.9677Z" fill="#601897"/>
<path fill-rule="evenodd" clip-rule="evenodd" d="M1.49153 35.4651C2.3143 33.8246 6.07198 32.8135 9.87713 33.2096C13.6835 33.6059 21.1524 39.0536 21.1524 39.0536C21.1524 39.0536 10.7007 39.5528 6.89439 39.1566C3.08924 38.7604 0.668438 37.1061 1.49153 35.4651Z" fill="#CEFF32"/>
<path fill-rule="evenodd" clip-rule="evenodd" d="M18.9876 32.9244C19.5637 31.7758 22.3114 31.4063 25.1193 32.1006C27.9282 32.7951 33.5238 37.6718 33.5238 37.6718C33.5238 37.6718 25.8397 36.959 23.0309 36.2645C20.2229 35.5702 18.4113 34.0734 18.9876 32.9244Z" fill="#F28BBA"/>
<path fill-rule="evenodd" clip-rule="evenodd" d="M8.82692 43.8794C9.64969 42.239 12.9922 40.6286 16.2861 40.2865C19.5809 39.9444 25.7471 43.5114 25.7471 43.5114C25.7471 43.5114 16.5982 45.8913 13.3033 46.2334C10.0095 46.5755 8.00383 45.5204 8.82692 43.8794Z" fill="#FBA51E"/>
<path fill-rule="evenodd" clip-rule="evenodd" d="M52.7971 44.4716C52.7971 44.4716 48.6629 39.1432 47.2416 41.2689C45.8204 43.3954 46.5097 45.9789 52.7971 44.4716Z" fill="#F5EA03"/>
<path fill-rule="evenodd" clip-rule="evenodd" d="M54.3408 44.3644C54.3408 44.3644 54.425 40.2535 52.9682 40.8316C51.5111 41.41 50.8606 42.9483 54.3408 44.3644Z" fill="#F5EA03"/>
<path fill-rule="evenodd" clip-rule="evenodd" d="M55.7786 44.7571C55.7786 44.7571 57.2957 42.36 56.2055 42.3223C55.1151 42.2847 54.1717 43.0212 55.7786 44.7571Z" fill="#F5EA03"/>
<path fill-rule="evenodd" clip-rule="evenodd" d="M56.1254 41.2692C56.1254 41.2692 54.5158 35.2634 53.5381 35.7471C52.5602 36.2311 53.8875 40.5027 56.1254 41.2692Z" fill="#F5EA03"/>
<path fill-rule="evenodd" clip-rule="evenodd" d="M57.5641 43.4784C57.5641 43.4784 61.0092 36.6117 58.4144 35.426C55.8191 34.2406 53.6259 35.8887 57.5641 43.4784Z" fill="#F5EA03"/>
<path fill-rule="evenodd" clip-rule="evenodd" d="M59.1029 43.5393C59.1029 43.5393 65.6593 39.535 64.0848 37.1561C62.5095 34.777 59.7765 35.0152 59.1029 43.5393Z" fill="#F5EA03"/>
<path fill-rule="evenodd" clip-rule="evenodd" d="M113.996 22.1095C114.37 23.339 112.667 24.9477 110.196 25.699C107.724 26.4505 100.416 25.0381 100.416 25.0381C100.416 25.0381 106.369 21.9935 108.841 21.242C111.313 20.4907 113.623 20.8796 113.996 22.1095Z" fill="#F28BBA"/>
<path fill-rule="evenodd" clip-rule="evenodd" d="M21.2899 42.669C21.2899 42.669 49.9329 39.873 53.477 42.9587C57.0211 46.0445 29.137 25.4395 21.2899 42.669Z" fill="#99C83F"/>
<path fill-rule="evenodd" clip-rule="evenodd" d="M99.7544 29.4796C99.9626 30.1644 98.6632 31.1672 96.8544 31.7171C95.0451 32.2671 89.8732 31.815 89.8732 31.815C89.8732 31.815 94.2903 29.7843 96.0997 29.2343C97.9085 28.6844 99.5461 28.7944 99.7544 29.4796Z" fill="#F28BBA"/>
<path fill-rule="evenodd" clip-rule="evenodd" d="M50.1668 27.1889C50.7889 26.8348 52.0536 27.881 52.9888 29.524C53.9242 31.1675 54.6238 36.3118 54.6238 36.3118C54.6238 36.3118 51.669 32.4512 50.7335 30.8077C49.7983 29.1647 49.5445 27.5431 50.1668 27.1889Z" fill="#F28BBA"/>
<path fill-rule="evenodd" clip-rule="evenodd" d="M46.0623 25.2376C46.6844 24.8835 47.9491 25.9297 48.8843 27.5727C49.8197 29.2162 50.5193 34.3605 50.5193 34.3605C50.5193 34.3605 47.5645 30.4999 46.629 28.8564C45.6938 27.2134 45.44 25.5918 46.0623 25.2376Z" fill="#F28BBA"/>
<path fill-rule="evenodd" clip-rule="evenodd" d="M90.2743 28.6051C90.0661 29.2899 91.1036 29.82 92.5897 29.7876C94.0764 29.7552 98.4263 27.8196 98.4263 27.8196C98.4263 27.8196 94.8311 27.2724 93.3445 27.3048C91.8583 27.3372 90.4826 27.9199 90.2743 28.6051Z" fill="#F28BBA"/>
<path fill-rule="evenodd" clip-rule="evenodd" d="M97.5862 32.3248C97.5862 32.3248 102.788 31.6355 106.13 30.0849C109.472 28.5348 109.472 28.5508 109.472 28.5508C109.472 28.5508 101.134 29.2585 97.5862 32.3248Z" fill="#FBAB18"/>
<path fill-rule="evenodd" clip-rule="evenodd" d="M60.405 41.2691C60.405 41.2691 64.5003 37.9969 70.3663 34.7668C76.2316 31.5374 77.0388 27.4618 71.9252 27.4535C66.811 27.4458 60.7819 33.1294 60.405 41.2691Z" fill="#F26722"/>
<path fill-rule="evenodd" clip-rule="evenodd" d="M41.679 10.8906C41.679 10.8906 49.6387 12.8543 52.9439 18.8533C56.2494 24.8529 53.6567 32.6305 53.6567 32.6305C53.6567 32.6305 45.697 30.6668 42.3915 24.6672C39.0863 18.6682 41.679 10.8906 41.679 10.8906Z" fill="#94C93B"/>
<path fill-rule="evenodd" clip-rule="evenodd" d="M59.7056 42.5723C59.7056 42.5723 84.1449 36.705 90.0663 32.7213C95.9878 28.7376 101.586 21.9012 91.1968 21.0398C80.8071 20.179 78.066 22.2244 70.3663 30.9449C62.666 39.6654 62.7202 40.9572 59.7056 42.5723Z" fill="#FBAB18"/>
<path fill-rule="evenodd" clip-rule="evenodd" d="M58.2577 43.8775C58.2577 43.8775 34.1712 39.1758 28.3352 35.3553C22.4993 31.5349 16.6451 23.7007 26.8849 22.1885C37.124 20.6757 40.1623 23.6643 47.7509 32.337C55.34 41.0097 55.2866 42.3647 58.2577 43.8775Z" fill="#ED6324"/>
<path fill-rule="evenodd" clip-rule="evenodd" d="M56.8982 41.2691C56.8982 41.2691 65.6454 12.3091 69.0101 9.02927C72.3747 5.7488 50.0854 21.3605 56.8982 41.2691Z" fill="#F68B23"/>
<path fill-rule="evenodd" clip-rule="evenodd" d="M61.9687 41.2687C61.9687 41.2687 89.092 27.8703 93.7858 28.0864C98.48 28.302 71.8517 22.6921 61.9687 41.2687Z" fill="#EF5225"/>
<path fill-rule="evenodd" clip-rule="evenodd" d="M70.7972 40.8242C70.7972 40.8242 100.951 38.3854 105.233 40.319C109.516 42.2524 86.84 27.2083 70.7972 40.8242Z" fill="#EF5225"/>
<path fill-rule="evenodd" clip-rule="evenodd" d="M58.1774 36.4325C58.1774 36.4325 59.3289 30.1241 64.3755 26.8436C69.4222 23.5631 70.0655 17.8438 62.8045 20.0308C55.5441 22.2178 55.9324 33.6564 58.1774 36.4325Z" fill="#ED6324"/>
<path fill-rule="evenodd" clip-rule="evenodd" d="M94.4172 12.4066C94.4172 12.4066 93.091 15.4724 90.2529 16.9787C87.4145 18.4852 84.1321 17.8654 84.1321 17.8654C84.1321 17.8654 85.4583 14.7995 88.2967 13.293C91.1348 11.7867 94.4172 12.4066 94.4172 12.4066Z" fill="#94C93B"/>
<path fill-rule="evenodd" clip-rule="evenodd" d="M20.2747 30.6821C20.2747 30.6821 17.0556 31.5741 14.1015 30.3103C11.1472 29.0463 9.56938 26.102 9.56938 26.102C9.56938 26.102 12.7885 25.21 15.7428 26.4739C18.6969 27.7378 20.2747 30.6821 20.2747 30.6821Z" fill="#94C93B"/>
<path fill-rule="evenodd" clip-rule="evenodd" d="M103.632 34.5026C103.632 34.5026 94.3361 40.0442 82.433 42.4313C70.5286 44.8187 60.4958 43.1533 60.4958 43.1533C60.4958 43.1533 69.7918 37.6116 81.6961 35.2243C93.5993 32.8372 103.632 34.5026 103.632 34.5026Z" fill="#94C93B"/>
<path fill-rule="evenodd" clip-rule="evenodd" d="M56.8369 57.39C56.8369 57.39 56.3898 63.3322 52.3603 67.8576C48.3304 72.3835 42.2343 73.79 42.2343 73.79C42.2343 73.79 42.6813 67.8478 46.7112 63.3219C50.7407 58.7965 56.8369 57.39 56.8369 57.39Z" fill="#94C93B"/>
<path fill-rule="evenodd" clip-rule="evenodd" d="M51.4877 57.9097C51.4877 57.9097 47.2543 64.0258 39.6364 67.2385C32.0177 70.4514 23.881 69.5522 23.881 69.5522C23.881 69.5522 28.1144 63.436 35.733 60.223C43.3509 57.0104 51.4877 57.9097 51.4877 57.9097Z" fill="#94C93B"/>
<path fill-rule="evenodd" clip-rule="evenodd" d="M27.2798 63.1795C27.2798 63.1795 24.8174 65.0669 21.2811 65.7321C17.7445 66.3973 14.4645 65.59 14.4645 65.59C14.4645 65.59 16.9269 63.7026 20.4635 63.0374C23.9998 62.3722 27.2798 63.1795 27.2798 63.1795Z" fill="#94C93B"/>
<path fill-rule="evenodd" clip-rule="evenodd" d="M55.8378 68.6397C55.8378 68.6397 58.6966 70.3822 58.6235 72.8114C58.5504 75.2408 55.5729 77.4428 55.5729 77.4428C55.5729 77.4428 52.7141 75.7003 52.7872 73.2709C52.8603 70.8417 55.8378 68.6397 55.8378 68.6397Z" fill="#94C93B"/>
<path fill-rule="evenodd" clip-rule="evenodd" d="M71.685 65.4752C71.685 65.4752 75.6841 65.423 78.3062 68.1321C80.9285 70.8415 81.1871 75.2929 81.1871 75.2929C81.1871 75.2929 77.188 75.3452 74.5657 72.6358C71.9437 69.9266 71.685 65.4752 71.685 65.4752Z" fill="#94C93B"/>
<path fill-rule="evenodd" clip-rule="evenodd" d="M90.2791 56.7708C90.2791 56.7708 93.0062 55.3388 96.5482 55.3618C100.091 55.3848 103.115 56.8542 103.115 56.8542C103.115 56.8542 100.388 58.2863 96.8456 58.2632C93.3036 58.2402 90.2791 56.7708 90.2791 56.7708Z" fill="#94C93B"/>
<path fill-rule="evenodd" clip-rule="evenodd" d="M67.1815 56.4964C67.1815 56.4964 67.2612 56.1241 69.4036 56.078C70.0228 56.0647 70.6295 55.3391 71.685 55.5713C73.8286 56.0429 76.139 56.7595 78.3238 57.8456C85.3071 61.3173 88.3817 67.2599 88.3817 67.2599C88.3817 67.2599 80.1177 67.5655 73.1344 64.0938C68.6616 61.8702 65.7919 58.6326 64.3071 56.5921C63.4738 55.4474 67.1815 56.4964 67.1815 56.4964Z" fill="#94C93B"/>
<path fill-rule="evenodd" clip-rule="evenodd" d="M13.9517 62.9283C13.9517 62.9283 29.8994 57.4105 63.0726 55.594C90.4035 54.0969 101.697 53.5753 101.697 53.5753C101.697 53.5753 63.7797 57.0738 56.1253 57.8817C48.4709 58.6889 16.307 62.5917 13.9517 62.9283Z" fill="#F8841D"/>
<path fill-rule="evenodd" clip-rule="evenodd" d="M35.1569 35.2495C35.1053 35.2349 35.0753 35.1813 35.09 35.1297C35.1046 35.078 35.1582 35.0487 35.2098 35.0633C35.2098 35.0633 36.6298 35.4676 38.2282 35.5894C39.2848 35.6697 40.4197 35.6283 41.2677 35.2572C41.3168 35.2355 41.3742 35.2585 41.3952 35.3069C41.4169 35.356 41.3946 35.4134 41.3455 35.4351C40.4713 35.8176 39.302 35.8661 38.2136 35.7832C36.5947 35.6595 35.1569 35.2495 35.1569 35.2495Z" fill="white"/>
<path fill-rule="evenodd" clip-rule="evenodd" d="M48.9719 36.7631C48.9369 36.7229 48.9407 36.6617 48.9809 36.6267C49.021 36.591 49.0823 36.5948 49.118 36.635C49.118 36.635 50.1687 37.8305 50.8191 39.2408C51.2603 40.1985 51.5128 41.255 51.1532 42.1126C51.1321 42.1617 51.0754 42.1847 51.0263 42.1642C50.9766 42.1438 50.9536 42.0865 50.974 42.0374C51.3145 41.2257 51.0607 40.2285 50.6425 39.3218C50.0042 37.9369 48.9719 36.7631 48.9719 36.7631Z" fill="white"/>
<path fill-rule="evenodd" clip-rule="evenodd" d="M43.6555 32.9191C43.6205 32.8789 43.6256 32.8171 43.6658 32.7826C43.7066 32.7476 43.7678 32.7527 43.8028 32.7935C43.8028 32.7935 45.1648 34.3887 45.8196 35.9509C46.1078 36.6376 46.2563 37.3185 46.1103 37.8611C46.0963 37.9128 46.0434 37.9434 45.9917 37.9294C45.9401 37.9153 45.9095 37.8624 45.9229 37.8108C46.1065 37.1298 45.7788 36.2206 45.3292 35.3726C44.6413 34.0738 43.6555 32.9191 43.6555 32.9191Z" fill="white"/>
<path fill-rule="evenodd" clip-rule="evenodd" d="M37.7917 29.6092C37.7643 29.5633 37.7789 29.5034 37.8248 29.476C37.8708 29.4485 37.9307 29.4632 37.9581 29.5091C37.9581 29.5091 38.9202 31.1082 39.3819 32.5537C39.5846 33.1881 39.6886 33.7944 39.584 34.2299C39.5719 34.2822 39.5196 34.3141 39.4673 34.302C39.4157 34.2892 39.3831 34.2369 39.3959 34.1853C39.4934 33.776 39.3876 33.2078 39.197 32.6123C38.7417 31.1866 37.7917 29.6092 37.7917 29.6092Z" fill="white"/>
<path fill-rule="evenodd" clip-rule="evenodd" d="M53.9976 44.8543C53.119 45.2598 46.0212 46.7544 37.9778 43.9693C29.9293 41.1824 27.8354 37.4199 26.6176 34.9173C26.2255 34.1113 26.0807 32.657 26.1145 31.0942C26.1656 28.758 26.6131 26.1802 27.194 25.1734C27.3566 24.891 27.5377 24.7277 27.7156 24.6978C27.8469 24.6755 27.9827 24.7175 28.1172 24.8457C28.2722 24.993 28.533 25.1288 28.8849 25.2678C29.4333 25.4839 30.199 25.7014 31.144 25.9564C34.8414 26.9555 41.2666 28.5247 48.154 32.7628C52.1116 35.1978 53.8426 37.6099 54.5 39.6228C55.4947 42.6705 54.0371 44.8205 54.0371 44.8205C54.0276 44.8352 54.0135 44.8473 53.9976 44.8543ZM53.8911 44.6898C54.0378 44.4571 55.2192 42.4525 54.3151 39.6827C53.6679 37.6985 51.9534 35.3285 48.0519 32.928C41.1856 28.7026 34.7796 27.1398 31.0936 26.1439C30.1397 25.8863 29.367 25.6663 28.8142 25.4482C28.4316 25.2978 28.1523 25.146 27.984 24.9866C27.919 24.9248 27.8565 24.8903 27.7927 24.8865C27.7194 24.882 27.6486 24.919 27.5785 24.9834C27.4918 25.0625 27.4082 25.1811 27.3273 25.3322C27.2227 25.5273 27.1232 25.7747 27.0301 26.0629C26.5876 27.4293 26.2899 29.6979 26.3039 31.6687C26.3135 32.9719 26.4576 34.1445 26.7923 34.8325C27.9974 37.3096 30.0747 41.0274 38.0416 43.7863C45.9395 46.521 52.9168 45.1068 53.8911 44.6898Z" fill="white"/>
<path fill-rule="evenodd" clip-rule="evenodd" d="M38.6638 38.5038C38.6141 38.4828 38.5918 38.4254 38.6128 38.3763C38.6339 38.3272 38.6913 38.3043 38.7403 38.3259C38.7403 38.3259 42.2803 39.8511 45.2554 40.3975C46.5121 40.6283 47.6668 40.6883 48.4007 40.3707C48.4498 40.3497 48.5071 40.3726 48.5282 40.4217C48.5492 40.4708 48.5269 40.5276 48.4778 40.5493C47.7178 40.8776 46.5223 40.8273 45.2203 40.5881C42.2261 40.0379 38.6638 38.5038 38.6638 38.5038Z" fill="white"/>
<path fill-rule="evenodd" clip-rule="evenodd" d="M53.6035 44.1842C53.6207 44.1549 53.6519 44.1357 53.6876 44.1357C53.7412 44.1357 53.7845 44.1791 53.6876 44.3296L53.5907 44.2327C53.5888 44.3181 53.6876 44.3296 53.6876 44.3296L53.7845 44.2333C53.7845 44.2333 53.7845 44.2378 53.7839 44.2441C53.782 44.262 53.7737 44.3136 53.7201 44.35C53.6895 44.3717 53.6341 44.394 53.5321 44.3704C53.328 44.3232 52.8128 44.0395 51.537 42.8867C49.452 41.0038 33.716 30.3794 33.716 30.3794C33.6713 30.3495 33.6599 30.2895 33.6898 30.2449C33.7198 30.2009 33.7804 30.1888 33.8244 30.2188C33.8244 30.2188 49.5795 40.8578 51.6671 42.7432C52.6961 43.6728 53.2101 44.0248 53.467 44.1421C53.5244 44.1683 53.5786 44.1797 53.6035 44.1842Z" fill="white"/>
<path d="M38.8848 71.002C38.8848 71.002 42.0624 67.9372 42.3465 65.44" stroke="white" stroke-width="0.984438" stroke-miterlimit="1.5" stroke-linecap="round" stroke-linejoin="round"/>
<path fill-rule="evenodd" clip-rule="evenodd" d="M47.7706 59.1044C47.718 59.1149 47.6666 59.0812 47.6562 59.0286C47.6457 58.976 47.68 58.925 47.7326 58.9145C47.7326 58.9145 49.4011 58.5836 51.0537 58.7393C52.1747 58.8451 53.2847 59.1779 53.8843 59.9689C53.9162 60.0118 53.9078 60.0724 53.8652 60.1051C53.8228 60.1373 53.7617 60.1286 53.7295 60.0863C53.1607 59.3345 52.0998 59.0326 51.0352 58.9328C49.4103 58.7797 47.7706 59.1044 47.7706 59.1044Z" fill="white"/>
<path fill-rule="evenodd" clip-rule="evenodd" d="M41.3619 61.9589C41.309 61.9685 41.2584 61.9335 41.2488 61.8807C41.2389 61.8285 41.2745 61.7781 41.3267 61.7682C41.3267 61.7682 43.5325 61.3645 45.3278 61.5975C46.1152 61.6997 46.8239 61.9265 47.2465 62.3514C47.2842 62.3898 47.284 62.4512 47.2456 62.4889C47.2082 62.5262 47.1468 62.5261 47.1088 62.4883C46.5769 61.9526 45.5583 61.7667 44.5307 61.7269C42.9592 61.6664 41.3619 61.9589 41.3619 61.9589Z" fill="white"/>
<path fill-rule="evenodd" clip-rule="evenodd" d="M35.1545 65.6053C35.1009 65.6066 35.0566 65.5635 35.0559 65.5103C35.055 65.4561 35.0977 65.4124 35.1513 65.4111C35.1513 65.4111 37.1457 65.3797 38.7298 65.7282C39.4238 65.8811 40.0393 66.1097 40.3857 66.4393C40.4243 66.4759 40.4263 66.5377 40.3887 66.5766C40.3521 66.6153 40.2906 66.6166 40.252 66.58C39.9255 66.2692 39.342 66.0615 38.6878 65.9175C37.1239 65.5736 35.1545 65.6053 35.1545 65.6053Z" fill="white"/>
<path fill-rule="evenodd" clip-rule="evenodd" d="M57.9457 58.8051C57.8492 59.8354 55.4229 67.1995 48.5317 73.1425C41.6366 79.088 37.0341 79.006 34.0674 78.7892C33.1119 78.7188 31.6903 78.0727 30.2642 77.2034C28.1317 75.9037 25.9889 74.1069 25.3698 73.0302C25.1978 72.7302 25.1436 72.4772 25.2103 72.2984C25.2601 72.1664 25.3703 72.0648 25.5586 72.0093C25.7785 71.9454 26.0447 71.7775 26.3628 71.5254C26.857 71.1342 27.4694 70.5421 28.2134 69.8048C31.121 66.9215 36.0201 61.8224 43.6355 57.7272C48.0104 55.3746 51.1682 55.0676 53.3818 55.5402C56.7312 56.2549 57.9367 58.7541 57.9367 58.7541C57.9443 58.7696 57.9471 58.7878 57.9457 58.8051ZM57.7502 58.8146C57.6175 58.5611 56.3979 56.3824 53.3413 55.7296C51.1575 55.264 48.0436 55.5767 43.7272 57.8979C36.1336 61.9812 31.2491 67.0676 28.3493 69.9428C27.5995 70.6861 26.9816 71.2822 26.4835 71.6774C26.14 71.9487 25.8504 72.1259 25.6135 72.1958C25.5075 72.2264 25.4364 72.2743 25.4011 72.3445C25.3435 72.46 25.3799 72.6175 25.4724 72.8099C25.5909 73.0553 25.8065 73.3467 26.0936 73.667C27.1204 74.81 29.0594 76.3033 30.8903 77.3484C32.102 78.0397 33.2653 78.5359 34.0813 78.5955C37.0197 78.8108 41.5757 78.8848 48.4049 72.9956C55.1795 67.1529 57.6153 59.9329 57.7502 58.8146Z" fill="white"/>
<path fill-rule="evenodd" clip-rule="evenodd" d="M43.8448 69.5745C43.8019 69.6064 43.7411 69.5971 43.7092 69.5542C43.6774 69.5113 43.6867 69.4504 43.7296 69.4186C43.7296 69.4186 47.0404 66.9625 49.1438 64.5033C50.0331 63.464 50.7083 62.4267 50.8083 61.5766C50.8147 61.5235 50.8629 61.4853 50.9165 61.492C50.9696 61.4983 51.0072 61.5462 51.0009 61.5993C50.897 62.4778 50.2095 63.5553 49.2912 64.6298C47.1756 67.1032 43.8448 69.5745 43.8448 69.5745Z" fill="white"/>
<path fill-rule="evenodd" clip-rule="evenodd" d="M57.1297 58.8107C57.1104 58.7814 57.108 58.7422 57.1268 58.7097C57.1477 58.6738 57.1885 58.6564 57.2042 58.7475C57.2067 58.693 57.2206 58.6459 57.2694 58.6813C57.2841 58.6914 57.3256 58.7258 57.3307 58.7918C57.3335 58.8304 57.325 58.8925 57.2508 58.9716C57.0976 59.135 56.559 59.4586 54.8099 60.0194C51.9498 60.9367 33.6769 69.7888 33.6769 69.7888C33.6283 69.8127 33.5706 69.7926 33.5473 69.7444C33.5241 69.6962 33.5445 69.6379 33.5921 69.6143C33.5921 69.6143 51.8867 60.7534 54.7509 59.8346C56.1649 59.3812 56.7662 59.0948 57.0129 58.9196C57.0708 58.8783 57.1126 58.8307 57.1297 58.8107ZM57.2109 58.8555L57.1626 58.8424C57.1596 58.8407 57.1567 58.839 57.1541 58.8367C57.1804 58.8606 57.2109 58.8555 57.2109 58.8555Z" fill="white"/>
<path fill-rule="evenodd" clip-rule="evenodd" d="M78.324 58.5671C78.3776 58.5681 78.4203 58.612 78.4197 58.6654C78.4187 58.7189 78.3749 58.7617 78.3215 58.7611C78.3215 58.7611 77.3644 58.7477 76.3439 58.9418C75.6727 59.0694 74.9726 59.2856 74.507 59.6591C74.4654 59.6927 74.4043 59.686 74.3706 59.644C74.3371 59.6024 74.3437 59.5413 74.3854 59.5077C74.8733 59.1165 75.6044 58.8851 76.3075 58.7515C77.348 58.5537 78.324 58.5671 78.324 58.5671Z" fill="white"/>
<path fill-rule="evenodd" clip-rule="evenodd" d="M69.4122 59.9655C69.4567 59.9952 69.469 60.055 69.4395 60.0999C69.4098 60.1444 69.3495 60.1564 69.3051 60.1272C69.3051 60.1272 68.4385 59.5521 67.7878 58.7731C67.342 58.2389 67.0022 57.6087 67.0836 57.0009C67.0908 56.9478 67.1396 56.9106 67.1926 56.9178C67.2456 56.9245 67.2829 56.9737 67.2757 57.0267C67.2011 57.5851 67.5273 58.1584 67.9368 58.6486C68.5692 59.4064 69.4122 59.9655 69.4122 59.9655Z" fill="white"/>
<path fill-rule="evenodd" clip-rule="evenodd" d="M73.4026 61.4775C73.4464 61.5078 73.4579 61.5678 73.4277 61.612C73.3976 61.6562 73.337 61.6674 73.2928 61.6373C73.2928 61.6373 72.1625 60.8633 71.4833 59.9897C71.1811 59.6011 70.9703 59.1911 70.97 58.8193C70.9697 58.7657 71.0134 58.7225 71.0666 58.7223C71.1203 58.7224 71.1638 58.7656 71.1637 58.8194C71.1641 59.2707 71.5214 59.7763 71.9409 60.226C72.5906 60.922 73.4026 61.4775 73.4026 61.4775Z" fill="white"/>
<path fill-rule="evenodd" clip-rule="evenodd" d="M77.6492 62.5646C77.6876 62.6019 77.6886 62.6631 77.6518 62.7018C77.6145 62.7402 77.5535 62.7417 77.5147 62.7045C77.5147 62.7045 76.6361 61.8607 76.0995 61.0286C75.8608 60.6584 75.6914 60.2888 75.6828 59.9931C75.6812 59.9394 75.7232 59.8946 75.7769 59.8929C75.8301 59.8914 75.8751 59.9338 75.8766 59.9871C75.8843 60.2556 76.0461 60.5877 76.2627 60.9235C76.7882 61.7385 77.6492 62.5646 77.6492 62.5646Z" fill="white"/>
<path fill-rule="evenodd" clip-rule="evenodd" d="M64.8446 55.7402C65.3284 55.3355 69.5405 53.1859 75.0761 53.5714C80.6164 53.957 82.5744 55.9712 83.766 57.3394C84.1514 57.7816 84.4924 58.6752 84.7379 59.6685C85.1037 61.1498 85.2588 62.8516 85.0641 63.5854C85.0064 63.8029 84.9118 63.9423 84.7987 63.9943C84.7116 64.0345 84.6089 64.0326 84.4907 63.9688C84.3714 63.9039 84.189 63.8647 83.9498 63.8379C83.5698 63.7953 83.0535 63.7888 82.4188 63.7889C79.9259 63.7888 75.6225 63.8929 70.5761 62.399C67.6669 61.5381 66.1665 60.3113 65.4098 59.1541C64.2584 57.3941 64.8149 55.7831 64.8149 55.7831C64.8207 55.7664 64.8308 55.7513 64.8446 55.7402ZM64.9904 55.8714L64.9901 55.8719C64.9285 56.0796 64.561 57.5031 65.5719 59.0481C66.3121 60.1796 67.7858 61.3707 70.6312 62.2131C75.6542 63.7001 79.9374 63.5945 82.4187 63.5947C83.0626 63.5948 83.5863 63.6019 83.9713 63.6452C84.2423 63.6755 84.4476 63.7249 84.583 63.7983C84.6316 63.8242 84.6731 63.8345 84.7099 63.8215C84.7498 63.8069 84.7805 63.7694 84.8086 63.7176C84.8407 63.6586 84.8666 63.5825 84.8876 63.4918C84.9198 63.3534 84.9399 63.183 84.9497 62.9888C84.9953 62.0587 84.7978 60.5882 84.4558 59.3572C84.2303 58.5463 83.9444 57.8392 83.6201 57.4668C82.4467 56.1199 80.5164 54.1446 75.0626 53.7645C69.6781 53.3897 65.5604 55.4327 64.9904 55.8714Z" fill="white"/>
<path fill-rule="evenodd" clip-rule="evenodd" d="M75.575 57.1192C75.6278 57.1269 75.6647 57.1761 75.6571 57.2289C75.6495 57.282 75.6002 57.319 75.5475 57.3113C75.5475 57.3113 73.0703 56.9544 71.1132 57.1154C70.293 57.1827 69.5644 57.3379 69.1614 57.6585C69.1197 57.6916 69.0585 57.6845 69.0253 57.6428C68.992 57.6007 68.9988 57.54 69.0408 57.5063C69.4662 57.1681 70.2316 56.9936 71.0971 56.9221C73.074 56.7597 75.575 57.1192 75.575 57.1192Z" fill="white"/>
<path fill-rule="evenodd" clip-rule="evenodd" d="M65.2512 56.1509C65.2388 56.1732 65.2181 56.1904 65.1917 56.1975C65.1492 56.209 65.106 56.1906 65.135 56.1944C65.1103 56.1856 65.0782 56.1655 65.0702 56.1182C65.0678 56.103 65.0631 56.057 65.1003 56.0135C65.1196 55.9911 65.1563 55.9601 65.2392 55.957C65.377 55.952 65.7533 56.0411 66.7602 56.5538C68.388 57.382 80.065 61.382 80.065 61.382C80.1156 61.3993 80.1426 61.4547 80.1254 61.5053C80.1077 61.5561 80.0527 61.5829 80.002 61.5653C80.002 61.5653 68.3028 57.5566 66.6724 56.7266C65.9982 56.3834 65.6208 56.2345 65.4102 56.178C65.3473 56.1615 65.3013 56.1533 65.2667 56.1511C65.2615 56.1508 65.256 56.151 65.2512 56.1509Z" fill="white"/>
<path fill-rule="evenodd" clip-rule="evenodd" d="M98.3931 18.5648C98.4302 18.526 98.4916 18.5245 98.5304 18.5616C98.5692 18.5987 98.5701 18.6598 98.5331 18.6986C98.5331 18.6986 97.5124 19.7653 96.6581 21.1218C96.0936 22.0185 95.6001 23.0414 95.5322 23.9645C95.5284 24.0181 95.4813 24.0581 95.4286 24.0541C95.3751 24.0503 95.3348 24.0038 95.3385 23.9502C95.4086 22.9986 95.9119 21.942 96.4936 21.0183C97.3591 19.6447 98.3931 18.5648 98.3931 18.5648Z" fill="white"/>
<path fill-rule="evenodd" clip-rule="evenodd" d="M90.6021 30.0732C90.654 30.061 90.7064 30.0929 90.7186 30.1448C90.7314 30.197 90.6994 30.2494 90.6472 30.2622C90.6472 30.2622 89.0994 30.6329 87.5485 30.5492C86.4956 30.492 85.4435 30.2218 84.8532 29.5033C84.8196 29.4617 84.8258 29.4008 84.8668 29.367C84.9081 29.3325 84.9695 29.339 85.0034 29.38C85.5621 30.0602 86.5624 30.3016 87.5594 30.3552C89.0821 30.4377 90.6021 30.0732 90.6021 30.0732Z" fill="white"/>
<path fill-rule="evenodd" clip-rule="evenodd" d="M96.4843 27.1679C96.5362 27.1556 96.5884 27.189 96.6001 27.2406C96.6121 27.2931 96.579 27.3448 96.5265 27.3568C96.5265 27.3568 94.4798 27.8159 92.7927 27.6652C92.0509 27.5993 91.3794 27.4126 90.9678 27.0301C90.9287 26.9936 90.9264 26.9325 90.9629 26.8934C90.9994 26.8542 91.0605 26.8519 91.0999 26.8879C91.6163 27.3683 92.5733 27.5032 93.5331 27.5018C95.0028 27.5001 96.4843 27.1679 96.4843 27.1679Z" fill="white"/>
<path d="M102.155 23.6262C102.155 23.6262 98.3778 23.8373 97.2905 22.8829" stroke="white" stroke-width="0.986367" stroke-miterlimit="1.5" stroke-linecap="round" stroke-linejoin="round"/>
<path fill-rule="evenodd" clip-rule="evenodd" d="M81.1005 30.7377C81.1523 29.7714 83.146 22.7973 89.3655 16.9861C95.589 11.1712 99.8938 11.0771 102.675 11.1692C103.571 11.1989 104.925 11.7503 106.291 12.5101C108.333 13.6463 110.403 15.2462 111.022 16.23C111.196 16.5057 111.256 16.742 111.199 16.9133C111.157 17.0399 111.057 17.1403 110.881 17.1994C110.678 17.2676 110.436 17.4348 110.149 17.6811C109.701 18.065 109.152 18.6405 108.485 19.3569C105.874 22.1596 101.486 27.1079 94.5214 31.2183C90.5198 33.5804 87.5785 33.9844 85.4916 33.6255C82.3322 33.0814 81.1119 30.7884 81.1119 30.7884C81.1034 30.7731 81.0992 30.7551 81.1005 30.7377ZM81.2957 30.7204C81.4329 30.9588 82.6536 32.9398 85.525 33.434C87.5817 33.7885 90.4781 33.3795 94.423 31.051C101.366 26.9532 105.74 22.0188 108.342 19.2248C109.016 18.5017 109.571 17.9212 110.022 17.5342C110.334 17.2662 110.599 17.0902 110.818 17.0158C110.903 16.9872 110.963 16.948 110.996 16.8934C111.034 16.8306 111.035 16.7508 111.01 16.6587C110.981 16.5451 110.915 16.4159 110.819 16.2737C110.696 16.0901 110.523 15.8866 110.312 15.6697C109.311 14.6402 107.444 13.3173 105.694 12.4092C104.538 11.8089 103.434 11.3887 102.669 11.3633C99.9157 11.2719 95.6581 11.3721 89.4975 17.1279C83.3905 22.8342 81.382 29.6642 81.2957 30.7204Z" fill="white"/>
<path fill-rule="evenodd" clip-rule="evenodd" d="M93.8778 20.1455C93.9196 20.1114 93.9808 20.1185 94.0144 20.16C94.0479 20.2015 94.0414 20.263 93.9993 20.2963C93.9993 20.2963 90.9973 22.714 89.1246 25.0894C88.3335 26.0928 87.7412 27.0858 87.6792 27.883C87.6749 27.9363 87.6278 27.9763 87.5745 27.972C87.5213 27.9676 87.4815 27.9214 87.4853 27.8679C87.5499 27.0425 88.1529 26.0089 88.9724 24.9694C90.8575 22.5788 93.8778 20.1455 93.8778 20.1455Z" fill="white"/>
<path fill-rule="evenodd" clip-rule="evenodd" d="M81.877 30.7022C81.8949 30.7311 81.8973 30.7677 81.8806 30.7993C81.8556 30.8466 81.797 30.8647 81.7947 30.8512C81.7947 30.8512 81.7735 30.8545 81.744 30.8367C81.733 30.8302 81.6739 30.7932 81.675 30.7079C81.6749 30.6726 81.6869 30.6198 81.7458 30.5521C81.8828 30.3937 82.3743 30.0707 83.9895 29.481C86.6282 28.5169 103.372 19.5652 103.372 19.5652C103.42 19.5397 103.478 19.5576 103.504 19.6049C103.528 19.652 103.511 19.7112 103.464 19.7361C103.464 19.7361 86.6978 28.6979 84.0556 29.663C82.753 30.1388 82.2017 30.4288 81.978 30.6012C81.9281 30.6397 81.8926 30.6823 81.877 30.7022Z" fill="white"/>
<path fill-rule="evenodd" clip-rule="evenodd" d="M49.4642 20.6483C49.5165 20.6572 49.5528 20.707 49.5445 20.7599C49.5356 20.8122 49.4859 20.8485 49.4336 20.8402C49.4336 20.8402 47.9033 20.5935 46.9374 20.7726C46.7537 20.8064 46.5912 20.8555 46.4662 20.9269C46.3572 20.9888 46.2781 21.0672 46.2488 21.1705C46.206 21.3197 46.2621 21.5091 46.433 21.7577C46.4904 21.8406 46.646 21.9127 46.8608 21.9803C47.4194 22.1556 48.363 22.2583 49.2653 22.1747C49.9022 22.1154 50.5194 21.9643 50.9594 21.6742C51.3808 21.3962 51.6352 20.9888 51.5727 20.4098C51.5224 19.9431 51.1819 19.5765 50.6769 19.2991C49.885 18.8643 48.6908 18.6526 47.4972 18.6532C46.3036 18.6539 45.1087 18.8668 44.3162 19.2896C43.8125 19.558 43.472 19.9093 43.4216 20.3518C43.317 21.2655 43.449 22.044 43.9126 22.6491C44.6171 23.5679 46.0741 24.0792 48.5741 24.0792C49.8601 24.0792 50.8644 24.2272 51.6021 24.5052C52.3615 24.7908 52.8429 25.2148 53.0673 25.7517C53.3638 26.4613 53.212 27.3788 52.6292 28.4609C51.9317 29.7565 51.4809 30.9679 51.539 32.2718C51.597 33.5757 52.1651 34.9695 53.4945 36.6311C56.2036 40.0174 56.5193 40.6678 56.9363 43.8654C56.9433 43.9183 56.9056 43.9667 56.8527 43.9738C56.7992 43.9808 56.7507 43.9432 56.7437 43.8902C56.3324 40.7347 56.0168 40.0946 53.3427 36.7523C51.9802 35.0492 51.405 33.6172 51.3451 32.2801C51.2858 30.9424 51.743 29.6985 52.4584 28.369C53.0061 27.3521 53.1668 26.4932 52.8881 25.8269C52.6815 25.3321 52.2327 24.9496 51.5339 24.6862C50.8127 24.4153 49.8308 24.2731 48.5741 24.2731C45.9867 24.2731 44.4877 23.7177 43.7589 22.7671C43.266 22.125 43.1181 21.2999 43.2291 20.3295C43.2858 19.8296 43.6563 19.4216 44.225 19.1187C45.0405 18.6838 46.2685 18.4601 47.4972 18.4594C48.7259 18.4588 49.9545 18.6813 50.7706 19.1295C51.3381 19.4413 51.7086 19.8634 51.7653 20.3888C51.8374 21.0506 51.5485 21.5186 51.0658 21.8362C50.6023 22.1416 49.9545 22.3054 49.2831 22.3679C48.3528 22.454 47.3786 22.3462 46.8028 22.1652C46.5318 22.0797 46.3457 21.972 46.2736 21.8674C46.0568 21.5531 46.0084 21.3057 46.0626 21.1169C46.097 20.9958 46.1741 20.8944 46.2857 20.8128C46.4356 20.7031 46.6504 20.6285 46.9017 20.582C47.8931 20.3984 49.4642 20.6483 49.4642 20.6483Z" fill="white"/>
<path fill-rule="evenodd" clip-rule="evenodd" d="M74.0958 39.1849C74.0958 39.1849 77.6975 40.4544 79.6786 42.1751C80.5525 42.9348 81.1078 43.7857 80.9444 44.6503C80.7203 45.838 80.1945 46.9668 79.5252 47.6796C79.0658 48.1695 78.5375 48.464 77.993 48.4642C77.41 48.4641 76.8005 48.1288 76.233 47.3088C74.4104 44.6764 73.9667 39.2841 73.9667 39.2841C73.964 39.2518 73.978 39.2199 74.0045 39.1999C74.0305 39.1795 74.0645 39.174 74.0958 39.1849ZM74.1737 39.42C74.2599 40.3052 74.7716 44.857 76.3927 47.1984C76.9121 47.9488 77.4599 48.27 77.9927 48.2705C78.4885 48.2703 78.9654 47.993 79.3838 47.5469C80.0313 46.8566 80.537 45.7636 80.7542 44.6143C80.9054 43.809 80.3649 43.0287 79.5512 42.3211C77.8261 40.823 74.8563 39.6728 74.1737 39.42Z" fill="white"/>
<path fill-rule="evenodd" clip-rule="evenodd" d="M74.1465 38.6822C74.1465 38.6822 72.1325 41.9269 70.0262 43.4918C69.0964 44.182 68.1461 44.5414 67.3367 44.196C66.225 43.7218 65.2356 42.9656 64.6834 42.1588C64.3037 41.6049 64.1296 41.0256 64.2465 40.4937C64.3718 39.9244 64.8303 39.4013 65.7531 39.0233C68.7158 37.8091 74.0773 38.5348 74.0773 38.5348C74.1095 38.5392 74.1377 38.5597 74.1515 38.5899C74.1658 38.6196 74.1639 38.654 74.1465 38.6822ZM73.9002 38.7078C73.0171 38.6017 68.4618 38.123 65.8266 39.2029C64.9821 39.5489 64.5507 40.0148 64.4357 40.5351C64.3293 41.0193 64.4976 41.5447 64.8433 42.0492C65.3783 42.83 66.337 43.5587 67.4128 44.0179C68.1668 44.3387 69.0451 43.9786 69.9109 43.336C71.7449 41.9733 73.5066 39.3201 73.9002 38.7078Z" fill="white"/>
<path fill-rule="evenodd" clip-rule="evenodd" d="M74.8728 38.2882C74.8728 38.2882 80.128 35.7057 84.245 34.6031C85.311 34.3176 86.3005 34.131 87.1048 34.1123C87.6547 34.0992 88.12 34.1653 88.4681 34.3264C89.3292 34.725 89.9916 35.244 90.3617 35.7915C90.6169 36.1702 90.7331 36.5636 90.6866 36.9431C90.6393 37.3234 90.429 37.6927 90.0186 38.0199C89.4292 38.4892 88.4176 38.8764 86.8828 39.0861C81.8313 39.7766 74.8975 38.4703 74.8975 38.4703C74.8568 38.4627 74.8257 38.4297 74.8203 38.3883C74.8138 38.3467 74.8356 38.3064 74.8728 38.2882ZM75.227 38.3324C76.5929 38.5688 82.4464 39.4972 86.8566 38.8942C88.0987 38.7242 88.9896 38.4394 89.583 38.0844C90.1522 37.7442 90.4414 37.3433 90.4935 36.9196C90.536 36.5827 90.4265 36.2356 90.2008 35.9001C89.8475 35.376 89.2103 34.8835 88.3859 34.5021C88.0609 34.3515 87.6247 34.2939 87.11 34.3064C86.3175 34.3248 85.3436 34.5094 84.2958 34.7902C80.7454 35.7413 76.3471 37.7962 75.227 38.3324Z" fill="white"/>
<path fill-rule="evenodd" clip-rule="evenodd" d="M74.9133 38.511C74.9133 38.511 68.6827 38.4113 64.7628 36.868C63.9674 36.5553 63.3946 36.2148 63.008 35.866C62.6074 35.5051 62.4047 35.1325 62.3572 34.7712C62.3 34.334 62.4713 33.909 62.8166 33.5316C63.3126 32.9882 64.1754 32.5424 65.2099 32.3034C66.0699 32.1042 67.3068 32.5677 68.6114 33.3268C71.6049 35.0688 74.9824 38.3442 74.9824 38.3442C75.011 38.3724 75.0196 38.4145 75.0044 38.451C74.9897 38.4882 74.9529 38.5116 74.9133 38.511ZM74.6661 38.311C73.9296 37.6153 71.0799 34.9877 68.5138 33.4946C67.2611 32.7656 66.0794 32.301 65.2535 32.4923C64.2632 32.7209 63.4347 33.1425 62.9594 33.6621C62.6567 33.9933 62.4994 34.3629 62.5498 34.7465C62.5913 35.0693 62.7799 35.3989 63.1382 35.7221C63.5117 36.0587 64.0661 36.3858 64.8339 36.6881C68.2624 38.0374 73.4714 38.2738 74.6661 38.311Z" fill="white"/>
<path fill-rule="evenodd" clip-rule="evenodd" d="M75.2877 38.9438C75.2877 38.9438 72.5696 33.3365 72.1812 29.1416C72.102 28.2907 72.1479 27.6259 72.2851 27.1236C72.4269 26.6034 72.6682 26.2545 72.9693 26.0493C73.3338 25.8013 73.7904 25.7627 74.283 25.901C74.9915 26.0989 75.7783 26.6683 76.4577 27.4842C77.023 28.1622 77.1666 29.4753 77.0766 30.982C76.8702 34.4393 75.4678 38.9304 75.4678 38.9304C75.4555 38.9686 75.4217 38.9952 75.3824 38.9981C75.3425 39.0017 75.305 38.9794 75.2877 38.9438ZM75.3549 38.633C75.6441 37.6621 76.706 33.9341 76.8829 30.9705C76.9693 29.5236 76.8516 28.2593 76.3087 27.6083C75.6584 26.8271 74.9088 26.2775 74.2308 26.0873C73.7987 25.9662 73.3979 25.9923 73.0782 26.2101C72.8086 26.3927 72.5993 26.7095 72.4722 27.175C72.34 27.66 72.2978 28.3024 72.3739 29.124C72.714 32.7928 74.8498 37.5496 75.3549 38.633Z" fill="white"/>
<path d="M5.321 60.0647L5.08777 60.4025C4.00804 59.2844 3.36781 57.874 3.18687 56.1469C3.04537 54.7962 3.21851 53.4573 3.68414 52.1325C4.14977 50.8077 4.80878 49.6194 5.70546 48.5629C6.58231 47.5308 7.63273 46.6597 8.88116 45.9692C10.1074 45.2811 11.3837 44.8564 12.7344 44.7149C13.4208 44.643 14.6328 44.6727 16.3947 44.824C16.8445 44.844 17.4318 44.8944 18.1543 44.953C18.8547 45.014 19.6436 45.0656 20.5013 45.1325C21.3589 45.1993 22.0593 45.2603 22.6198 45.2687C23.1803 45.2771 23.8073 45.2786 24.4983 45.251C24.926 45.2734 25.1544 45.3166 25.1637 45.4052C25.1822 45.5823 25.1588 45.7862 25.1133 45.9925L24.9545 46.6135C24.8528 47.139 24.7326 47.4874 24.658 47.6296C24.539 47.7763 24.3246 47.866 23.9703 47.9031C22.9296 48.0121 21.8842 48.0768 20.8762 48.0705C19.8484 48.0886 18.7716 48.0671 17.6704 48.0258C16.547 47.9868 15.5099 47.9163 14.559 47.8145L11.1528 47.5669C10.5433 47.5188 9.9187 47.5395 9.27656 47.6068C7.43871 47.7993 6.07598 48.6808 5.21051 50.2489C4.32522 51.8415 4.02935 53.932 4.30539 56.567C4.4469 57.9177 4.79127 59.0681 5.321 60.0647ZM20.2549 48.3371L20.5974 48.6146C20.3665 48.9746 20.1845 49.3742 20.0736 49.8111C19.965 50.2702 19.8831 50.7713 19.8304 51.3365C19.78 51.9238 19.7227 52.4446 19.6653 52.9655C20.0639 52.9238 20.5708 52.8483 21.1664 52.7635C21.7619 52.6787 22.3574 52.594 22.9285 52.4894C23.4798 52.4092 24.1615 52.293 24.9564 52.1874C25.1557 52.1665 25.2733 52.2213 25.2849 52.332C25.3012 52.487 25.216 52.7422 25.0072 53.0999L24.6818 53.6264C24.5675 53.8175 24.4439 53.92 24.2889 53.9362C22.9382 54.0777 21.3614 54.1981 19.5341 54.2776C19.3445 55.8869 19.0898 57.3015 18.7431 58.4795C18.3987 59.6796 17.8633 60.7655 17.0902 61.7195C16.5153 62.4289 15.8624 63.0346 15.1711 63.4876C14.4577 63.9428 13.8365 64.2094 13.2829 64.2674C12.8622 64.3115 12.4718 64.218 12.1317 63.9627C11.7717 63.7317 11.5842 63.438 11.5448 63.0616C11.4868 62.508 11.6433 61.8648 11.9967 61.1786C12.3502 60.4924 12.9544 59.4217 13.7895 57.9911C14.5978 56.5185 14.9968 55.626 14.962 55.2939C14.9364 55.0503 14.8293 54.8825 14.6359 54.746C14.4426 54.6096 14.192 54.5687 13.882 54.6011L13.1338 54.7243C12.7574 54.7637 12.5419 54.6296 12.5071 54.2975C12.4676 53.921 12.7568 53.6893 13.3989 53.622C14.041 53.5547 14.5503 53.5014 14.9268 53.4619C15.3055 53.4447 15.7041 53.4029 16.1714 53.3763C16.5927 52.0562 17.1328 51.0146 17.7473 50.2563C18.3618 49.498 19.2117 48.8493 20.2549 48.3371ZM14.7677 54.5083C15.1208 54.6728 15.3013 54.9002 15.3314 55.188C15.3662 55.5202 15.2074 56.1412 14.8283 57.0092L13.9449 59.4746C13.8247 59.823 13.6648 60.2203 13.4653 60.6666C13.2681 61.1349 13.1351 61.5742 13.0241 62.0112C12.9132 62.4481 12.8641 62.8338 12.8942 63.1217C12.9105 63.2767 12.971 63.427 13.0933 63.5261C13.2156 63.6253 13.3333 63.6801 13.4883 63.6638C13.8647 63.6244 14.204 63.2307 14.5062 62.4827C14.7863 61.737 15.0151 60.9295 15.1728 60.0847C15.3306 59.2399 15.5048 58.1248 15.6954 56.7393C15.8861 55.3538 15.9843 54.5824 16.0124 54.4227L14.7677 54.5083Z" fill="#601897"/>
<path d="M33.229 42.9037L30.0408 56.4901C29.9322 56.9491 29.8913 57.1997 29.8982 57.2661C29.9562 57.8197 30.2964 58.0751 30.9385 58.0078C31.6692 57.9312 32.5995 57.4085 33.7292 56.4394L33.9831 56.7262C32.5887 57.9468 31.0944 58.6406 29.478 58.81C27.7287 58.9932 26.8048 58.508 26.6819 57.3344C26.6517 57.0466 26.716 56.5921 26.8748 55.9711L29.6589 44.0836L33.229 42.9037Z" fill="#601897"/>
<path d="M46.68 53.135L46.8081 53.5022C46.2555 53.7839 45.7136 53.9526 45.16 54.0106C44.54 54.0756 43.955 54.0473 43.4272 53.9235C42.4016 56.3143 40.7928 57.6245 38.5785 57.8565C36.2314 58.1024 34.9674 57.3617 34.7864 55.6346C34.6681 54.5053 34.9286 53.3587 35.541 52.1529C36.1534 50.9471 36.9754 50.0327 38.0047 49.3876C38.6914 48.8903 39.2882 48.604 39.8417 48.546C39.9967 48.5297 40.0678 48.5671 40.0794 48.6778C40.0794 48.6778 39.8601 49.1485 39.4505 50.154C39.0189 51.1618 38.6606 52.2291 38.371 53.3115C38.0838 54.4161 37.9843 55.3891 38.0747 56.2527C38.1118 56.607 38.2306 56.8856 38.4286 57.0663C38.6068 57.2715 38.8398 57.359 39.1055 57.3312C40.257 57.2105 41.1479 55.886 41.8029 53.3773C40.8571 52.469 40.3204 51.406 40.1975 50.2324C40.1186 49.4796 40.211 48.8655 40.4967 48.3878C40.7825 47.9102 41.18 47.6447 41.7336 47.5867C42.3314 47.524 42.8441 47.7166 43.2517 48.1887C43.6594 48.6609 43.9084 49.3288 43.9989 50.1923C44.1265 51.4102 43.9744 52.523 43.5427 53.5308C43.9156 53.6709 44.3899 53.7107 44.9434 53.6527C45.6298 53.5808 46.194 53.4098 46.68 53.135ZM41.9641 52.7784C42.052 51.6947 42.0746 50.8417 42.0073 50.1995C41.94 49.5574 41.8424 49.0527 41.6701 48.6902C41.5421 48.3231 41.3464 48.1645 41.1471 48.1854C40.97 48.2039 40.8312 48.3752 40.7285 48.6769C40.6037 48.981 40.572 49.3201 40.6115 49.6966C40.6648 50.2058 40.8137 50.7723 41.0756 51.3493C41.3154 51.9285 41.6123 52.4123 41.9641 52.7784Z" fill="#601897"/>
<path d="M52.364 47.3462L50.2809 55.6681L50.2026 55.9897L50.2493 56.0072L50.3203 56.0445C50.4089 56.0353 50.5839 55.5692 50.8676 54.6441C51.2727 53.1689 51.8024 51.8151 52.4812 50.6023C52.4477 50.0685 52.5249 49.5232 52.7105 48.9441C52.9205 48.3848 53.2063 47.9072 53.5479 47.5356C53.8895 47.164 54.294 46.965 54.7369 46.9186C55.0026 46.8907 55.231 46.934 55.4243 47.0704C55.6399 47.2045 55.747 47.3724 55.7679 47.5717C55.7887 47.771 55.5777 48.1065 55.1148 48.6027C54.5924 49.1723 53.9931 49.8619 53.3389 50.6691L53.3457 51.1609C53.399 51.6702 53.6004 52.0968 53.9673 52.3942C54.3121 52.6938 54.7293 52.8292 55.2385 52.7759C55.5707 52.7411 55.9402 52.6352 56.3912 52.4536L56.5355 52.9758C56.4271 53.0095 56.2744 53.0479 56.0996 53.0886C55.9248 53.1293 55.7942 53.1654 55.7057 53.1746C54.3549 53.3161 53.3309 52.7295 52.609 51.3948C52.5146 51.5614 52.4201 51.728 52.3256 51.8946C52.2335 52.0833 52.1238 52.3187 51.999 52.6228C51.8741 52.9268 51.7493 53.2309 51.6267 53.5572C51.5042 53.8834 51.2919 54.4205 51.0339 55.1639C50.8239 55.7232 50.6396 56.1006 50.481 56.2963C50.3224 56.492 49.9996 56.6154 49.5124 56.6664C48.9146 56.7291 48.389 56.6274 47.9825 56.379C47.5759 56.1306 47.3395 55.7972 47.2908 55.3322C47.2513 54.9557 47.3157 54.5013 47.4616 53.9711L48.7602 48.4177L52.364 47.3462Z" fill="#601897"/>
<path d="M67.8862 45.7199L66.1173 52.5538C65.9796 52.9488 65.9189 53.2238 65.9351 53.3788C65.9606 53.6224 66.0678 53.7902 66.2833 53.9243C66.4767 54.0608 66.6829 54.1063 66.9265 54.0808C67.3472 54.0367 67.8449 53.8727 68.4172 53.5665C68.9896 53.2603 69.4489 52.9435 69.8371 52.5895L70.0199 52.8389C69.4311 53.4155 68.7422 53.8906 67.9332 54.2888C67.1488 54.7067 66.39 54.9429 65.6814 55.0171C64.53 55.1378 63.6515 54.8716 63.0237 54.2211C62.1015 55.034 61.0757 55.4996 59.9465 55.6179C59.105 55.7061 58.3977 55.5787 57.8047 55.2603C57.2339 54.9395 56.9055 54.3695 56.8243 53.5945C56.7524 52.9081 56.8705 52.1122 57.1786 51.2069C57.4623 50.2817 57.888 49.4313 58.4093 48.6379C59.4018 47.2132 60.7714 46.3981 62.4986 46.2172C62.9636 46.1685 63.3668 46.171 63.6639 46.2294C63.9634 46.31 64.2476 46.4593 64.4969 46.7018L67.8862 45.7199ZM64.266 47.0618C63.8699 46.7003 63.4284 46.5451 62.9634 46.5938C62.5648 46.6356 62.2512 46.8475 61.9981 47.2098C61.7474 47.5943 61.4627 48.2956 61.1662 49.3117C60.4403 51.3577 60.1215 52.8014 60.212 53.6649C60.2885 54.3957 60.6601 54.7373 61.3022 54.67C61.4794 54.6515 61.6542 54.6108 61.8244 54.5258C61.9724 54.4431 62.1426 54.3581 62.3105 54.251C62.4539 54.124 62.6415 53.9925 62.8689 53.8119L62.7141 53.4028C62.6886 53.1593 62.7331 52.7293 62.8522 52.1571L64.266 47.0618Z" fill="#601897"/>
<path d="M72.3614 49.9745L72.0175 50.324C70.9702 49.5158 70.3741 48.5262 70.2557 47.3969C70.1351 46.2455 70.3909 45.0546 71.001 43.8266C71.6134 42.6208 72.5078 41.5421 73.6398 40.5953C75.6194 38.9776 78.3374 37.9989 81.7696 37.6393C83.6296 37.4445 85.2738 37.5409 86.7222 37.904C88.1705 38.2671 89.3099 38.8865 90.1847 39.7575C91.0373 40.6307 91.5297 41.6984 91.6619 42.9606C91.75 43.802 91.6832 44.6597 91.4858 45.5534C91.2663 46.4494 90.9092 47.3151 90.417 48.1725C89.9027 49.0323 89.3301 49.7639 88.6749 50.3474C86.827 52.1528 84.1648 53.2375 80.6441 53.6064C80.3784 53.6342 79.6896 53.684 78.5755 53.7335C77.4614 53.7831 76.662 53.8444 76.1504 53.8757L76.1727 53.448C76.6109 53.3573 76.9724 52.9613 77.2326 52.24C77.4952 51.541 77.8583 50.0926 78.322 47.895C78.6561 46.3826 78.9387 45.2337 79.1721 44.4705C79.3834 43.7096 79.6879 42.9837 80.088 42.315C80.4659 41.6486 81.0011 40.9882 81.6738 40.358C82.3465 39.7279 83.2407 39.0746 84.312 38.4027L84.6009 38.5963C84.1355 39.4957 83.7458 40.4768 83.4737 41.5126C83.1795 42.5508 82.8735 43.9036 82.529 45.5291C82.0233 47.7535 81.4397 49.4488 80.783 50.6593C80.124 51.8476 78.9629 52.7304 77.2798 53.332L77.6563 53.2926L80.3296 53.1692C81.7246 53.0231 82.9321 52.5832 83.9743 51.8472C84.9944 51.1135 85.8689 50.0593 86.5758 48.6869C87.1648 47.685 87.6292 46.5618 87.9223 45.2999C88.2177 44.0601 88.3255 42.9519 88.2234 41.9776C87.9103 38.9884 85.917 37.6973 82.2413 38.0824C78.7649 38.4466 75.9802 39.8576 73.9291 42.2887C73.1164 43.2916 72.4411 44.325 71.9523 45.4283C71.4658 46.5538 71.2486 47.472 71.3251 48.2027C71.3646 48.5791 71.4635 48.8821 71.5974 49.092C71.7336 49.3239 71.9875 49.6107 72.3614 49.9745Z" fill="#601897"/>
<path d="M102.033 49.2168L102.289 49.5258C101.399 50.2234 100.513 50.7415 99.6311 51.0802C98.7487 51.4188 97.6998 51.6631 96.5041 51.7883C94.1348 52.0365 92.8626 51.4311 92.7118 49.9918C92.6375 49.2832 92.7615 48.33 93.0593 47.1124C93.8369 44.2775 95.5087 42.7144 98.0552 42.4477C99.4944 42.2969 100.281 42.7518 100.392 43.8146C100.48 44.656 100.145 45.5194 99.4073 46.3802C98.6494 47.2655 97.5699 48.0725 96.149 48.8258C96.1127 49.1206 96.0962 49.391 96.1264 49.6788C96.1798 50.1881 96.3765 50.5705 96.7167 50.8258C97.0545 51.0591 97.4891 51.1479 97.9984 51.0945C99.3713 50.9507 100.715 50.3174 102.033 49.2168ZM96.1422 48.334C96.7707 47.7086 97.4179 46.8349 98.106 45.7107C98.7941 44.5864 99.1045 43.7033 99.0396 43.0833C99.0071 42.7733 98.8137 42.6368 98.4594 42.6739C97.928 42.7296 97.4417 43.4297 97.0028 44.7965C96.564 46.1632 96.286 47.3564 96.1422 48.334Z" fill="#601897"/>
<path d="M111.908 48.1822L112.091 48.4316C110.549 49.7349 108.838 50.4962 106.956 50.6934C105.893 50.8047 104.922 50.7273 104.046 50.4833C103.148 50.2416 102.664 49.6879 102.571 48.8021C102.46 47.7393 102.681 46.6416 103.256 45.5069C103.809 44.3744 104.582 43.4204 105.551 42.625C106.52 41.8295 107.548 41.386 108.61 41.2747C109.873 41.1425 110.577 41.673 110.7 42.8466C110.758 43.4002 110.683 43.9677 110.478 44.5712C110.275 45.1969 109.992 45.6967 109.63 46.0927C109.249 46.5132 108.847 46.7344 108.426 46.7785C108.138 46.8087 107.907 46.7433 107.712 46.5847C107.516 46.4261 107.404 46.214 107.379 45.9704C107.342 45.6161 107.42 45.2945 107.638 45.0254C107.856 44.7564 108.2 44.4069 108.716 43.9946C109.23 43.5602 109.579 43.2551 109.78 43.0326C109.958 42.8124 110.043 42.5573 110.013 42.2694C109.997 42.1144 109.914 41.9664 109.767 41.8474C109.621 41.7285 109.459 41.6783 109.304 41.6945C108.617 41.7665 107.995 42.2346 107.458 43.0967C106.924 43.9809 106.514 44.9864 106.254 46.133C105.996 47.3017 105.889 48.2083 105.959 48.8726C106.054 49.7804 106.612 50.1921 107.653 50.0831C108.782 49.9648 110.215 49.3222 111.908 48.1822Z" fill="#601897"/>
</svg>
