<svg width="154" height="39" viewBox="0 0 154 39" fill="none" xmlns="http://www.w3.org/2000/svg">
<path d="M54.0742 22.2934V1.15942H60.3163C62.189 1.15942 63.8535 1.57556 65.2803 2.40785C66.7368 3.24013 67.8663 4.4291 68.6689 5.94505C69.4417 7.49071 69.8579 9.24445 69.8579 11.2063V12.2763C69.8579 14.2679 69.4417 16.0216 68.6392 17.5375C67.8366 19.0535 66.7071 20.2425 65.2506 21.045C63.7644 21.8773 62.0701 22.2934 60.1677 22.2934H54.0742ZM57.76 4.13186V19.321H60.138C62.0701 19.321 63.5563 18.7265 64.5966 17.5375C65.6073 16.3188 66.1423 14.5948 66.172 12.3358V11.1765C66.172 8.88776 65.6667 7.13402 64.6561 5.94505C63.6752 4.72635 62.2187 4.13186 60.3163 4.13186H57.76Z" fill="#005092"/>
<path d="M89.6345 15.4271C89.4264 17.6564 88.5941 19.4399 87.1376 20.6883C85.6811 21.9665 83.749 22.5907 81.3414 22.5907C79.6471 22.5907 78.1609 22.1745 76.8827 21.372C75.6046 20.5992 74.6237 19.4399 73.9103 17.9834C73.2266 16.5269 72.8699 14.8029 72.8402 12.8708V10.8793C72.8402 8.88776 73.1969 7.13402 73.8806 5.61808C74.5939 4.10214 75.6046 2.91316 76.9422 2.11061C78.25 1.27832 79.7957 0.862183 81.5197 0.862183C83.8382 0.862183 85.7109 1.51612 87.1376 2.76454C88.5644 4.01296 89.3967 5.82615 89.6345 8.11492H85.9784C85.8 6.59898 85.3542 5.49918 84.6408 4.84525C83.9274 4.16159 82.887 3.83462 81.5197 3.83462C79.9146 3.83462 78.6959 4.42911 77.8339 5.58836C76.9719 6.74761 76.526 8.47162 76.526 10.7307V12.6033C76.526 14.8921 76.9422 16.6161 77.7447 17.8348C78.577 19.0238 79.766 19.6182 81.3414 19.6182C82.7681 19.6182 83.8679 19.2913 84.5813 18.6373C85.3244 18.0131 85.7703 16.9133 85.9784 15.4271H89.6345Z" fill="#005092"/>
<path d="M103.986 19.321H113.587V22.2934H100.3V1.15942H103.986V19.321Z" fill="#005092"/>
<path d="M119.8 22.2934H116.263V6.59898H119.8V22.2934ZM116.054 2.49702C116.054 1.96199 116.233 1.4864 116.56 1.1297C116.916 0.773012 117.392 0.594666 118.046 0.594666C118.67 0.594666 119.176 0.773012 119.532 1.1297C119.859 1.4864 120.038 1.96199 120.038 2.49702C120.038 3.03206 119.859 3.47793 119.532 3.83462C119.176 4.19131 118.67 4.36966 118.046 4.36966C117.392 4.36966 116.916 4.19131 116.56 3.83462C116.233 3.47793 116.054 3.03206 116.054 2.49702Z" fill="#005092"/>
<path d="M126.916 6.599L127.005 8.41219C128.165 7.01514 129.71 6.30176 131.583 6.30176C134.853 6.30176 136.517 8.17439 136.577 11.9197V22.2935H133.039V12.1277C133.039 11.1171 132.831 10.374 132.415 9.8984C131.969 9.42281 131.286 9.18502 130.305 9.18502C128.878 9.18502 127.808 9.83896 127.124 11.1171V22.2935H123.587V6.599H126.916Z" fill="#005092"/>
<path d="M145.261 15.5461L143.715 17.1809V22.2935H140.178V0.000244141H143.715V12.8709L144.815 11.4738L149.155 6.59905H153.376L147.55 13.1384L154 22.2935H149.928L145.261 15.5461Z" fill="#005092"/>
<path d="M61.3378 34.3723C60.9927 34.8104 60.5281 35.1555 59.9175 35.3811C59.3202 35.6068 58.63 35.7262 57.8601 35.7262C57.0637 35.7262 56.3735 35.5404 55.7629 35.182C55.1523 34.8236 54.6745 34.3192 54.3559 33.6423C54.0241 32.9786 53.8515 32.1955 53.8383 31.3062V30.5761C53.8383 29.1426 54.1701 28.0276 54.8603 27.2312C55.5373 26.4215 56.493 26.0233 57.7141 26.0233C58.7627 26.0233 59.5989 26.2888 60.2228 26.8065C60.8334 27.3241 61.205 28.0807 61.3378 29.0497H59.7317C59.5459 27.9214 58.8822 27.3507 57.7539 27.3507C57.0106 27.3507 56.4531 27.6161 56.0682 28.1471C55.6965 28.6647 55.4974 29.4479 55.4842 30.4699V31.1867C55.4842 32.2088 55.6965 32.9919 56.1213 33.5627C56.5593 34.1201 57.1566 34.3989 57.9132 34.3989C58.7627 34.3989 59.3467 34.2131 59.7051 33.8281V31.9964H57.7672V30.7487H61.3378V34.3723Z" fill="#005092"/>
<path d="M66.6029 31.9699H64.7845V35.5936H63.1385V26.1561H66.4569C67.5453 26.1561 68.3948 26.3951 68.9789 26.8862C69.5762 27.3773 69.8682 28.0808 69.8682 29.0099C69.8682 29.6471 69.7222 30.1647 69.4169 30.6027C69.1116 31.0275 68.6869 31.3461 68.1427 31.585L70.2531 35.5139V35.5936H68.501L66.6029 31.9699ZM64.7845 30.6426H66.4702C67.0144 30.6426 67.4524 30.4966 67.7577 30.2178C68.0763 29.9391 68.2356 29.5674 68.2356 29.0763C68.2356 28.5719 68.0896 28.187 67.7975 27.9082C67.5055 27.6295 67.0808 27.4835 66.51 27.4835H64.7845V30.6426Z" fill="#005092"/>
<path d="M78.9604 31.1203C78.9604 32.0495 78.8011 32.8592 78.4825 33.5494C78.1507 34.2529 77.6994 34.7838 77.1021 35.1687C76.5048 35.5404 75.8278 35.7262 75.058 35.7262C74.2881 35.7262 73.6112 35.5404 73.0139 35.1687C72.4166 34.7838 71.952 34.2529 71.6201 33.5627C71.3016 32.8724 71.129 32.076 71.129 31.1734V30.6425C71.129 29.7266 71.2883 28.9037 71.6201 28.2002C71.9387 27.4967 72.4033 26.9657 73.0006 26.5941C73.5846 26.2091 74.2748 26.0233 75.0447 26.0233C75.8146 26.0233 76.4915 26.2091 77.0888 26.5808C77.6861 26.9525 78.1374 27.4834 78.4693 28.1736C78.7878 28.8638 78.9471 29.6735 78.9604 30.6027V31.1203ZM77.3145 30.6292C77.3145 29.5806 77.1154 28.7842 76.7172 28.2267C76.3322 27.6692 75.7615 27.3905 75.0447 27.3905C74.3279 27.3905 73.7837 27.6692 73.3722 28.2267C72.974 28.7709 72.7749 29.5673 72.7617 30.5761V31.1203C72.7617 32.1557 72.974 32.9653 73.3722 33.5228C73.7705 34.0936 74.3412 34.3723 75.058 34.3723C75.7747 34.3723 76.3322 34.0936 76.7304 33.5494C77.1154 32.9919 77.3145 32.1822 77.3145 31.1203V30.6292Z" fill="#005092"/>
<path d="M87.4874 26.1561V32.461C87.4874 33.4698 87.1689 34.253 86.5317 34.8503C85.8813 35.4343 85.0318 35.7263 83.97 35.7263C82.8815 35.7263 82.032 35.4343 81.3949 34.8635C80.7578 34.2795 80.4392 33.4831 80.4392 32.461V26.1561H82.0718V32.461C82.0718 33.0849 82.2311 33.576 82.5497 33.9078C82.8683 34.2397 83.3461 34.399 83.97 34.399C85.2309 34.399 85.8548 33.7353 85.8548 32.4079V26.1561H87.4874Z" fill="#005092"/>
<path d="M90.8846 32.0894V35.5936H89.2386V26.1561H92.849C93.9109 26.1561 94.7471 26.4349 95.3577 26.9791C95.9816 27.5366 96.3001 28.2533 96.3001 29.1559C96.3001 30.0851 95.9948 30.8018 95.3843 31.3195C94.7737 31.8372 93.9242 32.0894 92.8358 32.0894H90.8846ZM90.8846 30.7753H92.849C93.4331 30.7753 93.8844 30.6293 94.1897 30.3638C94.4949 30.0851 94.641 29.6869 94.641 29.1692C94.641 28.6648 94.4949 28.2533 94.1764 27.948C93.8711 27.6428 93.4463 27.4835 92.9021 27.4835H90.8846V30.7753Z" fill="#005092"/>
<path fill-rule="evenodd" clip-rule="evenodd" d="M-3.43323e-05 22.9075L20.123 11.2916V27.1811L-3.43323e-05 38.797V22.9075Z" fill="#005092"/>
<path fill-rule="evenodd" clip-rule="evenodd" d="M19.6427 10.4201L7.09408 17.8813L-7.62939e-06 13.9543V0L19.6427 10.4201Z" fill="#005092"/>
<path fill-rule="evenodd" clip-rule="evenodd" d="M41.4901 22.9075L21.3671 11.2916V27.1811L41.4901 38.797V22.9075Z" fill="#9FAFC2"/>
<path fill-rule="evenodd" clip-rule="evenodd" d="M21.8474 10.4201L34.396 17.8813L41.4901 13.9543V0L21.8474 10.4201Z" fill="#9FAFC2"/>
</svg>
