<svg width="109" height="94" viewBox="0 0 109 94" fill="none" xmlns="http://www.w3.org/2000/svg">
<path d="M12.4547 43.8315C13.1296 43.8315 13.6511 44.0356 14.0295 44.4446C14.4078 44.7514 14.602 45.2627 14.602 45.9784C14.602 46.0807 14.5817 46.2852 14.551 46.4897C14.5203 46.592 14.4895 46.7969 14.4486 46.8991C14.1828 46.8991 13.8862 46.7953 13.559 46.7953C13.2318 46.7953 12.8432 46.7953 12.3933 46.7953C11.5139 46.7953 10.6243 46.7965 9.72445 47.001C8.82461 47.1032 7.96565 47.3082 7.14761 47.4104C6.67724 48.433 6.24788 49.4555 5.85931 50.4781C5.47074 51.5006 5.1332 52.4201 4.85711 53.2381C4.58102 54.1584 4.36628 54.8734 4.2129 55.4869C4.05951 56.1005 3.97771 56.5103 3.95726 56.8171C5.61379 56.5103 7.28057 56.2027 8.96778 55.9982C10.655 55.6915 12.4343 55.4873 14.2953 55.3851C14.5203 55.7941 14.7043 56.1005 14.8577 56.5095C15.0111 56.9185 15.0928 57.4306 15.0928 57.8396V58.249C15.0928 58.3513 15.0724 58.5562 15.0315 58.6584C14.4589 58.6584 13.8556 58.6584 13.2216 58.6584C12.5876 58.6584 11.7593 58.6584 10.7368 58.6584C10.0619 58.6584 9.41767 58.6584 8.81437 58.6584C8.21106 58.6584 7.60786 58.7603 6.99433 58.7603C6.3808 58.8626 5.72633 58.9636 5.04122 59.0659C4.35611 59.1681 3.58919 59.2712 2.73025 59.3734C1.78951 59.0667 0.879392 58.1468 0 56.7152C0.347667 55.9994 0.82831 54.8738 1.45206 53.34C2.07582 51.9084 2.87336 49.8629 3.83456 47.3066C2.91427 46.9998 2.31107 46.4885 2.02475 45.7727C2.12701 45.6705 2.42354 45.5694 2.91437 45.4672C3.40519 45.2627 4.00839 45.0581 4.72417 44.9559C5.03094 44.1379 5.28658 43.4225 5.50132 42.8089C5.71605 42.2977 5.9104 41.6825 6.07401 41.1713C6.23761 40.66 6.3807 40.1487 6.51363 39.6374C6.64656 39.1262 6.7795 38.6153 6.90221 38.0018C6.18642 38.0018 5.62412 37.7977 5.2151 37.3886C4.80608 37.0819 4.60147 36.5698 4.60147 36.0585C4.60147 35.854 4.62199 35.6499 4.67312 35.4454C4.72425 35.2409 4.78552 35.0368 4.84687 34.8323C5.25589 34.9345 5.64449 34.9341 6.02283 34.9341C6.40117 35.0364 6.90231 35.036 7.51584 35.036C8.80425 35.036 10.0108 34.9341 11.1356 34.9341C12.2604 34.8319 13.2727 34.7308 14.1828 34.6285C15.0928 34.6285 15.8802 34.5251 16.5347 34.4228C17.1891 34.3206 17.6901 34.321 18.0378 34.321C18.5082 34.321 18.9274 34.5247 19.2955 35.036C19.6636 35.5472 19.9398 36.2646 20.1238 37.1849C19.4898 37.0827 18.9683 37.0815 18.5695 36.9792C18.1707 36.9792 17.823 36.9792 17.5163 36.9792C16.3915 36.9792 15.3587 37.0827 14.4282 37.1849C13.4976 37.2872 12.608 37.3882 11.7491 37.4905C11.6264 37.695 11.4833 37.9007 11.3299 38.2075C11.1765 38.5142 10.9822 38.9225 10.7368 39.4337C10.4914 39.945 10.1846 40.5589 9.82668 41.377C9.46879 42.0928 9.03942 43.1141 8.52815 44.2389C9.30529 44.1367 10.0313 44.0356 10.7164 43.9333C11.4015 43.9333 11.9843 43.8315 12.4547 43.8315Z" fill="#A72B6B"/>
<path d="M18.682 54.0581C18.682 53.3423 18.8661 52.3198 19.2445 50.9905C19.6228 49.6612 20.1238 48.2284 20.7373 46.6946C21.3509 45.1607 22.0462 43.5255 22.8234 41.8894C23.6005 40.2533 24.3776 38.7195 25.1649 37.2879C25.9523 35.8564 26.7091 34.5258 27.4351 33.5033C28.1611 32.4807 28.7848 31.765 29.2961 31.4582C29.5824 31.4582 29.8892 31.5612 30.2266 31.7658C30.5641 31.9703 30.8811 32.2778 31.1674 32.5846C31.4537 32.8914 31.6889 33.1981 31.8832 33.6071C32.0774 33.9139 32.1797 34.2191 32.1797 34.5258C31.2594 35.2416 30.3187 36.265 29.3677 37.3898C28.4167 38.5146 27.5169 39.8431 26.6579 41.1724C25.799 42.604 25.0013 44.0363 24.2753 45.5702C23.5493 47.104 22.9461 48.6378 22.4553 50.1716C23.1097 49.0468 23.7948 48.0243 24.5106 47.104C25.2264 46.1837 25.9422 45.3653 26.6579 44.6495C27.3737 44.0359 28.069 43.5243 28.7541 43.2175C29.4392 42.8085 30.0937 42.6044 30.7072 42.6044C31.607 43.2179 32.057 44.1378 32.057 45.2626C32.057 45.8761 31.9241 46.4901 31.6582 47.2058C31.3924 47.8194 31.0344 48.4337 30.5947 49.0472C30.155 49.5585 29.654 50.0702 29.0916 50.4792C28.5292 50.8882 27.9464 51.0915 27.3329 51.296C27.5374 52.0118 27.7929 52.7272 28.1099 53.443C28.4269 54.1588 28.8053 54.8762 29.245 55.5919C29.6847 56.3077 30.1857 56.9197 30.7481 57.5332C31.3105 58.1467 31.9547 58.658 32.6705 59.067C32.5683 59.2715 32.4148 59.4776 32.2103 59.6821C32.0058 59.8867 31.7604 59.9889 31.4741 60.1934C31.1878 60.2957 30.8708 60.499 30.5333 60.499C30.1959 60.6012 29.8687 60.7047 29.5415 60.7047C28.9893 60.7047 28.4678 60.3971 27.9872 59.8859C27.5066 59.2723 27.0772 58.4539 26.6886 57.4313C26.3819 56.6133 26.0853 55.5904 25.799 54.4655C25.5127 53.2385 25.2571 52.1141 25.0321 50.7848C25.3184 50.5803 25.6763 50.3769 26.1057 49.9679C26.5352 49.6612 26.9852 49.2509 27.4556 48.7397C29.2552 47.0013 30.155 45.4671 30.155 44.2401C30.155 44.0355 30.0425 44.0363 29.8176 44.0363C29.4086 44.0363 28.9279 44.2409 28.3758 44.5476C27.8236 44.9566 27.2305 45.4679 26.6068 46.0814C25.983 46.7972 25.349 47.5138 24.7048 48.4341C24.0606 49.2521 23.4472 50.2735 22.8541 51.296C22.6087 51.7051 22.3837 52.1149 22.1792 52.6262C21.9747 53.2397 21.7906 53.7502 21.6372 54.3637C21.4838 54.875 21.3714 55.3858 21.2896 55.9994C21.2078 56.5106 21.1669 57.0219 21.1669 57.5332C21.1669 57.84 21.1975 58.0457 21.2589 58.2502C20.6249 58.1479 20.2363 58.0457 20.0931 57.7389C19.9295 57.5344 19.7863 57.3303 19.6738 57.1258C19.5614 57.0235 19.4489 56.8186 19.3262 56.7164C19.1422 56.6141 18.9888 56.3069 18.8661 55.7957C18.7434 55.3866 18.682 54.7739 18.682 54.0581Z" fill="#A72B6B"/>
<path d="M38.3455 58.045C37.1798 57.8405 36.2493 57.3293 35.554 56.5112C34.8587 55.5909 34.511 54.4677 34.511 53.0362C34.511 52.2181 34.6337 51.4001 34.8791 50.4798C35.1245 49.6617 35.4722 48.7414 35.9221 47.9234C36.372 47.1054 36.9038 46.2865 37.5173 45.5707C38.1309 44.855 38.7955 44.2406 39.5113 43.7294C40.6361 42.8091 41.6894 42.4012 42.671 42.4012C43.3255 42.8103 43.9696 43.5253 44.6035 44.6501C44.7058 44.6501 44.7978 44.6505 44.8797 44.5482C44.9615 44.5482 45.0535 44.5482 45.1558 44.5482C46.2397 44.5482 46.7816 45.5715 46.7816 47.4121C46.7816 48.7414 46.5668 49.9681 46.1476 51.0929C45.7284 52.32 45.1455 53.3421 44.3991 54.2624C43.6526 55.1827 42.763 56.0015 41.7302 56.6151C40.6975 57.3309 39.5726 57.7383 38.3455 58.045ZM39.9101 48.3308C39.5624 48.8421 39.2352 49.3534 38.9285 49.8647C38.6217 50.4782 38.3558 50.9907 38.1309 51.6042C37.9059 52.1155 37.732 52.6267 37.6093 53.138C37.4866 53.7515 37.4254 54.161 37.4254 54.57C37.4254 55.0813 37.5071 55.4887 37.6708 56C37.8344 56.409 38.0183 56.7169 38.2228 56.7169C39.1431 56.5124 39.9817 56.2061 40.7486 55.5925C41.5155 55.0813 42.1802 54.3655 42.7426 53.5474C43.305 52.6271 43.7447 51.706 44.0617 50.6835C44.3787 49.5587 44.5423 48.4335 44.5423 47.2064C44.5423 46.6952 44.5116 46.2869 44.4503 45.9802C44.3889 45.6734 44.2866 45.3658 44.1434 45.1613C43.2436 45.4681 42.4358 45.8779 41.7302 46.4914C41.0247 47.105 40.4214 47.7173 39.9101 48.3308Z" fill="#A72B6B"/>
<path d="M46.2909 67.0429C46.0046 67.0429 45.841 66.7358 45.8001 66.1223C45.7183 65.9177 45.6569 65.6106 45.6263 65.2016C45.5956 64.8948 45.5854 64.3843 45.5854 63.9753C45.5854 63.5663 45.657 62.9536 45.8001 62.2378C45.9433 61.4197 46.1375 60.6017 46.3932 59.6814C46.6488 58.7611 46.9659 57.7386 47.334 56.6137C47.7021 55.4889 48.1111 54.3633 48.561 53.2385C49.1132 51.9092 49.5938 50.6822 50.0028 49.6596C50.4118 48.6371 50.7493 47.7176 51.0254 46.8995C51.3014 46.1837 51.5264 45.5694 51.7003 45.0581C51.8741 44.5469 52.0173 44.1386 52.1196 43.8319C52.2014 43.5251 52.324 43.218 52.4877 42.9112C52.6513 42.6044 52.8352 42.1954 53.05 41.8886C53.2647 41.4796 53.4897 41.1729 53.7147 40.8661C53.9396 40.5593 54.1441 40.2514 54.3282 40.1491C55.044 40.2514 55.7188 40.4559 56.3528 40.6604C56.9868 40.9671 57.3754 41.1725 57.5185 41.4792C57.2322 41.6837 56.905 42.092 56.5369 42.7055C56.1688 43.2168 55.8109 43.8311 55.4632 44.5469C55.1155 45.1604 54.7986 45.8762 54.5123 46.592C54.226 47.3078 54.0112 47.9221 53.8681 48.4334C54.0726 48.0243 54.3385 47.716 54.6657 47.307C54.9929 46.8979 55.4939 46.2852 56.1688 45.5694C56.9255 44.8536 57.631 44.2409 58.2957 43.8319C58.9603 43.4229 59.5433 43.1149 60.0341 43.1149C60.8112 43.1149 61.4452 43.4229 61.9462 43.8319C62.4473 44.2409 62.7029 44.7518 62.7029 45.4676C62.7029 46.8991 62.4575 48.4318 61.9667 49.8633C61.4759 51.2949 60.7703 52.625 59.85 53.7498C59.5023 54.1588 59.0933 54.6709 58.623 55.0799C58.1526 55.4889 57.6617 55.7957 57.1504 56.1025C56.6391 56.4092 56.1381 56.7148 55.6473 56.9193C55.1565 57.0216 54.7167 57.125 54.3282 57.125C53.9601 57.125 53.6329 57.1238 53.3568 56.9193C53.0807 56.8171 52.8966 56.6129 52.7943 56.3062C53.5919 55.8972 54.3691 55.181 55.1258 54.3629C55.8825 53.5449 56.5779 52.6258 57.2221 51.501C57.8663 50.3762 58.4286 49.2514 58.9092 47.9221C59.3898 46.695 59.758 45.3649 60.0034 44.0356C59.2262 44.4446 58.5206 44.9563 57.8969 45.4676C57.2731 45.8766 56.6596 46.4889 56.0461 47.307C55.3099 48.2272 54.7271 48.9446 54.2976 49.4559C53.8681 50.0694 53.5102 50.4769 53.2341 50.8859C52.958 51.2949 52.733 51.6033 52.5592 52.0123C52.3853 52.319 52.2014 52.7273 51.9969 53.2385C51.7105 53.8521 51.373 54.7724 50.9946 55.7949C50.6163 56.9197 50.2278 58.0445 49.8291 59.3738C49.4303 60.7031 49.0314 62.1339 48.6326 63.6677C48.2338 65.2016 47.8555 66.6335 47.4874 68.1674C47.2624 68.1674 47.0681 67.9628 46.9045 67.6561C46.7408 67.4516 46.6182 67.3489 46.5466 67.2467C46.475 67.1444 46.3932 67.1452 46.2909 67.0429Z" fill="#A72B6B"/>
<path d="M74.6667 44.5478C74.8712 44.5478 75.1065 44.5474 75.3825 44.6496C75.6586 44.7519 75.9143 44.855 76.1392 44.9572C76.3642 45.0595 76.5482 45.1605 76.7015 45.2628C76.8549 45.365 76.9367 45.4681 76.9367 45.5703C76.5277 46.4906 76.1494 47.3083 75.8017 48.2286C75.454 49.0466 75.1575 49.865 74.9121 50.6831C74.6667 51.5011 74.4725 52.2161 74.3395 52.9319C74.2066 53.6477 74.1452 54.262 74.1452 54.7733C74.1452 55.2846 74.2066 55.7962 74.3293 56.2052C74.452 56.6143 74.6565 56.8176 74.9428 57.0221C74.6974 57.1243 74.3803 57.3293 73.9918 57.4315C73.6032 57.5338 73.2556 57.5334 72.9489 57.5334C71.8445 57.5334 71.2923 56.8184 71.2923 55.2846C71.2923 54.1598 71.6808 52.5245 72.4579 50.4794C72.0489 51.3997 71.5787 52.3196 71.0469 53.1376C70.5152 53.9556 69.9732 54.6706 69.421 55.3864C68.8688 55.9999 68.3064 56.5112 67.744 56.9202C67.1816 57.3293 66.6703 57.535 66.1999 57.6372C65.4433 57.535 64.8298 57.2266 64.3594 56.5108C63.8891 55.795 63.6538 54.9774 63.6538 53.8526C63.6538 52.7278 63.8993 51.5007 64.3901 50.2737C64.881 49.0466 65.5047 47.8191 66.2716 46.7966C67.0385 45.6718 67.8769 44.7523 68.7768 44.0365C69.6766 43.3207 70.5458 42.9121 71.3843 42.9121C71.5889 42.9121 71.8139 43.1154 72.0695 43.2177C72.3251 43.4222 72.5705 43.6279 72.8057 43.9347C73.0409 44.1392 73.2454 44.4451 73.409 44.6496C73.5726 44.9564 73.6646 45.1605 73.6851 45.2628C72.867 45.4673 72.0183 45.8775 71.1492 46.491C70.28 47.2068 69.4926 48.0253 68.787 48.9455C68.0815 49.8658 67.5089 50.8884 67.059 52.0132C66.6091 53.0357 66.3841 54.0583 66.3841 55.0808C66.3841 55.3876 66.5273 55.6936 66.8136 55.7958C67.4067 55.6936 68.0918 55.1823 68.8689 54.262C69.646 53.3417 70.5867 52.0124 71.691 50.1718C71.8955 49.7628 72.1205 49.3546 72.3762 48.9455C72.6318 48.4343 72.8977 48.0249 73.1636 47.5136C73.4294 47.0023 73.6851 46.491 73.9407 45.9798C74.1964 45.4685 74.4417 45.0591 74.6667 44.5478Z" fill="#A72B6B"/>
<path d="M78.0411 56.3059C78.1434 55.6924 78.3172 54.9758 78.5729 53.9532C78.8285 53.0329 79.1353 52.0104 79.483 50.8856C79.8306 49.7608 80.1987 48.6368 80.5873 47.6142C80.9758 46.4894 81.3542 45.4665 81.7223 44.6484C81.9882 43.9326 82.2233 43.5236 82.4278 43.1146C82.6323 42.8078 82.8573 42.5007 83.1027 42.1939C83.389 42.2962 83.6856 42.2974 83.9923 42.3996C84.2991 42.5019 84.5956 42.6045 84.8819 42.809C85.1682 42.9113 85.4239 43.1142 85.6488 43.2165C85.8738 43.421 86.0476 43.5232 86.1704 43.7277C85.6182 44.3413 85.1274 45.0586 84.7082 45.8767C84.2889 46.797 83.8697 47.8187 83.4402 49.148C84.5446 48.1255 85.516 47.2044 86.3647 46.2841C87.2134 45.4661 88.011 44.4451 88.7472 43.3203C88.8699 43.2181 89.0846 43.1146 89.3914 43.1146C89.6777 43.1146 89.9539 43.2181 90.2197 43.3203C90.4856 43.4226 90.6696 43.5232 90.7718 43.7277C90.4037 44.648 90.2197 45.6714 90.2197 46.5917C90.2197 47.512 90.3526 48.1255 90.6184 48.6368C90.598 48.739 90.4549 48.9427 90.1993 49.3518C89.9436 49.6585 89.6675 49.9657 89.3607 50.2724C88.8085 50.0679 88.3178 49.6593 87.8883 49.148C87.4588 48.6368 87.1418 48.1259 86.9373 47.5124C85.9761 48.1259 85.158 48.8421 84.4831 49.4556C83.8082 50.0691 83.2254 50.7845 82.7448 51.6026C82.2642 52.4206 81.8553 53.3401 81.5178 54.3626C81.1804 55.3852 80.8633 56.6123 80.5566 57.9416C80.3725 57.9416 80.1475 57.9424 79.8919 57.7379C79.6362 57.6356 79.3806 57.5329 79.125 57.3284C78.8693 57.2262 78.6445 57.0217 78.4399 56.8172C78.2354 56.6127 78.1025 56.5104 78.0411 56.3059Z" fill="#A72B6B"/>
<path d="M91.4774 54.0584C91.4774 53.3426 91.6614 52.3201 92.0397 50.9907C92.4181 49.6614 92.9192 48.2287 93.5328 46.6948C94.1463 45.161 94.9847 43.2182 95.7618 41.5821C96.539 39.946 100.65 32.0732 101.437 30.6416C102.224 29.21 102.981 27.9834 103.707 26.9608C104.433 25.836 105.047 25.1187 105.558 24.8119C105.844 24.8119 106.161 24.9149 106.499 25.1195C106.836 25.4262 107.143 25.6315 107.429 25.9383C107.715 26.2451 107.961 26.6541 108.155 26.9608C108.349 27.3699 108.441 27.675 108.441 27.8795C107.521 28.6976 106.591 29.6187 105.64 30.7435C104.689 31.8683 103.779 33.1968 102.92 34.5261C102.061 35.9577 97.7967 44.0366 97.0707 45.5704C96.3447 47.1043 95.7414 48.6381 95.2506 50.1719C95.905 49.0471 96.5901 48.0246 97.3059 47.1043C98.0217 46.184 98.7374 45.3655 99.4532 44.6497C100.169 44.0362 100.864 43.5245 101.55 43.2178C102.235 42.8088 102.889 42.6046 103.503 42.6046C104.402 43.2182 104.852 44.1381 104.852 45.2629C104.852 45.8764 104.719 46.4903 104.454 47.2061C104.188 47.8196 103.83 48.434 103.39 49.0475C102.95 49.5588 102.449 50.0704 101.887 50.4795C101.324 50.8885 100.742 51.0918 100.128 51.2963C100.333 52.0121 100.588 52.7275 100.905 53.4433C101.222 54.159 101.601 54.8764 102.04 55.5922C102.48 56.308 102.981 56.9199 103.543 57.5335C104.106 58.147 104.75 58.6583 105.466 59.0673C105.364 59.2718 105.21 59.4779 105.006 59.6824C104.801 59.8869 104.556 59.9892 104.27 60.1937C103.983 60.2959 103.666 60.4992 103.329 60.4992C102.991 60.6015 102.664 60.705 102.337 60.705C101.785 60.705 101.263 60.3974 100.783 59.8861C100.302 59.2726 99.8725 58.4542 99.4839 57.4316C99.1772 56.6136 98.8806 55.5906 98.5943 54.4658C98.308 53.2388 98.0524 52.1143 97.8274 50.785C98.1137 50.5805 98.4717 50.3772 98.9011 49.9682C99.3306 49.6614 99.7805 49.2512 100.251 48.7399C102.051 47.0016 102.95 45.4674 102.95 44.2403C102.95 44.0358 102.838 44.0366 102.613 44.0366C102.204 44.0366 101.723 44.2411 101.171 44.5479C100.619 44.9569 100.026 45.4682 99.4022 46.0817C98.7784 46.7975 98.1445 47.5141 97.5002 48.4344C96.856 49.2524 96.2425 50.2738 95.6494 51.2963C95.404 51.7053 95.179 52.1151 94.9745 52.6264C94.7699 53.24 94.586 53.7504 94.4326 54.364C94.2792 54.8752 94.1666 55.3861 94.0848 55.9996C94.003 56.5109 93.9621 57.0222 93.9621 57.5335C93.9621 57.8402 93.9929 58.0459 94.0543 58.2504C93.4203 58.1482 93.0317 58.0459 92.8885 57.7392C92.7249 57.5347 92.5817 57.3305 92.4693 57.126C92.3568 57.0238 92.2443 56.8189 92.1216 56.7166C91.9376 56.6144 91.7841 56.3072 91.6614 55.7959C91.5387 55.3869 91.4774 54.7742 91.4774 54.0584Z" fill="#A72B6B"/>
<path fill-rule="evenodd" clip-rule="evenodd" d="M33.3267 21.142C33.0738 22.0159 32.9382 22.9398 32.9382 23.895C32.9382 24.2464 32.9566 24.5934 32.9924 24.9351C29.965 24.5919 27.133 22.867 25.4939 20.028C25.2045 19.5268 24.9638 19.0107 24.7805 18.482C25.2035 18.1158 25.6701 17.7892 26.1713 17.4998C29.1572 15.7759 32.6695 15.7791 35.549 17.199C34.6863 18.1375 34.0025 19.2425 33.5515 20.4598L32.8538 20.3128C33.1947 18.8744 33.2768 17.5632 33.1171 16.6953C32.9714 17.7479 32.7378 18.9491 32.4214 20.2216L30.4949 19.8156C30.7499 18.7586 30.8123 17.7929 30.6953 17.1566C30.5883 17.9297 30.4157 18.8135 30.1816 19.7496L28.3218 19.3575C28.5198 18.5669 28.5701 17.8411 28.4829 17.3674C28.4029 17.945 28.2724 18.608 28.0947 19.3097L27.0389 19.0872L28.0657 19.4228C28.0506 19.4811 28.0352 19.5397 28.0195 19.5984C27.8534 20.2178 27.669 20.7981 27.4795 21.3119C27.7806 20.9126 28.0798 20.2604 28.2863 19.4947L30.0954 20.086C30.0822 20.1367 30.0686 20.1876 30.055 20.2386C29.8257 21.0944 29.5709 21.896 29.3091 22.6058C29.7132 22.0699 30.115 21.2039 30.3989 20.1852L32.2737 20.798C32.2601 20.8495 32.2464 20.9013 32.2326 20.953C31.9157 22.1353 31.5638 23.2427 31.2021 24.2233C31.753 23.4926 32.3009 22.318 32.6921 20.9347L33.3267 21.142Z" fill="#96C14E"/>
<path fill-rule="evenodd" clip-rule="evenodd" d="M95.5061 61.4034C95.4222 61.3853 95.3353 61.3758 95.2461 61.3758H84.215C83.5328 61.3758 82.979 61.9297 82.979 62.6119C82.979 63.2941 83.5328 63.8479 84.215 63.8479H93.9627C87.315 80.0803 71.3525 91.528 52.7372 91.528C34.122 91.528 18.1595 80.0803 11.5117 63.8479H21.1125C21.7947 63.8479 22.3485 63.2941 22.3485 62.6119C22.3485 61.9297 21.7947 61.3758 21.1125 61.3758H10.1942C10.111 61.3758 10.0298 61.3841 9.95136 61.3998C9.73679 61.3567 9.50801 61.3701 9.28746 61.4502C8.64625 61.6832 8.3148 62.3929 8.54783 63.034C15.1082 81.0893 32.4268 94 52.7372 94C73.0476 94 90.3662 81.0893 96.9267 63.034C97.1596 62.3929 96.8283 61.6832 96.1871 61.4502C95.9607 61.368 95.7256 61.356 95.5061 61.4034ZM26.7275 7.85646C26.9285 8.69976 27.1938 9.51822 27.5182 10.3065C20.4256 15.193 14.8175 22.081 11.5117 30.1522H21.1125C21.7947 30.1522 22.3485 30.7059 22.3485 31.3882C22.3485 32.0703 21.7947 32.6242 21.1125 32.6242H10.1942C10.0818 32.6242 9.97307 32.6091 9.86953 32.581C9.68265 32.6036 9.4878 32.5838 9.29906 32.515C8.6581 32.2815 8.32727 31.5716 8.56068 30.9306C12.0185 21.438 18.4511 13.3697 26.7275 7.85646ZM76.1099 6.22252C85.6567 11.7109 93.0972 20.4531 96.9137 30.9306C97.1473 31.5716 96.8164 32.2815 96.1755 32.515C95.9788 32.5866 95.7757 32.6052 95.5818 32.5779C95.475 32.6081 95.3624 32.6242 95.2461 32.6242H84.215C83.5328 32.6242 82.979 32.0703 82.979 31.3882C82.979 30.7059 83.5328 30.1522 84.215 30.1522H93.9627C90.2933 21.1931 83.7871 13.6918 75.5615 8.76687C75.8082 7.94354 75.9929 7.09376 76.1099 6.22252ZM40.791 1.53427C44.6079 0.53292 48.6108 0 52.7372 0C56.1005 0 59.3816 0.354034 62.5472 1.02717C61.5716 1.60375 60.6598 2.27726 59.8253 3.03411C57.5176 2.66423 55.1497 2.47199 52.7372 2.47199C49.463 2.47199 46.2707 2.82615 43.1993 3.49779C42.4604 2.77126 41.6541 2.11334 40.791 1.53427Z" fill="#2D4782"/>
<path fill-rule="evenodd" clip-rule="evenodd" d="M41.7576 9.01014C41.7806 8.92407 41.8 8.83974 41.8159 8.75715C41.2519 9.57101 40.548 10.4465 39.7348 11.3289L37.6672 9.48892C39.0596 7.9962 40.0502 6.4744 40.4452 5.31675C39.5526 6.48226 38.4521 7.76479 37.2022 9.07526L35.1309 7.23187C36.1595 6.13783 36.8915 5.0186 37.181 4.16982C36.5255 5.02584 35.715 5.96905 34.794 6.93198L32.7944 5.15246C33.5726 4.33923 34.1268 3.50043 34.3424 2.86858C33.8526 3.50816 33.2434 4.21485 32.55 4.93502L31.4149 3.92494L32.438 5.05079C32.3799 5.11054 32.3214 5.17017 32.2622 5.22992C31.6394 5.85927 31.0205 6.42862 30.4407 6.91426C31.0786 6.64506 31.8862 6.06972 32.6577 5.29267L34.4604 7.27665C34.4098 7.3283 34.3587 7.38019 34.3075 7.43209C33.4468 8.30158 32.5919 9.08798 31.7909 9.759C32.6473 9.39748 33.7249 8.6369 34.7628 7.60948L36.6309 9.66556C36.5794 9.71808 36.5275 9.77073 36.4753 9.82337C35.2864 11.0247 34.1054 12.1111 32.9987 13.038C34.1662 12.5452 35.6315 11.5154 37.0478 10.1244L38.9169 12.1815C38.0871 13.0124 37.2505 13.7518 36.4531 14.3733C37.3265 14.129 38.3579 13.5213 39.3268 12.6326L40.7634 14.2137C39.1689 14.5543 37.7159 15.2792 36.5064 16.2873C32.057 13.9466 28.9735 9.30143 28.8933 3.97197C28.8812 3.16473 28.9385 2.37383 29.0743 1.60826C29.8384 1.46455 30.6287 1.39918 31.436 1.40292C36.0703 1.42475 40.2109 3.72235 42.7815 7.23087C42.3817 7.784 42.0377 8.37979 41.7576 9.01014ZM41.3954 9.95311C41.1424 10.7288 40.9827 11.5461 40.9294 12.3922L40.1939 11.7376C40.7046 11.1436 41.1109 10.5324 41.3954 9.95311Z" fill="#106C3B"/>
<path d="M26.4276 69.8525C26.1815 69.4879 26.0782 69.0928 26.1207 68.6675C26.1633 68.2422 26.3821 67.8471 26.7801 67.4825C27.2236 67.0876 27.6793 66.9359 28.1411 66.9663C28.6029 67.0271 29.0434 67.3004 29.4596 67.7561L31.2703 69.7611L26.5947 73.9841L26.0387 73.3765L27.9649 71.6142L27.0231 70.5811L23.7875 70.8849L23.0887 70.0952L26.4276 69.8525ZM28.4874 71.1585L30.1918 69.6092L29.1255 68.4242C28.8186 68.09 28.5148 67.8774 28.2201 67.8166C27.9224 67.7558 27.6307 67.847 27.3421 68.1204C27.0534 68.3938 26.9168 68.6675 26.932 68.9713C26.9472 69.3055 27.1112 69.6393 27.4211 69.9735L28.4874 71.1585Z" fill="#A72B6B"/>
<path d="M31.6196 70.0341L34.8187 72.5862L34.3782 73.1327L31.8353 71.0974L28.3354 75.4723L27.6823 74.9555L31.6196 70.0341Z" fill="#A72B6B"/>
<path d="M33.6671 79.4219C33.2357 79.1485 32.9015 78.875 32.6706 78.5105C32.4367 78.1763 32.2878 77.8112 32.224 77.4163C32.1602 77.0213 32.1754 76.6264 32.2635 76.201C32.3546 75.8061 32.5096 75.4115 32.7313 75.0469C32.9501 74.6824 33.2144 74.3478 33.5243 74.0744C33.8342 73.801 34.1744 73.5884 34.5481 73.4365C34.9218 73.315 35.3168 73.2542 35.733 73.2846C36.1523 73.3454 36.5745 73.4669 37.0059 73.7403C37.4374 73.9834 37.7716 74.2873 38.0025 74.6215C38.2364 74.986 38.3822 75.3504 38.446 75.7453C38.5098 76.1403 38.4946 76.5353 38.4035 76.9303C38.3124 77.3556 38.1574 77.7203 37.9387 78.1153C37.7169 78.4798 37.4525 78.8138 37.1426 79.0872C36.8358 79.3606 36.4956 79.5733 36.1219 79.6948C35.7482 79.8467 35.3532 79.8771 34.937 79.8467C34.5208 79.8164 34.0985 79.6649 33.6671 79.4219ZM34.0195 78.8143C34.3506 78.9966 34.6727 79.1181 34.9857 79.1181C35.3016 79.1181 35.5963 79.0872 35.8758 78.9353C36.1523 78.8138 36.4044 78.6621 36.6323 78.4191C36.8601 78.2064 37.0545 77.9632 37.2156 77.6898C37.3766 77.4164 37.4981 77.1125 37.5832 76.8087C37.6713 76.5048 37.6986 76.201 37.6713 75.8972C37.6439 75.5934 37.5498 75.2901 37.3888 75.0167C37.2247 74.7736 36.9786 74.5302 36.6505 74.3479C36.3194 74.1353 35.9973 74.0441 35.6844 74.0441C35.3684 74.0137 35.0707 74.0745 34.7942 74.196C34.5177 74.3175 34.2656 74.5002 34.0377 74.7129C33.8099 74.9559 33.6155 75.1989 33.4544 75.4724C33.2934 75.7458 33.1719 76.0491 33.0838 76.3529C32.9987 76.6568 32.9714 76.9606 32.9987 77.2644C33.023 77.5682 33.1202 77.8418 33.2813 78.1153C33.4453 78.3887 33.6914 78.632 34.0195 78.8143Z" fill="#A72B6B"/>
<path d="M36.9726 80.3637L37.5499 80.5761C37.7352 80.3938 37.9296 80.2116 38.1332 79.9382C38.3397 79.6648 38.5433 79.3912 38.7438 79.057C38.9443 78.7229 39.1387 78.3584 39.3271 77.9634C39.5155 77.5989 39.6856 77.2038 39.8376 76.7785L40.275 75.5935L44.0817 77.0218L42.1252 82.2773L42.7784 82.5206L41.9885 84.6472L41.235 84.3737L41.7789 82.8849L37.477 81.3053L36.9331 82.7639L36.1797 82.4903L36.9726 80.3637ZM41.3414 81.9735L43.0488 77.3861L40.7884 76.566L40.4725 77.4164C40.3358 77.7809 40.1808 78.1151 40.0107 78.4797C39.8375 78.8443 39.6582 79.1787 39.4729 79.4825C39.2876 79.7863 39.1023 80.0595 38.92 80.3025C38.7378 80.5456 38.5676 80.728 38.4126 80.8799L41.3414 81.9735Z" fill="#A72B6B"/>
<path d="M46.2691 77.4769L47.1775 77.6591L48.3927 84.3126L47.4813 84.1305L47.1684 82.1248L44.5526 81.6389L43.4954 83.3709L42.6569 83.1882L46.2691 77.4769ZM47.0438 81.3962L46.576 78.297H46.5577L44.9475 81.001L47.0438 81.3962Z" fill="#A72B6B"/>
<path d="M51.2488 78.2066L52.0873 78.1758L52.1967 81.2447L55.2803 78.085L56.368 78.0239L53.4666 80.9409L56.6961 84.3433L55.6358 84.3736L52.8499 81.4874L52.2271 82.095L52.3091 84.4952L51.4706 84.5255L51.2488 78.2066Z" fill="#A72B6B"/>
<path d="M57.914 77.72L58.8254 77.5681L62.3769 83.3102L61.4655 83.4923L60.4477 81.7306L57.8259 82.2166L57.4705 84.2216L56.6259 84.3735L57.914 77.72ZM60.0588 81.0927L58.5003 78.3887H58.4821L57.9595 81.457L60.0588 81.0927Z" fill="#A72B6B"/>
<path d="M60.8887 77.1733L63.4953 76.2316C64.0999 76.0189 64.6103 76.0189 65.0235 76.2316C65.4366 76.4139 65.7435 76.8086 65.9379 77.3554C66.1324 77.9023 66.1324 78.3886 65.9349 78.814C65.7374 79.2393 65.3364 79.543 64.7318 79.7556L62.9151 80.3935L63.7718 82.824L62.9788 83.0975L60.8887 77.1733ZM64.2306 79.1783C64.6802 79.0264 64.9779 78.8137 65.1207 78.5707C65.2635 78.2972 65.2726 77.9936 65.145 77.629C65.0204 77.2948 64.8229 77.0515 64.5495 76.93C64.273 76.8085 63.9146 76.8392 63.4619 76.9911L61.9125 77.5376L62.6811 79.7254L64.2306 79.1783Z" fill="#A72B6B"/>
<path d="M65.3727 75.5932L69.6929 73.2541L72.6823 78.814L71.9441 79.2086L69.2919 74.2872L66.4451 75.8062L69.1004 80.7277L68.3622 81.1531L65.3727 75.5932Z" fill="#A72B6B"/>
<path d="M71.3546 72.0087L72.0898 71.4313L77.8774 74.9554L77.1422 75.5025L75.4408 74.4089L73.3233 76.049L73.9187 77.9632L73.2382 78.5103L71.3546 72.0087ZM74.8028 74.0137L72.181 72.3125L72.1658 72.3428L73.1046 75.3203L74.8028 74.0137Z" fill="#A72B6B"/>
<path d="M75.2949 69.5479L73.8245 71.0361L73.3202 70.5501L76.8474 66.9347L77.3517 67.4213L75.8813 68.9403L79.8824 72.859L79.293 73.4363L75.2949 69.5479Z" fill="#A72B6B"/>
<path fill-rule="evenodd" clip-rule="evenodd" d="M42.8376 16.4777C46.9314 16.4777 50.255 19.8013 50.255 23.895C50.255 27.9888 46.9314 31.3124 42.8376 31.3124C38.7439 31.3124 35.4203 27.9888 35.4203 23.895C35.4203 19.8013 38.7439 16.4777 42.8376 16.4777ZM41.6777 27.2188C42.3179 27.2188 42.8376 27.7386 42.8376 28.3788C42.8376 29.019 42.3179 29.5387 41.6777 29.5387C41.0375 29.5387 40.5177 29.019 40.5177 28.3788C40.5177 27.7386 41.0375 27.2188 41.6777 27.2188Z" fill="#2D4782"/>
<path fill-rule="evenodd" clip-rule="evenodd" d="M60.084 16.4877C63.9977 16.6898 67.1134 19.9315 67.1134 23.895C67.1134 27.9888 63.7898 31.3123 59.6959 31.3123C55.6022 31.3123 52.2786 27.9888 52.2786 23.895C52.2786 23.5234 52.306 23.158 52.359 22.8006C55.9202 22.2396 58.853 19.7772 60.084 16.4877ZM64.0677 23.895C64.7078 23.895 65.2276 24.4148 65.2276 25.055C65.2276 25.6952 64.7078 26.2149 64.0677 26.2149C63.4275 26.2149 62.9077 25.6952 62.9077 25.055C62.9077 24.4148 63.4275 23.895 64.0677 23.895Z" fill="#2D4782"/>
<path fill-rule="evenodd" clip-rule="evenodd" d="M43.4577 14.0147C43.4142 13.6897 43.3917 13.3584 43.3917 13.0218C43.3917 8.92814 46.7154 5.60449 50.8091 5.60449C54.9028 5.60449 58.2264 8.92814 58.2264 13.0218C58.2264 16.6842 55.5666 19.7301 52.0754 20.3314C50.7141 16.8096 47.3962 14.2586 43.4577 14.0147ZM53.4385 13.9955C54.0787 13.9955 54.5984 14.5153 54.5984 15.1555C54.5984 15.7957 54.0787 16.3154 53.4385 16.3154C52.7983 16.3154 52.2785 15.7957 52.2785 15.1555C52.2785 14.5153 52.7983 13.9955 53.4385 13.9955Z" fill="#2D4782"/>
<path fill-rule="evenodd" clip-rule="evenodd" d="M72.9509 63.6171C68.5945 70.1428 61.1643 74.4441 52.7374 74.4441C44.3106 74.4441 36.8804 70.1428 32.524 63.6171H35.5745C39.5702 68.7032 45.7751 71.9721 52.7374 71.9721C59.6998 71.9721 65.9047 68.7032 69.9003 63.6171H72.9509ZM67.0379 30.5328C70.3865 32.9783 73.0861 36.2583 74.83 40.0658H72.0776C70.4238 36.906 68.0185 34.2006 65.1005 32.1885C65.8157 31.7211 66.4667 31.164 67.0379 30.5328ZM36.8621 31.7856C37.5618 32.3167 38.3342 32.7566 39.1615 33.0882C36.7877 34.979 34.816 37.3552 33.3972 40.0658H30.6448C32.1066 36.8744 34.2396 34.0536 36.8621 31.7856Z" fill="#96C14E"/>
<path fill-rule="evenodd" clip-rule="evenodd" d="M61.7653 14.2126L63.2117 12.6205C64.1806 13.5092 65.2121 14.1169 66.0854 14.3613C65.288 13.7398 64.4515 13.0004 63.6217 12.1694L65.4907 10.1124C66.907 11.5034 68.3723 12.5332 69.5398 13.026C68.4332 12.0991 67.2522 11.0125 66.0633 9.81135C66.0112 9.7587 65.9593 9.70606 65.9076 9.65354L67.7757 7.59745C68.8136 8.62487 69.8913 9.38546 70.7476 9.74685C69.9466 9.07596 69.0917 8.28943 68.2312 7.41994C68.1798 7.36817 68.1288 7.31627 68.0781 7.26463L69.8809 5.28065C70.6523 6.0577 71.4599 6.63291 72.0979 6.90224C71.518 6.41659 70.8993 5.84725 70.2763 5.2179C70.2172 5.15814 70.1587 5.09851 70.1005 5.03876L71.1236 3.91279L69.9885 4.923C69.2953 4.20283 68.686 3.49601 68.1963 2.85643C68.4118 3.48828 68.966 4.3272 69.7442 5.14043L67.7446 6.91995C66.8235 5.95703 66.0131 5.01381 65.3575 4.15779C65.647 5.00658 66.3791 6.12581 67.4076 7.21984L65.3363 9.06311C64.0865 7.75276 62.9861 6.47024 62.0935 5.30472C62.4883 6.46238 63.4789 7.98405 64.8714 9.4769L62.8037 11.3169C61.9906 10.4343 61.2866 9.55898 60.7226 8.74501C60.8913 9.62198 61.4624 10.6992 62.3446 11.7255L60.7073 13.1826C60.7083 13.1289 60.7087 13.0755 60.7087 13.0218C60.7087 11.15 60.188 9.39881 59.2838 7.90546C61.8005 4.01334 66.172 1.4141 71.1025 1.3909C71.9099 1.38716 72.7001 1.45252 73.4642 1.59623C73.6001 2.36181 73.6573 3.15271 73.6452 3.95995C73.565 9.29389 70.4763 13.9426 66.0205 16.2814C64.8115 15.2755 63.3592 14.5521 61.7653 14.2126Z" fill="#106C3B"/>
<path fill-rule="evenodd" clip-rule="evenodd" d="M66.9786 17.1923C67.8418 18.1296 68.5264 19.2333 68.9785 20.4496L69.6847 20.3008C69.3437 18.8625 69.2616 17.5512 69.4213 16.6832C69.5671 17.736 69.8008 18.9371 70.117 20.2097L72.0435 19.8037C71.7885 18.7467 71.7261 17.781 71.8432 17.1446C71.9502 17.9177 72.1228 18.8015 72.3569 19.7376L74.2166 19.3456C74.0186 18.555 73.9684 17.8292 74.0556 17.3555C74.1355 17.9331 74.266 18.596 74.4438 19.2977L75.4995 19.0753L74.4727 19.4107C74.4879 19.4691 74.5033 19.5277 74.5191 19.5865C74.685 20.2059 74.8694 20.7862 75.0589 21.2999C74.7579 20.9007 74.4586 20.2484 74.2523 19.4828L72.4431 20.0741C72.4564 20.1248 72.4699 20.1757 72.4836 20.2267C72.7129 21.0823 72.9676 21.884 73.2294 22.5939C72.8253 22.0579 72.4235 21.192 72.1396 20.1733L70.2647 20.7859C70.2783 20.8376 70.292 20.8894 70.306 20.9411C70.6228 22.1232 70.9747 23.2307 71.3363 24.2114C70.7854 23.4806 70.2377 22.306 69.8463 20.9228L69.2043 21.1326C69.4589 22.009 69.5956 22.9362 69.5956 23.895C69.5956 24.2426 69.5776 24.5859 69.5426 24.9236C72.5716 24.5811 75.4049 22.8561 77.0446 20.0161C77.334 19.5149 77.5747 18.9987 77.7579 18.4701C77.3349 18.1039 76.8684 17.7773 76.3671 17.4879C73.3774 15.7617 69.8601 15.7672 66.9786 17.1923Z" fill="#96C14E"/>
</svg>
