<svg width="95" height="95" viewBox="0 0 95 95" fill="none" xmlns="http://www.w3.org/2000/svg">
<path d="M47.5002 95C73.7337 95 95 73.7336 95 47.5001C95 21.2666 73.7337 0 47.5002 0C21.2666 0 0 21.2666 0 47.5001C0 73.7336 21.2666 95 47.5002 95Z" fill="#ED1B24"/>
<path fill-rule="evenodd" clip-rule="evenodd" d="M47.477 76.8918L48.6091 80.363H52.25L49.3007 82.5056L50.4263 85.97L47.477 83.8276L44.5279 85.97L45.6532 82.5056L42.7039 80.363H46.3517L47.477 76.8918Z" fill="#FCEE21"/>
<path fill-rule="evenodd" clip-rule="evenodd" d="M64.1559 73.5439L65.2881 77.0152H68.929L65.9797 79.1578L67.1052 82.6222L64.1559 80.4798L61.2069 82.6222L62.3321 79.1578L59.3828 77.0152H63.0307L64.1559 73.5439Z" fill="#FCEE21"/>
<path fill-rule="evenodd" clip-rule="evenodd" d="M30.7978 73.5439L31.9299 77.0152H35.5708L32.6215 79.1578L33.7471 82.6222L30.7978 80.4798L27.8487 82.6222L28.974 79.1578L26.0247 77.0152H29.6725L30.7978 73.5439Z" fill="#FCEE21"/>
<path fill-rule="evenodd" clip-rule="evenodd" d="M77.611 66.593L78.7432 70.0643H82.3841L79.4347 72.2068L80.5603 75.6713L77.611 73.5289L74.662 75.6713L75.7872 72.2068L72.8379 70.0643H76.4857L77.611 66.593Z" fill="#FCEE21"/>
<path fill-rule="evenodd" clip-rule="evenodd" d="M18.2484 66.593L19.3806 70.0643H23.0215L20.0722 72.2068L21.1978 75.6713L18.2484 73.5289L15.2994 75.6713L16.4247 72.2068L13.4753 70.0643H17.1232L18.2484 66.593Z" fill="#FCEE21"/>
<path fill-rule="evenodd" clip-rule="evenodd" d="M38.4867 44.551C38.0104 41.5503 37.9884 37.1914 38.7667 30.8968C41.8975 5.60578 72.4645 4.51883 69.1045 5.60138C57.7807 9.25029 54.8241 15.4038 53.3513 27.3228C51.4398 42.7783 69.4638 54.3049 60.5058 65.9042C55.5208 72.3598 38.6675 64.9915 29.8175 60.4761C26.4817 58.774 37.155 62.8528 38.4889 58.9394C39.8228 55.0303 31.8635 43.6162 14.0952 38.9994C14.0952 38.9795 14.0952 38.9619 14.0952 38.942C22.5131 37.5971 29.9343 40.6485 38.4867 44.551Z" fill="#FCEE21"/>
</svg>
