<svg width="155" height="85" viewBox="0 0 155 85" fill="none" xmlns="http://www.w3.org/2000/svg">
<path d="M107.313 65.6482H104.815V50.0047H99.1031V47.7997H113.046V50.0047H107.313V65.6482Z" fill="black"/>
<path d="M117.371 65.6481H114.998V53.7002H117.371V65.6481ZM117.77 49.3955C117.77 49.8365 117.623 50.1935 117.308 50.4874C116.993 50.7604 116.615 50.9078 116.195 50.9078C115.755 50.9078 115.376 50.7604 115.083 50.4664C114.768 50.1724 114.621 49.8155 114.621 49.3955C114.621 48.9545 114.768 48.598 115.083 48.3041C115.376 48.0101 115.755 47.8627 116.195 47.8627C116.615 47.8627 116.993 48.0101 117.308 48.3041C117.623 48.598 117.77 48.9545 117.77 49.3955Z" fill="black"/>
<path d="M123.818 55.6742C124.133 55.0233 124.616 54.4988 125.267 54.0368C125.939 53.5959 126.715 53.3647 127.618 53.3647C128.437 53.3647 129.151 53.5538 129.802 53.9317C130.453 54.2887 130.957 54.9184 131.335 55.7793C131.734 55.0024 132.301 54.4148 133.015 53.9948C133.75 53.5748 134.526 53.3647 135.387 53.3647C136.164 53.3647 136.816 53.5116 137.383 53.7636C137.929 54.0366 138.39 54.3725 138.768 54.8135C139.125 55.2545 139.398 55.7584 139.587 56.3463C139.755 56.9343 139.839 57.5645 139.839 58.2365V65.6484H137.487V59.0131C137.487 58.5302 137.446 58.0684 137.362 57.6274C137.278 57.2075 137.131 56.8084 136.921 56.4724C136.732 56.1365 136.458 55.8632 136.122 55.6742C135.787 55.4643 135.346 55.3595 134.842 55.3595C134.296 55.3595 133.834 55.4853 133.456 55.6953C133.057 55.9262 132.742 56.2206 132.511 56.5985C132.259 56.9555 132.091 57.3541 131.965 57.8161C131.86 58.2571 131.818 58.7193 131.818 59.2023V65.6484H129.445V58.5302C129.445 58.0683 129.403 57.6481 129.319 57.2491C129.235 56.8711 129.088 56.5352 128.878 56.2622C128.689 55.9893 128.416 55.7587 128.101 55.6117C127.786 55.4437 127.388 55.3595 126.926 55.3595C126.044 55.3595 125.33 55.7165 124.742 56.4304C124.154 57.1443 123.88 58.1105 123.88 59.3074V65.6484H121.508V56.2622C121.508 55.9473 121.487 55.5487 121.487 55.0447C121.466 54.5407 121.445 54.0785 121.403 53.7005H123.65C123.671 54.0155 123.713 54.3515 123.713 54.7294C123.734 55.1074 123.755 55.4223 123.755 55.6742H123.818Z" fill="black"/>
<path d="M152.607 58.6143C152.586 58.1523 152.501 57.7111 152.354 57.2911C152.207 56.8712 151.997 56.5142 151.724 56.2202C151.451 55.9262 151.115 55.6746 150.695 55.5066C150.275 55.3386 149.793 55.2334 149.247 55.2334C148.743 55.2334 148.26 55.3386 147.819 55.5066C147.378 55.6746 147 55.9262 146.664 56.2202C146.328 56.5142 146.076 56.8712 145.866 57.2911C145.656 57.7111 145.53 58.1523 145.488 58.6143H152.607ZM155 59.5801V59.979C155 60.105 154.979 60.2523 154.958 60.3783H145.488C145.509 60.8823 145.614 61.3651 145.824 61.8061C146.034 62.247 146.328 62.6461 146.685 62.9611C147.021 63.297 147.441 63.5487 147.903 63.7377C148.365 63.9057 148.848 64.011 149.373 64.011C150.171 64.011 150.885 63.822 151.473 63.486C152.061 63.129 152.522 62.6879 152.858 62.2049L154.517 63.528C153.866 64.368 153.131 64.9977 152.249 65.3756C151.388 65.7746 150.423 65.9636 149.373 65.9636C148.47 65.9636 147.63 65.8167 146.853 65.5228C146.076 65.2288 145.425 64.7876 144.858 64.2417C144.312 63.6957 143.871 63.0449 143.556 62.268C143.241 61.491 143.073 60.6302 143.073 59.7062C143.073 58.7823 143.22 57.9215 143.535 57.1445C143.85 56.3676 144.291 55.6957 144.837 55.1288C145.383 54.5828 146.055 54.1626 146.811 53.8477C147.567 53.5327 148.365 53.3647 149.247 53.3647C150.129 53.3647 150.906 53.5117 151.62 53.8056C152.334 54.0786 152.942 54.4987 153.446 55.0447C153.929 55.5697 154.328 56.2205 154.58 56.9974C154.853 57.7533 155 58.6142 155 59.5801Z" fill="black"/>
<path fill-rule="evenodd" clip-rule="evenodd" d="M45.1803 64.9818L36.7207 73.4414L-3.5839e-06 36.7207L36.7207 0L73.4414 36.7207L55.8264 54.3357C55.4645 54.5663 55.1333 54.8303 54.8317 55.132C54.5381 55.4256 54.278 55.7527 54.0527 56.1094L47.5492 62.6129L47.5492 59.3658C47.5492 58.8617 47.6162 58.3791 47.7503 57.9179C47.8857 57.4554 48.0908 57.0491 48.3684 56.6966C48.6445 56.3426 48.9931 56.0611 49.4141 55.852C49.8337 55.6415 50.3297 55.5369 50.9009 55.5369C51.287 55.5369 51.6476 55.5785 51.9841 55.6629L52.0847 53.4709C51.8339 53.4026 51.5216 53.3691 51.1529 53.3704C50.3471 53.3691 49.6205 53.5835 48.973 54.0112C48.3268 54.4402 47.8348 55.0073 47.4996 55.7125H47.4245C47.4232 55.4618 47.4151 55.1374 47.3991 54.7432C47.3816 54.3477 47.3561 54.0005 47.3226 53.6962L45.0797 53.6975C45.1146 54.0836 45.1387 54.5287 45.1561 55.0314C45.1722 55.5355 45.1803 55.9485 45.1803 56.2675V64.9818ZM39.1593 51.4801C38.6217 50.8915 37.9367 50.4209 37.1041 50.0683C36.2742 49.7157 35.3451 49.5401 34.3209 49.5401C33.2792 49.5388 32.3394 49.7278 31.4975 50.1059C30.6582 50.4839 29.945 51.0014 29.3578 51.6557C28.7692 52.3113 28.3147 53.0714 27.997 53.9362C27.6766 54.8009 27.5171 55.7219 27.5171 56.6952C27.5171 57.6873 27.6766 58.6191 27.9957 59.4932C28.3161 60.366 28.7679 61.1261 29.3564 61.7736C29.9436 62.4198 30.6662 62.928 31.5243 63.298C32.381 63.6667 33.3382 63.8517 34.3973 63.8517C35.2366 63.8517 36.0088 63.7766 36.7153 63.6251C37.4192 63.4736 38.0332 63.2564 38.5534 62.9695V58.0064H34.5984L34.5971 55.8895L41.0242 55.8895L41.0229 64.5327C40.0831 65.0355 39.0574 65.4229 37.9501 65.6911C36.84 65.9592 35.632 66.0946 34.3209 66.0946C32.9266 66.0946 31.6449 65.864 30.4772 65.4015C29.3108 64.9403 28.3067 64.2927 27.4674 63.4615C26.6268 62.629 25.9713 61.6382 25.502 60.488C25.0315 59.3363 24.7955 58.0734 24.7955 56.6952C24.7955 55.3009 25.0355 54.0286 25.5141 52.877C25.9927 51.728 26.6564 50.7454 27.5036 49.9302C28.3536 49.1151 29.3578 48.481 30.5161 48.0278C31.6758 47.5734 32.9347 47.3468 34.2954 47.3481C35.7232 47.3468 36.9955 47.5573 38.1123 47.9769C39.2304 48.3979 40.1581 48.9609 40.8968 49.6648L39.1593 51.4801Z" fill="#2CB646"/>
<path fill-rule="evenodd" clip-rule="evenodd" d="M39.1319 51.4956C38.6069 50.9077 37.9141 50.4249 37.0951 50.0679C36.2552 49.7319 35.3311 49.543 34.3022 49.543C33.2523 49.543 32.3287 49.732 31.4888 50.11C30.6489 50.4879 29.9349 51.0129 29.347 51.6638C28.759 52.3147 28.2968 53.0708 27.9818 53.9318C27.6668 54.8137 27.4989 55.7378 27.4989 56.7037C27.4989 57.6906 27.6668 58.6142 27.9818 59.4961C28.2968 60.378 28.759 61.1341 29.347 61.7851C29.9349 62.436 30.6489 62.9399 31.5098 63.2969C32.3707 63.6748 33.3154 63.8639 34.3863 63.8639C35.2262 63.8639 35.9824 63.7796 36.6963 63.6327C37.4102 63.4857 38.0189 63.2551 38.5439 62.9821V58.0053H34.5755V55.9055H41.001V64.5359C40.0561 65.0399 39.0483 65.4385 37.9354 65.6904C36.8225 65.9634 35.6041 66.1108 34.3022 66.1108C32.9164 66.1108 31.6358 65.8796 30.4599 65.3967C29.284 64.9557 28.2968 64.3049 27.4568 63.465C26.6169 62.6461 25.9451 61.6378 25.4831 60.5039C25.0212 59.349 24.7695 58.0895 24.7695 56.7037C24.7695 55.2968 25.0212 54.0368 25.5042 52.8819C25.9661 51.727 26.6379 50.7397 27.4779 49.9418C28.3388 49.1229 29.3471 48.4931 30.502 48.0312C31.6569 47.5902 32.9163 47.3591 34.2812 47.3591C35.7091 47.3591 36.9691 47.5692 38.103 47.9891C39.2159 48.4091 40.14 48.9551 40.8749 49.6691L39.1319 51.4956Z" fill="white"/>
<path fill-rule="evenodd" clip-rule="evenodd" d="M47.531 62.6247V65.6483H45.1584V64.9978L47.531 62.6247Z" fill="#2CB646"/>
<path fill-rule="evenodd" clip-rule="evenodd" d="M45.1587 64.9978V56.2622C45.1587 55.9473 45.1587 55.5487 45.1377 55.0447C45.1167 54.5407 45.0956 54.0785 45.0536 53.7005H47.3005C47.3425 54.0155 47.3636 54.3515 47.3846 54.7504C47.4056 55.1494 47.4051 55.4643 47.4051 55.7163H47.4892C47.8251 55.0233 48.3085 54.4568 48.9595 54.0158C49.6104 53.5958 50.3239 53.3647 51.1428 53.3647C51.4998 53.3647 51.8152 53.4068 52.0671 53.4698L51.962 55.6742C51.6261 55.5902 51.2691 55.5486 50.8911 55.5486C50.3032 55.5486 49.8203 55.6534 49.4003 55.8634C48.9804 56.0734 48.6234 56.3467 48.3504 56.7036C48.0775 57.0606 47.8674 57.4592 47.7414 57.9212C47.5944 58.3831 47.5312 58.866 47.5312 59.3699V62.6248L45.1587 64.9978Z" fill="white"/>
<path fill-rule="evenodd" clip-rule="evenodd" d="M55.8041 54.3516C56.119 54.1416 56.4344 53.9947 56.7704 53.8477C57.5263 53.5327 58.3451 53.3647 59.227 53.3647C60.0879 53.3647 60.8856 53.5117 61.5996 53.8056C62.3135 54.0786 62.9227 54.4987 63.4266 55.0447C63.9096 55.5697 64.2876 56.2205 64.5606 56.9974C64.8336 57.7533 64.9595 58.6142 64.9595 59.5801V59.979C64.9595 60.105 64.9594 60.2523 64.9384 60.3783H55.4683C55.4893 60.8823 55.5941 61.3651 55.8041 61.8061C56.014 62.247 56.3083 62.6461 56.6443 62.9611C57.0013 63.297 57.4214 63.5487 57.8834 63.7377C58.3453 63.9057 58.8282 64.011 59.3531 64.011C60.1511 64.011 60.844 63.822 61.4319 63.486C62.0199 63.129 62.4816 62.6879 62.8176 62.2049L64.4976 63.528C63.8466 64.368 63.0905 64.9977 62.2296 65.3756C61.3687 65.7746 60.403 65.9636 59.3531 65.9636C58.4502 65.9636 57.6104 65.8167 56.8335 65.5228C56.0565 65.2288 55.3842 64.7876 54.8382 64.2417C54.2923 63.6957 53.8516 63.0449 53.5366 62.268C53.2007 61.491 53.0537 60.6302 53.0537 59.7062C53.0537 58.7823 53.2006 57.9215 53.5156 57.1445C53.6626 56.7666 53.8306 56.4306 54.0406 56.1156L55.8041 54.3516ZM62.5659 58.6143C62.5659 58.1523 62.4817 57.7111 62.3347 57.2911C62.1877 56.8712 61.9776 56.5142 61.7046 56.2202C61.4317 55.9262 61.0747 55.6746 60.6758 55.5066C60.2558 55.3386 59.773 55.2334 59.227 55.2334C58.7231 55.2334 58.2403 55.3386 57.7993 55.5066C57.3583 55.6746 56.9593 55.9262 56.6443 56.2202C56.3083 56.5142 56.0351 56.8712 55.8251 57.2911C55.6151 57.7111 55.5103 58.1523 55.4683 58.6143H62.5659Z" fill="#2CB646"/>
<path fill-rule="evenodd" clip-rule="evenodd" d="M54.041 56.1157C54.251 55.7587 54.5237 55.4228 54.8177 55.1288C55.1117 54.8348 55.4476 54.5826 55.8045 54.3516L54.041 56.1157Z" fill="#39E407"/>
<path fill-rule="evenodd" clip-rule="evenodd" d="M79.4068 59.5801V59.979C79.4068 60.105 79.4067 60.2523 79.3857 60.3783H69.9156C69.9156 60.8823 70.0414 61.3651 70.2514 61.8061C70.4614 62.247 70.7341 62.6461 71.0911 62.9611C71.4481 63.297 71.8472 63.5487 72.3091 63.7377C72.7711 63.9057 73.275 64.011 73.7789 64.011C74.5978 64.011 75.2908 63.822 75.8787 63.486C76.4667 63.129 76.9289 62.6879 77.2649 62.2049L78.9233 63.528C78.2934 64.368 77.5378 64.9977 76.6769 65.3756C75.816 65.7746 74.8498 65.9636 73.7789 65.9636C72.876 65.9636 72.0362 65.8167 71.2592 65.5228C70.5033 65.2288 69.8315 64.7876 69.2856 64.2417C68.7186 63.6957 68.2774 63.0449 67.9624 62.268C67.6474 61.491 67.4795 60.6302 67.4795 59.7062C67.4795 58.7823 67.6474 57.9215 67.9624 57.1445C68.2564 56.3676 68.6976 55.6957 69.2435 55.1288C69.8105 54.5828 70.4613 54.1626 71.2172 53.8477C71.9731 53.5327 72.7919 53.3647 73.6528 53.3647C74.5347 53.3647 75.3329 53.5117 76.0469 53.8056C76.7608 54.0786 77.3695 54.4987 77.8524 55.0447C78.3564 55.5697 78.7344 56.2205 79.0074 56.9974C79.2804 57.7533 79.4068 58.6142 79.4068 59.5801ZM77.0127 58.6143C76.9917 58.1523 76.908 57.7111 76.782 57.2911C76.635 56.8712 76.4249 56.5142 76.152 56.2202C75.858 55.9262 75.522 55.6746 75.1021 55.5066C74.7031 55.3386 74.2197 55.2334 73.6528 55.2334C73.1488 55.2334 72.6871 55.3386 72.2461 55.5066C71.7841 55.6746 71.406 55.9262 71.0701 56.2202C70.7551 56.5142 70.4824 56.8712 70.2724 57.2911C70.0624 57.7111 69.9366 58.1523 69.9156 58.6143H77.0127Z" fill="#2CB646"/>
<path fill-rule="evenodd" clip-rule="evenodd" d="M84.8447 53.7005C84.8867 54.0155 84.9078 54.3515 84.9288 54.7294C84.9498 55.1074 84.9498 55.4223 84.9498 55.6742H85.0339C85.1809 55.3383 85.3909 55.0444 85.6429 54.7715C85.8949 54.4985 86.2097 54.2468 86.5457 54.0368C86.8817 53.8268 87.2387 53.6799 87.6376 53.5539C88.0576 53.4279 88.4772 53.3647 88.8972 53.3647C89.6741 53.3647 90.3465 53.5116 90.8924 53.7636C91.4594 54.0366 91.9211 54.3725 92.2781 54.8135C92.6561 55.2545 92.9288 55.7584 93.0968 56.3463C93.2858 56.9343 93.3701 57.5645 93.3701 58.2365V65.6484H90.997V59.0131C90.997 58.5302 90.9554 58.0684 90.8924 57.6274C90.8084 57.2075 90.661 56.8084 90.4721 56.4724C90.2621 56.1365 89.9893 55.8632 89.6323 55.6742C89.2754 55.4643 88.8346 55.3595 88.2677 55.3595C87.3438 55.3595 86.5666 55.7165 85.9787 56.4304C85.3697 57.1443 85.0759 58.1105 85.0759 59.3074V65.6484H82.7029V56.2622C82.7029 55.9473 82.7029 55.5487 82.6819 55.0447C82.6609 54.5407 82.6398 54.0785 82.5978 53.7005H84.8447Z" fill="#2CB646"/>
<path d="M37.0375 77.2986H36.3431V82.9559H37.0375V77.2986Z" fill="#4D4D4D"/>
<path d="M44.6305 82.453C44.3708 82.6732 44.1224 82.8255 43.8853 82.9158C43.6482 83.0062 43.3942 83.0513 43.1175 83.0513C42.6716 83.0513 42.3215 82.9441 42.0844 82.724C41.8416 82.5038 41.7174 82.2215 41.7174 81.8771C41.7174 81.6796 41.7626 81.4931 41.8529 81.3294C41.9489 81.1601 42.0674 81.0302 42.2142 80.9286C42.361 80.827 42.5304 80.7537 42.7167 80.7028C42.8522 80.6633 43.0554 80.6295 43.3321 80.5956C43.891 80.5279 44.3087 80.4487 44.5684 80.3584C44.574 80.2624 44.5741 80.2004 44.5741 80.1779C44.5741 79.8956 44.5063 79.6923 44.3765 79.5794C44.2015 79.4213 43.9361 79.3423 43.5861 79.3423C43.2587 79.3423 43.0215 79.3987 42.8635 79.5116C42.7054 79.6301 42.5925 79.8334 42.5191 80.1213L41.836 80.0311C41.8981 79.7375 41.9997 79.506 42.1408 79.3254C42.282 79.1447 42.4909 79.0092 42.7562 78.9133C43.0272 78.8173 43.332 78.7665 43.6877 78.7665C44.0377 78.7665 44.32 78.806 44.5401 78.8907C44.7603 78.9753 44.9184 79.077 45.0201 79.2012C45.1273 79.3254 45.195 79.4834 45.2402 79.6753C45.2628 79.7939 45.2741 80.0085 45.2741 80.3133V81.2391C45.2741 81.8884 45.291 82.2948 45.3192 82.4642C45.3475 82.6392 45.4039 82.803 45.4943 82.961H44.766C44.6982 82.8143 44.6474 82.6449 44.6305 82.453ZM44.5684 80.9005C44.32 81.0021 43.9417 81.0924 43.4337 81.1658C43.1514 81.2053 42.9482 81.2505 42.8296 81.3013C42.7111 81.3521 42.6207 81.4311 42.5586 81.5271C42.4908 81.6287 42.4626 81.736 42.4626 81.8602C42.4626 82.0465 42.5304 82.1988 42.6715 82.323C42.8127 82.4472 43.0159 82.5094 43.2869 82.5094C43.5522 82.5094 43.7893 82.4472 43.9982 82.3343C44.2071 82.2158 44.3596 82.0521 44.4612 81.8489C44.5346 81.6965 44.5684 81.465 44.5684 81.1545V80.9005Z" fill="#4D4D4D"/>
<path d="M50.1913 82.961V78.8624H50.8179V79.4439C51.1171 78.9923 51.5519 78.7665 52.1221 78.7665C52.3705 78.7665 52.5963 78.8116 52.7995 78.902C53.0084 78.9923 53.1665 79.1051 53.2681 79.2519C53.3697 79.3931 53.4431 79.5682 53.4826 79.7657C53.5109 79.8899 53.5221 80.1157 53.5221 80.4375V82.961H52.8277V80.4658C52.8277 80.1835 52.7995 79.9689 52.7487 79.8278C52.6922 79.6923 52.5963 79.5793 52.4608 79.4946C52.3196 79.4099 52.1616 79.3704 51.9753 79.3704C51.6761 79.3704 51.422 79.4664 51.2075 79.6527C50.993 79.839 50.8857 80.1948 50.8857 80.7198V82.961H50.1913Z" fill="#4D4D4D"/>
<path d="M61.0871 82.961V82.4417C60.8274 82.8482 60.4435 83.0513 59.9411 83.0513C59.6136 83.0513 59.3144 82.961 59.0378 82.7803C58.7668 82.5997 58.5523 82.3514 58.4055 82.0296C58.2531 81.7021 58.1797 81.3351 58.1797 80.9116C58.1797 80.5052 58.2474 80.1326 58.3829 79.7995C58.5184 79.4664 58.7217 79.2124 58.9983 79.0318C59.2693 78.8568 59.5742 78.7665 59.9072 78.7665C60.1556 78.7665 60.3758 78.8173 60.5677 78.9246C60.7597 79.0262 60.9178 79.1617 61.042 79.331V77.2986H61.7307V82.961H61.0871ZM58.891 80.9116C58.891 81.4367 59.0039 81.8319 59.2241 82.0916C59.4443 82.3513 59.704 82.4811 60.0088 82.4811C60.308 82.4811 60.5677 82.357 60.7822 82.1086C60.9911 81.8602 61.0984 81.4819 61.0984 80.9682C61.0984 80.4092 60.9911 79.9972 60.7766 79.7375C60.5564 79.4721 60.2911 79.3423 59.975 79.3423C59.6645 79.3423 59.4104 79.4665 59.2016 79.7205C58.9927 79.9746 58.891 80.3697 58.891 80.9116Z" fill="#4D4D4D"/>
<path d="M66.3883 81.736L67.0714 81.6286C67.1109 81.8996 67.2182 82.1142 67.3932 82.261C67.5739 82.4078 67.8166 82.4811 68.1327 82.4811C68.4545 82.4811 68.6916 82.4135 68.8441 82.2836C69.0021 82.1538 69.0756 82.0013 69.0756 81.8263C69.0756 81.6739 69.0078 81.5497 68.8723 81.4594C68.7764 81.3973 68.5392 81.3182 68.161 81.2222C67.6529 81.0923 67.2972 80.9795 67.1053 80.8892C66.9077 80.7932 66.7552 80.6633 66.6536 80.4995C66.552 80.3302 66.5012 80.1495 66.5012 79.9463C66.5012 79.7656 66.5463 79.5963 66.631 79.4383C66.7101 79.2858 66.823 79.156 66.9698 79.0544C67.0771 78.9754 67.2238 78.9076 67.4101 78.8511C67.5964 78.7947 67.7997 78.7665 68.0142 78.7665C68.336 78.7665 68.6183 78.8116 68.861 78.9076C69.1038 78.9979 69.2844 79.1221 69.3973 79.2858C69.5102 79.4382 69.5949 79.6527 69.6345 79.918L68.957 80.0085C68.9287 79.7996 68.8384 79.6358 68.6916 79.5172C68.5392 79.3987 68.3303 79.3367 68.0593 79.3367C67.7432 79.3367 67.5174 79.393 67.3763 79.4946C67.2408 79.6019 67.173 79.7262 67.173 79.8673C67.173 79.9577 67.2012 80.0366 67.2577 80.11C67.3141 80.1834 67.4045 80.2456 67.5231 80.2964C67.5964 80.3246 67.7997 80.3811 68.1384 80.4714C68.6295 80.6069 68.9739 80.7141 69.1658 80.7931C69.3634 80.8778 69.5159 81.0021 69.6232 81.1602C69.7361 81.3182 69.7925 81.5157 69.7925 81.7528C69.7925 81.9843 69.7247 82.2046 69.5892 82.4078C69.4538 82.611 69.2562 82.769 69.0022 82.8819C68.7481 82.9948 68.4602 83.0513 68.1384 83.0513C67.6077 83.0513 67.2012 82.9385 66.9189 82.7183C66.6423 82.4981 66.4617 82.1707 66.3883 81.736Z" fill="#4D4D4D"/>
<path d="M77.1316 81.4594L77.8147 81.544C77.7413 82.0182 77.5493 82.3852 77.2445 82.6505C76.934 82.9158 76.5557 83.0513 76.1097 83.0513C75.5508 83.0513 75.0992 82.8707 74.7548 82.5037C74.4161 82.1368 74.2467 81.6061 74.2467 80.923C74.2467 80.4826 74.3201 80.0932 74.4669 79.7657C74.6137 79.4327 74.8339 79.1842 75.1331 79.0148C75.4323 78.8511 75.7597 78.7665 76.1154 78.7665C76.5557 78.7665 76.9227 78.8793 77.205 79.1051C77.4873 79.3309 77.6679 79.6527 77.7526 80.0648L77.0751 80.1665C77.013 79.8956 76.8944 79.6866 76.7307 79.5455C76.567 79.41 76.3695 79.3367 76.138 79.3367C75.7936 79.3367 75.5057 79.4665 75.2855 79.7149C75.071 79.9633 74.958 80.364 74.958 80.906C74.958 81.4536 75.0653 81.8545 75.2742 82.1086C75.4887 82.357 75.7597 82.4811 76.1041 82.4811C76.3751 82.4811 76.6009 82.3965 76.7872 82.2271C76.9678 82.0634 77.0864 81.8038 77.1316 81.4594Z" fill="#4D4D4D"/>
<path d="M84.928 82.453C84.6683 82.6732 84.4199 82.8255 84.1828 82.9158C83.9457 83.0062 83.6917 83.0513 83.415 83.0513C82.969 83.0513 82.619 82.9441 82.3762 82.724C82.1391 82.5038 82.0149 82.2215 82.0149 81.8771C82.0149 81.6796 82.0601 81.4931 82.1504 81.3294C82.2464 81.1601 82.3649 81.0302 82.5117 80.9286C82.6585 80.827 82.8279 80.7537 83.0142 80.7028C83.1496 80.6633 83.3529 80.6295 83.6295 80.5956C84.1884 80.5279 84.6005 80.4487 84.8659 80.3584C84.8715 80.2624 84.8715 80.2004 84.8715 80.1779C84.8715 79.8956 84.8038 79.6923 84.674 79.5794C84.499 79.4213 84.2336 79.3423 83.8836 79.3423C83.5561 79.3423 83.3134 79.3987 83.1609 79.5116C83.0029 79.6301 82.89 79.8334 82.8166 80.1213L82.1335 80.0311C82.1956 79.7375 82.2972 79.506 82.4383 79.3254C82.5794 79.1447 82.7884 79.0092 83.0537 78.9133C83.319 78.8173 83.6295 78.7665 83.9852 78.7665C84.3352 78.7665 84.6175 78.806 84.8376 78.8907C85.0578 78.9753 85.2159 79.077 85.3176 79.2012C85.4248 79.3254 85.4925 79.4834 85.5377 79.6753C85.5602 79.7939 85.5716 80.0085 85.5716 80.3133V81.2391C85.5716 81.8884 85.5828 82.2948 85.6111 82.4642C85.6449 82.6392 85.7014 82.803 85.7918 82.961H85.0635C84.9901 82.8143 84.9449 82.6449 84.928 82.453ZM84.8659 80.9005C84.6175 81.0021 84.2392 81.0924 83.7311 81.1658C83.4489 81.2053 83.2457 81.2505 83.1271 81.3013C83.0085 81.3521 82.9182 81.4311 82.8505 81.5271C82.7884 81.6287 82.7545 81.736 82.7545 81.8602C82.7545 82.0465 82.8279 82.1988 82.969 82.323C83.1045 82.4472 83.3134 82.5094 83.5844 82.5094C83.8497 82.5094 84.0868 82.4472 84.2957 82.3343C84.5046 82.2158 84.657 82.0521 84.753 81.8489C84.832 81.6965 84.8659 81.465 84.8659 81.1545V80.9005Z" fill="#4D4D4D"/>
<path d="M90.4888 84.5305V78.8624H91.1211V79.3931C91.2678 79.1842 91.4372 79.0262 91.6292 78.9246C91.8155 78.8173 92.0413 78.7665 92.3122 78.7665C92.6566 78.7665 92.9671 78.8568 93.2325 79.0375C93.5034 79.2181 93.7067 79.4721 93.8422 79.7995C93.9777 80.1269 94.0454 80.4883 94.0454 80.8779C94.0454 81.2957 93.972 81.6739 93.8196 82.0126C93.6672 82.3457 93.4526 82.6053 93.1647 82.7803C92.8768 82.961 92.5776 83.0513 92.2615 83.0513C92.03 83.0513 91.8211 83.0005 91.6348 82.9045C91.4542 82.8086 91.3017 82.6844 91.1832 82.532V84.5305H90.4888ZM91.1154 80.9343C91.1154 81.4593 91.2227 81.8489 91.4372 82.1029C91.6518 82.357 91.9115 82.4811 92.2107 82.4811C92.5212 82.4811 92.7865 82.3513 93.0067 82.086C93.2269 81.8263 93.3341 81.4255 93.3341 80.8722C93.3341 80.3529 93.2269 79.9633 93.0124 79.7036C92.7978 79.4439 92.5437 79.3141 92.2445 79.3141C91.9453 79.3141 91.6857 79.4496 91.4598 79.7262C91.2284 80.0028 91.1154 80.4036 91.1154 80.9343Z" fill="#4D4D4D"/>
<path d="M101.531 81.6399L102.248 81.7304C102.135 82.1481 101.926 82.4699 101.622 82.707C101.311 82.9328 100.922 83.0513 100.447 83.0513C99.8433 83.0513 99.369 82.865 99.019 82.4981C98.669 82.1311 98.494 81.6117 98.494 80.9456C98.494 80.2568 98.669 79.7206 99.0247 79.3367C99.3803 78.9584 99.8433 78.7665 100.408 78.7665C100.955 78.7665 101.401 78.9528 101.751 79.3254C102.096 79.698 102.271 80.223 102.271 80.9005C102.271 80.9457 102.271 81.002 102.265 81.0867H99.211C99.2392 81.5383 99.3634 81.8828 99.5949 82.1199C99.8207 82.3626 100.109 82.4811 100.447 82.4811C100.701 82.4811 100.922 82.4134 101.102 82.278C101.283 82.1481 101.424 81.9335 101.531 81.6399ZM99.2505 80.5165H101.537C101.509 80.1721 101.418 79.9125 101.277 79.7431C101.057 79.4722 100.769 79.3367 100.413 79.3367C100.097 79.3367 99.8263 79.4438 99.6118 79.6584C99.3916 79.8729 99.2731 80.1552 99.2505 80.5165Z" fill="#4D4D4D"/>
<path d="M115.656 82.961V82.4417C115.397 82.8482 115.018 83.0513 114.51 83.0513C114.183 83.0513 113.884 82.961 113.613 82.7803C113.336 82.5997 113.122 82.3514 112.975 82.0296C112.822 81.7021 112.749 81.3351 112.749 80.9116C112.749 80.5052 112.817 80.1326 112.952 79.7995C113.088 79.4664 113.291 79.2124 113.567 79.0318C113.838 78.8568 114.143 78.7665 114.482 78.7665C114.725 78.7665 114.945 78.8173 115.143 78.9246C115.335 79.0262 115.493 79.1617 115.611 79.331V77.2986H116.3V82.961H115.656ZM113.46 80.9116C113.46 81.4367 113.573 81.8319 113.793 82.0916C114.013 82.3513 114.279 82.4811 114.578 82.4811C114.883 82.4811 115.137 82.357 115.351 82.1086C115.56 81.8602 115.668 81.4819 115.668 80.9682C115.668 80.4092 115.56 79.9972 115.346 79.7375C115.131 79.4721 114.86 79.3423 114.544 79.3423C114.239 79.3423 113.98 79.4665 113.771 79.7205C113.567 79.9746 113.46 80.3697 113.46 80.9116Z" fill="#4D4D4D"/>
<path d="M124.04 81.6399L124.757 81.7304C124.644 82.1481 124.435 82.4699 124.13 82.707C123.825 82.9328 123.43 83.0513 122.956 83.0513C122.357 83.0513 121.883 82.865 121.533 82.4981C121.178 82.1311 121.003 81.6117 121.003 80.9456C121.003 80.2568 121.183 79.7206 121.539 79.3367C121.889 78.9584 122.352 78.7665 122.916 78.7665C123.464 78.7665 123.916 78.9528 124.26 79.3254C124.61 79.698 124.779 80.223 124.779 80.9005C124.779 80.9457 124.779 81.002 124.779 81.0867H121.72C121.748 81.5383 121.872 81.8828 122.103 82.1199C122.335 82.3626 122.617 82.4811 122.962 82.4811C123.216 82.4811 123.43 82.4134 123.611 82.278C123.791 82.1481 123.938 81.9335 124.04 81.6399ZM121.759 80.5165H124.051C124.017 80.1721 123.933 79.9125 123.786 79.7431C123.566 79.4722 123.278 79.3367 122.928 79.3367C122.606 79.3367 122.341 79.4438 122.12 79.6584C121.906 79.8729 121.782 80.1552 121.759 80.5165Z" fill="#4D4D4D"/>
<path d="M129.194 81.736L129.883 81.6286C129.917 81.8996 130.024 82.1142 130.205 82.261C130.38 82.4078 130.628 82.4811 130.944 82.4811C131.26 82.4811 131.498 82.4135 131.65 82.2836C131.808 82.1538 131.881 82.0013 131.881 81.8263C131.881 81.6739 131.814 81.5497 131.678 81.4594C131.582 81.3973 131.345 81.3182 130.967 81.2222C130.459 81.0923 130.109 80.9795 129.911 80.8892C129.714 80.7932 129.567 80.6633 129.46 80.4995C129.358 80.3302 129.313 80.1495 129.313 79.9463C129.313 79.7656 129.352 79.5963 129.437 79.4383C129.522 79.2858 129.635 79.156 129.776 79.0544C129.883 78.9754 130.03 78.9076 130.222 78.8511C130.408 78.7947 130.606 78.7665 130.82 78.7665C131.142 78.7665 131.424 78.8116 131.667 78.9076C131.91 78.9979 132.09 79.1221 132.203 79.2858C132.322 79.4382 132.401 79.6527 132.446 79.918L131.763 80.0085C131.735 79.7996 131.644 79.6358 131.498 79.5172C131.351 79.3987 131.142 79.3367 130.871 79.3367C130.549 79.3367 130.323 79.393 130.188 79.4946C130.047 79.6019 129.979 79.7262 129.979 79.8673C129.979 79.9577 130.013 80.0366 130.064 80.11C130.126 80.1834 130.21 80.2456 130.335 80.2964C130.402 80.3246 130.606 80.3811 130.944 80.4714C131.435 80.6069 131.78 80.7141 131.977 80.7931C132.169 80.8778 132.322 81.0021 132.429 81.1602C132.542 81.3182 132.598 81.5157 132.598 81.7528C132.598 81.9843 132.531 82.2046 132.395 82.4078C132.26 82.611 132.068 82.769 131.814 82.8819C131.554 82.9948 131.266 83.0513 130.944 83.0513C130.414 83.0513 130.007 82.9385 129.731 82.7183C129.448 82.4981 129.273 82.1707 129.194 81.736Z" fill="#4D4D4D"/>
<path d="M137.267 78.1002V77.2986H137.962V78.1002H137.267ZM137.267 82.961V78.8624H137.962V82.961H137.267Z" fill="#4D4D4D"/>
<path d="M142.732 83.2998L143.409 83.4014C143.438 83.6046 143.517 83.7571 143.647 83.8531C143.816 83.9829 144.053 84.0449 144.352 84.0449C144.674 84.0449 144.922 83.9829 145.097 83.8531C145.272 83.7232 145.391 83.5425 145.453 83.311C145.487 83.1699 145.504 82.8764 145.504 82.4247C145.199 82.7804 144.821 82.961 144.369 82.961C143.805 82.961 143.37 82.7578 143.059 82.3513C142.749 81.9448 142.597 81.4537 142.597 80.8892C142.597 80.494 142.664 80.1326 142.811 79.8052C142.952 79.4721 143.155 79.2181 143.426 79.0375C143.692 78.8568 144.008 78.7665 144.369 78.7665C144.855 78.7665 145.256 78.964 145.566 79.3535V78.8624H146.21V82.4021C146.21 83.0401 146.142 83.4917 146.012 83.757C145.882 84.028 145.679 84.2369 145.397 84.3894C145.114 84.5474 144.77 84.6208 144.358 84.6208C143.867 84.6208 143.472 84.5135 143.172 84.2933C142.868 84.0731 142.726 83.7402 142.732 83.2998ZM143.308 80.8383C143.308 81.3747 143.415 81.7642 143.63 82.0126C143.844 82.261 144.11 82.3852 144.431 82.3852C144.753 82.3852 145.018 82.261 145.239 82.0126C145.453 81.7699 145.56 81.386 145.56 80.8609C145.56 80.3585 145.448 79.9802 145.227 79.7262C145.002 79.4721 144.736 79.3423 144.42 79.3423C144.115 79.3423 143.85 79.4665 143.635 79.7205C143.421 79.9689 143.308 80.3415 143.308 80.8383Z" fill="#4D4D4D"/>
<path d="M151.099 82.961V78.8624H151.725V79.4439C152.025 78.9923 152.459 78.7665 153.029 78.7665C153.278 78.7665 153.504 78.8116 153.712 78.902C153.916 78.9923 154.074 79.1051 154.175 79.2519C154.277 79.3931 154.35 79.5682 154.39 79.7657C154.418 79.8899 154.429 80.1157 154.429 80.4375V82.961H153.735V80.4658C153.735 80.1835 153.707 79.9689 153.656 79.8278C153.6 79.6923 153.504 79.5793 153.368 79.4946C153.227 79.4099 153.069 79.3704 152.883 79.3704C152.589 79.3704 152.329 79.4664 152.115 79.6527C151.9 79.839 151.793 80.1948 151.793 80.7198V82.961H151.099Z" fill="#4D4D4D"/>
</svg>
