<svg width="119" height="74" viewBox="0 0 119 74" fill="none" xmlns="http://www.w3.org/2000/svg">
<path d="M118.686 0H0V72.2088H118.686V0Z" fill="white"/>
<path d="M118.686 0H0V59.9094H118.686V0Z" fill="url(#paint0_linear_46_3340)"/>
<path fill-rule="evenodd" clip-rule="evenodd" d="M24.4599 17.4456C30.5923 17.4456 35.571 23.7592 35.571 31.5362C35.571 39.3132 30.5923 45.6268 24.4599 45.6268C18.3275 45.6268 13.3484 39.3132 13.3484 31.5362C13.3484 23.7592 18.3275 17.4456 24.4599 17.4456ZM23.8982 19.6092C24.052 19.5993 24.2065 19.5944 24.3621 19.5944C29.4972 19.5944 33.6666 24.9457 33.6666 31.5362C33.6666 38.1271 29.4972 43.4779 24.3621 43.4779C24.2065 43.4779 24.052 43.473 23.8982 43.4632V19.6092Z" fill="black"/>
<path fill-rule="evenodd" clip-rule="evenodd" d="M39.7106 36.1029C42.3051 36.1029 44.4113 38.2095 44.4113 40.8037C44.4113 43.3983 42.3051 45.5048 39.7106 45.5048C37.116 45.5048 35.0094 43.3983 35.0094 40.8037C35.0094 38.2095 37.116 36.1029 39.7106 36.1029Z" fill="black"/>
<path fill-rule="evenodd" clip-rule="evenodd" d="M79.4996 36.1029C82.0942 36.1029 84.2004 38.2095 84.2004 40.8037C84.2004 43.3983 82.0942 45.5048 79.4996 45.5048C76.905 45.5048 74.7985 43.3983 74.7985 40.8037C74.7985 38.2095 76.905 36.1029 79.4996 36.1029Z" fill="black"/>
<path fill-rule="evenodd" clip-rule="evenodd" d="M107.632 36.1029C110.226 36.1029 112.333 38.2095 112.333 40.8037C112.333 43.3983 110.226 45.5048 107.632 45.5048C105.038 45.5048 102.931 43.3983 102.931 40.8037C102.931 38.2095 105.038 36.1029 107.632 36.1029Z" fill="black"/>
<path fill-rule="evenodd" clip-rule="evenodd" d="M51.3357 16.1115L44.9896 43.9014C44.9896 43.9014 44.7267 45.2046 46.4328 44.9696C48.139 44.7347 48.0159 41.9992 48.0159 41.9992L49.7436 32.9312L55.7184 43.478H56.0939L61.7447 32.5213L64.3736 44.5908L64.6977 44.6078L74.6674 44.5908L68.6434 16.6599L68.7039 16.099H68.0436L60.0034 31.5362L52.0088 16.099L51.3357 16.1115Z" fill="black"/>
<path fill-rule="evenodd" clip-rule="evenodd" d="M99.5628 22.0693C99.5628 22.0693 100.656 22.101 100.47 20.9543C100.283 19.8071 97.2953 15.6461 89.4534 18.1534C86.0558 19.2398 84.2442 24.5132 85.845 29.4523C87.9391 35.9133 96.0167 41.388 93.5219 42.9699C92.0929 43.8757 90.2111 43.2869 89.1406 42.3252C88.0698 41.3639 86.7806 39.1787 85.5353 39.7687C84.2895 40.3587 85.442 43.4289 90.0007 45.3515C94.5595 47.2745 102.401 44.1651 101.828 37.391C101.254 30.6172 95.1272 25.1973 93.9887 22.7507C92.4299 19.3999 93.9785 19.0596 95.7689 19.7463C97.1121 20.2615 98.5418 22.1721 99.5628 22.0693Z" fill="black"/>
<path fill-rule="evenodd" clip-rule="evenodd" d="M25.116 17.4456C31.2484 17.4456 36.2272 23.7592 36.2272 31.5362C36.2272 39.3132 31.2484 45.6268 25.116 45.6268C18.9833 45.6268 14.0045 39.3132 14.0045 31.5362C14.0045 23.7592 18.9833 17.4456 25.116 17.4456ZM24.5544 19.6092C24.7081 19.5993 24.8626 19.5944 25.0182 19.5944C30.1534 19.5944 34.3223 24.9457 34.3223 31.5362C34.3223 38.1271 30.1534 43.4779 25.0182 43.4779C24.8626 43.4779 24.7081 43.473 24.5544 43.4632V19.6092Z" fill="#989898"/>
<path fill-rule="evenodd" clip-rule="evenodd" d="M40.3667 36.1029C42.9609 36.1029 45.0675 38.2095 45.0675 40.8037C45.0675 43.3983 42.9609 45.5048 40.3667 45.5048C37.7721 45.5048 35.6655 43.3983 35.6655 40.8037C35.6655 38.2095 37.7721 36.1029 40.3667 36.1029Z" fill="#989898"/>
<path fill-rule="evenodd" clip-rule="evenodd" d="M80.1554 36.1029C82.75 36.1029 84.8565 38.2095 84.8565 40.8037C84.8565 43.3983 82.75 45.5048 80.1554 45.5048C77.5612 45.5048 75.4546 43.3983 75.4546 40.8037C75.4546 38.2095 77.5612 36.1029 80.1554 36.1029Z" fill="#989898"/>
<path fill-rule="evenodd" clip-rule="evenodd" d="M108.288 36.1029C110.883 36.1029 112.989 38.2095 112.989 40.8037C112.989 43.3983 110.883 45.5048 108.288 45.5048C105.693 45.5048 103.587 43.3983 103.587 40.8037C103.587 38.2095 105.693 36.1029 108.288 36.1029Z" fill="#989898"/>
<path fill-rule="evenodd" clip-rule="evenodd" d="M51.992 16.1115L45.6458 43.9014C45.6458 43.9014 45.3829 45.2046 47.0891 44.9696C48.7949 44.7347 48.6721 41.9992 48.6721 41.9992L50.3995 32.9312L56.3747 43.478H56.7501L62.4005 32.5213L65.0295 44.5908L65.354 44.6078L75.3236 44.5908L69.6423 16.099H68.6998L60.6592 31.5362L52.9416 16.099L51.992 16.1115Z" fill="#989898"/>
<path fill-rule="evenodd" clip-rule="evenodd" d="M100.219 22.0693C100.219 22.0693 101.312 22.101 101.126 20.9543C100.939 19.8071 97.9515 15.6461 90.1096 18.1534C86.7115 19.2398 84.9004 24.5132 86.5011 29.4523C88.5953 35.9133 96.6725 41.388 94.1776 42.9699C92.7487 43.8757 90.8673 43.2869 89.7964 42.3252C88.7259 41.3639 87.4368 39.1787 86.191 39.7687C84.9457 40.3587 86.0981 43.4289 90.6569 45.3515C95.2156 47.2745 103.058 44.1651 102.484 37.391C101.91 30.6172 95.783 25.1973 94.6449 22.7507C93.0856 19.3999 94.6347 19.0596 96.4251 19.7463C97.7683 20.2615 99.198 22.1721 100.219 22.0693Z" fill="#989898"/>
<path fill-rule="evenodd" clip-rule="evenodd" d="M26.0551 17.4456C32.1875 17.4456 37.1663 23.7592 37.1663 31.5362C37.1663 39.3132 32.1875 45.6268 26.0551 45.6268C19.9224 45.6268 14.9436 39.3132 14.9436 31.5362C14.9436 23.7592 19.9224 17.4456 26.0551 17.4456ZM25.4934 19.6092C25.6472 19.5993 25.8017 19.5944 25.9573 19.5944C31.0925 19.5944 35.2614 24.9457 35.2614 31.5362C35.2614 38.1271 31.0925 43.4779 25.9573 43.4779C25.8017 43.4779 25.6472 43.473 25.4934 43.4632V19.6092Z" fill="white"/>
<path fill-rule="evenodd" clip-rule="evenodd" d="M41.3057 36.1029C43.9002 36.1029 46.0064 38.2095 46.0064 40.8037C46.0064 43.3983 43.9002 45.5048 41.3057 45.5048C38.7111 45.5048 36.6045 43.3983 36.6045 40.8037C36.6045 38.2095 38.7111 36.1029 41.3057 36.1029Z" fill="white"/>
<path fill-rule="evenodd" clip-rule="evenodd" d="M81.0948 36.1029C83.6891 36.1029 85.7956 38.2095 85.7956 40.8037C85.7956 43.3983 83.6891 45.5048 81.0948 45.5048C78.5003 45.5048 76.3937 43.3983 76.3937 40.8037C76.3937 38.2095 78.5003 36.1029 81.0948 36.1029Z" fill="white"/>
<path fill-rule="evenodd" clip-rule="evenodd" d="M109.227 36.1029C111.821 36.1029 113.928 38.2095 113.928 40.8037C113.928 43.3983 111.821 45.5048 109.227 45.5048C106.632 45.5048 104.526 43.3983 104.526 40.8037C104.526 38.2095 106.632 36.1029 109.227 36.1029Z" fill="white"/>
<path fill-rule="evenodd" clip-rule="evenodd" d="M52.9308 16.1115L46.5847 43.9014C46.5847 43.9014 46.3218 45.2046 48.0279 44.9696C49.7341 44.7347 49.611 41.9992 49.611 41.9992L51.3387 32.9312L57.3135 43.478H57.689L63.3394 32.5213L65.9683 44.5908L66.2928 44.6078L76.2625 44.5908L69.6387 16.099L61.5984 31.5362L52.9308 16.1115Z" fill="white"/>
<path fill-rule="evenodd" clip-rule="evenodd" d="M101.158 22.0693C101.158 22.0693 102.252 22.101 102.065 20.9543C101.878 19.8071 98.8906 15.6461 91.0486 18.1534C87.651 19.2398 85.8394 24.5132 87.4402 29.4523C89.5343 35.9133 97.6116 41.388 95.1167 42.9699C93.6878 43.8757 91.8064 43.2869 90.7359 42.3252C89.665 41.3639 88.3759 39.1787 87.1301 39.7687C85.8848 40.3587 87.0372 43.4289 91.596 45.3515C96.1547 47.2745 103.997 44.1651 103.423 37.391C102.85 30.6172 96.7224 25.1973 95.584 22.7507C94.0247 19.3999 95.5738 19.0596 97.3642 19.7463C98.7074 20.2615 100.137 22.1721 101.158 22.0693Z" fill="white"/>
<path d="M8.73595 71.1179C8.95239 71.1179 9.05135 71.0265 9.2066 70.7931C10.5052 68.844 11.8507 66.6918 12.9034 64.9051C13.2124 64.7937 13.4957 64.479 13.5504 64.1742C13.6029 63.88 13.3487 63.6885 13.0703 63.6885C12.6888 63.6885 12.4509 63.9208 12.2212 64.2252C9.15598 64.7529 6.9969 65.0675 6.84053 65.9408C6.71663 66.6309 8.09268 67.4026 8.16521 67.4026C8.39184 67.4026 8.92935 66.9354 8.9641 66.7428C8.98034 66.6513 7.97483 66.1641 7.99825 66.0319C8.04018 65.7984 11.5273 65.1589 11.5689 65.1589C11.6101 65.1589 11.6474 65.1794 11.6369 65.2402C11.6274 65.2912 11.5821 65.3724 11.5209 65.4838C8.79752 70.1434 7.85321 70.6915 7.80221 70.9755C7.78031 71.0975 7.88003 71.1179 8.10666 71.1179H8.73595Z" fill="black"/>
<path d="M14.1899 67.4533C14.8918 66.5305 16.2127 64.7431 16.3619 63.9106C16.3947 63.7278 16.3656 63.5465 16.0045 63.5465C15.4274 63.5465 13.6785 66.8554 13.07 67.8903C12.9197 68.1547 11.9587 68.8543 11.5659 69.1489C11.4809 69.2203 11.428 69.3419 11.388 69.5655C11.3461 69.7994 11.3022 70.043 11.3434 70.043C11.4156 70.043 11.6135 69.8602 11.8832 69.6773L11.9002 69.6978C11.7789 69.9108 11.4771 70.3875 11.4386 70.6005C11.397 70.8336 11.5024 70.9352 11.7396 70.9352C11.9976 70.9352 12.7066 70.3165 13.5535 69.6777C14.579 68.9053 15.1101 68.5903 15.172 68.5903C15.1822 68.5903 15.189 68.6107 15.1834 68.6409C15.1762 68.6817 14.0827 70.2356 14.0336 70.5095C13.9769 70.8237 14.2047 70.9352 14.4729 70.9352C15.0088 70.9352 15.7885 70.4993 16.2621 70.2152C16.6081 70.0128 16.7955 69.83 16.8431 69.5655C16.8831 69.3419 16.8631 69.1085 16.8219 69.1085C16.76 69.1085 15.6064 69.9618 15.359 69.9618C15.3072 69.9618 15.2903 69.9418 15.2997 69.8908C15.3397 69.6672 16.601 68.1548 16.6995 67.6059C16.7305 67.4333 16.6274 67.2618 16.3075 67.2618C15.6887 67.2618 14.2372 68.5699 13.2275 69.1387H13.2067L14.1899 67.4533Z" fill="black"/>
<path d="M16.777 69.7068C16.6168 70.6008 17.1128 70.9351 17.886 70.9351C18.7635 70.9351 19.6371 70.489 20.2268 70.0731C20.4783 69.8798 20.5327 69.7476 20.5837 69.4635C20.6094 69.3219 20.6128 69.1292 20.5406 69.1292C20.4889 69.1292 20.3865 69.2406 20.186 69.3827C19.9163 69.5651 18.8809 70.1649 18.2309 70.1649C17.9725 70.1649 17.7391 69.9715 17.7681 69.8087C17.7848 69.717 17.8709 69.6966 18.0465 69.6966C18.4076 69.6966 20.3276 69.1092 20.51 68.0931C20.6339 67.4034 20.2789 67.2006 19.7637 67.2006C18.6902 67.2006 17.0701 68.0727 16.8624 69.2304L16.777 69.7068ZM19.5181 68.2249C19.4396 68.662 18.2248 69.0484 17.8392 69.0684C18.0798 68.591 18.7763 67.9303 19.313 67.9303C19.4883 67.9303 19.5491 68.0523 19.5181 68.2249Z" fill="black"/>
<path d="M28.3426 65.3724C28.1752 66.3062 27.3964 68.174 26.1231 68.4886C25.842 68.5597 25.3672 68.6209 25.3034 68.9759C25.2377 69.3416 25.4337 69.5138 25.6192 69.5138C27.4137 69.5138 29.0134 67.2603 29.3394 65.4434C29.5705 64.1546 29.1543 63.5465 28.196 63.5465C25.8031 63.5465 22.8675 70.7119 22.8199 70.9756C22.7598 71.3106 22.8142 71.5241 23.062 71.5241C23.8356 71.5241 24.7599 69.189 24.8543 68.6613C24.8871 68.4785 26.8868 64.5195 27.949 64.5195C28.4336 64.5195 28.4102 64.9966 28.3426 65.3724Z" fill="black"/>
<path d="M30.3136 67.3214C30.2365 67.4638 30.1538 67.6365 30.0458 67.7785C29.8278 68.0731 28.7298 68.9056 28.3955 69.1594C28.2757 69.2508 28.2489 69.3423 28.1979 69.6267C28.1488 69.9009 28.1337 70.0429 28.1957 70.0429C28.247 70.0429 28.5262 69.8095 28.7842 69.6369L28.8012 69.6573C28.6712 69.9213 28.4208 70.2254 28.3698 70.5094C28.3169 70.8033 28.4518 70.9147 28.8125 70.9147C29.5963 70.9147 30.6709 70.1544 30.9648 69.9515C31.0702 69.8805 31.137 69.7385 31.1861 69.4643C31.2099 69.3321 31.2277 69.119 31.1555 69.119C31.0834 69.119 30.9912 69.2308 30.8858 69.3018C30.7234 69.4035 29.9222 69.9617 29.7262 69.9617C29.6745 69.9617 29.6733 69.9111 29.6809 69.8703C29.6971 69.7789 29.8229 69.5961 29.9241 69.4337L31.2821 67.3214H30.3136ZM31.676 65.5865C31.3051 65.5865 30.9583 65.911 30.9002 66.2355C30.8549 66.4893 30.9946 66.7428 31.2832 66.7428C31.6541 66.7428 32.0005 66.4183 32.0587 66.0938C32.1044 65.84 31.9642 65.5865 31.676 65.5865Z" fill="black"/>
<path d="M33.9022 66.9774C32.7562 66.9774 31.3462 67.8295 31.0191 69.6543C30.8729 70.469 31.2733 70.9352 32.0257 70.9352C32.7895 70.9352 33.2786 70.6817 33.8735 70.1242C33.957 70.1737 34.0548 70.2043 34.158 70.2043C34.3638 70.2043 34.5311 70.1332 34.8107 70.0116C34.9334 69.961 34.9908 69.8696 35.049 69.5455C35.111 69.2006 35.1068 69.1092 35.0656 69.1092C35.035 69.1054 34.7396 69.3733 34.482 69.3733C34.4099 69.3733 34.3479 69.3733 34.3208 69.3525C34.3634 69.229 34.4941 69.0745 34.5164 68.951C34.5387 68.8274 34.5066 68.6628 34.4922 68.5698C34.5685 68.4886 34.7563 68.4176 34.822 68.0527C34.944 67.3728 34.4484 66.9774 33.9022 66.9774ZM32.488 70.0838C32.1473 70.0838 31.9581 69.9312 32.0419 69.4643C32.2078 68.54 33.0157 67.8899 33.4701 67.8899C33.8104 67.8899 33.8841 68.1132 33.8531 68.2858C33.8123 68.5102 33.2582 68.6118 33.1419 69.2615C33.1219 69.3733 33.1611 69.5557 33.1955 69.7079C33.078 69.9009 32.6943 70.0838 32.488 70.0838Z" fill="black"/>
<path d="M37.0269 67.3222C36.9755 67.3222 36.9128 67.3827 36.8463 67.5243C36.6333 68.0221 35.4884 68.8852 35.3483 68.9767C35.0906 69.1493 34.9588 69.2509 34.9207 69.4643C34.8897 69.6369 34.8168 70.043 34.8682 70.043C34.9199 70.043 35.2905 69.7589 35.3615 69.7079H35.3822C35.2489 69.9308 34.9362 70.4075 34.8927 70.6511C34.8689 70.7829 34.9448 70.9352 35.1409 70.9352C35.4604 70.9352 35.8718 70.5393 36.7825 69.8904C37.1111 69.6671 38.4777 68.6624 38.6012 68.6624C38.6114 68.6624 38.6182 68.6828 38.6163 68.693C38.5967 68.804 37.5772 70.1748 37.5153 70.5197C37.4624 70.8135 37.6777 70.9352 38.0388 70.9352C38.5442 70.9352 39.8107 70.256 40.1627 69.9618C40.2111 69.9213 40.3119 69.8197 40.3629 69.5353C40.4139 69.2509 40.386 69.119 40.3138 69.119C40.2934 69.119 39.1108 69.9618 38.8324 69.9618C38.7908 69.9618 38.7897 69.9111 38.7988 69.8601C38.8445 69.6063 40.1363 67.9813 40.1982 67.6361C40.2402 67.403 40.111 67.2618 39.7189 67.2618C39.1931 67.2618 37.0918 68.855 36.9785 68.855C36.9475 68.855 36.9287 68.8448 36.9324 68.8244C36.9415 68.7734 37.6014 67.7985 37.9032 67.3222H37.0269Z" fill="black"/>
<path d="M40.3018 69.7068C40.1416 70.6008 40.6376 70.9351 41.4108 70.9351C42.2882 70.9351 43.1619 70.489 43.7519 70.0731C44.0031 69.8798 44.0579 69.7476 44.1085 69.4635C44.1342 69.3219 44.1376 69.1292 44.0654 69.1292C44.014 69.1292 43.9113 69.2406 43.7107 69.3827C43.441 69.5651 42.4061 70.1649 41.7556 70.1649C41.4977 70.1649 41.2638 69.9715 41.2929 69.8087C41.3095 69.717 41.3957 69.6966 41.5713 69.6966C41.9324 69.6966 43.8524 69.1092 44.0348 68.0931C44.1587 67.4034 43.8037 67.2006 43.2884 67.2006C42.2153 67.2006 40.5953 68.0727 40.3875 69.2304L40.3018 69.7068ZM43.0429 68.2249C42.9647 68.662 41.7496 69.0484 41.3639 69.0684C41.6045 68.591 42.3011 67.9303 42.8378 67.9303C43.0135 67.9303 43.0739 68.0523 43.0429 68.2249Z" fill="black"/>
<path d="M44.0351 69.7068C43.8749 70.6008 44.3709 70.9351 45.1441 70.9351C46.0215 70.9351 46.8952 70.489 47.4852 70.0731C47.7364 69.8798 47.7911 69.7476 47.8418 69.4635C47.8674 69.3219 47.8708 69.1292 47.7987 69.1292C47.7473 69.1292 47.6446 69.2406 47.444 69.3827C47.1743 69.5651 46.1394 70.1649 45.4889 70.1649C45.2309 70.1649 44.9971 69.9715 45.0262 69.8087C45.0428 69.717 45.1289 69.6966 45.3046 69.6966C45.6657 69.6966 47.5857 69.1092 47.7681 68.0931C47.892 67.4034 47.5369 67.2006 47.0217 67.2006C45.9486 67.2006 44.3285 68.0727 44.1208 69.2304L44.0351 69.7068ZM46.7762 68.2249C46.698 68.662 45.4829 69.0484 45.0972 69.0684C45.3378 68.591 46.0343 67.9303 46.5711 67.9303C46.7467 67.9303 46.8072 68.0523 46.7762 68.2249Z" fill="black"/>
<path d="M49.2576 67.272C49.2342 67.4034 49.2478 67.5557 49.3346 67.6467C48.9048 68.2046 48.3907 68.7126 47.7565 69.1999C47.6961 69.2509 47.6712 69.3321 47.6092 69.6773C47.5673 69.9112 47.5454 70.0328 47.6175 70.0328C47.6795 70.0328 49.2274 68.8751 49.7211 68.3062C49.9016 68.103 49.9658 68.032 50.1721 68.032C50.2752 68.032 50.3643 68.0524 50.3534 68.1132C50.3315 68.2352 49.0026 70.0128 48.9354 70.3878C48.87 70.7527 49.0125 70.9352 49.4657 70.9352C49.9088 70.9352 50.9158 70.4385 51.5825 69.9418C51.6882 69.8704 51.7287 69.7586 51.7672 69.5455C51.8216 69.2407 51.7713 69.1187 51.7094 69.1187C51.658 69.1187 51.5817 69.1999 51.4136 69.3321C51.1621 69.5251 50.4134 69.9618 50.3103 69.9618C50.2484 69.9618 50.18 69.9418 50.1962 69.8503C50.1981 69.8401 50.2382 69.7892 50.2941 69.7079C50.9241 68.7837 51.4065 68.1638 51.4612 67.8597C51.5228 67.5153 51.2928 67.3022 50.9524 67.3022C50.767 67.3022 50.56 67.363 50.4467 67.363C50.3537 67.363 50.3787 67.1096 50.3934 67.0284C50.4187 66.886 50.2703 66.6223 49.9409 66.6223C49.5908 66.6223 49.3176 66.937 49.2576 67.272Z" fill="black"/>
<path d="M57.0454 66.9774C55.8994 66.9774 54.4894 67.8295 54.1623 69.6543C54.0161 70.469 54.4165 70.9352 55.1689 70.9352C55.9326 70.9352 56.4218 70.6817 57.0167 70.1242C57.1002 70.1737 57.198 70.2043 57.3011 70.2043C57.507 70.2043 57.6743 70.1332 57.9538 70.0116C58.0766 69.961 58.134 69.8696 58.1922 69.5455C58.2541 69.2006 58.25 69.1092 58.2088 69.1092C58.1782 69.1054 57.8828 69.3733 57.6252 69.3733C57.5531 69.3733 57.4911 69.3733 57.4639 69.3525C57.5066 69.229 57.6373 69.0745 57.6596 68.951C57.6819 68.8274 57.6498 68.6628 57.6354 68.5698C57.7117 68.4886 57.8995 68.4176 57.9652 68.0527C58.0872 67.3728 57.5916 66.9774 57.0454 66.9774ZM55.6312 70.0838C55.2905 70.0838 55.1013 69.9312 55.1851 69.4643C55.351 68.54 56.1589 67.8899 56.6133 67.8899C56.9536 67.8899 57.0273 68.1132 56.9963 68.2858C56.9555 68.5102 56.4014 68.6118 56.2851 69.2615C56.265 69.3733 56.3043 69.5557 56.3387 69.7079C56.2212 69.9009 55.8375 70.0838 55.6312 70.0838Z" fill="black"/>
<path d="M60.8978 70.0426C61.1176 69.9108 61.1898 69.7382 61.2351 69.4843C61.2808 69.2305 61.2325 69.0987 61.1909 69.0987C61.1497 69.0987 60.8623 69.3219 59.8579 69.9818C59.7646 70.0426 59.7378 70.134 59.7095 70.2356C59.5629 70.7637 59.337 71.3322 58.9994 71.8904C58.6182 72.5201 58.2594 72.9666 58.1045 72.9666C58.032 72.9666 58.0101 72.916 58.032 72.794C58.0777 72.5401 59.6675 69.7786 60.741 67.6973C60.9601 67.2811 62.5749 65.0072 62.7679 63.9307C62.8046 63.7278 62.7547 63.5465 62.5069 63.5465C61.7851 63.5465 61.1388 65.596 59.7344 67.9107C59.6449 68.063 59.0152 68.5808 58.2416 69.1595C58.1465 69.2305 58.0645 69.3423 58.0116 69.6366C57.9897 69.7586 57.9387 70.0426 58.0109 70.0426C58.0932 70.0426 58.8483 69.4537 58.8951 69.4235H58.9155C58.6473 69.941 57.2441 72.4793 57.1421 73.0478C57.0567 73.5241 57.2437 73.8588 57.7483 73.8588C58.3882 73.8588 59.1267 72.9666 59.4734 72.4691C59.9297 71.8194 60.0717 71.2 60.2734 70.4184L60.8978 70.0426Z" fill="black"/>
<path d="M65.6984 67.3214C65.6213 67.4638 65.539 67.6365 65.431 67.7785C65.213 68.0731 64.1146 68.9056 63.7803 69.1594C63.6609 69.2508 63.6341 69.3423 63.5831 69.6267C63.534 69.9009 63.5189 70.0429 63.5805 70.0429C63.6322 70.0429 63.9114 69.8095 64.1693 69.6369L64.1864 69.6573C64.0564 69.9213 63.8056 70.2254 63.755 70.5094C63.7021 70.8033 63.8366 70.9147 64.1977 70.9147C64.9815 70.9147 66.0561 70.1544 66.35 69.9515C66.4553 69.8805 66.5222 69.7385 66.5713 69.4643C66.5951 69.3321 66.6125 69.119 66.5403 69.119C66.4686 69.119 66.3764 69.2308 66.2706 69.3018C66.1082 69.4035 65.3071 69.9617 65.1114 69.9617C65.0597 69.9617 65.0585 69.9111 65.0657 69.8703C65.0823 69.7789 65.2077 69.5961 65.3093 69.4337L66.6672 67.3214H65.6984ZM67.0608 65.5865C66.6903 65.5865 66.3435 65.911 66.2854 66.2355C66.2397 66.4893 66.3798 66.7428 66.668 66.7428C67.0389 66.7428 67.3857 66.4183 67.4438 66.0938C67.4895 65.84 67.3494 65.5865 67.0608 65.5865Z" fill="black"/>
<path d="M68.4928 67.3222C68.4414 67.3222 68.3791 67.3827 68.3122 67.5243C68.0992 68.0221 66.9543 68.8852 66.8142 68.9767C66.5565 69.1493 66.4247 69.2509 66.3866 69.4643C66.3556 69.6369 66.2827 70.043 66.3344 70.043C66.3858 70.043 66.7564 69.7589 66.8274 69.7079H66.8481C66.7148 69.9308 66.4024 70.4075 66.3586 70.6511C66.3348 70.7829 66.4107 70.9352 66.6068 70.9352C66.9263 70.9352 67.3377 70.5393 68.2484 69.8904C68.5774 69.6671 69.9436 68.6624 70.0671 68.6624C70.0777 68.6624 70.0841 68.6828 70.0826 68.693C70.0626 68.804 69.0431 70.1748 68.9812 70.5197C68.9283 70.8135 69.144 70.9352 69.5047 70.9352C70.0101 70.9352 71.277 70.256 71.6286 69.9618C71.6774 69.9213 71.7778 69.8197 71.8288 69.5353C71.8798 69.2509 71.8522 69.119 71.7801 69.119C71.7593 69.119 70.5767 69.9618 70.2983 69.9618C70.2571 69.9618 70.2556 69.9111 70.265 69.8601C70.3104 69.6063 71.6026 67.9813 71.6645 67.6361C71.7061 67.403 71.5769 67.2618 71.1848 67.2618C70.659 67.2618 68.5581 68.855 68.4444 68.855C68.4134 68.855 68.3949 68.8448 68.3983 68.8244C68.4074 68.7734 69.0673 67.7985 69.3695 67.3222H68.4928Z" fill="black"/>
<path d="M73.7525 67.3222C73.7012 67.3222 73.6388 67.3827 73.572 67.5243C73.3589 68.0221 72.2141 68.8852 72.0739 68.9767C71.8163 69.1493 71.6845 69.2509 71.6463 69.4643C71.6154 69.6369 71.5425 70.043 71.5942 70.043C71.6456 70.043 72.0161 69.7589 72.0871 69.7079H72.1079C71.9746 69.9308 71.6622 70.4075 71.6184 70.6511C71.5946 70.7829 71.6705 70.9352 71.8666 70.9352C72.1861 70.9352 72.5975 70.5393 73.5082 69.8904C73.8371 69.6671 75.2034 68.6624 75.3269 68.6624C75.3375 68.6624 75.3439 68.6828 75.3424 68.693C75.3224 68.804 74.3029 70.1748 74.2409 70.5197C74.188 70.8135 74.4037 70.9352 74.7645 70.9352C75.2699 70.9352 76.5367 70.256 76.8884 69.9618C76.9371 69.9213 77.0376 69.8197 77.0886 69.5353C77.1396 69.2509 77.112 69.119 77.0399 69.119C77.0191 69.119 75.8364 69.9618 75.558 69.9618C75.5169 69.9618 75.5154 69.9111 75.5248 69.8601C75.5701 69.6063 76.8623 67.9813 76.9243 67.6361C76.9658 67.403 76.8367 67.2618 76.4446 67.2618C75.9188 67.2618 73.8179 68.855 73.7042 68.855C73.6732 68.855 73.6547 68.8448 73.6581 68.8244C73.6672 68.7734 74.3271 67.7985 74.6292 67.3222H73.7525Z" fill="black"/>
<path d="M79.8068 66.9774C78.6611 66.9774 77.2511 67.8295 76.9236 69.6543C76.7774 70.469 77.1778 70.9352 77.9302 70.9352C78.6944 70.9352 79.1835 70.6817 79.7781 70.1242C79.8619 70.1737 79.9598 70.2043 80.0625 70.2043C80.2687 70.2043 80.4361 70.1332 80.7156 70.0116C80.838 69.961 80.8957 69.8696 80.9539 69.5455C81.0159 69.2006 81.0113 69.1092 80.9702 69.1092C80.9399 69.1054 80.6446 69.3733 80.3866 69.3733C80.3148 69.3733 80.2529 69.3733 80.2257 69.3525C80.2684 69.229 80.399 69.0745 80.4213 68.951C80.4436 68.8274 80.4111 68.6628 80.3972 68.5698C80.4735 68.4886 80.6612 68.4176 80.7265 68.0527C80.8485 67.3728 80.3533 66.9774 79.8068 66.9774ZM78.3929 70.0838C78.0522 70.0838 77.8626 69.9312 77.9465 69.4643C78.1123 68.54 78.9206 67.8899 79.3747 67.8899C79.7154 67.8899 79.789 68.1132 79.758 68.2858C79.7173 68.5102 79.1631 68.6118 79.0464 69.2615C79.0264 69.3733 79.0661 69.5557 79.1004 69.7079C78.983 69.9009 78.5992 70.0838 78.3929 70.0838Z" fill="black"/>
<path d="M83.0956 67.3222C83.0031 67.3222 82.9272 67.3422 82.787 67.6055C82.4686 68.1744 81.1439 69.0681 80.9347 69.2003C80.8878 69.2305 80.8557 69.3525 80.8138 69.5859C80.739 70.0025 80.7318 70.043 80.7832 70.043C80.8557 70.043 81.0914 69.8197 81.4083 69.6063L81.4253 69.6267C81.3377 69.7687 81.2742 69.9516 81.2357 70.165C81.1341 70.7323 81.448 70.9352 82.1279 70.9352C82.829 70.9352 83.4295 70.5196 83.9463 70.0532C84.0943 70.2054 84.2964 70.2866 84.5234 70.2866C84.6885 70.2866 84.9057 70.2258 85.2324 70.0124C85.3605 69.9312 85.4655 69.7483 85.5202 69.4439C85.555 69.2509 85.5391 69.1088 85.467 69.1088C85.405 69.1088 85.0058 69.4945 84.7995 69.4945C84.6964 69.4945 84.6024 69.4439 84.6012 69.3929C84.6031 69.3827 85.4458 68.3062 85.5463 67.7479C85.5863 67.5243 85.592 67.2618 85.3136 67.2618C84.633 67.2618 83.9255 68.733 83.7657 69.2203C83.7336 69.3423 82.7742 70.2054 82.3825 70.2054C82.2484 70.2054 82.1494 70.1242 82.1732 69.9924C82.2442 69.5961 83.0507 68.7228 83.646 67.6463C83.6936 67.5549 83.7906 67.4737 83.805 67.3928C83.8122 67.3524 83.7661 67.3222 83.632 67.3222H83.0956Z" fill="black"/>
<path d="M88.808 68.4788C88.7256 68.4788 88.5575 68.4384 88.4994 68.418C88.0442 69.0578 87.0969 70.0837 86.5707 70.0837C86.406 70.0837 86.3339 69.9111 86.3664 69.7283L86.4192 69.4337C86.5726 68.5804 87.9135 67.8899 88.7385 67.8899C89.1611 67.8899 89.4913 68.0625 89.4913 68.0625C89.5222 68.0625 89.5585 68.0319 89.5695 67.9711C89.6076 67.7581 89.6386 67.4136 89.6314 67.2818C89.4875 67.221 89.1404 67.2006 88.893 67.2006C87.7069 67.2006 85.6895 67.9911 85.4288 69.4439L85.3869 69.6773C85.243 70.4788 85.5527 70.9351 86.1087 70.9351H86.3048C86.7792 70.9351 87.0855 70.7221 87.4512 70.4082C87.3707 70.7425 87.4081 70.9351 87.7794 70.9351C88.1919 70.9351 88.8507 70.5396 89.3069 70.2964C89.8342 70.0025 89.9513 69.8095 89.9861 69.6165C90.039 69.3219 90.053 69.1288 89.96 69.1288C89.8981 69.1288 89.7991 69.2202 89.7039 69.2913C89.4078 69.5047 88.6622 69.9821 88.5485 69.9821C88.4869 69.9821 88.4529 69.9413 88.4601 69.9009C88.471 69.8397 88.9965 69.0374 89.3753 68.4788H88.808Z" fill="black"/>
<path d="M92.0242 65.9624C91.8489 65.9624 91.6767 66.1751 91.6185 66.4995C91.5966 66.6208 91.6185 66.6718 91.7013 66.6718H92.2577L91.7413 67.5957C91.5751 67.8903 90.5367 68.7938 90.0801 69.0987C89.881 69.2309 89.8179 69.3525 89.7798 69.5659C89.7088 69.9618 89.7269 70.0328 89.7783 70.0328C89.8606 70.0328 90.1696 69.7487 90.6504 69.4235H90.6712C90.4083 69.9112 90.1496 70.3776 90.1167 70.5601C90.0604 70.8743 90.3588 70.9352 90.6062 70.9352C91.1113 70.9352 92.0718 70.4079 92.3729 70.2254C92.8567 69.9414 92.9198 69.8197 92.978 69.4949C93.0256 69.2309 92.9957 69.1089 92.9338 69.1089C92.8616 69.1089 91.6733 70.043 91.4157 70.043C91.3334 70.043 91.2892 70.0026 91.3054 69.9112C91.3383 69.7283 92.3011 68.1544 93.1959 66.6718H93.7527C93.9691 66.6718 94.0881 66.4689 94.1391 66.1853C94.1701 66.013 94.1376 65.9624 94.045 65.9624H93.5706C93.8698 65.4446 94.4099 64.5614 94.4534 64.3178C94.4972 64.0742 94.4579 63.8914 94.2517 63.8914C93.6537 63.8914 92.9935 65.2719 92.8053 65.6882L92.6841 65.9624H92.0242Z" fill="black"/>
<path d="M94.8749 67.3214C94.7979 67.4638 94.7155 67.6365 94.6075 67.7785C94.3895 68.0731 93.2911 68.9056 92.9568 69.1594C92.8375 69.2508 92.8107 69.3423 92.7597 69.6267C92.7106 69.9009 92.6951 70.0429 92.757 70.0429C92.8088 70.0429 93.0879 69.8095 93.3455 69.6369L93.3625 69.6573C93.2326 69.9213 92.9822 70.2254 92.9312 70.5094C92.8787 70.8033 93.0131 70.9147 93.3742 70.9147C94.158 70.9147 95.2323 70.1544 95.5265 69.9515C95.6319 69.8805 95.6984 69.7385 95.7479 69.4643C95.7713 69.3321 95.789 69.119 95.7169 69.119C95.6447 69.119 95.5526 69.2308 95.4472 69.3018C95.2848 69.4035 94.4836 69.9617 94.2876 69.9617C94.2362 69.9617 94.2351 69.9111 94.2422 69.8703C94.2585 69.7789 94.3843 69.5961 94.4855 69.4337L95.8438 67.3214H94.8749ZM96.2374 65.5865C95.8665 65.5865 95.5201 65.911 95.4615 66.2355C95.4162 66.4893 95.5563 66.7428 95.8445 66.7428C96.2155 66.7428 96.5622 66.4183 96.6204 66.0938C96.6657 65.84 96.526 65.5865 96.2374 65.5865Z" fill="black"/>
<path d="M98.4636 66.9774C97.318 66.9774 95.908 67.8295 95.5805 69.6543C95.4343 70.469 95.8347 70.9352 96.5871 70.9352C97.3508 70.9352 97.8404 70.6817 98.4349 70.1242C98.5188 70.1737 98.6162 70.2043 98.7194 70.2043C98.9256 70.2043 99.0929 70.1332 99.3724 70.0116C99.4948 69.961 99.5526 69.8696 99.6108 69.5455C99.6723 69.2006 99.6682 69.1092 99.627 69.1092C99.5968 69.1054 99.301 69.3733 99.0434 69.3733C98.9713 69.3733 98.9097 69.3733 98.8825 69.3525C98.9252 69.229 99.0559 69.0745 99.0782 68.951C99.1001 68.8274 99.068 68.6628 99.0536 68.5698C99.1299 68.4886 99.318 68.4176 99.3834 68.0527C99.5054 67.3728 99.0098 66.9774 98.4636 66.9774ZM97.0494 70.0838C96.7091 70.0838 96.5195 69.9312 96.6033 69.4643C96.7692 68.54 97.5775 67.8899 98.0315 67.8899C98.3722 67.8899 98.4455 68.1132 98.4145 68.2858C98.3741 68.5102 97.82 68.6118 97.7033 69.2615C97.6833 69.3733 97.7225 69.5557 97.7573 69.7079C97.6398 69.9009 97.256 70.0838 97.0494 70.0838Z" fill="black"/>
<path d="M101.589 67.3222C101.537 67.3222 101.475 67.3827 101.408 67.5243C101.195 68.0221 100.05 68.8852 99.91 68.9767C99.652 69.1493 99.5206 69.2509 99.482 69.4643C99.4511 69.6369 99.3782 70.043 99.4299 70.043C99.4813 70.043 99.8522 69.7589 99.9232 69.7079H99.9436C99.8103 69.9308 99.4979 70.4075 99.4541 70.6511C99.4307 70.7829 99.5062 70.9352 99.7023 70.9352C100.022 70.9352 100.434 70.5393 101.344 69.8904C101.673 69.6671 103.039 68.6624 103.163 68.6624C103.173 68.6624 103.18 68.6828 103.178 68.693C103.158 68.804 102.139 70.1748 102.077 70.5197C102.024 70.8135 102.239 70.9352 102.601 70.9352C103.106 70.9352 104.372 70.256 104.724 69.9618C104.773 69.9213 104.874 69.8197 104.925 69.5353C104.976 69.2509 104.948 69.119 104.876 69.119C104.855 69.119 103.672 69.9618 103.394 69.9618C103.353 69.9618 103.351 69.9111 103.361 69.8601C103.406 69.6063 104.698 67.9813 104.76 67.6361C104.802 67.403 104.672 67.2618 104.281 67.2618C103.754 67.2618 101.654 68.855 101.54 68.855C101.509 68.855 101.49 68.8448 101.494 68.8244C101.503 68.7734 102.163 67.7985 102.465 67.3222H101.589Z" fill="black"/>
<path d="M105.163 70.3368C105.101 70.6817 105.231 70.9351 105.602 70.9351C106.034 70.9351 106.485 70.5499 106.561 70.1238C106.618 69.8091 106.447 69.4949 106.107 69.4949C105.664 69.4949 105.237 69.9209 105.163 70.3368Z" fill="black"/>
<path d="M107.741 70.3368C107.679 70.6817 107.809 70.9351 108.18 70.9351C108.613 70.9351 109.063 70.5499 109.14 70.1238C109.196 69.8091 109.026 69.4949 108.686 69.4949C108.243 69.4949 107.816 69.9209 107.741 70.3368Z" fill="black"/>
<path d="M110.32 70.3368C110.258 70.6817 110.387 70.9351 110.758 70.9351C111.191 70.9351 111.641 70.5499 111.718 70.1238C111.774 69.8091 111.604 69.4949 111.264 69.4949C110.821 69.4949 110.394 69.9209 110.32 70.3368Z" fill="black"/>
<path d="M60.5009 54.0565C60.5009 54.8286 60.72 55.4054 61.1589 55.7873C61.5974 56.1688 62.2025 56.3595 62.9746 56.3595C63.3784 56.3595 63.7731 56.2851 64.1591 56.1359C64.5452 55.9867 64.9048 55.7672 65.2379 55.4779L65.9224 56.2541C65.4661 56.6666 64.9682 56.9673 64.4288 57.1557C63.8894 57.3442 63.3387 57.4387 62.7774 57.4387C61.6544 57.4387 60.8012 57.158 60.218 56.5963C59.6344 56.035 59.3428 55.1927 59.3428 54.0697C59.3428 53.289 59.4327 52.5324 59.6125 51.8C59.7923 51.0672 60.0839 50.4183 60.4877 49.8525C60.8911 49.2862 61.4176 48.8326 62.0665 48.4904C62.7159 48.1482 63.5098 47.9771 64.4485 47.9771C64.9837 47.9771 65.4925 48.0647 65.9749 48.2403C66.4576 48.4156 66.8523 48.7008 67.1594 49.0955L66.2121 49.8982C65.9839 49.6175 65.6987 49.4094 65.3565 49.2734C65.0143 49.1374 64.646 49.0694 64.2513 49.0694C63.523 49.0694 62.9176 49.225 62.4352 49.5363C61.9525 49.8479 61.5687 50.2449 61.2835 50.7273C60.9987 51.21 60.7966 51.7448 60.6784 52.333C60.5598 52.9207 60.5009 53.4952 60.5009 54.0565Z" fill="white"/>
<path d="M72.8706 53.1224C72.8706 52.5958 72.704 52.1879 72.3705 51.8986C72.037 51.6089 71.6071 51.4642 71.081 51.4642C70.6073 51.4642 70.2035 51.565 69.8703 51.7671C69.5368 51.9688 69.2626 52.2276 69.0477 52.5433C68.8327 52.8591 68.6748 53.2146 68.574 53.6093C68.4731 54.004 68.4225 54.39 68.4225 54.7674C68.4225 55.3374 68.574 55.7631 68.8766 56.0437C69.1795 56.3244 69.6203 56.4649 70.1993 56.4649C70.6553 56.4649 71.0504 56.3663 71.3835 56.1687C71.717 55.9712 71.9932 55.7147 72.2126 55.3989C72.4321 55.0832 72.5964 54.7255 72.7059 54.3266C72.8158 53.9273 72.8706 53.5258 72.8706 53.1224ZM70.015 57.4387C69.6464 57.4387 69.3045 57.3839 68.9884 57.274C68.6726 57.1644 68.3987 57.0043 68.1661 56.7939C67.9338 56.5831 67.7536 56.3289 67.6267 56.0305C67.4994 55.7325 67.4359 55.399 67.4359 55.0303C67.4359 54.4777 67.5081 53.9296 67.6527 53.3857C67.7978 52.8418 68.0255 52.3568 68.3372 51.9314C68.6484 51.5061 69.0435 51.1594 69.5213 50.8919C69.9995 50.6241 70.5722 50.4904 71.2388 50.4904C71.6249 50.4904 71.9781 50.5497 72.298 50.6683C72.6183 50.7866 72.8948 50.9577 73.1271 51.1813C73.3598 51.4049 73.5418 51.6727 73.6733 51.9839C73.8047 52.2956 73.8708 52.6397 73.8708 53.017C73.8708 53.5874 73.7828 54.1377 73.6076 54.6684C73.4319 55.1995 73.18 55.6686 72.851 56.0766C72.522 56.4845 72.1182 56.8135 71.64 57.0636C71.1622 57.3136 70.6201 57.4387 70.015 57.4387Z" fill="white"/>
<path d="M75.9498 48.2928L77.1344 47.9771L75.7787 55.6754C75.77 55.7193 75.7655 55.7563 75.7655 55.7873V55.8858C75.7655 56.2719 75.9982 56.4649 76.4632 56.4649H77.1344L76.9893 57.2808C76.8401 57.3246 76.6822 57.362 76.5156 57.3926C76.3491 57.4232 76.1912 57.4387 76.042 57.4387C75.5944 57.4387 75.2457 57.2982 74.9957 57.0175C74.7456 56.7369 74.6206 56.3901 74.6206 55.978C74.6206 55.9255 74.6229 55.8726 74.6274 55.8201C74.6316 55.7672 74.6384 55.7147 74.647 55.6622L75.9498 48.2928Z" fill="white"/>
<path d="M79.1609 48.2928L80.345 47.9771L78.9898 55.6754C78.9811 55.7193 78.9765 55.7563 78.9765 55.7873V55.8858C78.9765 56.2719 79.2089 56.4649 79.6738 56.4649H80.345L80.2004 57.2808C80.0512 57.3246 79.8933 57.362 79.7267 57.3926C79.5598 57.4232 79.4019 57.4387 79.253 57.4387C78.8054 57.4387 78.4568 57.2982 78.2067 57.0175C77.9567 56.7369 77.8317 56.3901 77.8317 55.978C77.8317 55.9255 77.8339 55.8726 77.8381 55.8201C77.8426 55.7672 77.849 55.7147 77.8581 55.6622L79.1609 48.2928Z" fill="white"/>
<path d="M87.4644 52.4247C87.4644 52.8723 87.3722 53.2342 87.1879 53.5107C87.0036 53.7868 86.7626 54.004 86.4642 54.1619C86.1658 54.3198 85.8349 54.4316 85.4708 54.4977C85.1066 54.5634 84.7448 54.6095 84.3852 54.6356L82.3455 54.7674V54.9513C82.3455 55.2324 82.3957 55.4692 82.4966 55.6622C82.5974 55.8552 82.727 56.0109 82.8849 56.1295C83.0427 56.2477 83.2248 56.3334 83.431 56.3859C83.6373 56.4384 83.8454 56.4649 84.0562 56.4649C84.4158 56.4649 84.747 56.3924 85.0496 56.2477C85.3522 56.103 85.6264 55.9032 85.8719 55.649L86.7932 56.0569C86.4423 56.5042 86.0124 56.8464 85.5036 57.0832C84.9948 57.3201 84.4551 57.4387 83.8851 57.4387C83.0866 57.4387 82.4463 57.237 81.9636 56.8332C81.4812 56.4298 81.2399 55.7982 81.2399 54.9385C81.2399 54.3681 81.3211 53.8155 81.4835 53.2803C81.6455 52.745 81.8869 52.2714 82.2072 51.8589C82.5275 51.4468 82.9309 51.1156 83.4178 50.8655C83.9047 50.6154 84.4728 50.4904 85.1221 50.4904C85.9029 50.4904 86.4883 50.6748 86.8785 51.043C87.2691 51.4117 87.4644 51.8721 87.4644 52.4247ZM84.5559 53.6618C84.7489 53.6531 84.9529 53.6267 85.1678 53.5829C85.3831 53.539 85.5803 53.4688 85.7601 53.3725C85.9399 53.2758 86.0868 53.1488 86.2009 52.991C86.315 52.8327 86.372 52.631 86.372 52.3855C86.372 52.1309 86.2492 51.9141 86.0037 51.7339C85.7578 51.5541 85.4028 51.4642 84.9378 51.4642C84.6043 51.4642 84.3017 51.528 84.0297 51.6549C83.7578 51.7822 83.5164 51.9511 83.306 52.1618C83.0953 52.3722 82.92 52.6178 82.7795 52.8988C82.6393 53.1794 82.5385 53.4778 82.4769 53.7936L84.5559 53.6618Z" fill="white"/>
<path d="M92.2807 50.4904C92.6403 50.4904 93.0022 50.5543 93.3663 50.6812C93.7305 50.8085 94.0394 51.0257 94.294 51.3327L93.4781 52.0168C93.2764 51.8151 93.0657 51.6727 92.8466 51.5892C92.6271 51.5061 92.3638 51.4642 92.0568 51.4642C91.6182 51.4642 91.2345 51.5609 90.9055 51.7539C90.5765 51.9469 90.3003 52.197 90.0763 52.5037C89.8527 52.8108 89.6862 53.1575 89.5762 53.5436C89.4667 53.9296 89.4119 54.3156 89.4119 54.7017C89.4119 55.2716 89.5611 55.7083 89.8592 56.0109C90.1576 56.3134 90.5961 56.4649 91.1751 56.4649C91.4384 56.4649 91.7236 56.4211 92.0307 56.3334C92.3378 56.2454 92.5965 56.0962 92.8069 55.8858L93.386 56.5571C93.0438 56.8641 92.6668 57.0878 92.2543 57.2283C91.8418 57.3684 91.4252 57.4387 91.004 57.4387C90.618 57.4387 90.2652 57.3862 89.9449 57.2808C89.6246 57.1754 89.3485 57.022 89.1158 56.8203C88.8835 56.6182 88.7014 56.3663 88.5696 56.0634C88.4382 55.7608 88.3724 55.4163 88.3724 55.0303C88.3724 54.3987 88.4491 53.8068 88.6025 53.2539C88.7562 52.7012 88.993 52.2208 89.3133 51.8128C89.6333 51.4049 90.0393 51.0827 90.5304 50.8459C91.0218 50.609 91.605 50.4904 92.2807 50.4904Z" fill="white"/>
<path d="M95.9915 51.5299H95.2414L95.3864 50.6483H96.1362L96.3862 49.2273L97.584 48.9116L97.2682 50.6483H98.4788L98.0577 51.5299H97.1232L96.3862 55.6755C96.3689 55.7631 96.3602 55.8288 96.3602 55.8726C96.3602 56.2674 96.5925 56.4649 97.0574 56.4649H97.5443L97.3997 57.294C97.2682 57.3378 97.1432 57.373 97.0246 57.399C96.906 57.4255 96.7768 57.4387 96.6363 57.4387C96.2151 57.4387 95.8752 57.305 95.6164 57.0372C95.3577 56.7697 95.2285 56.4252 95.2285 56.0045V55.8398C95.2285 55.7827 95.2372 55.728 95.2546 55.6755L95.9915 51.5299Z" fill="white"/>
<path d="M98.8867 57.2808L100.058 50.6483H101.189L100.018 57.2808H98.8867ZM100.913 47.9771C101.088 47.9771 101.238 48.0364 101.36 48.1546C101.483 48.2732 101.545 48.4201 101.545 48.5954C101.545 48.771 101.483 48.918 101.36 49.0366C101.238 49.1548 101.088 49.2141 100.913 49.2141C100.738 49.2141 100.588 49.1548 100.466 49.0366C100.343 48.918 100.282 48.771 100.282 48.5954C100.282 48.4201 100.343 48.2732 100.466 48.1546C100.588 48.0364 100.738 47.9771 100.913 47.9771Z" fill="white"/>
<path d="M107.519 53.1224C107.519 52.5958 107.352 52.1879 107.019 51.8986C106.686 51.6089 106.256 51.4642 105.73 51.4642C105.256 51.4642 104.852 51.565 104.519 51.7671C104.186 51.9688 103.911 52.2276 103.696 52.5433C103.481 52.8591 103.324 53.2146 103.223 53.6093C103.122 54.004 103.071 54.39 103.071 54.7674C103.071 55.3374 103.223 55.7631 103.525 56.0437C103.828 56.3244 104.269 56.4649 104.848 56.4649C105.304 56.4649 105.699 56.3663 106.032 56.1687C106.366 55.9712 106.642 55.7147 106.861 55.3989C107.08 55.0832 107.245 54.7255 107.355 54.3266C107.465 53.9273 107.519 53.5258 107.519 53.1224ZM104.664 57.4387C104.295 57.4387 103.953 57.3839 103.637 57.274C103.321 57.1644 103.047 57.0043 102.815 56.7939C102.582 56.5831 102.402 56.3289 102.275 56.0305C102.148 55.7325 102.084 55.399 102.084 55.0303C102.084 54.4777 102.157 53.9296 102.301 53.3857C102.446 52.8418 102.674 52.3568 102.986 51.9314C103.297 51.5061 103.692 51.1594 104.17 50.8919C104.648 50.6241 105.221 50.4904 105.888 50.4904C106.274 50.4904 106.627 50.5497 106.947 50.6683C107.267 50.7866 107.543 50.9577 107.776 51.1813C108.008 51.4049 108.191 51.6727 108.322 51.9839C108.453 52.2956 108.52 52.6397 108.52 53.017C108.52 53.5874 108.432 54.1377 108.256 54.6684C108.081 55.1995 107.828 55.6686 107.5 56.0766C107.171 56.4845 106.767 56.8135 106.289 57.0636C105.811 57.3136 105.269 57.4387 104.664 57.4387Z" fill="white"/>
<path d="M113.257 51.4642C112.976 51.4642 112.665 51.5212 112.322 51.6353C111.98 51.7494 111.691 51.9118 111.454 52.1222L110.546 57.2808H109.414L110.296 52.2801C110.313 52.1924 110.327 52.1071 110.335 52.0236C110.344 51.9401 110.348 51.8548 110.348 51.7671C110.348 51.6266 110.337 51.4906 110.316 51.3592C110.294 51.2274 110.261 51.1001 110.217 50.9773L111.349 50.4904C111.445 50.7186 111.507 50.9773 111.533 51.267H111.612C111.84 51.0302 112.129 50.8413 112.48 50.7012C112.831 50.5607 113.156 50.4904 113.454 50.4904C114.112 50.4904 114.638 50.6638 115.033 51.0102C115.428 51.3569 115.625 51.8329 115.625 52.438C115.625 52.6136 115.612 52.7934 115.586 52.9777L114.823 57.2808H113.691L114.454 52.9645C114.463 52.9029 114.469 52.8459 114.474 52.7934C114.478 52.7409 114.48 52.688 114.48 52.6355C114.48 52.2846 114.375 52.0017 114.165 51.7868C113.954 51.5718 113.652 51.4642 113.257 51.4642Z" fill="white"/>
<defs>
<linearGradient id="paint0_linear_46_3340" x1="59.3428" y1="0" x2="59.3428" y2="59.9094" gradientUnits="userSpaceOnUse">
<stop stop-color="#5A0000"/>
<stop offset="0.4" stop-color="#D71B1E"/>
<stop offset="0.5" stop-color="#EC1F22"/>
<stop offset="0.6" stop-color="#EA1E21"/>
<stop offset="1" stop-color="#790102"/>
</linearGradient>
</defs>
</svg>
