<svg width="147" height="65" viewBox="0 0 147 65" fill="none" xmlns="http://www.w3.org/2000/svg">
<path d="M32.1813 3.36553C16.2922 3.36553 3.36553 16.2922 3.36553 32.1813C3.36553 48.0703 16.2922 60.997 32.1813 60.997C39.4078 60.997 46.2019 58.3685 51.5051 53.5591L25.198 32.1804L51.5158 10.8132C46.2108 5.99669 39.4132 3.36553 32.1813 3.36553ZM32.1813 64.3625C14.4363 64.3625 0 49.9253 0 32.1813C0 14.4363 14.4363 0 32.1813 0C40.9485 0 49.1439 3.46233 55.2569 9.75028L56.5392 11.0699L30.5358 32.1813L56.5285 53.3051L55.2454 54.6238C49.1341 60.9037 40.9432 64.3625 32.1813 64.3625Z" fill="#D19E66"/>
<path d="M47.8191 27.4563L52.221 40.8767L56.8235 27.4563H59.8551L53.6373 43.9394H50.6821L44.6028 27.4563H47.8191Z" fill="#D19E66"/>
<path d="M63.233 27.5327H66.0489V43.9394H63.233V27.5327ZM63.233 21.33H66.0489V24.4699H63.233V21.33Z" fill="#D19E66"/>
<path d="M71.797 22.8538H74.5986V27.4563H77.2298V29.7189H74.5986V40.4771C74.5986 41.0516 74.7931 41.4361 75.1829 41.6315C75.3987 41.7443 75.7575 41.8002 76.2601 41.8002C76.3942 41.8002 76.5371 41.7975 76.6917 41.7931C76.8453 41.7878 77.0247 41.7745 77.2298 41.754V43.9394C76.9119 44.0318 76.5815 44.0992 76.237 44.1401C75.8933 44.1809 75.5222 44.2014 75.1217 44.2014C73.8287 44.2014 72.9514 43.871 72.4896 43.2086C72.0279 42.547 71.797 41.6874 71.797 40.6307V29.7189H69.5654V27.4563H71.797V22.8538Z" fill="#D19E66"/>
<path d="M87.5492 42.1545C89.3856 42.1545 90.6456 41.4592 91.3276 40.0686C92.0096 38.6789 92.3506 37.1319 92.3506 35.4288C92.3506 33.8898 92.1046 32.6378 91.6127 31.6734C90.8321 30.1549 89.4886 29.3957 87.5802 29.3957C85.8868 29.3957 84.6552 30.0412 83.8861 31.3342C83.1162 32.6271 82.7317 34.1873 82.7317 36.0131C82.7317 37.7678 83.1162 39.2303 83.8861 40.3998C84.6552 41.5693 85.8762 42.1545 87.5492 42.1545ZM87.6566 26.9785C89.7807 26.9785 91.5763 27.6871 93.0432 29.1026C94.5111 30.519 95.2446 32.6014 95.2446 35.3515C95.2446 38.0093 94.5981 40.2053 93.3052 41.9387C92.0123 43.673 90.0063 44.5397 87.2872 44.5397C85.0201 44.5397 83.2193 43.7733 81.8855 42.2389C80.5508 40.7053 79.8839 38.6451 79.8839 36.0592C79.8839 33.2896 80.5872 31.0829 81.9929 29.4418C83.3986 27.7999 85.2865 26.9785 87.6566 26.9785Z" fill="#D19E66"/>
<path d="M111.967 43.9394H96.4984L96.7133 43.3702C97.5347 43.3498 98.0835 43.2832 98.3606 43.1704C98.7912 42.9857 99.1091 42.7442 99.3152 42.4467C99.6331 41.9752 99.9714 41.1236 100.33 39.8919L104.009 27.1944C104.316 26.1474 104.471 25.3784 104.471 24.8855C104.471 24.4957 104.33 24.1929 104.047 23.978C103.765 23.7622 103.234 23.6548 102.454 23.6548C102.28 23.6548 102.142 23.6494 102.039 23.6388L102.223 23.0696H110.735L110.611 23.6388C109.658 23.6388 108.98 23.7311 108.581 23.9158C108.18 24.1006 107.846 24.4034 107.58 24.8243C107.395 25.1013 107.092 25.9627 106.671 27.4101L103.055 39.8919C102.777 40.8359 102.639 41.493 102.639 41.8624C102.639 42.1084 102.777 42.3446 103.055 42.5701C103.229 42.7238 103.625 42.801 104.24 42.801H106.256C107.724 42.801 108.888 42.6163 109.75 42.2469C110.386 41.9698 110.971 41.5543 111.505 41.0001C111.792 40.692 112.3 39.9283 113.029 38.7073L113.428 38.0147H113.997L111.967 43.9394Z" fill="black"/>
<path d="M130.889 30.3805L128.211 39.5535C127.811 40.9184 127.611 41.7798 127.611 42.1394C127.611 42.3241 127.644 42.46 127.711 42.547C127.778 42.634 127.867 42.6775 127.98 42.6775C128.154 42.6775 128.347 42.5985 128.557 42.4395C128.768 42.2806 129.299 41.6466 130.15 40.5383L130.612 40.8926C129.801 42.1749 128.97 43.1189 128.119 43.7245C127.554 44.1143 127.01 44.3088 126.487 44.3088C126.087 44.3088 125.774 44.196 125.548 43.9705C125.322 43.7449 125.21 43.4528 125.21 43.0931C125.21 42.7441 125.276 42.2824 125.409 41.7078C125.574 40.9486 126.041 39.2969 126.811 36.7519C125.066 39.6148 123.607 41.5897 122.432 42.6775C121.257 43.7653 120.167 44.3088 119.161 44.3088C118.689 44.3088 118.288 44.1454 117.961 43.8168C117.632 43.4883 117.468 43.0727 117.468 42.5701C117.468 41.8002 117.693 40.6209 118.145 39.0305L119.485 34.2744C119.812 33.135 119.977 32.4273 119.977 32.1502C119.977 32.0268 119.933 31.922 119.846 31.835C119.759 31.7471 119.664 31.7036 119.561 31.7036C119.346 31.7036 119.13 31.7808 118.915 31.9345C118.7 32.089 118.212 32.6582 117.453 33.643L116.975 33.3047C117.745 32.1147 118.561 31.2374 119.422 30.6726C120.08 30.2313 120.684 30.011 121.238 30.011C121.618 30.011 121.928 30.1318 122.17 30.3725C122.411 30.614 122.531 30.9239 122.531 31.304C122.531 31.8581 122.326 32.8482 121.916 34.2744L120.469 39.2454C120.069 40.5996 119.869 41.4565 119.869 41.8162C119.869 42.0106 119.933 42.1669 120.062 42.285C120.19 42.4031 120.361 42.4626 120.577 42.4626C120.915 42.4626 121.357 42.293 121.901 41.9547C122.444 41.6155 123.171 40.8642 124.078 39.6992C124.987 38.535 125.735 37.4419 126.326 36.4215C126.915 35.4003 127.544 33.7762 128.211 31.55L128.549 30.3805H130.889Z" fill="black"/>
<path d="M138.284 30.011C138.786 30.5447 139.166 31.0784 139.423 31.6112C139.608 31.9806 139.91 32.9503 140.331 34.5203L141.685 32.4886C142.044 31.9966 142.48 31.5269 142.994 31.0802C143.506 30.6344 143.958 30.329 144.348 30.1647C144.594 30.0626 144.866 30.011 145.164 30.011C145.604 30.011 145.956 30.1292 146.218 30.3645C146.479 30.6007 146.61 30.8884 146.61 31.2267C146.61 31.6166 146.533 31.8838 146.38 32.0268C146.092 32.2834 145.764 32.4122 145.395 32.4122C145.179 32.4122 144.948 32.366 144.702 32.2737C144.22 32.1094 143.897 32.0268 143.732 32.0268C143.486 32.0268 143.193 32.1707 142.855 32.4584C142.218 32.9921 141.459 34.023 140.577 35.5513L141.839 40.8465C142.034 41.6572 142.198 42.1421 142.331 42.301C142.465 42.46 142.598 42.539 142.732 42.539C142.947 42.539 143.199 42.4209 143.486 42.1856C144.05 41.7132 144.533 41.0978 144.933 40.3385L145.471 40.6156C144.825 41.8259 144.004 42.832 143.009 43.6321C142.445 44.0832 141.967 44.3088 141.577 44.3088C141.003 44.3088 140.546 43.9856 140.208 43.34C139.992 42.9395 139.546 41.2159 138.869 38.1682C137.268 40.9486 135.986 42.7397 135.021 43.5398C134.395 44.053 133.789 44.3088 133.204 44.3088C132.794 44.3088 132.419 44.1605 132.081 43.863C131.835 43.6375 131.712 43.3347 131.712 42.9546C131.712 42.6163 131.824 42.3339 132.05 42.1083C132.276 41.8828 132.553 41.77 132.881 41.77C133.21 41.77 133.559 41.9343 133.928 42.2619C134.194 42.4982 134.4 42.6163 134.543 42.6163C134.667 42.6163 134.826 42.5337 135.021 42.3703C135.503 41.9804 136.16 41.1386 136.991 39.8457C137.822 38.5528 138.365 37.6195 138.622 37.0449C137.986 34.5514 137.643 33.2327 137.591 33.0889C137.355 32.422 137.048 31.9504 136.668 31.6734C136.288 31.3963 135.729 31.2578 134.99 31.2578C134.754 31.2578 134.482 31.2676 134.174 31.288V30.7339L138.284 30.011Z" fill="black"/>
<path d="M66.4921 52.0176H65.8625V54.203H65.3386V52.0176H64.7134L62.964 54.203H62.2998L64.2587 51.777L62.5183 49.4735H63.1523L64.7045 51.5497H65.3386V49.4735H65.8625V51.5497H66.501L68.0532 49.4735H68.6952L66.9467 51.777L68.9092 54.203H68.2406L66.4921 52.0176Z" fill="#999999"/>
<path d="M72.8519 49.4735H73.3767V54.203H72.8519V50.3171L70.2989 54.203H69.7794V49.4735H70.2989V53.3639L72.8519 49.4735Z" fill="#999999"/>
<path d="M74.8324 54.203V49.4735H76.5676C77.1678 49.4735 77.6287 49.5801 77.9493 49.795C78.2699 50.009 78.4297 50.3224 78.4297 50.7362C78.4297 50.9725 78.3587 51.1829 78.2157 51.3685C78.0727 51.5532 77.864 51.6882 77.5905 51.7725C77.8996 51.8312 78.1482 51.9635 78.3356 52.1704C78.5238 52.3773 78.618 52.6179 78.618 52.8914C78.618 53.3088 78.4643 53.6311 78.1562 53.8602C77.8489 54.0885 77.4138 54.203 76.8517 54.203H74.8324ZM75.3528 52.0265V53.7661H76.8695C77.2629 53.7661 77.5657 53.6906 77.7788 53.5388C77.991 53.3869 78.0976 53.1685 78.0976 52.8826C78.0976 52.6206 77.991 52.4119 77.7788 52.2574C77.5657 52.1038 77.2629 52.0265 76.8695 52.0265H75.3528ZM75.3528 51.5887H76.6768C77.4991 51.5772 77.9093 51.2975 77.9093 50.7496C77.9093 50.461 77.7966 50.2505 77.571 50.1182C77.3446 49.9859 77.0107 49.9193 76.5676 49.9193H75.3528V51.5887Z" fill="#999999"/>
<path d="M80.3573 51.1909H81.7204C82.0702 51.1909 82.3775 51.2548 82.6412 51.3809C82.905 51.5079 83.1039 51.6838 83.2397 51.9084C83.3756 52.1322 83.4431 52.3933 83.4431 52.6907C83.4431 53.1481 83.2868 53.5148 82.9733 53.7901C82.6599 54.0654 82.2363 54.203 81.7035 54.203H79.8369V49.4735H80.3573V51.1909ZM80.3573 51.6367V53.7617H81.7124C82.088 53.7617 82.3828 53.6667 82.5968 53.4775C82.8117 53.2884 82.9183 53.0291 82.9183 52.6996C82.9183 52.3844 82.8144 52.1304 82.6057 51.9368C82.3979 51.7424 82.1129 51.6429 81.7514 51.6367H80.3573ZM85.0477 54.203H84.5229V49.4735H85.0477V54.203Z" fill="#999999"/>
<path d="M88.3344 54.2909C87.9321 54.2909 87.5689 54.1914 87.2439 53.9934C86.9189 53.7954 86.6658 53.5192 86.4856 53.1649C86.3044 52.8106 86.2147 52.4137 86.2147 51.9741V51.7858C86.2147 51.3312 86.3026 50.9218 86.4785 50.5577C86.6552 50.1928 86.9003 49.9068 87.2155 49.6981C87.5299 49.4903 87.8708 49.3856 88.2385 49.3856C88.8121 49.3856 89.2677 49.5818 89.6042 49.9734C89.9408 50.3659 90.1095 50.9014 90.1095 51.5798V51.8729H86.7342V51.9741C86.7342 52.5096 86.8878 52.9562 87.196 53.3132C87.5032 53.6702 87.8904 53.8487 88.3566 53.8487C88.6363 53.8487 88.8832 53.798 89.0972 53.6959C89.3112 53.5938 89.5057 53.4304 89.6806 53.2066L90.0083 53.4553C89.6238 54.0121 89.0661 54.2909 88.3344 54.2909ZM88.2385 49.8313C87.8451 49.8313 87.513 49.9761 87.2439 50.2647C86.974 50.5533 86.8106 50.9405 86.752 51.4271H89.5891V51.3702C89.574 50.9156 89.4444 50.5453 89.2002 50.2602C88.9551 49.9743 88.6345 49.8313 88.2385 49.8313Z" fill="#999999"/>
<path d="M93.3409 49.4735H93.8658V53.7617H96.4143V49.4735H96.9391V53.7617H97.4195L97.3805 55.6061H96.9001V54.203H93.3409V49.4735Z" fill="#999999"/>
<path d="M98.4594 54.203V49.4735H100.195C100.796 49.4735 101.256 49.5801 101.576 49.795C101.897 50.009 102.058 50.3224 102.058 50.7362C102.058 50.9725 101.986 51.1829 101.844 51.3685C101.701 51.5532 101.492 51.6882 101.218 51.7725C101.527 51.8312 101.775 51.9635 101.963 52.1704C102.152 52.3773 102.246 52.6179 102.246 52.8914C102.246 53.3088 102.091 53.6311 101.784 53.8602C101.477 54.0885 101.042 54.203 100.48 54.203H98.4594ZM98.9797 52.0265V53.7661H100.496C100.891 53.7661 101.194 53.6906 101.406 53.5388C101.619 53.3869 101.725 53.1685 101.725 52.8826C101.725 52.6206 101.619 52.4119 101.406 52.2574C101.194 52.1038 100.891 52.0265 100.496 52.0265H98.9797ZM98.9797 51.5887H100.305C101.126 51.5772 101.537 51.2975 101.537 50.7496C101.537 50.461 101.424 50.2505 101.199 50.1182C100.972 49.9859 100.639 49.9193 100.195 49.9193H98.9797V51.5887Z" fill="#999999"/>
<path d="M105.239 54.2909C104.837 54.2909 104.474 54.1914 104.149 53.9934C103.824 53.7954 103.571 53.5192 103.39 53.1649C103.209 52.8106 103.12 52.4137 103.12 51.9741V51.7858C103.12 51.3312 103.207 50.9218 103.383 50.5577C103.56 50.1928 103.805 49.9068 104.12 49.6981C104.435 49.4903 104.776 49.3856 105.143 49.3856C105.717 49.3856 106.172 49.5818 106.509 49.9734C106.846 50.3659 107.014 50.9014 107.014 51.5798V51.8729H103.639V51.9741C103.639 52.5096 103.794 52.9562 104.101 53.3132C104.408 53.6702 104.795 53.8487 105.261 53.8487C105.541 53.8487 105.788 53.798 106.002 53.6959C106.216 53.5938 106.41 53.4304 106.585 53.2066L106.914 53.4553C106.529 54.0121 105.971 54.2909 105.239 54.2909ZM105.143 49.8313C104.75 49.8313 104.418 49.9761 104.149 50.2647C103.879 50.5533 103.715 50.9405 103.657 51.4271H106.494V51.3702C106.48 50.9156 106.35 50.5453 106.105 50.2602C105.86 49.9743 105.539 49.8313 105.143 49.8313Z" fill="#999999"/>
<path d="M111.381 49.9193H109.659V54.203H109.134V49.9193H107.477V49.4735H111.381V49.9193Z" fill="#999999"/>
<path d="M112.814 51.1909H114.178C114.528 51.1909 114.834 51.2548 115.098 51.3809C115.362 51.5079 115.561 51.6838 115.697 51.9084C115.832 52.1322 115.901 52.3933 115.901 52.6907C115.901 53.1481 115.743 53.5148 115.431 53.7901C115.117 54.0654 114.694 54.203 114.16 54.203H112.294V49.4735H112.814V51.1909ZM112.814 51.6367V53.7617H114.169C114.546 53.7617 114.84 53.6667 115.054 53.4775C115.268 53.2884 115.376 53.0291 115.376 52.6996C115.376 52.3844 115.272 52.1304 115.063 51.9368C114.855 51.7424 114.57 51.6429 114.209 51.6367H112.814ZM117.504 54.203H116.98V49.4735H117.504V54.203Z" fill="#999999"/>
<path d="M24.1282 13.2655H27.4938V51.0971H24.1282V13.2655Z" fill="#D19E66"/>
</svg>
