<svg width="152" height="47" viewBox="0 0 152 47" fill="none" xmlns="http://www.w3.org/2000/svg">
<path d="M67.2813 12.2043H65.2578V14.3543H64.4358V9.35876H67.5975V10.0543H65.2578V11.572H67.2813V12.2043Z" fill="#231F20"/>
<path d="M69.1153 12.4573H70.4432L69.8109 10.497L69.1153 12.4573ZM70.6329 13.1528H68.8623L68.4829 14.2911H67.6609L69.3682 9.29553H70.127L71.8344 14.2911H70.9491L70.6329 13.1528Z" fill="#231F20"/>
<path d="M75.8815 12.7102C75.8815 13.2161 75.755 13.6587 75.3756 13.9749C75.0594 14.2911 74.6168 14.4175 74.0477 14.4175C73.4786 14.4175 72.9727 14.2278 72.6565 13.8484C72.3403 13.469 72.0874 12.9631 72.0874 12.3308V11.3823C72.0874 10.7499 72.2771 10.3073 72.5933 9.86464C72.9727 9.48524 73.4153 9.29553 73.9844 9.29553C74.5535 9.29553 75.0594 9.422 75.3756 9.73817C75.6918 10.0543 75.8815 10.4338 75.8815 10.9396H75.0594C75.0594 10.6235 74.9962 10.3705 74.8065 10.1808C74.6168 9.99111 74.3638 9.92788 73.9844 9.92788C73.6683 9.92788 73.3521 10.0543 73.1624 10.3073C72.9727 10.5602 72.8462 10.9396 72.8462 11.319V12.2676C72.8462 12.7102 72.9727 13.0264 73.1624 13.2793C73.3521 13.5322 73.605 13.6587 73.9844 13.6587C74.3006 13.6587 74.5535 13.5955 74.7433 13.4058C74.933 13.2161 74.9962 12.9631 74.9962 12.647H75.8815V12.7102Z" fill="#231F20"/>
<path d="M80.1814 9.99111H78.6638V14.2911H77.8417V9.99111H76.3241V9.29553H80.1814V9.99111Z" fill="#231F20"/>
<path d="M83.7224 11.3823C83.7224 10.9396 83.5959 10.6235 83.4062 10.3705C83.2165 10.1176 82.9004 9.99111 82.5209 9.99111C82.1415 9.99111 81.8886 10.1176 81.6357 10.3705C81.446 10.6235 81.3195 11.0029 81.3195 11.3823V12.2676C81.3195 12.7102 81.446 13.0264 81.6357 13.2793C81.8254 13.5322 82.1415 13.6587 82.5209 13.6587C82.9004 13.6587 83.2165 13.5322 83.4062 13.2793C83.5959 13.0264 83.7224 12.647 83.7224 12.2676V11.3823ZM84.5445 12.2676C84.5445 12.8999 84.3547 13.4058 83.9753 13.7852C83.5959 14.1646 83.0901 14.3543 82.4577 14.3543C81.8886 14.3543 81.3827 14.1646 81.0033 13.7852C80.6239 13.4058 80.4342 12.8999 80.4342 12.2676V11.3823C80.4342 10.7499 80.6239 10.2441 81.0033 9.86465C81.3827 9.48524 81.8886 9.2323 82.4577 9.2323C83.0901 9.2323 83.5327 9.422 83.9753 9.86465C84.418 10.3073 84.5445 10.7499 84.5445 11.3823V12.2676Z" fill="#231F20"/>
<path d="M86.2519 11.572H87.0739C87.3901 11.572 87.643 11.5087 87.8327 11.3823C87.9592 11.2558 88.0857 11.0661 88.0857 10.8132C88.0857 10.5602 88.0224 10.3705 87.8327 10.244C87.7063 10.1176 87.4533 10.0543 87.1371 10.0543H86.2519V11.572ZM86.2519 12.2676V14.3543H85.4298V9.35876H87.1371C87.7063 9.35876 88.1489 9.48523 88.4018 9.73817C88.6548 9.99111 88.8445 10.3705 88.8445 10.8132C88.8445 11.0661 88.7812 11.319 88.6548 11.5087C88.5283 11.6984 88.3386 11.8249 88.0857 11.9514C88.3386 12.0146 88.5915 12.2043 88.718 12.394C88.8445 12.5837 88.9077 12.8367 88.9077 13.1528V13.5955C88.9077 13.7219 88.9077 13.9117 88.9709 14.0381C89.0342 14.1646 89.0974 14.2911 89.1606 14.3543V14.4175H88.2754C88.2121 14.3543 88.1489 14.2278 88.0857 14.0381C88.0857 13.8484 88.0224 13.7219 88.0224 13.5322V13.1528C88.0224 12.8999 87.9592 12.7102 87.8327 12.5205C87.7063 12.394 87.5165 12.2676 87.2636 12.2676H86.2519Z" fill="#231F20"/>
<path d="M91.4371 11.7617L92.6385 9.35876H93.5871L91.8797 12.5837V14.3543H91.0577V12.5837L89.3503 9.422H90.2989L91.4371 11.7617Z" fill="#231F20"/>
<path d="M99.0253 11.3823C99.0253 10.9396 98.8988 10.6235 98.7091 10.3705C98.5194 10.1176 98.2032 9.99111 97.8238 9.99111C97.4444 9.99111 97.1915 10.1176 96.9385 10.3705C96.7488 10.6235 96.6223 11.0029 96.6223 11.3823V12.2676C96.6223 12.7102 96.7488 13.0264 96.9385 13.2793C97.1282 13.5322 97.4444 13.6587 97.8238 13.6587C98.2032 13.6587 98.5194 13.5322 98.7091 13.2793C98.8988 13.0264 99.0253 12.647 99.0253 12.2676V11.3823ZM99.8473 12.2676C99.8473 12.8999 99.6576 13.4058 99.2782 13.7852C98.8988 14.1646 98.3929 14.3543 97.7606 14.3543C97.1915 14.3543 96.6856 14.1646 96.3062 13.7852C95.9268 13.4058 95.7371 12.8999 95.7371 12.2676V11.3823C95.7371 10.7499 95.9268 10.2441 96.3062 9.86465C96.6856 9.48524 97.1915 9.2323 97.7606 9.2323C98.3929 9.2323 98.8356 9.422 99.2782 9.86465C99.7208 10.3073 99.8473 10.7499 99.8473 11.3823V12.2676Z" fill="#231F20"/>
<path d="M103.578 12.2043H101.555V14.3543H100.733V9.35876H103.894V10.0543H101.555V11.572H103.578V12.2043Z" fill="#231F20"/>
<path d="M109.016 13.0264C109.016 12.8367 108.953 12.647 108.827 12.5205C108.7 12.394 108.447 12.2676 108.068 12.1411C107.562 12.0146 107.119 11.8249 106.803 11.572C106.487 11.319 106.36 11.0029 106.36 10.6235C106.36 10.2441 106.55 9.86465 106.866 9.61171C107.183 9.35877 107.625 9.2323 108.068 9.2323C108.574 9.2323 109.016 9.35877 109.333 9.67494C109.649 9.99111 109.838 10.3073 109.775 10.7499H108.953C108.953 10.497 108.89 10.3073 108.7 10.1176C108.51 9.99111 108.321 9.86465 108.005 9.86465C107.752 9.86465 107.499 9.92788 107.372 10.0543C107.246 10.1808 107.119 10.3705 107.119 10.5602C107.119 10.7499 107.183 10.9396 107.372 11.0029C107.562 11.1293 107.815 11.2558 108.194 11.3823C108.7 11.5087 109.143 11.6984 109.396 11.9514C109.649 12.2043 109.775 12.5205 109.775 12.8999C109.775 13.3425 109.585 13.6587 109.269 13.9117C108.953 14.1646 108.51 14.2911 108.005 14.2911C107.499 14.2911 107.056 14.1646 106.677 13.9117C106.297 13.6587 106.108 13.2793 106.108 12.7734H106.93C106.93 13.0896 107.056 13.2793 107.246 13.469C107.435 13.5955 107.688 13.722 108.005 13.722C108.321 13.722 108.51 13.6587 108.7 13.5322C108.953 13.4058 109.016 13.2793 109.016 13.0264Z" fill="#231F20"/>
<path d="M114.075 9.99111H112.557V14.2911H111.735V9.99111H110.218V9.29553H114.075V9.99111Z" fill="#231F20"/>
<path d="M117.49 12.0779H115.53V13.6587H117.806V14.2911H114.708V9.29553H117.806V9.99111H115.53V11.3823H117.49V12.0779Z" fill="#231F20"/>
<path d="M121.41 12.0779H119.45V13.6587H121.727V14.2911H118.628V9.29553H121.727V9.99111H119.45V11.3823H121.41V12.0779Z" fill="#231F20"/>
<path d="M123.307 13.6587H125.647V14.2911H122.485V9.29553H123.307V13.6587Z" fill="#231F20"/>
<path d="M128.935 9.99111V13.6587H129.757C130.137 13.6587 130.453 13.5322 130.706 13.2793C130.959 13.0264 131.085 12.647 131.085 12.2676V11.5087C131.085 11.0661 130.959 10.7499 130.706 10.497C130.453 10.2441 130.137 10.1176 129.757 10.1176H128.935V9.99111ZM128.113 14.2911V9.29553H129.757C130.39 9.29553 130.895 9.48524 131.275 9.86464C131.654 10.2441 131.844 10.7499 131.844 11.3823V12.1411C131.844 12.7734 131.654 13.2793 131.275 13.6587C130.895 14.0381 130.39 14.2278 129.757 14.2278H128.113V14.2911Z" fill="#231F20"/>
<path d="M135.828 11.3823C135.828 10.9396 135.701 10.6235 135.512 10.3705C135.322 10.1176 135.006 9.99111 134.626 9.99111C134.247 9.99111 133.994 10.1176 133.741 10.3705C133.551 10.6235 133.425 11.0029 133.425 11.3823V12.2676C133.425 12.7102 133.551 13.0264 133.741 13.2793C133.931 13.5322 134.247 13.6587 134.626 13.6587C135.006 13.6587 135.322 13.5322 135.512 13.2793C135.701 13.0264 135.828 12.647 135.828 12.2676V11.3823ZM136.713 12.2676C136.713 12.8999 136.523 13.4058 136.144 13.7852C135.765 14.1646 135.259 14.3543 134.626 14.3543C134.057 14.3543 133.551 14.1646 133.172 13.7852C132.793 13.4058 132.603 12.8999 132.603 12.2676V11.3823C132.603 10.7499 132.793 10.2441 133.172 9.86465C133.551 9.48524 134.057 9.2323 134.626 9.2323C135.259 9.2323 135.701 9.422 136.144 9.86465C136.587 10.3073 136.713 10.7499 136.713 11.3823V12.2676Z" fill="#231F20"/>
<path d="M140.634 11.3823C140.634 10.9396 140.507 10.6235 140.317 10.3705C140.128 10.1176 139.811 9.99111 139.432 9.99111C139.053 9.99111 138.8 10.1176 138.547 10.3705C138.357 10.6235 138.231 11.0029 138.231 11.3823V12.2676C138.231 12.7102 138.357 13.0264 138.547 13.2793C138.736 13.5322 139.053 13.6587 139.432 13.6587C139.811 13.6587 140.128 13.5322 140.317 13.2793C140.507 13.0264 140.634 12.647 140.634 12.2676V11.3823ZM141.456 12.2676C141.456 12.8999 141.266 13.4058 140.886 13.7852C140.507 14.1646 140.001 14.3543 139.369 14.3543C138.8 14.3543 138.294 14.1646 137.914 13.7852C137.535 13.4058 137.345 12.8999 137.345 12.2676V11.3823C137.345 10.7499 137.535 10.2441 137.914 9.86465C138.294 9.48524 138.8 9.2323 139.369 9.2323C140.001 9.2323 140.444 9.422 140.886 9.86465C141.329 10.3073 141.456 10.7499 141.456 11.3823V12.2676Z" fill="#231F20"/>
<path d="M143.163 11.572H143.985C144.301 11.572 144.554 11.5087 144.744 11.3823C144.87 11.2558 144.997 11.0661 144.997 10.8132C144.997 10.5602 144.934 10.3705 144.744 10.244C144.618 10.1176 144.365 10.0543 144.048 10.0543H143.163V11.572ZM143.163 12.2676V14.3543H142.341V9.35876H144.048C144.618 9.35876 145.06 9.48523 145.313 9.73817C145.629 9.99111 145.756 10.3705 145.756 10.8132C145.756 11.0661 145.692 11.319 145.566 11.5087C145.44 11.6984 145.25 11.8249 144.997 11.9514C145.25 12.0146 145.503 12.2043 145.629 12.394C145.756 12.5837 145.819 12.8367 145.819 13.1528V13.5955C145.819 13.7219 145.819 13.9117 145.882 14.0381C145.945 14.1646 146.009 14.2911 146.072 14.3543V14.4175H145.187C145.123 14.3543 145.06 14.2278 144.997 14.0381C144.997 13.8484 144.934 13.7219 144.934 13.5322V13.1528C144.934 12.8999 144.87 12.7102 144.744 12.5205C144.618 12.394 144.428 12.2676 144.175 12.2676H143.163Z" fill="#231F20"/>
<path d="M149.423 13.0264C149.423 12.8367 149.36 12.647 149.233 12.5205C149.107 12.394 148.854 12.2676 148.475 12.1411C147.969 12.0146 147.526 11.8249 147.21 11.572C146.894 11.319 146.767 11.0029 146.767 10.6235C146.767 10.2441 146.957 9.86465 147.273 9.61171C147.589 9.35877 148.032 9.2323 148.475 9.2323C148.98 9.2323 149.423 9.35877 149.739 9.67494C150.055 9.99111 150.245 10.3073 150.182 10.7499H149.36C149.36 10.497 149.297 10.3073 149.107 10.1176C148.917 9.99111 148.727 9.86465 148.411 9.86465C148.158 9.86465 147.905 9.92788 147.779 10.0543C147.653 10.1808 147.526 10.3705 147.526 10.5602C147.526 10.7499 147.589 10.9396 147.779 11.0029C147.969 11.1293 148.222 11.2558 148.601 11.3823C149.107 11.5087 149.55 11.6984 149.802 11.9514C150.055 12.2043 150.182 12.5205 150.182 12.8999C150.182 13.3425 149.992 13.6587 149.676 13.9117C149.36 14.1646 148.917 14.2911 148.411 14.2911C147.905 14.2911 147.463 14.1646 147.083 13.9117C146.704 13.6587 146.514 13.2793 146.514 12.7734H147.336C147.336 13.0896 147.463 13.2793 147.653 13.469C147.842 13.5955 148.095 13.722 148.411 13.722C148.727 13.722 148.917 13.6587 149.107 13.5322C149.36 13.4058 149.423 13.2793 149.423 13.0264Z" fill="#231F20"/>
<path d="M15.366 37.8775C27.0012 32.7555 30.732 29.0879 30.732 18.7174V0H0V18.7174C0 29.0879 3.73084 32.7555 15.366 37.8775Z" fill="#E62A29"/>
<path d="M3.73075 7.46178C3.73075 7.71472 3.79399 7.90442 3.98369 7.96765C4.1734 8.03089 4.29987 7.96765 4.3631 7.84119C4.42633 7.71472 4.3631 7.58825 4.1734 7.58825C4.42634 7.84119 4.11016 7.84119 4.04693 7.77795C3.92046 7.65148 3.92046 7.52501 3.92046 7.39854L3.73075 7.46178ZM3.09841 7.46178C3.09841 7.71472 3.03517 7.90442 2.84547 7.96765C2.65577 8.03089 2.5293 7.96765 2.46606 7.84119C2.40283 7.71472 2.46606 7.58825 2.65577 7.58825C2.40283 7.84119 2.719 7.84119 2.78224 7.77795C2.90871 7.65148 2.90871 7.52501 2.90871 7.39854L3.09841 7.46178ZM3.28811 7.01914V6.51326C3.22488 6.19709 2.78224 5.56474 2.90871 5.3118C3.09841 4.9324 3.28811 4.61622 3.47782 4.23682C3.60429 4.61622 3.79399 4.9324 3.98369 5.3118C4.11016 5.56474 3.66752 6.19709 3.60429 6.45003V6.9559H3.28811M2.84547 6.89267C2.78224 6.82943 2.78224 6.70296 2.719 6.63973C2.78224 6.57649 2.78224 6.45003 2.719 6.32356C2.65577 6.32356 2.65577 6.38679 2.59253 6.38679C2.08666 5.37504 1.77048 6.9559 2.719 6.38679C2.719 6.57649 2.65577 6.70296 2.46606 6.7662C2.59253 6.9559 2.33959 7.33531 2.08666 7.08237C2.21313 7.14561 2.33959 7.08237 2.27636 6.89267C2.27636 6.82943 2.02342 6.7662 1.96019 6.63973C1.58078 6.26032 1.77048 5.62798 2.27636 5.69121C2.65577 5.75445 2.90871 6.13385 3.09841 6.7662C3.09841 6.82943 3.16164 6.9559 3.16164 7.01914H2.90871C2.90871 6.9559 2.84547 6.89267 2.84547 6.89267ZM4.04693 6.82943C4.04693 6.7662 4.11016 6.70296 4.11016 6.63973C4.04693 6.57649 4.04693 6.45003 4.11016 6.32356C4.1734 6.32356 4.1734 6.38679 4.23663 6.38679C4.74251 5.37504 5.05868 6.9559 4.11016 6.38679C4.11016 6.57649 4.1734 6.70296 4.3631 6.7662C4.23663 6.9559 4.48957 7.33531 4.74251 7.08237C4.61604 7.14561 4.48957 7.08237 4.5528 6.89267C4.5528 6.82943 4.80574 6.7662 4.86898 6.63973C5.31162 6.26032 5.12192 5.62798 4.5528 5.69121C4.1734 5.75445 3.92046 6.13385 3.73075 6.70296C3.73075 6.82943 3.66752 6.89267 3.66752 6.9559H3.92046C3.98369 6.9559 3.98369 6.89267 4.04693 6.82943ZM2.78224 7.01914H4.04693C4.11016 7.01914 4.11016 7.08237 4.11016 7.08237V7.33531C4.11016 7.39854 4.04693 7.39854 4.04693 7.39854H2.78224C2.719 7.39854 2.719 7.33531 2.719 7.33531V7.08237L2.78224 7.01914ZM3.41458 8.47353C3.54105 8.4103 3.54105 8.28383 3.54105 8.15736C3.60429 8.22059 3.79399 8.28383 3.85722 8.22059C3.66752 8.09412 3.54105 7.77795 3.54105 7.46178H3.28811C3.28811 7.71472 3.22488 8.03089 2.97194 8.22059C3.03517 8.34706 3.22488 8.22059 3.28811 8.15736C3.28811 8.28383 3.35135 8.4103 3.41458 8.47353Z" fill="white"/>
<path d="M27.1276 7.46165C27.1276 7.71459 27.1908 7.9043 27.3805 7.96753C27.5702 8.03077 27.6967 7.96753 27.7599 7.84106C27.8231 7.71459 27.7599 7.58812 27.5702 7.58812C27.8231 7.84106 27.507 7.84106 27.4437 7.77783C27.3173 7.65136 27.3173 7.52489 27.3173 7.39842L27.1276 7.46165ZM26.4952 7.46165C26.4952 7.71459 26.432 7.9043 26.2423 7.96753C26.0526 8.03077 25.9261 7.96753 25.8629 7.84106C25.7996 7.71459 25.8629 7.58812 26.0526 7.58812C25.7996 7.84106 26.1158 7.84106 26.179 7.77783C26.3055 7.65136 26.3055 7.52489 26.3055 7.39842L26.4952 7.46165ZM26.6849 7.01901V6.51314C26.6217 6.2602 26.179 5.62785 26.3055 5.37491C26.4952 4.99551 26.6849 4.67933 26.8746 4.29993C27.0643 4.67933 27.1908 4.99551 27.3805 5.37491C27.507 5.62785 27.0643 6.2602 27.0011 6.51314V7.01901H26.6849ZM26.2423 6.89254C26.179 6.82931 26.179 6.70284 26.1158 6.63961C26.179 6.57637 26.179 6.4499 26.1158 6.32343C26.0526 6.32343 26.0526 6.38667 25.9893 6.38667C25.4835 5.37491 25.1673 6.95578 26.1158 6.38667C26.1158 6.57637 26.0526 6.70284 25.8629 6.76607C25.9893 6.95578 25.7364 7.33519 25.4835 7.08225C25.6099 7.14548 25.7364 7.08225 25.6732 6.89254C25.6732 6.82931 25.4202 6.76607 25.357 6.63961C24.9143 6.2602 25.1041 5.62785 25.6732 5.62785C26.0526 5.69109 26.3055 6.07049 26.4952 6.70284C26.4952 6.76607 26.5584 6.89254 26.5584 6.95578H26.3055C26.3055 6.95578 26.3055 6.89254 26.2423 6.89254ZM27.4437 6.82931C27.4437 6.76607 27.507 6.70284 27.507 6.63961C27.4437 6.57637 27.4437 6.4499 27.507 6.32343C27.5702 6.32343 27.5702 6.38667 27.6334 6.38667C28.1393 5.37491 28.4555 6.95578 27.507 6.38667C27.507 6.57637 27.5702 6.70284 27.7599 6.76607C27.6334 6.95578 27.8864 7.33519 28.1393 7.08225C28.0128 7.14548 27.8864 7.08225 27.9496 6.89254C27.9496 6.82931 28.2025 6.76607 28.2658 6.63961C28.7084 6.2602 28.5187 5.62785 28.0128 5.62785C27.6334 5.69109 27.3805 6.07049 27.1908 6.63961C27.1908 6.76607 27.1908 6.82931 27.1276 6.89254H27.3805C27.3805 6.95578 27.3805 6.89254 27.4437 6.82931ZM26.2423 7.01901H27.507C27.5702 7.01901 27.5702 7.08225 27.5702 7.08225V7.33519C27.5702 7.39842 27.5702 7.39842 27.507 7.39842H26.2423C26.179 7.39842 26.179 7.33519 26.179 7.33519V7.08225C26.179 7.08225 26.179 7.01901 26.2423 7.01901ZM26.8114 8.47341C26.9379 8.41017 26.9379 8.2837 26.9379 8.15723C27.0011 8.22047 27.1908 8.2837 27.254 8.22047C27.0643 8.094 26.9379 7.77783 26.9379 7.46165H26.6217C26.6217 7.71459 26.4952 8.03077 26.3055 8.22047C26.3687 8.34694 26.5584 8.22047 26.6217 8.15723C26.7481 8.2837 26.7481 8.41017 26.8114 8.47341Z" fill="white"/>
<path d="M3.73075 23.3336C3.73075 23.5865 3.79399 23.7762 3.98369 23.8395C4.1734 23.9027 4.29987 23.8395 4.3631 23.713C4.42633 23.5865 4.3631 23.4601 4.1734 23.4601C4.42634 23.713 4.11016 23.713 4.04693 23.6498C3.92046 23.5233 3.92046 23.3968 3.92046 23.2704H3.73075M3.09841 23.3336C3.09841 23.5865 3.03517 23.7762 2.84547 23.8395C2.65577 23.9027 2.5293 23.8395 2.46606 23.713C2.40283 23.5865 2.46606 23.4601 2.65577 23.4601C2.40283 23.713 2.719 23.713 2.78224 23.6498C2.90871 23.5233 2.90871 23.3968 2.90871 23.2704H3.09841M3.28811 22.8277V22.3219C3.22488 22.0689 2.78224 21.4366 2.90871 21.1836C3.09841 20.8042 3.28811 20.488 3.47782 20.1086C3.66752 20.488 3.85722 20.8042 4.04693 21.1836C4.1734 21.4366 3.73075 22.0689 3.66752 22.3219V22.8277H3.28811ZM2.84547 22.7013C2.78224 22.638 2.78224 22.5116 2.719 22.4483C2.78224 22.3851 2.78224 22.2586 2.719 22.1321C2.65577 22.1321 2.65577 22.1954 2.59253 22.1954C2.08666 21.1836 1.77048 22.8277 2.719 22.1954C2.719 22.3851 2.65577 22.5116 2.46606 22.5748C2.5293 22.7645 2.33959 23.1439 2.08666 22.891C2.21313 22.9542 2.33959 22.891 2.27636 22.7013C2.27636 22.638 2.02342 22.5748 1.96019 22.4483C1.58078 22.1321 1.77048 21.4998 2.27636 21.4998C2.65577 21.563 2.90871 21.9424 3.09841 22.5748C3.09841 22.638 3.16164 22.7645 3.16164 22.8277H2.90871C2.90871 22.7645 2.84547 22.7645 2.84547 22.7013ZM4.04693 22.638C4.04693 22.5748 4.11016 22.5116 4.11016 22.4483C4.04693 22.3851 4.04693 22.2586 4.11016 22.1321C4.1734 22.1321 4.1734 22.1954 4.23663 22.1954C4.74251 21.1836 5.05868 22.8277 4.11016 22.1954C4.11016 22.3851 4.1734 22.5116 4.3631 22.5748C4.23663 22.7645 4.48957 23.1439 4.74251 22.891C4.61604 22.9542 4.48957 22.891 4.5528 22.7013C4.5528 22.638 4.80574 22.5748 4.86898 22.4483C5.31162 22.1321 5.12192 21.4998 4.5528 21.4998C4.1734 21.563 3.92046 21.9424 3.73075 22.5116C3.73075 22.5748 3.66752 22.7013 3.66752 22.7645H3.92046C3.98369 22.7645 3.98369 22.7013 4.04693 22.638ZM2.78224 22.891H4.04693C4.11016 22.891 4.11016 22.9542 4.11016 22.9542V23.2071C4.11016 23.2704 4.04693 23.2704 4.04693 23.2704H2.78224C2.719 23.2704 2.719 23.2071 2.719 23.2071L2.78224 22.891ZM3.41458 24.3454C3.54105 24.2821 3.54105 24.1557 3.54105 24.0292C3.60429 24.0292 3.79399 24.1557 3.85722 24.0292C3.66752 23.9027 3.54105 23.5865 3.54105 23.3336H3.28811C3.28811 23.5865 3.22488 23.9027 2.97194 24.0292C3.03517 24.1557 3.22488 24.0292 3.28811 23.966C3.28811 24.1557 3.35135 24.2821 3.41458 24.3454Z" fill="white"/>
<path d="M15.5557 34.779C15.5557 34.9687 15.6189 35.0952 15.7454 35.1584C15.8719 35.2216 15.9351 35.1584 15.9983 35.0952C16.0616 34.9687 15.9983 34.9055 15.8719 34.9055C16.0616 35.0319 15.8086 35.0952 15.8086 35.0319C15.7454 34.9687 15.7454 34.8422 15.7454 34.779H15.5557ZM15.1763 34.779C15.1763 34.9687 15.1763 35.0952 14.9866 35.1584C14.8601 35.2216 14.7969 35.1584 14.7337 35.0952C14.6704 34.9687 14.7337 34.9055 14.8601 34.9055C14.6704 35.0319 14.9234 35.0952 14.9234 35.0319C14.9866 34.9687 14.9866 34.8422 14.9866 34.779H15.1763ZM15.2395 34.4628V34.0834C15.1763 33.8937 14.9234 33.4511 14.9866 33.3246L15.366 32.5658L15.7454 33.3246C15.8086 33.5143 15.5557 33.8937 15.4925 34.0834V34.4628H15.2395ZM14.9866 34.3996C14.9866 34.3364 14.9234 34.2731 14.9234 34.2099V34.0202L14.8601 34.0834C14.5439 33.3878 14.291 34.5261 14.9234 34.0834C14.9234 34.2099 14.8601 34.2731 14.7337 34.3364C14.7969 34.4628 14.6704 34.7158 14.4807 34.5261C14.6072 34.5893 14.6704 34.5261 14.6072 34.3996C14.6072 34.3364 14.4175 34.2731 14.4175 34.2099C14.1013 33.957 14.2278 33.5143 14.6072 33.5143C14.8601 33.5775 15.0498 33.8305 15.1763 34.2099V34.3996H15.0498C14.9866 34.4628 14.9866 34.3996 14.9866 34.3996ZM15.7454 34.3364C15.7454 34.2731 15.8086 34.2731 15.8086 34.2099V34.0202L15.8719 34.0834C16.188 33.3878 16.441 34.5261 15.8086 34.0834C15.8086 34.2099 15.8719 34.2731 15.9983 34.3364C15.9351 34.4628 16.0616 34.7158 16.2513 34.5261C16.1248 34.5893 16.1248 34.5261 16.1248 34.3996C16.1248 34.3364 16.3145 34.2731 16.3778 34.2099C16.6939 33.957 16.5042 33.5143 16.188 33.5143C15.9351 33.5775 15.7454 33.7673 15.6189 34.2099C15.6189 34.2731 15.6189 34.3364 15.5557 34.3996H15.6822C15.7454 34.3996 15.7454 34.3996 15.7454 34.3364ZM14.9234 34.5261H15.8086C15.8086 34.5261 15.8719 34.5261 15.8719 34.5893V34.779H14.9866C14.9866 34.779 14.9234 34.779 14.9234 34.7158V34.5261ZM15.366 35.4746C15.4292 35.4114 15.4292 35.3481 15.4292 35.2216C15.4925 35.2849 15.6189 35.3481 15.6822 35.2849C15.5557 35.1584 15.4925 34.9687 15.4925 34.779H15.3028C15.3028 34.9687 15.2395 35.1584 15.1131 35.2849C15.1763 35.3481 15.3028 35.2849 15.366 35.2216C15.3028 35.3481 15.3028 35.4746 15.366 35.4746Z" fill="white"/>
<path d="M20.8674 20.6778L21.6894 16.6308L22.2585 11.1294C22.3218 10.75 22.8909 6.89267 22.8909 6.89267H19.9189L19.2865 10.8764H17.3895V6.89267H15.4292V5.1221C15.9983 5.43827 16.6939 4.86916 17.3262 4.11035C17.9586 3.41477 18.7174 4.11035 19.4762 4.86916V2.71919C18.7174 1.89714 17.9586 1.26479 17.3262 1.89714C16.5674 2.71919 15.8086 3.35153 15.1763 2.71919V6.82943H13.3425V10.8132H11.4454L10.8131 6.82943H7.84106C7.84106 6.82943 8.41018 10.6235 8.47341 11.0661L8.97929 16.3779L9.80134 20.5513L8.97929 24.8513L8.41018 29.8468H22.3218L21.7527 24.8513L20.8674 20.6778Z" fill="white"/>
<path d="M9.29553 16.8204C9.35877 17.2631 10.0543 20.5513 10.0543 20.5513H13.2793C13.7852 19.8557 14.4808 19.4763 15.3028 19.4763C16.1249 19.4763 16.8204 19.9189 17.3263 20.5513H20.5513C20.5513 20.5513 21.2469 17.2631 21.3101 16.8204H9.29553Z" fill="#231F20"/>
<path d="M9.29555 16.2514H15.1131V11.4456H8.85291C8.85291 11.825 9.23231 15.872 9.29555 16.2514Z" fill="#231F20"/>
<path d="M21.3099 24.9144C21.2467 23.9027 20.8041 21.8792 20.6144 21.0571H17.6423C17.8953 21.563 18.0217 22.1321 18.0217 22.7012V24.9777L21.3099 24.9144Z" fill="#231F20"/>
<path d="M17.0732 7.27209H13.7218V10.9397H17.0732V7.27209Z" fill="#231F20"/>
<path d="M9.29553 24.9144H12.647V22.638C12.647 22.0689 12.7734 21.4998 13.0264 20.9939H10.0543C9.86464 21.8792 9.422 23.8395 9.29553 24.9144Z" fill="#231F20"/>
<path d="M21.8792 11.4454H15.6189V16.2513H21.3733C21.4365 15.8719 21.8792 11.8248 21.8792 11.4454Z" fill="#231F20"/>
<path d="M18.0218 25.4203V29.2776H12.6469V25.4203H9.23219C9.16896 25.2938 8.78955 29.4673 8.72632 29.657H21.9423C21.9423 29.4673 21.4997 25.2938 21.4365 25.4203H18.0218Z" fill="#231F20"/>
<path d="M20.1718 7.27194C20.1089 7.84108 19.6657 10.497 19.6027 10.94L21.8792 10.9397C21.8794 10.7499 22.322 8.15703 22.4483 7.27168L20.1718 7.27194Z" fill="#231F20"/>
<path d="M11.0659 10.8761C11.0028 10.4337 10.5605 7.77787 10.4967 7.20872L8.22073 7.20899C8.28389 8.094 8.78998 10.6867 8.78992 10.8764L11.0659 10.8761Z" fill="#231F20"/>
<path d="M12.8365 22.638V29.088H17.7688V22.638C17.7688 20.9939 16.6939 19.666 15.3027 19.666C13.9748 19.7293 12.8365 20.9939 12.8365 22.638Z" fill="#231F20"/>
<path d="M27.1276 23.3336C27.1276 23.5865 27.1908 23.7762 27.3805 23.8395C27.5702 23.9027 27.6967 23.8395 27.76 23.713C27.8232 23.5865 27.76 23.4601 27.5702 23.4601C27.8232 23.713 27.507 23.713 27.4438 23.6498C27.3173 23.5233 27.3173 23.3968 27.3173 23.2704H27.1276M26.4953 23.3336C26.4953 23.5865 26.432 23.7762 26.2423 23.8395C26.0526 23.9027 25.9261 23.8395 25.8629 23.713C25.7997 23.5865 25.8629 23.4601 26.0526 23.4601C25.7997 23.713 26.1159 23.713 26.1791 23.6498C26.3056 23.5233 26.3056 23.3968 26.3056 23.2704H26.4953M26.685 22.8277V22.3219C26.6217 22.0689 26.1791 21.4366 26.3056 21.1836C26.4953 20.8042 26.685 20.488 26.8747 20.1086C27.0644 20.488 27.1908 20.8042 27.3805 21.1836C27.507 21.4366 27.0644 22.0689 27.0011 22.3219V22.8277H26.685ZM26.2423 22.7013C26.1791 22.638 26.1791 22.5116 26.1159 22.4483C26.1791 22.3851 26.1791 22.2586 26.1159 22.1321C26.0526 22.1321 26.0526 22.1954 25.9894 22.1954C25.4835 21.1836 25.1673 22.8277 26.1159 22.1954C26.1159 22.3851 26.0526 22.5116 25.8629 22.5748C25.9894 22.7645 25.7364 23.1439 25.4835 22.891C25.61 22.9542 25.7364 22.891 25.6732 22.7013C25.6732 22.638 25.4203 22.5748 25.357 22.4483C24.9776 22.1321 25.1673 21.4998 25.6732 21.4998C26.0526 21.563 26.3056 21.9424 26.4953 22.5748C26.4953 22.638 26.5585 22.7645 26.5585 22.8277H26.3056C26.3056 22.7645 26.3056 22.7645 26.2423 22.7013ZM27.4438 22.638C27.4438 22.5748 27.507 22.5116 27.507 22.4483C27.4438 22.3851 27.4438 22.2586 27.507 22.1321C27.5702 22.1321 27.5702 22.1954 27.6335 22.1954C28.1394 21.1836 28.4555 22.8277 27.507 22.1954C27.507 22.3851 27.5702 22.5116 27.76 22.5748C27.6335 22.7645 27.8864 23.1439 28.1394 22.891C28.0129 22.9542 27.8864 22.891 27.9497 22.7013C27.9497 22.638 28.2026 22.5748 28.2658 22.4483C28.7085 22.0689 28.5188 21.3733 28.0129 21.4366C27.6335 21.4998 27.3805 21.8792 27.1908 22.4483C27.1908 22.5116 27.1908 22.638 27.1276 22.7013L27.4438 22.638C27.3805 22.7645 27.3805 22.7013 27.4438 22.638ZM26.2423 22.891H27.507C27.5702 22.891 27.5702 22.9542 27.5702 22.9542V23.2071C27.5702 23.2704 27.5702 23.2704 27.507 23.2704H26.2423C26.1791 23.2704 26.1791 23.2071 26.1791 23.2071C26.1791 23.2071 26.1791 22.891 26.2423 22.891ZM26.8114 24.3454C26.9379 24.2821 26.9379 24.1557 26.9379 24.0292C27.0011 24.0924 27.1908 24.1557 27.2541 24.0924C27.0644 23.966 26.9379 23.6498 26.9379 23.3968H26.6217C26.6217 23.6498 26.4953 23.966 26.3056 24.0924C26.3688 24.2189 26.5585 24.0924 26.6217 24.0292C26.7482 24.1557 26.7482 24.2821 26.8114 24.3454Z" fill="white"/>
<path d="M29.5304 18.7175C29.5304 28.6454 25.9893 31.9336 15.3659 36.6129C15.4291 36.6129 15.4291 36.6761 15.4923 36.6761H15.2394C15.3026 36.6761 15.3026 36.6129 15.3659 36.6129C4.74245 31.9336 1.20131 28.6454 1.20131 18.7175V1.07509H29.5936V18.7175H29.5304ZM0.632202 0.569214V18.7808C0.632202 28.8983 4.42628 32.4394 15.2394 37.182L15.3659 37.2453L15.4923 37.182C26.3054 32.4394 30.0995 28.8983 30.0995 18.7175V0.569214H0.632202Z" fill="white"/>
<path d="M78.2842 39.0789L76.893 22.7642L71.8343 22.7646L73.6044 46.2249L78.2842 39.0789Z" fill="#E52529"/>
<path d="M98.8356 22.891H93.3974L89.4769 28.2659H94.9783L98.8356 22.891Z" fill="#E52529"/>
<path d="M92.5753 31.6174H87.0739L85.999 33.0718L85.1769 22.891L80.8137 28.013L82.1416 46.2245L92.5753 31.6174Z" fill="#E52529"/>
<path d="M116.604 46.2245L119.134 37.8143H125.331L122.801 46.2245H128.429L133.741 28.3292H145.819C147.21 28.3292 146.514 31.6806 145.123 31.6174H135.322L130.832 46.2245H135.891L138.61 37.0555H141.266C141.898 37.0555 142.404 37.5614 142.847 38.5099C143.353 39.5849 143.289 41.0393 142.72 42.8099L141.772 46.2245H147.083L148.032 42.8731C148.98 39.6481 148.917 37.0555 147.779 35.1585C149.55 34.5261 150.814 32.882 151.573 30.2894C152.142 28.3924 152.142 26.6851 151.573 25.2939C150.878 23.6498 149.486 22.891 147.526 22.891H129.757L127.165 31.6806H120.968L123.56 22.891H118.122L112.684 41.0393H100.669L101.934 36.8658H110.154L111.925 31.6174H103.705L104.59 28.2027H112.81L114.391 22.891H100.796L93.84 46.2245H116.604Z" fill="#E52529"/>
<path d="M33.2613 42.304H41.1023L41.292 46.351H46.7302L45.1494 12.8999H39.5215L40.9126 38.0673H35.9803L40.0906 31.7438H34.5259L25.1672 46.351H30.6686L33.2613 42.304Z" fill="#E52529"/>
<path d="M54.3818 41.229L56.0259 35.6011H60.3259C61.0214 35.6011 62.0964 36.2335 61.1479 38.5732C60.5156 40.2173 59.6935 41.1025 57.4803 41.2922L54.3818 41.229ZM66.4596 38.8893C66.9655 37.182 66.9022 35.7276 66.3331 34.4629C67.6611 33.0718 68.6096 31.4909 69.1155 29.8468C69.6846 28.013 69.6213 26.3689 68.8625 24.9777C68.0405 23.6498 66.6493 22.9542 64.7523 22.891H54.9509L53.3701 28.2659H63.1082C63.7405 28.2659 63.867 29.088 63.6141 29.9733C63.2979 31.0482 62.792 31.6174 62.0332 31.6174H52.3583L47.9319 46.2878H57.67C63.867 46.351 65.9537 40.7864 66.4596 38.8893Z" fill="#E52529"/>
</svg>
