<svg width="144" height="61" viewBox="0 0 144 61" fill="none" xmlns="http://www.w3.org/2000/svg">
<path d="M144 60.4515H0.0678711V-3.8147e-06H144V60.4515Z" fill="url(#paint0_linear_46_4225)"/>
<path d="M144 56.5159H0.0678711V4.70037H144V56.5159Z" fill="url(#paint1_linear_46_4225)"/>
<path d="M53.7632 23.0012C53.6759 23.7131 53.7034 24.1868 53.8457 24.4236C53.9879 24.6598 54.2993 24.79 54.781 24.8128L54.6918 25.5429H51.4751L51.5643 24.8128C52.0474 24.79 52.3896 24.6598 52.5916 24.4236C52.7929 24.1868 52.9378 23.7131 53.0244 23.0012L53.688 17.5736C53.7625 16.9623 53.7517 16.5778 53.6551 16.4195C53.5585 16.2611 53.3565 16.1705 53.0506 16.1477L52.6755 16.1196L52.7654 15.3828H56.592L57.8823 21.9061L60.6817 15.3828H64.4902L64.4003 16.1196L64.0366 16.1477C63.7246 16.1705 63.5005 16.2611 63.3656 16.4195C63.2301 16.5778 63.1254 16.9623 63.0502 17.5736L62.3437 23.3595C62.2692 23.9654 62.2793 24.3478 62.3739 24.5062C62.4685 24.6645 62.6711 24.7558 62.9818 24.7786L63.3374 24.8128L63.2482 25.5429H58.7627L58.8519 24.8128L59.1673 24.7786C59.488 24.7504 59.7148 24.6592 59.8476 24.5028C59.9805 24.3465 60.0845 23.9654 60.1583 23.3595L61.0346 16.1887L56.9866 25.5429H56.4001L54.5938 16.2028L53.7632 23.0012Z" fill="white"/>
<path d="M70.0622 15.3828L69.9723 16.1196L69.6086 16.1471C69.2966 16.1705 69.0731 16.2611 68.9376 16.4195C68.8021 16.5778 68.6974 16.9623 68.6229 17.5729L67.9157 23.3595C67.8412 23.9654 67.8519 24.3478 67.9466 24.5062C68.0405 24.6645 68.2431 24.7551 68.5538 24.7779L68.9101 24.8128L68.8208 25.5429H64.2125L64.3018 24.8128L64.6842 24.7779C64.9922 24.7551 65.2116 24.6672 65.3425 24.5129C65.4733 24.3592 65.576 23.9748 65.6511 23.3595L66.3583 17.5729C66.4342 16.9536 66.4254 16.5664 66.3322 16.4128C66.2389 16.2591 66.0396 16.1705 65.733 16.1471L65.3639 16.1196L65.4538 15.3828H70.0622Z" fill="white"/>
<path d="M73.8223 20.425L73.464 23.3592C73.3781 24.057 73.4063 24.4858 73.5479 24.6442C73.6888 24.8025 73.9894 24.8817 74.4497 24.8817C75.0845 24.8817 75.5917 24.6898 75.9722 24.3067C76.3526 23.9229 76.5875 23.3659 76.6767 22.6359C76.774 21.8415 76.6344 21.2725 76.2573 20.9276C75.8802 20.5834 75.2072 20.4109 74.239 20.4109C74.19 20.4109 74.1196 20.4136 74.0277 20.4183C73.9357 20.4223 73.8673 20.425 73.8223 20.425ZM74.1706 17.5733L73.9143 19.6742C73.9827 19.6789 74.0572 19.6822 74.139 19.6842C74.2196 19.6869 74.3356 19.6876 74.4859 19.6876C75.2878 19.6876 75.8722 19.5494 76.2399 19.2709C76.6076 18.9931 76.8317 18.5261 76.9115 17.8692C76.978 17.3278 76.8887 16.9003 76.6438 16.5883C76.3996 16.2763 76.0352 16.12 75.5508 16.12C75.0663 16.12 74.7362 16.1931 74.5597 16.3401C74.3833 16.487 74.2531 16.8983 74.1706 17.5733ZM74.9999 15.3826C76.6639 15.3826 77.8147 15.5678 78.4508 15.9375C79.0869 16.3072 79.3526 16.9238 79.2472 17.7867C79.1707 18.4114 78.8762 18.9133 78.3642 19.2917C77.8523 19.6708 77.1296 19.9151 76.1963 20.0251C77.2819 20.2002 78.0603 20.5062 78.5313 20.945C79.003 21.3838 79.1929 21.975 79.1023 22.7191C79.0486 23.1552 78.9164 23.5531 78.7058 23.9141C78.4951 24.2744 78.2132 24.5831 77.8603 24.8401C77.508 25.093 77.0719 25.2735 76.5519 25.3809C76.0326 25.4889 75.2804 25.5426 74.2954 25.5426H69.7609L69.8501 24.8126L70.2326 24.7784C70.5405 24.7555 70.76 24.667 70.8908 24.5133C71.021 24.359 71.1243 23.9745 71.1995 23.3592L71.9067 17.5733C71.9825 16.9533 71.9738 16.5662 71.8805 16.4125C71.7872 16.2589 71.5873 16.1703 71.2813 16.1475L70.9123 16.12L71.0022 15.3826H74.9999Z" fill="white"/>
<path d="M85.8216 15.3828L85.7317 16.1196L85.368 16.1471C85.056 16.1705 84.8325 16.2611 84.697 16.4195C84.5615 16.5778 84.4568 16.9623 84.3823 17.5729L83.6751 23.3595C83.6006 23.9654 83.6113 24.3478 83.706 24.5062C83.7999 24.6645 84.0025 24.7551 84.3132 24.7779L84.6695 24.8128L84.5802 25.5429H79.9719L80.0612 24.8128L80.4436 24.7779C80.7516 24.7551 80.971 24.6672 81.1019 24.5129C81.2327 24.3592 81.3354 23.9748 81.4105 23.3595L82.1177 17.5729C82.1936 16.9536 82.1848 16.5664 82.0916 16.4128C81.9983 16.2591 81.799 16.1705 81.4924 16.1471L81.1233 16.1196L81.2139 15.3828H85.8216Z" fill="white"/>
<path d="M91.3692 15.3828L91.2793 16.1196L90.9156 16.1471C90.6036 16.1705 90.3801 16.2611 90.2446 16.4195C90.1091 16.5778 90.0044 16.9623 89.9299 17.5729L89.6608 19.7704H93.0238L93.2922 17.5729C93.3674 16.9623 93.356 16.5778 93.2593 16.4195C93.1627 16.2611 92.9614 16.1705 92.6548 16.1471L92.2797 16.1196L92.3703 15.3828H96.9967L96.9061 16.1196L96.5304 16.1471C96.2143 16.1705 95.9896 16.2611 95.8567 16.4195C95.7232 16.5778 95.6192 16.9623 95.5447 17.5729L94.8375 23.3595C94.7637 23.9654 94.7744 24.3492 94.871 24.5095C94.9677 24.6706 95.1669 24.7598 95.4702 24.7779L95.844 24.8128L95.7547 25.5429H91.1283L91.2175 24.8128L91.6 24.7779C91.9167 24.7551 92.1415 24.6645 92.2743 24.5062C92.4079 24.3478 92.5112 23.9654 92.5857 23.3595L92.9238 20.5903H89.5609L89.2227 23.3595C89.1482 23.9654 89.1589 24.3478 89.2536 24.5062C89.3475 24.6645 89.5501 24.7551 89.8608 24.7779L90.2171 24.8128L90.1278 25.5429H85.5195L85.6088 24.8128L85.9912 24.7779C86.2992 24.7551 86.5186 24.6672 86.6495 24.5129C86.7803 24.3592 86.883 23.9748 86.9581 23.3595L87.6653 17.5729C87.7412 16.9536 87.7324 16.5664 87.6392 16.4128C87.5459 16.2591 87.3466 16.1705 87.04 16.1471L86.6709 16.1196L86.7615 15.3828H91.3692Z" fill="white"/>
<path d="M99.5163 21.1828H102.477L101.577 17.1046L99.5163 21.1828ZM99.0869 22.0021L98.5226 23.1736C98.4568 23.3065 98.4032 23.4386 98.3609 23.5695C98.3186 23.7003 98.2898 23.8278 98.275 23.9519C98.2401 24.2364 98.2884 24.4478 98.4199 24.5854C98.5514 24.7229 98.7702 24.792 99.0755 24.792H99.411L99.3191 25.5429H95.895L95.9863 24.7994C96.3177 24.7806 96.6136 24.6498 96.8733 24.4062C97.133 24.1633 97.4175 23.7426 97.7261 23.1461L101.721 15.3828H103.448L105.263 23.552C105.361 23.9842 105.495 24.2928 105.666 24.4787C105.836 24.6645 106.081 24.7692 106.399 24.792L106.307 25.5429H101.62L101.711 24.7994C102.222 24.7806 102.57 24.7289 102.755 24.6437C102.94 24.5592 103.046 24.4109 103.072 24.1995C103.079 24.1398 103.074 24.0492 103.056 23.9278C103.039 23.8063 103.003 23.6165 102.949 23.3595L102.663 22.0021H99.0869Z" fill="white"/>
<path d="M3.05176e-05 3.60657H143.932V5.75304H3.05176e-05V3.60657Z" fill="white"/>
<path d="M3.05176e-05 55.2441H143.932V57.3906H3.05176e-05V55.2441Z" fill="white"/>
<path d="M26.9096 41.047C26.8137 39.9533 27.0063 38.8556 27.4082 37.7733C31.6683 37.0996 34.8313 35.1806 37.4065 33.122C37.6105 32.9583 37.7272 32.7101 37.7272 32.4484V32.2954C37.7272 31.6083 36.963 31.1923 36.3913 31.5741C34.6803 32.7168 32.2279 33.7541 29.3151 34.4023C31.9809 30.8494 36.759 27.2966 39.6375 25.4373C41.0788 26.227 43.7211 28.7539 44.3552 30.7045C48.0127 41.9663 27.3719 46.3371 26.9096 41.047ZM22.9783 35.0941C14.1267 35.0941 9.15137 31.5922 9.15137 27.8072C9.15137 24.0228 14.0361 21.0302 22.8878 21.0302C29.1078 21.0302 35.0715 22.2353 37.7279 24.4496C33.2578 26.9758 27.8289 31.0091 24.7289 35.0384C24.1546 35.0726 23.5715 35.0941 22.9783 35.0941ZM48.5663 19.9037C48.3811 19.7178 48.1047 19.6581 47.8584 19.7493C47.8584 19.7493 44.7128 20.3351 41.8793 21.8461C38.4056 18.6818 31.7139 16.7943 24.0902 16.7943C12.9022 16.7943 4.79132 21.6274 3.83248 27.4126C2.53145 35.2638 12.1218 37.833 22.8092 38.0182C21.8303 39.9211 21.3338 41.8428 21.5297 43.6974C22.3181 51.1608 52.8707 44.3322 46.6386 28.4439C45.7811 26.2626 44.4679 24.9508 43.3038 23.4303C44.7846 22.2434 48.2577 20.8028 48.2577 20.8028C48.8005 20.7753 48.8911 20.2277 48.5663 19.9037Z" fill="black"/>
<path d="M50.9479 44.7053C51.1626 44.5033 51.378 44.2524 51.5933 43.9524C51.8517 43.5827 52.1046 43.1996 52.3529 42.8037C52.5998 42.4072 52.8313 41.9979 53.0467 41.5751C53.197 41.2759 53.3372 40.9766 53.4667 40.6767C53.5956 40.3781 53.7137 40.0876 53.8217 39.8051C53.929 39.5239 54.0203 39.2683 54.0961 39.0395C54.1713 38.8107 54.2417 38.6081 54.3061 38.4316C54.3061 38.3967 54.3108 38.3658 54.3222 38.3397C54.333 38.3128 54.3491 38.2826 54.3706 38.2471C54.3706 38.2296 54.3759 38.2034 54.3867 38.1679C54.3974 38.1323 54.4028 38.1062 54.4028 38.0887V37.9961C54.4028 37.9693 54.4135 37.9391 54.435 37.9035C54.435 37.8861 54.4403 37.8599 54.4517 37.8243C54.4618 37.7888 54.4779 37.7626 54.5001 37.7452C54.5001 37.6747 54.5047 37.5996 54.5162 37.5204C54.5269 37.4412 54.543 37.3667 54.5645 37.2956V37.1768C54.5645 37.1332 54.5752 37.0936 54.5967 37.0581V36.477C54.5752 36.4596 54.5645 36.4374 54.5645 36.4112V36.3448C54.543 36.2569 54.5047 36.1643 54.4517 36.0677C54.3974 35.9711 54.3383 35.8872 54.2739 35.8168C54.2518 35.7993 54.2303 35.7819 54.2095 35.7638C54.1874 35.7463 54.1659 35.7289 54.1444 35.7107C53.9512 35.7819 53.762 35.8825 53.5795 36.0147C53.3963 36.1469 53.2185 36.3099 53.0467 36.5032C52.8313 36.7501 52.6213 37.0051 52.4173 37.2694C52.212 37.5338 52.0241 37.8156 51.8517 38.1149C51.3135 38.9778 50.8942 39.744 50.5929 40.413C50.291 41.082 50.087 41.6637 49.979 42.1562C49.8931 42.6494 49.828 43.0459 49.7857 43.3452C49.7421 43.6445 49.7206 43.8384 49.7206 43.9263C49.7206 44.1202 49.7367 44.292 49.7689 44.4409C49.8018 44.5912 49.8501 44.71 49.9145 44.7979C49.9575 44.8334 49.9897 44.8683 50.0112 44.9032C50.0326 44.9388 50.0648 44.9743 50.1085 45.0092C50.1293 45.0448 50.1568 45.071 50.189 45.0884C50.2212 45.1059 50.248 45.124 50.2695 45.1414C50.5064 45.0535 50.7325 44.9079 50.9479 44.7053ZM48.6873 45.4843C48.429 45.379 48.1814 45.2206 47.9445 45.0092C47.7292 44.7804 47.5627 44.4805 47.4447 44.1108C47.3259 43.7411 47.2668 43.3096 47.2668 42.8165C47.2668 42.6407 47.2769 42.4602 47.2991 42.275C47.3199 42.0905 47.342 41.9012 47.3635 41.7073C47.4064 41.5134 47.4547 41.3202 47.5091 41.1263C47.5627 40.9323 47.6325 40.7391 47.7191 40.5452C47.9553 39.8937 48.2565 39.2683 48.6229 38.6698C48.9886 38.0713 49.4301 37.4982 49.9468 36.9527C50.4634 36.3891 51.0015 35.9617 51.5611 35.6712C52.1207 35.3806 52.6918 35.2182 53.2728 35.1827H54.7584C55.1026 35.1827 55.4039 35.227 55.6622 35.3149C55.9205 35.4028 56.1252 35.5262 56.2761 35.6846C56.4479 35.861 56.5828 36.0368 56.6794 36.2126C56.776 36.3891 56.8572 36.5743 56.9216 36.7675C56.9646 36.891 56.9914 37.0145 57.0028 37.1373C57.0129 37.2607 57.0189 37.3842 57.0189 37.507V37.666C57.0189 37.7183 57.029 37.7713 57.0511 37.8243V38.1149C57.0511 38.2907 57.029 38.5067 56.986 38.7617C56.9431 39.0174 56.8894 39.3213 56.825 39.6736C56.7385 40.0077 56.5989 40.3821 56.405 40.7961C56.2111 41.2101 55.9635 41.6637 55.6622 42.1562C55.6407 42.1918 55.6193 42.2267 55.5978 42.2622C55.5763 42.2978 55.5542 42.3327 55.5334 42.3676C55.5112 42.385 55.4898 42.4119 55.4683 42.4468C55.4468 42.4649 55.4307 42.4823 55.42 42.4998C55.4092 42.5172 55.4039 42.5353 55.4039 42.5528C55.1455 42.905 54.8711 43.2439 54.5806 43.5693C54.29 43.8954 53.9613 44.2081 53.5956 44.5073C53.2514 44.8066 52.8957 45.0448 52.53 45.2206C52.1637 45.3971 51.798 45.5199 51.4323 45.5903H51.3679C51.3458 45.5903 51.3243 45.599 51.3028 45.6165H51.0774C51.0552 45.6165 51.0337 45.6252 51.0123 45.6433H50.8834L50.8512 45.6695V45.6957H49.5596C49.2362 45.6601 48.9456 45.5903 48.6873 45.4843Z" fill="black"/>
<path d="M65.7498 43.0015H64.4582L64.0381 42.9223L63.5543 38.4052L62.2305 41.9715C62.2084 42.0238 62.1869 42.0768 62.1654 42.1299C62.1439 42.1829 62.1332 42.2265 62.1332 42.262C62.1117 42.3144 62.0903 42.3674 62.0688 42.4204C62.0473 42.4734 62.0252 42.5257 62.0044 42.5787C61.9822 42.6318 61.9608 42.6848 61.9393 42.7371C61.9178 42.7901 61.8963 42.8344 61.8749 42.8693C61.8534 42.9223 61.8313 42.9753 61.8105 43.0276C61.789 43.0806 61.7668 43.1336 61.746 43.1867C61.5951 43.5034 61.4334 43.8073 61.2616 44.0978C61.0892 44.3884 60.8845 44.6568 60.6476 44.903C60.4323 45.1674 60.18 45.3566 59.8888 45.4714C59.5982 45.5854 59.2701 45.6431 58.9044 45.6431L57.6128 45.6693L57.4189 45.6431C57.4189 45.625 57.4081 45.6163 57.3867 45.6163H57.3222C57.3008 45.5988 57.2793 45.5901 57.2572 45.5901H57.1927C57.1283 45.5727 57.0693 45.5505 57.0149 45.5244C56.9619 45.4975 56.9129 45.4667 56.87 45.4318C56.8485 45.4318 56.821 45.4277 56.7888 45.4183C56.7566 45.4096 56.7298 45.3969 56.7083 45.3788C56.6439 45.3258 56.5902 45.256 56.5473 45.1674C56.5043 45.0795 56.4822 44.9742 56.4822 44.8507V44.7447L56.5144 44.5863C56.558 44.5514 56.6009 44.5118 56.6439 44.4676C56.6868 44.4239 56.7405 44.375 56.8049 44.322C56.87 44.2871 56.9452 44.2562 57.031 44.23C57.1176 44.2032 57.2142 44.1898 57.3222 44.1898H58.581C58.689 44.1898 58.7857 44.1992 58.8716 44.2166C58.9574 44.2341 59.0225 44.2609 59.0655 44.2958C59.0869 44.2958 59.103 44.3005 59.1138 44.3092C59.1245 44.3179 59.1406 44.3314 59.1628 44.3488C59.1628 44.3662 59.1675 44.3797 59.1789 44.3884C59.1889 44.3971 59.205 44.4011 59.2272 44.4011C59.3345 44.2958 59.4372 44.1636 59.5338 44.0053C59.6311 43.8469 59.7324 43.6711 59.8405 43.4772C59.9478 43.2658 60.0505 43.037 60.1471 42.7901C60.2444 42.5439 60.3464 42.2795 60.4537 41.9977L62.7143 35.8696H60.2927V35.473H64.7809C64.8024 35.4911 64.8299 35.4999 64.8621 35.4999H64.9426C65.007 35.4999 65.0768 35.5126 65.1526 35.5394C65.2278 35.5656 65.3083 35.5965 65.3949 35.6314C65.5022 35.6844 65.5935 35.7508 65.6693 35.83C65.7444 35.9092 65.825 36.0105 65.9115 36.1339C65.9974 36.2567 66.0672 36.4023 66.1215 36.5694C66.1745 36.7372 66.2128 36.9351 66.2343 37.1639L66.5248 40.2014L71.2391 35.473H74.4364L70.8842 43.6355C70.7976 43.8643 70.7171 44.0583 70.642 44.2166C70.5661 44.375 70.5071 44.5071 70.4641 44.6125V44.6393C70.5071 44.6044 70.5561 44.5649 70.6097 44.5206C70.6634 44.4763 70.7117 44.428 70.7547 44.375C70.7761 44.3401 70.7976 44.3139 70.8198 44.2958C70.8406 44.2783 70.8627 44.2522 70.8842 44.2166C70.8842 44.1992 70.8949 44.177 70.9164 44.1502C70.9379 44.124 70.9593 44.1025 70.9808 44.0844C71.0237 44.0495 71.062 44.01 71.0942 43.9657C71.1264 43.9221 71.1633 43.8825 71.2069 43.8469C71.2284 43.812 71.2606 43.7724 71.3042 43.7281C71.3472 43.6839 71.3794 43.6443 71.4008 43.6087C71.4653 43.5215 71.5243 43.4463 71.5786 43.3846C71.6317 43.3229 71.6806 43.2571 71.7236 43.1867L73.3708 40.9677H74.6618L75.0174 41.1261L73.4997 43.1867C73.0904 43.7503 72.7247 44.2032 72.4019 44.5467C72.0792 44.8903 71.7987 45.1325 71.5625 45.2727C71.3472 45.3969 71.1532 45.4888 70.9808 45.5505C70.8084 45.6123 70.6581 45.6431 70.5292 45.6431L69.2376 45.6693C69.0437 45.6518 68.882 45.6163 68.7531 45.5639C68.6236 45.5109 68.5049 45.4492 68.3975 45.3788C68.3116 45.2909 68.2412 45.1895 68.1882 45.0748C68.1338 44.9607 68.0855 44.842 68.0426 44.7185V44.6125C68.0211 44.595 68.0104 44.5776 68.0104 44.5602V44.1898C68.0104 44.1374 68.0211 44.0757 68.0426 44.0053C68.064 43.9522 68.0909 43.8912 68.1231 43.8201C68.1553 43.7503 68.1821 43.6798 68.2043 43.6087L68.2365 43.5034L68.2687 43.3973C68.2895 43.3625 68.3063 43.3276 68.317 43.292C68.3277 43.2571 68.3438 43.2303 68.3653 43.2128C68.3653 43.1779 68.3707 43.1424 68.3814 43.1068C68.3921 43.0719 68.4082 43.0457 68.4297 43.0276C68.4512 42.9753 68.4673 42.927 68.4787 42.8827C68.4888 42.8391 68.5049 42.8082 68.527 42.7901L70.5614 38.0885L65.7498 43.0015Z" fill="black"/>
<path d="M84.54 38.2865C84.5722 38.2248 84.6098 38.159 84.6534 38.0886C84.6742 38.053 84.6956 38.0134 84.7178 37.9692C84.7386 37.9255 84.7607 37.886 84.7822 37.8504C84.7822 37.8155 84.7929 37.7759 84.8144 37.7316C84.8359 37.688 84.8573 37.6484 84.8788 37.6129L84.9439 37.5075L85.0405 37.3753C85.1049 37.217 85.1694 37.0627 85.2344 36.913C85.2989 36.7634 85.3633 36.6265 85.4277 36.5037C85.4928 36.3628 85.5411 36.2481 85.5733 36.1602C85.6055 36.0723 85.6216 36.0018 85.6216 35.9488V35.8831C85.6216 35.8737 85.6109 35.8609 85.5894 35.8428C85.4814 35.8958 85.3525 35.9663 85.2022 36.0542C85.0513 36.1427 84.8896 36.2394 84.7178 36.3447C84.3085 36.6091 83.8831 36.9352 83.4422 37.3223C83.0007 37.7102 82.5539 38.159 82.1023 38.6697C82.0157 38.7576 81.9131 38.8763 81.795 39.026C81.6769 39.1763 81.5313 39.3561 81.3595 39.5674C81.2085 39.7788 81.0415 40.0036 80.859 40.2411C80.6758 40.4786 80.498 40.7296 80.3262 40.9939C80.2611 41.0644 80.2074 41.1308 80.1645 41.1919C80.1209 41.2543 80.0786 41.32 80.0357 41.3905C79.992 41.461 79.9491 41.5267 79.9062 41.5884C79.8632 41.6502 79.8203 41.7072 79.7773 41.7602C79.5834 42.042 79.4002 42.3238 79.2278 42.6057C79.0553 42.8875 78.905 43.1599 78.7762 43.4243C78.6252 43.6886 78.5179 43.9221 78.4528 44.1241C78.3884 44.3267 78.3562 44.4985 78.3562 44.6394C78.3562 44.7273 78.3669 44.8065 78.3884 44.8769C78.4099 44.9474 78.4313 45.0091 78.4528 45.0621C78.5179 45.0266 78.587 44.987 78.6628 44.9427C78.738 44.8991 78.8192 44.8508 78.905 44.7978C78.948 44.7803 78.9802 44.7629 79.0023 44.7448C79.0231 44.7273 79.0553 44.7099 79.099 44.6917C79.1204 44.675 79.1473 44.6569 79.1795 44.6394C79.2117 44.622 79.2385 44.6045 79.2607 44.5864C79.3029 44.5515 79.3519 44.5119 79.4056 44.4676C79.4593 44.424 79.5183 44.375 79.5834 44.322C79.6264 44.2871 79.6747 44.2522 79.7283 44.2167C79.782 44.1818 79.8303 44.1375 79.8739 44.0845C79.9169 44.0496 79.9598 44.014 80.0034 43.9792C80.0457 43.9436 80.0887 43.9087 80.1323 43.8731C80.2182 43.7852 80.294 43.7148 80.3584 43.6618C80.4228 43.6088 80.4872 43.5564 80.5523 43.5034C80.6811 43.3806 80.81 43.2525 80.9395 43.1203C81.069 42.9881 81.2085 42.8432 81.3595 42.6848C81.4883 42.5258 81.6225 42.3634 81.7628 42.1957C81.9023 42.0286 82.0479 41.8568 82.1989 41.681C82.3928 41.4341 82.5861 41.1832 82.78 40.9282C82.9739 40.6732 83.1678 40.4042 83.3611 40.1223C83.555 39.858 83.7435 39.5856 83.9267 39.3031C84.1092 39.0219 84.2763 38.7401 84.4272 38.4583C84.4695 38.4053 84.5078 38.3483 84.54 38.2865ZM88.9799 41.1523L87.5594 43.2391C87.4299 43.433 87.3118 43.6007 87.2038 43.741C87.0964 43.8825 87.0105 43.9966 86.9454 44.0845C86.8596 44.1731 86.7844 44.2563 86.7193 44.3355C86.6549 44.4146 86.6012 44.4804 86.5583 44.5334L86.5261 44.5864L86.461 44.6394V44.6656C86.3107 44.842 86.1758 44.987 86.0577 45.1017C85.939 45.2165 85.8262 45.309 85.7189 45.3788C85.6109 45.4318 85.5028 45.4801 85.3955 45.5244C85.2874 45.568 85.1801 45.5989 85.0727 45.6164L84.911 45.6432L84.7822 45.6694H83.4905C83.2966 45.6519 83.1296 45.6164 82.99 45.564C82.8498 45.511 82.737 45.4493 82.6511 45.3788C82.5646 45.2909 82.4948 45.1896 82.4411 45.0749C82.3875 44.9608 82.3606 44.842 82.3606 44.7186L82.3284 44.6126V44.4542C82.3284 44.314 82.3331 44.1818 82.3445 44.0583C82.3546 43.9349 82.3707 43.8383 82.3928 43.7678C82.3928 43.7322 82.3975 43.6973 82.4089 43.6618C82.4197 43.6269 82.4358 43.5826 82.4572 43.5296C82.4787 43.4947 82.4948 43.4598 82.5055 43.4243C82.5163 43.3894 82.5324 43.3538 82.5539 43.3182L82.5861 43.2659L83.8777 40.3867H85.1694H85.0405C84.9969 40.439 84.96 40.4921 84.9278 40.5451C84.8949 40.5981 84.8573 40.6417 84.8144 40.6772C84.7929 40.6947 84.7768 40.7168 84.7661 40.743C84.7547 40.7698 84.75 40.792 84.75 40.8094C84.7285 40.8269 84.7124 40.8443 84.7017 40.8618C84.6903 40.8799 84.6742 40.8973 84.6534 40.9148L84.6205 40.9409V40.9678C84.599 40.9852 84.5775 41.0074 84.5561 41.0335C84.5346 41.0604 84.5125 41.0825 84.4917 41.1C84.4695 41.1355 84.448 41.1617 84.4272 41.1791C84.4051 41.1966 84.3836 41.2228 84.3622 41.2583C84.3407 41.3113 84.3024 41.3637 84.2494 41.4167C84.1951 41.4697 84.1468 41.5314 84.1038 41.6019C84.0824 41.6368 84.0179 41.7166 83.9106 41.8394C83.8026 41.9629 83.6623 42.1212 83.4905 42.3144C83.3396 42.5258 83.1564 42.7372 82.9417 42.9485C82.7263 43.1599 82.5002 43.3894 82.2633 43.6356C82.1989 43.6886 82.1345 43.7457 82.0694 43.8074C82.005 43.8691 81.9513 43.9261 81.9084 43.9792C81.8433 44.0496 81.7789 44.1107 81.7145 44.1637C81.65 44.2167 81.5856 44.2697 81.5205 44.322C81.4561 44.375 81.3917 44.4327 81.3273 44.4938C81.2622 44.5555 81.2085 44.6126 81.1656 44.6656C81.1012 44.7186 81.0368 44.7669 80.9717 44.8112C80.9073 44.8555 80.8428 44.8951 80.7778 44.9299C80.6275 45.0534 80.4711 45.1587 80.3101 45.2466C80.1484 45.3352 79.9813 45.3969 79.8095 45.4318C79.6586 45.5016 79.5076 45.5546 79.3573 45.5902C79.2063 45.6251 79.0668 45.6432 78.9373 45.6432L77.6456 45.6694C77.6241 45.6519 77.5866 45.6385 77.5329 45.6298C77.4792 45.6204 77.4195 45.6076 77.3551 45.5902C77.2907 45.5727 77.2262 45.5546 77.1612 45.5372C77.0967 45.5197 77.0323 45.4929 76.9679 45.458C76.8814 45.4231 76.8008 45.3567 76.7257 45.2601C76.6505 45.1634 76.5801 45.0534 76.5157 44.9299C76.4513 44.789 76.3976 44.6173 76.354 44.4146C76.3117 44.2127 76.2896 43.9704 76.2896 43.6886C76.2896 43.4598 76.3218 43.2176 76.3868 42.9619C76.4513 42.707 76.5479 42.4379 76.6774 42.1561C76.7626 41.8568 76.8975 41.5623 77.0806 41.2717C77.2631 40.9805 77.4624 40.6947 77.6785 40.4129C77.9361 40.0606 78.2213 39.7218 78.534 39.3957C78.846 39.0702 79.1741 38.7401 79.5183 38.4053C79.8847 38.0711 80.245 37.7585 80.6006 37.4673C80.9556 37.1767 81.3273 36.909 81.7145 36.6621C82.0157 36.4682 82.3123 36.2883 82.6028 36.1206C82.8934 35.9535 83.1779 35.7905 83.4583 35.6321C83.6086 35.5617 83.7542 35.4999 83.8945 35.4469C84.034 35.3939 84.179 35.3409 84.33 35.2886C84.4595 35.253 84.5936 35.2268 84.7339 35.2087C84.8734 35.192 85.0191 35.1826 85.1694 35.1826H86.461C86.6979 35.1826 86.8971 35.2007 87.0588 35.2356C87.2199 35.2711 87.344 35.3322 87.4299 35.4208C87.5373 35.4912 87.6285 35.5751 87.7043 35.6717C87.7795 35.7683 87.8278 35.8609 87.8499 35.9488V36.1072L87.8821 36.2655V36.3715C87.86 36.389 87.8499 36.4071 87.8499 36.4245V36.5829C87.8278 36.6003 87.8177 36.6185 87.8177 36.6352V36.6882C87.7956 36.7238 87.7795 36.7587 87.7687 36.7943C87.758 36.8298 87.7526 36.8647 87.7526 36.8996C87.7312 36.9352 87.7151 36.9701 87.7043 37.0056C87.6936 37.0405 87.6882 37.0761 87.6882 37.111C87.6668 37.164 87.6446 37.217 87.6238 37.2693C87.6023 37.3223 87.5802 37.3666 87.5594 37.4015L87.4943 37.5867L85.1694 43.2659C85.1479 43.2833 85.1318 43.3182 85.121 43.3712C85.1103 43.4243 85.0835 43.486 85.0405 43.5564C85.0191 43.6269 84.9969 43.6926 84.9761 43.7544C84.954 43.8161 84.9325 43.8913 84.911 43.9792L84.8788 44.0583L84.8466 44.1107C84.8251 44.1818 84.8037 44.2563 84.7822 44.3355C84.7607 44.4146 84.7386 44.4898 84.7178 44.5602C84.7178 44.5428 84.7285 44.5334 84.75 44.5334V44.5072C84.7708 44.4898 84.7929 44.4723 84.8144 44.4542C84.8359 44.4368 84.8573 44.4106 84.8788 44.375C84.8788 44.3576 84.8896 44.3354 84.911 44.3093C84.9325 44.2824 84.954 44.261 84.9761 44.2429C85.0191 44.208 85.0566 44.1684 85.0888 44.1241C85.121 44.0805 85.1479 44.0409 85.1694 44.0053C85.2774 43.8644 85.3686 43.7457 85.4438 43.6484C85.5189 43.5524 85.578 43.4685 85.6216 43.3974C85.6645 43.3276 85.7128 43.2659 85.7672 43.2129C85.8209 43.1599 85.8585 43.1069 85.8799 43.0545L87.3011 41.0208H88.5927L88.9799 41.1523Z" fill="black"/>
<path d="M95.9185 45.0356L99.8578 35.4734H102.603L98.6957 45.0356H100.504L104.411 35.4734H107.188L103.248 45.0356H105.767V45.4315H89.5247V45.0356H91.3658L94.7241 37.2435C94.7885 37.1025 94.8476 36.9704 94.9013 36.8469C94.9549 36.7241 95.0032 36.6181 95.0469 36.5295C95.0677 36.4946 95.0838 36.455 95.0952 36.4108C95.1059 36.3671 95.122 36.3363 95.1435 36.3182C95.122 36.3363 95.1059 36.3497 95.0952 36.3578C95.0838 36.3671 95.0791 36.3806 95.0791 36.398C95.0576 36.4155 95.0408 36.4289 95.0308 36.4376C95.0193 36.4463 95.0032 36.4597 94.9818 36.4772C94.9603 36.5128 94.9335 36.5476 94.9013 36.5825C94.869 36.6181 94.8315 36.653 94.7885 36.6885C94.6805 36.7939 94.5785 36.8999 94.4812 37.0053C94.3846 37.1113 94.3041 37.2079 94.239 37.2958C94.1531 37.4018 94.0887 37.4897 94.0457 37.5602C94.0021 37.6306 93.9592 37.6836 93.9162 37.7185L92.2697 39.9375H90.978L90.5902 39.7791L92.1402 37.6923L92.2052 37.6132L92.2697 37.534C92.2911 37.4984 92.3126 37.4676 92.3341 37.4414C92.3555 37.4146 92.377 37.3844 92.3992 37.3488C92.4414 37.3139 92.4844 37.2656 92.528 37.2032C92.5709 37.1421 92.6246 37.0757 92.6897 37.0053C92.9688 36.653 93.2218 36.3537 93.4486 36.1068C93.674 35.8606 93.884 35.676 94.078 35.5526C94.2719 35.4291 94.4544 35.3372 94.6268 35.2748C94.7993 35.2137 94.9603 35.1829 95.1113 35.1829H96.4029C96.5317 35.1829 96.6612 35.209 96.7901 35.262C96.9196 35.3144 97.0484 35.3855 97.1779 35.4734C97.2853 35.5787 97.3765 35.6848 97.4523 35.7901C97.5275 35.8961 97.5758 36.0196 97.5979 36.1598V36.7147C97.5758 36.7677 97.5597 36.816 97.549 36.8603C97.5382 36.9039 97.5329 36.9435 97.5329 36.9791V37.0844C97.5114 37.1025 97.5006 37.12 97.5006 37.1374V37.1904C97.4792 37.2079 97.4631 37.23 97.4523 37.2562C97.4409 37.283 97.4362 37.3139 97.4362 37.3488C97.4148 37.3662 97.3987 37.3884 97.3879 37.4146C97.3765 37.4414 97.3604 37.4723 97.3396 37.5071C97.3175 37.5776 97.2799 37.6568 97.2262 37.7453C97.1725 37.8332 97.1242 37.9473 97.0813 38.0882L94.1102 45.0356H95.9185Z" fill="black"/>
<path d="M112.271 37.2431C112.335 37.1022 112.394 36.97 112.448 36.8465C112.502 36.7237 112.55 36.6184 112.594 36.5298C112.637 36.4768 112.663 36.4245 112.674 36.3715C112.685 36.3185 112.701 36.2749 112.723 36.2393C112.701 36.2749 112.68 36.3051 112.658 36.3319C112.637 36.3581 112.604 36.3889 112.561 36.4245C112.54 36.4594 112.513 36.4949 112.481 36.5298C112.448 36.5654 112.411 36.6003 112.368 36.6352C112.239 36.7586 112.125 36.8821 112.029 37.0056C111.932 37.129 111.84 37.2431 111.754 37.3484C111.668 37.4544 111.598 37.5383 111.544 37.5994C111.491 37.6618 111.464 37.7014 111.464 37.7181L109.816 39.9378H108.525L108.138 39.7787L109.688 37.692C110.075 37.1814 110.419 36.7546 110.721 36.4111C111.022 36.0675 111.281 35.8166 111.496 35.6582C111.733 35.4999 111.948 35.3811 112.141 35.3013C112.335 35.2221 112.507 35.1825 112.658 35.1825H114.015L114.144 35.2093C114.187 35.2268 114.235 35.2449 114.289 35.2617C114.342 35.2798 114.402 35.306 114.466 35.3415C114.509 35.359 114.558 35.3851 114.612 35.4207C114.666 35.4563 114.714 35.4999 114.757 35.5522C114.865 35.6408 114.951 35.7374 115.015 35.8427C115.08 35.9488 115.123 36.0541 115.145 36.1601V36.6352C115.123 36.6882 115.107 36.7499 115.096 36.8204C115.085 36.8908 115.069 36.97 115.048 37.0579C115.026 37.129 114.978 37.2518 114.903 37.4276C114.827 37.6041 114.735 37.8242 114.628 38.0885L113.821 39.9901H116.695L118.633 35.473H121.377L117.858 43.6356C117.835 43.653 117.819 43.6839 117.809 43.7281C117.798 43.7724 117.782 43.8201 117.76 43.8731C117.739 43.8912 117.723 43.9127 117.712 43.9388C117.701 43.9657 117.696 43.9878 117.696 44.0053C117.674 44.0408 117.658 44.067 117.648 44.0844C117.636 44.1026 117.62 44.1287 117.599 44.1636L117.566 44.2696L117.534 44.3488C117.513 44.4011 117.497 44.4501 117.486 44.4937C117.475 44.538 117.448 44.5776 117.405 44.6125C117.448 44.5957 117.48 44.5729 117.502 44.5467C117.523 44.5206 117.545 44.4984 117.566 44.481C117.609 44.4454 117.652 44.4011 117.696 44.3488C117.739 44.2958 117.782 44.2428 117.825 44.1905C117.933 44.0844 118.024 43.9831 118.099 43.8865C118.174 43.7899 118.255 43.6973 118.341 43.6087C118.406 43.5215 118.471 43.4416 118.535 43.3712C118.6 43.3014 118.643 43.239 118.665 43.1867L120.311 40.9677H121.603L121.99 41.1261L120.44 43.1867C120.074 43.6798 119.746 44.0938 119.456 44.428C119.165 44.7628 118.901 45.0091 118.665 45.1674C118.449 45.3264 118.239 45.4452 118.035 45.5244C117.83 45.6035 117.642 45.6431 117.47 45.6431L116.178 45.6693C116.049 45.6519 115.931 45.6297 115.823 45.6035C115.715 45.5774 115.618 45.5371 115.533 45.4848C115.446 45.4492 115.371 45.4009 115.306 45.3392C115.241 45.2774 115.188 45.2117 115.145 45.1412C115.123 45.1063 115.101 45.0708 115.08 45.0352C115.058 45.0003 115.048 44.9654 115.048 44.9299C115.048 44.9124 115.042 44.895 115.032 44.8769C115.021 44.8594 115.015 44.842 115.015 44.8239C114.994 44.8239 114.983 44.8151 114.983 44.7977V44.322C114.983 44.2871 114.994 44.23 115.015 44.1502C115.037 44.071 115.058 43.9791 115.08 43.8731C115.123 43.7677 115.177 43.6268 115.241 43.4504C115.306 43.2746 115.392 43.0545 115.5 42.7901L116.533 40.3866H113.659L111.496 45.4318H108.751L112.271 37.2431Z" fill="black"/>
<path d="M137.035 35.8695L133.645 43.6355C133.558 43.8119 133.483 43.979 133.418 44.1374C133.354 44.2957 133.3 44.4279 133.257 44.5339C133.257 44.5514 133.251 44.5648 133.241 44.5735C133.23 44.5822 133.224 44.5957 133.224 44.6131C133.224 44.6306 133.214 44.6487 133.192 44.6654C133.235 44.6306 133.284 44.5863 133.338 44.5339C133.392 44.4809 133.44 44.4279 133.483 44.3749L133.612 44.2434L133.741 44.1112C133.784 44.0582 133.822 44.0099 133.855 43.9656C133.887 43.922 133.924 43.8824 133.967 43.8468C133.989 43.7938 134.021 43.7455 134.064 43.7019C134.107 43.6576 134.14 43.618 134.161 43.5825C134.226 43.4946 134.29 43.4201 134.355 43.3584C134.42 43.2966 134.462 43.2396 134.484 43.1866L136.131 40.9676H137.423L137.778 41.126L136.26 43.1866C136.045 43.4859 135.845 43.7415 135.663 43.9529C135.48 44.1635 135.323 44.34 135.195 44.4809C135.065 44.6044 134.952 44.7231 134.856 44.8372C134.758 44.952 134.656 45.0533 134.549 45.1412L134.452 45.2203L134.387 45.2995C134.344 45.3351 134.295 45.3659 134.242 45.3921C134.188 45.4183 134.14 45.4317 134.097 45.4317C134.053 45.4492 134.021 45.4626 133.999 45.4713C133.978 45.48 133.946 45.4934 133.903 45.5109C133.816 45.5458 133.72 45.5773 133.612 45.6035C133.504 45.6296 133.397 45.6431 133.29 45.6431L131.997 45.6692C131.804 45.6518 131.642 45.6169 131.513 45.5639C131.384 45.5109 131.266 45.4492 131.158 45.3787C131.072 45.2908 131.002 45.1902 130.949 45.0754C130.894 44.9607 130.846 44.8419 130.803 44.7184V44.6131C130.781 44.5957 130.771 44.5775 130.771 44.5601V44.1904C130.771 44.1374 130.781 44.0756 130.803 44.0052C130.824 43.9529 130.851 43.8911 130.883 43.8207C130.916 43.7502 130.942 43.6798 130.965 43.6093L130.997 43.5033L131.029 43.398C131.051 43.3624 131.067 43.3275 131.077 43.2919C131.088 43.257 131.104 43.2309 131.126 43.2128C131.126 43.1779 131.131 43.143 131.142 43.1074C131.153 43.0719 131.169 43.0457 131.191 43.0282C131.212 42.9752 131.228 42.9269 131.239 42.8826C131.25 42.839 131.266 42.8082 131.287 42.79L134.258 35.8695H133.096C133.031 35.887 132.966 35.8957 132.902 35.8957H132.708C132.558 35.9138 132.412 35.9353 132.272 35.9621C132.132 35.9883 131.976 36.0279 131.804 36.0809C131.589 36.1513 131.373 36.2573 131.158 36.3976C130.942 36.5392 130.739 36.7062 130.545 36.8995C130.351 37.0934 130.206 37.3443 130.108 37.6523C130.012 37.961 129.964 38.3173 129.964 38.7225V38.9339C129.964 38.9695 129.968 39.0043 129.98 39.0392C129.99 39.0748 130.006 39.1097 130.028 39.1453C130.049 39.268 130.092 39.3828 130.157 39.4881C130.222 39.5941 130.318 39.6908 130.448 39.7787C130.555 39.8672 130.706 39.933 130.9 39.9773C131.093 40.0209 131.33 40.043 131.61 40.043H132.353V40.4658H131.029C130.942 40.4832 130.857 40.5013 130.771 40.5188C130.684 40.5362 130.598 40.5624 130.512 40.5979C130.361 40.6503 130.206 40.7341 130.044 40.8489C129.883 40.9636 129.726 41.0998 129.576 41.2582C129.49 41.3461 129.409 41.4427 129.333 41.5487C129.258 41.6541 129.189 41.7601 129.123 41.8654C129.038 41.9889 128.957 42.1164 128.882 42.2486C128.806 42.3807 128.726 42.5257 128.64 42.6847C128.618 42.7203 128.596 42.7552 128.575 42.79C128.553 42.8256 128.542 42.8605 128.542 42.8961C128.521 42.9484 128.499 42.9927 128.478 43.0282C128.456 43.0638 128.434 43.0987 128.414 43.1336C128.37 43.204 128.322 43.2792 128.268 43.3584C128.214 43.4375 128.165 43.5214 128.123 43.6093C127.972 43.873 127.789 44.124 127.574 44.3622C127.358 44.5997 127.122 44.8245 126.864 45.0358C126.583 45.2297 126.26 45.3787 125.895 45.4847C125.528 45.5901 125.12 45.6431 124.667 45.6431L123.376 45.6692C123.204 45.6518 123.037 45.6249 122.875 45.5901C122.714 45.5545 122.58 45.5022 122.472 45.4317C122.364 45.3787 122.267 45.3129 122.181 45.2338C122.096 45.1546 122.03 45.0707 121.988 44.9828C121.966 44.9473 121.95 44.9077 121.939 44.8641C121.928 44.8198 121.912 44.7802 121.89 44.7446V44.6923C121.89 44.6748 121.88 44.6487 121.858 44.6131V44.4017C121.88 44.3843 121.89 44.3622 121.89 44.3353V44.2696C121.89 44.234 121.896 44.1904 121.907 44.1374C121.918 44.0844 121.945 44.032 121.988 43.979C122.009 43.8911 122.057 43.8073 122.132 43.7281C122.208 43.6489 122.3 43.5738 122.407 43.5033C122.493 43.4335 122.612 43.3805 122.763 43.3449C122.913 43.3101 123.085 43.2919 123.279 43.2919H124.732L124.926 43.3188L124.894 43.6616H123.602L123.57 43.6355L123.472 43.6093H123.311L123.15 43.5825H124.441C124.312 43.5825 124.194 43.6006 124.086 43.6355C123.978 43.671 123.882 43.7321 123.796 43.8207C123.71 43.8911 123.646 43.979 123.602 44.0844C123.559 44.1904 123.538 44.3051 123.538 44.4279C123.538 44.5688 123.57 44.6923 123.634 44.7976C123.699 44.9036 123.774 45.0003 123.86 45.0882C123.903 45.1063 123.941 45.1237 123.974 45.1412C124.006 45.1586 124.033 45.1767 124.054 45.1942C124.097 45.1586 124.151 45.119 124.216 45.0754C124.28 45.0311 124.345 44.9741 124.409 44.9036C124.516 44.8151 124.624 44.6836 124.732 44.5071C124.84 44.3313 124.958 44.1199 125.087 43.873C125.259 43.4684 125.464 43.0806 125.701 42.7109C125.938 42.3412 126.196 41.9889 126.476 41.6541C126.756 41.3025 127.11 41.016 127.541 40.7959C127.972 40.5758 128.489 40.4127 129.091 40.3074V40.1484C128.79 40.1135 128.516 40.039 128.268 39.9243C128.02 39.8095 127.8 39.6646 127.606 39.4881C127.412 39.2949 127.272 39.101 127.186 38.9071C127.1 38.7138 127.057 38.5025 127.057 38.273C127.057 37.8684 127.122 37.5201 127.251 37.2296C127.38 36.9391 127.574 36.6975 127.832 36.5036C128.09 36.3097 128.37 36.1426 128.672 36.0017C128.973 35.8608 129.285 35.7554 129.608 35.6843C129.845 35.632 130.066 35.5924 130.27 35.5656C130.474 35.5394 130.684 35.5172 130.9 35.4998H131.191C131.276 35.4998 131.363 35.4911 131.448 35.473H138.391V35.8695H137.035Z" fill="black"/>
<path d="M132.539 48.7663C132.561 48.677 132.442 48.6073 132.384 48.5341C132.349 48.4892 132.335 48.4751 132.325 48.4657C131.877 47.9866 131.214 47.7102 130.608 47.5115C129.648 47.1895 128.624 47.0271 127.625 46.8822C125.258 46.5936 122.806 46.5091 120.45 46.5158C117.832 46.5084 114.575 46.6473 111.952 46.8097C104.245 47.2385 94.4839 48.4469 86.728 49.2836C75.581 50.374 64.3051 50.9228 53.1097 50.2834C49.4066 50.0532 45.6202 49.7245 41.9909 48.981L41.8949 49.344C45.5578 50.1861 49.3254 50.6014 53.0614 50.9235C64.291 51.832 75.6326 51.5495 86.8569 50.7195C90.7513 50.3928 99.8854 49.5587 103.664 49.3111C109.188 48.9193 114.881 48.6435 120.422 48.7569C122.722 48.8065 125.013 48.9374 127.27 49.2648C128.212 49.4225 129.148 49.599 130.039 49.9405L130.255 50.0465C130.311 50.0727 130.367 50.0975 130.408 50.1344C130.416 50.1398 130.388 50.119 130.429 50.1452C131.32 50.7081 132.387 49.3702 132.539 48.7663Z" fill="black"/>
<path d="M27.239 40.4082C27.143 39.3145 27.3356 38.2168 27.7375 37.1345C31.9983 36.4608 35.1606 34.5418 37.7359 32.4832C37.9398 32.3195 38.0566 32.0713 38.0566 31.8096V31.6566C38.0566 30.9695 37.2923 30.5535 36.7207 30.9353C35.0096 32.078 32.5572 33.1153 29.6445 33.7635C32.3103 30.2106 37.0884 26.6578 39.9669 24.7985C41.4081 25.5882 44.0505 28.1151 44.6846 30.0657C48.3421 41.3275 27.7013 45.6983 27.239 40.4082ZM23.3077 34.4553C14.4561 34.4553 9.48072 30.9534 9.48072 27.1684C9.48072 23.384 14.3655 20.3914 23.2171 20.3914C29.4371 20.3914 35.4008 21.5965 38.0573 23.8108C33.5872 26.337 28.1582 30.3703 25.0583 34.3996C24.4839 34.4338 23.9008 34.4553 23.3077 34.4553ZM48.8957 19.2649C48.7105 19.079 48.434 19.0193 48.1878 19.1105C48.1878 19.1105 45.0422 19.6963 42.2086 21.2074C38.7349 18.043 32.0432 16.1555 24.4195 16.1555C13.2315 16.1555 5.12066 20.9886 4.16183 26.7738C2.86079 34.625 12.4512 37.1942 23.1386 37.3794C22.1596 39.2823 21.6631 41.204 21.859 43.0586C22.6474 50.522 53.2 43.6934 46.9679 27.8051C46.1104 25.6238 44.798 24.312 43.6331 22.7915C45.114 21.6046 48.587 20.164 48.587 20.164C49.1298 20.1365 49.2204 19.5889 48.8957 19.2649Z" fill="white"/>
<path d="M51.277 44.0664C51.4917 43.8645 51.7071 43.6135 51.9225 43.3136C52.1808 42.9439 52.4337 42.5607 52.682 42.1649C52.9289 41.7683 53.1604 41.359 53.3758 40.9363C53.5261 40.637 53.6663 40.3378 53.7958 40.0378C53.9247 39.7393 54.0428 39.4487 54.1508 39.1662C54.2581 38.8851 54.3494 38.6294 54.4252 38.4006C54.5004 38.1718 54.5708 37.9692 54.6352 37.7927C54.6352 37.7578 54.6399 37.727 54.6513 37.7008C54.6621 37.674 54.6782 37.6438 54.6997 37.6082C54.6997 37.5908 54.705 37.5646 54.7158 37.529C54.7265 37.4935 54.7319 37.4673 54.7319 37.4499V37.3573C54.7319 37.3304 54.7426 37.3002 54.7641 37.2647C54.7641 37.2472 54.7694 37.221 54.7808 37.1855C54.7909 37.1499 54.807 37.1238 54.8292 37.1063C54.8292 37.0359 54.8339 36.9607 54.8453 36.8815C54.856 36.8024 54.8721 36.7279 54.8936 36.6568V36.538C54.8936 36.4944 54.9043 36.4548 54.9258 36.4192V35.8382C54.9043 35.8207 54.8936 35.7986 54.8936 35.7724V35.706C54.8721 35.6181 54.8339 35.5255 54.7808 35.4289C54.7265 35.3322 54.6674 35.2484 54.603 35.1779C54.5809 35.1605 54.5594 35.143 54.5386 35.1249C54.5165 35.1074 54.495 35.09 54.4735 35.0719C54.2803 35.143 54.0911 35.2437 53.9086 35.3758C53.7254 35.508 53.5476 35.6711 53.3758 35.8643C53.1604 36.1112 52.9504 36.3662 52.7464 36.6306C52.5411 36.895 52.3532 37.1768 52.1808 37.476C51.6427 38.3389 51.2233 39.1052 50.922 39.7741C50.6201 40.4431 50.4161 41.0249 50.3081 41.5174C50.2222 42.0105 50.1571 42.4071 50.1148 42.7063C50.0712 43.0056 50.0497 43.1995 50.0497 43.2874C50.0497 43.4813 50.0658 43.6531 50.098 43.8021C50.1309 43.9524 50.1792 44.0711 50.2436 44.159C50.2866 44.1946 50.3188 44.2295 50.3403 44.2644C50.3617 44.2999 50.394 44.3355 50.4376 44.3704C50.4584 44.4059 50.4859 44.4321 50.5181 44.4496C50.5503 44.467 50.5771 44.4851 50.5986 44.5026C50.8355 44.4147 51.0616 44.2691 51.277 44.0664ZM49.0164 44.8454C48.7581 44.7401 48.5105 44.5817 48.2736 44.3704C48.0583 44.1416 47.8919 43.8416 47.7738 43.4719C47.655 43.1022 47.5959 42.6708 47.5959 42.1776C47.5959 42.0018 47.606 41.8213 47.6282 41.6361C47.649 41.4516 47.6711 41.2624 47.6926 41.0685C47.7355 40.8746 47.7838 40.6813 47.8382 40.4874C47.8919 40.2935 47.9616 40.1002 48.0482 39.9063C48.2844 39.2548 48.5856 38.6294 48.952 38.0309C49.3177 37.4324 49.7592 36.8594 50.2759 36.3139C50.7925 35.7503 51.3306 35.3228 51.8902 35.0323C52.4498 34.7418 53.0209 34.5794 53.6019 34.5438H55.0875C55.4317 34.5438 55.733 34.5881 55.9913 34.676C56.2496 34.7639 56.4543 34.8874 56.6052 35.0457C56.777 35.2222 56.9119 35.398 57.0085 35.5738C57.1051 35.7503 57.1863 35.9354 57.2507 36.1287C57.2937 36.2521 57.3205 36.3756 57.3319 36.4984C57.342 36.6219 57.348 36.7453 57.348 36.8681V37.0271C57.348 37.0795 57.3581 37.1325 57.3802 37.1855V37.476C57.3802 37.6518 57.3581 37.8679 57.3151 38.1229C57.2722 38.3785 57.2185 38.6825 57.1541 39.0347C57.0676 39.3689 56.928 39.7433 56.7341 40.1573C56.5402 40.5713 56.2926 41.0249 55.9913 41.5174C55.9698 41.5529 55.9484 41.5878 55.9269 41.6234C55.9054 41.6583 55.8833 41.6938 55.8625 41.7287C55.8403 41.7462 55.8189 41.773 55.7974 41.8079C55.7759 41.826 55.7598 41.8435 55.7491 41.8609C55.7383 41.8783 55.733 41.8965 55.733 41.9139C55.4746 42.2662 55.2002 42.605 54.9097 42.9305C54.6191 43.2566 54.2904 43.5692 53.9247 43.8685C53.5805 44.1677 53.2248 44.4059 52.8591 44.5817C52.4928 44.7582 52.1271 44.881 51.7614 44.9515H51.697C51.6749 44.9515 51.6534 44.9602 51.6319 44.9776H51.4065C51.3843 44.9776 51.3629 44.9863 51.3414 45.0045H51.2126L51.1803 45.0306V45.0568H49.8887C49.5653 45.0212 49.2747 44.9515 49.0164 44.8454Z" fill="white"/>
<path d="M66.0792 42.3627H64.7875L64.3675 42.2836L63.8837 37.7665L62.5598 41.3328C62.5377 41.3851 62.5162 41.4381 62.4948 41.4911C62.4733 41.5441 62.4626 41.5877 62.4626 41.6233C62.4411 41.6756 62.4196 41.7286 62.3981 41.7817C62.3767 41.8347 62.3545 41.887 62.3337 41.94C62.3116 41.993 62.2901 42.046 62.2686 42.0984C62.2472 42.1514 62.2257 42.1957 62.2042 42.2305C62.1828 42.2836 62.1606 42.3366 62.1398 42.3889C62.1183 42.4419 62.0962 42.4949 62.0754 42.5479C61.9244 42.8646 61.7627 43.1686 61.5909 43.4591C61.4185 43.7497 61.2138 44.018 60.977 44.2643C60.7616 44.5287 60.5093 44.7179 60.2181 44.8326C59.9276 44.9467 59.5995 45.0044 59.2338 45.0044L57.9421 45.0306L57.7482 45.0044C57.7482 44.9863 57.7375 44.9776 57.716 44.9776H57.6516C57.6301 44.9601 57.6087 44.9514 57.5865 44.9514H57.5221C57.4577 44.9339 57.3986 44.9118 57.3443 44.8856C57.2913 44.8588 57.2423 44.8279 57.1994 44.793C57.1779 44.793 57.1504 44.789 57.1182 44.7796C57.086 44.7709 57.0591 44.7581 57.0376 44.74C56.9732 44.687 56.9196 44.6172 56.8759 44.5287C56.8337 44.4408 56.8115 44.3354 56.8115 44.212V44.1059L56.8437 43.9476C56.8873 43.9127 56.9303 43.8731 56.9732 43.8288C57.0162 43.7852 57.0699 43.7362 57.1343 43.6832C57.1994 43.6483 57.2745 43.6175 57.3604 43.5913C57.4469 43.5645 57.5436 43.551 57.6516 43.551H58.9104C59.0184 43.551 59.115 43.5604 59.2009 43.5779C59.2868 43.5953 59.3519 43.6222 59.3948 43.6571C59.4163 43.6571 59.4324 43.6618 59.4431 43.6705C59.4539 43.6792 59.47 43.6926 59.4921 43.7101C59.4921 43.7275 59.4968 43.7409 59.5082 43.7497C59.5183 43.7584 59.5344 43.7624 59.5565 43.7624C59.6639 43.6571 59.7665 43.5249 59.8632 43.3665C59.9605 43.2082 60.0618 43.0324 60.1698 42.8385C60.2772 42.6271 60.3798 42.3983 60.4764 42.1514C60.5737 41.9051 60.6757 41.6408 60.7831 41.3589L63.0436 35.2308H60.622V34.8343H65.1103C65.1317 34.8524 65.1592 34.8611 65.1914 34.8611H65.272C65.3364 34.8611 65.4062 34.8739 65.482 34.9007C65.5571 34.9269 65.6376 34.9578 65.7242 34.9926C65.8316 35.0456 65.9228 35.1121 65.9986 35.1913C66.0738 35.2704 66.1543 35.3717 66.2409 35.4952C66.3267 35.618 66.3965 35.7636 66.4509 35.9307C66.5039 36.0984 66.5421 36.2964 66.5636 36.5252L66.8541 39.5627L71.5685 34.8343H74.7657L71.2135 42.9968C71.127 43.2256 71.0464 43.4195 70.9713 43.5779C70.8955 43.7362 70.8364 43.8684 70.7935 43.9738V44.0006C70.8364 43.9657 70.8854 43.9261 70.9391 43.8818C70.9928 43.8376 71.0411 43.7892 71.084 43.7362C71.1055 43.7013 71.127 43.6752 71.1491 43.6571C71.1699 43.6396 71.1921 43.6134 71.2135 43.5779C71.2135 43.5604 71.2243 43.5383 71.2457 43.5115C71.2672 43.4853 71.2887 43.4638 71.3101 43.4457C71.3531 43.4108 71.3913 43.3712 71.4235 43.3269C71.4557 43.2833 71.4927 43.2437 71.5363 43.2082C71.5577 43.1733 71.5899 43.1337 71.6336 43.0894C71.6765 43.0451 71.7087 43.0055 71.7302 42.97C71.7946 42.8827 71.8536 42.8076 71.908 42.7459C71.961 42.6841 72.01 42.6184 72.0529 42.5479L73.7002 40.329H74.9912L75.3468 40.4873L73.829 42.5479C73.4197 43.1115 73.054 43.5645 72.7313 43.908C72.4085 44.2515 72.1281 44.4938 71.8919 44.634C71.6765 44.7581 71.4826 44.8501 71.3101 44.9118C71.1377 44.9735 70.9874 45.0044 70.8586 45.0044L69.5669 45.0306C69.373 45.0131 69.2113 44.9776 69.0825 44.9252C68.953 44.8722 68.8342 44.8105 68.7269 44.74C68.641 44.6521 68.5705 44.5508 68.5175 44.4361C68.4632 44.322 68.4148 44.2032 68.3719 44.0798V43.9738C68.3504 43.9563 68.3397 43.9389 68.3397 43.9214V43.551C68.3397 43.4987 68.3504 43.437 68.3719 43.3665C68.3934 43.3135 68.4202 43.2525 68.4524 43.1813C68.4846 43.1115 68.5115 43.0411 68.5336 42.97L68.5658 42.8646L68.598 42.7586C68.6188 42.7237 68.6356 42.6888 68.6463 42.6533C68.6571 42.6184 68.6732 42.5915 68.6947 42.5741C68.6947 42.5392 68.7 42.5036 68.7108 42.4681C68.7215 42.4332 68.7376 42.407 68.7591 42.3889C68.7805 42.3366 68.7966 42.2882 68.808 42.244C68.8181 42.2004 68.8342 42.1688 68.8564 42.1514L70.8908 37.4498L66.0792 42.3627Z" fill="white"/>
<path d="M84.8694 37.6477C84.9016 37.586 84.9392 37.5202 84.9828 37.4498C85.0036 37.4142 85.0251 37.3746 85.0472 37.3304C85.068 37.2867 85.0902 37.2472 85.1117 37.2116C85.1117 37.1767 85.1224 37.1371 85.1439 37.0928C85.1653 37.0492 85.1868 37.0096 85.2083 36.9741L85.2734 36.8687L85.37 36.7365C85.4344 36.5782 85.4988 36.4239 85.5639 36.2742C85.6283 36.1246 85.6927 35.9877 85.7571 35.8649C85.8222 35.724 85.8705 35.6093 85.9028 35.5214C85.935 35.4335 85.9511 35.363 85.9511 35.31V35.2443C85.9511 35.2349 85.9403 35.2221 85.9189 35.204C85.8108 35.257 85.682 35.3275 85.5317 35.4154C85.3807 35.5039 85.219 35.6006 85.0472 35.7059C84.6379 35.9703 84.2125 36.2964 83.7717 36.6835C83.3302 37.0714 82.8833 37.5202 82.4318 38.0309C82.3452 38.1188 82.2425 38.2375 82.1244 38.3872C82.0063 38.5375 81.8607 38.7173 81.689 38.9286C81.538 39.14 81.3709 39.3648 81.1884 39.6023C81.0052 39.8398 80.8274 40.0908 80.6557 40.3552C80.5906 40.4256 80.5369 40.492 80.494 40.5531C80.4503 40.6155 80.4081 40.6813 80.3651 40.7517C80.3215 40.8222 80.2786 40.8879 80.2356 40.9496C80.1927 41.0114 80.1497 41.0684 80.1068 41.1214C79.9129 41.4032 79.7297 41.685 79.5573 41.9669C79.3848 42.2487 79.2345 42.5211 79.1057 42.7855C78.9547 43.0498 78.8474 43.2833 78.7823 43.4853C78.7179 43.6879 78.6856 43.8597 78.6856 44.0006C78.6856 44.0885 78.6964 44.1677 78.7179 44.2381C78.7393 44.3086 78.7608 44.3703 78.7823 44.4233C78.8474 44.3878 78.9165 44.3482 78.9923 44.3039C79.0674 44.2603 79.1486 44.212 79.2345 44.159C79.2775 44.1415 79.3097 44.1241 79.3318 44.106C79.3526 44.0885 79.3848 44.0711 79.4284 44.0529C79.4499 44.0362 79.4767 44.0181 79.5089 44.0006C79.5412 43.9832 79.568 43.9657 79.5901 43.9476C79.6324 43.9127 79.6814 43.8731 79.7351 43.8288C79.7887 43.7852 79.8478 43.7362 79.9129 43.6832C79.9558 43.6483 80.0041 43.6135 80.0578 43.5779C80.1115 43.543 80.1598 43.4987 80.2034 43.4457C80.2464 43.4108 80.2893 43.3753 80.3329 43.3404C80.3752 43.3048 80.4181 43.2699 80.4617 43.2343C80.5476 43.1464 80.6235 43.076 80.6879 43.023C80.7523 42.97 80.8167 42.9176 80.8818 42.8646C81.0106 42.7418 81.1394 42.6137 81.2689 42.4815C81.3984 42.3493 81.538 42.2044 81.689 42.046C81.8178 41.887 81.952 41.7246 82.0922 41.5569C82.2318 41.3898 82.3774 41.218 82.5284 41.0422C82.7223 40.7953 82.9162 40.5444 83.1094 40.2894C83.3034 40.0344 83.4973 39.7654 83.6905 39.4835C83.8844 39.2192 84.073 38.9468 84.2562 38.6643C84.4387 38.3831 84.6057 38.1013 84.7567 37.8195C84.799 37.7665 84.8372 37.7095 84.8694 37.6477ZM89.3093 40.5135L87.8889 42.6003C87.7594 42.7942 87.6413 42.9619 87.5332 43.1022C87.4259 43.2437 87.34 43.3578 87.2749 43.4457C87.189 43.5343 87.1139 43.6175 87.0488 43.6967C86.9844 43.7758 86.9307 43.8416 86.8878 43.8946L86.8555 43.9476L86.7905 44.0006V44.0268C86.6402 44.2032 86.5053 44.3482 86.3872 44.4629C86.2684 44.5777 86.1557 44.6703 86.0484 44.74C85.9403 44.793 85.8323 44.8414 85.7249 44.8856C85.6169 44.9293 85.5096 44.9601 85.4022 44.9776L85.2412 45.0044L85.1117 45.0306H83.82C83.6261 45.0131 83.459 44.9776 83.3195 44.9252C83.1792 44.8722 83.0665 44.8105 82.9806 44.74C82.8941 44.6521 82.8243 44.5508 82.7706 44.4361C82.7169 44.322 82.6901 44.2032 82.6901 44.0798L82.6579 43.9738V43.8154C82.6579 43.6752 82.6626 43.543 82.674 43.4195C82.684 43.2961 82.7001 43.1995 82.7223 43.129C82.7223 43.0934 82.727 43.0585 82.7384 43.023C82.7491 42.9881 82.7652 42.9438 82.7867 42.8908C82.8082 42.8559 82.8243 42.821 82.835 42.7855C82.8457 42.7506 82.8619 42.715 82.8833 42.6794L82.9162 42.6271L84.2072 39.7479H85.4988H85.37C85.3264 39.8003 85.2895 39.8533 85.2573 39.9063C85.2244 39.9593 85.1868 40.0029 85.1439 40.0385C85.1224 40.0559 85.1063 40.078 85.0956 40.1042C85.0842 40.131 85.0795 40.1532 85.0795 40.1706C85.058 40.1881 85.0419 40.2055 85.0311 40.223C85.0197 40.2411 85.0036 40.2585 84.9828 40.276L84.95 40.3021V40.329C84.9285 40.3464 84.907 40.3686 84.8855 40.3947C84.8641 40.4216 84.8419 40.4437 84.8211 40.4612C84.799 40.4967 84.7775 40.5229 84.7567 40.5403C84.7346 40.5578 84.7131 40.584 84.6916 40.6195C84.6702 40.6725 84.6319 40.7249 84.5789 40.7779C84.5246 40.8309 84.4762 40.8926 84.4333 40.9631C84.4118 40.998 84.3474 41.0778 84.2401 41.2006C84.132 41.3241 83.9918 41.4824 83.82 41.6757C83.669 41.887 83.4859 42.0984 83.2712 42.3097C83.0558 42.5211 82.8296 42.7506 82.5928 42.9968C82.5284 43.0498 82.464 43.1069 82.3989 43.1686C82.3345 43.2303 82.2808 43.2874 82.2378 43.3404C82.1728 43.4108 82.1083 43.4719 82.0439 43.5249C81.9795 43.5779 81.9151 43.6309 81.85 43.6832C81.7856 43.7362 81.7212 43.7939 81.6568 43.855C81.5917 43.9167 81.538 43.9738 81.4951 44.0268C81.4306 44.0798 81.3662 44.1281 81.3011 44.1724C81.2367 44.2167 81.1723 44.2563 81.1072 44.2911C80.9569 44.4146 80.8006 44.52 80.6396 44.6079C80.4778 44.6964 80.3108 44.7582 80.139 44.793C79.988 44.8628 79.8371 44.9158 79.6868 44.9514C79.5358 44.9863 79.3962 45.0044 79.2667 45.0044L77.9751 45.0306C77.9536 45.0131 77.916 44.9997 77.8624 44.991C77.8087 44.9816 77.749 44.9688 77.6845 44.9514C77.6201 44.9339 77.5557 44.9158 77.4906 44.8984C77.4262 44.8809 77.3618 44.8541 77.2974 44.8192C77.2108 44.7843 77.1303 44.7179 77.0552 44.6213C76.98 44.5246 76.9096 44.4146 76.8451 44.2911C76.7807 44.1502 76.727 43.9785 76.6834 43.7758C76.6412 43.5739 76.619 43.3316 76.619 43.0498C76.619 42.821 76.6512 42.5788 76.7163 42.3232C76.7807 42.0682 76.8773 41.7991 77.0068 41.5173C77.0921 41.218 77.2269 40.9235 77.4101 40.6329C77.5926 40.3417 77.7919 40.0559 78.008 39.7741C78.2656 39.4218 78.5508 39.083 78.8635 38.7569C79.1755 38.4314 79.5036 38.1013 79.8478 37.7665C80.2141 37.4323 80.5745 37.1197 80.9301 36.8285C81.285 36.5379 81.6568 36.2702 82.0439 36.0233C82.3452 35.8294 82.6418 35.6495 82.9323 35.4818C83.2228 35.3147 83.5073 35.1517 83.7878 34.9933C83.9381 34.9229 84.0837 34.8611 84.2239 34.8081C84.3635 34.7551 84.5084 34.7021 84.6594 34.6498C84.7889 34.6142 84.9231 34.588 85.0634 34.5699C85.2029 34.5532 85.3485 34.5438 85.4988 34.5438H86.7905C87.0273 34.5438 87.2266 34.5619 87.3883 34.5968C87.5493 34.6323 87.6735 34.6934 87.7594 34.782C87.8667 34.8524 87.958 34.9363 88.0338 35.0329C88.1089 35.1295 88.1573 35.2221 88.1794 35.31V35.4684L88.2116 35.6267V35.7327C88.1895 35.7502 88.1794 35.7683 88.1794 35.7858V35.9441C88.1573 35.9616 88.1472 35.9797 88.1472 35.9964V36.0495C88.1251 36.085 88.1089 36.1199 88.0982 36.1555C88.0875 36.191 88.0821 36.2259 88.0821 36.2608C88.0606 36.2964 88.0445 36.3313 88.0338 36.3668C88.0231 36.4017 88.0177 36.4373 88.0177 36.4722C87.9962 36.5252 87.9741 36.5782 87.9533 36.6305C87.9318 36.6835 87.9097 36.7278 87.8889 36.7627L87.8238 36.9479L85.4988 42.6271C85.4773 42.6446 85.4612 42.6794 85.4505 42.7325C85.4398 42.7855 85.4129 42.8472 85.37 42.9176C85.3485 42.9881 85.3264 43.0539 85.3056 43.1156C85.2834 43.1773 85.262 43.2525 85.2412 43.3404L85.2083 43.4195L85.1761 43.4719C85.1546 43.543 85.1331 43.6175 85.1117 43.6967C85.0902 43.7758 85.068 43.851 85.0472 43.9214C85.0472 43.904 85.058 43.8946 85.0795 43.8946V43.8684C85.1009 43.851 85.1224 43.8335 85.1439 43.8154C85.1653 43.798 85.1868 43.7718 85.2083 43.7362C85.2083 43.7188 85.219 43.6967 85.2412 43.6705C85.262 43.6436 85.2834 43.6222 85.3056 43.6041C85.3485 43.5692 85.3861 43.5296 85.4183 43.4853C85.4505 43.4417 85.4773 43.4021 85.4988 43.3665C85.6068 43.2256 85.6981 43.1069 85.7733 43.0096C85.8484 42.9136 85.9074 42.8297 85.9511 42.7586C85.994 42.6888 86.0423 42.6271 86.0967 42.5741C86.1503 42.5211 86.1879 42.4681 86.2094 42.4157L87.6305 40.382H88.9222L89.3093 40.5135Z" fill="white"/>
<path d="M96.2479 44.3968L100.187 34.8346H102.932L99.0251 44.3968H100.833L104.741 34.8346H107.518L103.578 44.3968H106.097V44.7927H89.8541V44.3968H91.6953L95.0536 36.604C95.118 36.4638 95.177 36.3316 95.2307 36.2081C95.2844 36.0853 95.3327 35.9793 95.3763 35.8907C95.3971 35.8558 95.4132 35.8163 95.4246 35.772C95.4354 35.7284 95.4515 35.6975 95.4729 35.6794C95.4515 35.6975 95.4354 35.7109 95.4246 35.719C95.4132 35.7284 95.4085 35.7418 95.4085 35.7592C95.3871 35.7767 95.3703 35.7901 95.3602 35.7988C95.3488 35.8075 95.3327 35.8209 95.3112 35.8384C95.2898 35.874 95.2629 35.9088 95.2307 35.9437C95.1985 35.9793 95.1609 36.0142 95.118 36.0498C95.01 36.1551 94.908 36.2611 94.8107 36.3665C94.7141 36.4725 94.6335 36.5691 94.5685 36.657C94.4826 36.763 94.4182 36.8509 94.3752 36.9214C94.3316 36.9918 94.2887 37.0448 94.2457 37.0797L92.5991 39.2987H91.3075L90.9196 39.1403L92.4696 37.0535L92.5347 36.9744L92.5991 36.8952C92.6206 36.8596 92.6421 36.8288 92.6635 36.8026C92.685 36.7758 92.7065 36.7456 92.7286 36.71C92.7709 36.6751 92.8138 36.6268 92.8575 36.5644C92.9004 36.5033 92.9541 36.4369 93.0192 36.3665C93.2983 36.0142 93.5512 35.7149 93.778 35.468C94.0035 35.2218 94.2135 35.0372 94.4074 34.9138C94.6013 34.7903 94.7838 34.6984 94.9563 34.636C95.1287 34.5749 95.2898 34.5441 95.4407 34.5441H96.7324C96.8612 34.5441 96.9907 34.5702 97.1195 34.6232C97.249 34.6756 97.3779 34.7467 97.5074 34.8346C97.6147 34.9399 97.706 35.046 97.7818 35.1513C97.857 35.2573 97.9053 35.3808 97.9274 35.521V36.0759C97.9053 36.1289 97.8892 36.1772 97.8784 36.2215C97.8677 36.2651 97.8623 36.3047 97.8623 36.3403V36.4456C97.8408 36.4638 97.8301 36.4812 97.8301 36.4986V36.5517C97.8086 36.5691 97.7925 36.5912 97.7818 36.6174C97.7704 36.6442 97.7657 36.6751 97.7657 36.71C97.7442 36.7274 97.7281 36.7496 97.7174 36.7758C97.706 36.8026 97.6899 36.8335 97.6691 36.8684C97.6469 36.9388 97.6094 37.018 97.5557 37.1066C97.502 37.1945 97.4537 37.3085 97.4107 37.4494L94.4396 44.3968H96.2479Z" fill="white"/>
<path d="M112.601 36.6043C112.665 36.4634 112.724 36.3312 112.778 36.2077C112.831 36.085 112.88 35.9796 112.923 35.891C112.966 35.838 112.993 35.7857 113.004 35.7327C113.015 35.6797 113.031 35.6361 113.053 35.6005C113.031 35.6361 113.009 35.6663 112.988 35.6931C112.966 35.7193 112.934 35.7501 112.891 35.7857C112.87 35.8206 112.843 35.8561 112.811 35.891C112.778 35.9266 112.74 35.9615 112.697 35.9964C112.568 36.1198 112.455 36.2433 112.358 36.3668C112.262 36.4902 112.17 36.6043 112.084 36.7096C111.997 36.8157 111.928 36.8995 111.874 36.9606C111.82 37.023 111.793 37.0626 111.793 37.0793L110.146 39.299H108.854L108.467 39.1399L110.017 37.0532C110.404 36.5426 110.749 36.1158 111.051 35.7723C111.352 35.4287 111.61 35.1778 111.826 35.0194C112.062 34.8611 112.278 34.7423 112.471 34.6625C112.665 34.5833 112.837 34.5437 112.988 34.5437H114.344L114.473 34.5705C114.516 34.588 114.565 34.6061 114.619 34.6229C114.672 34.641 114.732 34.6672 114.796 34.7027C114.839 34.7202 114.887 34.7463 114.942 34.7819C114.995 34.8175 115.044 34.8611 115.087 34.9134C115.195 35.002 115.28 35.0986 115.345 35.2039C115.41 35.31 115.453 35.4153 115.474 35.5213V35.9964C115.453 36.0494 115.437 36.1111 115.426 36.1816C115.415 36.252 115.399 36.3312 115.378 36.4191C115.356 36.4902 115.307 36.613 115.232 36.7888C115.156 36.9653 115.065 37.1854 114.958 37.4497L114.151 39.3513H117.024L118.962 34.8342H121.706L118.187 42.9968C118.165 43.0142 118.149 43.0451 118.138 43.0894C118.127 43.1336 118.111 43.1813 118.09 43.2343C118.068 43.2524 118.052 43.2739 118.042 43.3C118.03 43.3269 118.025 43.349 118.025 43.3665C118.004 43.402 117.988 43.4282 117.977 43.4456C117.966 43.4638 117.95 43.4899 117.929 43.5248L117.896 43.6308L117.864 43.71C117.842 43.763 117.826 43.8113 117.815 43.8549C117.805 43.8992 117.778 43.9388 117.735 43.9744C117.778 43.9569 117.81 43.9341 117.832 43.908C117.853 43.8818 117.874 43.8596 117.896 43.8422C117.939 43.8066 117.982 43.763 118.025 43.71C118.068 43.657 118.111 43.604 118.154 43.5517C118.262 43.4456 118.354 43.3443 118.429 43.2477C118.504 43.1511 118.585 43.0585 118.671 42.9699C118.735 42.8827 118.8 42.8028 118.865 42.7324C118.929 42.6626 118.972 42.6002 118.994 42.5479L120.641 40.3289H121.933L122.32 40.4873L120.77 42.5479C120.404 43.041 120.076 43.455 119.785 43.7892C119.495 44.124 119.231 44.3703 118.994 44.5286C118.778 44.6876 118.569 44.8064 118.364 44.8856C118.16 44.9648 117.972 45.0043 117.799 45.0043L116.508 45.0305C116.378 45.0131 116.26 44.9909 116.153 44.9648C116.045 44.9386 115.947 44.8983 115.862 44.846C115.776 44.8104 115.7 44.7621 115.636 44.7004C115.572 44.6387 115.517 44.5729 115.474 44.5024C115.453 44.4676 115.431 44.432 115.41 44.3971C115.388 44.3615 115.378 44.3266 115.378 44.2911C115.378 44.2736 115.372 44.2562 115.362 44.2381C115.35 44.2206 115.345 44.2032 115.345 44.1857C115.323 44.1857 115.313 44.1763 115.313 44.1589V43.6832C115.313 43.6483 115.323 43.5912 115.345 43.5114C115.366 43.4322 115.388 43.3403 115.41 43.2343C115.453 43.1289 115.507 42.988 115.572 42.8116C115.636 42.6358 115.722 42.4157 115.829 42.1513L116.863 39.7479H113.989L111.826 44.793H109.081L112.601 36.6043Z" fill="white"/>
<path d="M137.364 35.2307L133.973 42.9967C133.887 43.1732 133.812 43.3402 133.747 43.4986C133.683 43.6569 133.628 43.7891 133.585 43.8951C133.585 43.9126 133.58 43.926 133.569 43.9347C133.559 43.9434 133.553 43.9569 133.553 43.9743C133.553 43.9918 133.542 44.0099 133.521 44.0266C133.564 43.9918 133.612 43.9475 133.667 43.8951C133.72 43.8421 133.769 43.7891 133.812 43.7361L133.941 43.6046L134.07 43.4724C134.113 43.4194 134.151 43.3711 134.183 43.3268C134.215 43.2832 134.252 43.2436 134.296 43.208C134.317 43.155 134.35 43.1067 134.393 43.0631C134.436 43.0188 134.468 42.9792 134.49 42.9437C134.554 42.8558 134.619 42.7813 134.684 42.7196C134.748 42.6578 134.791 42.6008 134.813 42.5478L136.46 40.3289H137.752L138.107 40.4872L136.589 42.5478C136.373 42.8471 136.174 43.1027 135.992 43.3141C135.808 43.5248 135.652 43.7012 135.523 43.8421C135.394 43.9656 135.281 44.0844 135.184 44.1984C135.087 44.3132 134.985 44.4145 134.878 44.5024L134.78 44.5816L134.716 44.6607C134.672 44.6963 134.624 44.7272 134.57 44.7533C134.517 44.7795 134.468 44.7929 134.426 44.7929C134.382 44.8104 134.35 44.8238 134.328 44.8325C134.307 44.8412 134.275 44.8546 134.232 44.8721C134.145 44.907 134.048 44.9385 133.941 44.9647C133.833 44.9909 133.726 45.0043 133.618 45.0043L132.326 45.0304C132.133 45.013 131.971 44.9781 131.842 44.9251C131.713 44.8721 131.595 44.8104 131.487 44.7399C131.401 44.652 131.33 44.5514 131.277 44.4366C131.223 44.3219 131.175 44.2031 131.132 44.0797V43.9743C131.11 43.9569 131.099 43.9387 131.099 43.9213V43.5516C131.099 43.4986 131.11 43.4369 131.132 43.3664C131.152 43.3141 131.18 43.2523 131.212 43.1819C131.244 43.1114 131.271 43.041 131.293 42.9705L131.326 42.8645L131.358 42.7592C131.379 42.7236 131.395 42.6887 131.406 42.6531C131.417 42.6183 131.433 42.5921 131.454 42.574C131.454 42.5391 131.46 42.5042 131.471 42.4686C131.481 42.4331 131.497 42.4069 131.519 42.3894C131.54 42.3364 131.556 42.2881 131.568 42.2438C131.579 42.2002 131.595 42.1694 131.616 42.1512L134.587 35.2307H133.424C133.359 35.2482 133.295 35.2569 133.23 35.2569H133.037C132.886 35.275 132.741 35.2965 132.601 35.3233C132.461 35.3495 132.305 35.3891 132.133 35.4421C131.917 35.5125 131.702 35.6185 131.487 35.7588C131.271 35.9004 131.067 36.0674 130.873 36.2607C130.679 36.4546 130.534 36.7055 130.437 37.0135C130.341 37.3222 130.292 37.6785 130.292 38.0837V38.2951C130.292 38.3307 130.297 38.3656 130.308 38.4004C130.319 38.436 130.335 38.4709 130.357 38.5065C130.378 38.6293 130.421 38.744 130.485 38.8493C130.551 38.9554 130.647 39.052 130.777 39.1399C130.884 39.2284 131.034 39.2942 131.228 39.3385C131.422 39.3821 131.659 39.4042 131.939 39.4042H132.682V39.827H131.358C131.271 39.8444 131.185 39.8625 131.099 39.88C131.013 39.8974 130.927 39.9236 130.841 39.9591C130.69 40.0115 130.534 40.0954 130.373 40.2101C130.212 40.3248 130.055 40.461 129.904 40.6194C129.818 40.7073 129.737 40.8039 129.662 40.9099C129.586 41.0153 129.517 41.1213 129.452 41.2266C129.366 41.3501 129.286 41.4776 129.211 41.6098C129.135 41.7419 129.054 41.8869 128.968 42.0459C128.946 42.0815 128.925 42.1164 128.903 42.1512C128.882 42.1868 128.871 42.2217 128.871 42.2573C128.85 42.3096 128.828 42.3539 128.807 42.3894C128.785 42.4243 128.763 42.4599 128.742 42.4948C128.699 42.5652 128.65 42.6404 128.597 42.7196C128.543 42.7987 128.494 42.8826 128.451 42.9705C128.301 43.2342 128.118 43.4852 127.903 43.7234C127.687 43.9609 127.451 44.1857 127.192 44.397C126.912 44.5909 126.589 44.7399 126.223 44.8459C125.857 44.9513 125.448 45.0043 124.996 45.0043L123.705 45.0304C123.533 45.013 123.366 44.9862 123.204 44.9513C123.043 44.9157 122.909 44.8634 122.801 44.7929C122.693 44.7399 122.596 44.6741 122.51 44.595C122.424 44.5158 122.359 44.4319 122.316 44.344C122.295 44.3085 122.279 44.2689 122.268 44.2253C122.257 44.181 122.241 44.1414 122.219 44.1058V44.0535C122.219 44.036 122.209 44.0099 122.187 43.9743V43.763C122.209 43.7455 122.219 43.7234 122.219 43.6965V43.6308C122.219 43.5952 122.225 43.5516 122.236 43.4986C122.246 43.4456 122.273 43.3932 122.316 43.3402C122.338 43.2523 122.386 43.1685 122.461 43.0893C122.537 43.0101 122.628 42.935 122.736 42.8645C122.822 42.7947 122.941 42.7417 123.091 42.7062C123.242 42.6713 123.414 42.6531 123.608 42.6531H125.061L125.255 42.68L125.222 43.0229H123.931L123.898 42.9967L123.801 42.9705H123.64L123.478 42.9437H124.77C124.641 42.9437 124.522 42.9618 124.415 42.9967C124.307 43.0322 124.21 43.0933 124.125 43.1819C124.039 43.2523 123.974 43.3402 123.931 43.4456C123.888 43.5516 123.866 43.6663 123.866 43.7891C123.866 43.93 123.898 44.0535 123.963 44.1588C124.027 44.2648 124.103 44.3615 124.189 44.4494C124.232 44.4675 124.27 44.4849 124.302 44.5024C124.335 44.5198 124.361 44.5379 124.383 44.5554C124.426 44.5198 124.48 44.4802 124.545 44.4366C124.609 44.3923 124.673 44.3353 124.738 44.2648C124.845 44.1763 124.953 44.0448 125.061 43.8683C125.169 43.6925 125.287 43.4811 125.416 43.2342C125.588 42.8296 125.793 42.4418 126.029 42.0721C126.266 41.7024 126.525 41.3501 126.804 41.0153C127.084 40.6637 127.439 40.3772 127.87 40.1571C128.301 39.937 128.817 39.774 129.42 39.6686V39.5096C129.119 39.4747 128.844 39.4002 128.597 39.2855C128.349 39.1707 128.128 39.0258 127.935 38.8493C127.741 38.6561 127.601 38.4622 127.515 38.2683C127.428 38.075 127.386 37.8637 127.386 37.6342C127.386 37.2296 127.451 36.8813 127.579 36.5908C127.709 36.3003 127.903 36.0587 128.161 35.8648C128.419 35.6709 128.699 35.5038 129.001 35.3629C129.302 35.222 129.614 35.1167 129.937 35.0455C130.173 34.9932 130.394 34.9536 130.599 34.9268C130.803 34.9006 131.013 34.8785 131.228 34.861H131.519C131.605 34.861 131.691 34.8523 131.777 34.8342H138.72V35.2307H137.364Z" fill="white"/>
<path d="M132.868 48.1275C132.89 48.0383 132.771 47.9685 132.713 47.8953C132.678 47.8504 132.664 47.8363 132.654 47.8269C132.206 47.3478 131.542 47.0714 130.937 46.8728C129.977 46.5507 128.952 46.3883 127.955 46.2434C125.587 45.9548 123.135 45.8703 120.778 45.877C118.161 45.8696 114.903 46.0085 112.28 46.1709C104.573 46.5997 94.8127 47.8081 87.0568 48.6448C75.9097 49.7352 64.6338 50.284 53.4385 49.6446C49.7353 49.4144 45.9489 49.0857 42.3196 48.3422L42.2236 48.7052C45.8865 49.5473 49.6541 49.9626 53.3902 50.2847C64.6197 51.1932 75.9614 50.9107 87.1856 50.0807C91.08 49.754 100.214 48.9199 103.993 48.6723C109.517 48.2805 115.209 48.0047 120.751 48.1181C123.051 48.1678 125.342 48.2986 127.598 48.626C128.54 48.7837 129.476 48.9602 130.367 49.3017L130.583 49.4077C130.64 49.4339 130.696 49.4587 130.737 49.4956C130.745 49.501 130.716 49.4802 130.758 49.5064C131.649 50.0693 132.716 48.7314 132.868 48.1275Z" fill="white"/>
<path d="M108.889 11.4641C107.658 11.4641 106.656 12.4659 106.656 13.6972C106.656 14.9291 107.658 15.9309 108.889 15.9309C110.121 15.9309 111.122 14.9291 111.122 13.6972C111.122 12.4659 110.121 11.4641 108.889 11.4641ZM108.889 16.306C107.451 16.306 106.281 15.1358 106.281 13.6972C106.281 12.2592 107.451 11.0884 108.889 11.0884C110.328 11.0884 111.498 12.2592 111.498 13.6972C111.498 15.1358 110.328 16.306 108.889 16.306Z" fill="white"/>
<path d="M108.479 13.5287H108.901C109.178 13.5287 109.284 13.424 109.284 13.2288C109.284 13.0396 109.16 12.9335 108.914 12.9335H108.479V13.5287ZM108.479 13.9299V14.8626H107.987V12.5323H109.011C109.519 12.5323 109.793 12.8121 109.793 13.1717C109.793 13.4844 109.622 13.6542 109.454 13.7233C109.569 13.7662 109.744 13.8863 109.744 14.303V14.4184C109.744 14.5748 109.745 14.7532 109.776 14.8626H109.299C109.258 14.7613 109.25 14.5868 109.25 14.3392V14.305C109.25 14.0507 109.186 13.9299 108.811 13.9299H108.479Z" fill="white"/>
<defs>
<linearGradient id="paint0_linear_46_4225" x1="0.0678711" y1="30.226" x2="144" y2="30.226" gradientUnits="userSpaceOnUse">
<stop stop-color="#6E611B"/>
<stop offset="0.5" stop-color="#AF8F20"/>
<stop offset="1" stop-color="#76681F"/>
</linearGradient>
<linearGradient id="paint1_linear_46_4225" x1="0.0678711" y1="30.6078" x2="144" y2="30.6078" gradientUnits="userSpaceOnUse">
<stop stop-color="#7F0000"/>
<stop offset="0.5" stop-color="#FF0000"/>
<stop offset="1" stop-color="#7F0000"/>
</linearGradient>
</defs>
</svg>
