<svg width="103" height="73" viewBox="0 0 103 73" fill="none" xmlns="http://www.w3.org/2000/svg">
<path fill-rule="evenodd" clip-rule="evenodd" d="M74.4483 9.87797H74.403L76.3242 0.0192752L78.2478 9.74653C77.7824 9.69969 77.2978 9.61128 76.8204 9.61128C76.0074 9.61128 75.2235 9.745 74.4483 9.87797ZM17.8419 9.88743H22.2381V31.0112C22.2381 31.845 22.3891 32.4116 22.6908 32.7138C22.9921 33.0153 23.5589 33.2094 24.3927 33.2955V37.4331C23.3868 37.4331 22.4818 37.3534 21.6776 37.1963C20.8732 37.0387 20.1834 36.7294 19.6088 36.2693C19.0341 35.8382 18.596 35.2282 18.2946 34.4375C17.9929 33.6476 17.8419 32.6058 17.8419 31.3134V9.88743ZM0.000244141 37.1744V0H6.42178C7.82869 0 9.02904 0.215335 10.0201 0.646734C11.0112 1.07738 11.8226 1.6527 12.4556 2.37044C13.0867 3.08893 13.5391 3.9147 13.8129 4.84889C14.0853 5.78271 14.2224 6.75242 14.2224 7.75763V8.87806C14.2224 9.71139 14.1575 10.4151 14.0283 10.9897C13.899 11.565 13.7048 12.0671 13.4466 12.4985C12.9574 13.3031 12.2107 13.9925 11.2054 14.5671C12.2397 15.0555 13.0006 15.7736 13.4895 16.7214C13.9775 17.6696 14.2224 18.9627 14.2224 20.6003V28.8135C14.2224 31.5148 13.568 33.5834 12.2614 35.0192C10.9535 36.4566 8.86326 37.1744 5.99055 37.1744H0.000244141ZM10.0848 27.7671H10.0805C10.0672 27.1691 10.0253 19.5584 9.95551 19.0919C9.86914 18.5173 9.69701 18.0296 9.43852 17.6265C9.15074 17.225 8.763 16.9303 8.2747 16.7433C7.7861 16.5571 7.13897 16.463 6.33571 16.463H4.39581V32.7784H6.29253C7.18276 32.7784 7.87941 32.6492 8.38251 32.3908C8.88469 32.1324 9.26579 31.7732 9.52458 31.3127C9.78308 30.8537 9.94071 30.3075 9.99899 29.6751C10.0515 29.0892 10.0808 28.4531 10.0848 27.7671ZM4.39581 4.13721V12.5846H6.37859C7.84409 12.5846 8.82732 12.2182 9.33072 11.4853C9.8326 10.7529 10.085 9.68268 10.085 8.27516C10.085 6.89596 9.80421 5.86091 9.24435 5.1715C8.68418 4.48172 7.67106 4.13721 6.20587 4.13721H4.39581ZM26.9079 22.6507C26.9079 21.7603 26.9658 20.9417 27.0809 20.1942C27.1953 19.4473 27.4106 18.7866 27.7274 18.2113C28.2441 17.2635 28.9833 16.5023 29.9466 15.9274C30.9087 15.3532 32.0798 15.0653 33.4592 15.0653C34.8384 15.0653 36.0088 15.3532 36.9715 15.9274C37.9336 16.5023 38.6741 17.2635 39.1908 18.2113C39.5063 18.7866 39.7222 19.4473 39.8373 20.1942C39.9517 20.9417 40.0097 21.7603 40.0097 22.6507V42.1694C40.0097 43.0602 39.9517 43.8792 39.8373 44.626C39.7222 45.3736 39.5063 46.0343 39.1908 46.6088C38.6741 47.5566 37.9336 48.3182 36.9715 48.8928C36.0088 49.4681 34.8384 49.7548 33.4592 49.7548C32.0798 49.7548 30.9087 49.4681 29.9466 48.8928C28.9833 48.3182 28.2441 47.5566 27.7274 46.6088C27.4106 46.0343 27.1953 45.3736 27.0809 44.626C26.9658 43.8792 26.9079 43.0602 26.9079 42.1694V22.6507ZM31.304 42.8592C31.304 43.6926 31.4982 44.3181 31.8856 44.734C32.274 45.1503 32.7979 45.3589 33.4592 45.3589C34.1194 45.3589 34.6442 45.1503 35.0319 44.734C35.42 44.3181 35.6141 43.6926 35.6141 42.8592V21.9609C35.6141 21.128 35.42 20.5032 35.0319 20.0861C34.6442 19.6702 34.1194 19.4613 33.4592 19.4613C32.7979 19.4613 32.274 19.6702 31.8856 20.0861C31.4982 20.5032 31.304 21.128 31.304 21.9609V42.8592ZM55.9175 14.895V43.3866C55.9175 44.1327 55.7949 44.8874 55.5512 45.649C55.3063 46.4098 54.9116 47.0924 54.366 47.6953C53.8197 48.3277 53.1303 48.838 52.2971 49.2256C51.4637 49.6139 50.4726 49.8073 49.3239 49.8073C48.6626 49.8073 47.9731 49.7 47.255 49.4847C46.5366 49.2686 45.8759 48.9022 45.2729 48.3854C44.6399 47.8959 44.1012 47.2435 43.6564 46.4245C43.2107 45.6052 42.9168 44.5501 42.7728 43.2566H47.169C47.1973 43.7742 47.406 44.2618 47.7938 44.7216C48.1818 45.1817 48.7489 45.4117 49.4963 45.4117C50.2141 45.4117 50.7308 45.1881 51.0479 44.7435C51.3634 44.2981 51.5214 43.7311 51.5214 43.0413V35.1919H51.4353C50.9467 35.9104 50.3645 36.4631 49.6896 36.8514C49.0144 37.239 48.2313 37.4331 47.3411 37.4331C45.5024 37.4331 44.2235 36.7433 43.5054 35.3642C43.2472 34.8757 43.06 34.2728 42.9449 33.5543C42.8305 32.8362 42.7728 31.8737 42.7728 30.6663V22.3493C42.7728 20.7695 42.816 19.6052 42.9026 18.858C43.0748 17.4222 43.7497 16.3444 44.9277 15.6259C45.4728 15.2531 46.2923 15.0653 47.3843 15.0653C47.9299 15.0653 48.3971 15.1239 48.7848 15.2376C49.1729 15.3532 49.5244 15.5115 49.8409 15.7121C50.1564 15.913 50.4442 16.1503 50.7027 16.4234C50.9615 16.6965 51.2342 16.9908 51.5214 17.3066V14.895H55.9175ZM47.169 30.451C47.169 31.1408 47.3194 31.7437 47.6213 32.2613C47.923 32.7784 48.4898 33.0368 49.3239 33.0368C49.9553 33.0368 50.4795 32.8143 50.8966 32.3689C51.3127 31.9243 51.5214 31.3561 51.5214 30.6663V22.177C51.5214 21.3724 51.3202 20.7185 50.918 20.2153C50.5155 19.7133 49.984 19.4613 49.3239 19.4613C48.5765 19.4613 48.0308 19.7344 47.6856 20.2803C47.3411 20.8265 47.169 21.545 47.169 22.4354V30.451ZM86.7194 24.6294C81.2479 25.1817 76.971 29.8066 76.971 35.4231L76.9707 49.0748L72.5975 50.5538L72.8026 37.5517L72.8415 35.4231C72.8415 33.3326 73.2706 31.3418 74.0455 29.5338C76.1346 24.6589 80.7376 21.1125 86.22 20.5292C86.7457 20.4733 87.2793 20.4446 87.8198 20.4446C88.7478 20.4446 89.6564 20.5292 90.5379 20.6913C97.509 21.9711 102.798 28.0844 102.798 35.4231V51.1552H98.6686V35.4231C98.6686 30.4865 95.3644 26.3157 90.849 25.0034C89.8875 24.7239 88.871 24.5743 87.8198 24.5743C87.4484 24.5743 87.0812 24.5928 86.7194 24.6294ZM81.7477 41.1748C83.3313 41.1748 84.6165 42.4599 84.6165 44.0435C84.6165 45.6267 83.3313 46.9122 81.7477 46.9122C80.1644 46.9122 78.8789 45.6267 78.8789 44.0435C78.8789 42.4599 80.1644 41.1748 81.7477 41.1748Z" fill="#5276D2"/>
<path fill-rule="evenodd" clip-rule="evenodd" d="M22.4968 39.347V52.6905H22.5829C23.0419 52.0003 23.5952 51.4334 24.2418 50.9874C24.8883 50.5426 25.7136 50.3196 26.7201 50.3196C27.2657 50.3196 27.8114 50.414 28.3577 50.5998C28.9034 50.7868 29.3918 51.096 29.8231 51.5266C30.2543 51.9578 30.5988 52.5106 30.8572 53.1861C31.1156 53.8609 31.2454 54.6874 31.2454 55.6638V72.6082H26.8492V57.3014C26.8492 56.4973 26.6622 55.8649 26.2888 55.4054C25.9154 54.9458 25.3839 54.7163 24.6942 54.7163C23.8607 54.7163 23.2867 54.9741 22.9705 55.4915C22.6543 56.0089 22.4968 56.7569 22.4968 57.7326V72.6082H18.1006V37.4752L18.1903 37.4864C18.313 37.6362 18.4457 37.7737 18.5891 37.8993C19.1271 38.4019 19.7914 38.7624 20.5819 38.9807C21.1624 39.1405 21.8007 39.2632 22.4968 39.347ZM55.2064 48.8843V52.9059C56.096 52.1018 56.9732 51.4694 57.8351 51.0092C58.697 50.5497 59.7595 50.3196 61.0243 50.3196V54.9741C60.593 54.8019 60.1476 54.7163 59.6881 54.7163C59.2285 54.7163 58.733 54.7954 58.2015 54.9529C57.6693 55.1116 57.1886 55.3771 56.7579 55.7505C56.2978 56.1239 55.9238 56.6118 55.6371 57.2153C55.3498 57.8188 55.2064 58.5668 55.2064 59.4564V72.6082H50.8103V50.9697C51.691 50.9101 52.468 50.7231 53.1423 50.4093C53.9729 50.0229 54.6613 49.5144 55.2064 48.8843ZM-6.10352e-05 72.6082V41.7433H4.39548V55.7505H4.4822L10.903 41.7433H15.2991L9.30897 54.0261L16.489 72.6082H11.835L6.7658 58.8098L4.39548 63.249V72.6082H-6.10352e-05ZM43.1825 72.6082V70.1181H43.0964C42.5212 70.9193 41.9396 71.5351 41.3508 71.9646C40.7615 72.3941 39.9356 72.6082 38.8725 72.6082C38.3558 72.6082 37.8313 72.5298 37.2998 72.3722C36.7677 72.2159 36.258 71.9215 35.7701 71.4927C35.2811 71.0915 34.8864 70.5122 34.5844 69.753C34.2829 68.9943 34.1319 68.0139 34.1319 66.8116C34.1319 65.5804 34.2328 64.4991 34.4339 63.5688C34.6345 62.6391 35.0085 61.858 35.5542 61.2279C36.0716 60.6262 36.7753 60.1761 37.6661 59.8752C38.5563 59.5744 39.6919 59.4245 41.0706 59.4245H41.5449C41.7172 59.4245 41.8747 59.4393 42.0186 59.4682C42.1625 59.4965 42.3348 59.5101 42.536 59.5101C42.7365 59.5101 42.9519 59.5248 43.1825 59.5526V57.2772C43.1825 56.5333 43.0238 55.918 42.7082 55.4307C42.392 54.9441 41.8174 54.7004 40.9845 54.7004C40.4093 54.7004 39.8854 54.8868 39.4111 55.2591C38.9374 55.6307 38.6283 56.1746 38.485 56.8902H34.2186C34.333 54.9441 34.9944 53.369 36.2008 52.1667C36.7753 51.5939 37.465 51.1432 38.2696 50.814C39.0737 50.4848 39.9786 50.3196 40.9845 50.3196C41.9036 50.3196 42.7655 50.463 43.5701 50.7497C44.3748 51.0358 45.0786 51.4647 45.682 52.0381C46.2566 52.6115 46.7162 53.3265 47.0613 54.1848C47.4058 55.0438 47.5787 56.046 47.5787 57.1911V72.6082H43.1825ZM43.1825 62.9895C42.6935 62.9033 42.2917 62.8591 41.9761 62.8591C41.0275 62.8591 40.2158 63.0821 39.5409 63.5251C38.8655 63.9699 38.528 64.7781 38.528 65.9527C38.528 66.7827 38.7286 67.4558 39.1315 67.9714C39.5332 68.4858 40.0937 68.7436 40.8122 68.7436C41.5591 68.7436 42.1407 68.5006 42.5572 68.0139C42.9737 67.5272 43.1825 66.8405 43.1825 65.9527V62.9895ZM72.5703 50.5857H76.9664L71.7556 59.4564L78.1345 72.6082H73.3508L69.2991 62.9901L67.1878 66.3084V72.6082H62.7917V38.1465H67.1878V60.1024H67.2739L72.5703 50.5857ZM79.5556 50.5786H83.9517V72.6082H79.5556V50.5786ZM92.4496 72.6082L86.7633 50.7473H90.8928L94.6264 64.9828L98.6686 51.1561H102.798L96.5791 72.6082H92.4496Z" fill="#FBB03B"/>
<path fill-rule="evenodd" clip-rule="evenodd" d="M72.8022 37.5524C72.8022 32.0885 68.5742 27.6529 63.6306 27.6529C60.3489 27.6529 57.4771 29.6085 55.9174 32.5215V26.4134C57.8476 24.7776 60.2156 23.7399 62.7918 23.5541C62.8331 16.6626 67.8539 10.9426 74.4351 9.81352C75.2103 9.68078 76.0073 9.61176 76.8196 9.61176C77.2975 9.61176 77.7694 9.63535 78.2343 9.68195C84.3282 10.2937 89.2777 14.8114 90.5378 20.6912C89.6558 20.5295 88.7473 20.4452 87.8194 20.4452C87.279 20.4452 86.7451 20.4735 86.2195 20.5295C84.914 16.5882 81.1969 13.7412 76.8196 13.7412C71.3563 13.7412 66.9206 18.1769 66.9206 23.6402V24.0001C69.8461 24.8667 72.3562 26.8606 74.0452 29.5341C73.27 31.3423 72.8412 33.3333 72.8412 35.4234L72.8022 37.5524ZM86.7192 49.1923V24.6295C87.0808 24.5929 87.4477 24.5746 87.8194 24.5746C88.8706 24.5746 89.8871 24.7245 90.8487 25.0035V50.5904L86.7192 49.1923Z" fill="#FBB03B"/>
<path fill-rule="evenodd" clip-rule="evenodd" d="M72.5632 50.5655L72.8022 37.5524L72.5969 50.5538L72.5632 50.5655Z" fill="#5276D2"/>
<path fill-rule="evenodd" clip-rule="evenodd" d="M72.5705 50.585H72.5045L72.5638 50.5648H72.5973V50.5778H72.5747L72.5705 50.585Z" fill="white"/>
<path fill-rule="evenodd" clip-rule="evenodd" d="M76.9711 50.5778L76.9669 50.5848H76.3251V50.5778H76.9711Z" fill="white"/>
<path fill-rule="evenodd" clip-rule="evenodd" d="M72.5973 50.5848H72.5707L72.5749 50.5778H72.5973V50.5848Z" fill="white"/>
<path fill-rule="evenodd" clip-rule="evenodd" d="M72.5973 50.5647H72.5643L72.5981 50.5536L72.5973 50.5647Z" fill="white"/>
<path fill-rule="evenodd" clip-rule="evenodd" d="M72.5975 50.5777V50.5648H76.3252V50.5777H72.5975Z" fill="white"/>
<path fill-rule="evenodd" clip-rule="evenodd" d="M76.9711 50.5777L76.3541 50.5648H76.3251V50.5777H76.9711Z" fill="white"/>
<path fill-rule="evenodd" clip-rule="evenodd" d="M76.3252 50.5778V50.5848H72.5975V50.5778H76.3252Z" fill="white"/>
</svg>
