<svg width="118" height="90" viewBox="0 0 118 90" fill="none" xmlns="http://www.w3.org/2000/svg">
<path d="M72.3311 36.1094C73.8395 37.7968 74.1773 40.3056 73.0325 42.3715C72.2277 43.8239 71.1146 45.0156 69.6813 45.9338C68.4234 46.7412 66.9475 47.3055 65.2289 47.56C63.3348 47.8405 61.5725 47.6647 59.9361 47.0955C58.1269 46.4671 56.6362 45.427 55.45 43.9921C54.2832 42.5812 53.5229 40.9051 53.2316 38.938C52.9403 36.9709 53.1821 35.1465 53.8899 33.4579C54.6093 31.7407 55.7346 30.3133 57.2836 29.1854C58.6851 28.1684 60.3208 27.4893 62.2149 27.2088C63.9335 26.9543 65.5096 27.0666 66.9472 27.4727C68.5854 27.9381 69.9961 28.756 71.1874 29.9128C72.8818 31.5582 73.2857 34.0572 72.3311 36.1094ZM63.6614 36.8945C63.6271 36.9306 63.5957 36.9684 63.5676 37.0098L63.5883 37.4042L63.6828 37.7877C63.7217 37.8192 63.7627 37.8462 63.806 37.8709C63.8561 37.8096 63.8947 37.7397 63.9261 37.6647C63.9681 37.5632 64.0139 37.4612 63.9965 37.3437C63.9791 37.2262 63.9057 37.1419 63.8361 37.057C63.7843 36.9942 63.7271 36.9385 63.6614 36.8945Z" fill="black"/>
<path d="M72.8798 28.4573C73.5457 27.9964 74.3252 27.676 75.1812 27.5492L78.1281 27.1128C81.1007 26.6726 83.8674 28.7264 84.3076 31.6982L85.3688 38.8635C85.8089 41.8354 83.7562 44.603 80.7836 45.0432L77.8367 45.4796C77.3189 45.5563 76.8075 45.5575 76.3132 45.4899C75.6715 45.7237 74.9633 45.9052 74.1826 46.0208L70.1226 46.6221C67.1498 47.0623 64.3831 45.0085 63.9429 42.0367L62.8817 34.8714C62.4416 31.8995 64.4944 29.1319 67.4671 28.6917L70.4138 28.2553C71.2698 28.1285 72.1087 28.2092 72.8798 28.4573Z" fill="black"/>
<path d="M91.2762 37.4504L91.3542 37.9771C91.7943 40.949 89.7416 43.7166 86.769 44.1568L83.8221 44.5932C80.8495 45.0335 78.0826 42.9796 77.6424 40.0078L77.5644 39.4811C76.0925 38.6971 74.9987 37.2484 74.7356 35.4718L74.3942 33.1664C73.9541 30.1946 76.0068 27.427 78.9794 26.9868L86.3006 25.9025C89.2733 25.4622 92.0401 27.5161 92.4802 30.4879L92.8216 32.7933C93.0848 34.5699 92.4577 36.2734 91.2762 37.4504Z" fill="black"/>
<path d="M92.5647 25.542C93.2306 25.0811 94.0102 24.7607 94.8661 24.634L97.813 24.1975C100.786 23.7573 103.552 25.8111 103.993 28.783L105.054 35.9482C105.494 38.9201 103.441 41.6877 100.469 42.1279L97.5216 42.5644C97.0038 42.641 96.4925 42.6422 95.9981 42.5747C95.3564 42.8084 94.6482 42.9899 93.8675 43.1055L89.8075 43.7068C86.8348 44.1471 84.068 42.0932 83.6279 39.1214L82.5667 31.9561C82.1266 28.9842 84.1793 26.2167 87.152 25.7764L90.0988 25.34C90.9547 25.2132 91.7937 25.2939 92.5647 25.542Z" fill="black"/>
<path d="M95.3902 26.4816C95.2994 23.7541 97.2682 21.3343 100.032 20.925L101.931 20.6437C102.175 20.6076 102.418 20.5882 102.659 20.5857C102.889 20.5184 103.128 20.4666 103.372 20.4304L105.297 20.1453C107.902 19.7594 110.349 21.2892 111.211 23.6728C112.421 24.4997 113.296 25.809 113.527 27.3708L114.588 34.5361C115.029 37.508 112.976 40.2756 110.003 40.7158L107.056 41.1522C106.632 41.2151 106.211 41.2256 105.801 41.1911C105.417 41.3454 105.012 41.455 104.594 41.5169L101.857 41.9223C98.8842 42.3625 96.1174 40.3087 95.6773 37.3368L94.6161 30.1716C94.4184 28.8366 94.7241 27.5429 95.3902 26.4816ZM103.41 23.5156C103.737 23.3864 104.079 23.2861 104.431 23.2216C104.066 22.9836 103.613 22.7361 102.991 22.8282C102.378 22.919 102.025 23.288 101.751 23.6143L102.148 23.5555C102.575 23.4923 102.998 23.4814 103.41 23.5156Z" fill="black"/>
<path d="M73.9968 50.8753C74.2412 52.0141 74.1226 53.24 73.5816 54.3699C72.535 56.5506 70.6341 58.3241 67.5352 59.2499C65.829 59.7597 64.2319 59.8458 62.7511 59.6021C60.9631 59.3092 59.4549 58.5821 58.1969 57.4832C56.9173 56.3672 56.0017 54.963 55.4888 53.246C54.9717 51.5154 54.969 49.8405 55.4172 48.2233C55.8589 46.6315 56.6877 45.234 57.9298 44.0464C59.0323 42.9924 60.3804 42.1964 62.0048 41.711C63.5349 41.2539 65.0238 41.1638 66.4685 41.3948C68.1588 41.6656 69.6462 42.3625 70.9319 43.4809C72.1652 44.5552 73.1166 45.9744 73.6665 47.8149C73.6853 47.8777 73.7744 48.2144 73.9167 48.8281C74.0767 49.5177 74.0974 50.2104 73.9968 50.8753ZM65.4868 51.8747C65.6953 51.6628 65.827 51.4097 65.9042 51.1301C65.9298 51.037 65.9502 50.9433 65.9639 50.8494L64.3132 51.3426L64.5106 51.9547C64.7822 52.0147 65.0903 51.9953 65.4338 51.8926C65.4518 51.8873 65.4697 51.8819 65.4868 51.8747ZM64.1254 49.8919L65.5402 49.4692C65.4825 49.4052 65.4204 49.3447 65.3545 49.2874C65.1635 49.1201 64.9501 48.9829 64.6977 48.9065L64.1254 49.8919Z" fill="black"/>
<path d="M70.747 39.3363C71.0452 39.181 71.3624 39.052 71.6963 38.9522L74.5505 38.0995C77.4299 37.2392 80.4616 38.8768 81.3217 41.7553L83.3953 48.6956C84.2553 51.5741 82.6189 54.6065 79.7395 55.4668L76.8853 56.3196C76.5514 56.4193 76.2149 56.4835 75.8809 56.5192C75.5821 56.6726 75.2655 56.8035 74.9316 56.9033L72.0773 57.7561C69.198 58.6164 66.1663 56.9787 65.3063 54.1002L63.2326 47.1599C62.3726 44.2814 64.009 41.249 66.8883 40.3888L69.7426 39.536C70.0765 39.4362 70.4124 39.37 70.747 39.3363Z" fill="black"/>
<path d="M84.699 54.1217C83.057 54.6123 81.481 54.6899 79.9758 54.4215C78.2562 54.1167 76.7848 53.4021 75.5425 52.3263C74.2632 51.2167 73.3375 49.809 72.8175 48.0686C72.2975 46.3281 72.2992 44.6433 72.7607 43.0157C73.2118 41.4211 74.0588 40.0139 75.3412 38.8164C76.4485 37.7802 77.8024 36.991 79.435 36.5032C81.0804 36.0116 82.6499 35.9295 84.1394 36.1877C85.8808 36.486 87.3662 37.2071 88.617 38.3039C89.8787 39.4102 90.7953 40.812 91.3124 42.5427C91.8295 44.2733 91.8321 45.9482 91.3841 47.5654C90.9432 49.157 90.105 50.5701 88.8254 51.7774C87.7174 52.8245 86.3541 53.6272 84.699 54.1217ZM82.4742 46.6752C82.8041 46.5766 83.0389 46.3761 83.1782 46.0716C83.3176 45.7671 83.3231 45.3999 83.1941 44.9683C83.0651 44.5366 82.8597 44.2346 82.5773 44.0603C82.2955 43.8881 81.9892 43.8492 81.6593 43.9478C81.3295 44.0463 81.0947 44.2468 80.9536 44.5455C80.8131 44.8461 80.807 45.2112 80.936 45.6429C81.065 46.0746 81.2709 46.3786 81.5545 46.5567C81.838 46.7349 82.1444 46.7737 82.4742 46.6752Z" fill="black"/>
<path d="M97.2854 43.9876L97.4384 44.4998C98.2984 47.3783 96.6619 50.4107 93.7826 51.271L90.9284 52.1238C88.049 52.9841 85.0173 51.3464 84.1572 48.4679L84.0042 47.9558C82.4354 47.39 81.1464 46.1144 80.6322 44.3936L79.9651 42.1606C79.105 39.2821 80.7414 36.2497 83.6208 35.3894L90.7121 33.2707C93.5914 32.4104 96.6233 34.048 97.4833 36.9265L98.1505 39.1595C98.6646 40.8803 98.2867 42.654 97.2854 43.9876Z" fill="black"/>
<path d="M71.0085 40.7008C72.9341 40.7008 74.4951 39.5142 74.4951 38.0504C74.4951 36.5866 72.9341 35.4 71.0085 35.4C69.0829 35.4 67.5219 36.5866 67.5219 38.0504C67.5219 39.5142 69.0829 40.7008 71.0085 40.7008Z" fill="#686958"/>
<path d="M91.5147 37.2424C93.4197 37.2424 94.9639 36.435 94.9639 35.439C94.9639 34.4431 93.4197 33.6357 91.5147 33.6357C89.6098 33.6357 88.0656 34.4431 88.0656 35.439C88.0656 36.435 89.6098 37.2424 91.5147 37.2424Z" fill="#686958"/>
<path d="M82.0222 47.4917C83.0475 47.4917 83.8786 46.5193 83.8786 45.3198C83.8786 44.1204 83.0475 43.148 82.0222 43.148C80.997 43.148 80.1659 44.1204 80.1659 45.3198C80.1659 46.5193 80.997 47.4917 82.0222 47.4917Z" fill="#686958"/>
<path d="M67.9064 36.7647L69.5257 37.8291C70.5222 38.4848 70.8456 39.797 70.2679 40.8411C69.7178 41.8335 68.9555 42.6461 67.976 43.2735C67.0701 43.8549 66.0034 44.2509 64.7657 44.4342C63.4089 44.6352 62.1454 44.518 60.9734 44.1119C59.7288 43.6793 58.7011 42.964 57.8849 41.9773C57.0772 41.0018 56.5593 39.8364 56.3577 38.475C56.1558 37.1116 56.3139 35.8481 56.8039 34.6784C57.2991 33.4974 58.0757 32.5171 59.1415 31.7423C60.1455 31.014 61.3208 30.5356 62.6776 30.3346C63.9153 30.1513 65.0509 30.2212 66.0864 30.515C67.2058 30.8316 68.1709 31.3884 68.985 32.1788C69.8405 33.0106 69.9114 34.3602 69.1476 35.2766L67.9064 36.7647Z" fill="#686958"/>
<path d="M73.458 33.2471C73.5459 33.2423 73.6327 33.2398 73.7182 33.2396C73.5497 32.0038 74.407 30.8603 75.6442 30.6771L78.5911 30.2406C79.8371 30.0561 80.9967 30.9154 81.1812 32.1612L82.2424 39.3265C82.4269 40.5724 81.5661 41.7308 80.3201 41.9154L77.3733 42.3518C76.9031 42.4214 76.445 42.3423 76.0474 42.1507C75.4069 42.5002 74.6354 42.7573 73.7192 42.893L69.6592 43.4942C68.413 43.6788 67.2534 42.8195 67.0689 41.5737L66.0078 34.4084C65.8232 33.1625 66.684 32.0041 67.9301 31.8195L70.8769 31.3831C72.1038 31.2014 73.247 32.032 73.458 33.2471ZM71.8651 38.0561L71.9378 38.5464L73.051 38.3815C73.0935 38.3752 73.1352 38.369 73.176 38.363L73.346 38.1328C73.3482 38.0746 73.3442 38.011 73.334 37.9421C73.3286 37.9056 73.3223 37.8735 73.3145 37.8415L71.8651 38.0561Z" fill="#686958"/>
<path d="M87.8419 35.8349L88.2277 38.4401C88.4122 39.686 87.5515 40.8444 86.3055 41.029L83.3586 41.4654C82.1124 41.6499 80.9528 40.7907 80.7683 39.5448L80.3825 36.9396C79.163 37.083 78.0427 36.2324 77.8615 35.0088L77.5201 32.7035C77.3356 31.4576 78.1962 30.2991 79.4423 30.1146L86.7635 29.0303C88.0097 28.8458 89.1692 29.705 89.3538 30.9509L89.6952 33.2563C89.8764 34.4799 89.0506 35.6186 87.8419 35.8349Z" fill="#686958"/>
<path d="M93.1428 30.3318C93.2307 30.327 93.3175 30.3245 93.4031 30.3243C93.2346 29.0885 94.0918 27.945 95.329 27.7618L98.2759 27.3254C99.5219 27.1408 100.682 28.0001 100.866 29.246L101.927 36.4112C102.112 37.6571 101.251 38.8155 100.005 39.0001L97.0581 39.4365C96.5879 39.5061 96.1299 39.427 95.7322 39.2354C95.0917 39.5849 94.3203 39.842 93.404 39.9777L89.344 40.579C88.0978 40.7635 86.9383 39.9043 86.7537 38.6584L85.6926 31.4931C85.5081 30.2473 86.3688 29.0888 87.615 28.9042L90.5617 28.4678C91.7886 28.2861 92.9318 29.1168 93.1428 30.3318ZM91.55 35.1409L91.6226 35.6311L92.7358 35.4662C92.7783 35.4599 92.82 35.4537 92.8609 35.4477L93.0309 35.2176C93.033 35.1593 93.029 35.0957 93.0188 35.0268C93.0134 34.9904 93.0071 34.9582 92.9993 34.9262L91.55 35.1409Z" fill="#686958"/>
<path d="M98.7511 27.4641C98.676 27.2081 98.616 26.9355 98.5725 26.6417C98.388 25.3959 99.2484 24.2354 100.495 24.0508L102.394 23.7696C102.646 23.7323 102.894 23.7389 103.131 23.7804C103.346 23.6719 103.582 23.5935 103.834 23.5562L105.76 23.2711C107.006 23.0865 108.165 23.9478 108.35 25.1937C108.386 25.4388 108.408 25.6758 108.415 25.9025C109.412 26.0218 110.247 26.7926 110.401 27.8339L111.462 34.9991C111.646 36.245 110.786 37.4034 109.54 37.588L106.593 38.0244C106.138 38.0917 105.696 38.0206 105.307 37.8421C104.98 38.1307 104.573 38.3235 104.131 38.3891L101.393 38.7945C100.147 38.979 98.9876 38.1197 98.8031 36.8739L97.7419 29.7086C97.6072 28.799 98.0293 27.9374 98.7511 27.4641Z" fill="#686958"/>
<path d="M70.7046 50.9718C71.0199 51.5872 71.0518 52.3343 70.7317 53.0006C70.0295 54.465 68.7101 55.6009 66.6303 56.2223C65.4289 56.5813 64.3054 56.6562 63.2627 56.4847C62.091 56.2919 61.0995 55.8229 60.2753 55.1031C59.442 54.3753 58.8507 53.4598 58.5165 52.3413C58.1794 51.2131 58.1704 50.1214 58.4627 49.068C58.7519 48.0241 59.2979 47.1086 60.1121 46.331C60.868 45.6093 61.796 45.0713 62.9091 44.7387C63.9583 44.4252 64.9787 44.3576 65.9695 44.5168C67.0625 44.6904 68.0247 45.1403 68.8567 45.8642C69.6664 46.5691 70.2771 47.5109 70.6382 48.7196C70.6535 48.7706 70.7221 49.0429 70.8375 49.5407C70.953 50.0384 70.896 50.5363 70.7046 50.9718Z" fill="#686958"/>
<path d="M71.6929 42.5033C71.9428 42.2683 72.2494 42.0848 72.6005 41.9799L75.4547 41.1271C76.6617 40.7665 77.9327 41.4533 78.2933 42.66L80.3669 49.6003C80.7275 50.807 80.041 52.0765 78.834 52.4372L75.9797 53.2899C75.6286 53.3949 75.2722 53.4116 74.9343 53.3522C74.6843 53.5872 74.3772 53.7687 74.0261 53.8737L71.1717 54.7265C69.9649 55.0871 68.6945 54.4022 68.3339 53.1955L66.2603 46.2552C65.8997 45.0485 66.5856 43.777 67.7925 43.4164L70.6469 42.5636C70.998 42.4587 71.3549 42.444 71.6929 42.5033Z" fill="#686958"/>
<path d="M83.7942 51.0941C82.6589 51.4333 81.5698 51.4958 80.5292 51.3109C79.3988 51.11 78.4289 50.6453 77.6122 49.9382C76.7799 49.2165 76.1835 48.2961 75.8453 47.1639C75.507 46.0317 75.5007 44.935 75.8012 43.877C76.0969 42.8311 76.6572 41.9113 77.4979 41.1258C78.2657 40.4091 79.208 39.8689 80.3393 39.5309C81.481 39.1898 82.5694 39.1233 83.6027 39.3018C84.7418 39.498 85.7156 39.9637 86.5336 40.6811C87.3559 41.4014 87.947 42.3192 88.2842 43.4474C88.6213 44.5757 88.6305 45.6673 88.3381 46.7207C88.0492 47.7645 87.4947 48.689 86.6557 49.4804C85.8888 50.2054 84.9399 50.7518 83.7942 51.0941ZM81.8214 44.4913C81.482 44.5928 81.248 44.808 81.1047 45.1222C81.04 45.2613 80.9491 45.4231 81.0084 45.6213C81.0711 45.8312 81.2443 45.9184 81.3819 46.0034C81.6688 46.1806 81.9772 46.2338 82.3121 46.1337C82.6471 46.0336 82.8758 45.8199 83.0184 45.5144C83.0869 45.3679 83.1838 45.2 83.121 44.99C83.0618 44.7919 82.8971 44.7064 82.7667 44.6257C82.4747 44.4415 82.161 44.3899 81.8214 44.4913Z" fill="#686958"/>
<path d="M93.6562 42.8811L94.4101 45.4045C94.7707 46.6112 94.0842 47.8807 92.8772 48.2414L90.023 49.0941C88.8159 49.4548 87.5455 48.7699 87.185 47.5632L86.4311 45.0398C85.2445 45.3558 84.0141 44.674 83.66 43.4889L82.9928 41.2559C82.6323 40.0491 83.3182 38.7777 84.5252 38.417L91.6165 36.2983C92.8235 35.9377 94.0945 36.6245 94.455 37.8312L95.1222 40.0642C95.4763 41.2494 94.8216 42.4944 93.6562 42.8811Z" fill="#686958"/>
<path d="M64.4317 42.1775C63.4625 42.3211 62.5594 42.2478 61.7222 41.9577C60.8849 41.6656 60.1919 41.1886 59.6429 40.5246C59.094 39.8606 58.7511 39.0667 58.614 38.1409C58.4769 37.2151 58.5749 36.356 58.9079 35.5614C59.2409 34.7668 59.7658 34.1094 60.4826 33.5871C61.1997 33.0669 62.0428 32.735 63.012 32.5914C63.9026 32.4595 64.7203 32.4978 65.4653 32.7084C66.2106 32.921 66.8541 33.2894 67.396 33.8157L65.7026 35.8469C65.0289 35.2138 64.3077 34.9542 63.5394 35.068C62.8933 35.1637 62.4046 35.4493 62.0732 35.9228C61.7415 36.3942 61.6276 36.9804 61.7311 37.6793C61.8346 38.3782 62.1132 38.9042 62.5676 39.2613C63.0221 39.6184 63.5723 39.7481 64.2184 39.6524C64.9867 39.5386 65.6019 39.0831 66.0632 38.2819L68.2726 39.7351C67.9065 40.3959 67.3975 40.9351 66.7455 41.3525C66.0937 41.772 65.3223 42.0456 64.4317 42.1775Z" fill="white"/>
<path d="M73.011 35.5802C73.9627 35.4392 74.7072 35.5401 75.2446 35.8849C75.7818 36.2298 76.108 36.7901 76.2232 37.568C76.3432 38.3784 76.158 39.0558 75.6671 39.5964C75.1763 40.139 74.4156 40.4856 73.3853 40.6382L69.3253 41.2395L68.2642 34.0742L71.2109 33.6378L71.531 35.7994L73.011 35.5802ZM75.9783 32.9318L78.9251 32.4953L79.9863 39.6606L77.0394 40.097L75.9783 32.9318ZM72.7893 38.6914C73.2171 38.6281 73.3986 38.3776 73.3341 37.9421C73.272 37.5227 73.0269 37.3437 72.5991 37.4071L71.7869 37.5274L71.9772 38.8117L72.7893 38.6914Z" fill="white"/>
<path d="M87.4391 33.5904L85.252 33.9143L85.9718 38.7742L83.0249 39.2106L82.3051 34.3507L80.1179 34.6746L79.7765 32.3693L87.0977 31.285L87.4391 33.5904Z" fill="white"/>
<path d="M92.6959 32.6649C93.6475 32.5239 94.392 32.6248 94.9294 32.9696C95.4666 33.3145 95.7928 33.8748 95.908 34.6528C96.028 35.4631 95.8428 36.1405 95.3519 36.6811C94.8611 37.2237 94.1004 37.5703 93.0702 37.7229L89.0101 38.3242L87.949 31.1589L90.8957 30.7225L91.2158 32.8841L92.6959 32.6649ZM95.6631 30.0165L98.61 29.5801L99.6711 36.7453L96.7242 37.1818L95.6631 30.0165ZM92.4741 35.7762C92.9019 35.7128 93.0834 35.4623 93.0189 35.0268C92.9568 34.6075 92.7117 34.4285 92.2839 34.4918L91.4718 34.6121L91.662 35.8964L92.4741 35.7762Z" fill="white"/>
<path d="M99.9983 29.3745L102.945 28.938L103.424 32.1732L105.421 28.5714L108.145 28.168L109.206 35.3333L106.259 35.7697L105.778 32.5203L103.797 36.1343L101.059 36.5397L99.9983 29.3745ZM103.788 28.2108C102.88 28.3453 102.189 28.2592 101.715 27.9506C101.24 27.6399 100.945 27.0936 100.829 26.3076L102.728 26.0263C102.771 26.314 102.853 26.5233 102.975 26.6523C103.096 26.7812 103.293 26.8267 103.563 26.7866C104.052 26.7142 104.254 26.3883 104.169 25.8129L106.094 25.5278C106.21 26.3138 106.084 26.9225 105.716 27.358C105.347 27.7914 104.704 28.0751 103.788 28.2108Z" fill="white"/>
<path d="M68.4531 49.3726C68.466 49.4157 68.5201 49.6432 68.6161 50.057L63.7955 51.4973C63.975 51.7279 64.2045 51.8795 64.4829 51.9481C64.7614 52.0166 65.0785 51.9988 65.4337 51.8927C65.7381 51.8017 65.9822 51.6861 66.1666 51.5476C66.3515 51.4112 66.5384 51.2121 66.728 50.9524L68.6758 52.0141C68.2219 52.9619 67.3222 53.6346 65.9774 54.0364C65.1403 54.2866 64.3587 54.3534 63.6318 54.2329C62.9054 54.1143 62.2866 53.8311 61.7757 53.3853C61.2648 52.9395 60.9068 52.3732 60.7022 51.6884C60.4952 50.9957 60.4811 50.3246 60.6606 49.6767C60.8402 49.0289 61.1824 48.4629 61.6878 47.9806C62.193 47.4983 62.8182 47.1469 63.5624 46.9246C64.2644 46.7149 64.9466 46.6628 65.6092 46.7683C66.2717 46.8739 66.8552 47.1463 67.3595 47.5855C67.8638 48.0247 68.228 48.6191 68.4531 49.3726ZM64.1711 48.8694C63.8751 48.9578 63.6539 49.1116 63.5075 49.3306C63.361 49.5496 63.3022 49.8151 63.3315 50.1291L65.5642 49.462C65.4194 49.1932 65.2246 49.0035 64.9807 48.8968C64.737 48.7901 64.4671 48.7809 64.1711 48.8694Z" fill="white"/>
<path d="M68.4458 45.6023L71.3002 44.7495L72.0283 47.1865L73.982 46.6028L73.2538 44.1658L76.108 43.313L78.1816 50.2533L75.3274 51.106L74.6526 48.8475L72.699 49.4313L73.3738 51.6897L70.5194 52.5426L68.4458 45.6023Z" fill="white"/>
<path d="M83.1413 48.9083C82.3718 49.1382 81.6346 49.1917 80.9289 49.0649C80.2236 48.94 79.6159 48.6556 79.1062 48.2138C78.5965 47.7719 78.2384 47.2056 78.0309 46.511C77.8239 45.8183 77.8121 45.1465 77.9958 44.4974C78.1796 43.8483 78.5322 43.2791 79.0546 42.7918C79.5768 42.3044 80.2231 41.9468 80.9926 41.7168C81.7707 41.4844 82.5114 41.4277 83.2155 41.5486C83.9195 41.6695 84.5245 41.9526 85.03 42.3957C85.5355 42.8389 85.8921 43.4077 86.099 44.1004C86.3066 44.795 86.3199 45.4643 86.1404 46.1121C85.9609 46.7599 85.6109 47.3304 85.0898 47.8217C84.5692 48.3149 83.9194 48.6758 83.1413 48.9083ZM82.4741 46.6753C82.804 46.5767 83.0388 46.3762 83.1782 46.0717C83.3175 45.7672 83.323 45.4 83.194 44.9683C83.065 44.5367 82.8596 44.2347 82.5773 44.0604C82.2955 43.8881 81.9891 43.8493 81.6592 43.9479C81.3294 44.0464 81.0946 44.2469 80.9535 44.5456C80.813 44.8462 80.8069 45.2113 80.9359 45.643C81.0649 46.0747 81.2709 46.3786 81.5544 46.5568C81.838 46.735 82.1443 46.7738 82.4741 46.6753Z" fill="white"/>
<path d="M92.9369 40.7172L90.8184 41.3501L92.2248 46.0574L89.3706 46.9102L87.9642 42.2029L85.8456 42.8359L85.1785 40.6029L92.2698 38.4842L92.9369 40.7172Z" fill="white"/>
<path fill-rule="evenodd" clip-rule="evenodd" d="M28.453 69.7762C28.453 69.7762 20.0131 68.1939 17.6431 69.0412C15.5268 69.797 14.2385 74.8601 14.2385 74.8601C14.2385 74.8601 22.3775 76.1526 32.2652 73.0393C42.153 69.926 31.1239 70.3905 28.453 69.7762Z" fill="black"/>
<path fill-rule="evenodd" clip-rule="evenodd" d="M75.8854 55.3708C75.2222 57.3163 79.1655 78.6623 60.106 56.041C46.6491 40.0707 47.5816 52.7527 51.0352 61.2852C52.1495 64.0366 49.2837 62.0567 49.2918 62.2071C49.2918 62.2071 72.1079 94.4978 89.4309 76.5661C106.535 58.8583 78.3814 38.2139 75.8854 55.3708Z" fill="black"/>
<path fill-rule="evenodd" clip-rule="evenodd" d="M76.6879 58.7592C77.6322 59.4473 79.968 82.0508 60.9085 59.4294C47.4516 43.4592 48.3841 56.1411 51.8377 64.6736C52.952 67.425 50.0861 65.4451 50.0943 65.5955C50.0943 65.5955 72.9104 97.8863 90.2334 79.9545C107.338 62.2468 79.1839 41.6023 76.6879 58.7592Z" fill="black"/>
<path fill-rule="evenodd" clip-rule="evenodd" d="M77.7368 58.2508C77.3584 59.3141 81.0548 79.9219 62.3341 59.8931C49.1165 45.7532 50.0897 57.6076 53.5039 65.4019C54.6055 67.9153 51.7976 66.2391 51.8063 66.3799C51.8063 66.3799 74.2426 95.2517 91.0669 77.2937C107.679 59.5602 80.0887 41.9723 77.7368 58.2508Z" fill="#ECECEC"/>
<path fill-rule="evenodd" clip-rule="evenodd" d="M88.3 52.8514C92.1317 56.4569 94.629 65.8661 88.2919 71.1134C73.1992 83.6091 51.3208 54.3523 51.5867 57.9326C51.5729 57.8318 54.173 59.1386 53.0719 57.316C52.5297 56.4172 52.0386 55.4491 51.6553 54.4944C50.7236 56.6989 51.8153 61.5459 53.5038 65.4019C54.6054 67.9152 51.7976 66.2391 51.8063 66.3799C51.8063 66.3799 74.2425 95.2516 91.0668 77.2937C100.998 66.6902 95.1294 56.1412 88.3 52.8514Z" fill="#AEAC9C"/>
<path fill-rule="evenodd" clip-rule="evenodd" d="M53.1132 53.3183C50.1106 53.633 51.2977 60.3648 53.5039 65.4019C54.6055 67.9152 51.7976 66.2391 51.8063 66.3798C51.8063 66.3798 74.2426 95.2516 91.0668 77.2937C92.6499 75.6025 93.8311 73.9152 94.6688 72.258C77.2148 89.7913 53.4797 60.7662 53.4797 60.7662C53.4688 60.625 56.4338 62.3367 55.2509 59.804C54.2858 57.7386 53.495 55.3936 53.1132 53.3183Z" fill="#686958"/>
<path d="M91.9595 72.998C95.3778 69.7343 96.4202 65.2781 94.2878 63.0447C92.1554 60.8114 87.6557 61.6467 84.2375 64.9104C80.8193 68.1741 79.7768 72.6304 81.9092 74.8637C84.0416 77.097 88.5413 76.2617 91.9595 72.998Z" fill="white" fill-opacity="0.47"/>
<path fill-rule="evenodd" clip-rule="evenodd" d="M63.128 60.8354C63.6974 60.8915 64.2219 61.0443 64.6757 61.3004C66.8995 62.5587 66.5837 65.8461 63.9705 68.6379C61.3575 71.4296 57.4306 72.6748 55.2068 71.4165C54.928 71.2591 54.6892 71.0697 54.49 70.8529C56.7825 71.2372 59.8731 69.8392 61.9198 67.3449C63.8551 64.9859 64.2677 62.3649 63.128 60.8354Z" fill="black"/>
<path fill-rule="evenodd" clip-rule="evenodd" d="M76.2202 65.5613C76.8114 67.2872 76.7216 70.5695 76.0288 72.4045C73.9007 78.0411 69.299 81.4719 65.7582 80.0604C65.315 79.8829 64.909 79.6392 64.5425 79.3358C67.7574 79.2309 71.1806 75.8168 72.701 70.8757C73.0978 69.586 73.3322 68.3002 73.4152 67.0676C74.7341 67.2719 75.1878 65.7156 76.2202 65.5613Z" fill="black"/>
<path fill-rule="evenodd" clip-rule="evenodd" d="M67.809 64.5373C68.3679 64.5956 68.8805 64.7592 69.3208 65.0355C71.4788 66.393 71.0886 69.9702 68.4495 73.0198C65.8106 76.0694 61.9161 77.4433 59.758 76.0857C59.4875 75.9159 59.2571 75.7111 59.0663 75.4763C61.3131 75.8828 64.3883 74.3469 66.4627 71.6237C68.4243 69.0482 68.8936 66.1954 67.809 64.5373Z" fill="black"/>
<path fill-rule="evenodd" clip-rule="evenodd" d="M27.926 37.4915L27.3246 39.7408L26.9902 42.6323C26.9902 42.6323 27.4698 45.471 27.6084 45.844C27.747 46.2171 26.7639 46.5873 26.1403 47.4513C25.5166 48.3153 21.0221 54.0704 21.8485 57.7232C22.6748 61.3746 22.7859 62.5422 22.7859 62.5422L26.3678 68.278L27.2409 69.8991C27.2409 69.8991 19.2792 68.9741 18.018 70.5093C17.4836 71.1583 19.3962 73.1012 21.6196 73.2995C24.6418 73.5685 32.4203 72.441 32.4203 72.441C32.4203 72.441 32.5219 72.7392 32.7885 72.7378C33.1367 72.7337 33.8473 73.1136 33.9771 73.0221C34.027 72.9874 33.9749 72.9098 33.9776 72.8654C34.0113 72.344 34.3992 73.0235 34.3992 73.0235C34.3992 73.0235 39.6117 73.348 40.4648 73.832C42.3607 74.9067 54.6084 72.6213 55.9292 70.3317C56.1076 70.0225 60.3557 62.7766 60.2053 61.9529C60.0793 61.2636 60.008 59.0864 59.8882 58.4845C59.6366 57.217 58.8513 54.2742 58.8513 54.2742C58.8513 54.2742 54.85 47.0062 54.173 45.9203C53.496 44.8345 51.2099 39.4274 52.1805 39.8379C53.1512 40.247 54.0927 40.8461 54.0927 40.8461L55.3057 40.559L56.605 42.5089L56.9904 42.4922L56.7728 40.5743L59.0546 42.3702C59.0546 42.3702 58.4953 36.5485 58.1489 35.1686C57.8025 33.7902 55.4989 25.9022 54.174 26.0325C52.8492 26.1629 47.8892 26.9312 47.8892 26.9312C47.8892 26.9312 41.3786 27.5289 35.3752 28.3443C32.3203 28.7603 28.315 27.6648 27.5882 29.7963C27.4501 30.2012 27.3309 30.5867 27.2292 30.9514C25.7427 36.2864 27.926 37.4915 27.926 37.4915Z" fill="#ECECEC"/>
<path fill-rule="evenodd" clip-rule="evenodd" d="M35.8202 52.8695C35.8202 52.8695 42.4507 47.3446 43.8491 47.1227C45.2474 46.8994 51.2395 46.0881 51.1065 44.46C50.9736 42.832 48.5278 39.6771 47.7839 40.8738C47.0401 42.072 45.5636 44.9218 42.0153 46.6234C38.6042 48.2598 37.0736 50.3497 35.8202 52.8695Z" fill="#AFAC9D"/>
<path fill-rule="evenodd" clip-rule="evenodd" d="M55.5617 63.2509C56.2583 62.4105 54.896 49.9697 47.7306 41.846C46.2274 40.143 49.3341 39.8837 48.8586 38.1335C48.4378 36.5845 50.1011 36.3696 50.1011 36.3696L52.0741 39.2776C52.0741 39.2776 52.1627 41.753 53.15 43.3811C54.1372 45.0092 56.1146 49.207 57.4843 51.7295C58.8539 54.2521 59.2159 64.8152 55.5617 63.2509Z" fill="#AFAC9D"/>
<path fill-rule="evenodd" clip-rule="evenodd" d="M35.7924 48.5634C35.7924 48.5634 36.3222 46.737 36.9712 45.4001C37.2582 44.8066 37.9558 43.9606 37.9558 43.9606L36.4997 44.7886C36.4997 44.7886 36.655 41.4118 39.5686 39.48C42.4808 37.5496 44.1796 35.5554 44.1796 35.5554L49.0819 39.0168L54.3641 41.0678L55.4001 41.0415L55.9048 41.6655L57.0337 42.1038L56.6842 40.4896L58.5245 42.682L58.8254 42.7999C58.8254 42.7999 56.1988 29.8017 48.4357 27.605C40.6725 25.4083 36.985 25.59 35.5511 27.311C34.1158 29.032 28.5298 42.3243 30.3105 45.9202C32.0925 49.5175 31.4615 49.7269 31.4615 49.7269C31.4615 49.7269 33.6152 47.5801 34.0367 48.4649C34.4569 49.3497 34.9229 50.5589 34.9229 50.5589L35.7924 48.5634Z" fill="#CECEC3"/>
<path fill-rule="evenodd" clip-rule="evenodd" d="M36.466 26.5786C36.466 26.5786 32.7177 31.499 31.6941 39.3249C30.6692 47.1509 31.7978 47.9571 31.7978 47.9571C31.7978 47.9571 32.2478 45.9941 32.5515 45.5767C32.8539 45.1593 32.8989 46.2165 32.9277 46.4197C32.9577 46.6243 33.3139 45.2807 33.8488 45.1375C34.3825 44.9942 33.7201 45.8059 34.1038 47.1836C34.4863 48.5614 34.5013 46.6393 34.5013 46.6393L35.0362 48.0949C35.0362 48.0949 36.0823 47.7634 36.0798 46.6366C36.0786 45.5112 36.2561 47.1673 36.2561 47.1673L37.171 46.4116C37.171 46.4116 37.3984 50.197 37.256 50.5339C37.1147 50.8722 35.7261 53.0139 35.7261 53.0139L35.1937 52.6933C35.1937 52.6933 34.1438 51.6552 33.6151 49.8123C33.0852 47.9694 33.2639 49.0811 33.2639 49.0811C33.2639 49.0811 32.6627 50.4862 32.6065 51.2146C32.5502 51.9417 32.8039 52.4969 32.8039 52.4969C32.8039 52.4969 28.7557 49.7482 27.7033 46.1333C26.6509 42.5183 26.6871 39.0016 27.7583 37.3865C28.8294 35.77 30.8354 28.2865 31.0292 27.629C31.2241 26.9715 32.9139 25.4095 32.9139 25.4095L36.466 26.5786Z" fill="#AEAB9D"/>
<path fill-rule="evenodd" clip-rule="evenodd" d="M30.8125 50.8323C29.6292 49.6841 28.255 48.0269 27.7035 46.1325C26.6511 42.5186 26.6875 39.0017 27.7583 37.3861C28.8291 35.7705 30.8354 28.2861 31.0294 27.6288C31.2235 26.9714 32.9143 25.4099 32.9143 25.4099L36.4663 26.579C36.4663 26.579 36.2678 26.8397 35.9498 27.3361C31.9836 31.7974 29.6217 37.4 29.6217 43.481C29.6217 46.0313 30.0374 48.4984 30.8125 50.8323Z" fill="#686958"/>
<path fill-rule="evenodd" clip-rule="evenodd" d="M35.8201 52.8694C35.8201 52.8694 26.7753 66.2324 38.4063 71.0917C46.4889 74.4699 42.2094 76.2505 34.9556 73.305C31.771 72.0111 27.0389 69.8616 24.1715 66.4432C20.5774 62.1581 20.9443 57.6635 21.3777 55.3615C22.0777 51.6435 24.2244 50.5882 24.064 50.0473C23.8041 49.1709 27.8489 46.3377 27.8489 46.3377C27.8489 46.3377 29.0037 50.5424 32.7669 52.3314C32.8293 52.3605 32.687 51.7531 32.7374 51.3731C32.8562 50.4772 32.9416 49.1154 33.1098 49.3401C33.7596 50.2082 35.7968 53.5462 35.8201 52.8694Z" fill="#CECEC3"/>
<path fill-rule="evenodd" clip-rule="evenodd" d="M29.6726 48.0954C29.6726 48.0954 18.8933 61.8258 29.7847 68.6179C37.3531 73.3395 33.9508 73.847 27.147 69.7038C24.1598 67.8862 25.0337 68.2359 22.648 64.0971C19.6576 58.911 23.0715 52.5315 23.0715 52.5315C23.0715 52.5315 23.731 48.6222 25.7027 48.0829C26.1317 47.9649 26.3259 47.8511 26.7141 47.1304C28.1788 44.4115 30.3533 47.2837 29.6726 48.0954Z" fill="#686958"/>
<path d="M44.9166 71.7217C45.3549 71.7217 45.7102 71.3105 45.7102 70.8033C45.7102 70.296 45.3549 69.8848 44.9166 69.8848C44.4782 69.8848 44.1229 70.296 44.1229 70.8033C44.1229 71.3105 44.4782 71.7217 44.9166 71.7217Z" fill="#ECECEC"/>
<path fill-rule="evenodd" clip-rule="evenodd" d="M33.3388 49.6605C33.3381 49.6674 33.3373 49.6715 33.3362 49.6743C33.3013 49.7312 32.7333 50.9765 32.8052 52.0388C32.877 53.1011 32.3223 51.3246 32.6049 49.8865C32.8874 48.4498 33.6611 48.0782 33.9158 47.8868C33.9158 47.8868 33.8157 49.9406 34.3388 50.9155C34.862 51.8918 35.8202 52.8695 35.8202 52.8695C35.8202 52.8695 33.6666 51.9556 33.4033 49.666C33.3742 49.666 33.3488 49.6632 33.3388 49.6605Z" fill="black"/>
<path fill-rule="evenodd" clip-rule="evenodd" d="M27.5085 45.4155C27.6161 45.7123 27.7396 46.0382 27.875 46.3724C24.6117 49.2805 22.5859 53.3326 22.5859 57.8119C22.5859 66.5139 30.233 73.6045 39.7452 73.8264C39.5849 73.8306 39.4234 73.832 39.2616 73.832C29.0176 73.832 20.7007 66.654 20.7007 57.8119C20.7007 52.8181 23.3537 48.3555 27.5085 45.4155Z" fill="black"/>
<path fill-rule="evenodd" clip-rule="evenodd" d="M45.3887 70.25C46.9417 70.476 48.0757 70.6882 48.0757 70.6882C48.8218 71.107 52.2928 71.1722 53.7883 71.695C55.0932 70.7423 55.9866 69.5968 56.1743 68.3279C56.8503 63.7598 45.0961 69.7035 45.0961 69.7035C45.0961 69.7035 45.3881 69.9546 45.3887 70.25Z" fill="#ECECEC"/>
<path fill-rule="evenodd" clip-rule="evenodd" d="M45.3887 70.2499C45.3962 70.5051 45.1845 70.7936 44.3727 70.9766C43.8552 71.0931 43.0934 71.1666 41.989 71.161C34.602 71.1264 41.3996 75.2798 46.5431 74.481C49.2144 74.0664 51.9236 73.0762 53.7882 71.695C52.2927 71.1721 48.8218 71.107 48.0757 70.6881C48.0757 70.6881 46.9417 70.476 45.3887 70.2499Z" fill="#ECECEC"/>
<path fill-rule="evenodd" clip-rule="evenodd" d="M46.5015 46.7399C46.5015 46.7399 62.1653 62.0818 49.1248 70.028C48.142 70.6271 47.28 71.4121 46.2618 71.6658C37.2881 73.9027 39.3438 72.3176 37.3815 73.0138C34.3039 74.1052 36.1761 74.9691 35.8201 75.1258C35.3153 75.3491 36.1956 76.0661 39.8906 75.5571C47.5804 74.499 56.2783 71.9959 56.992 66.1021C58.2908 55.3781 51.415 40.1832 50.1689 41.8071C48.9229 43.4296 46.5015 46.7399 46.5015 46.7399Z" fill="#CECEC3"/>
<path fill-rule="evenodd" clip-rule="evenodd" d="M37.5482 73.0138C37.5482 73.0138 55.8911 75.9773 56.8669 64.3339C57.4238 57.6885 56.9347 52.9291 55.9361 49.3123C55.185 46.5929 55.1337 47.1614 56.3259 49.3026C58.0896 52.4714 59.7398 55.4946 60.2093 56.8037C61.3177 59.8934 59.4662 64.4462 58.0567 67.0575C56.6472 69.6675 54.5451 75.919 38.7356 74.8138C32.8204 74.4005 35.4676 74.0511 35.7261 73.7737C36.1584 73.3091 37.6152 73.0443 37.5482 73.0138Z" fill="#AFAC9D"/>
<path fill-rule="evenodd" clip-rule="evenodd" d="M51.0533 73.7737C51.5204 73.7044 52.6276 73.3729 53.4504 73.2051C58.2836 70.0793 61.1288 65.184 61.1288 59.4275C61.1288 55.7817 58.1503 51.6227 55.2513 46.9812C53.8842 44.7928 52.9649 40.8489 51.5921 39.8379C51.481 40.1555 53.3328 44.3643 54.2472 46.7232C55.5127 49.9877 59.1849 54.6154 59.1849 59.4275C59.1849 65.4128 55.953 70.6895 51.0533 73.7737Z" fill="black"/>
<path fill-rule="evenodd" clip-rule="evenodd" d="M64.8053 18.5741C64.8246 18.5933 64.8411 18.6015 64.8548 18.596C64.8684 18.5905 64.8795 18.5727 64.8877 18.5398C64.8877 18.5398 64.8584 18.5521 64.8053 18.5741Z" fill="black"/>
<path fill-rule="evenodd" clip-rule="evenodd" d="M64.8053 18.5741C64.8246 18.5933 64.8411 18.6015 64.8548 18.596C64.8684 18.5905 64.8795 18.5727 64.8877 18.5398C64.8877 18.5398 64.8584 18.5521 64.8053 18.5741Z" fill="black"/>
<path fill-rule="evenodd" clip-rule="evenodd" d="M64.8053 18.5741C64.8246 18.5933 64.8411 18.6015 64.8548 18.596C64.8684 18.5905 64.8795 18.5727 64.8877 18.5398C64.8877 18.5398 64.8584 18.5521 64.8053 18.5741Z" fill="black"/>
<path fill-rule="evenodd" clip-rule="evenodd" d="M30.1444 36.8342C30.1444 36.8342 35.2243 37.0602 35.5159 36.9811C35.6869 36.9354 41.1689 34.883 40.4644 34.2714C39.9675 33.8387 33.4345 34.7262 32.7383 34.9038C31.0547 35.3309 30.0081 34.9995 29.8645 35.4155C29.721 35.8315 30.1444 36.8342 30.1444 36.8342Z" fill="#686958"/>
<path fill-rule="evenodd" clip-rule="evenodd" d="M30.1376 37.2211C30.1376 37.2211 34.9755 37.7162 36.8503 36.7232C38.725 35.7289 42.3018 34.0565 42.3018 34.0565L40.3944 34.3324C40.3944 34.3324 36.5457 38.0421 29.7857 36.3835C29.3164 36.2698 28.9118 36.1768 28.5654 36.1033C27.3085 35.8399 28.706 36.4112 28.6648 36.536C28.6049 36.7177 27.605 36.5957 28.4874 36.9202C29.2445 37.1989 29.9961 37.3847 30.1376 37.2211Z" fill="black"/>
<path fill-rule="evenodd" clip-rule="evenodd" d="M37.3074 32.9303C37.3074 32.9303 31.9931 31.6009 31.2859 32.0199C30.5786 32.4408 30.2569 33.8153 29.964 34.6985C29.6711 35.5817 29.3653 35.3704 30.975 35.3307C32.5846 35.2927 40.5676 34.6371 40.6441 34.0754C40.7208 33.5136 38.3625 33.7232 37.3074 32.9303Z" fill="#ECECEC"/>
<path fill-rule="evenodd" clip-rule="evenodd" d="M30.5795 33.0067C30.9096 34.1688 42.5057 33.768 40.836 34.1452C40.5376 34.2118 40.1292 34.7124 39.3768 34.8899C36.2606 35.6249 30.0738 36.5762 29.4395 35.3808C28.7063 33.9968 30.5795 33.0067 30.5795 33.0067Z" fill="#AEAB9D"/>
<path fill-rule="evenodd" clip-rule="evenodd" d="M34.345 31.3217C34.1209 28.9711 41.6214 25.8883 39.0683 25.9881C35.4602 26.1296 34.3621 24.74 34.3621 24.74C34.3621 24.74 33.9015 24.3795 31.9182 27.5025C29.935 30.6255 33.013 30.6907 34.345 31.3217Z" fill="#AEAC9C"/>
<path fill-rule="evenodd" clip-rule="evenodd" d="M32.8025 29.9974C32.8025 29.9974 35.6738 26.4195 35.1348 26.0326C34.5956 25.6457 33.0151 24.6916 32.5243 26.0326C32.0335 27.3736 30.975 31.3217 30.975 31.3217C30.975 31.3217 31.7667 31.6476 32.8025 29.9974Z" fill="#686958"/>
<path fill-rule="evenodd" clip-rule="evenodd" d="M49.0504 27.7383C49.0504 27.7383 54.1378 30.5298 54.6045 32.7903C54.7519 33.5045 55.3063 32.2411 55.4367 32.0678C55.7186 31.6934 55.5196 31.3383 55.5196 31.3383L56.1848 29.5674C56.1848 29.5674 54.9199 25.7441 53.9133 26.2586C52.9066 26.7717 49.6067 26.8868 49.0504 27.7383Z" fill="#686958"/>
<path fill-rule="evenodd" clip-rule="evenodd" d="M45.5217 35.0619C45.5217 35.0619 53.7294 39.4399 55.4683 39.2777C57.207 39.1154 56.4429 36.5221 56.2853 35.6083C56.1278 34.6958 54.5467 32.7529 54.5467 32.7529L57.3729 32.0678L58.0546 35.1201C58.0546 35.1201 58.6889 40.1888 58.825 40.9515C58.9609 41.7128 58.825 42.3369 58.825 42.3369L56.7148 40.6242L57.0252 42.6018L55.435 40.9612L54.4124 41.0638C54.4124 41.0638 47.9408 39.2458 44.9828 35.6083C42.0248 31.9721 45.5217 35.0619 45.5217 35.0619Z" fill="#686958"/>
<path fill-rule="evenodd" clip-rule="evenodd" d="M60.8407 14.6919C61.1841 14.4367 63.0285 3.8348 59.9984 3.16776C56.9694 2.49933 54.6431 7.93966 54.5127 7.26014C54.4492 6.92732 59.2443 15.0608 60.8407 14.6919Z" fill="#111111"/>
<path fill-rule="evenodd" clip-rule="evenodd" d="M59.8086 13.1689C59.9465 14.8687 62.0993 6.28504 59.8741 3.70817C58.1266 1.68312 56.234 9.06188 56.129 8.44171C56.0777 8.13796 58.5218 13.5069 59.8086 13.1689Z" fill="#CECEC3" stroke="#111111" stroke-width="0.994666" stroke-miterlimit="1.5" stroke-linecap="round" stroke-linejoin="round"/>
<path fill-rule="evenodd" clip-rule="evenodd" d="M57.1138 9.35098L57.5256 8.69921L58.1227 7.99195L58.6625 7.89764L58.8891 8.60767L59.0318 9.92372L58.8459 11.6988C58.8459 11.6988 57.1086 10.1151 57.1138 9.35098Z" fill="#686958"/>
<path fill-rule="evenodd" clip-rule="evenodd" d="M59.5653 6.79535C59.5653 6.79535 57.4735 7.68718 57.0908 8.80558C56.7084 9.92533 57.5405 9.53061 57.5405 9.53061C57.5405 9.53061 57.9042 8.13508 58.3717 8.10039C58.8389 8.06433 58.6285 11.2296 58.9478 11.9499C59.2671 12.6703 59.3226 12.2022 59.3226 12.2022C59.3226 12.2022 59.4436 8.5226 59.222 7.99407C59.0002 7.46417 59.3556 6.93198 59.5653 6.79535Z" fill="#111111"/>
<path fill-rule="evenodd" clip-rule="evenodd" d="M19.9839 18.0475C25.5748 10.136 36.6307 3.38653 48.7845 3.99671C57.8468 4.45019 61.5642 18.465 62.2033 19.1292C61.7608 19.3123 59.6766 20.2359 58.9537 21.5755C58.143 23.0774 59.3262 21.0471 61.0713 21.6518C62.7984 22.2495 46.2877 36.7177 22.5563 19.9197L27.0523 16.7676L20.0485 18.0947L19.9839 18.0475ZM62.2033 19.1292C62.2423 19.1694 62.2699 19.1597 62.2867 19.0946C62.2867 19.0946 62.257 19.107 62.2033 19.1292ZM19.8175 18.0448L19.8419 17.9435L19.9839 18.0475L19.935 18.1169L19.7935 18.1432L19.8144 18.0572C19.8378 18.0642 19.8499 18.0684 19.8499 18.0684L19.8175 18.0448Z" fill="#CECEC3"/>
<mask id="mask0_46_2633" style="mask-type:luminance" maskUnits="userSpaceOnUse" x="19" y="3" width="44" height="26">
<path d="M19.9839 18.0475C25.5748 10.136 36.6307 3.38653 48.7845 3.99671C57.8468 4.45019 61.5642 18.465 62.2033 19.1292C61.7608 19.3123 59.6766 20.2359 58.9537 21.5755C58.143 23.0774 59.3262 21.0471 61.0713 21.6518C62.7984 22.2495 46.2877 36.7177 22.5563 19.9197L27.0523 16.7676L20.0485 18.0947L19.9839 18.0475ZM62.2033 19.1292C62.2423 19.1694 62.2699 19.1597 62.2867 19.0946C62.2867 19.0946 62.257 19.107 62.2033 19.1292ZM19.8175 18.0448L19.8419 17.9435L19.9839 18.0475L19.935 18.1169L19.7935 18.1432L19.8144 18.0572C19.8378 18.0642 19.8499 18.0684 19.8499 18.0684L19.8175 18.0448Z" fill="white"/>
</mask>
<g mask="url(#mask0_46_2633)">
<path fill-rule="evenodd" clip-rule="evenodd" d="M52.4884 14.5681C52.4884 14.5681 53.8217 15.819 54.4168 16.1657C55.012 16.5124 53.7682 17.8867 53.7682 17.8867L55.5481 18.0281L55.8896 18.5648C55.8896 18.5648 56.0902 20.2692 55.1217 21.0763C54.1533 21.8834 54.5479 21.484 54.5479 21.484L53.5795 21.8279L53.2283 22.6073C53.2283 22.6073 49.686 21.9541 48.9877 22.0914C41.4653 23.5572 50.2542 27.0879 50.6699 27.3389C57.6527 31.5686 54.8954 27.9644 58.1923 27.2863C61.4891 26.6067 63.3059 16.4624 62.5557 15.145C61.8069 13.8276 61.852 5.79259 54.245 4.49179L46.638 3.19238C46.638 3.19238 51.4305 6.93528 51.2813 9.90715C51.1322 12.8776 52.4884 14.5681 52.4884 14.5681Z" fill="#E1E1E1"/>
<path fill-rule="evenodd" clip-rule="evenodd" d="M55.1218 21.0432C55.8253 20.7007 58.2489 15.8408 59.445 16.4361C59.8699 16.2241 55.4443 11.6361 53.7025 12.699C52.7907 13.2561 52.1754 14.0165 51.7507 14.5657C50.0146 16.8104 48.2823 15.3138 47.4574 15.1034C45.9828 14.7273 47.7027 17.7628 47.9817 17.9072C48.308 18.076 53.302 17.6543 54.0789 17.0542C56.2078 17.9387 56.6044 19.4613 55.1218 21.0432Z" fill="#AEAC9C"/>
<path fill-rule="evenodd" clip-rule="evenodd" d="M60.9047 22.0808C63.1228 21.4523 63.4201 18.5404 64.7274 18.2644C64.8813 17.9358 62.949 15.9073 62.5346 15.5621C62.4069 15.4556 60.6281 15.7338 61.542 15.9858C61.716 16.0337 61.1926 16.2734 61.1042 16.6512C60.5849 18.8518 56.1749 25.7331 54.3396 26.5412C53.6145 26.8599 53.2579 28.0878 54.3395 28.0132C55.3459 27.9439 56.5059 26.5641 56.6549 26.5352C57.0154 26.4649 60.6683 23.0336 60.9047 22.0808Z" fill="#686958"/>
</g>
<path fill-rule="evenodd" clip-rule="evenodd" d="M28.9972 9.89326C29.3619 9.78786 28.8108 4.40578 31.0306 3.56817C33.9323 2.47123 35.4492 7.22926 35.5795 6.54835C35.643 6.21691 30.5937 10.2635 28.9972 9.89326Z" fill="#111111"/>
<path fill-rule="evenodd" clip-rule="evenodd" d="M30.0479 9.75591C30.3419 9.65972 29.3651 4.87302 31.1544 4.10857C33.4934 3.10744 34.7161 7.44989 34.8211 6.82846C34.8723 6.52596 31.3347 10.0938 30.0479 9.75591Z" fill="#D6D6D1" stroke="#111111" stroke-width="0.994666" stroke-miterlimit="1.5" stroke-linecap="round" stroke-linejoin="round"/>
<path fill-rule="evenodd" clip-rule="evenodd" d="M31.1791 8.49535L31.2843 7.64386C31.2843 7.64386 31.5635 6.39577 31.8923 6.52196C32.221 6.64816 32.6801 6.68421 32.6801 6.68421C32.6801 6.68421 33.3763 7.39008 33.2201 7.76312C33.0641 8.13478 31.4962 8.97378 31.1791 8.49535Z" fill="#686958"/>
<path fill-rule="evenodd" clip-rule="evenodd" d="M30.8152 5.51385C30.8152 5.51385 33.0014 6.13928 33.52 7.20155C34.0383 8.26521 33.1637 7.97677 33.1637 7.97677C33.1637 7.97677 32.6296 6.63715 32.1615 6.66072C31.6934 6.68291 31.6359 7.46089 31.4085 8.21391C31.181 8.96831 31.0679 8.51068 31.0679 8.51068C31.0679 8.51068 31.1502 7.21266 31.3046 6.66072C31.4589 6.1074 31.0403 5.62341 30.8152 5.51385Z" fill="#111111"/>
<path fill-rule="evenodd" clip-rule="evenodd" d="M53.3431 18.0281C53.3431 18.0281 53.8496 18.1987 54.0382 18.0281C54.2269 17.8575 53.351 19.946 53.3431 18.0281Z" fill="white"/>
<path fill-rule="evenodd" clip-rule="evenodd" d="M53.2284 22.6072L53.6852 21.8569C53.9646 21.6808 55.3116 21.7696 55.88 20.2372C56.6152 18.2555 56.0772 16.0297 54.5976 16.2571C53.1179 16.4832 56.4013 17.379 55.6561 20.1124C55.2918 21.4492 53.5511 21.7293 53.5511 21.7293L53.2284 22.6072Z" fill="black"/>
<path fill-rule="evenodd" clip-rule="evenodd" d="M53.3158 20.8904C53.0847 21.1386 47.6084 18.8061 46.1171 16.0367C44.6257 13.2673 45.2792 7.23758 47.8572 6.21691C49.9357 5.39316 50.0025 11.0554 51.9331 14.2505C52.397 15.0188 53.3029 15.7052 54.1383 15.9854C57.7692 17.2002 54.4943 18.1737 53.6157 19.8281C53.451 20.1388 53.4953 20.699 53.3158 20.8904Z" fill="#CECEC3"/>
<path fill-rule="evenodd" clip-rule="evenodd" d="M55.954 18.0544C56.642 17.8422 56.4825 15.6692 52.8132 16.0907C51.977 16.1864 51.3897 16.2946 51.1018 16.5511C50.4547 17.1294 51.3635 18.3581 52.3861 18.8005C53.7107 19.3732 53.6621 20.0749 53.563 20.0153C53.3137 19.8642 55.2464 18.2735 55.954 18.0544Z" fill="black"/>
<path fill-rule="evenodd" clip-rule="evenodd" d="M52.9862 16.7093C52.9862 16.7093 52.3071 17.1725 52.2956 17.4803C52.2841 17.7868 53.8704 17.3971 53.7434 17.0879C53.6162 16.7786 53.3752 16.4527 52.9862 16.7093Z" fill="white"/>
<path fill-rule="evenodd" clip-rule="evenodd" d="M54.0549 16.6164C54.0549 16.6164 53.9808 17.2959 54.146 17.2959C54.3113 17.2959 55.2636 17.3458 55.3879 17.1045C55.5121 16.8618 54.3241 16.4846 54.0549 16.6164Z" fill="white"/>
<path fill-rule="evenodd" clip-rule="evenodd" d="M59.4281 16.4361C59.4337 16.425 59.4391 16.4153 59.4447 16.4056C58.9895 14.4738 57.7416 12.7098 56.2459 11.5033C55.1366 10.6074 53.9476 10.5312 53.1966 10.3315C51.6272 9.91407 50.9462 7.85747 50.967 8.31511C50.967 8.31511 49.6707 14.367 54.2765 16.0616C54.2983 16.0797 54.3198 16.0963 54.341 16.113L54.3818 16.0991L54.2765 16.0616C53.6652 15.5624 52.8379 14.643 52.8379 14.643C52.8379 14.643 55.7892 14.2658 59.4127 16.4264L59.4281 16.4361Z" fill="black"/>
<path fill-rule="evenodd" clip-rule="evenodd" d="M30.7126 15.6692C33.0442 13.8955 37.0583 14.2907 41.04 14.643C41.04 14.643 42.7011 19.1514 49.4884 20.6422C51.2259 21.0235 52.3304 21.2052 53.0135 21.2579C53.0335 21.2773 53.0532 21.2981 53.0725 21.3189C52.8455 21.6323 52.5032 21.9236 51.9926 22.0664C50.4319 22.5018 49.1214 21.545 48.5117 22.0262C47.9019 22.5074 47.5128 23.3672 47.4999 23.7C47.4868 24.0342 47.8166 25.2449 48.1034 25.4987C48.3903 25.7524 45.6184 26.8466 43.8908 25.1686C42.3452 23.6667 34.5726 16.21 30.7126 15.6692Z" fill="#AEAC9C"/>
<path fill-rule="evenodd" clip-rule="evenodd" d="M29.5286 15.787C29.6588 15.665 29.7836 15.5568 29.8854 15.4722C29.8854 15.4722 33.4844 10.8252 38.9856 9.27197C44.4868 7.71877 45.6381 8.30816 45.6381 8.30816C45.6381 8.30816 46.4051 6.82013 47.095 7.32215C47.7848 7.82555 46.1727 7.17792 47.2713 8.88227C48.3697 10.5866 49.9025 13.761 49.7359 14.2658C49.569 14.7705 47.959 13.8234 47.2467 14.8121C46.5345 15.8009 46.1076 16.0991 46.1076 16.0991C46.1076 16.0991 43.1677 14.3434 38.3501 14.8745C38.3053 14.869 38.259 14.8648 38.2112 14.8607C34.9173 14.5847 31.3824 15.3142 29.5286 15.787Z" fill="#111111"/>
<path fill-rule="evenodd" clip-rule="evenodd" d="M44.4464 20.7836C45.233 21.1151 46.8358 21.5505 47.554 21.7377L47.4915 21.8306C47.0867 22.4131 46.7397 22.9401 46.5808 23.6362L46.5777 23.7985H46.5783L46.4348 23.7264C44.2141 22.7584 44.3755 20.8557 44.3755 20.8557L44.4464 20.7836Z" fill="#ED2B2F"/>
<path fill-rule="evenodd" clip-rule="evenodd" d="M38.4578 14.9931C38.4226 14.8461 38.4064 14.6936 38.4064 14.5369C38.4064 12.9768 40.0257 11.7106 42.0203 11.7106C43.8552 11.7106 45.3724 12.7826 45.6037 14.168C46.1546 14.168 46.6229 14.7366 46.7858 15.5257C46.35 16.0526 46.0997 16.2274 46.0997 16.2274C46.0997 16.2274 43.2066 14.4994 38.4578 14.9931Z" fill="white"/>
<path fill-rule="evenodd" clip-rule="evenodd" d="M56.9284 15.0522C56.957 14.9364 56.9745 14.8118 56.9826 14.6803C57.0632 13.3711 56.1633 11.9625 54.9744 11.5362C53.8807 11.1441 52.9209 11.7194 52.7115 12.8326C52.3832 12.7149 52.0747 13.092 51.9368 13.7193C52.1694 14.2547 52.3096 14.4548 52.3096 14.4548C52.3096 14.4548 54.1233 13.623 56.9284 15.0522Z" fill="white"/>
<path fill-rule="evenodd" clip-rule="evenodd" d="M39.9871 17.3098C39.9924 17.3181 39.9977 17.3278 40.0032 17.3361C42.0397 20.1443 46.8088 21.8639 52.3613 21.4437L52.6824 21.4105H52.682H52.6829L52.6875 21.4063C53.0682 21.086 53.3153 20.7296 53.4701 20.3898L53.4738 20.3815L53.4726 20.3912C53.4486 20.5826 53.4117 20.7573 53.3651 20.9168L53.1966 21.3578H53.1936H53.1962L53.1802 21.3869H53.1795L53.0001 21.6961L52.9339 21.7863L52.7811 21.9735L52.7193 22.0414L52.5223 22.2231L52.2848 22.3854L52.15 22.4589L50.8284 22.4187L50.8094 22.4173C45.7453 22.108 41.7239 20.1124 40.0032 17.3361C39.997 17.3278 39.9907 17.3181 39.9845 17.3098H39.9871Z" fill="black"/>
<path fill-rule="evenodd" clip-rule="evenodd" d="M53.1887 21.3715L53.1961 21.3578H53.1965L53.1887 21.3715Z" fill="white"/>
<path fill-rule="evenodd" clip-rule="evenodd" d="M38.7661 14.9878C38.7812 13.8969 39.6783 13.0154 40.781 13.0154C40.8701 13.0154 40.9581 13.0216 41.0442 13.0357C41.0175 13.1045 41.0048 13.1795 41.0048 13.2592C41.0048 13.6499 41.3215 13.9688 41.7116 13.9688C41.9421 13.9688 42.1471 13.8578 42.274 13.6843C42.6012 14.0344 42.7972 14.5033 42.7972 15.019L42.793 15.1019C41.0825 14.8362 39.463 14.9221 38.7661 14.9878Z" fill="black"/>
<path fill-rule="evenodd" clip-rule="evenodd" d="M55.1191 14.655C55.1662 13.7393 54.666 12.987 53.9952 12.9716C53.9409 12.9703 53.8871 12.9743 53.834 12.9849C53.8467 13.043 53.8506 13.1062 53.8464 13.1731C53.8263 13.5009 53.6171 13.7641 53.3798 13.7586C53.2396 13.7554 53.1206 13.6594 53.0524 13.512C52.8352 13.8012 52.6918 14.192 52.6652 14.6248L52.6634 14.6944C53.7178 14.4954 54.6986 14.5902 55.1191 14.655Z" fill="black"/>
<path fill-rule="evenodd" clip-rule="evenodd" d="M39.2222 27.3722C40.1403 27.7064 43.702 28.2819 39.3482 27.4623C34.3627 26.5235 28.7016 24.27 22.5562 19.9197L27.0522 16.7675L20.0484 18.0947L19.9838 18.0475C21.3284 16.1449 22.9892 14.3087 24.9057 12.6266C25.0094 13.8428 25.698 14.5778 26.6784 15.9854C29.701 20.3218 34.8076 25.7635 39.2222 27.3722Z" fill="#686958"/>
<path fill-rule="evenodd" clip-rule="evenodd" d="M19.8175 18.0447L19.8419 17.9435L19.9839 18.0475L19.935 18.1168L19.7935 18.1432L19.8144 18.0572C19.8378 18.0641 19.8499 18.0683 19.8499 18.0683L19.8175 18.0447Z" fill="black"/>
<path fill-rule="evenodd" clip-rule="evenodd" d="M20.6507 17.981L20.0484 18.0947L19.9838 18.0475C25.5747 10.136 36.6306 3.38653 48.7844 3.99671C52.8697 4.20057 55.8687 7.16134 57.9871 10.4147C55.0734 7.41789 49.9387 5.91185 42.3443 7.25702C34.0805 8.72007 25.0724 13.1758 20.6507 17.981Z" fill="#501B04"/>
<path fill-rule="evenodd" clip-rule="evenodd" d="M1.38215 2.23103C1.38215 2.23103 11.2349 5.98397 18.2272 7.82648C23.6132 9.24614 24.9033 13.958 21.4212 14.0601C13.4923 14.2945 1.38215 2.23103 1.38215 2.23103Z" fill="#501B04"/>
<path fill-rule="evenodd" clip-rule="evenodd" d="M13.0778 12.3348C13.0778 12.3348 5.902 14.4528 4.51095 14.5866C3.12006 14.719 14.1633 15.7937 19.357 14.88C20.0838 14.7517 20.8882 14.5751 20.6907 14.5889C18.9523 14.7071 13.7318 13.8675 13.0778 12.3348Z" fill="#501B04"/>
<path fill-rule="evenodd" clip-rule="evenodd" d="M57.9872 10.4147C59.1164 12.1412 59.9951 13.951 60.6569 15.4722C60.2415 13.5516 59.3601 11.8181 57.9872 10.4147Z" fill="black"/>
<path fill-rule="evenodd" clip-rule="evenodd" d="M47.9822 25.5652C47.0541 24.5958 47.0306 23.1092 47.9296 22.2494C48.3577 21.8403 48.9182 21.6462 49.4883 21.6586C49.4011 21.8417 49.3336 22.0372 49.2891 22.2439C48.4039 22.4644 47.7866 23.2659 47.8335 24.2519C47.856 24.7262 48.0283 25.1714 48.3061 25.5375L48.3108 25.5444C48.513 25.8218 48.7747 26.0533 49.0752 26.2198L49.0461 26.2309C48.4998 26.4611 47.8998 26.5873 47.2705 26.5873C45.9351 26.5873 44.7318 26.0173 43.8907 25.1076C44.6305 25.6151 45.5255 25.9119 46.4893 25.9119C47.0398 25.9119 47.5681 25.8148 48.0557 25.6318L47.9822 25.5652Z" fill="black"/>
<path fill-rule="evenodd" clip-rule="evenodd" d="M44.564 69.7043C44.564 69.7043 43.5326 60.9732 49.0207 59.2106C54.5088 57.448 46.0213 60.0856 46.6537 56.3386C47.2859 52.5915 37.6226 63.8105 44.564 69.7043Z" fill="#CECEC3"/>
<path fill-rule="evenodd" clip-rule="evenodd" d="M44.3726 70.7155C44.5382 70.8706 45.2759 70.6555 45.4971 70.3746C43.4645 68.6156 42.2715 65.8717 42.5017 62.8188C42.7325 59.7548 44.3454 57.062 46.6495 55.3947C43.8846 56.9727 41.8847 59.9446 41.6256 63.3837C41.4051 66.3099 42.4918 68.9518 44.3726 70.7155Z" fill="black"/>
<path fill-rule="evenodd" clip-rule="evenodd" d="M54.1684 71.421C52.3046 72.8022 49.2149 74.0656 46.5426 74.4802C41.4004 75.279 34.6024 71.127 41.9884 71.1616C44.8257 71.1755 45.4012 70.6693 45.3888 70.2491C42.704 69.8553 38.7655 69.4157 37.265 69.9538C35.1488 70.7096 33.8605 75.7727 33.8605 75.7727C33.8605 75.7727 42.2796 77.8431 51.8872 73.9518C53.5763 73.2681 54.5304 72.5415 54.8175 72.2308C55.0463 71.9854 54.6635 71.5929 54.1684 71.421Z" fill="black"/>
<path d="M34.2279 68.3177C38.2978 68.3177 41.5972 65.1612 41.5972 61.2676C41.5972 57.3739 38.2978 54.2175 34.2279 54.2175C30.1579 54.2175 26.8585 57.3739 26.8585 61.2676C26.8585 65.1612 30.1579 68.3177 34.2279 68.3177Z" fill="white" fill-opacity="0.47"/>
<path d="M32.1898 64.8931C35.1341 64.8931 37.5209 63.27 37.5209 61.2678C37.5209 59.2656 35.1341 57.6425 32.1898 57.6425C29.2455 57.6425 26.8586 59.2656 26.8586 61.2678C26.8586 63.27 29.2455 64.8931 32.1898 64.8931Z" fill="white" fill-opacity="0.47"/>
<path d="M51.2313 62.8997C52.7715 59.8454 52.5709 56.6386 50.7831 55.7371C48.9954 54.8355 46.2976 56.5807 44.7573 59.6349C43.2171 62.6892 43.4177 65.896 45.2055 66.7975C46.9932 67.6991 49.691 65.9539 51.2313 62.8997Z" fill="white" fill-opacity="0.47"/>
<path fill-rule="evenodd" clip-rule="evenodd" d="M48.1592 38.4373C48.0622 38.9185 46.8793 44.2049 41.2041 46.7094C37.9363 48.1503 36.3075 52.0388 36.3075 52.0388C36.3075 52.0388 38.1565 48.7466 41.7688 47.0159C45.3125 45.3185 48.7085 41.8113 49.0323 38.8852L48.1592 38.4373Z" fill="black"/>
<path fill-rule="evenodd" clip-rule="evenodd" d="M9.73889 39.7408C9.73889 39.7408 13.9619 28.6868 24.9516 28.605C35.9412 28.5232 34.1903 23.1952 31.4092 28.3373C28.6281 33.4781 29.4238 35.6082 29.4238 35.6082L28.4572 36.3695C28.4572 36.3695 22.4828 36.5484 20.0501 35.3863C17.6176 34.2242 10.5088 36.9437 9.73889 39.7408Z" fill="#F6C10B"/>
<path fill-rule="evenodd" clip-rule="evenodd" d="M28.7457 34.9426C28.9635 35.1797 29.2091 35.4432 29.4719 35.7205C27.7431 38.0767 26.9992 41.3939 27.7094 44.8026C28.4221 48.2237 30.4405 50.9751 32.9794 52.4423C29.9997 51.1595 27.5549 48.1627 26.755 44.3227C26.0145 40.7684 26.8553 37.3126 28.7457 34.9426Z" fill="black"/>
<path fill-rule="evenodd" clip-rule="evenodd" d="M9.73889 39.7408C9.73889 39.7408 14.6657 33.9191 21.3156 36.5512C27.9656 39.1833 30.8129 39.1043 30.3037 35.7011C29.7945 32.2966 27.2927 32.4145 27.4992 34.367C27.7058 36.321 26.2198 35.9064 19.1014 34.5556C11.983 33.2049 10.2216 38.8172 9.73889 39.7408Z" fill="#FED0C1"/>
<path fill-rule="evenodd" clip-rule="evenodd" d="M30.3615 37.1073C30.3615 37.1073 31.8868 28.6092 33.5034 27.4581C35.1201 26.3057 31.4799 25.0826 31.1491 26.5484C30.818 28.0156 28.6018 31.2066 28.1375 32.9983C27.6731 34.7914 28.8458 38.0628 30.3615 37.1073Z" fill="#EC9C81"/>
<path fill-rule="evenodd" clip-rule="evenodd" d="M51.3601 36.278C54.2176 38.5648 51.589 36.5138 51.3009 36.3266C49.4608 35.1256 46.996 33.829 46.4928 35.0078C45.3544 37.6745 53.7442 41.0832 54.447 40.5937C55.1498 40.1055 55.5679 40.4301 55.5679 40.4301L56.8113 42.0803L56.2821 39.7103L58.571 41.6809C58.571 41.6809 57.3455 26.0339 52.8559 26.0325C48.3664 26.0325 54.447 26.0325 54.447 26.0325C54.447 26.0325 59.0647 33.9594 59.0547 39.2776C59.049 42.3577 59.5004 43.8512 59.8816 44.5626L60.3986 45.1839C60.3986 45.1839 60.1587 45.0799 59.8816 44.5626L56.8113 40.8697L57.8342 44.2506L55.2747 41.2399C55.2747 41.2399 53.3661 41.7281 45.5186 37.3542C37.6711 32.9817 35.9034 32.2425 28.8618 32.0248C27.4169 31.9804 26.6594 31.8279 26.3679 31.6101L28.4389 31.2288L30.096 31.294L28.4639 30.6283L27.1488 30.5312C27.2937 30.4536 27.4503 30.3759 27.6146 30.2983L29.6343 30.057L32.408 30.4203L30.7569 29.5952L29.6539 29.4801C30.4679 29.1916 31.1053 28.9975 31.1053 28.9975L32.6414 29.5716L35.9432 31.6101C35.9432 31.6101 41.3437 28.1418 50.077 35.2421C50.5652 35.6401 50.9911 35.9827 51.3601 36.278Z" fill="black"/>
<path fill-rule="evenodd" clip-rule="evenodd" d="M51.3804 31.2478L82.0445 17.7L52.0289 33.1256L51.3804 31.2478Z" fill="#FF561E"/>
<path fill-rule="evenodd" clip-rule="evenodd" d="M49.557 32.8462L81.7119 23.4523L49.9566 34.7934L49.557 32.8462Z" fill="#FF561E"/>
<path fill-rule="evenodd" clip-rule="evenodd" d="M45.802 32.1996C45.802 32.1996 50.2018 30.0251 52.0903 31.7045C53.9787 33.3825 52.0903 36.1033 52.0903 36.1033V34.0564H51.5263L51.595 36.2018L50.8905 34.0564H50.4663L50.4277 35.6083C50.4277 35.6083 46.8596 32.1344 45.802 32.1996Z" fill="black"/>
<path d="M16.7595 34.5036C18.296 33.8036 19.2623 32.6232 18.9178 31.867C18.5733 31.1109 17.0485 31.0654 15.512 31.7654C13.9755 32.4654 13.0093 33.6459 13.3537 34.402C13.6982 35.1582 15.2231 35.2037 16.7595 34.5036Z" fill="#845323"/>
<path d="M16.4077 34.0779C17.9442 33.3779 18.9105 32.1975 18.566 31.4413C18.2215 30.6852 16.6967 30.6397 15.1602 31.3397C13.6237 32.0397 12.6574 33.2202 13.0019 33.9763C13.3464 34.7324 14.8713 34.7779 16.4077 34.0779Z" fill="#FFA7A9"/>
<path d="M22.1087 30.5339C23.7959 30.5977 25.1891 29.9764 25.2205 29.146C25.2519 28.3157 23.9097 27.5908 22.2225 27.527C20.5352 27.4631 19.142 28.0845 19.1106 28.9148C19.0792 29.7451 20.4215 30.47 22.1087 30.5339Z" fill="#845323"/>
<path d="M21.9854 29.9955C23.6726 30.0593 25.0658 29.438 25.0972 28.6076C25.1286 27.7773 23.7864 27.0524 22.0992 26.9886C20.4119 26.9247 19.0187 27.5461 18.9873 28.3764C18.9559 29.2068 20.2982 29.9316 21.9854 29.9955Z" fill="#FFA7A9"/>
<path d="M24.7856 35.7681C26.2272 35.5372 27.2591 34.8338 27.0904 34.197C26.9218 33.5602 25.6165 33.2311 24.1749 33.462C22.7333 33.6928 21.7014 34.3962 21.87 35.0331C22.0387 35.6699 23.344 35.999 24.7856 35.7681Z" fill="#FA6E6E"/>
<path d="M24.5547 35.3791C25.9963 35.1482 27.0282 34.4448 26.8596 33.808C26.691 33.1711 25.3856 32.8421 23.9441 33.0729C22.5025 33.3038 21.4706 34.0072 21.6392 34.644C21.8078 35.2808 23.1132 35.6099 24.5547 35.3791Z" fill="#FF0000"/>
<path fill-rule="evenodd" clip-rule="evenodd" d="M20.8291 31.7276C22.5668 31.7276 23.9774 32.0996 23.9774 32.558C23.9774 33.0159 22.5668 33.3879 20.8291 33.3879C19.0915 33.3879 17.6808 33.0159 17.6808 32.558C17.6808 32.0996 19.0915 31.7276 20.8291 31.7276ZM20.8291 32.108C22.1163 32.108 23.1612 32.3005 23.1612 32.5377C23.1612 32.7749 22.1163 32.9678 20.8291 32.9678C19.542 32.9678 18.497 32.7749 18.497 32.5377C18.497 32.3005 19.542 32.108 20.8291 32.108Z" fill="#189012"/>
<path fill-rule="evenodd" clip-rule="evenodd" d="M21.8666 30.9371C23.6042 30.9371 25.0149 31.3091 25.0149 31.7675C25.0149 32.2254 23.6042 32.5975 21.8666 32.5975C20.129 32.5975 18.7183 32.2254 18.7183 31.7675C18.7183 31.3091 20.129 30.9371 21.8666 30.9371ZM21.8666 31.3176C23.1537 31.3176 24.1987 31.5101 24.1987 31.7472C24.1987 31.9844 23.1537 32.1773 21.8666 32.1773C20.5795 32.1773 19.5345 31.9844 19.5345 31.7472C19.5345 31.5101 20.5795 31.3176 21.8666 31.3176Z" fill="#189012"/>
<path fill-rule="evenodd" clip-rule="evenodd" d="M17.6806 34.4198C17.6806 34.4198 18.1388 37.7966 17.1933 39.2776C16.2477 40.7587 17.7243 40.6034 17.9427 39.7408C18.1611 38.8769 17.9878 36.5804 17.7432 35.041C17.4984 33.5017 19.3055 34.6569 18.7181 37.5372C18.1306 40.419 18.0932 41.0777 18.7181 40.5147C19.343 39.9516 19.3951 39.0294 19.3091 37.0269C19.2233 35.0244 20.1399 34.1175 20.0501 34.9523C19.9602 35.7857 19.4858 39.7963 19.6282 41.1969C19.7705 42.5976 19.7057 42.9193 20.3962 42.9263C21.0867 42.9332 20.7471 41.2302 20.4332 38.5662C20.1193 35.9022 21.4305 34.747 20.4484 34.4198C19.4661 34.0925 18.4872 33.8373 17.6806 34.4198Z" fill="#F6C10B"/>
<path d="M83.2274 24.1619C85.133 24.1619 86.6779 22.6171 86.6779 20.7115C86.6779 18.8059 85.133 17.261 83.2274 17.261C81.3218 17.261 79.777 18.8059 79.777 20.7115C79.777 22.6171 81.3218 24.1619 83.2274 24.1619Z" fill="#73632E"/>
<path d="M83.2273 23.1778C84.5894 23.1778 85.6937 22.0735 85.6937 20.7113C85.6937 19.3492 84.5894 18.2449 83.2273 18.2449C81.8651 18.2449 80.7609 19.3492 80.7609 20.7113C80.7609 22.0735 81.8651 23.1778 83.2273 23.1778Z" fill="white"/>
<path fill-rule="evenodd" clip-rule="evenodd" d="M82.8943 18.455C83.8792 18.455 84.6776 19.4037 84.6776 20.5726C84.6776 21.7403 83.8792 20.1834 82.8943 20.1834C81.9093 20.1834 81.111 21.7403 81.111 20.5726C81.111 19.4037 81.9093 18.455 82.8943 18.455Z" fill="#FF0000"/>
<path fill-rule="evenodd" clip-rule="evenodd" d="M83.6368 22.7818C82.6936 22.7818 81.9291 22.1222 81.9291 21.3095C81.9291 20.4977 82.6936 21.5802 83.6368 21.5802C84.58 21.5802 85.3445 20.4977 85.3445 21.3095C85.3445 22.1222 84.58 22.7818 83.6368 22.7818Z" fill="#189012"/>
</svg>
