<svg width="148" height="45" viewBox="0 0 148 45" fill="none" xmlns="http://www.w3.org/2000/svg">
<path d="M6.55951 32.9781L4.31511 36.0756V43.7499H0V16.8908H4.31511V29.0657L6.21515 25.7278L11.5511 16.8908H16.8582L9.42255 28.8273L17.0746 43.7499H11.9397L6.55951 32.9781Z" fill="#7808B1"/>
<path d="M32.1838 32.1104H23.8994V39.304H33.6221V43.7499H19.5828V16.8908H33.5932V21.3738H23.8994V27.774H32.1838V32.1104Z" fill="#EF4137"/>
<path d="M49.6376 32.1104H41.3533V39.304H51.076V43.7499H37.0366V16.8908H51.047V21.3738H41.3533V27.774H49.6376V32.1104Z" fill="#EF4137"/>
<path d="M58.8071 34.2874V43.7499H54.4905V16.8908H62.6605C64.2345 16.8908 65.6165 17.2601 66.8111 17.9969C68.0042 18.7356 68.9229 19.7831 69.5659 21.1432C70.2074 22.5014 70.5289 24.0492 70.5289 25.7826C70.5289 28.4149 69.8265 30.4903 68.4216 32.0088C67.0168 33.5272 65.0725 34.2874 62.5889 34.2874H58.8071ZM58.8071 29.8044H62.6605C63.8018 29.8044 64.6718 29.4605 65.2722 28.7706C65.871 28.0827 66.1711 27.0978 66.1711 25.8197C66.1711 24.5026 65.8695 23.4394 65.2645 22.6284C64.6612 21.8155 63.8262 21.3973 62.7626 21.3738H58.8071V29.8044Z" fill="#7808B1"/>
<path d="M85.2356 36.7029C85.2356 35.6593 84.9476 34.8561 84.3732 34.2972C83.7972 33.7364 82.7611 33.1462 81.2663 32.5247C79.7701 31.9033 78.5862 31.2916 77.7131 30.6897C75.3346 29.0423 74.1461 26.8222 74.1461 24.0296C74.1461 22.5796 74.4646 21.2839 75.1015 20.1466C75.7399 19.0092 76.6556 18.12 77.8502 17.481C79.0433 16.8419 80.3841 16.5215 81.8697 16.5215C83.366 16.5215 84.6992 16.8693 85.8679 17.5631C87.0381 18.2588 87.9463 19.2398 88.5938 20.5061C89.2414 21.7725 89.5644 23.2128 89.5644 24.823H85.2508C85.2508 23.5938 84.9476 22.6363 84.3442 21.9542C83.7393 21.2722 82.8906 20.9302 81.7981 20.9302C80.7437 20.9302 79.9239 21.2175 79.3388 21.7881C78.7537 22.3607 78.4612 23.1131 78.4612 24.0492C78.4612 24.9208 78.8041 25.6536 79.4897 26.2438C80.1754 26.834 81.1841 27.387 82.5173 27.9049C84.972 28.8507 86.7608 30.0252 87.8822 31.4284C89.0037 32.8296 89.5644 34.5767 89.5644 36.6658C89.5644 38.9913 88.8787 40.8146 87.5089 42.1357C86.1376 43.4587 84.2909 44.1192 81.9703 44.1192C80.3597 44.1192 78.8924 43.7421 77.5683 42.9858C76.2458 42.2295 75.2371 41.1937 74.5407 39.8766C73.8459 38.5614 73.4985 37.0351 73.4985 35.3017H77.8273C77.8273 38.2663 79.2093 39.7476 81.9703 39.7476C82.9973 39.7476 83.7972 39.4798 84.3732 38.9444C84.9476 38.4109 85.2356 37.6624 85.2356 36.7029Z" fill="#7808B1"/>
<path d="M105.193 38.2174H97.6264L96.1881 43.7499H91.6002L99.3954 16.8908H103.395L111.233 43.7499H106.645L105.193 38.2174ZM98.7921 33.7344H104.027L101.395 23.6798L98.7921 33.7344Z" fill="#7808B1"/>
<path d="M120.633 32.9781L118.389 36.0756V43.7499H114.073V16.8908H118.389V29.0657L120.287 25.7278L125.625 16.8908H130.932L123.496 28.8273L131.148 43.7499H126.013L120.633 32.9781Z" fill="#7808B1"/>
<path d="M146.256 32.1104H137.971V39.304H147.695V43.7499H133.656V16.8908H147.666V21.3738H137.971V27.774H146.256V32.1104Z" fill="#7808B1"/>
<path fill-rule="evenodd" clip-rule="evenodd" d="M43.4309 0C48.3294 0 52.3049 3.36545 52.3049 7.51226C52.3049 11.6591 48.3294 15.0245 43.4309 15.0245C41.1879 15.0245 34.5827 14.9372 34.5827 14.9372C34.5827 14.9372 34.5569 9.76027 34.5569 7.51226C34.5569 3.36545 38.5324 0 43.4309 0ZM43.4309 2.68016C40.1205 2.68016 37.2381 4.70989 37.2381 7.51226C37.2381 8.69083 37.2433 10.6682 37.2536 12.2877C39.3471 12.3139 42.1263 12.3444 43.4309 12.3444C46.7412 12.3444 49.6236 10.3146 49.6236 7.51226C49.6236 4.70989 46.7412 2.68016 43.4309 2.68016Z" fill="#EF4137"/>
<path fill-rule="evenodd" clip-rule="evenodd" d="M27.0795 0C31.978 0 35.9535 3.36545 35.9535 7.51226C35.9535 9.76027 35.9277 14.9372 35.9277 14.9372C35.9277 14.9372 29.3225 15.0245 27.0795 15.0245C22.181 15.0245 18.2054 11.6591 18.2054 7.51226C18.2054 3.36545 22.181 0 27.0795 0ZM27.0795 2.68016C23.7691 2.68016 20.8867 4.70989 20.8867 7.51226C20.8867 10.3146 23.7691 12.3444 27.0795 12.3444C28.384 12.3444 31.1633 12.3139 33.2567 12.2877C33.2671 10.6682 33.2722 8.69083 33.2722 7.51226C33.2722 4.70989 30.3898 2.68016 27.0795 2.68016Z" fill="#EF4137"/>
</svg>
