<svg width="61" height="82" viewBox="0 0 61 82" fill="none" xmlns="http://www.w3.org/2000/svg">
<path d="M2.21777 74.2281H-0.00012207V81.8288H2.21777V74.2281Z" fill="#8E0C0E"/>
<path d="M14.3971 74.2281H12.1792V81.8288H14.3971V74.2281Z" fill="#8E0C0E"/>
<path d="M43.943 74.2283H41.1899L37.1344 81.8289H39.8874L43.943 74.2283Z" fill="#8E0C0E"/>
<path d="M41.4804 74.2283H44.2334L48.2889 81.8289H45.5359L41.4804 74.2283Z" fill="#8E0C0E"/>
<path d="M52.4692 74.2281H50.2513V81.8288H52.4692V74.2281Z" fill="#8E0C0E"/>
<path d="M60.8207 74.2281H58.6028V81.8288H60.8207V74.2281Z" fill="#8E0C0E"/>
<path d="M27.3093 74.2281H25.0914V81.8288H27.3093V74.2281Z" fill="#8E0C0E"/>
<path d="M23.128 74.2281H20.9102V81.8288H23.128V74.2281Z" fill="#8E0C0E"/>
<path fill-rule="evenodd" clip-rule="evenodd" d="M14.863 74.2282L22.8094 81.8302H19.6843L12.1766 74.2282H14.863Z" fill="#8E0C0E"/>
<path fill-rule="evenodd" clip-rule="evenodd" d="M52.9376 74.2282L60.884 81.8302H57.7589L50.2512 74.2282H52.9376Z" fill="#8E0C0E"/>
<path fill-rule="evenodd" clip-rule="evenodd" d="M25.6786 74.2145H33.6763C35.0997 74.2145 36.2542 75.372 36.2542 76.7968C36.2542 78.2239 35.0997 79.3815 33.6763 79.3815H25.6786V77.7958H33.6763C34.2276 77.7958 34.6727 77.3495 34.6727 76.7968C34.6727 76.2464 34.2276 75.8002 33.6763 75.8002H25.6786V74.2145Z" fill="#8E0C0E"/>
<path fill-rule="evenodd" clip-rule="evenodd" d="M31.634 78.165L35.4635 81.8301H32.3411L28.7218 78.165H31.634Z" fill="#8E0C0E"/>
<path d="M0.919556 74.2277L0.919556 75.7842H10.1554V74.2277H0.919556Z" fill="#8E0C0E"/>
<path d="M0.919556 80.2712L0.919556 81.8278H10.1554V80.2712H0.919556Z" fill="#8E0C0E"/>
<path d="M0.917236 77.2495L0.917236 78.806H9.13957V77.2495H0.917236Z" fill="#8E0C0E"/>
<path d="M39.6229 78.4409V79.9974H46.3641V78.4409H39.6229Z" fill="#8E0C0E"/>
<path fill-rule="evenodd" clip-rule="evenodd" d="M45.5331 20.6722C45.5308 20.6722 45.5308 20.6745 45.5286 20.6745V20.6722C45.5308 20.6722 45.5308 20.6722 45.5331 20.6722Z" fill="#8E0C0E"/>
<path fill-rule="evenodd" clip-rule="evenodd" d="M45.411 20.6722H45.4155L45.411 20.6745V20.6722Z" fill="#8E0C0E"/>
<path fill-rule="evenodd" clip-rule="evenodd" d="M45.9329 20.4888C43.9266 18.6879 35.398 11.0338 35.398 11.0338L25.7848 20.6722H45.411V20.6745L9.14087 53.1665V40.7124L21.1443 29.9595H14.6037C12.7308 29.9595 11.0409 28.8292 10.3247 27.0941C9.60853 25.3589 10.0039 23.361 11.3278 22.0314L31.9481 1.3592C33.6854 -0.38273 36.4801 -0.459754 38.3124 1.18251L52.5322 13.9469L46.3531 20.867L45.9464 20.5024C45.9464 20.5001 45.9464 20.5001 45.9464 20.5001L45.9329 20.4888Z" fill="#8E0C0E"/>
<path fill-rule="evenodd" clip-rule="evenodd" d="M54.6152 29.4702L9.14087 71.7523V59.0854L54.6152 16.8055V29.4702Z" fill="#8E0C0E"/>
</svg>
