<svg width="136" height="45" viewBox="0 0 136 45" fill="none" xmlns="http://www.w3.org/2000/svg">
<path d="M48.6573 16.921L43.1294 35.3504C40.3265 44.6968 28.4563 47.5031 21.764 40.4023L8.56774 26.4006C1.63249 19.0423 5.26391 6.93556 15.1039 4.60863L33.0534 0.364631C42.8934 -1.9623 51.5626 7.23573 48.6573 16.921Z" fill="#F15A24"/>
<path d="M24.0997 24.0202L17.4719 25.1136L17.5488 25.5641C17.6982 26.4411 18.0879 27.1933 18.7177 27.821C19.3474 28.4488 19.9712 28.7098 20.5877 28.605C21.2165 28.4978 22.0881 28.1144 23.2016 27.4543C24.3146 26.7952 25.5608 25.9089 26.9393 24.7963L27.5097 24.3096C27.9039 23.9957 28.1693 23.7646 28.3064 23.6177C28.944 23.0516 29.3534 22.7534 29.535 22.7226C29.7525 22.6853 29.8954 22.8646 29.963 23.2612C30.037 23.6931 30.6133 24.9922 30.5501 25.571C30.487 26.1508 29.8068 25.9231 29.6526 26.4744C29.4973 27.0263 29.3171 27.4303 29.1124 27.6878C28.5278 28.418 27.4622 29.2857 25.9163 30.291C24.3704 31.2963 22.7731 32.1498 21.1254 32.8505C20.5657 33.0694 20.0432 33.2207 19.5599 33.3029C17.9028 33.5855 16.331 33.5111 14.8448 33.0787C13.3587 32.6463 12.1379 31.9128 11.1835 30.8766C10.2287 29.8409 9.62931 28.6084 9.38594 27.1796C9.18517 26.0024 9.21161 24.6636 9.46576 23.1623C9.7199 21.6605 10.1738 20.1278 10.8285 18.5642C11.4827 17.0007 12.274 15.5464 13.202 14.2017C14.0094 13.026 14.9477 11.9238 16.0166 10.8945C17.0856 9.86617 18.154 9.03176 19.221 8.39274C20.288 7.75323 21.2992 7.35218 22.2551 7.18912C23.7544 6.93351 25.1118 7.13722 26.3267 7.80122C27.5411 8.46521 28.2511 9.39804 28.4558 10.5982C28.5459 11.1271 28.5474 11.7196 28.4607 12.3772C28.3735 13.0344 28.2066 13.6249 27.9602 14.1493C27.7076 14.711 27.2894 15.2893 26.7067 15.8833C26.1235 16.4773 25.4443 17.0188 24.6691 17.5095C23.7324 18.0775 23.7216 19.2992 23.0082 19.4212C22.2942 19.5426 21.0945 18.5525 21.0348 18.2038C21 17.9997 21.1455 17.6476 21.4706 17.1471C21.8408 16.6883 22.1679 16.0889 22.4524 15.3486C22.7178 14.5739 22.9142 13.6817 23.041 12.6715C23.1673 11.6613 23.184 10.8862 23.0919 10.3456C23.016 9.90143 22.8451 9.70213 22.5792 9.74718C22.1557 9.81965 21.4726 10.4122 20.5299 11.5242C19.5873 12.6367 18.8719 13.6979 18.3847 14.7076C17.9234 15.6517 17.5738 16.5918 17.3353 17.5281C17.0968 18.4648 16.9827 19.3649 16.993 20.2282L26.6807 18.5755C27.7448 18.3938 28.3231 18.5731 28.4152 19.1137C28.5013 19.6175 28.0489 20.5415 27.0583 21.8847C26.0657 23.1412 25.079 23.8532 24.0997 24.0202Z" fill="#C9240C"/>
<path d="M39.3165 16.2035C38.9683 16.2226 38.5756 16.2735 38.1378 16.3562C37.894 16.3695 37.7143 16.3822 37.5987 16.3944C37.4826 16.4067 37.3558 16.4228 37.2172 16.4419L36.9734 16.4551C36.9773 16.3131 36.9861 16.1535 37.0003 15.9758C37.014 15.798 37.0224 15.6384 37.0268 15.4969C37.2378 12.9143 37.3994 11.0477 37.5125 9.89744C37.6256 8.74719 37.7843 7.45886 37.9875 6.03195C38.0198 5.74647 38.0835 5.49429 38.1657 5.26267C38.5217 3.7579 39.3831 2.42795 40.5617 1.48729C40.4932 1.32276 40.4138 1.17096 40.3135 1.04756C40.0338 0.703319 39.6333 0.545154 39.1123 0.573555C37.9664 0.636234 36.8588 1.50149 35.7889 3.1703C34.7194 4.83861 33.7734 7.07251 32.9507 9.87148C32.1286 12.6709 31.5135 15.7564 31.1056 19.1283C30.6977 22.5012 30.5665 25.8397 30.7124 29.1465L30.7423 29.6935C30.7658 30.1283 30.8108 30.427 30.8779 30.5886C30.9445 30.7502 31.0704 30.926 31.255 31.1165C31.7158 31.4921 32.4493 31.6532 33.4556 31.5983C34.3923 31.5469 35.0671 31.2683 35.4804 30.7619C35.7864 30.4153 36.0259 29.4996 36.2002 28.0154C36.374 26.5312 36.4788 24.6146 36.5131 22.2651L36.495 21.2931C36.587 21.2765 36.6703 21.2633 36.7452 21.2525C36.8201 21.2427 36.9504 21.2329 37.136 21.2226C37.9899 21.1168 38.6417 20.9724 39.0902 20.7883C39.5393 20.6046 39.934 20.327 40.2738 19.9544C40.6136 19.5822 40.8991 19.1214 41.1307 18.572C41.3623 18.0231 41.4676 17.5603 41.447 17.1838C41.4074 16.4551 40.6974 16.128 39.3165 16.2035Z" fill="#C9240C"/>
<path d="M24.5763 25.5758L17.7625 25.5386V26.0052C17.7625 26.9141 18.024 27.7387 18.5465 28.4786C19.069 29.2194 19.6478 29.5896 20.2829 29.5896C20.9297 29.5896 21.8665 29.3531 23.0921 28.8801C24.3178 28.4071 25.7148 27.7289 27.2833 26.8455L27.9365 26.4533C28.3845 26.2045 28.6891 26.0175 28.8512 25.8936C29.5852 25.4328 30.046 25.2026 30.2326 25.2026C30.4563 25.2026 30.5685 25.4078 30.5685 25.8187C30.5685 26.2667 30.4872 26.7769 30.3256 27.3494C30.164 27.9218 29.9583 28.4727 29.7101 29.0015C29.4608 29.5309 29.2116 29.9065 28.9633 30.1307C28.2538 30.7653 27.0404 31.4563 25.3231 32.203C23.6058 32.9498 21.8631 33.5349 20.0963 33.9575C19.4989 34.0819 18.951 34.1441 18.4535 34.1441C16.7484 34.1441 15.1893 33.7989 13.7771 33.1079C12.3644 32.4175 11.2694 31.469 10.4914 30.2615C9.71375 29.0544 9.32495 27.7103 9.32495 26.229C9.32495 25.0097 9.57958 23.6656 10.0903 22.197C10.6006 20.729 11.316 19.2634 12.237 17.8007C13.1576 16.3386 14.1972 15.0101 15.3543 13.8153C16.3625 12.7703 17.4888 11.8213 18.7331 10.9683C19.9773 10.1163 21.1878 9.45963 22.3645 8.99934C23.5402 8.53905 24.6194 8.30841 25.6032 8.30841C27.1457 8.30841 28.4688 8.74716 29.57 9.62465C30.6713 10.5021 31.2217 11.5633 31.2217 12.8075C31.2217 13.3555 31.1223 13.9524 30.923 14.5992C30.7237 15.2466 30.4563 15.8127 30.1204 16.2984C29.7718 16.8209 29.2557 17.3311 28.5711 17.8291C27.8865 18.3271 27.1153 18.7561 26.2564 19.117C25.2232 19.5278 24.3398 19.733 23.6058 19.733C22.8713 19.733 22.504 19.5528 22.504 19.1914C22.504 18.9799 22.7097 18.6503 23.12 18.2023C23.5681 17.8042 23.9975 17.2567 24.4084 16.5594C24.806 15.8254 25.1546 14.9606 25.4538 13.9646C25.752 12.9691 25.9014 12.191 25.9014 11.6313C25.9014 11.171 25.7648 10.9409 25.491 10.9409C25.0552 10.9409 24.2713 11.4198 23.1386 12.3781C22.006 13.3364 21.1099 14.2824 20.4508 15.2157C19.8285 16.0869 19.3182 16.9737 18.9201 17.8757C18.5215 18.7781 18.2542 19.6649 18.117 20.5361H28.0858C29.1807 20.5361 29.7287 20.8157 29.7287 21.3758C29.7287 21.8983 29.1185 22.7509 27.8993 23.9334C26.6917 25.0283 25.5841 25.5758 24.5763 25.5758Z" fill="white"/>
<path d="M40.9816 16.2989C40.6153 16.2989 40.2011 16.3292 39.7374 16.39C39.4813 16.39 39.2917 16.3934 39.1698 16.3993C39.0474 16.4051 38.9137 16.4144 38.7673 16.4267H38.5112C38.5235 16.2803 38.5421 16.1162 38.5665 15.9336C38.591 15.7509 38.6091 15.5869 38.6219 15.441C38.9906 12.7884 39.2673 10.8723 39.4519 9.69171C39.636 8.51159 39.8759 7.19143 40.1707 5.73123C40.2207 5.4384 40.3019 5.18181 40.4018 4.94775C40.8607 3.41507 41.84 2.09197 43.1293 1.18803C43.0666 1.01371 42.9922 0.853096 42.8943 0.720394C42.6206 0.349221 42.2097 0.163635 41.6623 0.163635C40.4577 0.163635 39.2467 0.994122 38.0299 2.6551C36.813 4.31607 35.6941 6.5671 34.6717 9.40819C33.6492 12.2498 32.8281 15.3984 32.2071 18.854C31.5872 22.3101 31.2582 25.7471 31.2219 29.1665V29.7326C31.2219 30.1826 31.2523 30.4931 31.313 30.6635C31.3737 30.8339 31.4957 31.0219 31.6778 31.2295C32.1396 31.6428 32.8995 31.8499 33.9572 31.8499C34.9415 31.8499 35.6652 31.6002 36.1275 31.1017C36.4678 30.7609 36.7714 29.83 37.0388 28.3086C37.3066 26.7877 37.5255 24.8158 37.6959 22.3943L37.7326 21.3905C37.8306 21.3783 37.9187 21.3694 37.9975 21.3626C38.0764 21.3567 38.2135 21.3538 38.4089 21.3538C39.3099 21.2931 40.0013 21.1804 40.4821 21.0159C40.9635 20.8519 41.3929 20.5874 41.7705 20.2221C42.148 19.8573 42.4736 19.398 42.7479 18.8447C43.0221 18.2909 43.1592 17.8198 43.1592 17.43C43.1592 16.6759 42.4335 16.2989 40.9816 16.2989Z" fill="white"/>
<path d="M11.0938 3.21958C11.0938 1.53167 9.7256 0.163526 8.0377 0.163526C6.34979 0.163526 4.98164 1.53167 4.98164 3.21958C4.98164 4.90749 6.34979 6.27563 8.0377 6.27563C9.7256 6.27563 11.0938 4.90749 11.0938 3.21958Z" fill="#E24F00"/>
<path d="M15.3266 40.9498C15.3266 40.9498 17.9302 33.2276 12.5806 28.9802C7.23136 24.7332 0.0522461 25.6161 0.0522461 25.6161C0.45133 30.5369 1.16577 35.3112 2.42619 38.0822C5.84117 45.5875 14.4731 42.1142 14.4731 42.1142L15.3266 40.9498Z" fill="#82B924"/>
<path d="M0.615617 25.5712C0.257665 25.5922 0.052002 25.6162 0.052002 25.6162C0.451576 30.5369 1.16552 35.3113 2.42643 38.0818C5.84093 45.5876 14.4729 42.1143 14.4729 42.1143L15.1756 41.156C14.0493 40.1316 13.2056 38.7997 12.7894 37.2964C11.5882 36.3597 10.6539 35.0953 10.1202 33.6434C9.00373 32.8712 8.07923 31.8307 7.45342 30.6163C6.83056 30.1878 6.27527 29.6702 5.79245 29.09C5.31991 28.7511 4.88361 28.3643 4.49187 27.9343C4.02766 27.6675 3.59577 27.3502 3.19228 27.0005C2.24868 26.6827 1.37853 26.1935 0.615617 25.5712Z" fill="#42AD06"/>
<path d="M0.642452 25.4617C0.426506 25.4739 0.213008 25.4695 0 25.4642C0.461273 25.7839 0.792782 26.0106 0.792782 26.0106C9.17698 30.2473 15.8385 44.3905 15.8385 44.3905L16.5838 43.4318C16.5838 43.4318 11.7257 32.2584 1.83677 26.112C1.44797 25.8701 1.09785 25.6537 0.76536 25.4485C0.724228 25.4514 0.684074 25.4593 0.642452 25.4617Z" fill="#93C53C"/>
<path d="M52.6012 38.3743C52.6012 38.3743 50.571 30.4818 43.7709 29.8403C36.9708 29.1983 31.4355 33.8542 31.4355 33.8542C34.4539 37.7608 37.6569 41.3726 40.2247 43.0072C47.1805 47.4353 52.5209 39.8159 52.5209 39.8159L52.6012 38.3743Z" fill="#82B924"/>
<path d="M31.8831 33.509C31.5947 33.7215 31.4355 33.8542 31.4355 33.8542C34.4539 37.7604 37.6569 41.3727 40.2247 43.0072C47.181 47.4353 52.5209 39.8155 52.5209 39.8155L52.587 38.63C51.0847 38.3852 49.6509 37.7295 48.4821 36.6963C46.9646 36.5665 45.4916 36.0161 44.2523 35.0907C42.8954 35.0525 41.5527 34.6847 40.3657 34.008C39.6102 33.9889 38.8624 33.8577 38.1416 33.6349C37.5604 33.6079 36.984 33.5217 36.4209 33.3753C35.8862 33.4047 35.3515 33.3744 34.8226 33.3014C33.8585 33.5497 32.862 33.6148 31.8831 33.509Z" fill="#42AD06"/>
<path d="M31.846 33.4027C31.6717 33.5305 31.4905 33.6436 31.3093 33.7552C31.87 33.7714 32.2715 33.7807 32.2715 33.7807C41.6096 32.7588 54.9072 40.9789 54.9072 40.9789L55.0091 39.7689C55.0091 39.7689 44.8424 33.054 33.2019 33.2959C32.7441 33.3057 32.3323 33.315 31.942 33.3243C31.9087 33.3498 31.8798 33.3782 31.846 33.4027Z" fill="#93C53C"/>
<path d="M60.1427 24.1791L55.6304 24.1546V24.4636C55.6304 25.0654 55.8032 25.6114 56.1499 26.1015C56.4956 26.5917 56.8791 26.837 57.2997 26.837C57.7282 26.837 58.3481 26.6808 59.16 26.3674C59.9714 26.054 60.8968 25.605 61.9354 25.0198L62.3683 24.7603C62.665 24.5958 62.8663 24.4719 62.974 24.3896C63.4603 24.0846 63.7649 23.9318 63.8887 23.9318C64.0371 23.9318 64.1111 24.0679 64.1111 24.3397C64.1111 24.6364 64.0577 24.9748 63.9504 25.3538C63.8432 25.7328 63.7071 26.0976 63.5425 26.4477C63.3775 26.7983 63.213 27.0471 63.048 27.1955C62.5784 27.6161 61.7748 28.0734 60.6373 28.568C59.4998 29.0621 58.3461 29.4499 57.1758 29.73C56.7801 29.8123 56.4178 29.8534 56.0882 29.8534C54.9586 29.8534 53.9263 29.6247 52.9911 29.1674C52.0553 28.71 51.3301 28.0818 50.8154 27.2821C50.3003 26.483 50.0422 25.5928 50.0422 24.6119C50.0422 23.8045 50.2117 22.9137 50.5495 21.9413C50.8874 20.9693 51.3614 19.9987 51.9711 19.0301C52.5812 18.0616 53.2692 17.1816 54.0355 16.3908C54.703 15.6984 55.4492 15.0702 56.2733 14.5051C57.0975 13.941 57.8991 13.5061 58.6781 13.2011C59.4567 12.896 60.1716 12.7437 60.8224 12.7437C61.8448 12.7437 62.7204 13.0341 63.45 13.6153C64.1791 14.1961 64.5439 14.8993 64.5439 15.7229C64.5439 16.0857 64.4778 16.4814 64.3461 16.9099C64.2144 17.3383 64.0371 17.7139 63.8148 18.0346C63.5837 18.3813 63.2419 18.7192 62.7884 19.0488C62.335 19.3783 61.8243 19.6628 61.2553 19.9018C60.5712 20.1735 59.986 20.3097 59.4998 20.3097C59.0136 20.3097 58.7707 20.1902 58.7707 19.9512C58.7707 19.8112 58.9063 19.5923 59.1786 19.296C59.4753 19.0321 59.7593 18.6697 60.0316 18.208C60.295 17.7217 60.5262 17.1493 60.724 16.4892C60.9218 15.8306 61.0207 15.3155 61.0207 14.9443C61.0207 14.6397 60.9296 14.487 60.7485 14.487C60.46 14.487 59.9405 14.8043 59.1908 15.4389C58.4406 16.0735 57.8476 16.6998 57.4104 17.3182C56.9985 17.8951 56.6607 18.4822 56.3972 19.0796C56.1328 19.677 55.956 20.2641 55.8654 20.841H62.4667C63.1919 20.841 63.5548 21.0265 63.5548 21.3977C63.5548 21.7439 63.1513 22.3085 62.3433 23.091C61.5437 23.8167 60.8107 24.1791 60.1427 24.1791Z" fill="#42AD06"/>
<path d="M72.2209 17.8495C72.8477 17.8745 73.3462 18.0556 73.7168 18.3935C74.0875 18.7314 74.2731 19.1848 74.2731 19.7533C74.2731 20.2479 74.1311 20.7464 73.8466 21.2493C73.5626 21.7517 73.2037 22.164 72.7713 22.4852C72.3384 22.8069 71.9036 22.9676 71.4668 22.9676C71.2117 22.9676 71.0839 22.877 71.0839 22.6953C71.0839 22.6297 71.1328 22.4852 71.2317 22.2629C71.5535 21.7189 71.7141 21.0926 71.7141 20.3835C71.7141 20.0295 71.6729 19.8523 71.5902 19.8523C71.4751 19.8523 71.3101 20.0006 71.0961 20.2969C70.8816 20.5936 70.7005 20.9447 70.5521 21.3482C70.2965 21.9828 70.0844 22.6586 69.9155 23.3755C69.7466 24.0923 69.6619 24.6986 69.6619 25.1926C69.6619 25.7538 69.7466 26.194 69.9155 26.5157C70.0844 26.837 70.3214 26.9976 70.6265 26.9976C70.9066 26.9976 71.2812 26.8497 71.7513 26.5529C72.2209 26.2557 72.666 25.8894 73.0861 25.4527C73.2595 25.2299 73.4118 25.1187 73.5435 25.1187C73.7418 25.1187 73.8402 25.2299 73.8402 25.4527C73.8402 26.4663 73.4451 27.3854 72.6538 28.209C72.1097 28.7531 71.4854 29.1923 70.7808 29.5262C70.0761 29.8597 69.4435 30.0267 68.8828 30.0267C67.902 30.0267 67.0862 29.7177 66.4354 29.0997C65.7841 28.4813 65.459 27.7027 65.459 26.763C65.459 25.8233 65.6671 24.8366 66.0828 23.802C66.4991 22.7678 67.0681 21.785 67.7889 20.8536C68.5101 19.9223 69.3284 19.1437 70.2431 18.5169C70.9027 18.0718 71.5451 17.8495 72.1714 17.8495H72.2209Z" fill="#42AD06"/>
<path d="M83.4337 17.3424C84.6618 17.3424 85.2759 17.4869 85.2759 17.7753C85.2759 18.1048 84.9997 18.2821 84.4474 18.3071C83.7799 18.3482 83.1576 18.5377 82.5807 18.8756C82.0039 19.2135 81.4907 19.6752 81.0417 20.2604C80.5927 20.8455 80.2421 21.5051 79.9908 22.2382C79.7396 22.9717 79.6138 23.7464 79.6138 24.5622C79.6138 25.4607 79.8239 26.184 80.244 26.7319C80.6646 27.2798 81.2126 27.5541 81.8883 27.5541C82.5151 27.5541 83.0631 27.2328 83.5327 26.5899C84.0027 25.947 84.2373 25.1973 84.2373 24.3398C84.2373 23.6396 84.0914 22.982 83.7986 22.3679C83.5057 21.7544 83.0792 21.2368 82.519 20.8166C82.2801 20.6271 82.1606 20.491 82.1606 20.4087C82.1606 20.2932 82.3295 20.1159 82.6674 19.877C83.0464 19.6218 83.471 19.4074 83.941 19.234C84.4106 19.0607 84.8063 18.9745 85.1275 18.9745C85.4987 18.9745 85.8508 19.0714 86.1842 19.2649C86.5182 19.4583 86.813 19.735 87.0681 20.0929C87.3242 20.4518 87.5196 20.8641 87.6557 21.3293C87.7918 21.795 87.8594 22.2915 87.8594 22.8194C87.8594 23.693 87.6949 24.5563 87.3653 25.4093C87.0353 26.2623 86.6029 26.9527 86.0672 27.4801C85.3748 28.1475 84.5404 28.6935 83.5635 29.1181C82.5871 29.5426 81.6577 29.7547 80.7763 29.7547C79.9189 29.7547 79.0678 29.6063 78.2231 29.3095C77.3779 29.0128 76.7086 28.6216 76.214 28.1348C75.5544 27.4762 75.2249 26.5404 75.2249 25.3285C75.2249 24.3731 75.4599 23.4168 75.9295 22.4605C76.3996 21.5051 77.0362 20.6369 77.8397 19.8584C78.6438 19.0798 79.5296 18.4657 80.4977 18.0162C81.4657 17.5672 82.4446 17.3424 83.4337 17.3424Z" fill="#42AD06"/>
<path d="M92.5699 17.5533L92.8539 16.8359C91.9309 16.8109 91.286 16.7184 90.9192 16.5577C90.5524 16.3966 90.3693 16.1185 90.3693 15.7229C90.3693 15.4016 90.4966 15.0843 90.7522 14.7714C91.0407 14.3758 91.3496 14.0149 91.6797 13.6892C92.0092 13.3641 92.3143 13.131 92.5944 12.991C92.8333 12.892 93.1634 12.8426 93.583 12.8426C94.6055 12.8426 95.7631 12.9004 97.0573 13.0154C97.354 13.0326 97.6013 13.0443 97.7991 13.0527C97.997 13.061 98.2109 13.0732 98.4421 13.0899C98.9861 13.0899 99.3318 13.1002 99.4802 13.1207C99.6286 13.1413 99.8058 13.1927 100.012 13.275C100.152 13.3244 100.271 13.3989 100.37 13.4978C100.577 13.7113 100.679 14.0491 100.679 14.5109C100.679 15.3673 100.384 15.9148 99.7931 16.1538C99.4479 16.3021 99.1359 16.3986 98.8563 16.4441C98.5777 16.4892 98.0724 16.545 97.3418 16.6106L95.9991 21.0392C96.6332 21.0392 97.1479 21.0226 97.543 20.9893C97.7893 20.9731 98.1683 20.9648 98.6791 20.9648C99.2794 20.9648 99.7035 21.029 99.9503 21.1573C100.198 21.2855 100.321 21.5103 100.321 21.833C100.321 22.0813 100.201 22.4412 99.963 22.9127C99.724 23.3843 99.464 23.7604 99.1844 24.0419C99.0527 24.1741 98.8671 24.2633 98.6286 24.3088C98.3897 24.3543 97.9818 24.3769 97.4054 24.3769H96.9236C96.3717 24.3769 95.7415 24.4013 95.033 24.4513C94.6647 25.7024 94.3234 26.6592 94.0095 27.3208C93.6962 27.9823 93.3127 28.543 92.8588 29.0033C92.5449 29.324 92.2129 29.5703 91.8623 29.7427C91.5117 29.9156 91.1836 30.0017 90.8781 30.0017C90.3747 30.0017 89.9394 29.8578 89.5721 29.5703C89.2054 29.2824 89.0217 28.9489 89.0217 28.5709C89.0217 28.1106 89.413 26.6685 90.196 24.2442C90.979 21.8198 91.7703 19.5898 92.5699 17.5533Z" fill="#42AD06"/>
<path d="M104.5 26.0089L104.45 26.2557C104.45 26.3963 104.434 26.598 104.401 26.8619C104.368 27.2654 104.322 27.5955 104.265 27.8511C104.207 28.1062 104.121 28.3187 104.005 28.4877C103.89 28.6566 103.733 28.8358 103.535 29.0253C102.934 29.5772 102.328 29.8534 101.718 29.8534C101.223 29.8534 100.859 29.6722 100.624 29.3098C100.389 28.947 100.271 28.3618 100.271 27.5543C100.271 26.9114 100.344 26.1181 100.488 25.1745C100.632 24.2309 100.807 23.3838 101.013 22.6336L101.112 22.3124C101.112 22.2629 101.137 22.1601 101.186 22.0034C101.491 20.8825 101.771 20.0521 102.027 19.5124C102.283 18.9728 102.592 18.538 102.954 18.2079C103.276 17.9523 103.638 17.8245 104.042 17.8245C104.627 17.8245 104.982 18.179 105.106 18.8876C105.221 18.7892 105.332 18.6736 105.44 18.5419C105.678 18.253 105.864 18.0615 105.995 17.967C106.127 17.8725 106.28 17.8245 106.453 17.8245C107.162 17.8245 107.516 18.5252 107.516 19.9262C107.516 20.6925 107.433 21.4349 107.269 22.1513C107.104 22.8687 106.896 23.4538 106.645 23.9073C106.393 24.3607 106.144 24.5869 105.897 24.5869C105.625 24.5869 105.489 24.0718 105.489 23.042C105.489 22.498 105.458 22.0715 105.396 21.7625C105.334 21.453 105.237 21.2121 105.106 21.0392C104.858 21.5005 104.698 22.5558 104.623 24.204C104.565 25.1598 104.524 25.7616 104.5 26.0089Z" fill="#42AD06"/>
<path d="M116.158 25.9099L115.948 26.0833C115.907 26.1078 115.63 26.3178 115.12 26.7135C114.13 27.4881 113.315 28.1002 112.671 28.5493C112.028 28.9983 111.493 29.3278 111.065 29.5384C110.636 29.7485 110.29 29.8538 110.026 29.8538C109.581 29.8538 109.224 29.6701 108.957 29.3034C108.689 28.9366 108.555 28.4611 108.555 27.8755C108.555 26.8863 108.703 25.7346 109 24.4203C109.297 23.1056 109.697 21.8094 110.199 20.5318C110.751 19.1147 111.427 18.249 112.227 17.9361C112.507 17.8122 112.836 17.7505 113.215 17.7505C113.734 17.7505 114.155 17.9111 114.477 18.2318C114.798 18.5531 114.959 18.9771 114.959 19.504C114.954 19.8664 114.89 20.2488 114.766 20.6528C114.642 21.0568 114.444 21.5381 114.171 22.0988L114.022 22.4567C113.313 23.9591 112.959 24.8703 112.959 25.1926C112.959 25.3825 113.025 25.4771 113.157 25.4771C113.28 25.4771 113.441 25.3909 113.638 25.2175C113.836 25.0447 114.141 24.7274 114.555 24.2656C114.81 23.9527 115.173 23.561 115.644 23.0909L116.102 22.6335L116.498 22.2139C117.332 21.3893 118.012 20.7938 118.541 20.427C119.069 20.0608 119.506 19.8771 119.853 19.8771C120.513 19.8771 120.844 20.4501 120.844 21.5954C120.844 21.8344 120.814 22.2589 120.757 22.8686C120.658 24.0555 120.608 25.0613 120.608 25.885C120.616 26.0505 120.623 26.2003 120.627 26.3364C120.631 26.4726 120.633 26.6474 120.633 26.8619C120.691 27.4137 120.732 27.8383 120.757 28.135L120.844 28.8396C120.844 29.0869 120.621 29.3058 120.176 29.4953C119.731 29.6848 119.215 29.7793 118.63 29.7793C118.095 29.7793 117.635 29.6745 117.252 29.4645C116.868 29.2539 116.578 28.943 116.38 28.5307C116.183 28.1188 116.084 27.6159 116.084 27.0225C116.084 26.9485 116.092 26.8188 116.108 26.6332C116.125 26.4476 116.141 26.2067 116.158 25.9099Z" fill="#42AD06"/>
<path d="M125.257 17.4787C124.482 17.4538 124.095 16.9886 124.095 16.0817C124.095 15.6283 124.208 15.1028 124.434 14.5049C124.661 13.908 124.919 13.4649 125.207 13.1765C125.355 13.0203 125.506 12.9086 125.658 12.8425C125.811 12.7769 126.007 12.7436 126.246 12.7436C126.658 12.7436 126.961 12.845 127.154 13.0467C127.348 13.2484 127.445 13.5844 127.445 14.0544C127.445 14.6396 127.344 15.1934 127.142 15.7169C126.94 16.2404 126.67 16.6644 126.332 16.99C125.994 17.3162 125.648 17.4787 125.294 17.4787H125.257ZM123.77 29.9027C123.4 29.8783 123.063 29.7098 122.758 29.3964C122.454 29.0669 122.237 28.7099 122.11 28.3265C121.983 27.9436 121.918 27.447 121.918 26.8369C121.918 25.4771 122.172 23.9419 122.679 22.232C123.186 20.5221 123.761 19.2832 124.404 18.5168C124.659 18.1956 125.013 18.0345 125.466 18.0345C125.944 18.0345 126.329 18.2534 126.622 18.6902C126.914 19.127 127.061 19.6994 127.061 20.408C127.061 21.4549 126.91 22.6805 126.608 24.0854C126.307 25.4913 125.884 26.952 125.339 28.468C125.125 29.0781 124.861 29.4909 124.548 29.7049C124.335 29.8371 124.083 29.9027 123.795 29.9027H123.77Z" fill="#42AD06"/>
<path d="M130.635 17.8246L130.684 17.6763C131.229 16.1436 131.699 15.0639 132.095 14.4376C132.285 14.1408 132.549 13.8769 132.888 13.6463C133.523 13.2423 134.121 13.0405 134.682 13.0405C135.012 13.0405 135.263 13.1145 135.437 13.2633C135.61 13.4122 135.697 13.6267 135.697 13.9073C135.697 14.0968 135.573 14.4841 135.324 15.0678C134.901 16.0403 134.586 16.9506 134.379 17.7992C134.519 17.8163 134.655 17.8408 134.787 17.8736C135.282 17.9475 135.608 18.0323 135.765 18.1273C135.922 18.2218 136 18.3932 136 18.6404C136 19.0772 135.889 19.4812 135.666 19.8524C135.444 20.2236 135.152 20.4953 134.789 20.6682C134.518 20.7921 134.077 20.8748 133.467 20.9155C133.362 21.2377 133.244 21.6784 133.113 22.2391C133.04 22.7341 132.959 23.4187 132.868 24.2923C132.819 24.6135 132.794 24.9141 132.794 25.1942C132.794 26.4958 133.425 27.1461 134.686 27.1461H134.797C134.945 27.1461 135.02 27.171 135.02 27.2205C135.02 27.3522 134.879 27.5745 134.599 27.8879C134.319 28.2013 134.01 28.4775 133.672 28.7165C133.31 28.9637 132.913 29.1611 132.484 29.3095C132.055 29.4578 131.667 29.5323 131.321 29.5323C130.453 29.5323 129.749 29.2399 129.208 28.6548C128.668 28.0691 128.397 27.2944 128.397 26.3298C128.397 25.9185 128.469 25.3784 128.614 24.7104C128.757 24.043 128.982 23.1489 129.287 22.028C129.336 21.8302 129.39 21.6226 129.448 21.4037C129.505 21.1853 129.539 21.0555 129.546 21.0144C129.217 21.0061 128.982 20.936 128.842 20.8043C128.702 20.6721 128.632 20.4581 128.632 20.1614C128.632 19.6423 128.832 19.1517 129.232 18.6899C129.631 18.2286 130.099 17.9402 130.635 17.8246Z" fill="#42AD06"/>
</svg>
