<svg width="128" height="76" viewBox="0 0 128 76" fill="none" xmlns="http://www.w3.org/2000/svg">
<path d="M12.9957 72.2233C11.3437 72.1986 9.7459 71.9 8.20358 71.3096C8.09765 71.2692 7.94543 71.2668 7.9266 71.1182C7.90738 70.9663 8.05816 70.9322 8.15218 70.8703C10.7 69.1919 12.9817 67.223 14.8393 64.785C16.9088 62.0689 18.1187 59.0121 18.526 55.6259C18.8566 52.878 18.8863 50.129 18.5644 47.3814C18.338 45.4502 17.7902 43.5887 17.2293 41.7341C16.8468 40.4693 16.5483 39.1906 16.5004 37.8646C16.4354 36.063 16.8131 34.3451 17.4443 32.6646C17.9301 31.3713 18.457 30.0935 18.8672 28.7705C19.3073 27.3507 19.0468 26.0659 18.278 24.84C17.301 23.2824 16.0891 21.9105 14.8893 20.5281C13.9548 19.4514 12.9459 18.434 12.2085 17.1986C11.2978 15.6734 10.94 14.0354 11.2594 12.279C11.3866 11.5799 11.7561 10.977 12.2205 10.4466C12.7288 9.86585 13.3747 9.74933 14.0839 10.0674C14.5631 10.2821 15.0201 10.5359 15.4262 10.8702C15.5791 10.9958 15.7388 11.0483 15.934 11.0487C17.1106 11.051 18.2873 11.0659 19.4639 11.0662C27.9296 11.0682 36.3952 11.0666 44.8607 11.0704C45.405 11.0706 45.949 11.1115 46.4933 11.1237C46.7097 11.1286 46.8236 11.1921 46.8566 11.4346C46.9114 11.8374 46.9214 12.2387 46.8933 12.6403C46.8679 13.0044 46.6909 13.2824 46.3969 13.518C45.003 14.6352 43.4093 15.2143 41.6441 15.4193C39.9351 15.6178 38.2299 15.8763 36.5057 15.8033C33.9392 15.6946 31.3678 15.6478 28.8112 15.3708C25.1452 14.9738 21.5324 15.2652 17.9606 16.1527C17.4303 16.2845 17.3929 16.3903 17.7336 16.8143C19.0239 18.4208 20.2686 20.0581 21.2861 21.8581C22.4305 23.8824 23.0725 26.0464 23.2882 28.3635C23.4843 30.4695 23.5774 32.5784 23.677 34.6889C23.8223 37.7693 23.8919 40.8509 23.8532 43.934C23.8304 45.7469 23.571 47.5374 23.2192 49.3141C22.7413 51.7286 22.3259 54.1567 21.7222 56.5446C21.0093 59.3647 19.8825 62.0354 18.7206 64.691C17.7201 66.9779 16.5826 69.1971 15.385 71.387C15.1151 71.8808 14.7611 72.1447 14.2026 72.1581C13.8 72.1676 13.398 72.2007 12.9957 72.2233Z" fill="#E71C30"/>
<path d="M6.65619 71.9492C6.87877 71.9374 7.071 71.9811 7.25356 72.0535C10.4211 73.3084 13.7235 73.5769 17.1003 73.5775C21.2527 73.5782 24.9943 72.3028 28.5813 70.359C33.8762 67.4896 38.9478 64.2706 43.8354 60.7543C48.5644 57.352 53.292 53.9469 58.0584 50.5974C61.6993 48.0387 65.459 45.6589 69.4783 43.7268C73.8009 41.6487 78.2945 40.0492 83.0082 39.1154C86.9554 38.3335 90.9411 38.0034 94.9624 38.262C101.825 38.7029 108.188 40.7904 114.167 44.131C117.913 46.224 121.308 48.7967 124.494 51.6576C125.296 52.3781 126.085 53.1138 126.874 53.849C126.959 53.9279 127.154 54.0096 127.062 54.1391C126.954 54.2911 126.786 54.1917 126.663 54.0891C125.394 53.033 123.973 52.2005 122.579 51.3318C118.228 48.6204 113.534 46.6868 108.632 45.2341C105.498 44.3053 102.305 43.6754 99.0636 43.2504C95.3547 42.7642 91.6363 42.6892 87.9111 42.8946C84.7889 43.0667 81.7639 43.786 78.7746 44.6689C72.9229 46.3971 67.388 48.8729 62.009 51.7271C55.8375 55.0019 49.9531 58.7468 44.1011 62.5499C40.0645 65.1734 36.0685 67.8588 31.9673 70.3845C27.8444 72.9238 23.4047 74.5574 18.6451 75.3635C15.1926 75.9483 11.7147 76.1013 8.22205 75.9393C5.57458 75.8166 2.94934 75.4842 0.343187 75.004C0.216077 74.9804 0.0161273 75.0233 0.000696223 74.8333C-0.0118579 74.6806 0.147946 74.6002 0.271656 74.5352C0.425443 74.4544 0.589561 74.3928 0.749888 74.3248C2.4851 73.5893 4.22083 72.8549 5.95552 72.1183C6.18777 72.0196 6.41845 71.9226 6.65619 71.9492Z" fill="#8C6139"/>
<path d="M54.0351 44.9935C54.1202 44.9112 54.1007 44.8309 54.1016 44.7586C54.1389 41.7088 54.2299 38.6593 54.1573 35.6089C54.1402 34.8901 54.0511 34.1762 53.9433 33.4657C53.8227 32.6713 53.4029 32.0309 52.8797 31.4455C52.5432 31.0692 52.552 30.9325 52.8875 30.5577C53.7085 29.6407 54.5391 28.7319 55.3361 27.7945C55.7085 27.3566 56.0029 26.852 56.4485 26.4752C56.5246 26.4108 56.579 26.2664 56.7088 26.3329C56.812 26.3857 56.7618 26.5103 56.766 26.6034C56.847 28.3808 56.6513 30.1505 56.6097 31.9248C56.5643 33.8632 56.4763 35.8011 56.527 37.74C56.568 39.3103 56.4984 40.8768 56.4205 42.4429C56.2964 44.9361 56.2786 47.43 56.3313 49.9245C56.3419 50.4242 56.1941 50.8026 55.8224 51.1313C55.2423 51.6443 54.6458 52.1345 54.0141 52.582C53.6605 52.8325 53.5754 52.814 53.3595 52.4333C51.9239 49.9021 50.3769 47.4424 48.5829 45.1479C47.352 43.5734 45.9756 42.1327 44.4084 40.885C43.7637 40.3717 43.0251 40.0247 42.2432 39.7725C41.5511 39.5492 40.8645 39.6909 40.1801 39.8271C40.0744 39.848 39.9417 39.9237 39.8714 39.8379C39.7964 39.7463 39.9142 39.6401 39.9614 39.5484C40.6446 38.2208 41.3926 36.9311 42.2561 35.7118C42.6293 35.1847 43.0534 34.7055 43.6477 34.407C43.8214 34.3196 43.9666 34.3236 44.1379 34.41C44.6858 34.6866 45.1851 35.0288 45.642 35.439C48.7295 38.2105 51.3935 41.3527 53.7906 44.7295C53.8577 44.824 53.9031 44.9422 54.0351 44.9935Z" fill="#8C6139"/>
<path d="M27.1576 69.0391C27.2988 68.3774 27.4471 67.6747 27.5991 66.9727C29.0233 60.3918 30.3041 53.7835 31.3746 47.1352C31.4744 46.5157 31.7194 45.9711 32.1403 45.5029C33.0007 44.5455 33.7964 43.5374 34.5151 42.4682C34.7635 42.0984 35.0719 41.7912 35.558 41.767C35.9747 41.7463 36.1682 41.8838 36.2511 42.2943C36.5182 43.6164 36.7629 44.9431 37.0371 46.2637C37.9034 50.4367 39.0104 54.5371 40.7477 58.4454C41.0402 59.1034 41.3635 59.7463 41.7743 60.3372C41.9619 60.6069 41.9126 60.7624 41.6744 60.9608C40.8294 61.6655 39.9955 62.3838 39.1682 63.1095C38.962 63.2905 38.876 63.2807 38.7606 63.0215C38.1245 61.5937 37.7132 60.0897 37.2439 58.6056C36.176 55.2285 35.1998 51.8274 34.5738 48.3352C34.5045 47.9486 34.335 47.8424 33.952 47.9101C33.1428 48.0535 32.8383 48.3567 32.7344 49.1272C32.2918 52.4082 31.7381 55.6712 31.143 58.9274C31.1113 59.1005 30.9637 59.3285 31.1286 59.4441C31.3177 59.5764 31.5475 59.4336 31.7359 59.3242C32.7151 58.755 33.6917 58.1813 34.6691 57.6091C34.7631 57.554 34.8553 57.496 34.9496 57.4416C35.2454 57.2709 35.3317 57.3003 35.4507 57.6298C35.7025 58.327 35.8946 59.0408 36.041 59.7677C36.1111 60.1156 36.0026 60.3371 35.6867 60.5165C34.4643 61.2104 33.2801 61.9627 32.1369 62.7846C31.0734 63.5493 30.5705 64.5614 30.5705 65.8495C30.5705 66.2744 30.5583 66.6999 30.5792 67.1239C30.5981 67.5072 30.447 67.7629 30.1163 67.9493C29.2907 68.4149 28.4743 68.8965 27.6513 69.3663C27.5355 69.4323 27.4202 69.5747 27.2703 69.4804C27.1276 69.3906 27.2035 69.2201 27.1576 69.0391Z" fill="#8C6139"/>
<path d="M118.758 38.7071C118.852 38.6644 118.819 38.5779 118.823 38.5083C118.91 37.0093 118.753 35.533 118.467 34.0609C118.202 32.7031 117.755 31.3922 117.487 30.037C117.374 29.4683 117.347 28.8929 117.369 28.3133C117.377 28.1182 117.453 28.0248 117.643 27.9736C118.841 27.6503 120.059 27.6859 121.277 27.7688C121.589 27.7901 121.758 28.0128 121.759 28.3285C121.766 30.224 121.777 32.1193 121.673 34.0138C121.577 35.7757 121.498 37.5387 121.438 39.3022C121.366 41.458 121.287 43.6131 121.166 45.7666C121.153 45.9893 121.155 46.288 120.955 46.3789C120.807 46.446 120.647 46.1858 120.5 46.0648C119.252 45.0379 117.895 44.1691 116.52 43.3278C116.352 43.2252 116.235 43.1129 116.217 42.9003C116.051 40.9705 115.461 39.1538 114.73 37.3759C113.021 33.2243 110.82 29.3347 108.432 25.544C107.573 24.1809 106.282 23.5683 104.753 23.3392C104.175 23.2527 104.103 23.1174 104.468 22.648C105.087 21.8542 105.909 21.2947 106.773 20.8027C107.051 20.6443 107.365 20.6955 107.654 20.8375C108.102 21.0569 108.477 21.3661 108.795 21.7477C110.16 23.3857 111.265 25.2011 112.361 27.0193C114.619 30.7658 116.764 34.5745 118.629 38.5359C118.658 38.5981 118.664 38.6882 118.758 38.7071Z" fill="#8C6139"/>
<path d="M82.0005 29.8247C82.0005 27.4168 82.0007 25.0089 82.0004 22.601C82.0003 22.1662 81.9992 22.1693 81.5637 22.1588C80.8646 22.1422 80.1717 22.1845 79.4872 22.3389C79.3647 22.3665 79.2156 22.4217 79.1154 22.3124C79.0022 22.1888 79.1188 22.0652 79.1755 21.9571C79.9538 20.4721 80.7799 19.0142 81.6461 17.5786C81.8542 17.2336 82.1607 17.0805 82.5422 17.0782C84.4378 17.067 86.3425 16.9492 88.2259 17.1622C90.7626 17.4492 92.315 18.9328 92.544 21.5098C92.876 25.2468 91.4311 28.292 88.5305 30.6509C88.076 31.0205 87.6211 31.4002 87.049 31.5896C86.6547 31.7201 86.5888 31.675 86.6019 31.2573C86.6087 31.0395 86.6302 30.8352 86.8422 30.6853C88.2795 29.6691 89.0013 28.2272 89.3158 26.5342C89.4939 25.5755 89.6001 24.6221 89.4511 23.6478C89.2253 22.1713 87.9121 21.2111 86.4312 21.4601C85.4551 21.6242 85.3956 21.6887 85.3944 22.7318C85.39 27.1662 85.3908 31.6007 85.3865 36.0352C85.3862 36.3507 85.3628 36.6663 85.3474 36.9817C85.3346 37.243 85.194 37.3703 84.9332 37.3892C84.1186 37.4483 83.3048 37.5172 82.4904 37.5754C82.1081 37.6027 82.0026 37.4997 82.0024 37.1138C82.0012 34.684 82.0018 32.2544 82.0018 29.8247H82.0005Z" fill="#8C6139"/>
<path d="M71.0971 35.8668C71.0137 38.832 69.8522 41.243 67.4559 43.044C65.331 44.6408 63.094 46.07 60.8699 47.5191C60.46 47.7862 60.0374 48.0334 59.6197 48.2883C59.3972 48.4241 59.2687 48.4071 59.1736 48.1151C58.8562 47.1408 58.8777 46.1923 59.295 45.254C59.7593 44.2099 60.2574 43.1842 60.9151 42.2447C61.0022 42.1203 61.1001 42.0021 61.2035 41.8907C61.5891 41.4743 61.8213 41.4834 62.1731 41.9248C62.3235 42.1135 62.4217 42.3322 62.5169 42.5516C62.5947 42.7307 62.6631 42.9141 62.7476 43.09C63.0446 43.709 63.308 43.8559 63.9868 43.7927C65.7883 43.6246 67.6667 41.6523 67.7337 39.8581C67.7915 38.3144 66.8452 37.1713 65.2204 36.7968C64.4941 36.6292 63.7522 36.6239 63.0179 36.542C62.1088 36.4407 61.2126 36.27 60.3239 36.0604C59.9272 35.9669 59.737 35.711 59.7031 35.2463C59.5654 33.3582 59.7711 31.5078 60.3689 29.71C61.2987 26.9128 62.6723 24.3857 64.8967 22.3862C65.9051 21.4799 67.0809 21.07 68.4341 21.1851C68.7095 21.2085 68.9633 21.3109 69.1954 21.4583C69.8137 21.8511 69.9776 22.3504 69.6926 23.0227C69.5829 23.2818 69.4549 23.5386 69.2974 23.771C68.7027 24.649 68.0002 25.437 67.2354 26.1702C67.1155 26.2853 67.0233 26.3752 66.9621 26.1128C66.6692 24.8564 65.4781 24.2856 64.2988 24.8161C63.4309 25.2066 62.9302 25.8971 62.6609 26.7793C62.3623 27.7573 62.2423 28.7497 62.3742 29.7751C62.4739 30.5485 62.8852 31.0199 63.6111 31.2422C64.3617 31.4721 65.1276 31.5032 65.9051 31.4226C66.6887 31.3414 67.4725 31.3689 68.2517 31.4808C69.3848 31.6434 70.1586 32.2696 70.5874 33.3259C70.9178 34.1399 71.1163 34.9813 71.0971 35.8668Z" fill="#8C6139"/>
<path d="M106.764 38.4719C106.137 38.2915 105.598 38.1353 105.057 37.9816C104.117 37.714 103.192 37.4032 102.274 37.0658C101.864 36.9152 101.64 36.6633 101.51 36.2595C101.069 34.8915 100.593 33.5343 100.157 32.1645C99.3713 29.6939 98.679 27.1965 98.0683 24.6769C97.9515 24.1951 97.726 23.8384 97.2315 23.6867C97.0072 23.6178 96.8427 23.662 96.7622 23.8923C96.7086 24.0457 96.661 24.2031 96.6316 24.3625C96.1751 26.8366 95.6899 29.305 95.1483 31.762C95.083 32.0576 95.162 32.111 95.4377 32.1079C96.3859 32.0967 97.3307 32.1602 98.2713 32.2847C98.6961 32.3408 98.9827 32.5231 99.1121 32.9708C99.2729 33.5283 99.3944 34.087 99.4526 34.6641C99.4794 34.9294 99.386 35.0175 99.1363 35.017C98.0906 35.0149 97.0448 35.0198 95.9992 35.0215C95.6292 35.0221 95.2602 35.0164 94.8916 35.0743C94.7115 35.1025 94.6296 35.1844 94.5886 35.3551C94.5019 35.7149 94.3965 36.0702 94.3044 36.429C94.2361 36.6949 94.0673 36.8345 93.7975 36.8597C93.0486 36.9298 92.298 36.9502 91.546 36.946C91.339 36.9448 91.2594 36.9209 91.3395 36.6753C93.0418 31.4579 94.4558 26.1605 95.7052 20.8182C95.8281 20.2924 96.0841 19.8889 96.5109 19.5594C97.638 18.689 98.7901 17.8482 99.8696 16.8083C99.942 17.2974 100.009 17.7329 100.07 18.1692C100.678 22.4672 101.558 26.7071 102.88 30.8449C103.645 33.2388 104.658 35.5252 106.104 37.5991C106.294 37.8727 106.506 38.1316 106.764 38.4719Z" fill="#8C6139"/>
<path d="M25.4866 37.6836C25.5017 40.4176 25.5715 43.1534 25.3484 45.8827C25.2189 47.4686 24.9336 49.0354 24.723 50.6113C24.2226 54.3577 23.6722 58.0985 23.4208 61.873C23.2797 63.993 23.2117 66.1169 23.3171 68.2414C23.3611 69.129 23.6252 69.9339 24.3535 70.5179C24.5689 70.6908 24.4984 70.7898 24.2775 70.8757C23.226 71.2849 22.1395 71.5526 21.0208 71.6918C20.7306 71.7279 20.5075 71.6246 20.3677 71.3629C19.8164 70.3309 19.4397 69.2528 19.478 68.0603C19.4893 67.7083 19.5628 67.3704 19.6505 67.0332C20.2845 64.5997 21.1194 62.2244 21.7437 59.7879C22.7004 56.0535 23.5359 52.2928 24.1589 48.4877C24.4161 46.9167 24.5132 45.3286 24.5749 43.7386C24.6018 43.0422 24.6421 42.3461 24.6917 41.651C24.7646 40.6277 24.7865 39.6067 24.6696 38.5844C24.5355 37.4133 24.5502 36.235 24.5343 35.059C24.5022 32.6611 24.3397 30.2711 24.1122 27.885C23.9172 25.8422 23.1873 23.9775 22.2109 22.1938C21.3119 20.5515 20.1667 19.0832 19.0141 17.619C18.8591 17.4222 18.7094 17.2212 18.56 17.02C18.3504 16.7372 18.3618 16.7129 18.6869 16.6086C19.427 16.3711 20.1922 16.2654 20.959 16.1665C21.5313 16.0928 22.1034 16.0189 22.6755 15.9433C23.1292 15.8834 23.2322 15.9714 23.2632 16.4382C23.3896 18.3405 23.5507 20.2397 23.7831 22.1324C23.8508 22.6847 23.96 23.2303 24.1121 23.7648C24.4313 24.8856 24.7683 26.0014 25.0922 27.1209C25.2376 27.6237 25.5292 27.9208 26.0821 27.9525C28.4967 28.0904 30.9121 28.2476 33.3286 28.034C34.4024 27.939 35.4516 27.6892 36.4801 27.3589C36.5903 27.3235 36.7499 27.1875 36.8264 27.3182C36.8933 27.4325 36.7118 27.5292 36.6357 27.6296C36.57 27.716 36.4867 27.789 36.4195 27.8744C35.7233 28.7584 34.7889 29.1483 33.692 29.2942C32.4647 29.4575 31.2603 29.3053 30.0478 29.1858C28.6832 29.0511 27.32 28.8787 25.9431 28.9508C25.4877 28.9746 25.4867 28.9711 25.4867 29.4148C25.4865 32.171 25.4866 34.9273 25.4866 37.6836Z" fill="#8C6139"/>
<path d="M77.6141 23.2779C77.6141 24.7378 77.7103 26.2055 77.595 27.6564C77.3146 31.1833 77.4526 34.7119 77.4179 38.2397C77.417 38.3378 77.4067 38.4359 77.4091 38.5337C77.4196 38.9339 77.2403 39.1631 76.8513 39.3025C76.075 39.5809 75.3127 39.8996 74.551 40.2169C74.2904 40.3254 74.231 40.2526 74.2386 39.9927C74.3103 37.5606 74.0943 35.1382 73.9917 32.7117C73.9141 30.8824 73.9743 29.0512 73.9644 27.2209C73.959 26.2512 73.9616 25.2814 73.9602 24.3118C73.9595 23.8858 73.959 23.8833 73.5191 23.8739C73.116 23.8653 72.7127 23.8559 72.3097 23.8598C72.0489 23.8623 72.0007 23.7429 72.0993 23.5327C72.1868 23.3463 72.2745 23.157 72.3879 22.9861C73.3149 21.5892 74.2611 20.2046 75.1743 18.7988C75.6678 18.039 76.4144 17.8936 77.217 17.8712C77.513 17.8629 77.6036 18.1034 77.6041 18.3748C77.6058 19.1812 77.6129 19.9874 77.6149 20.7937C77.6169 21.6218 77.6154 22.4498 77.6154 23.2779H77.6141Z" fill="#8C6139"/>
<path d="M43.659 53.1168C43.593 50.1985 43.7841 47.251 43.9086 44.3016C43.9292 43.8121 43.9121 43.321 43.9142 42.8308C43.9146 42.7331 43.9141 42.634 43.9296 42.538C43.9467 42.4327 43.9525 42.306 44.0698 42.2598C44.1917 42.2118 44.2729 42.3108 44.3498 42.3835C44.714 42.7279 45.0778 43.0727 45.4357 43.4234C45.7547 43.7359 46.0632 44.0573 46.447 44.2966C46.691 44.4488 46.8395 44.6753 46.8333 44.9744C46.7659 48.2014 47.1228 51.4165 47.1096 54.642C47.1067 55.3282 47.0995 56.0148 47.1046 56.7011C47.1068 57.01 46.9918 57.2577 46.7498 57.4354C45.7228 58.1897 44.6907 58.9372 43.6606 59.6875C43.4258 59.8586 43.4065 59.6973 43.4135 59.5216C43.4511 58.5638 43.4958 57.6062 43.5326 56.6483C43.5772 55.4835 43.6163 54.3186 43.659 53.1168Z" fill="#8C6139"/>
<path d="M107.924 33.6928C107.924 32.1579 107.925 30.6231 107.923 29.0882C107.923 28.6051 107.992 28.1349 108.153 27.6777C108.215 27.5034 108.28 27.4609 108.411 27.6238C109.107 28.4902 109.772 29.3794 110.281 30.3715C110.61 31.0145 110.647 31.7323 110.711 32.4345C110.943 34.9759 110.829 37.5249 110.864 40.0707C110.867 40.2995 110.825 40.3652 110.594 40.2492C109.807 39.8546 109.016 39.4691 108.219 39.0956C107.988 38.9876 107.907 38.8446 107.909 38.5913C107.919 36.9584 107.914 35.3256 107.914 33.6928H107.924Z" fill="#8C6139"/>
<path d="M31.0093 16.1308C31.4387 16.1902 31.7794 16.2657 32.1228 16.2802C35.0389 16.4043 37.9569 16.4362 40.8676 16.2035C42.6582 16.0605 44.3991 15.676 45.9277 14.6442C46.1245 14.5114 46.3208 14.3777 46.5159 14.2452C46.6139 14.3414 46.5546 14.4172 46.5264 14.4941C46.1627 15.4844 45.5769 16.3254 44.8014 17.0345C44.275 17.5158 43.6047 17.6849 42.9375 17.8442C39.4852 18.6685 36.1163 18.3179 32.8118 17.107C32.4448 16.9726 32.0804 16.8279 31.7234 16.669C31.4793 16.5602 31.2421 16.4289 31.0093 16.1308Z" fill="#8C6139"/>
<path d="M5.90405 10.6189C7.23008 8.09774 8.47372 5.53527 9.7528 2.99098C10.2123 2.07688 10.664 1.15873 11.1102 0.238101C11.1973 0.0584204 11.287 -0.0297198 11.5071 0.00898863C14.6937 0.57013 17.882 1.12238 21.0232 1.91054C21.5742 2.0489 22.1147 2.21642 22.6215 2.47678C22.7213 2.52804 22.8887 2.54047 22.884 2.68183C22.8801 2.79861 22.7244 2.81182 22.6316 2.85798C20.3881 3.97281 18.1039 5.00146 15.8384 6.07C12.7955 7.50509 9.70585 8.83661 6.65324 10.2496C6.39732 10.3681 6.14716 10.4987 5.90405 10.6189Z" fill="#F8D675"/>
<path d="M31.4252 24.7904C33.1927 24.7495 35.0645 24.7069 36.9363 24.6625C37.3411 24.6529 37.3729 24.6831 37.3362 25.0768C37.2258 26.2627 36.7741 26.7848 35.6144 27.0536C34.6791 27.2704 33.7321 27.3881 32.7701 27.3886C30.5927 27.3895 28.4151 27.3944 26.2376 27.4025C25.9271 27.4036 25.7508 27.2644 25.678 26.9678C25.5377 26.3968 25.3902 25.8277 25.2478 25.2573C25.1476 24.8556 25.1941 24.7916 25.6041 24.7912C27.5096 24.7894 29.4149 24.7904 31.4252 24.7904Z" fill="#E71C30"/>
<path d="M52.6853 12.1313C55.4349 11.6445 58.1522 11.0175 60.8814 10.4488C61.4324 10.334 61.4286 10.3339 61.5418 10.8879C61.6202 11.2715 61.6961 11.6543 61.7286 12.0457C61.7458 12.2531 61.6947 12.3374 61.4674 12.3296C59.5954 12.2651 57.7217 12.2603 55.8525 12.1096C54.7988 12.0246 53.7414 12.0632 52.6853 12.1313Z" fill="#F8D675"/>
<path d="M50.3234 13.9515C50.8285 15.5883 51.3493 17.1292 51.9227 18.6519C52.049 18.9872 52.1775 19.3217 52.3114 19.654C52.3727 19.8063 52.3467 19.8639 52.1686 19.8659C51.6868 19.8715 51.2139 19.818 50.7448 19.7112C50.5548 19.6679 50.3582 19.6038 50.1692 19.6168C49.8841 19.6364 49.859 19.506 49.8551 19.2726C49.8376 18.2331 50.0668 17.2176 50.1379 16.187C50.1874 15.4707 50.2559 14.7557 50.3234 13.9515Z" fill="#F8D675"/>
<path d="M52.6826 10.4005C53.8777 9.58567 54.9643 8.63156 56.0972 7.73695C56.7206 7.24446 57.3352 6.74046 57.9436 6.22954C58.1108 6.08896 58.225 6.05143 58.4086 6.21332C58.8159 6.57242 59.2458 6.90602 59.6683 7.25165C59.5934 7.39367 59.4635 7.40008 59.3626 7.44467C57.2445 8.38047 55.1328 9.32988 53.0515 10.3457C52.9554 10.3925 52.8643 10.4494 52.7711 10.5013C52.7419 10.4676 52.7122 10.4341 52.6826 10.4005Z" fill="#F8D675"/>
<path d="M53.0757 11.2481C55.154 10.3819 57.1551 9.34542 59.2246 8.45931C59.474 8.35247 59.7169 8.22352 59.9455 8.07771C60.1145 7.96983 60.2132 7.95675 60.3254 8.1499C60.5163 8.47879 60.7269 8.79709 60.94 9.11238C61.0793 9.31861 61.0253 9.39707 60.7917 9.45134C59.192 9.82221 57.5928 10.1956 55.9975 10.585C55.0269 10.8218 54.0635 11.0887 53.0971 11.3422C53.0901 11.3108 53.0829 11.2794 53.0757 11.2481Z" fill="#F8D675"/>
<path d="M52.6622 12.8521C54.0416 12.9429 55.4158 13.0523 56.7924 13.1105C57.9658 13.1601 59.1413 13.1562 60.307 13.3333C60.6189 13.3808 60.9392 13.374 61.2509 13.324C61.5411 13.2775 61.5639 13.3776 61.477 13.6185C61.389 13.8625 61.3171 14.1153 61.2705 14.3703C61.2212 14.6398 61.0918 14.6776 60.844 14.6223C59.5512 14.3333 58.2548 14.0595 56.9598 13.78C55.5273 13.4709 54.0947 13.1613 52.6622 12.8521Z" fill="#F8D675"/>
<path d="M51.1964 14.2148C52.5618 15.9231 54.0027 17.566 55.5049 19.1547C55.6766 19.3364 55.6638 19.3994 55.431 19.4591C54.896 19.596 54.3289 19.5913 53.8167 19.8308C53.7077 19.8817 53.6174 19.8127 53.5906 19.7083C53.3548 18.7937 52.8474 17.9995 52.4504 17.1581C51.992 16.1868 51.6237 15.1726 51.0775 14.243C51.1173 14.2337 51.1568 14.2243 51.1964 14.2148Z" fill="#F8D675"/>
<path d="M52.0497 14.0005C54.2311 15.324 56.4581 16.5671 58.7614 17.7827C58.2646 18.0931 57.8059 18.3736 57.3545 18.6656C57.2089 18.7597 57.1372 18.6723 57.0528 18.5863C55.9698 17.4822 54.7389 16.5422 53.6165 15.4808C53.1041 14.9963 52.5354 14.5713 51.9926 14.1196C52.0118 14.08 52.0307 14.0402 52.0497 14.0005Z" fill="#F8D675"/>
<path d="M53.1559 13.7021C53.4924 13.7883 53.7536 13.8442 54.0083 13.9219C56.0776 14.5538 58.144 15.1945 60.2156 15.8185C60.4973 15.9034 60.5122 15.9796 60.3147 16.1772C60.0398 16.4525 59.862 16.952 59.5263 16.9987C59.2168 17.0417 58.8528 16.7066 58.515 16.5336C56.8426 15.6769 55.1707 14.8194 53.4999 13.9596C53.3996 13.9081 53.2799 13.8786 53.1559 13.7021Z" fill="#F8D675"/>
<path d="M49.5117 14.3425C49.216 15.9304 48.6627 17.4569 48.3401 19.0623C47.751 18.7303 47.1484 18.3893 46.5441 18.0512C46.4488 17.9978 46.419 17.9492 46.4998 17.8528C47.4826 16.6791 48.463 15.5033 49.445 14.329C49.4483 14.3251 49.4653 14.3327 49.5117 14.3425Z" fill="#F8D675"/>
<path d="M41.1284 24.5391C41.546 24.0646 42.042 23.7416 42.6302 23.5766C43.0111 23.4696 43.361 23.3034 43.6952 23.0946C44.609 22.5237 45.5456 21.992 46.4867 21.4676C46.6955 21.3512 46.8288 21.321 46.9142 21.5975C46.9999 21.8747 47.2939 22.1642 47.1983 22.3973C47.1005 22.6359 46.6913 22.6205 46.4175 22.7079C44.7312 23.2464 43.0759 23.8736 41.4024 24.4487C41.3115 24.48 41.2197 24.509 41.1284 24.5391Z" fill="#F8D675"/>
<path d="M41.0402 23.6784C41.6643 23.1656 42.2512 22.6153 42.7607 21.9854C43.241 21.3914 43.7851 20.8562 44.3173 20.3099C44.447 20.1767 44.5662 20.1352 44.7495 20.2039C45.1346 20.3481 45.5286 20.4684 45.9734 20.6166C44.2605 21.633 42.755 22.8652 41.0659 23.8192C41.0574 23.7721 41.0488 23.7252 41.0402 23.6784Z" fill="#F8D675"/>
<path d="M38.6877 28.0044C38.6379 29.1301 38.6615 30.2479 38.7216 31.3654C38.7373 31.6587 38.7643 31.9513 38.7819 32.2445C38.7979 32.5158 38.6822 32.7145 38.4221 32.7987C38.092 32.9057 37.7728 33.037 37.4584 33.195C37.4022 33.0713 37.4631 32.9727 37.487 32.8739C37.7234 31.8899 37.9677 30.9077 38.2003 29.9227C38.2677 29.6376 38.3221 29.347 38.3519 29.0558C38.4132 28.4569 38.4047 28.4561 38.6877 28.0044Z" fill="#F8D675"/>
<path d="M36.8301 29.0941C36.7918 29.284 36.6727 29.4326 36.5702 29.5877C35.6642 30.9583 34.7513 32.3242 33.8523 33.6994C33.7324 33.8831 33.607 33.9496 33.3995 33.9132C33.1324 33.8664 32.8629 33.8337 32.5674 33.7909C32.6031 33.7351 32.6186 33.6978 32.6451 33.6713C34.0756 32.2389 35.3972 30.7093 36.6873 29.1513C36.723 29.1081 36.7646 29.075 36.8266 29.0893L36.8301 29.0941Z" fill="#F8D675"/>
<path d="M41.3159 25.1193C42.7252 24.813 44.1348 24.5076 45.5439 24.1998C46.0917 24.0801 46.6382 23.955 47.2298 23.8223C47.1112 24.1757 47.0025 24.4797 46.9086 24.788C46.8669 24.9251 46.7724 24.9401 46.6591 24.9422C46.344 24.9478 46.0285 24.9627 45.7135 24.9571C44.2456 24.9313 42.7897 25.1368 41.3256 25.1792C41.3296 25.1717 41.3383 25.1627 41.3364 25.1571C41.3323 25.1436 41.3231 25.1318 41.3159 25.1193Z" fill="#F8D675"/>
<path d="M40.5344 26.1182C42.1927 26.5395 43.74 27.1139 45.4173 27.4278C45.1212 27.7596 44.8517 28.0657 44.5774 28.3674C44.4631 28.4931 44.3792 28.3627 44.298 28.3132C43.3243 27.7188 42.3416 27.1403 41.3448 26.585C41.0952 26.4459 40.8077 26.3788 40.5344 26.1182Z" fill="#F8D675"/>
<path d="M39.2804 27.759C39.4915 27.8935 39.5131 28.0721 39.5413 28.2371C39.7333 29.3572 40.2145 30.3933 40.4786 31.4922C40.5002 31.5816 40.59 31.6738 40.4328 31.7232C40.1246 31.82 39.88 32.0223 39.6303 32.214C39.4895 32.3221 39.4189 32.2975 39.4025 32.1199C39.3904 31.9898 39.349 31.8564 39.3665 31.7307C39.4956 30.8024 39.3097 29.8854 39.2824 28.9629C39.2706 28.562 39.2804 28.1604 39.2804 27.759Z" fill="#F8D675"/>
<path d="M39.9354 27.3923C40.1198 27.4418 40.1614 27.6208 40.2501 27.7377C40.9013 28.597 41.6049 29.4101 42.3708 30.1682C42.501 30.297 42.4235 30.3416 42.3325 30.412C42.0139 30.658 41.6965 30.9054 41.3564 31.1695C40.8809 29.9058 40.411 28.6566 39.9354 27.3923Z" fill="#F8D675"/>
<path d="M37.5881 29.0182C37.6379 29.2656 37.5742 29.4815 37.5065 29.6981C37.1305 30.9 36.7496 32.1006 36.3886 33.3071C36.3294 33.5048 36.2354 33.5966 36.0477 33.6356C35.765 33.6942 35.4846 33.7639 35.1931 33.8312C35.9987 32.2145 36.9784 30.7096 37.5881 29.0182Z" fill="#F8D675"/>
<path d="M46.3974 25.9702C46.2683 26.1466 46.12 26.3567 45.9632 26.5601C45.8812 26.6667 45.7563 26.6803 45.635 26.655C44.2956 26.3752 42.9411 26.1682 41.6158 25.8212C41.5334 25.7996 41.4556 25.7606 41.3795 25.6929C43.0486 25.8008 44.7228 25.7167 46.3974 25.9702Z" fill="#F8D675"/>
<path d="M40.5788 26.9822C41.6597 27.6987 42.7353 28.4234 43.9009 29.1029C43.6587 29.3008 43.4431 29.4723 43.2329 29.6503C43.0763 29.7828 43.0255 29.6235 42.955 29.5498C42.3152 28.8807 41.6764 28.2106 41.0439 27.5347C40.8788 27.3581 40.6197 27.2662 40.5542 26.9989L40.5788 26.9822Z" fill="#F8D675"/>
<path d="M53.0148 13.7178C53.0462 13.6863 53.0775 13.6549 53.1089 13.6234C53.1543 13.6441 53.2132 13.6711 53.1756 13.7273C53.1283 13.7981 53.0694 13.7208 53.0148 13.7178Z" fill="#F8D675"/>
<path d="M40.4731 26.983C40.4982 26.9559 40.5233 26.9288 40.5484 26.9017C40.5585 26.9284 40.5685 26.9554 40.5788 26.9823L40.5543 26.9989C40.5272 26.9938 40.5001 26.9883 40.4731 26.983Z" fill="#FCFCFC"/>
</svg>
