<svg width="154" height="56" viewBox="0 0 154 56" fill="none" xmlns="http://www.w3.org/2000/svg">
<path d="M142.344 55.2592H11.656C5.21839 55.2592 0 50.0408 0 43.6032V20.6716C0 14.2346 5.21839 9.01563 11.656 9.01563H131.395C134.497 9.01563 137.556 8.28831 140.326 6.89213L154 -6.10352e-05V43.6032C154 50.0408 148.781 55.2592 142.344 55.2592Z" fill="#ED1C24"/>
<path d="M18.3688 37.3211C18.3688 38.7752 18.5658 39.7428 18.9597 40.226C19.3532 40.7088 20.1081 40.9739 21.2245 41.021V42.5119H13.8112V41.021C14.9173 40.9739 15.67 40.7088 16.0689 40.226C16.4672 39.7428 16.6663 38.7752 16.6663 37.3211V26.2366C16.6663 24.9892 16.5332 24.204 16.2658 23.8804C15.9985 23.5568 15.5082 23.3717 14.7955 23.3246L13.9237 23.2683V21.7634H22.7435L27.5544 35.0845L32.1683 21.7634H40.9464V23.2683L40.1163 23.3246C39.4036 23.3717 38.9133 23.5568 38.646 23.8804C38.3792 24.204 38.2455 24.9892 38.2455 26.2366V38.0528C38.2455 39.2904 38.3765 40.0713 38.6389 40.3949C38.9019 40.7185 39.3939 40.9036 40.1163 40.9501L40.9464 41.021V42.5119H30.6071V41.021L31.3246 40.9501C32.0558 40.8938 32.5525 40.7066 32.8155 40.3879C33.078 40.0691 33.2095 39.2904 33.2095 38.0528V23.409L26.5132 42.5119H25.163L18.3688 23.4372V37.3211Z" fill="white"/>
<path d="M53.7893 21.7632V23.2682L52.9592 23.3245C52.2465 23.3716 51.7568 23.5566 51.4894 23.8803C51.2221 24.2039 51.0884 24.9896 51.0884 26.2365V38.0526C51.0884 39.2903 51.2199 40.0712 51.4824 40.3948C51.7448 40.7184 52.2373 40.904 52.9592 40.9505L53.7893 41.0209V42.5118H43.1686V41.0209L44.0409 40.9505C44.7444 40.904 45.225 40.7232 45.4826 40.4088C45.7407 40.095 45.8695 39.3092 45.8695 38.0526V26.2365C45.8695 24.9701 45.7407 24.1806 45.4826 23.8662C45.225 23.5523 44.7396 23.3716 44.0269 23.3245L43.1686 23.2682V21.7632H53.7893Z" fill="white"/>
<path d="M63.8755 32.0603V38.0526C63.8755 39.478 64.0606 40.3525 64.4307 40.6761C64.8014 40.9997 65.5163 41.1615 66.5764 41.1615C68.0391 41.1615 69.1556 40.7703 69.924 39.9867C70.693 39.2042 71.0778 38.0666 71.0778 36.5758C71.0778 34.9534 70.5945 33.7904 69.6291 33.0869C68.6631 32.3839 67.064 32.0322 64.8322 32.0322C64.7197 32.0322 64.5579 32.0371 64.3468 32.0463C64.1358 32.0555 63.9788 32.0603 63.8755 32.0603ZM63.8755 26.2364V30.5267C64.0351 30.5364 64.2083 30.5435 64.3961 30.5483C64.5839 30.5527 64.8506 30.5548 65.1975 30.5548C67.045 30.5548 68.353 30.2718 69.1225 29.7041C69.8915 29.137 70.2758 28.1824 70.2758 26.8414C70.2758 25.7347 69.95 24.8624 69.2984 24.2249C68.6463 23.5874 67.7626 23.2681 66.6467 23.2681C65.5303 23.2681 64.7895 23.4186 64.4242 23.7184C64.0584 24.0187 63.8755 24.8581 63.8755 26.2364ZM65.1694 21.7632C69.0051 21.7632 71.7082 22.1409 73.2792 22.8958C74.8496 23.6507 75.6354 24.9095 75.6354 26.6726C75.6354 27.9481 75.0986 28.9725 74.0244 29.7463C72.9507 30.5197 71.3543 31.0191 69.2351 31.2443C71.7856 31.6009 73.6661 32.2265 74.8756 33.1221C76.0856 34.0177 76.6906 35.225 76.6906 36.7446C76.6906 37.6353 76.498 38.4492 76.1138 39.1852C75.729 39.9217 75.1662 40.5522 74.4259 41.0771C73.685 41.5928 72.7304 41.9614 71.5632 42.1811C70.3954 42.4019 68.6766 42.5117 66.4076 42.5117H55.9562V41.0208L56.828 40.9505C57.5315 40.9039 58.012 40.7232 58.2696 40.4088C58.5278 40.0949 58.6566 39.3097 58.6566 38.0526V26.2364C58.6566 24.9701 58.5278 24.1805 58.2696 23.8661C58.012 23.5523 57.5266 23.3715 56.8139 23.3244L55.9562 23.2681V21.7632H65.1694Z" fill="white"/>
<path d="M90.1102 21.7632V23.2682L89.2801 23.3245C88.5674 23.3716 88.0776 23.5566 87.8103 23.8803C87.543 24.2039 87.4093 24.9896 87.4093 26.2365V38.0526C87.4093 39.2903 87.5408 40.0712 87.8033 40.3948C88.0657 40.7184 88.5582 40.904 89.2801 40.9505L90.1102 41.0209V42.5118H79.49V41.0209L80.3618 40.9505C81.0653 40.904 81.5458 40.7232 81.8034 40.4088C82.0616 40.095 82.1909 39.3092 82.1909 38.0526V26.2365C82.1909 24.9701 82.0616 24.1806 81.8034 23.8662C81.5458 23.5523 81.0604 23.3716 80.3477 23.3245L79.49 23.2682V21.7632H90.1102Z" fill="white"/>
<path d="M102.897 21.7632V23.2682L102.067 23.3245C101.354 23.3716 100.864 23.5566 100.597 23.8803C100.33 24.2039 100.196 24.9896 100.196 26.2365V30.7237H107.947V26.2365C107.947 24.9896 107.813 24.2039 107.546 23.8803C107.279 23.5566 106.788 23.3716 106.076 23.3245L105.204 23.2682V21.7632H115.867V23.2682L115.009 23.3245C114.286 23.3716 113.794 23.5566 113.532 23.8803C113.269 24.2039 113.138 24.9896 113.138 26.2365V38.0526C113.138 39.2903 113.271 40.0739 113.538 40.4018C113.806 40.7303 114.291 40.9132 114.995 40.9505L115.867 41.0209V42.5118H105.204V41.0209L106.076 40.9505C106.798 40.904 107.291 40.7184 107.553 40.3948C107.816 40.0712 107.947 39.2903 107.947 38.0526V32.3975H100.196V38.0526C100.196 39.2903 100.328 40.0712 100.59 40.3948C100.852 40.7184 101.345 40.904 102.067 40.9505L102.897 41.0209V42.5118H92.2767V41.0209L93.1485 40.9505C93.852 40.904 94.3326 40.7232 94.5902 40.4088C94.8483 40.095 94.9777 39.3092 94.9777 38.0526V26.2365C94.9777 24.9701 94.8483 24.1806 94.5902 23.8662C94.3326 23.5523 93.8472 23.3716 93.1345 23.3245L92.2767 23.2682V21.7632H102.897Z" fill="white"/>
<path d="M123.308 33.6077H130.13L126.909 25.2799L123.308 33.6077ZM122.548 35.2815L121.577 37.6729C121.465 37.9451 121.378 38.2141 121.318 38.482C121.257 38.7493 121.226 39.0096 121.226 39.2623C121.226 39.844 121.397 40.2754 121.74 40.5562C122.082 40.8376 122.605 40.9789 123.308 40.9789H124.082V42.512H116.19V40.9929C116.949 40.955 117.594 40.6883 118.124 40.1909C118.654 39.6942 119.191 38.8359 119.735 37.6166L126.754 21.7634H130.735L137.22 38.4468C137.567 39.3283 137.963 39.9588 138.409 40.3387C138.854 40.7186 139.448 40.9318 140.188 40.9789V42.512H129.385V40.9929C130.557 40.955 131.345 40.8501 131.748 40.6764C132.151 40.5026 132.353 40.2001 132.353 39.7688C132.353 39.6471 132.316 39.4615 132.24 39.2131C132.165 38.9647 132.03 38.5777 131.832 38.0528L130.792 35.2815H122.548Z" fill="white"/>
</svg>
