<svg width="157" height="62" viewBox="0 0 157 62" fill="none" xmlns="http://www.w3.org/2000/svg">
<path d="M0 4.02917V37.3368H5.04203V34.5731H17.2313V30.0383H5.04203V8.49175H18.2834V4.02917H0Z" fill="#3DB393"/>
<path d="M5.04203 39.1547H0V60.7992H5.04203V39.1547Z" fill="#3E87D5"/>
<path d="M39.9392 56.4107L29.166 56.6282V43.9317H39.9392V56.4107ZM39.9392 39.1547V40.1593H28.5855C25.8524 40.1593 24.4858 41.514 24.4858 44.2224V57.0999C24.4858 59.7114 25.8039 61.0176 28.4402 61.0176C29.867 61.0176 31.7656 60.8723 34.1358 60.5826C36.0452 60.3403 37.9566 60.0872 39.8671 59.8212V60.8001H44.6184V39.1547H39.9392Z" fill="#3E87D5"/>
<path d="M29.5646 29.5307H39.9394V37.3375H44.6185V29.6029C44.6185 26.8708 43.2638 25.5042 40.5564 25.5042H28.9486C26.2392 25.5042 24.8855 26.8708 24.8855 29.6029V35.5517H29.5646V29.5307Z" fill="#3DB393"/>
<path d="M58.0294 37.3372L55.4644 25.5038L50.4956 25.5043L53.4318 37.3371L58.0294 37.3372Z" fill="#3DB393"/>
<path d="M69.4808 37.3372L72.4057 25.5041L67.5816 25.5044L64.9857 37.3374L69.4808 37.3372Z" fill="#3DB393"/>
<path d="M64.5871 39.155L61.4871 53.2913L58.4238 39.155H53.8831L59.2741 60.8726H63.6635L69.0319 39.155H64.5871Z" fill="#3E87D5"/>
<path d="M93.7721 39.155V56.5554H83.1432V39.155H78.3187V56.7008C78.3187 59.4339 79.6724 60.8005 82.3818 60.8005H94.4979C97.2301 60.8005 98.5966 59.4339 98.5966 56.7008V39.155H93.7721Z" fill="#3E87D5"/>
<path d="M83.143 37.3373V29.7481H93.7719V37.3373H98.5964V29.6027C98.5964 26.8706 97.2298 25.504 94.4977 25.504H82.3816C79.6722 25.504 78.3185 26.8706 78.3185 29.6027V37.3373H83.143Z" fill="#3DB393"/>
<path d="M111.293 39.1547H106.468V60.8002H111.293V39.1547Z" fill="#3E87D5"/>
<path d="M111.293 37.3373V30.111L120.18 29.8213V37.1119H124.933V29.2408C124.933 26.6056 123.602 25.2865 120.942 25.2865C119.66 25.2865 118.051 25.4319 116.117 25.7216C114.498 25.9886 112.889 26.2427 111.293 26.483V25.504H106.468V37.3373H111.293Z" fill="#3DB393"/>
<path d="M136.177 7.61389H131.281V12.9812L136.177 15.0261V7.61389Z" fill="#3DB393"/>
<path d="M131.353 37.3374H136.105V25.5041L131.353 23.9892V37.3374Z" fill="#3DB393"/>
<path d="M136.105 39.1547H131.353V60.8002H136.105V39.1547Z" fill="#3E87D5"/>
<path d="M150.833 39.155H146.08V56.7008C146.08 59.4339 147.435 60.8005 150.143 60.8005H157V56.5554H150.833V39.155Z" fill="#3E87D5"/>
<path d="M146.08 37.3373H150.833V29.7481H157V25.504H150.833V14.5122H146.08V25.504H141.836V29.7481H146.08V37.3373Z" fill="#3DB393"/>
<path d="M16.7904 24.038L89.1753 5.36603L89.1993 0.0159037L16.7898 18.6953L16.7904 24.038Z" fill="#3E87D5"/>
<path d="M89.1754 0V5.38416L136.222 23.3205V17.9512L89.1754 0Z" fill="#3DB393"/>
</svg>
