<svg width="151" height="43" viewBox="0 0 151 43" fill="none" xmlns="http://www.w3.org/2000/svg">
<path d="M62.7967 19.5425H71.7653V33.5251L66.4759 39.0766H59.0654L53.8281 33.5518V8.62332L59.1436 3.35999H66.4231L71.7653 8.57115V15.0127H67.4709V10.4041L64.5119 7.44506H61.0293L58.1225 10.2991V31.8754L60.9505 34.8872H64.5902L67.5231 31.745V23.9152H62.7967V19.5425Z" fill="#1A1A1A"/>
<path d="M90.3564 19.5164L87.5284 22.7108H83.1291V7.52393H87.5284L90.3564 10.509V19.5164ZM90.88 25.2773L94.7029 21.2183V8.83324L89.2564 3.3606H78.6254V39.0766H83.0247V27.1623H87.0048L92.4514 39.0766H97.1644L90.88 25.2773Z" fill="#1A1A1A"/>
<path d="M105.229 25.277L107.848 7.41871H108.738L111.671 25.277H105.229ZM112.561 3.36035H104.286L98.8927 39.0763H103.344L104.654 29.5714H111.985L113.609 39.0763H118.008L112.561 3.36035Z" fill="#1A1A1A"/>
<path d="M122.721 3.36023H128.534L136.023 28.1048V3.36023H139.899V39.0762H135.342L126.596 11.818V39.0762H122.721V3.36023Z" fill="#1A1A1A"/>
<path d="M146.915 3.12451H151V39.0765H146.915V3.12451Z" fill="#1A1A1A"/>
<path d="M3.76 42.1995C1.68597 42.1995 0 40.5136 0 38.4396V3.76C0 1.68597 1.68597 0 3.76 0H38.5668C40.6472 0 42.3268 1.68597 42.3268 3.76V38.4396C42.3268 40.5136 40.6472 42.1995 38.5668 42.1995H3.76ZM12.3615 36.9572H29.9654L38.7704 21.0966L33.9353 12.3933H16.3314L11.4963 21.0966L16.3314 29.8062H25.9954L30.8306 21.0966L29.8381 19.3088H21.0075V22.8907H25.8682L24.0104 26.2308H18.3164L15.4662 21.0966L18.3164 15.9688H31.6576L34.8005 21.0966L27.9803 33.3817H14.3465L7.52637 21.0966L14.3465 8.81781H31.9503L29.9654 5.24233H12.3615L3.55645 21.0966L12.3615 36.9572Z" fill="#1A1A1A"/>
</svg>
