<svg width="115" height="84" viewBox="0 0 115 84" fill="none" xmlns="http://www.w3.org/2000/svg">
<mask id="mask0_46_3713" style="mask-type:luminance" maskUnits="userSpaceOnUse" x="0" y="0" width="115" height="84">
<path d="M115 0H0V83.8372H115V0Z" fill="white"/>
</mask>
<g mask="url(#mask0_46_3713)">
<path d="M91.6685 6.10352e-05H18.4558L0.000488281 21.0916L55.1634 82.136L110.326 20.889L91.6685 6.10352e-05Z" fill="#93D9F8"/>
<path d="M91.668 0L54.5545 81.4629L55.163 82.1362L110.326 20.8892L91.668 0Z" fill="#7BD3F7"/>
<path d="M54.9604 0H18.4557L0.000324249 21.0915L54.9604 81.9115V0Z" fill="#BEE7FB"/>
<path d="M18.4558 0L0.000488281 21.0915L55.2823 82.0242L18.4558 0Z" fill="#E4F5FD"/>
<path d="M22.3088 42.0822L43.4006 66.4188L54.859 65.1006L67.0274 66.4188L88.9302 41.3724L63.4942 34.8009L45.6313 35.2881L26.4663 38.3304L22.3088 42.0822Z" fill="white"/>
<path d="M91.6682 0H87.6121V3.44935H90.1241L105.693 20.8794L55.1592 76.9865L54.7576 76.5424V81.687L55.1632 82.136L110.326 20.8889L91.6682 0Z" fill="#09558B"/>
<path d="M54.9604 3.44935H90.1133L91.6512 0H54.9604V3.44935Z" fill="#51709F"/>
<path d="M20.0272 3.44935H54.9604V0H18.4556L20.0272 3.44935Z" fill="#8494B8"/>
<path d="M55.0954 76.9167L4.61562 21.0551L20.0187 3.44793L18.4299 0.0254517L0 21.0918L55.0954 82.0613V76.9167Z" fill="#C9CEDF"/>
<path d="M82.1468 23.4859L77.2994 20.189V17.6267H75.8228V19.1853L72.2522 16.7567V16.7548L72.251 16.7555L72.2501 16.7548V16.7567L62.3547 23.4859L63.4944 23.5218V34.801L81.0074 39.1417V23.5218L82.1468 23.4859Z" fill="#808184"/>
<path d="M70.0368 24.8878H72.0496V26.9003H70.0368V24.8878Z" fill="white"/>
<path d="M72.4519 24.8878H74.4644V26.9003H72.4519V24.8878Z" fill="white"/>
<path d="M70.0368 27.2697H72.0496V29.2817H70.0368V27.2697Z" fill="white"/>
<path d="M72.4519 27.2697H74.4644V29.2817H72.4519V27.2697Z" fill="white"/>
<path d="M26.2266 23.4856L31.0745 20.1886V17.6264H32.5503V19.185L36.1219 16.7564V16.7545L36.1231 16.7552L36.1236 16.7545V16.7564L46.0186 23.4856L44.8792 23.5215V34.8006L27.366 38.8708V23.5215L26.2266 23.4856Z" fill="#808184"/>
<path d="M38.3362 24.8878H36.3237V26.9003H38.3362V24.8878Z" fill="white"/>
<path d="M35.9217 24.8878H33.9092V26.9003H35.9217V24.8878Z" fill="white"/>
<path d="M38.3362 27.2697H36.3237V29.2817H38.3362V27.2697Z" fill="white"/>
<path d="M35.9217 27.2697H33.9092V29.2817H35.9217V27.2697Z" fill="white"/>
<path d="M70.3184 17.0385L62.4301 11.6853L62.4444 7.54757L60.0682 7.53935L60.0595 10.0794L54.2556 6.12632L38.1992 17.0503L40.0427 17.0976L40.0203 35.4103L68.4522 35.4268L68.4746 17.114L70.3184 17.0385Z" fill="url(#paint0_linear_46_3713)"/>
<path d="M50.6612 20.0327H53.9282V23.2999H50.6612V20.0327Z" fill="white"/>
<path d="M54.5812 20.0327H57.8486V23.2999H54.5812V20.0327Z" fill="white"/>
<path d="M50.6612 23.8987H53.9282V27.1659H50.6612V23.8987Z" fill="white"/>
<path d="M54.5812 23.8987H57.8486V27.1659H54.5812V23.8987Z" fill="white"/>
<path d="M36.3517 42.5083L33.3584 43.7596L34.2286 45.8418L36.9794 44.692L37.6271 46.242L34.8763 47.3918L36.2535 50.6866L34.3428 51.4851L30.7976 43.0021L35.7014 40.9528L36.3517 42.5083Z" fill="#09558B"/>
<path d="M45.7232 48.0391L40.3469 49.2634L38.3054 40.299L43.4753 39.1218L43.8495 40.7655L40.6991 41.4833L41.1534 43.4773L44.0854 42.8098L44.458 44.4476L41.526 45.115L41.993 47.1658L45.3501 46.4011L45.7232 48.0391Z" fill="#09558B"/>
<path d="M48.3428 40.0925L48.5282 42.6443L49.4235 42.5789C49.8667 42.5468 50.2136 42.3932 50.4635 42.1178C50.7174 41.8377 50.8304 41.5063 50.8025 41.1223C50.7443 40.321 50.2357 39.9551 49.2765 40.0247L48.3428 40.0925ZM54.5239 47.306L52.1514 47.4786L50.5538 45.2224C50.4342 45.0512 50.3206 44.8988 50.2124 44.7654C50.104 44.6315 49.996 44.5186 49.8888 44.4254C49.7811 44.3327 49.6712 44.2635 49.5585 44.2178C49.446 44.1726 49.326 44.1546 49.1981 44.1641L48.6414 44.2045L48.8966 47.7152L46.8313 47.8648L46.165 38.6951L49.4389 38.4573C51.6642 38.2954 52.8374 39.0461 52.9582 40.7083C52.9812 41.0286 52.9539 41.3272 52.8754 41.6047C52.797 41.8829 52.6762 42.1369 52.5131 42.3673C52.3497 42.5979 52.1469 42.8009 51.9048 42.9774C51.6625 43.1536 51.3891 43.2974 51.0843 43.4099L51.0862 43.4353C51.2255 43.4681 51.363 43.5276 51.4978 43.6144C51.6328 43.7009 51.7643 43.8039 51.893 43.9232C52.0218 44.0424 52.1457 44.1715 52.2651 44.3106C52.3847 44.4497 52.4943 44.5866 52.5937 44.7205L54.5239 47.306Z" fill="#09558B"/>
<path d="M57.7026 40.0229L57.2301 45.8316L58.2523 45.9148C59.1473 45.9874 59.8708 45.7762 60.4234 45.2807C60.9764 44.7857 61.2901 44.0759 61.3654 43.1512C61.4365 42.2779 61.2401 41.5705 60.776 41.0286C60.3116 40.487 59.6238 40.1788 58.7121 40.1049L57.7026 40.0229ZM55.0298 47.3381L55.7752 38.1742L59.0215 38.4384C62.2763 38.703 63.7829 40.3244 63.5403 43.3022C63.4243 44.7298 62.8872 45.8328 61.9299 46.6129C60.9719 47.3928 59.7541 47.7224 58.2758 47.6018L55.0298 47.3381Z" fill="#09558B"/>
<path d="M66.2033 39.3511L68.2312 39.7656L66.3901 48.7735L64.3623 48.359L66.2033 39.3511Z" fill="#09558B"/>
<path d="M75.4515 50.9901C74.4327 51.1779 73.2952 51.049 72.0378 50.6039C70.6435 50.1098 69.6815 49.3352 69.1511 48.2788C68.6203 47.2228 68.5949 46.0178 69.0743 44.6639C69.5567 43.3022 70.3889 42.3475 71.5713 41.8004C72.7538 41.2536 74.0739 41.2381 75.5328 41.7545C76.4513 42.0801 77.2163 42.4935 77.8273 42.996L77.1784 44.827C76.647 44.2036 75.8976 43.7204 74.9306 43.3778C74.1207 43.0911 73.3677 43.1203 72.6717 43.4658C71.9758 43.8108 71.4722 44.4226 71.1614 45.3009C70.8461 46.1914 70.8307 46.9613 71.1153 47.6109C71.3999 48.2602 71.9308 48.7227 72.7086 48.998C73.1758 49.1637 73.57 49.2287 73.8913 49.1925L74.4907 47.5003L72.7561 46.8861L73.3082 45.3271L76.9951 46.6324L75.4515 50.9901Z" fill="#09558B"/>
<path d="M50.4332 59.8839L48.3767 60.1773L47.8479 56.4707L44.0778 57.0085L44.6066 60.7154L42.5563 61.0081L41.2573 51.9059L43.3076 51.6132L43.8257 55.244L47.5958 54.7059L47.0782 51.0754L49.1344 50.7822L50.4332 59.8839Z" fill="#09558B"/>
<path d="M59.7468 56.0462C59.6652 58.8063 58.3382 60.1483 55.7662 60.0722C53.2713 59.9985 52.0637 58.6137 52.1431 55.9176L52.3005 50.6113L54.3767 50.6726L54.2191 56.0046C54.1751 57.4912 54.7341 58.252 55.8963 58.2865C57.0371 58.3203 57.6285 57.6196 57.6708 56.1837L57.8308 50.7749L59.9008 50.836L59.7468 56.0462Z" fill="#09558B"/>
<path d="M60.928 59.8378L61.2813 57.817C61.5937 58.1882 61.9516 58.488 62.3539 58.7167C62.7564 58.9457 63.1766 59.0984 63.6148 59.1747C63.8713 59.2199 64.0996 59.2358 64.2996 59.2232C64.4993 59.2103 64.6703 59.174 64.8134 59.114C64.9561 59.0544 65.0685 58.9742 65.1513 58.8737C65.234 58.7736 65.2868 58.6578 65.3096 58.5275C65.3405 58.3506 65.3177 58.1836 65.2407 58.0272C65.1639 57.8707 65.0486 57.7179 64.8945 57.5697C64.7402 57.4211 64.5528 57.2711 64.3322 57.1199C64.111 56.9684 63.8718 56.8115 63.6136 56.6491C62.9576 56.2308 62.4935 55.7786 62.2205 55.2928C61.9471 54.8066 61.8636 54.263 61.9685 53.6605C62.051 53.1888 62.2165 52.8007 62.4652 52.4945C62.7141 52.189 63.0206 51.955 63.3853 51.7931C63.7498 51.6314 64.1557 51.5363 64.6034 51.5077C65.0509 51.4799 65.5148 51.5077 65.9946 51.5917C66.4664 51.6742 66.8792 51.7755 67.2334 51.896C67.5877 52.0163 67.9082 52.1628 68.195 52.334L67.865 54.2226C67.7318 54.0911 67.5825 53.9691 67.4177 53.8583C67.2525 53.7468 67.0803 53.6484 66.9001 53.5628C66.7194 53.4767 66.538 53.4052 66.3551 53.3469C66.172 53.2886 65.9965 53.2451 65.8277 53.2157C65.5964 53.1755 65.3821 53.1603 65.1848 53.1714C64.9877 53.1826 64.8165 53.2168 64.6724 53.2739C64.5278 53.3314 64.4097 53.4094 64.3191 53.5086C64.2275 53.6075 64.17 53.7266 64.146 53.8655C64.1193 54.0172 64.1355 54.1601 64.1947 54.2939C64.2537 54.4278 64.3476 54.5614 64.4758 54.6944C64.6046 54.8275 64.7651 54.9642 64.9575 55.1043C65.1501 55.2443 65.3695 55.392 65.6154 55.5479C65.9509 55.7627 66.2483 55.9805 66.507 56.2016C66.7653 56.4227 66.9793 56.6583 67.1481 56.909C67.3167 57.16 67.4315 57.4328 67.4931 57.7278C67.5544 58.0229 67.5528 58.3532 67.489 58.7196C67.4008 59.2246 67.2308 59.6321 66.9793 59.942C66.7272 60.2518 66.4188 60.4843 66.0531 60.6396C65.6874 60.7948 65.2787 60.8804 64.8267 60.8971C64.3749 60.9133 63.9068 60.8793 63.4227 60.7944C62.926 60.7076 62.4604 60.583 62.0267 60.4201C61.593 60.2577 61.2271 60.0637 60.928 59.8378Z" fill="#09558B"/>
<path d="M20.0818 39.9147L21.6853 43.1915C30.47 38.8689 42.3222 36.4984 55.0112 36.4984C67.6304 36.4984 79.4129 38.8689 88.1975 43.1217L89.8011 39.8449C80.5284 35.3132 68.1881 32.873 55.0112 32.873C41.7645 32.873 29.3545 35.3829 20.0818 39.9147Z" fill="url(#paint1_linear_46_3713)"/>
<path d="M42.7864 64.7169L43.5709 68.2717C47.2483 67.4627 51.0973 67.0704 55.0199 67.0704C58.967 67.0704 62.8406 67.4627 66.518 68.2717L67.3025 64.7169C63.3554 63.8588 59.2367 63.4175 55.0199 63.4175C50.8277 63.4175 46.709 63.8343 42.7864 64.7169Z" fill="url(#paint2_linear_46_3713)"/>
</g>
<defs>
<linearGradient id="paint0_linear_46_3713" x1="16.6374" y1="20.6627" x2="57.6052" y2="20.8044" gradientUnits="userSpaceOnUse">
<stop stop-color="#CACEE0"/>
<stop offset="1" stop-color="#09558B"/>
</linearGradient>
<linearGradient id="paint1_linear_46_3713" x1="20.0818" y1="38.0323" x2="89.8011" y2="38.0323" gradientUnits="userSpaceOnUse">
<stop stop-color="#CACEE0"/>
<stop offset="1" stop-color="#09558B"/>
</linearGradient>
<linearGradient id="paint2_linear_46_3713" x1="42.7864" y1="65.8446" x2="67.3025" y2="65.8446" gradientUnits="userSpaceOnUse">
<stop stop-color="#CACEE0"/>
<stop offset="1" stop-color="#09558B"/>
</linearGradient>
</defs>
</svg>
