<svg width="168" height="60" viewBox="0 0 168 60" fill="none" xmlns="http://www.w3.org/2000/svg">
<path fill-rule="evenodd" clip-rule="evenodd" d="M64.317 50.3909H71.0307V58.8696H69.3772V51.8147H65.9696V58.8696H64.317V50.3909Z" fill="#D56214"/>
<path fill-rule="evenodd" clip-rule="evenodd" d="M73.5989 50.3909H75.2515V56.0349L79.9049 50.3909H81.0748V58.8696H79.4222V53.1999L74.768 58.8696H73.5989V50.3909Z" fill="#D56214"/>
<path fill-rule="evenodd" clip-rule="evenodd" d="M85.2959 55.183V57.5224H86.0082C86.4997 57.5224 86.8773 57.4459 87.1397 57.2934C87.4871 57.0898 87.6611 56.764 87.6611 56.3147C87.6611 55.857 87.4537 55.5349 87.0382 55.3484C86.8008 55.2386 86.423 55.183 85.9068 55.183H85.2959ZM85.2959 51.7383V53.9118H85.7667C85.8509 53.9118 85.9301 53.9097 86.0016 53.9056C86.0737 53.9014 86.1804 53.8781 86.3198 53.8358C86.4592 53.7935 86.5778 53.7362 86.676 53.6643C86.7733 53.5922 86.86 53.482 86.9367 53.3338C87.0123 53.1855 87.0511 53.0096 87.0511 52.8061C87.0511 52.4419 86.9323 52.1727 86.6949 51.9989C86.4576 51.825 86.152 51.7383 85.7796 51.7383H85.2959ZM83.6433 50.3909H85.7409C86.6647 50.3909 87.3564 50.5686 87.8132 50.9247C88.3396 51.3316 88.6022 51.9164 88.6022 52.679C88.6022 53.4334 88.2846 53.9883 87.6481 54.3444C88.0808 54.4123 88.4499 54.59 88.7543 54.8782C89.1614 55.268 89.3652 55.7976 89.3652 56.4673C89.3652 57.179 89.1234 57.7509 88.6401 58.1835C88.1229 58.6408 87.4072 58.8696 86.4909 58.8696H83.6433V50.3909Z" fill="#D56214"/>
<path fill-rule="evenodd" clip-rule="evenodd" d="M93.3571 56.7402C93.8827 57.2869 94.5606 57.5603 95.3915 57.5603C96.2218 57.5603 96.9 57.2869 97.4264 56.7402C97.9509 56.1937 98.2143 55.4926 98.2143 54.6367C98.2143 53.7808 97.9495 53.0774 97.4193 52.5265C96.8895 51.9756 96.2141 51.7002 95.3915 51.7002C94.5692 51.7002 93.8931 51.9756 93.364 52.5265C92.834 53.0774 92.569 53.7808 92.569 54.6367C92.569 55.4926 92.8313 56.1937 93.3571 56.7402ZM92.1303 51.4455C92.9733 50.6155 94.0607 50.2 95.3915 50.2C96.7226 50.2 97.809 50.6155 98.653 51.4455C99.4962 52.2767 99.9184 53.3399 99.9184 54.6367C99.9184 55.9335 99.4962 56.9948 98.653 57.8211C97.809 58.6472 96.7226 59.0604 95.3915 59.0604C94.0607 59.0604 92.9733 58.6472 92.1303 57.8211C91.2863 56.9948 90.8649 55.9335 90.8649 54.6367C90.8649 53.3399 91.2863 52.2767 92.1303 51.4455Z" fill="#D56214"/>
<path fill-rule="evenodd" clip-rule="evenodd" d="M103.478 55.183V57.5224H104.19C104.681 57.5224 105.059 57.4459 105.322 57.2934C105.669 57.0898 105.842 56.764 105.842 56.3147C105.842 55.857 105.635 55.5349 105.22 55.3484C104.982 55.2386 104.605 55.183 104.088 55.183H103.478ZM103.478 51.7383V53.9118H103.949C104.033 53.9118 104.112 53.9097 104.184 53.9056C104.255 53.9014 104.362 53.8781 104.501 53.8358C104.642 53.7935 104.76 53.7362 104.858 53.6643C104.955 53.5922 105.042 53.482 105.118 53.3338C105.195 53.1855 105.233 53.0096 105.233 52.8061C105.233 52.4419 105.114 52.1727 104.877 51.9989C104.639 51.825 104.334 51.7383 103.961 51.7383H103.478ZM101.825 50.3909H103.923C104.847 50.3909 105.538 50.5686 105.995 50.9247C106.522 51.3316 106.784 51.9164 106.784 52.679C106.784 53.4334 106.466 53.9883 105.83 54.3444C106.262 54.4123 106.631 54.59 106.936 54.8782C107.344 55.268 107.547 55.7976 107.547 56.4673C107.547 57.179 107.305 57.7509 106.821 58.1835C106.305 58.6408 105.588 58.8696 104.673 58.8696H101.825V50.3909Z" fill="#D56214"/>
<path fill-rule="evenodd" clip-rule="evenodd" d="M111.577 55.7424H113.994L112.785 52.6917L111.577 55.7424ZM115.227 58.8696L114.477 57.0898H111.056L110.306 58.8696H108.513L112.162 50.3909H113.459L117.007 58.8696H115.227Z" fill="#D56214"/>
<path fill-rule="evenodd" clip-rule="evenodd" d="M120.034 51.8147V54.3058H120.707C121.19 54.3058 121.55 54.2173 121.788 54.0391C122.093 53.802 122.245 53.4716 122.245 53.0476C122.245 52.6325 122.089 52.3104 121.775 52.0814C121.521 51.9035 121.131 51.8147 120.606 51.8147H120.034ZM118.379 50.3909H120.846C121.372 50.3909 121.803 50.4352 122.136 50.5244C122.472 50.6132 122.788 50.7851 123.085 51.0391C123.661 51.5478 123.949 52.2298 123.949 53.0859C123.949 53.8822 123.717 54.514 123.25 54.9798C122.75 55.4799 122.034 55.7297 121.1 55.7297H120.034V58.8696H118.379V50.3909Z" fill="#D56214"/>
<path fill-rule="evenodd" clip-rule="evenodd" d="M127.458 50.3909V53.6705H131.044V50.3909H132.697V58.8696H131.044V55.0942H127.458V58.8696H125.805V50.3909H127.458Z" fill="#D56214"/>
<path fill-rule="evenodd" clip-rule="evenodd" d="M138.902 51.7383H138.394C138.257 51.7383 138.125 51.7466 137.999 51.7639C137.872 51.7808 137.702 51.825 137.491 51.8973C137.278 51.9693 137.109 52.1006 136.981 52.2915C136.854 52.4819 136.791 52.7217 136.791 53.0094C136.791 53.8656 137.334 54.2935 138.419 54.2935H138.902V51.7383ZM140.555 50.3909V58.8696H138.902V55.5901H138.597L136.435 58.8696H134.452L136.969 55.4376C136.63 55.3867 136.32 55.2594 136.041 55.0563C135.405 54.5983 135.087 53.9164 135.087 53.0094C135.087 52.1875 135.368 51.5306 135.927 51.0391C136.417 50.6069 137.144 50.3909 138.101 50.3909H140.555Z" fill="#D56214"/>
<path fill-rule="evenodd" clip-rule="evenodd" d="M78.8262 16.7599L78.2146 17.1055C77.1736 17.6856 76.3115 18.1264 75.6475 18.4086C74.7295 18.8017 74.4275 18.8534 74.2848 18.8613H74.1937C73.9905 18.8613 73.8555 18.8336 73.7642 18.7701C73.2394 18.2535 73.0012 17.3239 73.0012 15.894C73.0012 14.5353 73.1165 12.8868 73.347 11L73.5216 8.85872C73.5733 8.36222 73.6095 7.89322 73.6371 7.45631C73.661 7.02314 73.6775 6.4035 73.6852 5.61697C73.6929 4.86232 73.5535 4.22268 73.2757 3.70638C73.0131 3.22571 72.7276 2.99923 72.3816 3.01111C71.6625 3.01111 70.7205 2.88797 69.5764 2.64566C69.2392 2.64566 68.8055 2.59399 68.2851 2.49877C68.3883 3.03507 68.4441 3.65867 68.4477 4.36561C68.4477 5.42633 68.353 6.84854 68.1619 8.58849L68.1421 10.6622C68.1182 11.1944 68.1025 11.6871 68.0863 12.1361C68.0709 12.5849 68.0588 13.4866 68.0544 14.8174C68.0425 16.4421 68.8253 16.6644 69.4171 16.6884L70.1286 16.7203L69.5049 17.0618C66.6996 18.6032 66.0561 18.7819 65.8133 18.7819C65.3446 18.7819 65.1897 18.7421 65.0984 18.6825L65.0624 18.6548C64.4782 18.0392 64.1763 17.2287 64.1686 16.2515C64.1565 15.2941 64.1686 14.579 64.2123 14.0705C64.2519 13.5581 64.3113 13.0179 64.3836 12.4618C64.4034 11.9851 64.4464 11.381 64.5145 10.686L64.6933 9.34335C64.6889 9.02145 64.701 8.63225 64.7165 8.20304C64.7373 7.77821 64.7527 7.44443 64.769 7.20983C64.7844 6.97585 64.7923 6.64602 64.8009 6.22099C64.8086 5.79178 64.8119 5.31132 64.8163 4.77898C64.8206 4.27435 64.7329 3.80181 64.5504 3.37281C64.3517 2.93964 63.962 2.64191 63.3702 2.47502L62.9684 2.35959L63.3108 2.12144C64.9711 0.953419 66.0602 0.297942 66.6281 0.119176C67.0178 0.0477108 67.5538 0.00812574 68.2928 0C69.0635 0 70.2835 0.115217 71.925 0.333778C72.6674 0.456915 73.729 0.464832 75.084 0.353572L75.1434 0.349614L75.1984 0.381285C75.958 0.826326 76.4982 1.38638 76.8081 2.04581C77.0859 2.62587 77.2374 3.46407 77.257 4.54062C77.257 4.8544 77.2407 5.27152 77.2132 5.78782C77.1857 6.30037 77.1376 6.80895 77.0823 7.3015C77.0823 7.3015 77.0703 7.40464 77.0463 7.5834C77.0221 7.75425 77.0025 7.89718 76.9792 8.00865C76.9233 8.56474 76.9154 8.65996 76.9154 8.67579L76.8958 10.2768C76.82 10.9481 76.7685 11.4923 76.7401 11.9651C76.7091 12.4378 76.6928 13.3556 76.6849 14.7736C76.6774 16.0529 77.1497 16.6924 78.1269 16.7322L78.8262 16.7599Z" fill="#B74719"/>
<path fill-rule="evenodd" clip-rule="evenodd" d="M84.6791 6.58621C84.5405 6.59829 84.4131 6.62225 84.2946 6.65392C84.3298 6.63809 84.3615 6.62225 84.3977 6.61017C84.4131 6.60225 84.4648 6.58246 84.5963 6.58246C84.6238 6.58246 84.648 6.58621 84.6791 6.58621Z" fill="#B74719"/>
<path fill-rule="evenodd" clip-rule="evenodd" d="M82.4268 8.47325C82.8838 7.85361 83.4196 7.29731 84.0277 6.83269C84.0675 6.80081 84.1069 6.76914 84.1476 6.74122C84.1509 6.73726 84.1594 6.73726 84.163 6.72935C84.1905 6.70955 84.2222 6.68559 84.2507 6.6658C84.2626 6.66184 84.278 6.65788 84.2947 6.65392C84.3299 6.63808 84.3616 6.62225 84.3979 6.61017C84.4133 6.60225 84.465 6.58246 84.5965 6.58246C84.624 6.58246 84.6482 6.5862 84.6792 6.5862H84.6834C84.8263 6.59433 85.0214 6.66975 85.2556 6.81664C85.4982 6.9677 85.7879 7.20605 86.1099 7.52775C86.2218 7.64297 86.3283 7.75423 86.4237 7.86153C86.4316 7.87341 86.4435 7.88133 86.4514 7.8932C87.2188 8.74724 87.501 9.33542 87.5801 9.72462C87.457 9.71274 87.3263 9.69295 87.1913 9.66899C86.4917 9.55773 85.935 9.47439 85.5145 9.41876C85.0929 9.36313 84.8063 9.33542 84.6517 9.33542C84.2859 9.35125 83.9521 9.39896 83.6622 9.47043C83.3602 9.54585 83.0901 9.66503 82.8517 9.81984C82.6377 9.95901 82.4466 10.0782 82.2797 10.1855C81.7868 10.5032 81.4892 10.6978 81.3102 10.821C81.3619 10.1697 81.7395 9.37896 82.4268 8.47325ZM84.3418 11.7388C84.4177 11.7465 84.5087 11.7504 84.6165 11.7546C84.7196 11.7586 85.0964 11.7625 85.7485 11.7625C86.4358 11.7625 87.0518 11.5677 87.5758 11.1825L87.592 11.1706C87.592 11.1706 89.0408 10.3105 89.8571 9.36938C90.007 9.19728 90.1318 9.00309 90.1008 8.77724C90.0328 8.28949 89.9226 7.83653 89.7696 7.42441C89.5554 6.81289 89.2292 6.27638 88.7878 5.81968C88.5771 5.59716 88.3389 5.39068 88.073 5.20796C87.457 4.78688 86.9718 4.5604 86.595 4.48497C86.5073 4.46518 86.4316 4.45705 86.3566 4.45309C85.9713 4.45705 85.7166 4.47289 85.5857 4.5008C85.4509 4.52872 85.339 4.56831 85.2477 4.61998C84.6482 4.99335 84.0442 5.44235 83.4557 5.95073C83.4196 5.97865 83.3877 6.00636 83.3525 6.03803C82.7365 6.5785 82.0929 7.21793 81.4496 7.94091C80.2967 9.21228 79.7684 10.9999 79.8674 13.2562C79.9397 14.5711 80.368 15.87 81.1433 17.1174C81.3058 17.3874 81.4694 17.6299 81.632 17.8443C82.2841 18.325 82.8157 18.5633 83.2414 18.5633H83.2527C84.1749 18.5515 84.4056 18.5275 84.4966 18.5077C84.6482 18.48 84.7832 18.4362 84.902 18.3767L84.9416 18.349C85.5059 17.8522 86.0032 17.4034 86.4402 17.0061C86.4479 16.9982 86.4514 16.9942 86.46 16.9863C89.1579 14.5036 89.5664 13.7369 89.6189 13.3754L89.7058 12.7159L89.2688 13.2204C89.1852 13.3158 89.1019 13.411 89.0227 13.5025C89.0227 13.5025 89.0227 13.5064 89.0185 13.5064C87.771 14.9047 86.7059 15.7548 85.844 16.0369C85.8362 16.0369 85.8277 16.0369 85.82 16.0329C85.2994 15.9973 84.624 15.727 83.8137 15.2305C83.5392 15.0597 83.2846 14.8809 83.0549 14.6942C82.3072 14.0825 81.7868 13.3754 81.5046 12.5728C81.3894 12.279 81.3258 11.8817 81.3058 11.3931L82.125 11.4844L84.3418 11.7388Z" fill="#B74719"/>
<path fill-rule="evenodd" clip-rule="evenodd" d="M97.7284 6.70161C97.788 6.71744 97.8601 6.72536 97.947 6.72536C98.8771 7.03935 99.7632 7.6269 100.581 8.47323C101.781 9.69292 102.33 11.1268 102.203 12.7357C102.147 13.1887 102.004 13.6891 101.781 14.2215C101.567 14.7301 101.268 15.2701 100.895 15.8264C98.3006 15.7985 96.7314 14.6823 96.0958 12.4178L96.1154 7.66295C96.6876 7.03518 97.2278 6.71348 97.7284 6.70161ZM103.887 6.08968C103.092 5.3867 101.817 4.84644 100.092 4.48099C100.025 4.46891 99.862 4.45703 99.1515 4.4689C98.7935 4.47682 98.0787 4.67559 95.9443 6.25657C95.909 6.16927 95.8849 6.10968 95.8692 6.06988C95.8092 5.93487 95.7377 5.7959 95.6706 5.6686C95.527 5.32711 95.3205 5.03291 95.0669 4.8106C94.9746 4.71934 94.8197 4.68746 94.5419 4.7033C94.375 4.71142 94.0017 4.82248 92.5469 5.61297C91.0973 6.42742 90.7119 6.51493 90.6163 6.51493L90.5846 6.91205C91.9154 7.11873 92.2372 7.40063 92.3129 7.5396V16.0487C92.3129 19.8386 92.337 21.9797 92.38 22.5874L92.4041 22.9052L95.9605 20.8596V20.7444C95.9605 19.9895 95.9641 19.3142 95.9682 18.7302C95.9726 18.321 95.9726 17.9039 95.9761 17.4709C96.513 18.1027 97.0969 18.4204 97.7165 18.4204C98.4401 18.4204 99.0757 18.2495 99.5963 17.916L102.962 15.7985C103.677 15.3337 104.277 14.6544 104.741 13.7843C105.206 12.9184 105.485 11.965 105.576 10.9522V10.9362C105.576 8.74721 105.007 7.11873 103.887 6.08968Z" fill="#B74719"/>
<path fill-rule="evenodd" clip-rule="evenodd" d="M127.755 16.6527L127.06 17.1572C126.898 17.2763 126.706 17.4114 126.48 17.5582C126.25 17.7133 126.054 17.8404 125.887 17.9397C125.462 18.1939 125.089 18.3846 124.779 18.5038C124.453 18.6348 124.171 18.7102 123.937 18.7263C123.507 18.7263 123.209 18.615 122.999 18.456C122.793 18.2973 122.673 18.0906 122.601 17.9039L122.59 17.8564C122.554 17.5624 122.53 17.3399 122.514 17.1968L121.498 17.6814C119.948 18.4125 118.583 18.7819 117.44 18.7819C116.428 18.7819 115.75 18.2377 115.426 17.1572L114.329 17.6814C112.779 18.4125 111.416 18.7819 110.276 18.7819C109.052 18.7819 108.297 17.9279 108.039 16.2435C107.995 14.7776 107.983 13.3835 108.011 12.0763C108.035 10.7812 108.099 9.45855 108.195 8.14364C108.195 8.02029 108.189 7.8059 108.183 7.51983C108.175 7.23376 108.163 7.01541 108.151 6.86435C108.079 6.44723 107.945 6.22867 107.741 6.22867C107.431 6.22867 107.233 6.23284 107.137 6.24075C107.061 6.24471 106.998 6.25284 106.958 6.26471L106.839 5.88718L108.691 5.2715C108.873 5.2517 109.243 5.16024 109.78 5.00147C110.256 4.86229 110.633 4.79479 110.932 4.79479C111.186 4.79479 111.524 4.90209 111.678 5.41047C111.698 5.47402 111.754 5.63695 111.754 7.23376C111.739 12.2592 111.727 15.167 111.722 15.9535C111.715 16.6327 112.052 16.9428 112.815 16.9626C113.189 16.9626 113.597 16.8432 114.027 16.605C114.289 16.4817 114.571 16.3348 114.885 16.1521C115.032 16.0687 115.132 15.9654 115.191 15.8341C115.156 14.5273 115.152 13.2601 115.184 12.0763C115.203 10.7772 115.262 9.45438 115.358 8.14364C115.358 8.02029 115.354 7.8059 115.346 7.51983C115.338 7.23376 115.33 7.01541 115.314 6.86435C115.246 6.44723 115.108 6.22867 114.905 6.22867C114.599 6.22867 114.396 6.23284 114.305 6.24075C114.226 6.24471 114.165 6.25284 114.123 6.26471L114.003 5.88718L115.854 5.2715C116.041 5.2517 116.406 5.16024 116.944 5.00147C117.425 4.86229 117.801 4.79479 118.095 4.79479C118.353 4.79479 118.691 4.90209 118.843 5.41047C118.883 5.51777 118.917 5.82363 118.917 7.23376C118.903 12.414 118.895 15.1868 118.885 15.9535C118.879 16.6327 119.217 16.9428 119.983 16.9626C120.352 16.9626 120.762 16.8432 121.19 16.605C121.458 16.4817 121.744 16.3308 122.05 16.1521C122.268 16.0289 122.391 15.8502 122.427 15.6037C122.423 12.5372 122.403 10.4636 122.359 9.46646C122.343 8.02446 122.482 7.06312 122.793 6.5189C122.855 6.39577 123.015 6.09386 126.364 4.25849L127.152 3.82553L126.618 4.54851C126.213 5.10461 125.955 5.71237 125.852 6.35993C125.824 6.53474 125.796 6.89227 125.776 7.42857C125.752 7.96091 125.74 8.58451 125.736 9.33916C125.732 10.0584 125.744 10.8966 125.764 11.8221V12.7436C125.764 13.2283 125.748 14.1063 125.72 15.4251C125.832 16.3508 125.864 16.5334 125.876 16.5652C125.911 16.6884 125.998 16.8432 126.36 16.8632C126.484 16.8632 126.67 16.8432 126.908 16.7996L127.755 16.6527Z" fill="#B74719"/>
<path fill-rule="evenodd" clip-rule="evenodd" d="M132.924 15.5283C132.206 14.9287 132.022 14.5751 131.994 14.3645C131.94 14.1024 131.892 13.8163 131.86 13.5104C131.836 13.296 131.812 12.7358 131.828 11.2738C131.84 10.1457 132.654 8.75936 134.255 7.15442C134.525 7.06692 134.763 7.02316 134.967 7.02316C135.46 7.04712 135.46 7.27756 135.463 7.34923C135.447 7.42445 135.431 7.528 135.417 7.6828V13.2125C135.083 13.6058 134.733 13.975 134.359 14.313C134.315 14.3526 134.192 14.4678 133.835 14.7737C133.513 15.0399 133.211 15.2941 132.924 15.5283ZM138.829 14.6068C138.686 13.9315 138.614 13.2562 138.614 12.6047C138.614 11.9411 138.634 11.1071 138.678 10.1299C138.79 7.60342 139.048 5.76805 139.449 4.67961L139.695 4.0083L139.139 4.45314C139.032 4.54043 138.889 4.64774 138.71 4.779C138.61 4.85442 138.526 4.91797 138.46 4.9736C138.288 4.85442 138.058 4.79483 137.764 4.79483C137.51 4.81067 137.228 4.85838 136.93 4.92984C136.632 5.00131 136.29 5.11257 135.889 5.2755L132.826 7.059C131.407 7.88949 130.366 8.63227 129.725 9.27983C128.848 10.2291 128.308 11.3731 128.121 12.6841C128.073 13.0535 128.054 13.4985 128.062 14.0069C128.069 14.5155 128.113 15.0239 128.192 15.5204C128.272 16.0171 128.403 16.5017 128.585 16.9666C129.046 18.0033 129.623 18.5275 130.315 18.5275H130.317C130.607 18.5038 130.886 18.4244 131.153 18.2813L133.779 16.6924L133.83 16.6486C134.479 15.8463 135.035 15.1868 135.487 14.6864C135.535 15.3935 135.607 16.0011 135.701 16.5017C135.817 17.1135 135.983 17.6458 136.195 18.0867L136.282 18.2654L139.592 16.6447L139.493 16.4619C139.194 15.9058 138.973 15.2823 138.829 14.6068Z" fill="#B74719"/>
<path fill-rule="evenodd" clip-rule="evenodd" d="M71.8295 27.7556C71.8416 27.704 71.7703 27.5571 71.4277 27.3425C71.094 27.1281 70.7404 27.0129 70.3749 27.005C70.0102 26.9931 69.6719 27.0247 69.3735 27.1041C68.7299 27.585 68.1302 28.1926 67.5935 28.9116C66.8983 29.869 66.5369 30.6515 66.5251 31.2316C66.5171 31.8433 66.5292 32.2565 66.5688 32.4632C66.6043 32.6657 66.6601 32.8684 66.7272 33.0551C67.1048 34.0919 67.6219 34.934 68.2577 35.5618C68.6309 35.8516 69.0284 36.1495 69.426 36.4514C70.3594 36.1337 71.6903 35.2597 73.3833 33.8535L73.7807 33.5237L73.7051 34.0362C73.6457 34.4652 73.0934 35.4464 69.044 39.0056L68.9923 39.0375C68.7662 39.1369 68.4992 39.1963 68.2016 39.2202H68.1975C67.1486 39.2202 66.0716 38.5368 64.9877 37.1903C63.9148 35.8556 63.3624 34.4892 63.3505 33.1226C63.3384 31.756 63.7437 30.5284 64.554 29.4679C65.1623 28.7172 66.187 27.855 67.6021 26.9095L70.4824 25.0146C70.6295 24.9591 70.8042 24.9154 71.0028 24.8877C71.1895 24.8637 71.4166 24.84 71.6782 24.8279H71.6826C72.2667 24.8279 72.8432 24.8993 73.3987 25.0464C74.0071 25.2052 74.3649 25.3802 74.5277 25.5986L74.6385 25.7457L74.5033 25.8648C74.3561 25.9999 73.9675 26.3416 73.3437 26.8937L71.6782 28.3715L71.8295 27.7556Z" fill="#B74719"/>
<path fill-rule="evenodd" clip-rule="evenodd" d="M94.5692 32.1334C94.578 33.2418 94.4067 34.8547 94.0607 36.9282L94.0453 37.0236L90.5877 38.9542L90.6713 38.5329C90.8907 37.4326 91.0489 36.3958 91.1487 35.4464C91.2477 34.4971 91.2992 33.3608 91.3069 32.0659C91.3157 30.7987 91.1048 29.7421 90.6875 28.9277C90.3262 28.2363 89.8333 27.8949 89.1777 27.8869H89.1537C88.5179 27.8869 87.8383 28.3357 87.1397 29.2254C87.1397 31.2635 87.1631 34.084 87.2068 37.6193V37.7585L83.7459 39.0336L83.7536 38.7396C83.8931 34.7355 83.9247 32.0461 83.8455 30.747C83.4998 28.9791 82.975 28.0259 82.3315 28.018C81.6365 28.0019 81.004 28.1649 80.4242 28.4826L80.3365 32.0063C80.3167 33.2218 80.3054 34.2865 80.3013 35.1961C80.2969 36.1098 80.2935 36.7813 80.2935 37.2142V37.3332L76.713 39.2044V38.8788C76.713 38.3623 76.7172 37.397 76.7293 35.9789C76.737 34.5607 76.7447 33.6827 76.7491 33.3451C76.7524 33.0034 76.7722 31.9309 76.8126 30.1234C76.8126 29.1104 76.4075 29.0985 76.276 29.0985C75.6564 29.0825 75.4895 29.0864 75.4457 29.0906C75.3547 29.0985 75.2427 29.1023 75.1119 29.1023C75.0602 29.1023 75.0241 29.1023 75.0043 29.1064L74.9845 29.1262H74.9012C74.643 29.1262 74.6388 28.9116 74.6388 28.9039V28.7966L74.7265 28.737C74.8143 28.6814 74.8968 28.6218 74.9845 28.558C75.2513 28.3716 75.5214 28.1849 75.7915 27.9901C76.232 27.6842 76.6732 27.3704 77.1148 27.0564C78.8352 25.8332 79.4864 25.3684 79.5227 25.3404L79.6173 25.249L79.7248 25.3167C80.2617 25.5548 80.5274 26.278 80.5318 27.5252C80.6428 27.4577 80.7856 27.3625 80.9688 27.2315C81.3026 26.9931 81.7353 26.6633 82.2523 26.2462C82.6808 25.9047 83.0749 25.6344 83.4283 25.4478C83.7941 25.2571 84.2223 25.1538 84.7033 25.1498H84.7077C85.0732 25.1498 85.629 25.4994 86.706 28.1092L90.2703 25.2769C90.6402 25.0583 91.0654 24.9592 91.566 24.9592C92.1061 24.9592 92.6619 25.388 93.2659 26.266C93.7513 27.0008 94.1322 27.9424 94.399 29.0666L94.4023 29.0706C94.454 29.3129 94.4944 29.6029 94.5219 29.9565C94.5459 30.2982 94.5615 31.0093 94.5692 32.1334Z" fill="#B74719"/>
<path fill-rule="evenodd" clip-rule="evenodd" d="M103.315 36.7853C103.215 36.7732 103.101 36.7573 102.985 36.7455C102.421 36.6221 101.729 36.0583 100.927 35.0611C99.9965 33.9129 99.532 32.7968 99.5397 31.744C99.5518 30.6834 99.9373 29.599 100.688 28.5264C101.392 27.5611 102.047 26.9929 102.643 26.8341C102.667 26.8262 102.738 26.8062 102.917 26.8062C102.953 26.8062 102.989 26.8104 103.033 26.8104C103.227 26.8183 103.489 26.8937 103.815 27.0408C104.149 27.1915 104.542 27.43 104.984 27.7517C106.676 29.0229 107.03 29.7817 107.026 30.1909C107.022 30.8543 107.018 31.2516 107.01 31.3708C107.002 31.4898 106.998 31.5733 106.99 31.6329C106.76 33.067 106.264 34.2986 105.52 35.2876C104.753 36.2806 104.002 36.7853 103.315 36.7853ZM109.978 27.6484C109.549 26.7387 108.769 25.992 107.661 25.4317C106.636 24.9194 105.874 24.6929 105.321 24.6771C104.793 24.681 104.447 24.6971 104.268 24.7248C104.081 24.7525 103.931 24.7923 103.808 24.844C102.941 25.2413 102.067 25.7178 101.221 26.262C100.379 26.8023 99.5001 27.4419 98.6184 28.1649C97.0483 29.436 96.3257 31.2237 96.4608 33.4802C96.5562 34.7951 97.1437 36.0939 98.2047 37.3413C99.1464 38.4654 100.057 39.1409 100.911 39.3474C100.963 39.3595 101.078 39.3753 101.734 39.3753C102.059 39.3753 102.735 39.1963 104.892 37.6472C105.632 37.0949 106.319 36.5229 106.935 35.951C107.554 35.3749 108.119 34.779 108.611 34.1752C109.915 32.5386 110.55 31.2516 110.55 30.2424C110.55 29.2652 110.356 28.3914 109.978 27.6484Z" fill="#B74719"/>
<path fill-rule="evenodd" clip-rule="evenodd" d="M123.813 37.7545L121.294 38.9861C121.096 39.0217 120.897 39.0573 120.702 39.0892C120.5 39.125 120.361 39.1448 120.285 39.1528H120.281C119.637 39.1528 119.201 38.8469 118.998 38.2708L118.191 35.8318C117.885 34.9022 117.635 34.0958 117.452 33.4443C117.094 32.2884 116.801 31.2437 116.578 30.334C116.398 29.6069 116.272 28.9672 116.188 28.4351C115.072 29.5673 114.142 31.2714 113.423 33.5039C113.375 33.7423 113.339 33.9885 113.315 34.215C113.289 34.4494 113.271 34.8903 113.263 35.5297C113.259 36.09 113.733 36.5467 114.678 36.8963L115.048 37.0315L111.822 39.1488L111.739 39.125C110.936 38.9223 110.51 38.3502 110.51 37.4803C110.51 36.6661 110.74 35.7881 111.202 34.8663C111.444 34.3659 111.686 33.8733 111.929 33.3808C112.354 32.618 112.572 32.2248 112.592 32.189L113.327 30.6914C114.067 29.2454 114.976 27.8432 116.03 26.5204L116.09 26.4726L119.073 24.7962V25.134C119.073 27.0169 119.375 29.0031 119.971 31.0289C120.328 32.2923 120.936 33.9608 121.782 35.9908C122.148 36.9282 122.534 37.4249 122.896 37.4249C123.507 37.4249 123.643 37.397 123.667 37.3888L123.813 37.7545Z" fill="#B74719"/>
<path fill-rule="evenodd" clip-rule="evenodd" d="M138.166 37.1346L137.474 37.639C137.312 37.7584 137.116 37.8934 136.894 38.0405C136.663 38.1954 136.465 38.3224 136.302 38.4218C135.877 38.676 135.504 38.8667 135.193 38.986C134.869 39.1169 134.585 39.1925 134.351 39.2084C133.922 39.2084 133.624 39.0971 133.414 38.9383C133.202 38.7754 133.084 38.5687 133.016 38.382L133.004 38.3385C132.968 38.0443 132.944 37.822 132.924 37.6788L131.908 38.1635C130.361 38.8946 128.995 39.264 127.856 39.264C126.631 39.264 125.876 38.4097 125.617 36.7254C125.574 35.2517 125.562 33.8575 125.59 32.5584C125.614 31.2555 125.678 29.9285 125.773 28.6257C125.773 28.5024 125.769 28.2882 125.761 27.998C125.753 27.7158 125.741 27.4975 125.729 27.3464C125.661 26.9293 125.521 26.711 125.319 26.711C125.01 26.711 124.811 26.7149 124.715 26.7228C124.639 26.7268 124.577 26.7347 124.537 26.7466L124.419 26.3693L126.27 25.7536C126.396 25.7375 126.69 25.6819 127.358 25.4836C127.838 25.3444 128.212 25.2769 128.511 25.2769C128.764 25.2769 129.103 25.3842 129.257 25.8926C129.281 25.9561 129.333 26.119 129.333 27.7121C129.317 32.8961 129.305 35.6687 129.301 36.4314C129.293 37.1148 129.631 37.4249 130.393 37.4447C130.767 37.4447 131.177 37.3255 131.606 37.083C131.867 36.9638 132.154 36.8129 132.464 36.6342C132.682 36.511 132.806 36.3283 132.842 36.082C132.838 33.0193 132.814 30.9455 132.77 29.9486C132.758 28.5065 132.898 27.541 133.207 26.997C133.314 26.7945 133.827 26.3574 136.779 24.7406L137.562 24.3076L137.034 25.0306C136.628 25.5827 136.369 26.1945 136.263 26.8418C136.235 27.0168 136.211 27.3744 136.191 27.9107C136.167 28.4547 136.155 29.0985 136.151 29.8215C136.147 30.5405 136.155 31.3747 136.179 32.3042V33.2257C136.179 33.7145 136.163 34.62 136.135 35.9072C136.243 36.8367 136.278 37.0157 136.285 37.0473C136.326 37.1705 136.413 37.3255 136.775 37.3453C136.898 37.3453 137.085 37.3255 137.324 37.2817L138.166 37.1346Z" fill="#B74719"/>
<path fill-rule="evenodd" clip-rule="evenodd" d="M152.073 36.7056L152.021 36.94C151.858 37.6353 151.751 38.0722 151.695 38.2431C151.389 39.0971 151.023 39.8957 150.611 40.6304L150.575 40.6941L145.929 42.4022L146.45 41.8103C146.887 41.3177 147.348 40.6066 147.824 39.689C148.1 38.974 148.039 38.3583 147.634 37.8299C147.614 37.8022 147.598 37.7782 147.578 37.7545L147.452 37.6074V37.5718L147.408 37.5161L145.977 38.1676C145.835 38.2351 145.691 38.2987 145.551 38.3583L145.377 38.4377C144.074 38.986 142.918 39.264 141.924 39.264C140.701 39.264 139.949 38.4097 139.691 36.7254C139.643 35.2517 139.635 33.8575 139.659 32.5584C139.687 31.2555 139.747 29.9285 139.842 28.6257C139.842 28.5024 139.839 28.2882 139.83 27.998C139.823 27.7158 139.815 27.4975 139.799 27.3464C139.731 26.9293 139.592 26.711 139.389 26.711C139.083 26.711 138.88 26.7149 138.79 26.7228C138.71 26.7268 138.65 26.7347 138.607 26.7466L138.492 26.3693L140.339 25.7536C140.465 25.7375 140.761 25.6819 141.428 25.4836C141.909 25.3444 142.286 25.2769 142.58 25.2769C142.838 25.2769 143.176 25.3842 143.33 25.8926C143.35 25.9561 143.402 26.119 143.402 27.7121C143.392 32.8961 143.379 35.6687 143.37 36.4314C143.362 37.1148 143.704 37.4249 144.467 37.4447C144.837 37.4447 145.245 37.3255 145.679 37.083C145.835 37.0117 145.985 36.94 146.141 36.8527C146.251 36.7931 146.371 36.7294 146.489 36.6579L146.533 36.6342C146.577 36.6102 146.617 36.5825 146.653 36.5548C146.799 36.4356 146.883 36.2806 146.911 36.086C146.907 33.0074 146.887 30.9336 146.843 29.9486C146.828 28.5024 146.971 27.541 147.277 26.997C147.384 26.7945 147.896 26.3574 150.849 24.7406L151.635 24.3076L151.103 25.0306C150.697 25.5827 150.439 26.1945 150.336 26.8418C150.309 27.0129 150.28 27.3744 150.261 27.9107C150.237 28.447 150.229 29.2335 150.229 30.2505C150.229 30.8701 150.285 32.4471 150.403 35.069C150.622 36.1218 151.091 36.6619 151.834 36.6977L152.073 36.7056Z" fill="#B74719"/>
<path fill-rule="evenodd" clip-rule="evenodd" d="M160.567 27.4617C160.873 27.4617 161.115 27.5334 161.315 27.6842C161.373 27.7317 161.509 27.8432 161.485 27.9226L161.479 31.76C161.163 32.05 160.651 32.4076 159.944 32.8286C159.666 33.0153 159.092 33.3489 158.239 33.8177C157.862 33.5358 157.58 33.1422 157.397 32.642C157.298 32.3559 157.222 32.0698 157.166 31.7879C157.115 31.5098 157.095 31.2197 157.099 30.9297C157.107 30.6516 157.163 30.3617 157.27 30.0757C157.377 29.7896 157.544 29.4996 157.774 29.2137C158.104 28.7924 158.74 28.2324 159.666 27.5452C159.944 27.4896 160.249 27.4617 160.567 27.4617ZM166.427 24.1724C164.834 24.9312 164.262 25.2213 164.044 25.3404C163.814 25.1815 163.464 25.1021 162.983 25.1021C162.681 25.11 162.384 25.1379 162.101 25.1856C161.823 25.2371 161.525 25.3167 161.199 25.4317L158.132 26.9533C157.353 27.3504 156.709 27.6961 156.225 27.9782C155.731 28.2641 155.347 28.5105 155.076 28.717C154.206 29.4442 153.662 30.3895 153.464 31.5335C153.42 31.8713 153.4 32.3915 153.412 33.0828C153.424 33.8018 153.598 34.5209 153.936 35.2199C154.154 35.6529 154.413 35.9827 154.703 36.2012C154.997 36.4196 155.327 36.5309 155.693 36.5309C155.743 36.5269 155.799 36.5229 155.847 36.515C155.673 36.8169 155.469 37.1705 155.239 37.5637C154.416 38.7675 153.316 39.5778 151.973 39.967L151.513 40.0983L155.243 42.1559L155.342 42.0803C156.599 41.1627 157.472 40.2095 157.94 39.2482C158.81 37.4168 159.443 36.1696 159.812 35.5458C160.421 34.5963 160.973 33.8654 161.465 33.3689C161.441 34.2269 161.433 34.8584 161.433 35.2478C161.403 37.2261 161.391 38.5012 161.391 39.0455V39.3594L164.906 37.6591V37.532C164.906 37.4884 164.903 37.1942 164.898 36.6579L164.895 36.1256C164.886 35.2478 164.886 34.1952 164.89 32.9676C164.89 31.7362 164.898 30.8382 164.906 30.2742C164.91 29.7061 164.922 29.031 164.938 28.2403C164.954 27.4538 164.966 26.9731 164.966 26.8302C165.006 26.6354 165.086 26.4251 165.2 26.2105C165.32 25.988 165.475 25.7615 165.653 25.5511C165.853 25.3523 166.023 25.1736 166.169 25.0227C166.201 24.9908 166.364 24.8121 166.663 24.4864L167.343 23.7395L166.427 24.1724Z" fill="#B74719"/>
<path fill-rule="evenodd" clip-rule="evenodd" d="M103.315 36.7853C103.215 36.7732 103.101 36.7573 102.985 36.7455C102.421 36.6221 101.729 36.0583 100.927 35.0611C99.9965 33.9129 99.532 32.7968 99.5397 31.744C99.5518 30.6834 99.9373 29.599 100.688 28.5264C101.392 27.5611 102.047 26.9929 102.643 26.8341C102.667 26.8262 102.738 26.8062 102.917 26.8062C102.953 26.8062 102.989 26.8104 103.033 26.8104C103.227 26.8183 103.489 26.8937 103.815 27.0408C104.149 27.1915 104.542 27.43 104.984 27.7517C106.676 29.0229 107.03 29.7817 107.026 30.1909C107.022 30.8543 107.018 31.2516 107.01 31.3708C107.002 31.4898 106.998 31.5733 106.99 31.6329C106.76 33.067 106.264 34.2986 105.52 35.2876C104.753 36.2806 104.002 36.7853 103.315 36.7853ZM109.978 27.6484C109.549 26.7387 108.769 25.992 107.661 25.4317C106.636 24.9194 105.874 24.6929 105.321 24.6771C104.793 24.681 104.447 24.6971 104.268 24.7248C104.081 24.7525 103.931 24.7923 103.808 24.844C102.941 25.2413 102.067 25.7178 101.221 26.262C100.379 26.8023 99.5001 27.4419 98.6184 28.1649C97.0483 29.436 96.3257 31.2237 96.4608 33.4802C96.5562 34.7951 97.1437 36.0939 98.2047 37.3413C99.1464 38.4654 100.057 39.1409 100.911 39.3474C100.963 39.3595 101.078 39.3753 101.734 39.3753C102.059 39.3753 102.735 39.1963 104.892 37.6472C105.632 37.0949 106.319 36.5229 106.935 35.951C107.554 35.3749 108.119 34.779 108.611 34.1752C109.915 32.5386 110.55 31.2516 110.55 30.2424C110.55 29.2652 110.356 28.3914 109.978 27.6484Z" fill="#B74719"/>
<path fill-rule="evenodd" clip-rule="evenodd" d="M85.8397 6.66585C85.8123 6.68572 85.7801 6.70977 85.7524 6.72964C85.7957 6.70182 85.8397 6.67777 85.8838 6.65393C85.8683 6.6579 85.8518 6.66188 85.8397 6.66585ZM85.8397 6.66585C85.8123 6.68572 85.7801 6.70977 85.7524 6.72964C85.7957 6.70182 85.8397 6.67777 85.8838 6.65393C85.8683 6.6579 85.8518 6.66188 85.8397 6.66585ZM85.8397 6.66585C85.8123 6.68572 85.7801 6.70977 85.7524 6.72964C85.7957 6.70182 85.8397 6.67777 85.8838 6.65393C85.8683 6.6579 85.8518 6.66188 85.8397 6.66585ZM85.8397 6.66585C85.8123 6.68572 85.7801 6.70977 85.7524 6.72964C85.7957 6.70182 85.8397 6.67777 85.8838 6.65393C85.8683 6.6579 85.8518 6.66188 85.8397 6.66585ZM85.8397 6.66585C85.8123 6.68572 85.7801 6.70977 85.7524 6.72964C85.7957 6.70182 85.8397 6.67777 85.8838 6.65393C85.8683 6.6579 85.8518 6.66188 85.8397 6.66585Z" fill="#B74719"/>
<path fill-rule="evenodd" clip-rule="evenodd" d="M55.9372 15.577V18.5863C55.9372 19.2207 55.4224 19.7326 54.7905 19.7326H54.6188C54.608 19.741 54.5971 19.7464 54.5863 19.7545C54.5807 20.7565 53.7744 21.5736 52.7722 21.6088C52.7476 23.763 52.644 25.7671 52.4427 27.6298C52.7613 27.9565 52.9545 28.4005 52.9545 28.8881V30.8785C52.9545 31.7037 52.3908 32.3955 51.6308 32.6051C51.5466 32.9753 51.4565 33.3349 51.3586 33.6943C51.0779 34.7646 50.7457 35.772 50.3779 36.7279C49.8358 38.1058 49.2039 39.364 48.4877 40.4912C47.9048 41.3982 47.2727 42.2232 46.5756 42.9639C46.3957 43.16 46.1696 43.3671 45.9327 43.5767C43.3614 45.7934 39.3982 46.9616 39.7033 46.9643C32.1011 49.6193 25.665 48.5682 21.1242 49.7091C21.1242 49.7091 21.119 49.7091 21.1106 49.7146C21.0833 49.7229 21.0481 49.731 21.0181 49.7391C21.0044 49.7418 20.9854 49.7473 20.9718 49.7527C20.9391 49.7583 20.9064 49.7718 20.8683 49.78C20.8193 49.7935 20.773 49.8073 20.7157 49.8235C19.5064 50.1748 18.436 50.7032 17.5288 51.531C17.518 51.5447 17.5015 51.5555 17.4826 51.5718C16.2078 52.6259 15.023 54.2214 14.7507 56.5935C14.6906 57.1163 14.3366 57.5655 13.8191 57.6717C13.0647 57.8297 12.0458 57.8078 11.7001 56.716C11.3541 55.6349 11.5502 51.945 11.5502 51.945C11.5502 51.945 11.6863 49.4858 12.874 47.1576C12.8821 47.1522 12.8848 47.1441 12.8903 47.1412C12.9557 47.016 13.0155 46.8908 13.0864 46.7709C13.141 46.673 13.1954 46.5749 13.2525 46.4822C13.277 46.4413 13.3043 46.3951 13.3342 46.3515C13.3669 46.2972 13.3996 46.2453 13.4404 46.1882C13.4542 46.169 13.465 46.1528 13.4786 46.1338C13.4894 46.1146 13.503 46.0957 13.5194 46.0738C13.5821 45.9813 13.6503 45.8832 13.7182 45.7934C13.7237 45.7879 13.7264 45.7823 13.732 45.7742C13.8028 45.6898 13.8708 45.6027 13.9416 45.5183C13.996 45.4475 14.0533 45.3848 14.1104 45.3196C14.1377 45.2841 14.1678 45.2568 14.1978 45.2268C14.2711 45.1425 14.342 45.0662 14.4185 44.9927C14.4891 44.9245 14.5629 44.8566 14.6335 44.7858C14.6471 44.7722 14.6635 44.7585 14.6798 44.7449C14.7234 44.6987 14.7725 44.6605 14.8215 44.6197C15.0774 44.3964 15.3498 44.1949 15.6305 44.0069C15.7747 43.9171 15.9164 43.8273 16.0636 43.74C16.3576 43.5713 16.6627 43.4161 16.9787 43.2717C17.1339 43.2035 17.2973 43.1354 17.4607 43.0729C18.278 42.7406 19.1685 42.4739 20.122 42.2097C20.5061 42.1061 20.8956 42.0028 21.2986 41.8936C22.4998 41.5723 23.8236 41.2184 25.2428 40.7446C25.714 40.5812 26.196 40.4068 26.6864 40.2164C27.182 40.0257 27.6423 39.8295 28.0808 39.6307C28.0808 39.6307 33.4903 37.9778 35.6258 32.5342C35.6258 32.5342 35.7975 32.2919 35.3699 31.9052C35.329 31.8481 35.2909 31.7827 35.2552 31.7173C35.2471 31.7037 35.2417 31.6929 35.239 31.6791C35.07 31.2216 35.0293 30.2551 35.0456 29.4733V29.4244C35.0566 28.9533 35.0864 28.5557 35.1219 28.3705C35.1246 28.3597 35.1275 28.3488 35.1302 28.3378C35.1873 28.169 35.2663 28.0057 35.3699 27.8586H35.3509C35.4843 27.649 35.6585 27.4473 35.8165 27.1233L35.7321 21.4755C35.7321 21.4755 34.1713 21.5953 33.7302 19.7326H33.6618C33.0301 19.7326 32.5152 19.2207 32.5152 18.5863V15.577C32.5152 14.9453 33.0301 14.4307 33.6618 14.4307H54.7905C55.4224 14.4307 55.9372 14.9453 55.9372 15.577Z" fill="#FFD107"/>
<path fill-rule="evenodd" clip-rule="evenodd" d="M55.4606 18.5863C55.4606 18.8096 55.3543 19.0055 55.1882 19.128C55.0765 19.2099 54.9404 19.2588 54.7905 19.2588H33.6618C33.5584 19.2588 33.4605 19.2345 33.3732 19.1907C33.1473 19.0845 32.992 18.8559 32.992 18.5863V15.577C32.992 15.2068 33.2915 14.9072 33.6618 14.9072H54.7905C55.1609 14.9072 55.4606 15.2068 55.4606 15.577V18.5863ZM52.7067 20.8438H35.702C35.3997 20.8438 35.1192 20.724 34.9176 20.5198C34.7161 20.3208 34.5909 20.0431 34.5909 19.7326H34.9776V19.7353C34.9776 19.986 35.1056 20.2064 35.299 20.3373C35.4134 20.4162 35.5522 20.4598 35.702 20.4598H52.7094C53.11 20.4598 53.4341 20.1356 53.4341 19.7353V19.7326H53.8181C53.8181 20.3481 53.3224 20.8438 52.7067 20.8438ZM51.3013 27.1014L51.5599 21.6172H52.0013C51.9823 23.3817 51.9059 25.2688 51.7154 27.1887C51.5818 27.1423 51.443 27.1152 51.3013 27.1014ZM47.3027 26.3228C47.3273 26.2001 47.3681 26.0313 47.439 25.8109C47.5288 25.5111 47.6705 25.1108 47.8883 24.5745C48.0027 24.3103 48.1309 24.008 48.2834 23.6703C48.376 23.4715 48.4739 23.2646 48.5802 23.044C48.7655 22.6683 48.9561 22.2735 49.1577 21.8622C49.1658 21.8405 49.1766 21.8214 49.1877 21.7995C49.1985 21.7832 49.2012 21.7668 49.2039 21.7587C49.3075 21.9628 49.4055 22.1589 49.4982 22.3577C49.5961 22.5512 49.686 22.739 49.7787 22.9242C49.8496 23.0686 49.9148 23.2127 49.9802 23.3436C50.0184 23.4334 50.0592 23.5205 50.0974 23.5995C50.2472 23.9318 50.3779 24.2314 50.4869 24.4981C50.7048 25.0237 50.8463 25.4213 50.9364 25.7155C50.9991 25.9332 51.0397 26.0995 51.0643 26.2193C51.1025 26.4153 51.0916 26.4889 51.0916 26.4889L49.2123 22.6683L47.2754 26.5895C47.2754 26.5895 47.2648 26.5189 47.3029 26.3226L47.3027 26.3228ZM44.7777 21.7587C44.9767 22.1672 45.1672 22.5539 45.3471 22.9242C45.4152 23.0686 45.4806 23.213 45.5515 23.3436C45.5867 23.4334 45.6276 23.5205 45.6684 23.5995C45.742 23.7655 45.8101 23.9264 45.8756 24.0789C45.9408 24.2233 46.0008 24.3647 46.0525 24.4983C46.1125 24.6289 46.1615 24.7541 46.205 24.8712C46.3411 25.2144 46.4366 25.4948 46.502 25.7155C46.5264 25.789 46.5483 25.8569 46.5618 25.9197C46.5973 26.0422 46.6135 26.1376 46.6327 26.2193C46.6491 26.2982 46.6516 26.358 46.6546 26.3991C46.6654 26.4616 46.66 26.4889 46.66 26.4889L44.7777 22.6683L42.8494 26.5868C42.8683 26.576 43.0265 26.4616 43.3641 25.9905C43.5494 25.7371 43.7809 25.3777 44.0696 24.8739C44.214 24.6262 44.3774 24.3374 44.5462 24.0134C44.6116 23.8855 44.677 23.7549 44.7533 23.6213V27.0906H37.3988V21.6172H44.7533V21.8078C44.7614 21.786 44.7752 21.7668 44.7777 21.7587ZM36.5 27.1233V21.6172H36.887V27.0906H36.8435C36.7834 27.0906 36.7261 27.0935 36.6663 27.0987C36.6146 27.1044 36.5573 27.1152 36.5 27.1233ZM52.1866 30.8785C52.1866 31.445 51.7262 31.9052 51.1625 31.9052H36.8435C36.2741 31.9052 35.8165 31.445 35.8165 30.8785V28.8881C35.8165 28.3161 36.2741 27.8586 36.8435 27.8586H51.1625C51.7262 27.8586 52.1866 28.3161 52.1866 28.8881V30.8785ZM50.427 34.2171C50.288 34.7182 50.1355 35.2138 49.9694 35.7068C49.5553 36.9348 49.0514 38.1304 48.4249 39.274C48.169 39.7234 47.9102 40.1726 47.6105 40.6029C47.3356 41.0469 47.0032 41.4471 46.6873 41.8584C46.0144 42.6562 45.29 43.4188 44.4593 44.0586C44.0587 44.3909 43.6311 44.696 43.1926 44.9737C42.7485 45.2541 42.2881 45.5073 41.817 45.7334C40.8773 46.1882 39.8832 46.5422 38.8727 46.8009C38.1153 46.9943 37.3528 47.1576 36.5819 47.291C36.0726 47.3837 35.5605 47.4654 35.0456 47.5416C34.2774 47.656 33.504 47.7542 32.7305 47.8467C31.7035 47.9665 30.6685 48.0617 29.6388 48.1598C28.6066 48.2523 27.5769 48.3421 26.5474 48.4511C25.7792 48.5274 25.0113 48.6172 24.2458 48.7261C22.9683 48.9113 21.7044 49.1537 20.4761 49.5187C19.4955 49.8208 18.5448 50.2186 17.6924 50.7794C17.4772 50.9184 17.2729 51.068 17.0768 51.2259C16.6817 51.5501 16.3168 51.9122 16.0009 52.3071C15.8402 52.5086 15.693 52.7157 15.5542 52.9307C15.0012 53.7885 14.6335 54.7661 14.402 55.7709C14.3612 55.9807 14.3176 56.1958 14.2822 56.411C14.2494 56.6316 14.2224 56.8467 14.1978 57.0646C14.1732 57.07 14.1515 57.0754 14.1269 57.0836C14.1623 56.6368 14.2224 56.1876 14.304 55.7491C14.5083 54.7279 14.8513 53.7287 15.3961 52.83C15.4642 52.7184 15.5351 52.6094 15.6059 52.5004C15.9817 51.9641 16.4285 51.4766 16.9297 51.0545C17.1285 50.8803 17.3382 50.7223 17.5534 50.5752C17.9892 50.2783 18.4496 50.0223 18.9262 49.8046C19.403 49.5866 19.8877 49.3989 20.3862 49.2353C20.8874 49.0776 21.3884 48.9386 21.8951 48.8215C23.4178 48.4592 24.9702 48.2769 26.512 48.0998C27.5442 47.9854 28.5712 47.8875 29.6036 47.7921C30.6358 47.6885 31.6599 47.5879 32.6896 47.4654C34.738 47.2312 36.7943 46.9562 38.7855 46.4632C38.9081 46.4278 39.036 46.4007 39.1613 46.3734C39.2811 46.3407 39.4064 46.3053 39.5264 46.2644L40.2537 46.0194L40.6157 45.8969L40.9727 45.7444L41.6752 45.4367C41.9043 45.3223 42.1275 45.2052 42.3536 45.0825C42.8004 44.8347 43.2443 44.5762 43.6638 44.282C43.8735 44.1376 44.0777 43.9851 44.2794 43.8273C44.4837 43.6719 44.6852 43.5113 44.8786 43.3452C45.2654 43.0102 45.6305 42.6535 45.9789 42.2751C46.1561 42.0926 46.3303 41.8992 46.4966 41.7032C46.818 41.3029 47.1501 40.9108 47.4306 40.4777C47.7387 40.0666 48.0002 39.6226 48.2615 39.1788C49.3075 37.4032 50.0348 35.4507 50.6204 33.4683C50.5631 33.7189 50.4979 33.9721 50.427 34.2171ZM44.4591 38.6669L44.8786 38.2583C44.944 38.1902 45.0092 38.1168 45.072 38.0487C45.1374 37.9751 45.2001 37.9016 45.2654 37.828C45.5377 37.553 45.7609 37.2399 46.0008 36.9403C46.2323 36.6271 46.4447 36.3085 46.6435 35.9735C46.8398 35.6441 47.0222 35.3039 47.1883 34.9578C47.2729 34.7782 47.349 34.604 47.4198 34.4242C47.5669 34.0675 47.6976 33.7025 47.7985 33.3239C47.8504 33.1359 47.8912 32.9455 47.9294 32.7495C47.9294 32.9509 47.921 33.1443 47.8964 33.3458C47.8339 33.9339 47.6732 34.514 47.458 35.0722C47.39 35.2601 47.3108 35.4426 47.2264 35.6195C47.0549 35.9845 46.8588 36.3331 46.6435 36.6652C46.5347 36.8367 46.423 36.9975 46.3059 37.1609C45.8128 37.7926 45.2818 38.3891 44.6606 38.8846C44.3665 39.1542 44.0206 39.364 43.7046 39.5953C43.3641 39.7997 43.0182 39.9957 42.6751 40.1808C42.9773 39.9249 43.2962 39.6988 43.5929 39.443L44.0341 39.059C44.184 38.9338 44.3311 38.8056 44.4593 38.6669H44.4591ZM13.0236 56.95L12.8577 56.7869C12.8194 56.7485 12.7786 56.705 12.7379 56.6614C12.2038 56.076 11.9287 55.289 11.9914 54.4964C11.9914 54.4883 11.9941 54.4775 11.9941 54.4694C12.0214 54.1099 12.0539 53.7639 12.0894 53.4263C12.125 53.0532 12.1686 52.6965 12.2148 52.3535C12.2394 52.1791 12.2638 52.0131 12.2938 51.847C12.3401 51.5147 12.3999 51.1989 12.4599 50.8992C12.5199 50.5942 12.5824 50.3 12.656 50.0223C13.1491 48.0752 13.8545 46.7247 14.7698 45.7388C14.9005 45.6 15.0366 45.4637 15.1702 45.3412C17.0522 43.6338 19.6916 43.1519 23.0067 42.2259C23.2543 42.158 23.5022 42.0926 23.7527 42.0161C24.2621 41.8692 24.7825 41.7086 25.3164 41.5317C25.8528 41.3517 26.4005 41.1531 26.9669 40.9352C28.5576 40.3116 29.8841 39.6553 30.9845 38.9609C31.2623 38.7921 31.5238 38.6231 31.7743 38.4462C31.8969 38.3591 32.0169 38.2718 32.1367 38.182C32.6079 37.828 33.0301 37.4768 33.4032 37.1119C33.5939 36.9348 33.771 36.7523 33.9344 36.5727C34.0188 36.4829 34.0951 36.3875 34.1768 36.2977C34.4873 35.9381 34.7542 35.5705 34.9858 35.2111C35.0456 35.1213 35.1002 35.0286 35.1519 34.9388C35.2636 34.759 35.3617 34.574 35.4543 34.3969C35.5005 34.3071 35.5443 34.2144 35.5851 34.1246C35.6666 33.9477 35.7456 33.7679 35.8138 33.5881C35.8465 33.4983 35.8765 33.4139 35.9117 33.3239C36.0044 33.057 36.0807 32.7957 36.1516 32.5342C36.2576 32.5805 36.3639 32.6132 36.4838 32.6351C36.5982 32.6594 36.7207 32.6732 36.8435 32.6732H40.0439C39.9811 32.9455 39.8967 33.2368 39.8042 33.5118C39.6652 33.8958 39.51 34.2798 39.322 34.6503C38.9569 35.3907 38.4994 36.1016 37.9847 36.7715C37.7204 37.0982 37.4453 37.417 37.1511 37.7245C37.0096 37.8851 36.857 38.0376 36.7072 38.1847C36.5519 38.3345 36.3994 38.4787 36.236 38.6177C36.157 38.6912 36.078 38.7648 35.9936 38.8329C35.751 39.0398 35.4924 39.2278 35.2473 39.4346C34.9041 39.6907 34.5444 39.9303 34.1903 40.1808C34.3756 40.0774 34.5663 39.9766 34.7569 39.8759C34.9503 39.7697 35.1381 39.6688 35.3263 39.5572C35.596 39.3776 35.8765 39.2142 36.1516 39.0344C36.2414 38.9719 36.3312 38.9092 36.4131 38.8438C36.5928 38.7185 36.7699 38.5933 36.9441 38.4598C37.1129 38.3237 37.2874 38.1847 37.4534 38.0433C37.7859 37.7599 38.1072 37.463 38.4204 37.1528C39.0279 36.5208 39.5971 35.8266 40.0739 35.0749C40.3244 34.7019 40.5395 34.3042 40.7358 33.8958C40.9154 33.5064 41.0788 33.1332 41.207 32.6732H44.3311C44.2056 33.1032 44.0587 33.5418 43.8707 33.9883C43.7482 34.2879 43.6065 34.5875 43.4512 34.8926C43.2933 35.1974 43.1217 35.5024 42.9311 35.8074C42.0622 37.1855 40.8202 38.5796 39.0415 39.8814C38.4504 40.3197 37.7994 40.7419 37.0831 41.1504C36.6063 41.4225 36.1024 41.6894 35.566 41.9455C32.616 43.3752 28.751 44.568 23.6929 45.3304C15.6141 46.553 13.3723 50.1396 13.0236 56.95ZM54.7905 14.4307H33.6618C33.0301 14.4307 32.5152 14.9453 32.5152 15.577V18.5863C32.5152 19.2207 33.0301 19.7326 33.6618 19.7326H33.7302C34.1713 21.5953 35.7321 21.4755 35.7321 21.4755L35.8165 27.1235C35.6585 27.4473 35.4843 27.649 35.3509 27.8586H35.3699C35.2663 28.0057 35.1873 28.169 35.1302 28.3378C35.1275 28.3488 35.1246 28.3597 35.1221 28.3705C35.0864 28.5557 35.0566 28.9533 35.0456 29.4244V29.4733C35.0293 30.2551 35.0702 31.2216 35.239 31.6791C35.2417 31.6929 35.2473 31.7037 35.2554 31.7173C35.2909 31.7827 35.329 31.8481 35.3699 31.9052C35.7975 32.2919 35.6258 32.5342 35.6258 32.5342C33.4905 37.9778 28.0808 39.6307 28.0808 39.6307C27.6423 39.8295 27.182 40.0257 26.6864 40.2164C26.196 40.4068 25.714 40.5812 25.2428 40.7446C23.8236 41.2186 22.4998 41.5723 21.2986 41.8936C20.8956 42.0028 20.5061 42.1061 20.122 42.2097C19.1685 42.4739 18.278 42.7406 17.4607 43.0729C17.2973 43.1354 17.1339 43.2035 16.9787 43.2717C16.6627 43.4161 16.3576 43.5713 16.0636 43.74C15.9164 43.8273 15.7747 43.9171 15.6305 44.0069C15.35 44.1949 15.0774 44.3964 14.8215 44.6197C14.7725 44.6605 14.7234 44.6987 14.6798 44.7449C14.6635 44.7585 14.6471 44.7722 14.6335 44.7858C14.5629 44.8566 14.4891 44.9245 14.4185 44.9927C14.342 45.0664 14.2713 45.1425 14.1978 45.2268C14.1678 45.2568 14.1377 45.2841 14.1104 45.3196C14.0533 45.3848 13.9962 45.4475 13.9416 45.5183C13.8708 45.6027 13.8028 45.6898 13.732 45.7744C13.7264 45.7823 13.7237 45.7879 13.7184 45.7934C13.6503 45.8832 13.5821 45.9813 13.5194 46.0738C13.5032 46.0957 13.4894 46.1146 13.4786 46.1338C13.465 46.1528 13.4542 46.169 13.4404 46.1882C13.3996 46.2455 13.3669 46.2972 13.3342 46.3515C13.3043 46.3951 13.277 46.4413 13.2525 46.4824C13.1954 46.5749 13.141 46.673 13.0864 46.7709C13.0155 46.8908 12.9557 47.016 12.8903 47.1412C12.8848 47.1441 12.8821 47.1522 12.874 47.1576C11.6863 49.486 11.5502 51.945 11.5502 51.945C11.5502 51.945 11.3541 55.6349 11.7001 56.716C12.046 57.808 13.0647 57.8297 13.8191 57.6717C14.3366 57.5655 14.6906 57.1163 14.7507 56.5935C15.023 54.2216 16.2078 52.6259 17.4826 51.572C17.5015 51.5556 17.518 51.5447 17.5288 51.531C18.436 50.7032 19.5064 50.1748 20.7157 49.8235C20.773 49.8073 20.8193 49.7937 20.8683 49.78C20.9064 49.7718 20.9391 49.7583 20.9718 49.7527C20.9854 49.7473 21.0046 49.7418 21.0181 49.7391C21.0481 49.731 21.0835 49.7229 21.1106 49.7148C21.119 49.7091 21.1242 49.7091 21.1242 49.7091C25.665 48.5682 32.1011 49.6193 39.7033 46.9643C39.3982 46.9616 43.3614 45.7934 45.9327 43.5767C46.1696 43.3671 46.3957 43.16 46.5756 42.9639C47.2729 42.2232 47.9048 41.3982 48.4877 40.4914C49.2039 39.364 49.836 38.1058 50.3779 36.7279C50.7457 35.772 51.0779 34.7646 51.3586 33.6943C51.4565 33.3349 51.5466 32.9753 51.6308 32.6051C52.3908 32.3955 52.9547 31.7037 52.9547 30.8787V28.8881C52.9547 28.4005 52.7613 27.9565 52.4427 27.6298C52.644 25.7671 52.7476 23.763 52.7722 21.6088C53.7744 21.5736 54.5807 20.7565 54.5863 19.7545C54.5971 19.7464 54.608 19.741 54.619 19.7326H54.7905C55.4224 19.7326 55.9372 19.2207 55.9372 18.5863V15.577C55.9372 14.9453 55.4224 14.4307 54.7905 14.4307Z" fill="#B74719"/>
<path fill-rule="evenodd" clip-rule="evenodd" d="M40.3451 22.67L38.412 26.5911C38.412 26.5911 38.571 26.4972 38.9342 25.9886C39.1155 25.7344 39.3481 25.3767 39.6376 24.8756C39.7822 24.6247 39.9412 24.3382 40.115 24.0107C40.1863 23.8749 40.2618 23.7311 40.3418 23.5796C40.3451 23.5792 40.3451 23.5825 40.3451 23.5825C40.3451 23.5825 40.3453 23.5784 40.3491 23.5784L40.3524 23.5786L40.4124 23.6934C40.4574 23.7788 40.5012 23.8621 40.5441 23.943C40.7163 24.2659 40.8734 24.5482 41.0164 24.7954C41.3029 25.2898 41.5332 25.6421 41.7126 25.8925C42.0715 26.3938 42.2284 26.4866 42.2284 26.4866L40.3451 22.67Z" fill="#B74719"/>
<path fill-rule="evenodd" clip-rule="evenodd" d="M51.8023 28.8853C51.8023 28.6028 51.617 28.3653 51.3626 28.2805C51.1575 28.3892 50.7957 28.5644 50.2503 28.772C50.0942 28.8313 49.9236 28.8934 49.7373 28.9574C48.5256 29.3724 46.6571 29.866 43.962 30.2213C43.5475 30.2758 43.1132 30.3269 42.6593 30.3742C42.4322 30.3977 42.1998 30.4204 41.9624 30.4419C40.3013 30.5921 38.3894 30.6878 36.2006 30.6944V30.8786C36.2006 31.1874 36.4208 31.4457 36.7122 31.5055C36.7541 31.5143 36.7972 31.5185 36.841 31.5185H51.1619C51.2061 31.5185 51.2492 31.5143 51.2909 31.5055C51.5822 31.4457 51.8023 31.1874 51.8023 30.8786V28.8853Z" fill="#B74719"/>
<path fill-rule="evenodd" clip-rule="evenodd" d="M52.7957 17.5852C50.9901 17.5852 49.3361 16.4896 48.6285 14.842H39.2734C39.0944 14.8689 38.9177 14.882 38.7341 14.882H34.0282C31.9685 14.882 30.2932 13.2068 30.2932 11.1477C30.2932 10.152 30.6815 9.21543 31.3865 8.51036C32.0961 7.80509 33.0341 7.41714 34.0282 7.41714H36.4571C36.4948 6.40517 36.9058 5.46154 37.6241 4.74523C38.3802 3.99141 39.3841 3.57637 40.4503 3.57637C41.3989 3.57637 42.2952 3.90307 43.0109 4.50312C43.4294 2.07582 45.5694 0.237732 48.0805 0.237732H48.9063C51.4722 0.237732 53.6554 2.16374 54.0018 4.6746C54.2472 4.61105 54.4996 4.57876 54.7555 4.57876C55.5554 4.57876 56.3071 4.89003 56.8721 5.45508C57.4385 6.02118 57.7505 6.77271 57.7505 7.57111C57.7505 8.37285 57.4383 9.12396 56.8714 9.6861C56.6964 9.86132 56.4992 10.0143 56.2831 10.1426C56.9629 10.9548 57.3337 11.9742 57.3337 13.0462C57.3337 14.2576 56.8625 15.3981 56.0068 16.2577C55.1459 17.1141 54.0059 17.5852 52.7957 17.5852Z" fill="#FFE6AE"/>
<path fill-rule="evenodd" clip-rule="evenodd" d="M48.9062 0H48.0803C45.5847 0 43.4396 1.73495 42.8555 4.08579C42.155 3.59991 41.3235 3.33843 40.4501 3.33843C39.3204 3.33843 38.2571 3.77826 37.456 4.57688C36.7491 5.28152 36.3231 6.19432 36.2339 7.17941H34.0282C32.9706 7.17941 31.9732 7.59194 31.2192 8.34118C30.4683 9.09208 30.0551 10.0884 30.0551 11.1477C30.0551 13.3379 31.8375 15.1197 34.0282 15.1197H38.7337C38.9236 15.1197 39.1063 15.1066 39.2908 15.0799H48.4744C49.2521 16.7334 50.9483 17.8231 52.7956 17.8231C54.0691 17.8231 55.2689 17.3272 56.1735 16.4271C57.0755 15.5208 57.5715 14.3207 57.5715 13.0462C57.5715 12.0084 57.2412 11.0171 56.6312 10.1995C56.7771 10.0955 56.9138 9.98008 57.0401 9.85361C57.6511 9.24751 57.9881 8.4366 57.9881 7.57111C57.9881 6.70936 57.6515 5.89825 57.0401 5.28694C56.4301 4.67709 55.6186 4.34102 54.7554 4.34102C54.567 4.34102 54.3805 4.35727 54.1966 4.38936C53.9866 3.25967 53.4197 2.22645 52.5667 1.43492C51.5693 0.509629 50.2693 0 48.9062 0ZM48.9062 0.47546C51.4843 0.47546 53.5967 2.4596 53.7963 4.98775C54.0952 4.87753 54.4205 4.81669 54.7554 4.81669C55.5165 4.81669 56.2054 5.12484 56.7037 5.62322C57.2043 6.12368 57.5125 6.81041 57.5125 7.57111C57.5125 8.33035 57.2043 9.02083 56.7037 9.51733C56.4736 9.74756 56.2015 9.93591 55.9028 10.0747C56.6429 10.8452 57.0959 11.8934 57.0959 13.0462C57.0959 14.2371 56.6143 15.3099 55.838 16.09C55.058 16.8661 53.9847 17.3474 52.7956 17.3474C50.9687 17.3474 49.4086 16.2098 48.7882 14.6043H39.2551C39.0838 14.6309 38.9127 14.6443 38.7339 14.6443H34.0282C32.097 14.6443 30.5308 13.0785 30.5308 11.1477C30.5308 10.1832 30.923 9.31002 31.5547 8.6785C32.1901 8.04678 33.0617 7.65487 34.0282 7.65487H36.6941C36.6922 7.62632 36.6922 7.59611 36.6922 7.56944C36.6922 6.5306 37.1107 5.5928 37.7919 4.91378C38.4751 4.23268 39.4114 3.8141 40.4503 3.8141C41.4892 3.8141 42.4272 4.23268 43.1066 4.91378C43.1333 4.94233 43.1616 4.97066 43.1883 5.00108C43.3804 2.46918 45.4963 0.47546 48.0805 0.47546H48.9062Z" fill="#B74719"/>
<path fill-rule="evenodd" clip-rule="evenodd" d="M50.1434 48.5696C49.9235 48.4767 49.7708 48.3721 49.692 48.2546C49.5953 48.2611 49.5268 48.3105 49.4744 48.385C49.3529 48.2223 49.2852 48.0838 49.255 47.9625C49.2431 47.9152 49.2369 47.8708 49.2352 47.8277C49.0958 47.8431 48.9757 47.8896 48.8761 47.9654C48.8426 47.7333 48.9022 47.4656 48.9801 47.1906C48.9749 47.1641 48.9699 47.1385 48.9666 47.1141C48.5877 47.5746 48.1934 47.9706 47.7683 48.2488C47.5628 48.2171 47.4863 48.1475 47.4905 48.0546C48.0584 47.8156 48.4666 47.4108 48.7984 46.9251C48.748 46.931 48.689 46.9368 48.6225 46.941C48.343 47.0743 48.0671 47.1906 47.8074 47.2172C47.8654 47.112 47.8873 46.9972 47.87 46.8718C47.7034 46.9032 47.4942 46.8903 47.2089 46.7974C47.2769 46.7347 47.3142 46.6622 47.2979 46.577C47.1522 46.5372 47.0013 46.429 46.8482 46.2603C46.9378 46.228 46.9905 46.1807 47.0057 46.1178C46.815 45.9596 46.6648 45.7217 46.5387 45.436C46.7025 45.5096 46.8221 45.53 46.8992 45.4981C46.7511 45.2627 46.6756 44.9922 46.6762 44.6857C46.7669 44.8014 46.8694 44.882 46.9907 44.906C46.9211 44.6087 46.9155 44.3018 46.9774 43.9849C47.0541 44.1199 47.1491 44.2238 47.2754 44.2715C47.2873 43.9849 47.3811 43.665 47.5692 43.3077C47.5834 43.4967 47.6297 43.6167 47.6922 43.7011C47.7662 43.4711 47.8779 43.2298 48.0767 42.965C48.1607 43.0931 48.2215 43.2994 48.2757 43.5273C48.3578 43.5269 48.4266 43.484 48.4825 43.4046C48.5308 43.4931 48.5635 43.5794 48.5848 43.664C48.6142 43.7813 48.6215 43.8953 48.6154 44.0082C48.7227 44.0384 48.8028 44.0015 48.8732 43.9436C48.9699 44.1044 49.0424 44.5066 49.0789 44.9341C49.2979 45.6936 49.1366 46.0944 49.4469 45.935C49.657 45.8277 49.524 45.4764 49.4513 45.0372C49.3584 44.7358 49.274 44.0899 49.3294 43.7777C49.3909 43.86 49.4586 43.9317 49.5699 43.9436C49.6528 43.6315 49.7904 43.3277 49.9809 43.0323C50.0086 43.1379 50.0605 43.235 50.1586 43.3156C50.4289 43.0227 50.7671 42.7702 51.1391 42.5381C51.1087 42.6299 51.1077 42.7158 51.1279 42.797C51.1387 42.8402 51.1564 42.8825 51.1779 42.9235C51.4061 42.7256 51.7229 42.567 52.0945 42.4318C52.0126 42.5512 51.9769 42.6639 51.9771 42.7714C52.2566 42.7116 52.5334 42.6322 52.7972 42.4953H52.7986C52.7555 42.6264 52.7299 42.7568 52.7145 42.8864C52.699 43.0162 52.6942 43.1456 52.6955 43.2744C52.8122 43.2492 52.9262 43.1902 53.0362 43.091C53.0075 43.2681 52.9685 43.4358 52.9176 43.5888C52.8662 43.7427 52.8026 43.8826 52.7226 44.0057C52.8645 44.0311 53.0068 44.0215 53.1498 43.9467C52.9875 44.3257 52.7951 44.6803 52.5419 44.986C52.6523 45.0514 52.7703 45.0729 52.8916 45.072C52.6178 45.3085 52.3214 45.501 52.0026 45.6481C52.0415 45.7417 52.1363 45.7838 52.2395 45.8171C51.9148 45.9407 51.1942 46.0221 50.8453 46.013C50.351 46.0563 49.9381 46.0248 49.8723 46.2332C49.7741 46.5409 50.1705 46.3047 51.0462 46.3119C51.5184 46.2417 51.9719 46.2082 52.1701 46.253C52.1363 46.3088 52.1159 46.3659 52.1311 46.4263C52.1366 46.4476 52.1466 46.4703 52.162 46.4928C52.3702 46.4378 52.593 46.4147 52.8482 46.4634C52.7747 46.5315 52.7451 46.6011 52.7645 46.6732C53.0246 46.6653 53.2623 46.6688 53.422 46.7114C53.1823 46.9474 52.9479 47.1022 52.7161 47.2218C52.8224 47.2558 52.9637 47.2677 53.1721 47.2343C53.0008 47.3591 52.8343 47.4604 52.6724 47.5412C52.5098 47.6214 52.3516 47.6806 52.1976 47.7204C52.2795 47.8194 52.4154 47.8767 52.5794 47.9113C52.4533 47.9608 52.326 48.0023 52.1985 48.0342C51.9938 48.0852 51.7867 48.1138 51.578 48.1202C51.6326 48.2204 51.7448 48.2898 51.8921 48.3411C51.5599 48.4155 51.249 48.4144 50.9583 48.3425C50.9418 48.4171 50.9926 48.5165 51.1116 48.6407C50.7717 48.5999 50.4777 48.5263 50.2601 48.3982C50.1963 48.4269 50.1572 48.4838 50.1434 48.5696Z" fill="#007932"/>
<path fill-rule="evenodd" clip-rule="evenodd" d="M16.4482 28.0595C16.638 28.3416 16.7385 28.5853 16.7406 28.7868C16.861 28.8543 16.9811 28.8491 17.1017 28.8008C17.1197 29.0893 17.0924 29.3073 17.0338 29.4756C17.0111 29.5415 16.9838 29.5992 16.9521 29.6517C17.1305 29.7421 17.3095 29.7802 17.4877 29.7675C17.3466 30.0703 17.0667 30.343 16.7591 30.6101C16.7447 30.6455 16.7308 30.6801 16.7156 30.7118C17.5265 30.4584 18.3055 30.2936 19.0292 30.2936C19.2495 30.4913 19.2862 30.6341 19.2089 30.7416C18.3457 30.5836 17.5431 30.7478 16.7687 31.0681C16.8335 31.1006 16.9083 31.1395 16.9909 31.1864C17.4279 31.2454 17.8476 31.3218 18.1779 31.4927C18.0266 31.5727 17.911 31.6927 17.8338 31.8556C18.0568 31.9477 18.2961 32.1265 18.5639 32.4596C18.4338 32.4815 18.3328 32.5386 18.2859 32.653C18.4284 32.8138 18.5237 33.0605 18.5749 33.381C18.4428 33.3499 18.343 33.3649 18.2757 33.4281C18.3799 33.7652 18.3732 34.166 18.3011 34.6048C18.1631 34.3894 18.0362 34.2719 17.9197 34.2498C17.9126 34.6459 17.7913 35.0272 17.5517 35.3922C17.5335 35.1834 17.4744 35.0074 17.3485 34.8845C17.1995 35.2928 16.9671 35.6631 16.646 35.9925C16.6599 35.7718 16.628 35.5739 16.5142 35.4187C16.2765 35.751 15.9155 36.0594 15.4122 36.3385C15.5429 36.1021 15.5812 35.9231 15.5725 35.7737C15.3051 35.99 14.9835 36.1906 14.5401 36.3513C14.5399 36.1331 14.6282 35.8397 14.7416 35.5258C14.6432 35.4622 14.528 35.4599 14.3992 35.5108C14.4109 35.3676 14.439 35.2393 14.4798 35.122C14.5363 34.9593 14.6161 34.8178 14.7116 34.688C14.6074 34.568 14.483 34.5496 14.354 34.5638C14.3642 34.2967 14.5915 33.7608 14.8812 33.2226C15.2128 32.1467 15.7175 31.7946 15.2234 31.7427C14.8896 31.7069 14.7739 32.229 14.518 32.8095C14.3938 33.2412 13.9903 34.0767 13.6808 34.4057C13.6719 34.2598 13.6469 34.1213 13.5235 34.0206C13.1813 34.3279 12.7803 34.5825 12.3229 34.7865C12.3723 34.6388 12.3862 34.4827 12.3323 34.31C11.7813 34.4486 11.1813 34.4859 10.5567 34.4725C10.6646 34.3865 10.7328 34.285 10.772 34.1725C10.7926 34.1125 10.8047 34.0487 10.8111 33.9827C10.3845 34.041 9.88355 33.9829 9.33504 33.8544C9.52573 33.776 9.65619 33.6693 9.73996 33.541C9.36005 33.3943 8.96826 33.2731 8.54708 33.231L8.54541 33.2295C8.699 33.107 8.83134 32.9716 8.95075 32.8291C9.07016 32.6863 9.17707 32.5357 9.27606 32.3813C9.11705 32.3207 8.93554 32.3019 8.72672 32.3342C8.89927 32.1457 9.07642 31.9761 9.25647 31.8333C9.43778 31.6902 9.62243 31.5729 9.81416 31.4887C9.66473 31.3475 9.48738 31.2483 9.25877 31.2258C9.74788 30.9005 10.2539 30.628 10.7941 30.4611C10.7134 30.2969 10.5896 30.1794 10.4444 30.0857C10.9554 30.0173 11.4586 30.019 11.9534 30.0923C11.9801 29.9505 11.8998 29.8261 11.8027 29.7058C12.2862 29.8119 13.2086 30.2767 13.6173 30.5595C14.2404 30.8935 14.7078 31.2527 14.9489 31.0558C15.3059 30.7655 14.6491 30.738 13.6114 30.0465C12.9935 29.7621 12.4269 29.4485 12.2256 29.2406C12.3093 29.2006 12.3779 29.1481 12.4071 29.0643C12.4173 29.0348 12.4231 29 12.4223 28.961C12.1309 28.8645 11.8477 28.7183 11.5812 28.4612C11.7221 28.4372 11.8119 28.3772 11.8448 28.2763C11.5285 28.083 11.2477 27.8934 11.0906 27.7184C11.5606 27.6236 11.9611 27.6219 12.3304 27.66C12.2301 27.5367 12.0707 27.4125 11.7967 27.2896C12.098 27.2746 12.3758 27.2835 12.6315 27.3135C12.8881 27.3446 13.1227 27.3975 13.3372 27.47C13.317 27.2881 13.1996 27.114 13.031 26.945C13.2201 26.9839 13.4041 27.0341 13.5812 27.0954C13.8646 27.194 14.1341 27.3215 14.3875 27.4767C14.4006 27.3146 14.321 27.1444 14.1858 26.9685C14.6395 27.139 15.0094 27.3823 15.2999 27.6948C15.3776 27.6188 15.3945 27.4609 15.3497 27.2196C15.723 27.5334 16.016 27.8505 16.1754 28.1726C16.2738 28.1884 16.3648 28.1509 16.4482 28.0595Z" fill="#007932"/>
<path fill-rule="evenodd" clip-rule="evenodd" d="M28.5717 20.0483C28.2433 20.0521 27.9936 20.0039 27.83 19.8989C27.7117 19.9604 27.6525 20.06 27.6275 20.1829C27.3849 20.0443 27.2236 19.9068 27.1188 19.7706C27.0779 19.7174 27.0458 19.6649 27.0202 19.6116C26.8526 19.7074 26.7272 19.8316 26.643 19.982C26.4736 19.7081 26.4017 19.3378 26.3491 18.9484C26.3281 18.918 26.3077 18.8884 26.2902 18.8594C26.0651 19.6474 25.7856 20.3629 25.4024 20.9467C25.126 21.0194 24.9914 20.9736 24.9458 20.8544C25.5303 20.2419 25.8227 19.5078 25.9746 18.7136C25.9138 18.7486 25.8429 18.7884 25.7614 18.8299C25.4824 19.1513 25.1983 19.4491 24.8855 19.6251C24.9012 19.4608 24.8655 19.3039 24.7751 19.1555C24.5827 19.2866 24.3118 19.3847 23.9013 19.4243C23.9521 19.3078 23.9598 19.1961 23.8923 19.0976C23.687 19.1274 23.4376 19.0738 23.1518 18.9453C23.2469 18.8553 23.2875 18.7667 23.2721 18.679C22.9453 18.5844 22.6252 18.3669 22.3095 18.0762C22.5564 18.079 22.7184 18.0392 22.798 17.9567C22.4823 17.7412 22.2386 17.4416 22.0713 17.0549C22.2491 17.1512 22.4224 17.1966 22.5883 17.1601C22.3378 16.8236 22.1621 16.4401 22.0663 16.0067C22.237 16.1348 22.4137 16.2138 22.5992 16.2044C22.4568 15.8365 22.3993 15.3823 22.4406 14.8289C22.5623 15.0591 22.6863 15.1849 22.8113 15.257C22.7784 14.9266 22.7869 14.5613 22.8922 14.1186C23.0683 14.2338 23.2581 14.4605 23.4515 14.718C23.5549 14.6726 23.6178 14.5807 23.6449 14.4499C23.7541 14.5351 23.8427 14.6257 23.9161 14.7207C24.0171 14.8526 24.089 14.992 24.1432 15.1376C24.2953 15.117 24.3758 15.0266 24.4331 14.9149C24.643 15.0647 24.9549 15.5318 25.2356 16.0504C25.9282 16.8876 25.945 17.481 26.2485 17.1101C26.4544 16.8597 26.0941 16.4901 25.7614 15.9763C25.4791 15.6475 25.0183 14.8797 24.917 14.4559C25.0393 14.5259 25.1642 14.5791 25.3109 14.533C25.2442 14.0942 25.2511 13.636 25.3288 13.1591C25.4218 13.2771 25.5403 13.371 25.7083 13.4187C25.8884 12.9014 26.176 12.3976 26.5175 11.9011C26.5296 12.0336 26.5755 12.1424 26.6455 12.2334C26.6828 12.282 26.728 12.3255 26.7778 12.3655C26.9566 11.9909 27.269 11.6175 27.6633 11.2433C27.6254 11.4386 27.6423 11.6002 27.7014 11.7357C28.0209 11.5069 28.3262 11.2552 28.5834 10.9379L28.5853 10.9375C28.603 11.1262 28.642 11.3046 28.6939 11.4765C28.7455 11.6484 28.8106 11.8142 28.8829 11.9757C29.0158 11.8796 29.1273 11.7432 29.2115 11.5577C29.2724 11.7967 29.3155 12.0292 29.3353 12.2501C29.3547 12.4722 29.3516 12.683 29.318 12.8824C29.5112 12.8368 29.685 12.7464 29.8242 12.5739C29.8276 13.1406 29.7796 13.6929 29.6281 14.2169C29.8034 14.2388 29.9636 14.2013 30.1162 14.1336C29.9007 14.582 29.6329 14.9868 29.3118 15.3472C29.412 15.4437 29.555 15.445 29.7031 15.4304C29.3616 15.764 28.4984 16.2617 28.0539 16.4415C27.4543 16.7672 26.9168 16.9539 26.9481 17.2526C26.9933 17.6941 27.3632 17.1791 28.4707 16.7084C29.0273 16.3607 29.5804 16.0698 29.8549 16.0175C29.8426 16.1065 29.8488 16.1896 29.9009 16.2573C29.9193 16.2813 29.9443 16.3044 29.9761 16.3244C30.2083 16.1407 30.4763 15.9894 30.825 15.9108C30.7695 16.0371 30.7704 16.1411 30.8343 16.2211C31.158 16.0686 31.4595 15.9425 31.684 15.9088C31.5116 16.3375 31.301 16.6615 31.0746 16.9393C31.227 16.9236 31.4118 16.8611 31.6559 16.7051C31.5085 16.9561 31.3543 17.1751 31.1947 17.3656C31.0336 17.556 30.8669 17.7173 30.6947 17.8516C30.8521 17.9319 31.0548 17.9294 31.2803 17.8829C31.1488 18.0148 31.0111 18.1367 30.8675 18.2469C30.638 18.4234 30.3925 18.5732 30.1331 18.6953C30.2569 18.7917 30.4363 18.8176 30.6499 18.8017C30.2721 19.0774 29.8799 19.2468 29.4739 19.3155C29.4939 19.4185 29.6127 19.5158 29.8309 19.6072C29.3801 19.7422 28.9692 19.8106 28.6245 19.7685C28.5599 19.8395 28.5417 19.9327 28.5717 20.0485V20.0483Z" fill="#007932"/>
<path fill-rule="evenodd" clip-rule="evenodd" d="M53.5535 57.6418C53.2865 57.6418 53.0356 57.538 52.8468 57.3493L15.5405 20.0515C15.3519 19.8631 15.2479 19.6121 15.2479 19.3452C15.2479 19.0783 15.3519 18.8274 15.5405 18.6386C15.7293 18.4501 15.9802 18.3463 16.2472 18.3463C16.514 18.3463 16.7649 18.4501 16.9535 18.6388L54.26 55.9366C54.4486 56.125 54.5528 56.376 54.5528 56.6429C54.5528 56.9098 54.4486 57.1609 54.26 57.3495C54.0714 57.538 53.8205 57.6418 53.5535 57.6418Z" fill="#FFD107"/>
<path fill-rule="evenodd" clip-rule="evenodd" d="M16.2471 18.0131C15.8914 18.0131 15.5567 18.1516 15.3051 18.4031C15.0534 18.6546 14.9148 18.9892 14.9148 19.3451C14.9148 19.7012 15.0534 20.0356 15.3051 20.2871L52.6114 57.5846C52.8632 57.8361 53.1977 57.9747 53.5534 57.9747C53.9091 57.9747 54.2438 57.8361 54.4956 57.5846C54.7471 57.3331 54.8857 56.9987 54.8857 56.6427C54.8857 56.2868 54.7471 55.9522 54.4954 55.7007L17.1891 18.4031C16.9373 18.1516 16.6028 18.0131 16.2471 18.0131ZM16.2471 18.679C16.4174 18.679 16.588 18.7442 16.7181 18.8742L54.0246 56.1718C54.2847 56.4318 54.2847 56.8537 54.0246 57.1135C53.8943 57.2438 53.7239 57.3088 53.5534 57.3088C53.3831 57.3088 53.2124 57.2438 53.0824 57.1135L15.7761 19.816C15.5158 19.5559 15.5158 19.1342 15.7761 18.8742C15.9062 18.7442 16.0766 18.679 16.2471 18.679Z" fill="#B74719"/>
<path fill-rule="evenodd" clip-rule="evenodd" d="M3.17299 19.124C2.6001 19.6093 2.13953 20.1862 1.89383 20.7446L1.82901 20.8967L1.923 21.0321C2.27708 21.5445 2.87102 22.0258 3.56479 22.3777C3.46059 22.4568 3.36264 22.5381 3.26677 22.6173C2.04992 22.6298 0.656133 21.9153 -0.00012207 21.0924C0.464404 20.1989 1.58539 19.2449 2.70221 18.9282C2.85414 18.9969 3.01065 19.0615 3.17299 19.124Z" fill="#007932"/>
<path fill-rule="evenodd" clip-rule="evenodd" d="M6.92348 23.8609C6.79636 24.0378 6.67965 24.2128 6.57545 24.3795C6.55899 24.3837 6.54002 24.3899 6.52356 24.3941C5.33588 24.7066 4.14404 24.4649 2.97949 23.6797L3.02305 23.6359C3.16684 23.4921 3.32315 23.3442 3.49403 23.1984C3.63575 23.0736 3.7858 22.9525 3.94418 22.8319C4.02316 22.7694 4.10444 22.709 4.18989 22.6485C4.24615 22.6714 4.30242 22.6902 4.35661 22.7069C4.50665 22.7569 4.65462 22.7965 4.80654 22.8319C5.08372 22.8965 5.36506 22.9358 5.63994 22.9444L5.67954 22.9881C5.99005 23.3234 6.42561 23.6255 6.92348 23.8609Z" fill="#007932"/>
<path fill-rule="evenodd" clip-rule="evenodd" d="M11.2575 23.7401C11.2575 23.9151 11.2596 24.0837 11.2679 24.2462C11.0533 24.4274 10.8138 24.6004 10.5429 24.7502C9.46984 25.344 8.25528 25.4044 6.93005 24.9296C6.93839 24.9127 6.95089 24.8962 6.96131 24.8775C7.04051 24.7441 7.12803 24.6066 7.2239 24.4649C7.30726 24.3399 7.39458 24.2149 7.49044 24.0899C7.58631 24.1232 7.68634 24.1524 7.78637 24.1816C7.91975 24.2191 8.0573 24.2524 8.19276 24.2795C8.99698 24.442 9.83246 24.4233 10.5262 24.1337C10.8013 24.0172 11.0451 23.8857 11.2575 23.7401Z" fill="#007932"/>
<path fill-rule="evenodd" clip-rule="evenodd" d="M4.09406 16.6409C4.32539 17.2305 4.60673 17.7241 4.91704 18.1387C4.73802 18.1929 4.56297 18.2638 4.39208 18.3429C4.24828 18.4073 4.11074 18.4781 3.97548 18.5594L3.97319 18.5617C3.89191 18.6052 3.81501 18.6532 3.73999 18.7032C3.58161 18.649 3.4253 18.5927 3.27317 18.5284L3.27109 18.5261C3.09603 18.4554 2.92535 18.3804 2.76488 18.3031C2.58149 18.2156 2.40852 18.1262 2.24805 18.0367C2.8001 17.3764 3.41697 16.9097 4.09406 16.6409Z" fill="#007932"/>
<path fill-rule="evenodd" clip-rule="evenodd" d="M7.52359 20.1323C7.14222 20.405 6.79627 20.7384 6.50264 21.0947C6.41719 21.1967 6.33592 21.3028 6.26089 21.407C6.18378 21.5174 6.10876 21.6299 6.04624 21.7424C5.92141 21.9466 5.81491 22.1529 5.73572 22.3569C5.6607 22.3569 5.58588 22.3527 5.51294 22.3464C5.38373 22.3381 5.25452 22.3214 5.12531 22.2964C5.03153 22.2818 4.93567 22.2612 4.83981 22.2362C4.80438 22.2298 4.76895 22.2196 4.7356 22.2068C4.63995 22.1818 4.54408 22.1529 4.44822 22.1193C4.3336 22.08 4.22106 22.0341 4.11269 21.9841C3.45227 21.7028 2.86875 21.282 2.50842 20.83C2.77726 20.3156 3.26054 19.7822 3.83781 19.3595L3.83969 19.3574C3.9441 19.2824 4.05226 19.2116 4.16063 19.1407C4.25649 19.0824 4.35236 19.0282 4.4503 18.9761C4.4774 18.9615 4.50866 18.947 4.53575 18.9324L4.53783 18.9303C4.62536 18.8886 4.71268 18.847 4.80229 18.8115C4.92108 18.7594 5.04404 18.7157 5.16699 18.6803C5.22326 18.6615 5.27953 18.6469 5.33788 18.6344C5.56712 18.8761 5.80658 19.0824 6.04624 19.2595C6.05041 19.2637 6.05666 19.2657 6.06083 19.2699C6.06708 19.2762 6.07542 19.2803 6.08375 19.2887L6.09209 19.297C6.19004 19.378 6.29424 19.4533 6.40052 19.5262C6.74438 19.7697 7.12555 19.976 7.52359 20.1323Z" fill="#007932"/>
<path fill-rule="evenodd" clip-rule="evenodd" d="M6.61313 16.968C6.66315 17.0514 6.71296 17.1305 6.76714 17.2097C6.74005 17.1701 6.71296 17.1305 6.68586 17.0909C6.66106 17.0493 6.63814 17.0097 6.61084 16.9701L6.61313 16.968Z" fill="#007932"/>
<path fill-rule="evenodd" clip-rule="evenodd" d="M7.64019 20.7988C8.99251 21.9216 10.2906 22.2943 11.3697 22.3318C11.3364 22.5318 11.3114 22.736 11.2949 22.9361C11.0594 23.1921 10.7281 23.4109 10.2988 23.5901C9.8655 23.7692 9.36117 23.8232 8.84454 23.7818C8.71117 23.7693 8.578 23.7526 8.44462 23.7317C8.3175 23.7086 8.19246 23.6838 8.06533 23.6484C8.0049 23.6338 7.94238 23.6172 7.88194 23.5984C7.77774 23.5692 7.67771 23.5359 7.57559 23.5005C7.47973 23.463 7.38386 23.4255 7.29237 23.3838C6.96935 23.2442 6.67571 23.0713 6.4298 22.8798C6.35894 22.8256 6.29226 22.7673 6.22974 22.7089C6.24224 22.6756 6.25474 22.6423 6.26933 22.6069C6.3131 22.4964 6.36311 22.3839 6.42334 22.2737C6.52358 22.082 6.64633 21.8882 6.78387 21.7007C6.85056 21.6132 6.91725 21.5257 6.99019 21.4403C7.06105 21.3569 7.13607 21.2738 7.21526 21.1944C7.24027 21.1653 7.26528 21.1405 7.29237 21.1134C7.40283 21.003 7.51932 20.8946 7.64019 20.7988Z" fill="#007932"/>
<path fill-rule="evenodd" clip-rule="evenodd" d="M11.1914 21.7362L11.1935 21.7383H11.1891C11.1744 21.7362 11.1596 21.7341 11.1429 21.7341C11.1596 21.7341 11.1744 21.7362 11.1914 21.7362Z" fill="#007932"/>
<path fill-rule="evenodd" clip-rule="evenodd" d="M15.0951 21.1113C15.0409 21.5195 14.9242 21.9695 14.7139 22.4131C14.1866 23.5234 13.2365 24.2816 11.8865 24.6691C11.8803 24.6129 11.8761 24.5545 11.8698 24.4983C11.8613 24.3691 11.8553 24.2337 11.8511 24.0962C11.8469 23.9545 11.8469 23.8088 11.8469 23.6588C11.8511 23.5005 11.8573 23.3359 11.8678 23.1713C11.8884 22.884 11.9219 22.5964 11.9761 22.3175C12.2635 22.2964 12.5261 22.2547 12.7658 22.1985C13.695 21.9862 14.5076 21.5445 15.0951 21.1113Z" fill="#007932"/>
<path fill-rule="evenodd" clip-rule="evenodd" d="M15.7168 6.58332C16.2023 6.01056 16.7794 5.5501 17.3377 5.30424L17.4898 5.23965L17.6253 5.33341C18.1378 5.68761 18.6192 6.28121 18.9712 6.97502C19.0506 6.87084 19.1316 6.77292 19.2108 6.67708C19.2233 5.46051 18.5087 4.06705 17.6857 3.41074C16.7919 3.87536 15.8376 4.99609 15.5209 6.11244C15.5896 6.26454 15.6542 6.4208 15.7168 6.58332Z" fill="#007932"/>
<path fill-rule="evenodd" clip-rule="evenodd" d="M20.4549 10.3328C20.632 10.2057 20.8071 10.089 20.9736 9.98486C20.978 9.96819 20.984 9.94944 20.9882 9.93298C21.3008 8.74558 21.059 7.55401 20.2736 6.38953L20.2298 6.43328C20.086 6.57704 19.938 6.73331 19.7924 6.90416C19.6673 7.04563 19.5465 7.19564 19.4256 7.35399C19.3631 7.43316 19.3026 7.51442 19.2422 7.59985C19.2651 7.65589 19.2839 7.71236 19.3005 7.76653C19.3506 7.91633 19.3902 8.06426 19.4256 8.21636C19.4902 8.49347 19.5298 8.77454 19.5381 9.04956L19.5819 9.08915C19.9174 9.39959 20.2194 9.83484 20.4549 10.3328Z" fill="#007932"/>
<path fill-rule="evenodd" clip-rule="evenodd" d="M20.3339 14.6655C20.5089 14.6655 20.6777 14.6676 20.8401 14.6759C21.0216 14.4613 21.1944 14.2219 21.3444 13.9511C21.9381 12.8783 21.9986 11.6638 21.5236 10.3391C21.507 10.3474 21.4903 10.3599 21.4715 10.3703C21.3381 10.4495 21.2006 10.5368 21.0589 10.6329C20.9341 10.7162 20.8088 10.8037 20.684 10.8993C20.7171 10.9952 20.7465 11.0952 20.7757 11.1952C20.813 11.3285 20.8465 11.4658 20.8734 11.6015C21.036 12.4055 21.0172 13.2408 20.7275 13.9344C20.611 14.2094 20.4797 14.4532 20.3339 14.6655Z" fill="#007932"/>
<path fill-rule="evenodd" clip-rule="evenodd" d="M14.6288 5.65927C14.7184 5.8197 14.8078 5.99242 14.8953 6.17577C14.9724 6.33621 15.0477 6.50705 15.1183 6.68186L15.1204 6.68395C15.185 6.83605 15.2413 6.99231 15.2955 7.15066C15.2454 7.22566 15.1975 7.30275 15.1537 7.38401L15.1517 7.38609C15.0704 7.52152 14.9995 7.65904 14.9351 7.8028C14.8747 7.92969 14.8203 8.06303 14.7747 8.19638C14.362 7.89218 13.8683 7.61528 13.2806 7.39026C13.5557 6.75708 14.0077 6.17994 14.6288 5.65927Z" fill="#007932"/>
<path fill-rule="evenodd" clip-rule="evenodd" d="M18.5765 7.52339C18.6265 7.63173 18.6724 7.74424 18.712 7.85884C18.7453 7.95468 18.7745 8.05052 18.7995 8.14637C18.8122 8.1797 18.8224 8.21512 18.8287 8.25054C18.8537 8.34618 18.8745 8.44202 18.8891 8.53578C18.9141 8.66496 18.9308 8.79413 18.9391 8.92331C18.9454 8.99624 18.9496 9.07124 18.9496 9.14625C18.7453 9.22521 18.5392 9.33147 18.335 9.45648C18.2225 9.51899 18.1099 9.594 17.9995 9.67109C17.8953 9.74609 17.789 9.82735 17.6869 9.91278C17.337 10.2003 17.0098 10.5397 16.7409 10.9127C16.6951 10.7668 16.6409 10.621 16.5805 10.4772C16.3348 9.88986 15.9307 9.21084 15.2659 8.60037C15.268 8.59412 15.27 8.58391 15.2721 8.57745C15.3075 8.45452 15.3513 8.3318 15.4034 8.21304C15.4388 8.12345 15.4805 8.03594 15.5222 7.94843L15.5243 7.94635C15.5387 7.91926 15.5535 7.88801 15.5681 7.86071C15.6202 7.763 15.6743 7.66715 15.7327 7.57131C15.8035 7.46297 15.8742 7.35463 15.9492 7.25045L15.9515 7.24837C16.3744 6.67144 16.9077 6.18806 17.4224 5.91949C17.8744 6.27974 18.2954 6.86312 18.5765 7.52339Z" fill="#007932"/>
<path fill-rule="evenodd" clip-rule="evenodd" d="M15.4099 11.1896C15.3307 11.0606 15.2453 10.9335 15.1473 10.8106C15.2432 10.9312 15.3307 11.0565 15.4099 11.1896Z" fill="#007932"/>
<path fill-rule="evenodd" clip-rule="evenodd" d="M16.3119 11.6042C16.3098 11.6063 16.3119 11.6084 16.3098 11.6104C16.2744 11.6542 16.2368 11.7 16.2014 11.7438C16.2368 11.6959 16.2744 11.65 16.3119 11.6042Z" fill="#007932"/>
<path fill-rule="evenodd" clip-rule="evenodd" d="M16.3098 11.5562C16.3141 11.5691 16.3163 11.5799 16.3206 11.5927L16.3184 11.5949C16.3163 11.5799 16.3141 11.5691 16.3098 11.5562Z" fill="#007932"/>
<path fill-rule="evenodd" clip-rule="evenodd" d="M16.285 11.4479C16.2871 11.4542 16.2871 11.4584 16.2913 11.4626C16.2934 11.4815 16.2976 11.4983 16.3019 11.5152C16.2955 11.492 16.2913 11.471 16.285 11.4479Z" fill="#007932"/>
<path fill-rule="evenodd" clip-rule="evenodd" d="M19.3018 9.63986C19.3604 9.70237 19.4187 9.76904 19.4729 9.83988C19.6644 10.0857 19.8374 10.3793 19.977 10.7023C20.0187 10.7939 20.0562 10.8898 20.0938 10.9856C20.1292 11.0875 20.1625 11.1875 20.1917 11.2917C20.2105 11.3521 20.2271 11.4146 20.2417 11.475C20.2771 11.6021 20.3019 11.7271 20.3251 11.8542C20.3459 11.9876 20.3626 12.1207 20.3751 12.2541C20.4168 12.7708 20.3626 13.275 20.1834 13.7082C20.0041 14.1371 19.7853 14.4684 19.5292 14.7039C19.356 14.7185 19.1812 14.7391 19.0061 14.7641C18.9811 13.6727 18.6122 12.3499 17.4644 10.9648C17.5394 10.8731 17.6227 10.7856 17.7061 10.7023C17.7332 10.6752 17.758 10.6502 17.7872 10.6252C17.8666 10.546 17.9497 10.471 18.0331 10.4001C18.1185 10.3272 18.2061 10.2605 18.2936 10.1941C18.4809 10.0566 18.6747 9.93364 18.8665 9.83363C18.9769 9.77321 19.0895 9.7232 19.1999 9.67945C19.2353 9.66486 19.2687 9.65236 19.3018 9.63986Z" fill="#007932"/>
<path fill-rule="evenodd" clip-rule="evenodd" d="M21.2624 15.2954C20.875 16.6451 20.1166 17.5952 19.006 18.1221C18.5707 18.3284 18.131 18.4428 17.7288 18.499C18.1768 17.9096 18.6455 17.0743 18.8685 16.114C18.9206 15.8869 18.9623 15.6369 18.9873 15.3704C19.2415 15.3246 19.5041 15.2954 19.7644 15.2766C19.9291 15.2662 20.0937 15.26 20.2521 15.2558C20.4021 15.2558 20.5478 15.2558 20.6897 15.26C20.8271 15.2641 20.9625 15.2704 21.0917 15.2787C21.148 15.285 21.2061 15.2891 21.2624 15.2954Z" fill="#007932"/>
<path fill-rule="evenodd" clip-rule="evenodd" d="M11.3196 13.9079C11.3675 13.8934 11.4175 13.8852 11.4698 13.8748L11.4717 13.8769C11.4217 13.8852 11.3696 13.8954 11.3196 13.9079Z" fill="#007932"/>
<path fill-rule="evenodd" clip-rule="evenodd" d="M17.5309 17.5389C17.5288 17.5118 17.5247 17.4866 17.5226 17.4597C17.5267 17.4847 17.5288 17.5118 17.5328 17.5366L17.5309 17.5389Z" fill="#007932"/>
<path fill-rule="evenodd" clip-rule="evenodd" d="M7.42993 7.40695L7.43201 7.40903C7.47556 7.5903 7.52141 7.77344 7.5756 7.96096C6.64029 7.78803 5.69624 7.82366 4.97121 8.0693L4.81282 8.12348L4.7774 8.2837C4.61088 9.01293 4.65027 9.92739 4.87535 10.8273C4.63589 10.7585 4.39623 10.7023 4.16491 10.6543L4.16282 10.6522C3.27524 9.52319 2.87303 7.77136 3.0856 6.53396C4.32746 6.19247 6.236 6.50062 7.42993 7.40695Z" fill="#007932"/>
<path fill-rule="evenodd" clip-rule="evenodd" d="M11.8784 8.07136C11.8826 8.07552 11.8846 8.07761 11.8867 8.08386C11.8659 8.34617 11.8534 8.62953 11.8513 8.92331C11.1865 8.78372 10.5344 8.75663 9.98236 8.86289L9.88024 8.88164C9.60515 8.68995 9.30318 8.5214 8.98224 8.38368C8.84053 8.32138 8.69256 8.26512 8.5446 8.21304C8.44686 8.17762 8.34683 8.14845 8.24888 8.1172C8.1947 7.95051 8.14468 7.78383 8.09675 7.61944C8.04673 7.43609 8.00088 7.25691 7.96129 7.07981C7.88835 6.75269 7.83208 6.43808 7.79248 6.14868C9.55722 6.21327 10.9304 6.85687 11.8784 8.07136Z" fill="#007932"/>
<path fill-rule="evenodd" clip-rule="evenodd" d="M16.2014 11.7438C16.2368 11.7 16.2744 11.6542 16.3098 11.6104C16.3119 11.6083 16.3098 11.6062 16.3119 11.6042C16.2744 11.65 16.2368 11.6958 16.2014 11.7438ZM16.3181 11.5937L16.3202 11.5917C16.316 11.5792 16.314 11.5687 16.3098 11.5562C16.314 11.5687 16.316 11.5792 16.3181 11.5937Z" fill="#007932"/>
<path fill-rule="evenodd" clip-rule="evenodd" d="M16.3184 11.5949L16.3206 11.5927C16.3163 11.5799 16.3141 11.5691 16.3098 11.5562C16.3141 11.5691 16.3163 11.5799 16.3184 11.5949ZM16.3184 11.5949L16.3206 11.5927C16.3163 11.5799 16.3141 11.5691 16.3098 11.5562C16.3141 11.5691 16.3163 11.5799 16.3184 11.5949ZM16.3184 11.5949L16.3206 11.5927C16.3163 11.5799 16.3141 11.5691 16.3098 11.5562C16.3141 11.5691 16.3163 11.5799 16.3184 11.5949ZM16.3184 11.5949L16.3206 11.5927C16.3163 11.5799 16.3141 11.5691 16.3098 11.5562C16.3141 11.5691 16.3163 11.5799 16.3184 11.5949ZM16.3184 11.5949L16.3206 11.5927C16.3163 11.5799 16.3141 11.5691 16.3098 11.5562C16.3141 11.5691 16.3163 11.5799 16.3184 11.5949ZM16.3184 11.5949L16.3206 11.5927C16.3163 11.5799 16.3141 11.5691 16.3098 11.5562C16.3141 11.5691 16.3163 11.5799 16.3184 11.5949ZM16.3184 11.5949L16.3206 11.5927C16.3163 11.5799 16.3141 11.5691 16.3098 11.5562C16.3141 11.5691 16.3163 11.5799 16.3184 11.5949ZM16.3184 11.5949L16.3206 11.5927C16.3163 11.5799 16.3141 11.5691 16.3098 11.5562C16.3141 11.5691 16.3163 11.5799 16.3184 11.5949ZM16.3184 11.5949L16.3206 11.5927C16.3163 11.5799 16.3141 11.5691 16.3098 11.5562C16.3141 11.5691 16.3163 11.5799 16.3184 11.5949ZM16.3184 11.5949L16.3206 11.5927C16.3163 11.5799 16.3141 11.5691 16.3098 11.5562C16.3141 11.5691 16.3163 11.5799 16.3184 11.5949ZM16.3184 11.5949L16.3206 11.5927C16.3163 11.5799 16.3141 11.5691 16.3098 11.5562C16.3141 11.5691 16.3163 11.5799 16.3184 11.5949ZM16.3184 11.5949L16.3206 11.5927C16.3163 11.5799 16.3141 11.5691 16.3098 11.5562C16.3141 11.5691 16.3163 11.5799 16.3184 11.5949ZM16.3184 11.5949L16.3206 11.5927C16.3163 11.5799 16.3141 11.5691 16.3098 11.5562C16.3141 11.5691 16.3163 11.5799 16.3184 11.5949ZM16.3184 11.5949L16.3206 11.5927C16.3163 11.5799 16.3141 11.5691 16.3098 11.5562C16.3141 11.5691 16.3163 11.5799 16.3184 11.5949ZM16.3184 11.5949L16.3206 11.5927C16.3163 11.5799 16.3141 11.5691 16.3098 11.5562C16.3141 11.5691 16.3163 11.5799 16.3184 11.5949ZM16.3184 11.5949L16.3206 11.5927C16.3163 11.5799 16.3141 11.5691 16.3098 11.5562C16.3141 11.5691 16.3163 11.5799 16.3184 11.5949ZM16.3184 11.5949L16.3206 11.5927C16.3163 11.5799 16.3141 11.5691 16.3098 11.5562C16.3141 11.5691 16.3163 11.5799 16.3184 11.5949ZM16.3184 11.5949L16.3206 11.5927C16.3163 11.5799 16.3141 11.5691 16.3098 11.5562C16.3141 11.5691 16.3163 11.5799 16.3184 11.5949Z" fill="#007932"/>
<path fill-rule="evenodd" clip-rule="evenodd" d="M15.0036 9.15437C15.4202 9.57107 15.7534 10.0584 15.9993 10.6168C16.0785 10.796 16.1452 10.975 16.2015 11.1523C16.2223 11.2104 16.239 11.2689 16.2557 11.3271C16.2598 11.3437 16.2619 11.3583 16.2661 11.3708C16.2702 11.3875 16.2744 11.4 16.2765 11.4187C16.2786 11.4208 16.2786 11.4208 16.2786 11.425C16.2807 11.4315 16.2848 11.4396 16.2848 11.4479C16.2911 11.4708 16.2953 11.4917 16.3015 11.5146C16.3057 11.5271 16.3078 11.5417 16.3098 11.5563C16.314 11.5688 16.3161 11.5792 16.3182 11.5938L16.3203 11.5958L16.3119 11.6042C16.2744 11.65 16.2369 11.6958 16.2015 11.7438C16.164 11.7896 16.1285 11.8375 16.0912 11.8834C16.016 11.9834 15.941 12.0834 15.8639 12.1894C15.764 11.8646 15.614 11.5313 15.4098 11.1896C15.3306 11.0564 15.243 10.9312 15.1472 10.8106C15.0492 10.6876 14.9471 10.573 14.8346 10.4605C14.791 10.4168 14.7472 10.373 14.7014 10.3355C14.6701 10.3043 14.6389 10.2772 14.6076 10.2503C14.5284 10.1795 14.4451 10.1128 14.3596 10.0482C14.2763 9.98153 14.1887 9.91902 14.0993 9.86277C14.0116 9.80026 13.9178 9.744 13.8242 9.68775C13.7617 9.65025 13.6992 9.61691 13.6367 9.57941C13.6325 9.57941 13.6325 9.57941 13.6304 9.57732C13.6242 9.57524 13.6179 9.56899 13.6117 9.56691C13.6033 9.56274 13.5929 9.55649 13.5846 9.55232C13.5783 9.55024 13.5742 9.54607 13.5679 9.54399C13.4762 9.49398 13.3845 9.44814 13.2907 9.40439C13.2803 9.40231 13.2699 9.39606 13.2616 9.39189C13.1365 9.33355 13.0136 9.28146 12.8864 9.23354C12.7616 9.18354 12.6345 9.13978 12.5074 9.09603C12.4844 9.08978 12.4657 9.08353 12.4427 9.07728V8.96914C12.4427 8.77329 12.4469 8.58161 12.4575 8.39618L12.4594 8.39409C12.4678 8.22741 12.4782 8.07114 12.4948 7.91696C12.5011 7.86071 12.5053 7.80654 12.5115 7.75049C12.5991 7.77549 12.6824 7.80029 12.7658 7.82946C12.8075 7.84196 12.8468 7.85654 12.8864 7.87113C12.9387 7.88988 12.9906 7.90863 13.0429 7.92738C13.0575 7.93363 13.074 7.9378 13.0888 7.94405C13.1699 7.9753 13.247 8.00655 13.3241 8.04197C13.3929 8.06906 13.4554 8.09823 13.5179 8.1274C13.6138 8.17324 13.7075 8.22116 13.7971 8.26908C13.8576 8.30033 13.9178 8.33575 13.9764 8.36909C14.0556 8.41493 14.1327 8.46285 14.2054 8.51056C14.2158 8.51702 14.2283 8.52514 14.2408 8.53369C14.2638 8.54806 14.2867 8.56286 14.3096 8.57744C14.3534 8.61265 14.4013 8.64391 14.4472 8.67724C14.5034 8.71683 14.5597 8.76058 14.6118 8.80434C14.6556 8.83976 14.6972 8.87309 14.7366 8.90851C14.7804 8.94393 14.8181 8.98143 14.8577 9.01685C14.9077 9.06269 14.9575 9.10853 15.0036 9.15437Z" fill="#007932"/>
<path fill-rule="evenodd" clip-rule="evenodd" d="M15.1473 10.8106C15.2432 10.9312 15.3307 11.0565 15.4099 11.1896C15.3307 11.0606 15.2453 10.9335 15.1473 10.8106Z" fill="#007932"/>
<path fill-rule="evenodd" clip-rule="evenodd" d="M16.3119 11.6042C16.3098 11.6063 16.3119 11.6084 16.3098 11.6104C16.2744 11.6542 16.2368 11.7 16.2014 11.7438C16.2368 11.6959 16.2744 11.65 16.3119 11.6042Z" fill="#007932"/>
<path fill-rule="evenodd" clip-rule="evenodd" d="M16.3098 11.5562C16.3141 11.5691 16.3163 11.5799 16.3206 11.5927L16.3184 11.5949C16.3163 11.5799 16.3141 11.5691 16.3098 11.5562Z" fill="#007932"/>
<path fill-rule="evenodd" clip-rule="evenodd" d="M5.08798 11.5104C5.13591 11.6417 5.18801 11.7728 5.24636 11.898C5.3068 12.0417 5.37557 12.1811 5.44643 12.3145C5.59647 12.5937 5.76716 12.8562 5.96097 13.0956C5.92762 13.1081 5.89428 13.1248 5.86302 13.1393L5.71318 13.2102L5.69421 13.3748C5.63795 13.91 5.69421 14.5288 5.85468 15.1558C5.59647 15.1516 5.34639 15.1558 5.10882 15.1683C5.09006 15.1537 5.06714 15.1391 5.0463 15.1224C3.81694 14.1934 3.15235 12.8291 3.06482 11.0669C3.31073 11.096 3.57332 11.1377 3.84632 11.1896C4.01909 11.2252 4.2004 11.2646 4.37962 11.3104C4.61511 11.3667 4.85248 11.4334 5.08798 11.5104Z" fill="#007932"/>
<path fill-rule="evenodd" clip-rule="evenodd" d="M7.18815 17.7595C7.25692 17.8408 7.32987 17.9179 7.40489 17.9929C7.67352 18.2617 7.97153 18.4927 8.29247 18.6677C8.56756 18.8177 8.8341 18.9344 9.0946 19.0199C8.79868 19.2199 8.5215 19.4259 8.27371 19.628C7.95486 19.5551 7.62371 19.4532 7.29235 19.3051C7.21941 19.2738 7.14647 19.2386 7.07562 19.2009C7.00268 19.1657 6.9339 19.1303 6.86513 19.0907C6.74426 19.024 6.62568 18.9511 6.51314 18.8719C6.5046 18.8678 6.50064 18.8636 6.49209 18.8594L6.48396 18.8511C6.47959 18.8469 6.47563 18.8469 6.47146 18.8427C6.46938 18.8407 6.46938 18.8407 6.46708 18.8386C6.40686 18.799 6.35267 18.7573 6.2964 18.7136C6.29015 18.7115 6.28598 18.7073 6.28182 18.7032C6.18387 18.6261 6.09009 18.549 5.99839 18.4656C5.85459 18.3346 5.71705 18.1929 5.58805 18.0429C5.52115 17.9637 5.45676 17.8825 5.39424 17.7991C5.36923 17.7658 5.34422 17.7324 5.31713 17.697C5.27962 17.6431 5.2421 17.5887 5.20668 17.5324L5.20459 17.5303C5.16916 17.4741 5.13373 17.4222 5.10039 17.3639C5.09622 17.3595 5.09414 17.3534 5.09205 17.3514C5.07121 17.318 5.05246 17.2826 5.03162 17.2493C4.99411 17.1826 4.95659 17.1159 4.92325 17.0493C4.91908 17.0409 4.91491 17.0326 4.91075 17.0242C4.86281 16.9347 4.81905 16.8451 4.77737 16.7492C4.7359 16.6578 4.69609 16.564 4.6567 16.4659C4.65233 16.4575 4.64837 16.4452 4.64628 16.4348C4.62544 16.389 4.60877 16.339 4.5921 16.2931C4.57334 16.2452 4.55667 16.1952 4.54 16.1452C4.50249 16.0369 4.46914 15.9244 4.43372 15.81C4.59418 15.791 4.76299 15.7764 4.93575 15.7662C5.10456 15.7556 5.27753 15.7493 5.45467 15.7473H5.45884C5.55054 15.7431 5.64223 15.7431 5.73581 15.7452C5.83375 15.7431 5.934 15.7473 6.0359 15.7493C6.07758 15.866 6.12135 15.9806 6.17136 16.0973C6.22346 16.2244 6.27973 16.3473 6.34225 16.4723C6.38602 16.5575 6.4277 16.6409 6.47355 16.7242C6.51731 16.8096 6.56295 16.8888 6.61317 16.968L6.61088 16.9701C6.63818 17.0097 6.66111 17.0493 6.68591 17.0909C6.713 17.1305 6.74009 17.1701 6.76718 17.2097C6.77343 17.2201 6.77969 17.2264 6.78594 17.2368C6.79011 17.2409 6.79219 17.2472 6.79636 17.2514C6.83595 17.3159 6.8818 17.3784 6.92765 17.4368C6.94224 17.4597 6.95683 17.4785 6.97142 17.4972C6.97975 17.5097 6.99225 17.5222 7.00059 17.5345C7.06103 17.6118 7.12355 17.6866 7.18815 17.7595Z" fill="#007932"/>
<path fill-rule="evenodd" clip-rule="evenodd" d="M9.6361 9.43363C9.55482 9.73574 9.50272 10.0628 9.47772 10.4043C9.46938 10.5377 9.46542 10.6669 9.46104 10.8002C9.46104 10.9294 9.46334 11.0604 9.47146 11.1938C9.50064 11.7855 9.60692 12.3916 9.79657 12.9602C9.26723 12.8104 8.70892 12.7271 8.16104 12.7166C8.036 12.7125 7.91096 12.7125 7.78383 12.7146C7.65671 12.7208 7.52541 12.7312 7.39829 12.7416C7.10465 12.7687 6.82123 12.8187 6.55864 12.8896C6.45465 12.7771 6.3567 12.6541 6.265 12.5208C6.18998 12.4166 6.11912 12.3043 6.05244 12.1876C5.98366 12.0772 5.92323 11.9624 5.86487 11.8418C5.85445 11.823 5.84612 11.8022 5.83778 11.7813C5.77526 11.6563 5.72108 11.5272 5.67106 11.3938C5.62334 11.2753 5.58145 11.1544 5.54394 11.0336C5.27948 10.1897 5.19611 9.2982 5.31907 8.57959C6.01284 8.38582 6.91709 8.39853 7.788 8.60668C7.90679 8.63376 8.01932 8.66293 8.13811 8.69835L8.1402 8.70043C8.26732 8.74023 8.39215 8.78169 8.51719 8.82753C8.52782 8.83378 8.53595 8.83795 8.54637 8.84003C8.67141 8.89004 8.79437 8.94212 8.91524 9.00046C9.03611 9.0588 9.1549 9.11922 9.26931 9.18798L9.2714 9.19006C9.39852 9.26299 9.52148 9.34403 9.6361 9.43363Z" fill="#007932"/>
<path fill-rule="evenodd" clip-rule="evenodd" d="M10.0905 13.679L10.0926 13.6811C10.1113 13.7165 10.1322 13.754 10.1509 13.7894C10.1968 13.8769 10.2445 13.9621 10.2987 14.0455C10.3591 14.1434 10.4216 14.2392 10.4904 14.3288C10.5842 14.464 10.6926 14.5893 10.8051 14.7059C10.7613 15.0537 10.7509 15.4308 10.778 15.8202C10.8301 16.514 10.9987 17.2451 11.28 17.9137C11.2365 17.9283 11.1927 17.9429 11.1446 17.9575C11.0489 17.9908 10.9551 18.0262 10.8572 18.0658C10.7634 18.1013 10.6696 18.1408 10.5738 18.1825C10.3091 18.3013 10.0467 18.4346 9.79247 18.5803C9.77789 18.5782 9.75913 18.5761 9.74246 18.5719C9.37984 18.5177 8.99034 18.3784 8.57562 18.1513C8.00898 17.8429 7.52361 17.3201 7.14224 16.7055C7.13182 16.6867 7.11723 16.668 7.10889 16.6472C7.04846 16.5536 6.99844 16.4576 6.94634 16.3555C6.90258 16.2786 6.86298 16.2015 6.82755 16.1202C6.8088 16.0806 6.79004 16.0411 6.77337 15.9994C6.74002 15.9327 6.71085 15.8619 6.68375 15.7933C6.6402 15.6912 6.60269 15.5869 6.56934 15.4829C6.53183 15.3829 6.50057 15.2808 6.47139 15.1808C6.45472 15.1224 6.43805 15.0599 6.42555 15.0016C6.30051 14.5143 6.24424 14.0332 6.26925 13.604C6.30884 13.5894 6.35052 13.5727 6.39012 13.5581C6.4964 13.5185 6.60873 13.4852 6.72543 13.456C6.84631 13.4227 6.97343 13.3956 7.10681 13.3748C7.34022 13.3331 7.58801 13.3102 7.84017 13.3039C7.94854 13.2998 8.06108 13.2998 8.17361 13.3039C8.2799 13.306 8.39035 13.3123 8.5006 13.3227C8.97575 13.3602 9.45278 13.454 9.89667 13.606C9.96128 13.629 10.0257 13.6517 10.0905 13.679Z" fill="#007932"/>
<path fill-rule="evenodd" clip-rule="evenodd" d="M6.68589 17.0909C6.71298 17.1305 6.74008 17.1701 6.76717 17.2097C6.71298 17.1305 6.66318 17.0514 6.61316 16.968C6.63817 17.0097 6.66109 17.0493 6.68589 17.0909Z" fill="#007932"/>
<path fill-rule="evenodd" clip-rule="evenodd" d="M15.4099 11.1896C15.3307 11.0565 15.2432 10.9312 15.1473 10.8106C15.2453 10.9335 15.3307 11.0606 15.4099 11.1896Z" fill="#007932"/>
<path fill-rule="evenodd" clip-rule="evenodd" d="M14.9055 11.4938C15.1994 11.9876 15.3682 12.4436 15.4078 12.8749C15.3765 12.9227 15.3494 12.9708 15.3202 13.0206C15.2994 13.0541 15.2786 13.0873 15.2598 13.1227C15.2119 13.2081 15.1639 13.2894 15.1202 13.3748C15.0785 13.4498 15.041 13.5248 15.0037 13.5998C14.9558 13.6977 14.9097 13.7936 14.8659 13.8913C14.8222 13.985 14.7828 14.079 14.7432 14.1726C14.7328 14.1996 14.7203 14.2288 14.7098 14.2559C14.5785 14.2038 14.4431 14.1559 14.3097 14.1142C14.2451 14.0915 14.1763 14.0725 14.1117 14.0538C14.0013 14.0225 13.8931 13.9934 13.7806 13.9684C13.5618 13.9165 13.3452 13.8788 13.1285 13.8496H13.1241C13.1054 13.8475 13.0866 13.8457 13.0681 13.8436C12.9722 13.8311 12.8784 13.8207 12.7846 13.8144C12.6929 13.8059 12.5992 13.7998 12.5075 13.7998C12.4783 13.7998 12.4512 13.7977 12.4199 13.7998C12.3389 13.7977 12.2595 13.7977 12.1826 13.7998C12.1346 13.8019 12.0867 13.804 12.0408 13.8081C11.995 13.8081 11.9492 13.8123 11.901 13.8184C11.847 13.8227 11.7929 13.8267 11.7408 13.8371C11.6741 13.8415 11.6095 13.8517 11.5449 13.8623C11.5198 13.8663 11.4969 13.8684 11.474 13.8748L11.4719 13.8769L11.47 13.8748C11.4177 13.8852 11.3677 13.8934 11.3198 13.908C11.27 13.9165 11.2239 13.929 11.1739 13.9413C11.151 13.9477 11.1322 13.9538 11.1095 13.9602L10.9761 14.0019C10.9574 13.9748 10.9386 13.9477 10.9199 13.9207C10.8636 13.8392 10.8094 13.7561 10.7573 13.6706L10.7552 13.6686C10.7511 13.6602 10.749 13.654 10.7427 13.6477C10.6927 13.556 10.6427 13.4644 10.5968 13.3685C10.5739 13.3206 10.551 13.2727 10.5301 13.2268C10.5072 13.1748 10.4864 13.1248 10.4655 13.075C10.2696 12.5916 10.1446 12.0624 10.0865 11.5375C10.074 11.425 10.0656 11.3167 10.0594 11.2062C10.0531 11.0917 10.049 10.9793 10.049 10.8668C10.049 10.5251 10.0781 10.1962 10.1365 9.88779C10.1592 9.76903 10.1863 9.65027 10.2175 9.53984C10.2301 9.49817 10.2426 9.4565 10.2553 9.41483C10.3301 9.4065 10.4051 9.39837 10.4824 9.39191C10.8782 9.36712 11.3156 9.40858 11.7637 9.50651C11.797 9.51484 11.8283 9.52109 11.8614 9.52963C11.9594 9.55234 12.0615 9.57943 12.1615 9.6086C12.2636 9.63568 12.3637 9.66902 12.4637 9.70652C12.5762 9.74403 12.6865 9.78362 12.7951 9.82945C12.8221 9.83987 12.849 9.85029 12.8763 9.86487C12.8865 9.86696 12.8951 9.87112 12.9032 9.87529C12.9847 9.91071 13.0658 9.9503 13.147 9.98988C13.2533 10.042 13.3617 10.1003 13.4659 10.1584C13.4763 10.1649 13.4847 10.1691 13.4951 10.1753C14.0846 10.5189 14.589 10.9648 14.9055 11.4938Z" fill="#007932"/>
<path fill-rule="evenodd" clip-rule="evenodd" d="M16.2014 11.7438C16.2368 11.7 16.2744 11.6542 16.3098 11.6104C16.3119 11.6084 16.3098 11.6063 16.3119 11.6042C16.2744 11.65 16.2368 11.6959 16.2014 11.7438Z" fill="#007932"/>
<path fill-rule="evenodd" clip-rule="evenodd" d="M17.16 11.5229C17.2954 11.6959 17.4205 11.8709 17.5351 12.0478C17.5935 12.1353 17.6454 12.2249 17.6954 12.3124C17.7039 12.3207 17.7079 12.3293 17.712 12.3416C17.7579 12.4207 17.8019 12.4978 17.8415 12.5791C17.9204 12.7291 17.9913 12.8791 18.0517 13.0312C18.0809 13.1021 18.108 13.1706 18.1309 13.2394C18.1434 13.2727 18.1559 13.306 18.1661 13.3373C18.1976 13.4269 18.2247 13.5165 18.2476 13.6061C18.2976 13.7769 18.3352 13.9519 18.3622 14.1246C18.3664 14.1621 18.3727 14.1976 18.3789 14.2372C18.3893 14.3101 18.3975 14.3851 18.4039 14.458C18.41 14.5309 18.4164 14.6039 18.4164 14.6789C18.4185 14.7476 18.4206 14.8162 18.4206 14.8828C18.4206 14.9662 18.4185 15.0516 18.4143 15.1349C18.4018 15.385 18.3683 15.635 18.3143 15.889C18.158 16.6245 17.8579 17.2535 17.5455 17.7366C17.5434 17.6721 17.5414 17.6077 17.5328 17.541L17.5307 17.5389L17.5328 17.5368C17.5289 17.5118 17.5268 17.4847 17.5226 17.4597C17.5184 17.4347 17.5122 17.4077 17.5101 17.3806C17.5101 17.3639 17.5059 17.3472 17.5038 17.3326C17.5018 17.3262 17.4997 17.316 17.4976 17.3056C17.4976 17.3056 17.4953 17.3035 17.4976 17.3014C17.4851 17.2514 17.4768 17.2014 17.4622 17.1493C17.4559 17.118 17.4497 17.0868 17.4392 17.0555C17.4247 16.9993 17.408 16.9451 17.3871 16.8868C17.3809 16.8722 17.3767 16.8555 17.3684 16.8389C17.3559 16.793 17.3371 16.7495 17.3184 16.7057C17.2913 16.6328 17.2579 16.562 17.2246 16.4911L17.2225 16.489C17.1871 16.4161 17.1496 16.3411 17.1079 16.2703C17.0954 16.2494 17.085 16.2307 17.0725 16.2098C17.0412 16.1494 17.0037 16.0911 16.9662 16.0327C16.9578 16.0202 16.9497 16.0077 16.9412 15.9952C16.9266 15.9723 16.912 15.9494 16.8953 15.9244C16.8495 15.8577 16.8015 15.789 16.7496 15.7204C16.5475 15.4475 16.2995 15.2037 16.0202 14.9912C15.8514 14.8601 15.6724 14.7391 15.4849 14.6309L15.4828 14.6289C15.4807 14.6268 15.4765 14.6268 15.4765 14.6268C15.4036 14.583 15.3306 14.5434 15.2556 14.5018C15.2765 14.4476 15.2973 14.3934 15.3202 14.3413L15.3223 14.3392V14.3351C15.339 14.3017 15.3473 14.2724 15.3619 14.2372C15.4411 14.0538 15.5328 13.8705 15.6287 13.6871L15.6307 13.685C15.6805 13.5892 15.7329 13.4954 15.7847 13.4019L15.7931 13.3935C15.8139 13.3558 15.8368 13.3164 15.8577 13.2789C15.9058 13.1977 15.9535 13.1206 16.0036 13.0414C16.1453 12.8164 16.2932 12.6018 16.4454 12.3957C16.5308 12.2811 16.6163 12.1665 16.7038 12.0582C16.7411 12.0124 16.7765 11.9686 16.814 11.9269C16.814 11.9228 16.8161 11.9209 16.8182 11.9186C16.8641 11.8644 16.9099 11.8105 16.9537 11.7582C17.0224 11.6769 17.0933 11.5977 17.16 11.5229Z" fill="#007932"/>
<path fill-rule="evenodd" clip-rule="evenodd" d="M14.7826 20.6154C14.2657 21.0071 13.4928 21.4465 12.5448 21.6445C12.1905 21.7195 11.8406 21.7528 11.4926 21.7507C11.4842 21.7507 11.48 21.7507 11.4717 21.7507C11.4113 21.7486 11.3488 21.7486 11.2862 21.7445C11.2823 21.7445 11.2781 21.7445 11.2737 21.7403C11.2531 21.7403 11.2321 21.7403 11.2093 21.7382H11.205C11.205 21.7382 11.2029 21.7403 11.201 21.7382C11.1987 21.7361 11.1966 21.7382 11.1925 21.7382L11.1904 21.7362C11.1737 21.7362 11.1591 21.7341 11.1426 21.7341C11.132 21.732 11.1174 21.7297 11.1051 21.7297C11.101 21.7297 11.0924 21.7297 11.0864 21.7276C11.0132 21.7216 10.9403 21.7111 10.8676 21.7005C10.7759 21.688 10.6842 21.6716 10.5904 21.6526C10.5029 21.6361 10.4174 21.6174 10.3343 21.5924C10.3218 21.5924 10.309 21.5882 10.3007 21.5841C10.2155 21.5611 10.13 21.534 10.0446 21.507C9.96539 21.482 9.88828 21.4549 9.80909 21.4257C9.69864 21.3819 9.59027 21.3361 9.4819 21.2861C9.39854 21.2486 9.31747 21.209 9.2362 21.1655C9.05697 21.0736 8.87983 20.9715 8.70477 20.8548C8.52972 20.7425 8.35278 20.6154 8.17981 20.48C8.25275 20.4154 8.32548 20.3508 8.4028 20.2821L8.40467 20.28C8.41113 20.2737 8.42156 20.2675 8.42968 20.2591L8.43177 20.2571C8.52971 20.1758 8.62975 20.0925 8.73603 20.0112C8.8444 19.9239 8.95694 19.8404 9.07364 19.7531C9.34873 19.553 9.64445 19.3572 9.94872 19.178L9.9508 19.1759C9.98415 19.1551 10.0217 19.1342 10.0571 19.1157C10.2384 19.0092 10.4216 18.9136 10.6071 18.824C10.7113 18.774 10.8155 18.7282 10.9197 18.6823C11.0111 18.6407 11.1051 18.6052 11.1966 18.5719C11.2154 18.5657 11.23 18.5594 11.2466 18.5552C11.2489 18.5531 11.251 18.5552 11.2531 18.5531L11.255 18.5511C11.33 18.5219 11.405 18.4969 11.48 18.4761C11.5009 18.4675 11.5196 18.4615 11.5426 18.455C11.5759 18.5177 11.6093 18.5761 11.6447 18.6365C11.8364 18.9488 12.055 19.2384 12.303 19.4862C12.4156 19.5987 12.5323 19.7028 12.6552 19.7966C12.824 19.9279 12.9949 20.0445 13.1635 20.1425C13.2137 20.1716 13.2677 20.2008 13.3177 20.2256C13.3511 20.2466 13.3865 20.2654 13.424 20.2821C13.4678 20.305 13.5157 20.3279 13.5595 20.3466C13.597 20.3633 13.6324 20.3779 13.6658 20.3902C13.6949 20.4029 13.7241 20.4154 13.7512 20.4258C13.7825 20.4362 13.8116 20.4487 13.8408 20.4571C13.8469 20.4592 13.8533 20.461 13.8596 20.4631C13.8721 20.4675 13.8846 20.4715 13.8971 20.4756C13.9031 20.4779 13.9096 20.48 13.9156 20.4821C13.9221 20.4842 13.9281 20.486 13.9346 20.4881C13.9408 20.4902 13.945 20.4902 13.9511 20.4925C13.9552 20.4925 13.9575 20.4946 13.9594 20.4967C13.9782 20.5027 13.9969 20.5092 14.0159 20.5112C14.0407 20.5194 14.0636 20.5256 14.0888 20.5298C14.1074 20.5362 14.1282 20.5402 14.149 20.5444C14.1511 20.5467 14.1532 20.5444 14.1553 20.5467C14.1657 20.5487 14.174 20.5487 14.1824 20.5527C14.1866 20.5527 14.1886 20.5548 14.1928 20.5548C14.1928 20.5548 14.1949 20.5569 14.197 20.555C14.2116 20.5571 14.2262 20.5631 14.2407 20.5654C14.2512 20.5675 14.2637 20.5715 14.2762 20.5715C14.3012 20.5756 14.3283 20.5821 14.3554 20.584C14.4325 20.5985 14.5117 20.6069 14.5929 20.6092H14.5971C14.6573 20.6154 14.7203 20.6154 14.7826 20.6154Z" fill="#007932"/>
<path fill-rule="evenodd" clip-rule="evenodd" d="M11.1912 21.7362L11.1889 21.7383C11.1742 21.7362 11.1595 21.7341 11.1429 21.7341C11.1595 21.7341 11.1742 21.7362 11.1912 21.7362Z" fill="#007932"/>
<path fill-rule="evenodd" clip-rule="evenodd" d="M11.1429 21.7341C11.1596 21.7341 11.1744 21.7362 11.1891 21.7383H11.1935L11.1914 21.7362C11.1744 21.7362 11.1596 21.7341 11.1429 21.7341Z" fill="#007932"/>
<path fill-rule="evenodd" clip-rule="evenodd" d="M16.2764 16.0723C16.3493 16.1702 16.416 16.2661 16.4763 16.364C16.5056 16.4057 16.5327 16.4494 16.5575 16.4953C16.6911 16.7203 16.7909 16.9409 16.8597 17.1553C16.8764 17.2097 16.891 17.2618 16.9014 17.3139C16.916 17.366 16.9264 17.4178 16.9347 17.4722C16.9806 17.7387 16.9722 17.9969 16.9097 18.2471C16.8993 18.295 16.8868 18.3408 16.868 18.3886C16.8597 18.4177 16.8493 18.4448 16.841 18.474C16.8245 18.5159 16.8076 18.5573 16.7868 18.599C16.7659 18.649 16.7409 18.699 16.7117 18.749C16.6203 18.9115 16.5036 19.0699 16.3598 19.2218C16.3327 19.2574 16.2993 19.2907 16.266 19.3241L16.2639 19.3261C16.2389 19.3509 16.216 19.3741 16.1889 19.397C16.143 19.4428 16.093 19.4843 16.0451 19.5239C15.9951 19.5655 15.943 19.6051 15.8909 19.6405C15.7721 19.726 15.6514 19.7968 15.5284 19.8531C15.4847 19.8718 15.4409 19.8906 15.3951 19.9072C15.3617 19.9197 15.3284 19.9322 15.293 19.9427C15.1929 19.976 15.0908 19.9989 14.991 20.0114C14.5262 20.076 14.0344 19.9635 13.5199 19.6697C13.4636 19.6385 13.4094 19.6051 13.3532 19.5697C13.2969 19.5343 13.2406 19.4947 13.1844 19.4551C13.1281 19.4155 13.0699 19.3741 13.0135 19.3303C12.674 19.0699 12.3843 18.7219 12.1446 18.324C12.1217 18.2885 12.1009 18.2512 12.0802 18.2137C12.0488 18.1575 12.0196 18.1033 11.9885 18.0471C11.9717 18.0096 11.951 17.9721 11.9321 17.9325C11.9073 17.8783 11.8823 17.8241 11.8593 17.7679C11.8573 17.7616 11.8552 17.7595 11.8531 17.7533C11.8322 17.7118 11.8135 17.6679 11.7989 17.6241C11.7676 17.547 11.7385 17.4681 11.7093 17.3889C11.6864 17.3243 11.6634 17.2597 11.6447 17.1951C11.6134 17.1014 11.5863 17.0076 11.5613 16.9117C11.5551 16.8972 11.5488 16.8784 11.5467 16.8597C11.528 16.7909 11.5092 16.7222 11.4946 16.6494C11.4842 16.6055 11.4738 16.5576 11.4655 16.5119C11.4488 16.4369 11.4363 16.3619 11.4259 16.2848C11.4092 16.189 11.3967 16.0973 11.3884 16.0015C11.3842 15.9973 11.3842 15.989 11.3842 15.9806V15.9765C11.3675 15.8389 11.3592 15.7014 11.355 15.5641C11.3508 15.5141 11.3488 15.462 11.3508 15.4099C11.3488 15.337 11.3508 15.2641 11.3529 15.1912C11.3571 15.0703 11.3656 14.9537 11.3779 14.837C11.3904 14.7413 11.4029 14.6497 11.4217 14.5601C11.4238 14.5372 11.43 14.5142 11.4342 14.4934C11.4342 14.4892 11.4363 14.4872 11.4363 14.483C11.4905 14.4705 11.5447 14.458 11.603 14.4496C11.6363 14.4413 11.6697 14.4371 11.7051 14.4309C11.8197 14.4121 11.9385 14.4017 12.0613 14.3955C12.1363 14.3913 12.2115 14.3871 12.2864 14.3871C12.353 14.3871 12.4239 14.3871 12.4927 14.3892C12.4948 14.3871 12.4968 14.3892 12.501 14.3892C12.5656 14.3913 12.6323 14.3955 12.7011 14.3976C12.7823 14.4038 12.8636 14.4101 12.9491 14.4205H12.9532C13.051 14.4309 13.1489 14.4455 13.249 14.4622C13.3427 14.4767 13.4323 14.4955 13.524 14.5119C13.6512 14.539 13.7783 14.5705 13.9052 14.6059C13.9927 14.6309 14.0824 14.658 14.1699 14.6872C14.2699 14.7203 14.3699 14.7538 14.4679 14.7934C14.4887 14.8018 14.5075 14.808 14.5262 14.8184C14.5387 14.8226 14.5471 14.8266 14.5596 14.8307C14.6325 14.8578 14.7055 14.8934 14.7763 14.9266C14.7867 14.9287 14.7951 14.9328 14.8034 14.9372L15.0658 15.0703C15.0679 15.0724 15.072 15.0724 15.0743 15.0745C15.5555 15.3349 15.9765 15.6723 16.2764 16.0723Z" fill="#007932"/>
<path fill-rule="evenodd" clip-rule="evenodd" d="M49.3239 54.4694L48.6946 58.625C48.6564 58.8727 48.4384 59.0604 48.1879 59.0604C48.1606 59.0604 48.1362 59.0581 48.1089 59.0523C47.9783 59.0333 47.8584 58.9625 47.7768 58.8508C47.6949 58.7421 47.6623 58.6058 47.684 58.4725L48.3132 54.2977C48.8063 51.6808 48.4249 49.6248 47.1857 48.1761C45.1292 45.7688 41.3157 45.728 40.8883 45.7334C36.9278 46.0384 33.9479 45.1044 32.0385 42.9502C28.7618 39.2524 29.8922 33.3704 29.9412 33.1224C30.4397 28.7274 29.5925 25.3561 27.4245 23.1203C24.1259 19.7245 18.7027 20.1029 18.6483 20.1058C18.5204 20.1166 18.3814 20.0758 18.278 19.9887C18.1744 19.8987 18.109 19.7762 18.0982 19.6401C18.0736 19.3597 18.2834 19.1118 18.5639 19.0874C18.8036 19.0682 24.4936 18.638 28.1543 22.4042C30.5514 24.8713 31.491 28.5285 30.9517 33.2804C30.9054 33.5337 29.9141 39.0155 32.8067 42.2722C34.4899 44.173 37.1894 44.9927 40.831 44.7122C41.3267 44.7014 45.5621 44.7014 47.9645 47.5117C49.4137 49.2083 49.8712 51.5474 49.3239 54.4694Z" fill="#007932"/>
<path fill-rule="evenodd" clip-rule="evenodd" d="M55.6511 51.5691C55.5748 51.6807 55.4577 51.7543 55.3214 51.7789L51.1759 52.5223C50.405 52.661 49.6642 52.7319 48.975 52.7319H48.9423C47.9863 52.7292 47.1065 52.5902 46.3139 52.3208C45.5212 52.0485 44.8159 51.6453 44.1976 51.1117C41.3156 48.6117 41.4409 44.2003 41.4492 44.0123C41.7543 40.3743 40.9534 37.6784 39.0714 35.9872C35.7782 33.0272 30.1455 34.0483 30.0909 34.0591C25.2779 34.5767 21.6036 33.6072 19.144 31.1891C15.4014 27.5019 15.8755 21.8568 15.8974 21.6199C15.9245 21.3365 16.1695 21.1323 16.453 21.1569C16.7335 21.1813 16.9431 21.4319 16.916 21.7124C16.9131 21.7668 16.483 27.1314 19.8657 30.4619C22.094 32.654 25.4849 33.5255 29.9384 33.0488C30.1645 33.0026 36.0506 31.8944 39.7551 35.2247C41.8879 37.1417 42.8028 40.1182 42.4706 44.0751C42.4652 44.2276 42.3916 48.1923 44.8703 50.341C46.3166 51.5909 48.3758 51.9858 50.9961 51.5147L55.1418 50.7713C55.2754 50.7467 55.4115 50.7767 55.5232 50.853C55.6376 50.9319 55.7111 51.049 55.7355 51.1851C55.7601 51.3213 55.7301 51.4547 55.6511 51.5691Z" fill="#007932"/>
</svg>
