<svg width="127" height="52" viewBox="0 0 127 52" fill="none" xmlns="http://www.w3.org/2000/svg">
<path d="M2.57026 40.1404H7.54858L7.81121 46.0128C7.81603 46.1373 7.82086 46.2696 7.82279 46.4077C7.82569 46.5458 7.82762 46.7205 7.82762 46.932C7.82762 47.1116 7.82279 47.3172 7.81507 47.5509C7.80734 47.7836 7.79383 48.0443 7.77645 48.331C7.88459 47.9844 8.01783 47.6175 8.17908 47.2294C8.33839 46.8412 8.5286 46.4193 8.74874 45.9645L11.5305 40.1404H16.6942L14.0988 51.6988H11.1317L12.6457 44.7199C12.7248 44.3347 12.8195 43.9282 12.9286 43.5005C13.0386 43.0708 13.1613 42.616 13.2955 42.1333H13.195L8.52088 51.6988H5.56247L5.13087 42.1333H4.98797C4.8528 42.8815 4.73886 43.5014 4.65003 43.9919C4.55927 44.4834 4.50134 44.7904 4.47141 44.915L2.95069 51.6988H0L2.57026 40.1404Z" fill="black"/>
<path d="M22.5596 40.1404H26.5405L28.4764 51.6988H25.2901L24.9773 49.2348H20.2693L18.8326 51.6988H15.46L22.5596 40.1404ZM24.1653 42.4017L21.5033 47.0536H24.7407L24.1653 42.4017Z" fill="black"/>
<path d="M39.8689 40.4006L39.1255 42.6532C38.6861 42.464 38.2401 42.3211 37.7901 42.2265C37.3392 42.1319 36.8767 42.0845 36.4046 42.0845C35.6881 42.0845 35.1407 42.1859 34.7603 42.3897C34.3808 42.5934 34.1896 42.8869 34.1896 43.2722C34.1896 43.6902 34.6174 44.0697 35.4747 44.4105C35.8185 44.5457 36.0888 44.6596 36.2858 44.7523C37.2832 45.2187 37.962 45.6734 38.3231 46.1186C38.6842 46.5646 38.8638 47.1304 38.8638 47.8189C38.8638 49.0828 38.3617 50.0898 37.3585 50.84C36.3563 51.5912 34.9958 51.9668 33.2762 51.9668C32.5492 51.9668 31.853 51.9137 31.1849 51.8094C30.5177 51.7032 29.8727 51.5439 29.2538 51.3325L29.9461 48.9495C30.4482 49.189 30.9348 49.3666 31.404 49.4864C31.8762 49.6061 32.3348 49.665 32.7867 49.665C33.6093 49.665 34.2582 49.5356 34.7303 49.2739C35.2034 49.0142 35.44 48.6618 35.44 48.2176C35.44 47.6586 34.8114 47.1382 33.5562 46.6554C33.2405 46.5357 32.9952 46.441 32.8195 46.3706C32.1378 46.0935 31.6319 45.7314 31.2988 45.2814C30.9666 44.8305 30.7996 44.2889 30.7996 43.6545C30.7996 42.5364 31.265 41.6307 32.1958 40.9336C33.1246 40.2365 34.3441 39.8879 35.8542 39.8879C36.6942 39.8879 37.4531 39.9314 38.1329 40.0183C38.8117 40.1042 39.391 40.2326 39.8689 40.4006Z" fill="black"/>
<path d="M41.5432 40.1404H50.8413L50.3422 42.3688H47.2737L45.2113 51.6988H41.9748L44.0372 42.3688H41.0614L41.5432 40.1404Z" fill="black"/>
<path d="M52.176 40.1404H60.637L60.1542 42.2877H54.8882L54.3899 44.606H59.3422L58.8864 46.6887H53.9255L53.2998 49.536H58.7513L58.2695 51.6988H49.6144L52.176 40.1404Z" fill="black"/>
<path d="M62.6475 40.1404H67.1787C68.6097 40.1404 69.6863 40.3798 70.4065 40.8607C71.1278 41.3396 71.4889 42.055 71.4889 43.0032C71.4889 43.8548 71.2012 44.5355 70.6257 45.0453C70.0522 45.5542 69.2373 45.8506 68.1839 45.9326C68.5102 46.1277 68.7642 46.3565 68.9438 46.6191C69.1253 46.8818 69.2691 47.2661 69.3753 47.7701L70.2636 51.6988H67.1112L66.2653 47.9815C66.1862 47.6561 66.0413 47.4283 65.8299 47.2979C65.6184 47.1676 65.2853 47.1038 64.8286 47.1038H64.2532L63.248 51.6988H60.1042L62.6475 40.1404ZM65.2931 42.2549L64.7272 44.9555H65.8685C66.611 44.9555 67.1865 44.8242 67.593 44.5616C67.9975 44.299 68.2013 43.9282 68.2013 43.4502C68.2013 43.0553 68.0612 42.757 67.7822 42.5562C67.5032 42.3563 67.0909 42.2549 66.5444 42.2549H65.2931Z" fill="black"/>
<path d="M72.2922 45.8018H76.95L76.4759 47.9008H71.8181L72.2922 45.8018Z" fill="black"/>
<path d="M90.0331 40.4248L89.3388 42.8C88.8889 42.5673 88.4216 42.3916 87.9407 42.2748C87.4589 42.1589 86.9559 42.101 86.4326 42.101C84.8423 42.101 83.5978 42.4901 82.6959 43.2722C81.7951 44.0523 81.3432 45.1241 81.3432 46.4845C81.3432 47.478 81.6203 48.2553 82.1717 48.8192C82.7239 49.383 83.4848 49.665 84.4542 49.665C84.6512 49.665 84.8549 49.6495 85.0625 49.6206C85.271 49.5906 85.497 49.5462 85.7393 49.4854L86.28 47.0706H84.3026L84.767 44.9715H89.7704L88.3511 51.3653C87.7534 51.5555 87.1171 51.6974 86.4403 51.7921C85.7644 51.8877 85.0239 51.935 84.2186 51.935C82.274 51.935 80.7668 51.4551 79.696 50.4953C78.6243 49.5356 78.0894 48.1877 78.0894 46.4526C78.0894 45.574 78.2409 44.7533 78.5422 43.9924C78.8425 43.2297 79.2876 42.5606 79.8737 41.987C80.6055 41.2484 81.4649 40.7096 82.4517 40.3688C83.4365 40.026 84.6376 39.8561 86.0522 39.8561C86.7792 39.8561 87.4715 39.9015 88.13 39.9942C88.7904 40.0868 89.4248 40.2297 90.0331 40.4248Z" fill="#B22D90"/>
<path d="M93.0679 40.1404H97.5972C99.0291 40.1404 100.105 40.3798 100.826 40.8607C101.547 41.3396 101.907 42.055 101.907 43.0032C101.907 43.8548 101.62 44.5355 101.046 45.0453C100.471 45.5542 99.6577 45.8506 98.6023 45.9326C98.9306 46.1277 99.1836 46.3565 99.3642 46.6191C99.5437 46.8818 99.6876 47.2661 99.7948 47.7701L100.683 51.6988H97.5296L96.6838 47.9815C96.6056 47.6561 96.4608 47.4283 96.2493 47.2979C96.0388 47.1676 95.7038 47.1038 95.2471 47.1038H94.6736L93.6675 51.6988H90.5237L93.0679 40.1404ZM95.7125 42.2549L95.1467 44.9555H96.2879C97.0314 44.9555 97.6059 44.8242 98.0114 44.5616C98.4179 44.299 98.6197 43.9282 98.6197 43.4502C98.6197 43.0553 98.4807 42.757 98.2016 42.5562C97.9226 42.3563 97.5094 42.2549 96.9638 42.2549H95.7125Z" fill="#B22D90"/>
<path d="M104.529 40.1401H107.748L106.296 46.5822C106.227 46.8641 106.178 47.1422 106.148 47.4164C106.115 47.6906 106.101 47.9571 106.101 48.2169C106.101 48.6514 106.264 49.0163 106.591 49.3147C106.917 49.614 107.32 49.7627 107.799 49.7627C108.442 49.7627 108.952 49.5242 109.328 49.0472C109.707 48.5693 110.04 47.7109 110.326 46.4673L111.78 40.1401H114.873L113.335 47.3305C112.986 48.9574 112.355 50.1412 111.442 50.8846C110.53 51.6281 109.25 51.9998 107.604 51.9998C106.089 51.9998 104.926 51.6648 104.115 50.9947C103.303 50.3246 102.897 49.3668 102.897 48.1193C102.897 47.8374 102.91 47.5651 102.939 47.3015C102.967 47.0389 103.013 46.7879 103.075 46.5494L104.529 40.1401Z" fill="#B22D90"/>
<path d="M117.14 40.1404H126.403L125.827 42.4664L118.423 49.4704H124.323L123.757 51.6988H114.393L114.958 48.9992L121.939 42.337H116.658L117.14 40.1404Z" fill="#B22D90"/>
<path d="M77.229 7.24792e-05H53.1356H22.1686L23.471 3.83477H41.9209L42.5721 5.64358H10.7369L12.0393 9.47828H66.7379L64.7844 3.90712L83.3067 17.3647L74.1179 30.8223L72.2367 25.2512H45.4662H23.9775L25.2798 29.0859H46.7686L47.275 30.6776H35.4092L37.0733 35.7423H124.837C125.922 35.7423 126.646 34.5847 126.284 33.4994L124.403 27.7835C123.824 26.047 122.449 24.6 120.713 24.0212L105.808 18.5947C104.144 18.0159 102.625 17.0753 101.323 15.773L91.1208 5.78829C87.3584 2.0983 82.3661 7.24792e-05 77.229 7.24792e-05ZM3.42928 5.64358L4.73163 9.47828H8.27692L6.97456 5.64358H3.42928ZM36.8562 12.1553L38.1586 15.99H62.4691L61.2391 12.1553H36.8562ZM25.3521 12.1553L26.6545 15.99H34.4686L33.1662 12.1553H25.3521ZM59.2132 18.6671L60.5156 22.5018H68.3297L67.0997 18.6671H59.2132ZM17.1763 18.6671L18.4063 22.5018H56.8256L55.5956 18.6671H17.1763Z" fill="url(#paint0_linear_46_5041)"/>
<defs>
<linearGradient id="paint0_linear_46_5041" x1="106.242" y1="17.871" x2="33.8898" y2="17.871" gradientUnits="userSpaceOnUse">
<stop stop-color="#FF7B51"/>
<stop offset="1" stop-color="#B12C8F"/>
</linearGradient>
</defs>
</svg>
