<svg width="137" height="45" viewBox="0 0 137 45" fill="none" xmlns="http://www.w3.org/2000/svg">
<path d="M20.8224 24.9845H5.87783V43.9935H0V14.7921C0 10.7072 0.875433 7.51808 2.6263 5.22506C5.16856 1.89044 9.48306 0.222656 15.5698 0.222656H20.8224V5.7252H14.8819C12.1718 5.7252 10.1923 6.1425 8.94184 6.97592C6.89877 8.3515 5.87783 10.9154 5.87783 14.667V19.4819H20.8224V24.9845Z" fill="#6C6E70"/>
<path d="M49.7105 28.9863C49.7105 25.9439 48.7824 23.4524 46.9281 21.5141C45.0725 19.5757 42.6651 18.6065 39.7057 18.6065C36.7875 18.6065 34.3907 19.5659 32.515 21.4827C30.639 23.4007 29.7009 25.9019 29.7009 28.9863C29.7009 32.0717 30.6174 34.5729 32.4523 36.4899C34.2863 38.4079 36.7044 39.3664 39.7057 39.3664C42.7073 39.3664 45.1245 38.4079 46.9592 36.4899C48.7931 34.5729 49.7105 32.0717 49.7105 28.9863ZM55.3382 28.9863C55.3382 33.3224 53.8159 37.0117 50.7735 40.0543C47.7301 43.0977 44.0409 44.6188 39.7057 44.6188C35.3697 44.6188 31.6804 43.0977 28.638 40.0543C25.5946 37.0117 24.0733 33.3224 24.0733 28.9863C24.0733 24.6514 25.5946 20.9622 28.638 17.9186C31.6804 14.8762 35.3697 13.3539 39.7057 13.3539C44.0409 13.3539 47.7301 14.8762 50.7735 17.9186C53.8159 20.9622 55.3382 24.6514 55.3382 28.9863Z" fill="#6C6E70"/>
<path d="M78.7862 43.9934H74.8468C69.7193 43.9934 65.655 42.4097 62.6537 39.2412C59.9433 36.4067 58.5891 32.9881 58.5891 28.9862C58.5891 26.6941 59.0472 24.5466 59.9649 22.5456C61.0483 20.1695 62.7161 18.2311 64.9671 16.7304C66.5511 15.6888 68.1973 14.9698 69.9071 14.5731C71.6159 14.1774 73.3464 13.979 75.097 13.979H78.7862V19.2316H74.8468C71.2202 19.2316 68.4475 20.3366 66.5304 22.5456C64.9877 24.3384 64.2168 26.485 64.2168 28.9862C64.2168 31.6965 65.0924 33.9475 66.843 35.7395C68.8021 37.7403 71.5328 38.7408 75.0346 38.7408H78.7862V43.9934Z" fill="#6C6E70"/>
<path d="M108.299 30.0493C108.299 32.7176 107.965 34.9688 107.299 36.8025C106.381 39.3458 104.735 41.3468 102.359 42.8055C100.358 44.0139 98.065 44.6188 95.4807 44.6188C92.8955 44.6188 90.6034 44.0139 88.6026 42.8055C86.2676 41.3468 84.6211 39.3458 83.6626 36.8025C82.9954 35.0106 82.6621 32.7596 82.6621 30.0493V19.6072L88.1649 13.3539V30.0493C88.1649 31.8422 88.3524 33.3008 88.7275 34.4264C89.3527 36.2613 90.499 37.6369 92.1668 38.5534C93.1253 39.0958 94.2302 39.3662 95.4807 39.3662C96.0222 39.3662 96.5848 39.3037 97.1692 39.1786C97.7524 39.0536 98.2946 38.8456 98.7949 38.5534C100.504 37.6369 101.65 36.2817 102.234 34.4889C102.609 33.3632 102.797 31.8842 102.797 30.0493V13.9791L108.299 18.9932V30.0493Z" fill="#ED1C24"/>
<path d="M137 35.6146C137 36.5321 136.885 37.4073 136.656 38.2409C136.427 39.0753 136.083 39.8256 135.624 40.4919C134.582 41.9515 133.186 42.9521 131.435 43.4933C130.309 43.8275 128.871 43.9936 127.12 43.9936H112.426V38.7411H126.808C128.224 38.7411 129.142 38.6786 129.559 38.5535C130.768 38.2203 131.372 37.4495 131.372 36.2399C131.372 35.3234 131.038 34.573 130.372 33.9888C129.872 33.5725 129.079 33.1758 127.996 32.8006C125.245 31.9674 122.514 31.1124 119.805 30.2369C116.969 29.1956 115.031 27.9762 113.989 26.579C112.947 25.1828 112.426 23.6928 112.426 22.1081C112.426 21.3578 112.488 20.6074 112.614 19.8571C112.739 19.1067 113.114 18.3153 113.739 17.481C114.823 16.0223 116.323 15.0218 118.241 14.4796C119.45 14.1464 121.055 13.9792 123.056 13.9792H135.624V19.2318H121.493C120.45 19.2318 119.617 19.43 118.992 19.8257C118.366 20.2224 118.053 20.7949 118.053 21.5453C118.053 22.4207 118.407 23.1506 119.117 23.7339C119.575 24.1091 120.305 24.4638 121.305 24.7968C123.972 25.6312 126.661 26.4442 129.372 27.2356C132.289 28.2781 134.29 29.5082 135.374 30.9248C136.458 32.3424 137 33.9058 137 35.6146Z" fill="#6C6E70"/>
<path d="M92.011 16.3773C92.5555 14.681 93.4558 13.4913 94.1653 12.0293C94.9681 10.376 95.2668 8.35834 95.3719 6.2049C96.6032 8.83261 96.7871 11.8245 95.9456 14.8151C95.2627 17.2427 94.2923 19.6848 94.9558 22.4775C95.4173 24.4214 96.6248 26.1129 97.8622 25.3039C97.7872 25.4167 97.6711 25.5667 97.5876 25.664C97.4874 25.7808 97.3834 25.8874 97.2766 25.9838C97.0585 26.1808 96.8284 26.3358 96.592 26.4507C96.0999 26.69 95.5818 26.7564 95.0743 26.6648C93.9368 26.4595 92.832 25.4326 92.17 23.7726C91.6276 22.413 91.4038 20.7067 91.512 19.0629C91.5792 18.0441 91.7565 17.1701 92.011 16.3773Z" fill="#ED1C24"/>
<path d="M96.2709 22.0076C96.3001 19.3255 97.4027 17.2694 97.9548 14.9023C98.3069 13.3928 98.3472 11.5423 97.8971 10.0789C98.1155 10.6611 98.2387 11.1178 98.3916 11.6697C98.5461 12.2285 98.7263 13.1201 98.8205 13.719C99.0223 14.9991 99.0731 16.2373 98.9565 17.5473C98.9162 18.0024 98.8576 18.4612 98.7821 18.9058C98.7063 19.354 98.5767 19.7986 98.5312 20.2588C98.5008 20.5651 98.5169 20.9945 98.7101 21.1226C98.8443 21.2114 98.994 21.083 99.103 20.919C99.3071 20.6111 99.4472 20.0875 99.4747 19.6172C99.4973 21.1158 99.212 22.6466 98.6757 23.9035C98.4521 24.4273 98.187 25.055 97.8198 25.2698C97.5442 25.4312 97.2218 25.3151 96.992 25.0134C96.6751 24.5978 96.4815 23.9348 96.373 23.2804C96.3046 22.8688 96.2662 22.437 96.2709 22.0076Z" fill="#ED1C24"/>
</svg>
