<svg width="151" height="51" viewBox="0 0 151 51" fill="none" xmlns="http://www.w3.org/2000/svg">
<path d="M51.748 14.1245H72.4504V26.8603H51.748V14.1245Z" fill="#A9BDC4"/>
<path d="M31.2414 6.71448L38.8617 10.6575V12.736H41.4191V18.3847H29.1102L30.0162 7.14071L31.2414 6.71448Z" fill="#50545E"/>
<path d="M60.5498 0.00012207L65.0794 3.46419V11.6703L60.177 11.9369V0.213241L60.5498 0.00012207Z" fill="#50545E"/>
<path d="M63.5335 26.8572V17.2127H68.436V15.0273L55.0786 15.9867V26.8572H63.5335Z" fill="#50545E"/>
<path d="M69.6882 14.1214H65.7979L68.4359 6.28809L69.6882 7.14056V14.1214Z" fill="#50545E"/>
<path d="M51.7488 17.3544H47.8585L50.4964 9.521L51.7488 10.3735V17.3544Z" fill="#50545E"/>
<path d="M51.1883 1.81494H55.0786V13.0233H51.1883V1.81494Z" fill="#A9BDC4"/>
<path d="M55.0082 26.8572V15.7736H68.0106V26.8572H76.0036V6.92743L80.7991 8.52618V26.8572H84.5298V2.1319L73.8717 3.83685V6.39499H72.2737V8.7393H71.3143V11.1905H60.55V0H53.8357V12.1499H50.532V9.48557H48.507V15.2405H45.5233V17.212H38.9152V13.4286H31.2422V6.71431H23.3554V26.8572H55.0082Z" fill="#BFCED3"/>
<path d="M64.5456 6.29089H68.4359V13.2719H64.5456V6.29089Z" fill="#BFCED3"/>
<path d="M99.6096 26.8573V3.51758L89.325 6.28812L89.7342 26.8573H99.6096Z" fill="#BFCED3"/>
<path d="M118.385 9.09469L121.831 10.8879L121.831 17.3723L117.496 17.5497L118.385 9.09469Z" fill="#50545E"/>
<path d="M90.4437 26.8569V6.28776L84.5299 2.13159V26.8569H90.4437Z" fill="#50545E"/>
<path d="M111.777 9.0946H118.384V18.3314L113.02 20.8183L111.777 9.0946Z" fill="#BFCED3"/>
<path d="M106.91 2.45154L96.8921 5.67541L108.136 7.62056L106.91 2.45154Z" fill="#BFCED3"/>
<path d="M81.7761 26.8572V9.14408L75.8615 5.54244V26.8572H81.7761Z" fill="#50545E"/>
<path d="M113.464 26.8572V9.77849L111.173 8.41994V5.00933L106.91 2.4519V6.87465L99.6096 3.5175V26.8572H113.464Z" fill="#50545E"/>
<path d="M104.921 7.5858L101.209 6.28788L101.209 10.5781L104.921 11.1436L104.921 7.5858Z" fill="#A9BDC4"/>
<path d="M109.539 9.19982L105.915 7.93337L105.915 11.2949L109.538 11.8469L109.539 9.19982Z" fill="#A9BDC4"/>
<path d="M110.249 9.44873V11.9555L112.692 12.3276V10.3026L110.249 9.44873Z" fill="#A9BDC4"/>
<path d="M104.921 12.5846L101.209 12.0792L101.209 18.198L104.92 18.5277L104.921 12.5846Z" fill="#A9BDC4"/>
<path d="M110.249 13.3094V19.0024L112.692 19.219V13.6416L110.249 13.3094Z" fill="#A9BDC4"/>
<path d="M109.539 13.213L105.915 12.7198L105.915 18.617L109.539 18.939L109.539 13.213Z" fill="#A9BDC4"/>
<path d="M109.539 26.8569V19.8383L105.916 19.5688V26.8569H109.539Z" fill="#A9BDC4"/>
<path d="M112.692 26.8568V20.0712L110.249 19.8909V26.8568H112.692Z" fill="#A9BDC4"/>
<path d="M140.359 26.8572C140.504 26.5001 140.588 26.1266 140.588 25.7382C140.588 23.3247 137.681 21.3689 134.095 21.3689C130.51 21.3689 127.603 23.3247 127.603 25.7382C127.603 26.1266 127.687 26.5001 127.832 26.8572H140.359Z" fill="#019342"/>
<path d="M104.921 26.8573V19.4951L101.209 19.2192V26.8573H104.921Z" fill="#A9BDC4"/>
<path d="M138.03 26.8572C138.266 26.0232 138.403 25.1579 138.403 24.2648C138.403 17.8884 132.101 12.7194 124.327 12.7194C116.552 12.7194 110.249 17.8884 110.249 24.2648C110.249 25.1579 110.387 26.0232 110.624 26.8572H138.03Z" fill="#39B54A"/>
<path d="M126.587 26.8572C125.562 25.3526 123.331 24.2998 120.711 24.2998C118.092 24.2998 115.861 25.3526 114.836 26.8572H126.587Z" fill="#8CC541"/>
<path d="M120.483 26.8572C120.628 26.5001 120.712 26.1266 120.712 25.7382C120.712 23.3247 117.805 21.3689 114.219 21.3689C110.634 21.3689 107.728 23.3247 107.728 25.7382C107.728 26.1266 107.812 26.5001 107.956 26.8572H120.483Z" fill="#019342"/>
<path d="M20.0252 26.8572C20.1685 26.4595 20.264 26.0433 20.264 25.6049C20.264 23.2656 18.0694 21.3689 15.3616 21.3689C12.6544 21.3689 10.4591 23.2656 10.4591 25.6049C10.4591 26.0433 10.5546 26.4595 10.6979 26.8572H20.0252Z" fill="#019342"/>
<path d="M16.1314 26.8572H32.0298C34.7055 25.0531 36.4226 22.3745 36.4226 19.3616C36.4226 13.9268 30.8965 9.52112 24.0802 9.52112C17.264 9.52112 11.7386 13.9268 11.7386 19.3616C11.7386 22.3745 13.4557 25.0531 16.1314 26.8572Z" fill="#39B54A"/>
<path d="M39.6869 26.8572C39.7047 26.6869 39.7226 26.5165 39.7226 26.3426C39.7226 23.0624 36.6306 20.4031 32.8172 20.4031C29.0039 20.4031 25.9126 23.0624 25.9126 26.3426C25.9126 26.5165 25.9297 26.6869 25.9482 26.8572H39.6869Z" fill="#019342"/>
<path d="M31.1652 26.8572C31.1802 26.7268 31.1966 26.597 31.1966 26.4637C31.1966 23.7887 28.2721 21.6198 24.6647 21.6198C21.0574 21.6198 18.1329 23.7887 18.1329 26.4637C18.1329 26.597 18.1493 26.7268 18.1642 26.8572H31.1652Z" fill="#8CC63F"/>
<path d="M11.6372 44.1022C10.811 44.5035 9.53634 44.7631 8.26168 44.7631C4.4141 44.7631 2.17164 42.2846 2.17164 38.3662C2.17164 34.1882 4.65015 31.8041 8.3797 31.8041C9.70157 31.8041 10.811 32.0873 11.5664 32.465L12.0857 30.7891C11.5427 30.5058 10.2681 30.0809 8.30889 30.0809C3.37549 30.0809 0 33.4328 0 38.437C0 43.6773 3.35188 46.5099 7.83679 46.5099C9.77239 46.5099 11.3067 46.1322 12.0384 45.7545L11.6372 44.1022Z" fill="#39B54A"/>
<path d="M12.2981 34.8254V36.4542H15.8624V46.2502H17.9396V36.4542H21.504V34.8254H12.2981Z" fill="#39B54A"/>
<path d="M23.3215 50.924H25.3751V44.7159H25.4223C26.1068 45.849 27.4287 46.5099 28.9394 46.5099C31.6304 46.5099 34.1561 44.4799 34.1561 40.3727C34.1561 36.9264 32.0788 34.5895 29.2935 34.5895C27.4287 34.5895 26.0596 35.392 25.2335 36.7847H25.1862L25.0682 34.8255H23.2271C23.2743 35.9113 23.3215 37.0916 23.3215 38.5551V50.924ZM25.3751 39.6173C25.3751 39.3576 25.4459 39.0508 25.5167 38.7911C25.8944 37.2332 27.2399 36.2418 28.6562 36.2418C30.8514 36.2418 32.0552 38.201 32.0552 40.4671C32.0552 43.0872 30.7806 44.8812 28.5853 44.8812C27.0982 44.8812 25.8472 43.8898 25.4695 42.4499C25.3987 42.1902 25.3751 41.907 25.3751 41.6001V39.6173Z" fill="#39B54A"/>
<path d="M41.592 34.5895C38.4525 34.5895 35.9268 36.8319 35.9268 40.6323C35.9268 44.2438 38.3345 46.5099 41.4031 46.5099C44.1413 46.5099 47.0919 44.6687 47.0919 40.4435C47.0919 36.9736 44.873 34.5895 41.592 34.5895ZM41.5448 36.1474C43.9997 36.1474 44.9675 38.5787 44.9675 40.5143C44.9675 43.0872 43.4804 44.952 41.4976 44.952C39.4675 44.952 38.0513 43.0636 38.0513 40.5615C38.0513 38.4135 39.1135 36.1474 41.5448 36.1474Z" fill="#39B54A"/>
<path d="M49.6411 34.8254V46.2502H52.0487C53.2526 44.2438 54.5272 42.0485 55.6131 40.2781C56.2976 39.1215 56.7697 38.2009 57.5251 36.7138H57.5723C57.4778 38.5786 57.4306 39.5464 57.4306 41.4112V46.2502H59.4134V34.8254H56.9821L53.4178 40.7266C52.6389 42.0485 52.2612 42.8511 51.553 44.2438L51.4822 44.2201C51.5766 42.5914 51.6239 41.4348 51.6239 39.6408V34.8254H49.6411ZM51.4586 30.1753C51.553 31.7804 52.3556 33.1023 54.4328 33.1023C56.2504 33.1023 57.4542 32.0873 57.5723 30.1753H56.0852C55.9671 31.1903 55.495 31.9693 54.48 31.9693C53.5358 31.9693 53.0401 31.1903 52.9693 30.1753H51.4586Z" fill="#39B54A"/>
<path d="M78.9585 46.2502L74.0015 38.083L78.8405 30.3406H76.4564L74.3084 34.0701C73.7182 35.0851 73.317 35.8169 72.8685 36.7611H72.7976C72.3728 35.9113 71.9243 35.1087 71.3341 34.0701L69.2333 30.3406H66.8492L71.523 38.201L66.6604 46.2502H69.0209L70.9329 42.7567C71.7354 41.364 72.2075 40.5142 72.656 39.5937H72.7032C73.1989 40.5142 73.6946 41.3876 74.5208 42.7331L76.5744 46.2502H78.9585Z" fill="#39B54A"/>
<path d="M89.1559 39.2396C89.1559 36.9736 88.3061 34.5895 84.8126 34.5895C83.3727 34.5895 81.98 34.9908 81.0358 35.5809L81.5079 36.9736C82.3105 36.4307 83.4199 36.1238 84.5057 36.1238C86.8426 36.1002 87.1023 37.8233 87.1023 38.7439V38.98C82.6882 38.9564 80.2333 40.4671 80.2333 43.2288C80.2333 44.8812 81.4135 46.5099 83.7268 46.5099C85.3555 46.5099 86.583 45.7073 87.2203 44.8104H87.2911L87.4563 46.2502H89.3211C89.2031 45.4713 89.1559 44.5035 89.1559 43.5121V39.2396ZM87.1495 42.4027C87.1495 42.5915 87.1259 42.8276 87.0551 43.0636C86.7246 44.0314 85.7568 44.9756 84.2461 44.9756C83.2075 44.9756 82.3105 44.3619 82.3105 42.9928C82.3105 40.7739 84.8834 40.3727 87.1495 40.4199V42.4027Z" fill="#39B54A"/>
<path d="M92.5075 50.924H94.5611V44.7159H94.6083C95.2929 45.849 96.6147 46.5099 98.1254 46.5099C100.816 46.5099 103.342 44.4799 103.342 40.3727C103.342 36.9264 101.265 34.5895 98.4795 34.5895C96.6147 34.5895 95.2457 35.392 94.4195 36.7847H94.3723L94.2543 34.8255H92.4131C92.4603 35.9113 92.5075 37.0916 92.5075 38.5551V50.924ZM94.5611 39.6173C94.5611 39.3576 94.6319 39.0508 94.7028 38.7911C95.0804 37.2332 96.4259 36.2418 97.8422 36.2418C100.037 36.2418 101.241 38.201 101.241 40.4671C101.241 43.0872 99.9666 44.8812 97.7714 44.8812C96.2843 44.8812 95.0332 43.8898 94.6555 42.4499C94.5847 42.1902 94.5611 41.907 94.5611 41.6001V39.6173Z" fill="#39B54A"/>
<path d="M105.868 34.8254V46.203C106.741 46.2974 107.804 46.3682 108.937 46.3682C110.613 46.3682 112.666 46.1085 113.917 45.0463C114.649 44.4326 115.121 43.6064 115.121 42.4262C115.121 39.3812 112.407 38.555 109.834 38.555C109.22 38.555 108.441 38.6022 107.945 38.673V34.8254H105.868ZM107.922 40.1837C108.417 40.0893 108.866 40.0421 109.409 40.0421C110.967 40.0421 113.044 40.4906 113.044 42.4734C113.044 44.3618 111.014 44.8811 109.48 44.8811C108.795 44.8811 108.347 44.8575 107.922 44.7867V40.1837Z" fill="#39B54A"/>
<path d="M117.694 34.8254V46.2502H119.747V41.2223H120.149C122.061 41.2223 123.123 42.0721 123.902 43.9133C124.28 44.8575 124.657 45.7545 124.964 46.2502H127.136C126.616 45.3296 126.239 44.2201 125.932 43.4648C125.035 41.4112 123.926 40.1837 122.084 39.9713L127.041 34.8254H124.516L120.243 39.7824H119.747V34.8254H117.694Z" fill="#39B54A"/>
<path d="M133.698 34.5895C130.558 34.5895 128.033 36.8319 128.033 40.6323C128.033 44.2438 130.44 46.5099 133.509 46.5099C136.247 46.5099 139.198 44.6687 139.198 40.4435C139.198 36.9736 136.979 34.5895 133.698 34.5895ZM133.651 36.1474C136.106 36.1474 137.073 38.5787 137.073 40.5143C137.073 43.0872 135.586 44.952 133.603 44.952C131.573 44.952 130.157 43.0636 130.157 40.5615C130.157 38.4135 131.219 36.1474 133.651 36.1474Z" fill="#39B54A"/>
<path d="M141.747 46.2503C142.361 46.2975 143.706 46.3919 144.981 46.3919C147.223 46.3919 151 46.0142 151 43.0164C151 41.3641 149.772 40.4435 148.097 40.2074V40.1602C149.395 39.877 150.481 38.98 150.481 37.5637C150.481 35.038 147.318 34.7075 145.382 34.7075C144.06 34.7075 142.573 34.8255 141.747 34.9672V46.2503ZM143.753 36.2418C144.225 36.1946 144.65 36.1474 145.358 36.1474C147.436 36.1474 148.427 36.6903 148.427 37.8234C148.427 39.1924 146.845 39.6409 145.311 39.6409H143.753V36.2418ZM143.73 40.9864H145.24C147.2 40.9864 148.875 41.3405 148.875 42.9928C148.875 44.6687 146.798 44.9756 145.382 44.9756C144.745 44.9756 144.32 44.952 143.73 44.9048V40.9864Z" fill="#39B54A"/>
</svg>
