<svg width="114" height="96" viewBox="0 0 114 96" fill="none" xmlns="http://www.w3.org/2000/svg">
<path d="M50.4379 87.7947C70.3955 87.7947 86.5743 71.482 86.5743 51.3592C86.5743 31.2364 70.3955 14.9237 50.4379 14.9237C30.4803 14.9237 14.3015 31.2364 14.3015 51.3592C14.3015 71.482 30.4803 87.7947 50.4379 87.7947Z" fill="white"/>
<path d="M20.9201 81.4696C21.2362 81.1128 21.578 80.8606 21.9498 80.7079C22.3262 80.5501 22.6949 80.5038 23.0654 80.5682C23.4365 80.6423 23.7794 80.8097 24.0852 81.0807C24.3961 81.3562 24.6081 81.6714 24.7161 82.0218C24.8292 82.3768 24.8371 82.7478 24.7393 83.1251C24.637 83.5076 24.4373 83.8766 24.1398 84.2226L23.9592 84.4264C23.6476 84.7781 23.3064 85.0399 22.9346 85.1926C22.5627 85.3453 22.194 85.3917 21.8184 85.3227C21.4428 85.2537 21.0999 85.0863 20.789 84.8108C20.4832 84.5398 20.2757 84.2195 20.1626 83.8645C20.0541 83.5045 20.0506 83.1284 20.1575 82.7409C20.2598 82.3584 20.469 81.9888 20.771 81.6378L20.9201 81.4696ZM21.6765 82.4128C21.3604 82.7696 21.1726 83.0945 21.1323 83.3863C21.0875 83.6833 21.1744 83.9241 21.3987 84.1228C21.837 84.5112 22.3605 84.3927 22.9685 83.7578L23.2034 83.4928C23.5195 83.136 23.6977 82.8117 23.7521 82.5142C23.802 82.2217 23.7145 81.9714 23.48 81.7636C23.2609 81.5694 23.0114 81.5121 22.722 81.5923C22.4377 81.677 22.1372 81.8929 21.8255 82.2446L21.6765 82.4128Z" fill="#CF5105"/>
<path d="M19.0305 77.2553L20.0735 78.469L20.9424 78.0905L21.7546 79.0356L16.9286 80.8484L16.214 80.0169L18.7188 75.503L19.5355 76.4533L19.0305 77.2553ZM19.2098 78.8431L18.5308 78.0529L17.5969 79.5468L19.2098 78.8431Z" fill="#CF5105"/>
<path d="M13.8852 72.404C14.2854 72.1451 14.6822 71.9937 15.0814 71.9462C15.4863 71.8951 15.8539 71.9492 16.1935 72.1106C16.5312 72.2815 16.8167 72.5347 17.0387 72.8777C17.2644 73.2264 17.3841 73.5869 17.3943 73.9535C17.4081 74.3258 17.3163 74.6853 17.1209 75.0226C16.9198 75.3637 16.6286 75.6657 16.2492 75.9193L16.0206 76.0673C15.6261 76.3225 15.2273 76.4833 14.8281 76.5308C14.4289 76.5782 14.0613 76.5241 13.7179 76.357C13.3745 76.1898 13.089 75.9366 12.8633 75.5879C12.6413 75.2449 12.5273 74.8806 12.5135 74.5084C12.5054 74.1324 12.6029 73.7692 12.8097 73.4244C13.0108 73.0834 13.3115 72.7834 13.6965 72.5261L13.8852 72.404ZM14.3611 73.5155C13.9609 73.7745 13.6929 74.0371 13.5759 74.3075C13.4531 74.5816 13.4723 74.8369 13.6351 75.0884C13.9533 75.5801 14.4893 75.6063 15.2453 75.1576L15.5426 74.9652C15.9428 74.7062 16.2014 74.4416 16.3336 74.1695C16.46 73.9011 16.4428 73.6364 16.2726 73.3735C16.1136 73.1276 15.8886 73.0056 15.5882 73.0052C15.2916 73.0106 14.9442 73.1381 14.5498 73.3934L14.3611 73.5155Z" fill="#CF5105"/>
<path d="M8.49432 66.7255L8.07007 65.6411L12.5789 63.8771L13.0032 64.9615L10.1622 66.073L13.6383 66.5849L14.0626 67.6694L9.55371 69.4333L9.12946 68.3489L11.9768 67.235L8.49432 66.7255Z" fill="#CF5105"/>
<path d="M11.1913 58.4706L11.4572 59.5972L9.48888 60.0619L9.88469 61.7387L11.8531 61.274L12.1206 62.4073L7.40845 63.5197L7.14092 62.3864L9.00987 61.9452L8.61405 60.2684L6.7451 60.7096L6.47913 59.5829L11.1913 58.4706Z" fill="#CF5105"/>
<path d="M8.94963 53.165C9.28991 53.1471 9.59028 53.215 9.86305 53.3538C10.1364 53.4994 10.3613 53.711 10.5314 53.9961C10.6947 54.2819 10.8007 54.614 10.8366 55.0005C10.8952 55.631 10.7316 56.1523 10.3519 56.5569C9.97848 56.954 9.41235 57.1912 8.65972 57.2611L8.41562 57.2838C7.94777 57.3272 7.52661 57.2842 7.15891 57.1542C6.78444 57.0249 6.49119 56.8127 6.27237 56.5185C6.04741 56.2316 5.91912 55.8811 5.88135 55.4742C5.8272 54.8911 5.93909 54.402 6.21147 54.0211C6.48386 53.6402 6.89214 53.3971 7.43017 53.2993L7.53782 54.4587C7.24011 54.4932 7.03684 54.5873 6.9206 54.7349C6.81178 54.8886 6.76349 55.1051 6.78993 55.3899C6.817 55.6814 6.945 55.8815 7.17457 55.997C7.40414 56.1125 7.75623 56.1482 8.2315 56.1109L8.57052 56.0794C9.08584 56.0316 9.44569 55.9298 9.65748 55.7802C9.8625 55.6312 9.95084 55.4041 9.92125 55.0855C9.8967 54.821 9.81679 54.6233 9.68152 54.4922C9.53947 54.3618 9.33591 54.3055 9.05728 54.3245L8.94963 53.165Z" fill="#CF5105"/>
<path d="M6.76063 47.7797L6.70793 49.236L10.6481 49.3786L10.606 50.5422L6.66582 50.3997L6.61435 51.8219L5.71606 51.7894L5.86235 47.7472L6.76063 47.7797Z" fill="#CF5105"/>
<path d="M6.54664 42.9871L6.74238 41.8392L11.5151 42.653L11.3194 43.8009L8.31209 43.2881L11.0264 45.5194L10.8306 46.6673L6.05786 45.8534L6.2536 44.7055L9.26762 45.2195L6.54664 42.9871Z" fill="#CF5105"/>
<path d="M9.2261 36.4489L8.79492 37.8409L12.5612 39.0075L12.2166 40.1198L8.45038 38.9532L8.02928 40.3127L7.17065 40.0468L8.36748 36.1829L9.2261 36.4489Z" fill="#CF5105"/>
<path d="M11.7778 33.5294L10.1976 31.9277L10.7116 30.8075L13.5236 33.8884C13.8025 34.2112 13.9677 34.5043 14.0192 34.7676C14.0769 35.0338 14.0432 35.3031 13.9273 35.5721L13.8307 35.7825L13.7479 35.9468L12.9162 35.5876C12.9399 35.5686 12.974 35.4943 13.028 35.3767C13.1018 35.2158 13.131 35.0868 13.1151 34.9746C13.0963 34.8686 13.0195 34.7584 12.8813 34.6351L12.7645 34.5141L8.93384 34.6819L9.4507 33.5555L11.7778 33.5294Z" fill="#CF5105"/>
<path d="M14.437 26.3839L13.6605 27.617L16.9969 29.7179L16.3764 30.7033L13.04 28.6023L12.2816 29.8067L11.521 29.3277L13.6764 25.9049L14.437 26.3839Z" fill="#CF5105"/>
<path d="M19.3438 20.5367L17.9158 22.0821L20.8115 24.758L20.0212 25.6132L16.4653 22.3273L18.6837 19.9267L19.3438 20.5367Z" fill="#CF5105"/>
<path d="M22.2613 16.7229L23.1515 15.9722L26.2729 19.6733L25.3827 20.4241L23.416 18.092L24.0501 21.5479L23.16 22.2987L20.0386 18.5975L20.9287 17.8468L22.8999 20.1841L22.2613 16.7229Z" fill="#CF5105"/>
<path d="M30.9714 16.5957L29.9795 17.2185L27.883 13.8793L26.4124 14.8026L28.5088 18.1418L27.5226 18.761L24.9482 14.6605L28.3971 12.4952L30.9714 16.5957Z" fill="#CF5105"/>
<path d="M32.7447 13.8888L33.4186 15.3852L32.3568 15.8633L30.3687 11.4487L32.1258 10.6574C32.4673 10.5036 32.7933 10.4315 33.11 10.4382C33.4267 10.4449 33.7065 10.5355 33.9528 10.7009C34.1962 10.8601 34.382 11.0902 34.5134 11.382C34.7091 11.8166 34.7077 12.228 34.5209 12.6258C34.3251 13.0202 33.9616 13.3407 33.4214 13.584L32.7447 13.8888ZM32.3727 13.063L33.0682 12.7498C33.2793 12.6547 33.4121 12.5352 33.4729 12.3883C33.5372 12.2324 33.5225 12.0672 33.4358 11.8747C33.3436 11.6698 33.2212 11.5308 33.0535 11.4569C32.8858 11.3831 32.7026 11.3909 32.5073 11.4714L31.7995 11.7902L32.3727 13.063Z" fill="#CF5105"/>
<path d="M40.4607 10.3921C40.5966 10.8489 40.6302 11.2723 40.5634 11.6687C40.4985 12.0717 40.3432 12.4092 40.0927 12.6897C39.8338 12.9657 39.5104 13.1684 39.1188 13.2849C38.7207 13.4034 38.341 13.4168 37.9864 13.3234C37.6253 13.2319 37.3061 13.0427 37.0374 12.7603C36.7668 12.4713 36.5589 12.1069 36.4223 11.6715L36.3446 11.4105C36.2106 10.9601 36.1686 10.5321 36.2354 10.1357C36.3022 9.73932 36.4575 9.40181 36.7145 9.11933C36.9715 8.83685 37.2948 8.6341 37.693 8.51566C38.0846 8.39916 38.4662 8.39222 38.8273 8.48372C39.1904 8.58174 39.5115 8.77751 39.7841 9.07295C40.0548 9.36187 40.258 9.73477 40.3966 10.1767L40.4607 10.3921ZM39.2602 10.536C39.1243 10.0791 38.9476 9.74805 38.7211 9.55968C38.4926 9.36478 38.2423 9.31137 37.9551 9.3968C37.3938 9.56378 37.2178 10.0708 37.4356 10.9225L37.5366 11.2619C37.6725 11.7188 37.8537 12.0414 38.0776 12.2448C38.2996 12.4416 38.5584 12.4996 38.8587 12.4103C39.1393 12.3268 39.3198 12.1453 39.4046 11.8572C39.4828 11.571 39.4583 11.2018 39.3243 10.7514L39.2602 10.536Z" fill="#CF5105"/>
<path d="M46.1553 10.1035C46.1933 10.4421 46.1432 10.746 46.0207 11.0265C45.8915 11.308 45.6935 11.5449 45.4189 11.7315C45.1433 11.9113 44.818 12.0368 44.4343 12.0954C43.8083 12.191 43.2783 12.0584 42.852 11.7033C42.4336 11.3539 42.1634 10.8028 42.0493 10.0556L42.0123 9.81325C41.9413 9.34877 41.9594 8.92581 42.0675 8.55109C42.1745 8.16964 42.369 7.86439 42.6499 7.62861C42.923 7.38713 43.2653 7.23839 43.6692 7.1767C44.2481 7.08827 44.743 7.17112 45.1393 7.42058C45.5356 7.67003 45.8024 8.06327 45.9317 8.5946L44.7806 8.77042C44.7287 8.47526 44.6227 8.27789 44.4686 8.17056C44.3087 8.07098 44.0897 8.03554 43.807 8.07873C43.5176 8.12294 43.3253 8.26252 43.2236 8.49849C43.1219 8.73447 43.107 9.08806 43.1722 9.56029L43.2236 9.89687C43.3018 10.4085 43.4246 10.7617 43.5865 10.9643C43.7473 11.1602 43.9791 11.235 44.2955 11.1866C44.558 11.1465 44.7507 11.0551 44.8736 10.9124C44.9954 10.7629 45.0396 10.5563 45.0042 10.2793L46.1553 10.1035Z" fill="#CF5105"/>
<path d="M51.396 7.60031L49.9391 7.63406L50.0304 11.5758L48.8662 11.6027L48.7749 7.66102L47.3521 7.69398L47.3313 6.79535L51.3751 6.70168L51.396 7.60031Z" fill="#CF5105"/>
<path d="M55.2388 10.9545L53.6465 10.7952L53.2785 11.6687L52.0386 11.5447L54.282 6.9032L55.3729 7.01227L56.6733 12.0081L55.4265 11.8834L55.2388 10.9545ZM54.0137 9.92861L55.0504 10.0323L54.696 8.30647L54.0137 9.92861Z" fill="#CF5105"/>
<path d="M62.9849 8.4849L61.8561 13.1931L60.7171 12.92L61.6364 9.0859L60.5835 8.83345L60.1246 10.397C59.9597 10.9387 59.7836 11.3517 59.5866 11.6476C59.388 11.9501 59.1669 12.1422 58.9053 12.2405C58.6502 12.3404 58.3348 12.3418 57.9557 12.2579L57.6577 12.1865L57.8673 11.3124L58.0294 11.3372C58.2625 11.3581 58.4548 11.2572 58.6195 11.0375C58.7775 10.8164 58.9422 10.4217 59.115 9.84688L59.7137 7.70055L62.9849 8.4849Z" fill="#CF5105"/>
<path d="M65.6019 11.1623L66.1594 11.382C66.5205 11.5244 66.8148 11.7062 67.0397 11.934C67.2622 12.1681 67.4038 12.4215 67.4685 12.7032C67.5268 12.9824 67.5029 13.2657 67.3905 13.5508C67.2157 13.9943 66.9087 14.2905 66.4694 14.4394C66.0326 14.5819 65.5342 14.5465 64.983 14.3292L63.3485 13.6849L65.124 9.1806L66.2137 9.61013L65.6019 11.1623ZM65.2722 11.9985L64.7678 13.2782L65.3253 13.498C65.547 13.5854 65.743 13.5894 65.9235 13.5215C66.1002 13.4448 66.226 13.3114 66.3034 13.115C66.3758 12.9312 66.3724 12.7542 66.2906 12.5902C66.2089 12.4263 66.0515 12.3057 65.8234 12.2158L65.2722 11.9985Z" fill="#CF5105"/>
<path d="M72.9652 13.8208L71.682 13.1302L69.8135 16.6022L68.7881 16.0503L70.6566 12.5784L69.4034 11.904L69.8293 11.1124L73.3912 13.0293L72.9652 13.8208Z" fill="#CF5105"/>
<path d="M74.1196 17.3551L73.1579 18.6849L72.2143 18.0025L75.0515 14.0793L76.6131 15.2086C76.9166 15.4281 77.1415 15.6748 77.2935 15.9527C77.4454 16.2307 77.5063 16.5184 77.4855 16.8144C77.4688 17.1048 77.3619 17.3804 77.1743 17.6398C76.895 18.026 76.5376 18.2297 76.0996 18.266C75.6601 18.2927 75.2011 18.1372 74.721 17.79L74.1196 17.3551ZM74.6503 16.6212L75.2683 17.0681C75.4559 17.2038 75.6258 17.2594 75.7834 17.239C75.9506 17.217 76.0865 17.122 76.2102 16.9509C76.3419 16.7689 76.4015 16.5935 76.382 16.4113C76.3625 16.2291 76.2644 16.0742 76.0974 15.9449L75.4683 15.49L74.6503 16.6212Z" fill="#CF5105"/>
<path d="M78.6083 21.9785L77.4316 20.894L76.6125 21.3708L75.6961 20.5263L80.2792 18.1659L81.0854 18.9089L79.1212 23.6828L78.1998 22.8337L78.6083 21.9785ZM78.246 20.4222L79.0122 21.1283L79.7665 19.5361L78.246 20.4222Z" fill="#CF5105"/>
<path d="M82.49 27.6863L81.755 26.792L83.3175 25.5079L82.2237 24.1768L80.6612 25.4609L79.9218 24.5613L83.6624 21.4872L84.4017 22.3869L82.9181 23.6061L84.012 24.9371L85.4956 23.7179L86.2306 24.6122L82.49 27.6863Z" fill="#CF5105"/>
<path d="M86.8485 31.4567C86.5513 31.6233 86.2519 31.6954 85.9458 31.6916C85.6362 31.682 85.341 31.5916 85.0623 31.4112C84.7894 31.2272 84.5474 30.9763 84.3442 30.6455C84.0127 30.1059 83.9288 29.5661 84.0902 29.0353C84.2495 28.5139 84.6522 28.0507 85.2962 27.6551L85.5051 27.5268C85.9055 27.2808 86.3022 27.133 86.6895 27.0869C87.0825 27.0372 87.4394 27.0977 87.7658 27.2648C88.0945 27.4226 88.3646 27.6802 88.5785 28.0283C88.885 28.5273 89.0011 29.0154 88.9253 29.4776C88.8496 29.9397 88.591 30.3383 88.1518 30.6641L87.5422 29.6719C87.794 29.5093 87.9346 29.3349 87.9736 29.1512C88.0032 28.9652 87.9507 28.7496 87.801 28.506C87.6477 28.2565 87.4444 28.1336 87.1874 28.1316C86.9304 28.1297 86.5989 28.2534 86.1892 28.4971L85.8991 28.6754C85.4581 28.9463 85.1804 29.1968 85.0567 29.4246C84.9387 29.6489 84.96 29.8916 85.1275 30.1643C85.2665 30.3906 85.4257 30.5326 85.6049 30.5903C85.79 30.6444 85.9975 30.6049 86.239 30.4645L86.8485 31.4567Z" fill="#CF5105"/>
<path d="M50.4379 87.7947C70.3955 87.7947 86.5743 71.482 86.5743 51.3592C86.5743 31.2364 70.3955 14.9237 50.4379 14.9237C30.4803 14.9237 14.3015 31.2364 14.3015 51.3592C14.3015 71.482 30.4803 87.7947 50.4379 87.7947Z" stroke="#351101" stroke-width="9.37031" stroke-miterlimit="1.5" stroke-linecap="round" stroke-linejoin="round"/>
<path fill-rule="evenodd" clip-rule="evenodd" d="M36.8242 36.059H29.7402V80.3686L36.8242 84.1142V36.059Z" fill="#EB5C00"/>
<path fill-rule="evenodd" clip-rule="evenodd" d="M64.8526 44.3298H57.7686V84.9632L64.8526 82.4295V44.3298Z" fill="#EB5C00"/>
<path fill-rule="evenodd" clip-rule="evenodd" d="M29.8757 78.9608V91.9029L33.9729 96H42.0521L45.5901 92.4621V85.5934L39.525 83.9387V92.4621H36.6914V83.0201L29.8757 78.9608Z" fill="#371202"/>
<path fill-rule="evenodd" clip-rule="evenodd" d="M45.5901 89.2993H75.6713C75.6713 89.2993 87.0048 87.9971 91.6762 80.1093C96.3476 72.2215 94.6633 73.0643 94.6633 73.0643H77.1263L69.5449 80.0329L58.1342 84.8579L45.5901 85.5933V89.2993Z" fill="#371202"/>
<path fill-rule="evenodd" clip-rule="evenodd" d="M79.8982 69.9243H89.4559C89.4559 69.9243 99.5644 69.7714 104.236 61.8836C108.907 53.9958 108.448 53.6893 108.448 53.6893H84.8518L83.3295 60.6579L79.8982 69.9243Z" fill="#371202"/>
<path fill-rule="evenodd" clip-rule="evenodd" d="M85.3354 51.1619H94.8931C94.8931 51.1619 105.232 51.0369 109.903 43.6327C114.574 36.2286 113.885 35.9225 113.885 35.9225H81.3291L84.0953 42.4637L85.3354 51.1619Z" fill="#371202"/>
<path fill-rule="evenodd" clip-rule="evenodd" d="M74.1953 44.3298H67.1113V80.9811L74.1953 76.4558V44.3298Z" fill="#EB5C00"/>
<path fill-rule="evenodd" clip-rule="evenodd" d="M83.7681 44.3298H76.6841V73.1699L83.7681 61.3767V44.3298Z" fill="#EB5C00"/>
<path fill-rule="evenodd" clip-rule="evenodd" d="M29.7395 36.0591V43.1431H83.901L81.2741 36.0591H29.7395Z" fill="#EB5C00"/>
<path d="M57.7681 44.3298V51.4138H84.8506V44.3298H57.7681Z" fill="#EB5C00"/>
<path d="M50.438 85.5933C69.444 85.5933 84.8514 70.2663 84.8514 51.3595C84.8514 32.4526 69.444 17.1256 50.438 17.1256C31.432 17.1256 16.0247 32.4526 16.0247 51.3595C16.0247 70.2663 31.432 85.5933 50.438 85.5933Z" stroke="white" stroke-width="5.89919" stroke-miterlimit="1.5" stroke-linecap="round" stroke-linejoin="round"/>
</svg>
