<svg width="143" height="44" viewBox="0 0 143 44" fill="none" xmlns="http://www.w3.org/2000/svg">
<path d="M0.346501 31.1619C0.154664 31.1619 0 31.3145 0 31.5064C0 31.6989 0.154664 31.8515 0.346501 31.8515H63.2616C63.4356 31.969 77.3029 41.5489 77.3029 41.5489C77.4191 41.6312 77.575 41.6312 77.6905 41.5522C77.6905 41.5522 91.5658 32.1343 91.7398 32.0188H142.657C142.849 32.0188 143 31.8655 143 31.677C143 31.4871 142.849 31.3291 142.657 31.3291H91.6329C91.5658 31.3291 91.4975 31.3504 91.4391 31.3909C91.4391 31.3909 77.8811 40.5931 77.4987 40.8453C77.1257 40.5858 63.5637 31.2223 63.5637 31.2223C63.5066 31.1798 63.4375 31.1619 63.3678 31.1619H0.346501Z" fill="#2199E1"/>
<path d="M77.9987 37.5058V25.7207L89.6834 17.5003V29.3205C89.4757 29.4626 80.0803 36.05 77.9987 37.5058ZM65.5439 20.3367L65.5724 17.2726L77.3641 25.7247V37.6213C75.6986 36.4443 65.7589 29.3882 65.5472 29.2349V20.3546C65.5472 20.348 65.5439 20.344 65.5439 20.3367ZM58.9391 16.6686C58.955 16.7396 59.1329 17.6742 58.6563 17.813C58.1784 17.9517 58.0131 17.2195 58.0131 17.2195C57.7874 16.2915 58.1479 15.41 58.809 15.2394C59.0619 15.177 59.3281 15.2288 59.5803 15.3815C59.7496 15.4844 59.9182 15.7386 60.0496 15.9079C59.808 16.1103 58.9338 16.6453 58.9391 16.6686ZM63.3753 21.5388C64.1771 19.967 64.428 17.8986 63.9196 15.7864C63.0945 12.4024 60.3198 10.1561 57.7323 10.7887C56.6888 11.0376 55.8073 11.7147 55.1814 12.7349C54.2945 14.1886 54.0529 16.1349 54.5222 18.0692C55.2079 20.9096 57.5451 22.7934 59.7317 22.2677C59.8558 22.2391 60.0709 22.1037 60.341 21.9829C60.341 21.9756 60.3357 21.9723 60.3357 21.965C61.6354 21.2222 62.6345 19.576 62.6345 17.7366C62.6345 17.2228 62.5701 16.6865 62.4426 16.1442C62.1227 14.8378 61.3726 13.7359 60.3789 13.1312C59.6766 12.7011 58.9232 12.573 58.205 12.7455C57.4847 12.9214 56.8774 13.3834 56.4466 14.0838C55.8445 15.0755 55.6772 16.3984 55.9958 17.7067C56.2355 18.7051 56.8097 19.5441 57.567 20.0061C58.1107 20.3407 58.6975 20.4476 59.2551 20.3088C59.2909 20.3015 59.3215 20.2836 59.3533 20.2697C59.3533 20.2763 59.348 20.2836 59.348 20.2909C59.419 20.202 59.8611 20.2551 60.574 19.3842C60.9491 18.9255 61.0805 18.1541 61.0805 17.5036C61.0805 17.177 61.0433 16.8425 60.9617 16.5046C60.7964 15.8116 60.3981 15.2288 59.8704 14.9102C59.4881 14.6759 59.0759 14.6028 58.6796 14.7024C57.8936 14.8909 57.3905 15.7154 57.3905 16.6752C57.3905 16.8963 57.3141 17.728 58.0822 18.2325C58.8535 18.7389 59.3566 17.9092 59.3566 17.9092C59.502 17.6782 59.577 17.3901 59.577 17.106C59.577 17.0503 59.5624 16.9991 59.5578 16.9401C59.668 16.8498 60.0589 16.6115 60.3125 16.405C60.3125 16.3201 60.5262 17.2587 60.5262 17.493C60.5262 17.6742 60.4871 18.0725 60.4565 18.2471C60.4565 18.5239 60.3165 18.798 60.1386 19.0536C59.8777 19.3915 59.4794 19.6882 59.1256 19.7718C58.7114 19.8714 58.274 19.7897 57.8565 19.5335C57.2292 19.1498 56.7386 18.421 56.5355 17.5746C56.2567 16.423 56.4028 15.2288 56.9198 14.3758C57.2736 13.803 57.7622 13.4213 58.3364 13.2806C58.9106 13.1451 59.5166 13.252 60.0908 13.6038C60.9458 14.1229 61.6228 15.1239 61.9003 16.2776C62.0211 16.7788 62.0795 17.2726 62.0795 17.7525C62.0795 19.3277 61.3991 20.6998 60.0769 21.501L60.0729 21.4963C59.9162 21.5707 59.7742 21.6842 59.6022 21.7287C57.7144 22.1821 55.6772 20.4847 55.0625 17.9377C54.6337 16.1727 54.8561 14.336 55.656 13.0263C56.2016 12.1289 56.9643 11.5421 57.8618 11.329C60.1532 10.7708 62.6252 12.8305 63.3753 15.9218C63.5478 16.6274 63.6315 17.3317 63.6315 18.0088C63.6315 20.7031 62.2003 23.0602 60.0656 23.6895C59.1575 23.9418 58.2494 23.8761 57.3745 23.4851C55.2119 22.5126 53.5425 19.6882 53.3148 16.6115C53.1017 13.7319 54.2023 11.2527 56.337 9.76444C58.2833 9.02896 60.1758 9.28319 61.7456 10.2908C63.7556 11.5866 64.9504 13.9563 65.0215 16.7967C65.0215 16.7967 65.0069 19.0768 64.9949 20.2199L63.3753 21.5388ZM69.6163 0.856313C71.1994 0.303372 72.7832 0.499192 74.138 1.45174C76.1945 2.90014 77.295 5.71596 77.3428 7.81288L65.5492 16.2119C65.3308 13.4352 64.0742 11.1299 62.0443 9.82153C60.732 8.97917 59.2073 8.6413 57.739 8.8192C60.9438 6.67182 69.6163 0.856313 69.6163 0.856313ZM77.9064 21.0018V8.49195C79.9469 9.96889 88.4786 16.1349 89.5666 16.9208C87.8547 18.1256 83.7166 21.0197 80.8676 23.0264C80.7574 22.9554 78.1248 21.1512 77.9064 21.0018ZM77.3515 8.48863V21.1479C77.3515 21.1585 77.3554 21.1618 77.3554 21.1724L74.6465 23.0941C71.2492 20.6606 66.1712 17.0184 65.7729 16.7356C66.353 16.3234 76.5569 9.0575 77.3515 8.48863ZM77.682 25.268C77.5931 25.2056 76.5854 24.4821 75.1974 23.4851L77.8261 21.6172C78.5337 22.1004 80.0763 23.1598 80.3823 23.3656C79.4172 24.0466 77.7517 25.2196 77.682 25.268ZM90.1242 16.64C90.1242 16.64 78.075 7.93038 77.8845 7.79363C77.83 5.55598 76.6671 2.55364 74.458 0.998365C72.9492 -0.061051 71.1888 -0.283422 69.3693 0.360459C69.3083 0.392321 60.4499 6.33395 60.4499 6.33395L56.262 9.13914C56.2156 9.173 56.1698 9.20287 56.1253 9.2354C56.1054 9.24602 56.0881 9.24934 56.0682 9.25796C56.0702 9.25465 56.0702 9.26328 56.0682 9.2739C53.7383 10.8703 52.5315 13.5421 52.7625 16.6506C53.0041 19.9245 54.8063 22.9428 57.1475 23.9949C58.3132 24.514 60.1479 24.8054 62.2614 23.1811L63.6846 22.0042C63.6846 22.0042 64.5004 21.3397 64.9949 20.9434V29.3809C64.9949 29.4699 65.0374 29.5548 65.1104 29.6066L77.4371 38.3534C77.5347 38.4244 77.6608 38.4244 77.7584 38.3587L90.1209 29.6902C90.1939 29.6365 90.2377 29.5548 90.2377 29.4626V16.8637C90.2377 16.7748 90.1972 16.6898 90.1242 16.64Z" fill="#2199E1"/>
<path d="M10.6824 17.3616H4.99105C2.55558 17.3616 1.5267 18.0546 1.5267 20.5824V24.7417C1.5267 27.2303 2.46332 27.8861 4.99105 27.8861H10.6824C13.4159 27.8861 14.0346 27.2655 14.0346 24.7417V20.5824C14.0346 18.0195 13.2666 17.3616 10.6824 17.3616ZM10.7017 29.1958H5.00897C1.48953 29.1958 0.179199 28.0726 0.179199 24.7417V20.6959C0.179199 17.3616 1.33818 16.05 5.00897 16.05H10.7017C13.8461 16.05 15.3821 16.9123 15.3821 20.6959V24.7417C15.3821 28.4457 14.1448 29.1958 10.7017 29.1958Z" fill="#2199E1"/>
<path d="M20.2469 16.2026L26.8357 27.2867L33.3894 16.2026H36.2722V29.1958H34.9254V17.2514H34.1766L27.1736 29.1958H26.4786L19.4776 17.2514H18.7096V29.1958H17.3621V16.2026H20.2469Z" fill="#2199E1"/>
<path d="M49.1484 24.6243L45.2911 17.1373L41.4344 24.6243H49.1484ZM37.538 29.1958L44.2781 16.2027H46.3386L53.0801 29.1958H51.5069L49.8414 25.9399H40.7036L39.0361 29.1958H37.538Z" fill="#2199E1"/>
<path d="M110.392 16.2026V29.1958H109.046V17.511H97.5128V29.1958H96.1639V16.2026H110.392Z" fill="#2199E1"/>
<path d="M123.123 24.6243L119.264 17.1373L115.407 24.6243H123.123ZM111.512 29.1958L118.252 16.2027H120.312L127.053 29.1958H125.479L123.814 25.9399H114.678L113.008 29.1958H111.512Z" fill="#2199E1"/>
<path d="M129.482 29.196H128.132V16.2029H129.482V21.7628H131.656L139.873 16.2029H142.234L133.059 22.3987L142.458 29.196H140.099L131.708 23.0745H129.482V29.196Z" fill="#2199E1"/>
<path d="M3.17535 37.8489C3.17535 38.5067 3.0937 39.134 2.92178 39.681C2.82088 40.0148 2.68945 40.3189 2.53744 40.5917H4.79435V37.049H3.17535V37.8489ZM5.66525 36.3706V40.6023L6.17172 40.6123L6.12061 42.8194H5.4223L5.3818 41.2701H1.99048L1.94003 42.8194H1.25167L1.21118 40.6222L1.62605 40.6023C1.83913 40.2883 2.00043 39.9544 2.11262 39.6C2.30512 38.9926 2.39539 38.3348 2.39539 37.6464V36.3706H5.66525Z" fill="#2199E1"/>
<path d="M8.11373 39.2761C8.11373 39.4075 8.12369 39.529 8.15422 39.6405C8.31619 40.2579 8.85253 40.6833 9.49044 40.6833C10.4317 40.6833 10.978 39.914 10.978 38.7902C10.978 37.8184 10.4622 36.978 9.52031 36.978C8.91294 36.978 8.3361 37.4035 8.17414 38.0713C8.14426 38.1828 8.11373 38.3143 8.11373 38.4258V39.2761ZM7.23287 37.9704C7.23287 37.3425 7.2123 36.8367 7.19238 36.3707H7.98163L8.03275 37.211H8.05266C8.40713 36.6136 8.99459 36.2698 9.79379 36.2698C10.9886 36.2698 11.8788 37.2721 11.8788 38.7497C11.8788 40.5114 10.7961 41.3817 9.64245 41.3817C8.99459 41.3817 8.42704 41.0982 8.13364 40.6123H8.11373V43.2748H7.23287V37.9704Z" fill="#2199E1"/>
<path d="M13.2143 36.3708L14.277 39.2663C14.3985 39.5903 14.52 39.9746 14.6009 40.268H14.6209C14.7118 39.9746 14.8134 39.6002 14.9355 39.2457L15.9066 36.3708H16.8479L15.5117 39.8631C14.8738 41.5438 14.4383 42.3941 13.8316 42.9305C13.3862 43.3049 12.9607 43.4569 12.7383 43.4974L12.5153 42.7585C12.7383 42.6875 13.0317 42.5461 13.2953 42.3231C13.5375 42.1306 13.8316 41.7868 14.044 41.3307C14.0845 41.2398 14.1151 41.1694 14.1151 41.1183C14.1151 41.0679 14.0951 40.9968 14.044 40.886L12.2418 36.3708H13.2143Z" fill="#2199E1"/>
<path d="M18.537 36.3708V38.497H18.7494L20.5821 36.3708H21.6648L19.5393 38.578C20.3286 38.6689 20.8045 39.1953 21.1895 40.0762C21.3209 40.4001 21.4829 40.8754 21.7053 41.2703H20.774C20.6425 41.0579 20.4806 40.6729 20.3186 40.268C19.9841 39.4787 19.5287 39.1143 18.7089 39.1143H18.537V41.2703H17.6561V36.3708H18.537Z" fill="#2199E1"/>
<path d="M25.186 38.77C24.2143 38.7495 23.111 38.9214 23.111 39.8733C23.111 40.4607 23.496 40.7236 23.9414 40.7236C24.5893 40.7236 25.0042 40.3187 25.1456 39.9038C25.1761 39.8022 25.186 39.7014 25.186 39.6204V38.77ZM26.0463 40.0963C26.0463 40.5211 26.0669 40.936 26.1174 41.2706H25.3175L25.2471 40.6532H25.2166C24.9431 41.0376 24.4167 41.3814 23.7184 41.3814C22.726 41.3814 22.2202 40.6831 22.2202 39.9748C22.2202 38.79 23.273 38.1421 25.1661 38.1527V38.0512C25.1661 37.6562 25.0546 36.9174 24.0523 36.928C23.5863 36.928 23.111 37.0594 22.7672 37.2918L22.5641 36.695C22.969 36.4421 23.5664 36.2695 24.1837 36.2695C25.6819 36.2695 26.0463 37.2918 26.0463 38.2636V40.0963Z" fill="#2199E1"/>
<path d="M28.3639 39.2761C28.3639 39.4075 28.3738 39.529 28.4043 39.6405C28.5663 40.2579 29.1027 40.6833 29.7406 40.6833C30.6818 40.6833 31.2281 39.914 31.2281 38.7902C31.2281 37.8184 30.7124 36.978 29.7704 36.978C29.1631 36.978 28.5862 37.4035 28.4243 38.0713C28.3944 38.1828 28.3639 38.3143 28.3639 38.4258V39.2761ZM27.483 37.9704C27.483 37.3425 27.4624 36.8367 27.4425 36.3707H28.2318L28.2829 37.211H28.3028C28.6572 36.6136 29.2447 36.2698 30.0439 36.2698C31.2387 36.2698 32.1289 37.2721 32.1289 38.7497C32.1289 40.5114 31.0462 41.3817 29.8926 41.3817C29.2447 41.3817 28.6772 41.0982 28.3838 40.6123H28.3639V43.2748H27.483V37.9704Z" fill="#2199E1"/>
<path d="M34.1013 36.3708V38.345H36.4199V36.3708H37.31V41.2703H36.4199V39.0532H34.1013V41.2703H33.2104V36.3708H34.1013Z" fill="#2199E1"/>
<path d="M41.4999 36.9579C41.2769 36.9274 41.0744 36.9075 40.7605 36.9075C40.1637 36.9075 39.4342 37.0794 39.4342 37.7578C39.4342 38.3851 40.2141 38.6181 40.7405 38.6181H41.4999V36.9579ZM42.3808 41.2699H41.4999V39.2155H40.8414C40.4671 39.2155 40.2141 39.3164 40.0323 39.4989C39.6572 39.7923 39.5258 40.3897 39.3333 40.865C39.2722 41.017 39.2019 41.1491 39.1308 41.2699H38.179C38.2911 41.1086 38.392 40.9261 38.483 40.7137C38.6961 40.2377 38.8169 39.5998 39.2523 39.2354C39.4043 39.104 39.5869 39.0031 39.8092 38.952V38.932C39.1713 38.861 38.5135 38.4661 38.5135 37.7073C38.5135 37.2009 38.7863 36.8564 39.1614 36.6439C39.5663 36.401 40.1637 36.3101 40.8116 36.3101C41.3884 36.3101 41.9553 36.3505 42.3808 36.4116V41.2699Z" fill="#2199E1"/>
</svg>
