<svg width="143" height="62" viewBox="0 0 143 62" fill="none" xmlns="http://www.w3.org/2000/svg">
<path d="M87.8819 6.48335C88.5177 6.67914 88.9127 6.85243 89.3251 6.91614C89.9966 7.01977 90.6885 7.00066 91.3553 7.1234C95.1099 7.814 98.0332 9.81445 99.9683 13.0627C103.435 18.8827 104.25 25.065 101.828 31.4736C100.509 34.9632 98.5323 38.1201 96.0816 40.9467C95.3171 41.8288 94.4524 42.646 93.538 43.3723C90.6991 45.6263 87.5035 46.9569 83.8118 46.8503C82.2437 46.8049 80.7453 46.4252 79.3148 45.7906C78.3944 45.3825 77.4397 45.1489 76.4441 45.3141C75.3832 45.4904 74.3456 45.4254 73.2842 45.3094C70.2487 44.979 67.8435 43.5851 66.0061 41.1739C65.8634 40.9862 65.7831 40.7505 65.6736 40.5372C67.0968 40.9925 68.4958 40.849 69.8817 40.9118C71.2493 40.9734 72.6106 41.1726 74.2564 41.34C73.9043 40.6999 73.717 40.3075 73.4838 39.9452C72.5095 38.4306 71.7836 36.8179 71.564 35.0154C71.412 33.7667 71.0438 32.5915 70.622 31.4078C70.3396 30.6157 70.241 29.6987 70.3039 28.8561C70.4164 27.3555 71.3576 26.3642 72.625 25.5929C73.1585 26.3192 72.0915 27.037 72.8786 27.7114C73.0803 27.4375 73.2421 27.198 73.4231 26.9746C74.0627 26.1846 74.6484 25.3381 75.3708 24.6326C76.027 23.9921 76.5397 24.182 76.7389 25.0616C77.5633 28.6968 76.6306 31.3815 73.2748 33.0294C73.1729 33.0795 73.0727 33.133 72.972 33.1853C72.1026 33.6334 72.0478 33.7272 72.1663 34.685C72.2033 34.9844 72.2555 35.2838 72.3294 35.576C73.2264 39.1225 75.4554 41.7371 78.2275 43.9652C78.3193 44.0387 78.4883 44.0153 78.7499 44.0582C78.6361 43.7057 78.5992 43.4479 78.4785 43.2381C76.4479 39.6993 78.2377 35.6674 79.977 33.644C80.1711 33.418 80.5703 33.1768 80.8047 33.2328C81.0273 33.2859 81.255 33.7009 81.3148 33.991C81.774 36.2127 81.5561 38.3512 80.4488 40.3695C80.1405 40.931 79.813 41.4988 79.6181 42.1036C78.978 44.0922 79.9315 45.6191 81.9851 45.8442C84.1669 46.0837 86.2709 45.8017 88.2799 44.8138C95.3282 41.3493 99.5147 35.6839 101.215 28.0992C102.411 22.7613 101.346 17.9717 97.7032 13.8043C94.8164 10.5021 91.2546 8.75986 86.821 8.88643C86.0917 8.90724 85.582 9.16887 85.2507 9.79194C84.8596 10.5271 84.4828 11.2696 84.1061 12.0124C82.3907 15.3936 81.6525 18.9396 81.8971 22.7604C82.0857 25.7131 83.2762 28.1485 85.0172 30.4004C85.7035 31.288 86.6642 31.8359 87.7146 32.2203C88.7959 32.6161 89.9125 32.7538 91.0601 32.73C91.3969 32.7228 91.8153 32.5949 92.0969 33.1415C91.0295 33.6393 89.9826 33.5157 88.9645 33.3382C86.2132 32.8578 84.3588 31.1572 83.0787 28.7792C81.3977 25.6558 81.1904 22.2733 81.5128 18.8343C81.7863 15.9232 82.8681 13.2628 84.2306 10.7042C84.4327 10.3245 84.5852 9.91851 84.7606 9.52436C84.7024 9.45598 84.6442 9.38761 84.5861 9.31965C84.132 9.43093 83.661 9.49718 83.2265 9.66113C78.2993 11.5189 74.1183 14.4414 70.8356 18.5684C64.6317 26.3676 62.111 35.2371 63.3694 45.1285C63.8515 48.9183 65.2136 52.3968 67.7776 55.2951C71.9735 60.038 77.2116 61.5156 83.2792 59.9165C86.4141 59.0904 88.8728 57.1201 90.9675 54.6958C92.8546 52.5119 94.4893 50.1436 95.9555 47.6615C98.6733 43.0592 100.989 38.2501 103.192 33.3874C105.035 29.3199 106.819 25.2251 108.624 21.1397C110.208 17.5521 112.197 14.2142 114.71 11.1935C114.976 10.8746 115.43 10.5981 115.186 9.94527C114.709 9.99284 114.223 9.99496 113.759 10.096C111.991 10.4813 110.298 10.1576 108.631 9.59784C107.178 9.10984 105.931 8.24765 104.698 7.36083C103.439 6.45532 102.219 5.46953 100.872 4.71565C96.7646 2.41619 92.7654 2.66891 88.9667 5.49162C88.6468 5.72946 88.3737 6.03017 87.8819 6.48335ZM107.04 31.7348C107.488 31.7348 107.783 31.7731 108.066 31.7289C110.417 31.3628 112.763 30.964 115.117 30.614C116.022 30.4798 116.536 30.0347 116.958 29.1976C118.541 26.0554 120.143 22.9176 121.887 19.863C124.267 15.6943 127.171 11.919 130.907 8.84778C132.679 7.39056 134.603 6.1733 136.911 5.79529C137.789 5.65131 138.729 5.64622 139.608 5.78595C142.018 6.1699 142.836 9.46363 141.647 11.1519C141.286 11.6658 140.791 12.1148 140.28 12.4872C139.632 12.9587 139.034 12.782 138.722 12.0485C138.551 11.645 138.48 11.171 138.479 10.7289C138.477 10.0897 138.564 9.44834 138.642 8.81126C138.806 7.4738 138.003 6.58486 136.652 6.77301C135.879 6.88004 135.106 7.14209 134.39 7.46191C132.87 8.14104 131.616 9.20285 130.727 10.601C128.797 13.6344 126.852 16.6635 125.075 19.7861C123.466 22.6118 122.061 25.5547 120.594 28.4598C120.422 28.8 120.423 29.2277 120.344 29.6151C120.742 29.6529 121.143 29.7374 121.539 29.7183C122.291 29.6813 123.04 29.5734 123.792 29.5178C124.18 29.4893 124.581 29.5148 124.704 29.9914C124.82 30.4403 124.665 30.8349 124.298 31.0918C124.061 31.2583 123.762 31.3798 123.475 31.4244C122.395 31.593 121.311 31.7688 120.222 31.8491C119.5 31.9022 119.02 32.1298 118.75 32.8413C116.189 39.5994 113.517 46.3245 111.9 53.3906C111.431 55.4442 111.308 57.5776 111.03 59.6753C110.995 59.9373 111.011 60.2079 110.96 60.4653C110.916 60.6844 110.843 60.9138 110.721 61.0972C110.336 61.6774 108.895 61.8036 107.72 61.3835C107.122 61.1694 106.806 60.6568 106.923 59.8052C107.133 58.2703 107.336 56.726 107.688 55.2199C109.403 47.8697 111.759 40.7279 114.778 33.8075C114.938 33.441 115.052 33.054 115.228 32.5614C114.839 32.5146 114.591 32.4441 114.35 32.4624C112.089 32.6365 109.83 32.8272 107.57 33.0099C106.586 33.0893 106.428 33.2082 106.12 34.2781C105.061 37.9613 103.669 41.5145 102.015 44.9697C99.5138 50.1959 95.9066 54.4864 91.3014 58.0027C85.9957 62.0537 80.2454 62.5664 74.1353 60.3599C69.3096 58.6173 66.0299 55.18 63.925 50.5747C62.5913 47.6573 61.8638 44.5793 61.5924 41.382C61.0305 34.7686 62.2082 28.4496 65.1915 22.5634C69.2744 14.5068 75.8614 9.44452 84.6226 7.26951C85.9566 6.93865 87.1034 6.39246 88.1325 5.52602C88.6829 5.06265 89.2181 4.57761 89.7949 4.14949C92.7255 1.97491 96.1886 -0.137667 99.7546 0.735139C100.761 0.981479 101.734 1.492 102.631 2.03394C104.25 3.01166 105.839 4.05053 107.37 5.16033C110.456 7.39608 113.775 7.66408 117.293 6.49226C119.518 5.75112 121.256 5.83522 122.975 4.24803C123.225 4.01698 123.458 3.76172 123.729 3.55913C124.223 3.19174 124.789 3.24823 125.152 3.6738C125.534 4.12274 125.377 4.53641 125.002 4.8677C124.095 5.66703 123.228 6.53559 122.228 7.19773C120.843 8.11386 119.372 8.90979 117.896 9.67684C116.503 10.401 115.467 11.4242 114.683 12.7803C111.444 18.3845 109.056 24.34 107.267 30.5465C107.175 30.8671 107.139 31.2039 107.04 31.7348Z" fill="#35C210"/>
<path d="M67.9289 0.717086C67.6887 0.925201 67.4574 1.14393 67.2074 1.33973C65.6828 2.5349 64.1711 3.74791 62.6225 4.9125C59.2759 7.42898 56.7584 10.6424 54.9935 14.4114C53.6336 17.3153 52.5173 20.3397 51.3064 23.3166C51.1871 23.6101 51.1644 23.9448 51.0655 24.4048C53.7386 24.6158 56.2125 24.6116 58.1989 22.8129C59.2439 21.867 60.1959 20.8103 61.1161 19.74C61.8172 18.925 62.6552 18.6081 63.712 18.7385C64.3654 18.8192 64.5064 19.0609 64.2251 19.6406C64.1278 19.8411 63.9951 20.0242 63.8735 20.2115C61.3914 24.0378 59.4945 27.6067 58.4529 32.4554C57.9716 34.6966 57.3668 34.2639 57.1002 33.9636C56.9452 33.789 57.0371 33.044 57.0619 32.6202C57.1149 31.7168 57.2168 30.8176 57.2779 29.9143C57.4247 27.732 55.5016 26.2888 53.3324 25.9036C52.8086 25.8106 52.2787 25.7532 51.7502 25.6989C50.6971 25.5902 50.4396 25.7524 50.0603 26.739C49.1738 29.0432 48.3279 31.3651 47.3958 33.6493C45.4134 38.5081 43.0989 43.1928 40.1652 47.5348C38.2755 50.3311 36.0736 52.8493 33.3862 54.9092C29.6922 57.7413 25.5051 59.3591 20.7893 59.7859C18.2457 60.0165 15.7258 59.9278 13.2072 59.4822C12.4795 59.3531 11.7449 59.0273 11.0971 58.6447C10.0988 58.0547 9.62744 57.108 9.63114 55.9515C9.63315 55.1751 9.75374 54.9589 10.5189 54.75C11.763 54.4102 12.976 54.4616 14.1165 55.249C15.4834 56.1927 16.9317 56.9891 18.5066 57.4983C21.4912 58.4625 24.4665 58.7835 27.3651 57.4597C29.2726 56.5886 30.8692 55.286 32.1132 53.6376C33.3657 51.9786 34.5569 50.2496 35.5666 48.4309C38.4037 43.3224 41.4174 38.2108 43.2934 32.6741C43.8944 30.9009 44.4782 29.1213 45.0637 27.343C45.179 26.9926 45.268 26.6328 45.3846 26.2221C45.1718 26.1194 44.9995 25.9597 44.8522 25.9758C43.5074 26.1232 42.1534 26.2383 40.8289 26.4842C38.6762 26.8839 37.4163 28.1963 37.08 30.3899C37.0267 30.7382 37.19 31.2916 36.5042 31.3456C36.1501 30.9935 36.3517 30.5705 36.3801 30.1895C36.5422 28.0438 37.6579 26.5972 39.6932 26.0034C40.9416 25.6394 42.2538 25.4071 43.5583 25.2962C45.9638 25.0915 45.9505 25.1361 47.0313 23.0431C47.9219 21.3183 48.8362 19.6054 49.7939 17.9188C52.3558 13.4048 54.7128 9.26889 58.9328 6.26609C60.2383 5.3368 61.5785 4.4555 62.9 3.54871C63.1919 3.34867 63.4735 3.13418 63.7596 2.9265C63.7338 2.85387 63.7076 2.78081 63.6813 2.70818C63.4617 2.70818 63.2009 2.63131 63.0289 2.71966C61.0461 3.73814 58.8986 4.25503 56.705 4.62709C52.7204 5.3024 48.7118 5.64217 44.6414 5.01316C41.7903 4.57272 38.9416 4.11402 36.0896 3.68292C32.2412 3.10105 28.3788 2.86151 24.5316 3.20086C16.6474 3.89571 10.9968 8.03761 6.96777 14.5342C5.26291 17.283 4.10869 20.2786 3.76008 23.5629C3.50951 25.9202 3.89326 28.2455 4.41835 30.5556C4.6456 31.5571 4.90505 32.5565 5.22455 33.535C6.79392 38.3378 9.7809 39.6018 13.4336 39.8439C16.5371 40.049 19.3404 39.2803 21.6077 37.0908C21.9693 36.7413 22.4509 36.4495 22.9341 36.3046C23.9222 36.0086 24.4702 36.4295 24.5481 37.4726C24.6566 38.9248 24.0577 40.0248 22.873 40.8046C21.9426 41.4175 20.8648 41.7008 19.7778 41.7241C14.3253 41.8413 9.28616 40.5413 5.18497 36.5484C1.77178 33.2254 0.492922 29.1323 1.00468 24.5572C1.71546 18.2034 4.89865 13.2333 9.60255 9.19413C14.1273 5.30919 19.4673 2.9643 25.2503 1.48201C30.6161 0.106757 36.1109 -0.266577 41.6608 0.177258C44.7884 0.42742 47.8982 1.08532 51.0138 1.5763C54.2879 2.09234 57.5731 2.6105 60.8534 2.12249C62.7822 1.83538 64.6703 1.32189 66.5737 0.89674C66.9991 0.801602 67.4102 0.650404 67.8278 0.524686C67.8614 0.588819 67.8954 0.652953 67.9289 0.717086Z" fill="#35C210"/>
</svg>
