<svg width="149" height="23" viewBox="0 0 149 23" fill="none" xmlns="http://www.w3.org/2000/svg">
<path d="M86.4941 22.4758C85.331 22.1851 84.3133 22.1124 83.441 21.6762C83.0048 21.4581 82.4233 20.8039 82.4233 20.2951C82.3506 15.1339 82.3506 9.90005 82.3506 4.73889C84.8221 4.30274 87.0029 4.81158 88.2387 6.99235C89.8379 9.82736 91.7279 12.5897 93.5452 15.4247V4.59351C94.781 4.59351 96.0168 4.73889 97.0345 5.46581C97.3252 5.68389 97.616 6.19274 97.616 6.62889V21.967C97.616 22.0397 97.5433 22.1851 97.4706 22.4031C96.3075 22.1851 95.1444 22.1124 94.0541 21.6762C93.3271 21.3854 92.6002 20.8039 92.1641 20.1497C90.4194 17.5328 88.8202 14.9158 87.1483 12.2262C87.0029 12.0081 86.7848 11.7174 86.4941 11.2812V22.4758Z" fill="#E10613"/>
<path d="M19.6172 13.3165V10.1908C19.6172 7.64653 21.071 5.61114 23.5426 4.88422C25.9414 4.1573 28.3403 4.1573 30.7391 4.73883C33.138 5.32037 34.8099 6.84691 34.9553 9.39115C35.1007 11.9354 35.1734 14.5523 35.028 17.0965C34.8826 19.9315 32.9926 21.4581 30.3757 22.0396C28.0495 22.5485 25.7233 22.4758 23.3972 21.7489C21.071 20.9492 19.7626 19.1319 19.6899 16.6604C19.6172 15.4973 19.6172 14.4069 19.6172 13.3165ZM30.6664 13.3892V9.75461C30.6664 8.66422 30.0849 7.9373 29.0672 7.64653C28.1222 7.42845 27.1045 7.35576 26.2322 7.50115C24.4149 7.79192 24.0514 8.15538 23.906 9.97269C23.7607 12.2988 23.906 14.6977 23.906 17.0238C23.906 18.1142 24.4876 18.9139 25.5053 18.9865C26.5957 19.1319 27.7587 19.2046 28.9218 18.9865C30.0849 18.7685 30.5937 18.0415 30.5937 16.8058C30.7391 15.7154 30.6664 14.5523 30.6664 13.3892Z" fill="#E10613"/>
<path d="M65.704 14.5522C68.3936 16.5149 69.5567 19.2772 71.0832 21.8215C68.1028 22.8392 66.3582 21.8215 65.2678 19.8588C64.5409 18.4776 63.5232 17.3145 62.5782 16.0061C62.3601 15.6426 61.924 15.4972 61.3424 14.9884V20.513C61.3424 22.9846 61.4878 22.403 59.3797 22.1122C57.417 21.8215 57.0536 21.2399 57.0536 19.2772V4.448C60.3247 4.66608 63.4505 4.66608 66.5763 5.10223C68.7571 5.393 69.7021 6.84685 69.7748 9.02762C69.7748 9.89993 69.7748 10.8449 69.484 11.7172C69.0478 13.3165 67.7394 14.2615 65.704 14.5522ZM61.4151 11.7172C62.4328 11.7172 63.3051 11.7899 64.1047 11.7172C65.0497 11.6445 65.4859 10.9176 65.5586 9.97262C65.6313 8.66416 65.2678 7.86454 64.3228 7.79185C63.3778 7.64646 62.3601 7.79185 61.3424 7.79185C61.4151 9.173 61.4151 10.4088 61.4151 11.7172Z" fill="#E10613"/>
<path d="M111.791 15.9335C110.483 15.6427 108.883 16.4423 107.866 15.0612C107.357 14.4069 107.357 13.4619 107.066 12.6623H116.153C116.153 14.7704 116.443 16.7331 115.716 18.6231C115.062 20.295 113.754 21.3127 112.082 21.7489C109.901 22.4031 107.72 22.4031 105.54 21.8943C102.777 21.24 101.033 19.5681 100.815 16.8058C100.669 14.3342 100.742 11.79 100.96 9.31847C101.178 6.62886 102.995 5.17501 105.394 4.66616C107.866 4.08462 110.337 4.08462 112.809 4.95693C113.027 5.02962 113.245 5.10232 113.463 5.2477C115.716 6.41078 116.08 8.0827 114.481 10.1908C112.809 7.42847 110.119 7.35578 107.357 7.57386C105.976 7.71924 105.176 8.73693 105.103 10.1181C105.031 12.0081 105.103 13.9708 105.031 15.8608C104.958 18.8412 107.284 19.4227 109.32 19.1319C111.355 18.9139 111.936 18.0416 111.791 15.9335Z" fill="#E10613"/>
<path d="M42.3696 22.403C41.3519 22.1849 40.4796 22.1122 39.6073 21.8942C38.6623 21.6034 38.1534 21.0219 38.1534 19.9315C38.2261 15.1338 38.1534 10.3361 38.1534 5.53838V4.30261C39.3892 4.59338 40.5523 4.81146 41.57 5.24761C41.9334 5.393 42.2242 6.11992 42.2969 6.55608C42.3696 8.30069 42.2969 10.0453 42.2969 11.7899H49.0573V4.52069C50.5112 4.3753 51.7469 4.59338 52.7646 5.32031C53.0554 5.53838 53.3461 6.04723 53.3461 6.48338V21.9669C53.3461 22.1122 53.2735 22.2576 53.2008 22.403C52.5465 22.3303 51.8923 22.3303 51.2381 22.1849C49.4208 21.7488 49.0573 21.3126 49.0573 19.4226V15.2792C49.0573 15.2065 48.9846 15.1338 48.9846 15.0611H42.3696V22.403Z" fill="#E10613"/>
<path d="M148.501 21.7488C146.393 22.8392 144.066 22.1849 143.049 20.2949C142.176 18.8411 141.159 17.3872 140.141 16.0061C139.85 15.6426 139.414 15.4245 138.833 14.9884V22.4757C137.597 22.1849 136.506 21.9669 135.561 21.5307C135.125 21.3853 134.689 20.6584 134.689 20.2222C134.616 15.2065 134.616 10.118 134.689 5.10223C134.689 4.95684 134.762 4.81146 134.834 4.448C137.888 4.66608 140.941 4.66608 143.921 5.10223C146.393 5.46569 147.483 7.13762 147.483 9.60916C147.41 12.2261 146.247 14.1161 143.921 14.4795C143.776 14.4795 143.703 14.6249 143.485 14.6976C145.811 16.5149 146.829 19.2772 148.501 21.7488ZM138.833 12.008C139.85 11.9353 140.795 11.8626 141.74 11.7172C142.758 11.4992 143.049 10.7722 142.976 9.2457C142.903 8.30069 142.322 7.86454 141.522 7.79185C140.65 7.71916 139.778 7.79185 138.833 7.79185V12.008Z" fill="#E10613"/>
<path d="M119.351 4.81152H131.999C131.927 6.99229 131.2 7.71922 129.164 7.71922H123.64V11.3538H131.054C131.272 13.5346 130.327 14.5523 127.929 14.625H123.64C123.64 14.9885 123.567 15.2792 123.567 15.57V19.2773H132.072C131.781 21.6762 131.2 22.185 128.946 22.185H122.477C121.822 22.185 121.096 22.0396 120.514 21.7488C120.005 21.5308 119.424 20.8765 119.424 20.4404C119.278 15.2792 119.351 10.1181 119.351 4.81152Z" fill="#E10613"/>
<path d="M0.498901 4.95692C2.97044 3.93922 4.71506 4.59346 5.58737 7.065C6.67775 10.0454 7.76814 13.0985 8.85853 16.1515C8.93122 16.4423 9.0766 16.7331 9.36737 17.3146C9.87622 16.1515 10.2397 15.2065 10.6031 14.1889C11.4755 11.8627 12.2024 9.46385 13.0747 7.13769C14.0197 4.59346 15.6916 3.93922 18.2358 4.95692C16.8547 8.73692 15.5462 12.5896 14.1651 16.3696C13.2201 18.9139 11.6208 21.0219 9.36737 22.7666C7.11391 21.0219 5.51468 18.8412 4.56967 16.2242C3.4066 13.1712 2.31621 9.97269 1.22583 6.84692C1.00775 6.19269 0.716979 5.61115 0.498901 4.95692Z" fill="#E10613"/>
<path d="M77.9889 22.3304C77.3346 22.2577 76.6804 22.2577 76.0989 22.1123C74.2816 21.7488 73.9181 21.24 73.9181 19.4227V4.22998C75.1539 4.52075 76.2442 4.73883 77.2619 5.10229C77.6254 5.24767 78.0616 5.90191 78.0616 6.26537C78.1342 11.4992 78.0616 16.7331 78.0616 22.0396C78.1342 22.1123 78.0616 22.185 77.9889 22.3304Z" fill="#E10613"/>
<path d="M31.3206 0.159263C31.3206 0.958879 31.3932 1.7585 31.2479 2.48542C31.1752 2.84888 30.6663 3.21234 30.3029 3.28504C29.5759 3.43042 28.849 3.35773 28.1221 3.35773C27.6132 0.0865706 27.9767 -0.276891 31.3206 0.159263Z" fill="#E10613"/>
<path d="M23.397 3.35767C23.2516 0.0865098 23.0336 -0.20426 26.6682 0.08651C26.6682 0.886126 26.7409 1.68574 26.5955 2.41267C26.5228 2.77613 26.0139 3.21228 25.6505 3.28497C24.9962 3.43036 24.1966 3.35767 23.397 3.35767Z" fill="#E10613"/>
</svg>
