<svg width="163" height="47" viewBox="0 0 163 47" fill="none" xmlns="http://www.w3.org/2000/svg">
<path d="M121.476 21.8926C121.412 21.9944 121.359 22.0952 121.291 22.1844C120.282 23.5047 119.267 24.8193 118.268 26.1459C118.074 26.4031 117.89 26.4628 117.589 26.3413C113.757 24.7929 111.266 22.0941 110.462 17.9858C110.01 15.6713 110.305 13.3909 110.948 11.1418C112.309 6.38696 116.848 0.958184 124.158 0.164181C126.567 -0.097509 128.928 -0.000230033 131.172 0.987074C135.01 2.67529 137.287 5.6178 137.86 9.7606C138.713 15.9354 135.506 22.1322 130.027 25.1308C128.507 25.9631 126.903 26.5499 125.204 26.8916C124.86 26.9608 124.69 26.905 124.572 26.5411C124.116 25.1397 123.623 23.7502 123.147 22.3556C123.018 21.9787 123.068 21.9054 123.454 21.8711C126.605 21.5916 128.955 20.0426 130.574 17.358C131.626 15.6134 132.272 13.7421 132.172 11.6762C132.102 10.2131 131.749 8.82647 130.828 7.64377C129.703 6.19994 128.165 5.49498 126.387 5.31913C124.305 5.11326 122.339 5.54955 120.64 6.78557C118.224 8.54245 116.695 10.8833 116.314 13.8953C116.177 14.9848 116.188 16.0744 116.426 17.151C116.968 19.6015 118.581 20.9911 120.92 21.6547C121.065 21.6956 121.21 21.7375 121.351 21.7869C121.391 21.8006 121.42 21.8434 121.476 21.8926Z" fill="#2F76C8"/>
<path d="M95.499 16.1715C93.8832 16.1717 92.2672 16.1826 90.6515 16.1634C90.3005 16.1592 90.167 16.2851 90.0807 16.6086C89.2267 19.8152 88.3587 23.0178 87.4948 26.2217C87.3552 26.7395 87.3558 26.7507 86.814 26.7531C85.2331 26.7601 83.6521 26.7584 82.071 26.7578C81.6682 26.7577 81.6312 26.7058 81.7396 26.3028C83.4536 19.9236 85.168 13.5446 86.8831 7.16569C87.4487 5.06142 88.0228 2.95938 88.5752 0.851487C88.6556 0.544577 88.7887 0.444227 89.0994 0.4466C90.7035 0.458742 92.3078 0.450509 93.912 0.451067C94.3858 0.451207 94.4045 0.473397 94.2843 0.923225C93.4538 4.03029 92.6215 7.13679 91.7898 10.2436C91.7629 10.3445 91.7351 10.4454 91.7117 10.5471C91.6647 10.7515 91.7554 10.8595 91.9572 10.8774C92.0726 10.8877 92.1893 10.8898 92.3053 10.8898C95.4209 10.8903 98.5363 10.8906 101.652 10.8901C102.288 10.8899 102.289 10.8887 102.451 10.2836C103.294 7.1361 104.142 3.98981 104.973 0.839066C105.056 0.526015 105.202 0.442134 105.505 0.444507C107.109 0.45637 108.714 0.449112 110.318 0.450647C110.765 0.451066 110.779 0.470327 110.661 0.909966C108.869 7.58146 107.075 14.2528 105.282 20.9243C104.8 22.7185 104.309 24.5106 103.843 26.3088C103.754 26.6529 103.603 26.7708 103.246 26.7665C101.665 26.7479 100.084 26.7589 98.5028 26.7582C98.0433 26.758 98.0128 26.7199 98.1328 26.2772C98.9818 23.1437 99.8323 20.0107 100.682 16.8777C100.707 16.7881 100.732 16.6987 100.754 16.6087C100.845 16.2429 100.794 16.1726 100.416 16.172C98.7772 16.1699 97.1381 16.1712 95.499 16.1715Z" fill="#2F76C8"/>
<path d="M18.761 5.59675C18.1224 5.59675 17.4837 5.60303 16.8453 5.59368C16.5852 5.58977 16.4269 5.69026 16.3591 5.94162C15.6979 8.39188 15.0374 10.8421 14.3712 13.2909C14.2935 13.5768 14.4201 13.6832 14.6759 13.6991C14.9655 13.717 15.2558 13.7235 15.5457 13.7372C17.5126 13.8301 19.4741 13.8091 21.3715 13.2046C23.2275 12.6133 24.5047 11.4927 24.7048 9.41589C24.8759 7.64128 24.121 6.46152 22.4166 5.93004C21.2236 5.55809 19.9915 5.56395 18.761 5.59675ZM16.3829 18.7485C15.3835 18.7485 14.3836 18.7656 13.385 18.7393C13.0346 18.7301 12.8936 18.8514 12.8089 19.1767C12.1858 21.5679 11.543 23.9541 10.9211 26.3456C10.841 26.6534 10.7235 26.7815 10.3835 26.7777C8.74494 26.7595 7.10613 26.7701 5.4676 26.7692C5.05099 26.7689 5.04192 26.7589 5.14869 26.3597C7.27906 18.3971 9.4104 10.4346 11.5413 2.47196C11.6943 1.90071 11.8535 1.33099 11.9949 0.756812C12.058 0.500844 12.1865 0.399516 12.4576 0.400214C15.3048 0.406914 18.1522 0.381093 20.9993 0.410124C22.9419 0.429803 24.8426 0.713964 26.6204 1.57035C29.3464 2.88341 30.917 5.58307 30.7866 8.60207C30.573 13.5517 27.4676 16.7387 23.0448 18.0648C21.1528 18.632 19.2078 18.723 17.2545 18.7603C16.9641 18.7658 16.6735 18.7611 16.3829 18.7611V18.7485Z" fill="#1E3C92"/>
<path d="M149.523 13.8296C150.2 13.7807 151.118 13.7508 152.026 13.6397C153.164 13.5006 154.273 13.2063 155.209 12.5083C156.621 11.4552 157.274 10.0456 156.952 8.2841C156.688 6.84083 155.289 5.74369 153.611 5.66553C152.103 5.59547 150.592 5.60928 149.083 5.58025C148.788 5.57453 148.631 5.71424 148.562 5.98626C148.473 6.3342 148.381 6.68117 148.289 7.02827C147.749 9.07727 147.207 11.126 146.669 13.1754C146.552 13.6187 146.629 13.7072 147.09 13.7242C147.82 13.7511 148.551 13.7869 149.523 13.8296ZM149.384 0.414001C151.103 0.451127 152.824 0.442473 154.54 0.538356C156.201 0.631169 157.802 1.03285 159.28 1.83006C161.651 3.10962 162.862 5.1141 162.986 7.79366C163.126 10.8103 162.209 13.4197 159.98 15.5065C158.454 16.934 156.597 17.7236 154.588 18.1951C153.023 18.5625 151.433 18.7449 149.828 18.7512C148.457 18.7566 147.087 18.7118 145.716 18.6874C145.238 18.6789 145.186 18.7132 145.063 19.1703C144.431 21.5214 143.8 23.8729 143.169 26.2242C143.027 26.7548 143.023 26.7586 142.49 26.7584C141.084 26.7582 139.678 26.7573 138.272 26.7562C138.156 26.7562 138.039 26.7558 137.923 26.7497C137.395 26.722 137.386 26.7117 137.523 26.2012C139.772 17.7909 142.022 9.38069 144.272 0.970599C144.41 0.45322 144.412 0.452662 144.955 0.452522C146.431 0.451825 147.907 0.452243 149.383 0.452243L149.384 0.414001Z" fill="#2F76C8"/>
<path d="M74.4669 0.100098C76.8368 0.139177 79.381 0.627665 81.6308 2.14044C82.3118 2.59823 82.9204 3.16348 83.5631 3.67834C83.7789 3.85113 83.757 4.00717 83.5672 4.19558C82.4537 5.30013 81.3434 6.40802 80.2414 7.524C79.9919 7.77662 79.8026 7.68688 79.5871 7.49302C78.6364 6.63774 77.5803 5.94758 76.3627 5.53641C74.8813 5.0362 73.3714 4.87179 71.8467 5.31757C71.0778 5.54242 70.4525 6.00187 70.0098 6.68129C69.3825 7.64361 69.5499 8.7395 70.4647 9.43539C70.8118 9.69931 71.2122 9.90294 71.6091 10.09C73.385 10.9263 75.1867 11.7101 76.9427 12.5854C78.1772 13.2009 79.1916 14.1025 79.8724 15.3351C80.4633 16.4049 80.6404 17.564 80.6013 18.7623C80.5123 21.4881 79.1932 23.5445 77.038 25.103C75.4778 26.2314 73.6867 26.7787 71.7871 26.9921C68.7806 27.3298 65.8792 26.9188 63.1034 25.7152C61.5218 25.0292 60.1979 23.9785 59.0611 22.6896C58.7717 22.3613 58.7789 22.2671 59.1183 21.9793C60.3149 20.9652 61.52 19.9613 62.7086 18.938C62.9696 18.7135 63.1366 18.7195 63.3717 18.971C64.5591 20.2414 65.9573 21.2021 67.6385 21.6916C69.2352 22.1563 70.8541 22.3118 72.469 21.7715C73.1893 21.5305 73.8156 21.1301 74.1917 20.4389C74.7213 19.4654 74.5501 18.5136 73.7371 17.7594C73.0959 17.1645 72.325 16.7955 71.5349 16.4469C70.1875 15.8523 68.8204 15.291 67.5191 14.6067C66.2009 13.9134 65.0783 12.9552 64.3121 11.6374C63.6035 10.4186 63.4216 9.10642 63.6381 7.73615C64.172 4.35581 66.147 2.15803 69.2906 0.94267C70.8606 0.335689 72.4993 0.106239 74.4669 0.100098Z" fill="#2F76C8"/>
<path d="M48.0217 0.00338349C50.3344 0.00659355 52.5541 0.396965 54.5727 1.60688C56.107 2.52649 57.3167 3.77507 58.3119 5.24779C58.4752 5.48952 58.4214 5.63886 58.1983 5.79434C56.8065 6.76364 55.4161 7.73489 54.0334 8.71704C53.7876 8.89163 53.6758 8.79073 53.5336 8.59268C52.6136 7.31186 51.4859 6.2778 49.977 5.73377C47.9985 5.02044 46.0342 5.1988 44.1239 5.96768C40.0033 7.62589 37.3044 12.5613 38.0918 16.926C38.5422 19.4223 40.2544 21.1579 42.831 21.7156C45.1125 22.2094 47.1787 21.643 49.0958 20.4033C49.4944 20.1456 49.8649 19.8423 50.2358 19.5443C50.4574 19.3661 50.6358 19.3576 50.8387 19.5704C51.9291 20.7136 53.0239 21.8528 54.1212 22.9894C54.2763 23.1502 54.2774 23.2741 54.1077 23.4246C51.7851 25.4829 49.1291 26.8204 46.0089 27.124C43.1368 27.4034 40.3693 27.0016 37.7874 25.6694C34.488 23.9671 32.6023 21.2173 32.0894 17.5739C31.4066 12.725 33.0473 8.60203 36.3175 5.09092C39.0044 2.20605 42.3418 0.520762 46.2815 0.0773544C46.6161 0.039671 46.9533 0.0209678 47.2899 0.00561535C47.5333 -0.00555009 47.7777 0.00338349 48.0217 0.00338349Z" fill="#1E3C92"/>
<path d="M57.88 34.0572C54.6254 34.1117 51.3709 34.1693 48.1164 34.2201C39.7357 34.3509 31.3549 34.478 22.9742 34.6081C17.1507 34.6985 11.3273 34.7914 5.50386 34.8835C4.69018 34.8963 3.8765 34.9047 3.0631 34.9284C2.78801 34.9364 2.70916 34.8451 2.78145 34.5775C2.97531 33.8613 3.16066 33.1426 3.3361 32.4218C3.38257 32.2306 3.46757 32.1376 3.66743 32.1539C3.77141 32.1623 3.87664 32.1551 3.98118 32.1551C17.432 32.1673 30.8828 32.177 44.3336 32.1923C62.3997 32.2131 80.4659 32.2373 98.532 32.2624C103.368 32.2691 108.204 32.2844 113.04 32.2959C113.134 32.296 113.227 32.2941 113.319 32.2989C113.51 32.3091 113.588 32.3992 113.465 32.5665C113.206 32.9199 112.964 33.2021 112.418 33.2089C104.688 33.3066 96.9586 33.4374 89.2289 33.5598C83.8472 33.6451 78.4654 33.7294 73.0837 33.8152C68.0158 33.896 62.948 33.9784 57.88 34.06V34.0572Z" fill="#ED1B24"/>
<path d="M112.638 36.0525C115.716 32.1664 118.794 28.2802 121.924 24.3285C122.02 24.5119 122.085 24.6124 122.127 24.7219C123.539 28.3828 124.949 32.0445 126.357 35.7065C126.509 36.1006 126.485 36.1336 126.047 36.1354C121.712 36.1533 117.378 36.1697 113.043 36.1855C112.932 36.1859 112.821 36.1746 112.711 36.1686C112.686 36.1299 112.662 36.0911 112.638 36.0525Z" fill="#1E3C92"/>
<path d="M59.2761 44.0244C60.4659 44.0244 61.5601 42.8689 61.5029 41.6729C61.4542 40.656 60.7293 40.034 59.7199 40.1428C58.5672 40.2671 57.5981 41.4971 57.7463 42.6474C57.8515 43.4636 58.4746 44.0244 59.2761 44.0244ZM57.8846 39.9657C58.0843 39.8516 58.2118 39.7807 58.3374 39.7067C59.1092 39.2518 59.9247 38.9664 60.8301 39.1735C62.2539 39.4993 63.0461 40.6959 62.8227 42.143C62.5036 44.2098 60.3067 45.6509 58.3001 45.0922C57.2353 44.7956 56.6187 44.0426 56.474 42.9816C56.2358 41.235 56.6226 39.6306 57.8164 38.2803C58.3244 37.7057 58.9787 37.3559 59.7275 37.2026C60.7282 36.9975 61.7349 36.8218 62.7352 36.6146C63.0729 36.5445 63.2202 36.664 63.2457 36.9864C63.2475 37.0095 63.2524 37.0324 63.2569 37.0552C63.3773 37.6806 63.3516 37.6701 62.7466 37.7904C61.5751 38.0236 60.4055 38.275 59.2489 38.5724C58.5527 38.7513 58.0588 39.2885 57.8846 39.9657Z" fill="#1E3C92"/>
<path d="M40.9236 41.6202C40.9258 40.6297 40.2105 39.8888 39.3194 39.9583C37.9777 40.063 36.9061 41.4989 37.1836 42.8202C37.3566 43.6449 38.0672 44.1429 38.9042 44.026C40.0063 43.8721 40.9209 42.7825 40.9236 41.6202ZM42.3173 41.4471C42.3422 43.1055 41.1722 44.7249 39.6317 45.1039C38.62 45.3528 37.7191 45.143 37.0327 44.2915C36.9738 44.2184 36.8387 44.1169 36.7963 44.139C36.7103 44.1836 36.6327 44.2953 36.6056 44.3942C36.4066 45.1217 36.2109 45.8503 36.0359 46.5838C35.9636 46.8872 35.8132 46.999 35.5 46.9875C34.472 46.9497 34.5406 47.0864 34.8119 46.0672C35.3998 43.8588 35.9953 41.6526 36.5887 39.4456C36.7282 38.9268 36.8006 38.8715 37.3321 38.8608C37.4366 38.8587 37.5418 38.8651 37.6455 38.8544C37.9082 38.8267 38.0401 38.9102 38.009 39.2027C37.9987 39.2989 38.0763 39.4044 38.1138 39.5056C38.1943 39.4693 38.2901 39.4499 38.3533 39.3941C39.1566 38.6823 40.0708 38.5719 41.01 39.0143C41.936 39.4506 42.2573 40.3024 42.3169 41.2732C42.3204 41.331 42.3173 41.3892 42.3173 41.4471Z" fill="#1E3C92"/>
<path d="M130.691 41.6179C130.696 40.4596 129.806 39.7485 128.703 40.0282C127.675 40.2888 126.821 41.4539 126.88 42.5144C126.946 43.6818 127.936 44.3375 129.041 43.9459C129.982 43.6122 130.687 42.6182 130.691 41.6179ZM127.768 38.8573C127.762 38.9763 127.751 39.0437 127.757 39.1097C127.769 39.2379 127.789 39.3653 127.806 39.493C127.915 39.4465 128.044 39.4235 128.13 39.3501C128.786 38.788 129.535 38.6637 130.351 38.8736C131.33 39.1258 131.969 39.9337 132.08 41.0363C132.246 42.6938 131.303 44.3068 129.771 44.974C128.761 45.414 127.85 45.1756 127.049 44.4975C126.394 43.9435 126.438 44.1706 126.278 44.7703C126.112 45.3983 125.93 46.0223 125.771 46.652C125.712 46.8847 125.592 46.9839 125.355 46.971C125.158 46.9603 124.96 46.9724 124.762 46.9702C124.391 46.966 124.35 46.9191 124.445 46.5592C124.763 45.3589 125.085 44.1601 125.406 42.961C125.73 41.7505 126.067 40.5431 126.371 39.3276C126.461 38.9657 126.629 38.8175 126.997 38.8528C127.246 38.8765 127.498 38.8573 127.768 38.8573Z" fill="#1E3C92"/>
<path d="M17.6347 41.673C17.6449 40.3901 16.5236 39.6334 15.3391 40.1237C14.4435 40.4944 13.8101 41.4765 13.8458 42.4394C13.8895 43.6186 14.9342 44.3244 16.0435 43.9241C16.9462 43.5983 17.627 42.635 17.6347 41.673ZM19.0001 41.5799C19.0347 43.6126 17.185 45.3683 15.1576 45.2274C13.299 45.0981 12.0666 43.2998 12.6256 41.4614C13.0837 39.9551 14.1022 39.0188 15.6856 38.7739C17.4632 38.4989 18.9697 39.7848 19.0001 41.5799Z" fill="#1E3C92"/>
<path d="M118.103 41.6504C118.102 40.4345 117.138 39.6888 116.005 40.0278C114.969 40.3376 114.196 41.541 114.348 42.6078C114.509 43.7415 115.533 44.3263 116.598 43.8923C117.477 43.534 118.104 42.6004 118.103 41.6504ZM112.986 42.3538C112.954 40.1823 115.062 38.4019 117.199 38.7953C118.589 39.0512 119.563 40.3597 119.459 41.8317C119.332 43.6197 117.813 45.1173 116.018 45.2228C114.325 45.3223 113.011 44.0801 112.986 42.3538Z" fill="#1E3C92"/>
<path d="M83.8209 41.5505V41.5465C84.2275 41.5465 84.6342 41.5475 85.0407 41.5452C85.0982 41.545 85.168 41.5468 85.2107 41.5169C85.3609 41.4119 85.5875 41.3193 85.6308 41.1755C85.7836 40.6664 85.191 39.9075 84.6534 39.8673C83.6915 39.7956 82.8421 40.2955 82.4196 41.1691C82.2982 41.42 82.3522 41.5468 82.6358 41.5496C83.0308 41.5533 83.4259 41.5505 83.8209 41.5505ZM86.0421 44.4005C85.8016 44.5533 85.6008 44.7083 85.3778 44.8184C84.2371 45.3818 83.0805 45.3881 81.967 44.7814C81.0552 44.2845 80.7388 43.424 80.7875 42.4286C80.8646 40.8502 82.0115 39.4164 83.5298 38.9701C84.1099 38.7995 84.6995 38.7902 85.2848 38.9378C86.2058 39.1701 86.8016 39.9459 86.9471 41.0785C86.9545 41.136 86.9578 41.1941 86.9634 41.2519C87.0551 42.1956 86.7517 42.544 85.806 42.5521C84.7722 42.5609 83.7381 42.551 82.7043 42.5568C82.1154 42.5602 82.0157 42.7422 82.3063 43.2544C82.7478 44.0325 83.4139 44.3232 84.2748 44.0841C84.5628 44.004 84.8453 43.884 85.1088 43.7423C85.3425 43.6168 85.4928 43.6502 85.6351 43.8632C85.7496 44.0342 85.8832 44.1924 86.0421 44.4005Z" fill="#1E3C92"/>
<path d="M4.34295 38.858C5.14477 38.858 5.94687 38.8655 6.74855 38.8541C7.0401 38.85 7.11087 38.9371 7.03243 39.2257C6.53012 41.0722 6.03745 42.9214 5.55496 44.773C5.48881 45.0266 5.37003 45.12 5.11825 45.0986C4.92202 45.0822 4.72328 45.095 4.52579 45.0928C4.13067 45.0882 4.09969 45.0503 4.20241 44.6669C4.53263 43.4354 4.86577 42.2045 5.19767 40.9734C5.24289 40.8055 5.28825 40.6376 5.33137 40.4693C5.43019 40.0834 5.38469 40.0231 4.97408 40.0216C4.33486 40.0192 3.6955 40.0311 3.05655 40.0192C2.79305 40.0143 2.66535 40.1011 2.59584 40.3692C2.22082 41.8171 1.81566 43.2573 1.44622 44.7066C1.36611 45.0205 1.22472 45.1305 0.918233 45.0988C0.734422 45.0796 0.546703 45.0975 0.360798 45.096C-0.0252471 45.0926 -0.0489736 45.0646 0.0485845 44.6971C0.506228 42.9719 0.960243 41.2457 1.42724 39.523C1.64175 38.7318 1.46841 38.8687 2.286 38.8595C2.97156 38.8518 3.65726 38.858 4.34295 38.858Z" fill="#1E3C92"/>
<path d="M71.6743 42.4822C71.3142 42.4822 70.9538 42.4908 70.5941 42.4791C70.3569 42.4714 70.2395 42.5647 70.1803 42.798C70.0124 43.4605 69.819 44.1166 69.6466 44.7781C69.5888 44.9997 69.4899 45.12 69.2394 45.0998C69.0086 45.0811 68.7746 45.0883 68.5429 45.1009C68.2292 45.1178 68.2047 44.9789 68.2772 44.7139C68.6955 43.1817 69.1008 41.6459 69.5101 40.1113C69.5968 39.7864 69.6607 39.4531 69.7798 39.1406C69.824 39.0245 69.9869 38.9006 70.1124 38.8795C70.3728 38.8358 70.6447 38.8633 70.9115 38.8524C71.1577 38.8424 71.2113 38.9371 71.1426 39.1709C70.9728 39.749 70.8221 40.3325 70.6671 40.9148C70.5633 41.3051 70.6099 41.3655 71.0151 41.3669C71.6771 41.3691 72.3394 41.3542 73.001 41.3737C73.292 41.3822 73.4084 41.2668 73.4771 40.9981C73.6346 40.3808 73.8303 39.7732 73.9926 39.157C74.0497 38.9405 74.147 38.8422 74.3771 38.8563C74.6201 38.8711 74.8655 38.8681 75.1085 38.8528C75.379 38.836 75.4317 38.9602 75.3696 39.1919C74.8663 41.072 74.3623 42.952 73.8658 44.8338C73.8157 45.0237 73.7273 45.1077 73.5291 45.0996C73.274 45.089 73.018 45.091 72.7628 45.0987C72.5022 45.1066 72.436 44.9976 72.5078 44.7538C72.6811 44.1645 72.8431 43.5719 73.0078 42.98C73.1315 42.5353 73.0992 42.4904 72.6498 42.4859C72.3246 42.4827 71.9995 42.4854 71.6743 42.4854V42.4822Z" fill="#1E3C92"/>
<path d="M104.832 38.8581C105.633 38.8582 106.434 38.8648 107.236 38.8545C107.503 38.851 107.595 38.9339 107.522 39.2037C107.018 41.0746 106.518 42.9466 106.022 44.8197C105.969 45.0207 105.869 45.1124 105.656 45.1008C105.425 45.0881 105.191 45.0901 104.96 45.1019C104.672 45.1165 104.595 45.0221 104.675 44.7303C105.027 43.4566 105.358 42.1772 105.698 40.9004C105.942 39.9861 106.043 40.0324 105.024 40.0272C104.536 40.0247 104.047 40.0367 103.56 40.0125C103.26 39.9975 103.129 40.1111 103.054 40.3992C102.677 41.8472 102.273 43.2884 101.897 44.7367C101.825 45.0151 101.702 45.1293 101.417 45.1012C101.222 45.0818 101.022 45.0848 100.825 45.1001C100.497 45.1258 100.454 44.97 100.528 44.6969C100.84 43.5565 101.144 42.4143 101.451 41.2725C101.631 40.6009 101.821 39.9316 101.983 39.2556C102.053 38.9618 102.173 38.8384 102.498 38.8494C103.275 38.8758 104.054 38.8579 104.832 38.8581Z" fill="#1E3C92"/>
<path d="M138.517 38.861C138.938 38.861 139.296 38.8638 139.654 38.86C139.898 38.8575 139.933 39.0299 139.954 39.2091C140.078 40.3046 140.198 41.4004 140.321 42.4959C140.351 42.767 140.388 43.0373 140.422 43.3079C140.456 43.3177 140.49 43.3276 140.524 43.3375C140.608 43.2292 140.706 43.1287 140.776 43.0116C141.536 41.7339 142.297 40.4568 143.043 39.1714C143.176 38.9424 143.322 38.8356 143.594 38.854C143.948 38.878 144.306 38.8599 144.711 38.8599C144.648 38.9922 144.617 39.0761 144.57 39.1498C143.231 41.2708 141.892 43.3918 140.548 45.5102C140.098 46.2197 139.526 46.8087 138.656 46.9213C138.185 46.9823 137.692 46.893 137.21 46.8523C136.969 46.832 136.925 46.668 136.97 46.4467C137.085 45.8776 137.407 45.6517 137.97 45.7638C138.933 45.9557 139.451 45.4796 139.313 44.4956C139.072 42.7707 138.811 41.0485 138.56 39.3248C138.54 39.1898 138.534 39.0528 138.517 38.861Z" fill="#1E3C92"/>
<path d="M153.511 45.0993C152.818 45.0966 152.818 45.0968 152.992 44.438C153.107 44.0005 153.23 43.5647 153.331 43.1239C153.398 42.8305 153.314 42.7834 153.018 42.8444C152.476 42.9562 151.927 43.1276 151.384 43.1197C150.235 43.1026 149.625 42.283 149.874 41.1654C150.03 40.4641 150.236 39.7731 150.438 39.0832C150.465 38.9918 150.602 38.8799 150.697 38.8709C150.985 38.8439 151.277 38.8603 151.567 38.8642C151.803 38.8673 151.853 38.9685 151.793 39.2013C151.619 39.8742 151.448 40.5497 151.325 41.2328C151.226 41.7787 151.464 42.0168 152.021 41.9928C152.333 41.9794 152.646 41.9455 152.956 41.9004C153.442 41.8295 153.755 41.5497 153.882 41.0732C154.044 40.4677 154.217 39.8648 154.352 39.2536C154.422 38.9393 154.573 38.8233 154.884 38.8543C155.079 38.8739 155.279 38.8676 155.476 38.8559C155.752 38.8395 155.818 38.94 155.744 39.2086C155.442 40.292 155.156 41.3801 154.864 42.4665C154.684 43.1385 154.504 43.8105 154.323 44.4825C154.157 45.1018 154.157 45.1018 153.511 45.0993Z" fill="#1E3C92"/>
<path d="M126.75 32.2381C126.912 32.2381 127.05 32.238 127.188 32.2381C136.938 32.2445 146.689 32.2502 156.439 32.2635C156.596 32.2636 156.753 32.3565 156.911 32.406C156.749 32.4533 156.589 32.5398 156.427 32.5424C148.096 32.6751 139.765 32.8006 131.433 32.927C130.085 32.9475 128.738 32.9689 127.39 32.9898C126.772 32.9994 126.717 32.939 126.75 32.2381Z" fill="#ED1B24"/>
<path d="M28.0905 38.8584C28.8914 38.8584 29.6927 38.8655 30.4935 38.8545C30.7746 38.8506 30.8411 38.9486 30.7604 39.2095C30.451 40.2116 30.6949 40.0094 29.6933 40.0266C29.438 40.0309 29.1805 40.0435 28.9276 40.0175C28.5919 39.9829 28.4609 40.1335 28.3817 40.4449C28.0215 41.8611 27.6297 43.2694 27.2727 44.6865C27.1922 45.0062 27.0567 45.1126 26.7266 45.1056C25.7929 45.0859 25.7929 45.1009 26.0285 44.2055C26.3528 42.9727 26.6775 41.7399 27 40.5065C27.1131 40.0744 27.0748 40.0274 26.6189 40.0257C26.1893 40.0241 25.7597 40.0225 25.3302 40.0287C25.0939 40.032 25.0292 39.9508 25.091 39.7106C25.3096 38.8617 25.302 38.8598 26.1749 38.8596H28.0905V38.8584Z" fill="#1E3C92"/>
<path d="M49.639 38.6895C50.0227 38.7924 50.3158 38.8644 50.6045 38.9504C50.8267 39.0165 50.7408 39.1786 50.7022 39.3216C50.337 40.6764 49.9724 42.0315 49.6069 43.3864C49.465 43.9126 49.3107 44.4358 49.1832 44.9656C49.1246 45.2087 49.0305 45.2862 48.7733 45.2224C47.8174 44.9854 47.8161 44.9934 48.0712 44.0505C48.5257 42.3702 48.9768 40.6888 49.4383 39.0105C49.4725 38.8862 49.5796 38.7818 49.639 38.6895Z" fill="#1E3C92"/>
<path d="M50.7567 36.5508C51.5405 36.5411 51.5423 36.5415 51.3317 37.2799C51.1423 37.9442 51.257 37.8498 50.5771 37.8568C49.6894 37.866 49.6895 37.8622 49.9148 37.0136C50.0355 36.5597 50.0355 36.5597 50.7567 36.5508Z" fill="#1E3C92"/>
</svg>
