<svg width="165" height="25" viewBox="0 0 165 25" fill="none" xmlns="http://www.w3.org/2000/svg">
<path d="M29.4621 6.24314C30.1015 6.24314 30.6199 5.72476 30.6199 5.08532C30.6199 4.44587 30.1015 3.92749 29.4621 3.92749C28.8226 3.92749 28.3043 4.44587 28.3043 5.08532C28.3043 5.72476 28.8226 6.24314 29.4621 6.24314Z" fill="black"/>
<path d="M25.449 6.12454C26.0229 6.12454 26.4882 5.65928 26.4882 5.08534C26.4882 4.51141 26.0229 4.04614 25.449 4.04614C24.8751 4.04614 24.4098 4.51141 24.4098 5.08534C24.4098 5.65928 24.8751 6.12454 25.449 6.12454Z" fill="black"/>
<path d="M21.6614 6.01746C22.1763 6.01746 22.5936 5.6001 22.5936 5.08527C22.5936 4.57043 22.1763 4.15308 21.6614 4.15308C21.1466 4.15308 20.7292 4.57043 20.7292 5.08527C20.7292 5.6001 21.1466 6.01746 21.6614 6.01746Z" fill="black"/>
<path d="M18.0927 5.90564C18.5458 5.90564 18.9131 5.53829 18.9131 5.08514C18.9131 4.632 18.5458 4.26465 18.0927 4.26465C17.6395 4.26465 17.2722 4.632 17.2722 5.08514C17.2722 5.53829 17.6395 5.90564 18.0927 5.90564Z" fill="black"/>
<path d="M14.7537 5.78752C15.1416 5.78752 15.456 5.47312 15.456 5.08529C15.456 4.69746 15.1416 4.38306 14.7537 4.38306C14.3659 4.38306 14.0515 4.69746 14.0515 5.08529C14.0515 5.47312 14.3659 5.78752 14.7537 5.78752Z" fill="black"/>
<path d="M11.6472 5.67348C11.972 5.67348 12.2354 5.41013 12.2354 5.08527C12.2354 4.76042 11.972 4.49707 11.6472 4.49707C11.3223 4.49707 11.059 4.76042 11.059 5.08527C11.059 5.41013 11.3223 5.67348 11.6472 5.67348Z" fill="black"/>
<path d="M8.73147 5.59636C9.01379 5.59636 9.24266 5.36749 9.24266 5.08517C9.24266 4.80284 9.01379 4.57397 8.73147 4.57397C8.44914 4.57397 8.22028 4.80284 8.22028 5.08517C8.22028 5.36749 8.44914 5.59636 8.73147 5.59636Z" fill="black"/>
<path d="M5.96871 5.52055C6.20914 5.52055 6.40404 5.32565 6.40404 5.08523C6.40404 4.8448 6.20914 4.6499 5.96871 4.6499C5.72829 4.6499 5.53339 4.8448 5.53339 5.08523C5.53339 5.32565 5.72829 5.52055 5.96871 5.52055Z" fill="black"/>
<path d="M3.35402 5.44851C3.55459 5.44851 3.71719 5.28591 3.71719 5.08534C3.71719 4.88477 3.55459 4.72217 3.35402 4.72217C3.15344 4.72217 2.99084 4.88477 2.99084 5.08534C2.99084 5.28591 3.15344 5.44851 3.35402 5.44851Z" fill="black"/>
<path d="M0.891842 5.36791C1.04798 5.36791 1.17455 5.24134 1.17455 5.0852C1.17455 4.92906 1.04798 4.80249 0.891842 4.80249C0.735705 4.80249 0.609131 4.92906 0.609131 5.0852C0.609131 5.24134 0.735705 5.36791 0.891842 5.36791Z" fill="black"/>
<path d="M135.841 16.6575C135.201 16.6575 134.683 17.1759 134.683 17.8153C134.683 18.4548 135.201 18.9731 135.841 18.9731C136.48 18.9731 136.998 18.4548 136.998 17.8153C136.998 17.1759 136.48 16.6575 135.841 16.6575Z" fill="black"/>
<path d="M139.854 16.7761C139.28 16.7761 138.815 17.2414 138.815 17.8153C138.815 18.3892 139.28 18.8545 139.854 18.8545C140.428 18.8545 140.893 18.3892 140.893 17.8153C140.893 17.2414 140.428 16.7761 139.854 16.7761Z" fill="black"/>
<path d="M143.641 16.8832C143.127 16.8832 142.709 17.3005 142.709 17.8154C142.709 18.3302 143.127 18.7476 143.641 18.7476C144.156 18.7476 144.574 18.3302 144.574 17.8154C144.574 17.3005 144.156 16.8832 143.641 16.8832Z" fill="black"/>
<path d="M147.21 16.9948C146.757 16.9948 146.39 17.3621 146.39 17.8152C146.39 18.2684 146.757 18.6357 147.21 18.6357C147.663 18.6357 148.031 18.2684 148.031 17.8152C148.031 17.3621 147.663 16.9948 147.21 16.9948Z" fill="black"/>
<path d="M150.549 17.1131C150.161 17.1131 149.847 17.4275 149.847 17.8153C149.847 18.2032 150.161 18.5176 150.549 18.5176C150.937 18.5176 151.252 18.2032 151.252 17.8153C151.252 17.4275 150.937 17.1131 150.549 17.1131Z" fill="black"/>
<path d="M153.656 17.2269C153.331 17.2269 153.068 17.4903 153.068 17.8151C153.068 18.14 153.331 18.4033 153.656 18.4033C153.981 18.4033 154.244 18.14 154.244 17.8151C154.244 17.4903 153.981 17.2269 153.656 17.2269Z" fill="black"/>
<path d="M156.571 17.3043C156.289 17.3043 156.06 17.5331 156.06 17.8155C156.06 18.0978 156.289 18.3267 156.571 18.3267C156.854 18.3267 157.082 18.0978 157.082 17.8155C157.082 17.5331 156.854 17.3043 156.571 17.3043Z" fill="black"/>
<path d="M159.334 17.3798C159.094 17.3798 158.899 17.5747 158.899 17.8152C158.899 18.0556 159.094 18.2505 159.334 18.2505C159.575 18.2505 159.769 18.0556 159.769 17.8152C159.769 17.5747 159.575 17.3798 159.334 17.3798Z" fill="black"/>
<path d="M161.949 17.4521C161.748 17.4521 161.586 17.6147 161.586 17.8153C161.586 18.0159 161.748 18.1785 161.949 18.1785C162.15 18.1785 162.312 18.0159 162.312 17.8153C162.312 17.6147 162.15 17.4521 161.949 17.4521Z" fill="black"/>
<path d="M164.411 17.5325C164.255 17.5325 164.128 17.6591 164.128 17.8152C164.128 17.9713 164.255 18.0979 164.411 18.0979C164.567 18.0979 164.694 17.9713 164.694 17.8152C164.694 17.6591 164.567 17.5325 164.411 17.5325Z" fill="black"/>
<path d="M29.4621 18.9734C30.1015 18.9734 30.6199 18.455 30.6199 17.8155C30.6199 17.1761 30.1015 16.6577 29.4621 16.6577C28.8226 16.6577 28.3043 17.1761 28.3043 17.8155C28.3043 18.455 28.8226 18.9734 29.4621 18.9734Z" fill="black"/>
<path d="M25.449 18.8545C26.0229 18.8545 26.4882 18.3893 26.4882 17.8153C26.4882 17.2414 26.0229 16.7761 25.449 16.7761C24.8751 16.7761 24.4098 17.2414 24.4098 17.8153C24.4098 18.3893 24.8751 18.8545 25.449 18.8545Z" fill="black"/>
<path d="M21.6614 18.7474C22.1763 18.7474 22.5936 18.3301 22.5936 17.8152C22.5936 17.3004 22.1763 16.8831 21.6614 16.8831C21.1466 16.8831 20.7292 17.3004 20.7292 17.8152C20.7292 18.3301 21.1466 18.7474 21.6614 18.7474Z" fill="black"/>
<path d="M18.0927 18.6359C18.5458 18.6359 18.9131 18.2685 18.9131 17.8154C18.9131 17.3622 18.5458 16.9949 18.0927 16.9949C17.6395 16.9949 17.2722 17.3622 17.2722 17.8154C17.2722 18.2685 17.6395 18.6359 18.0927 18.6359Z" fill="black"/>
<path d="M14.7537 18.5177C15.1416 18.5177 15.456 18.2033 15.456 17.8155C15.456 17.4277 15.1416 17.1133 14.7537 17.1133C14.3659 17.1133 14.0515 17.4277 14.0515 17.8155C14.0515 18.2033 14.3659 18.5177 14.7537 18.5177Z" fill="black"/>
<path d="M11.6472 18.4037C11.972 18.4037 12.2354 18.1404 12.2354 17.8155C12.2354 17.4906 11.972 17.2273 11.6472 17.2273C11.3223 17.2273 11.059 17.4906 11.059 17.8155C11.059 18.1404 11.3223 18.4037 11.6472 18.4037Z" fill="black"/>
<path d="M8.73147 18.3266C9.01379 18.3266 9.24266 18.0977 9.24266 17.8154C9.24266 17.5331 9.01379 17.3042 8.73147 17.3042C8.44914 17.3042 8.22028 17.5331 8.22028 17.8154C8.22028 18.0977 8.44914 18.3266 8.73147 18.3266Z" fill="black"/>
<path d="M5.96871 18.2508C6.20914 18.2508 6.40404 18.0559 6.40404 17.8155C6.40404 17.575 6.20914 17.3801 5.96871 17.3801C5.72829 17.3801 5.53339 17.575 5.53339 17.8155C5.53339 18.0559 5.72829 18.2508 5.96871 18.2508Z" fill="black"/>
<path d="M3.35402 18.1787C3.55459 18.1787 3.71719 18.0161 3.71719 17.8156C3.71719 17.615 3.55459 17.4524 3.35402 17.4524C3.15344 17.4524 2.99084 17.615 2.99084 17.8156C2.99084 18.0161 3.15344 18.1787 3.35402 18.1787Z" fill="black"/>
<path d="M0.891842 18.0981C1.04798 18.0981 1.17455 17.9716 1.17455 17.8154C1.17455 17.6593 1.04798 17.5327 0.891842 17.5327C0.735705 17.5327 0.609131 17.6593 0.609131 17.8154C0.609131 17.9716 0.735705 18.0981 0.891842 18.0981Z" fill="black"/>
<path d="M135.841 3.92703C135.201 3.92703 134.683 4.4454 134.683 5.08485C134.683 5.7243 135.201 6.24268 135.841 6.24268C136.48 6.24268 136.998 5.7243 136.998 5.08485C136.998 4.4454 136.48 3.92703 135.841 3.92703Z" fill="black"/>
<path d="M139.854 4.04562C139.28 4.04562 138.815 4.51089 138.815 5.08482C138.815 5.65876 139.28 6.12402 139.854 6.12402C140.428 6.12402 140.893 5.65876 140.893 5.08482C140.893 4.51089 140.428 4.04562 139.854 4.04562Z" fill="black"/>
<path d="M143.641 4.15295C143.127 4.15295 142.709 4.57031 142.709 5.08514C142.709 5.59998 143.127 6.01733 143.641 6.01733C144.156 6.01733 144.574 5.59998 144.574 5.08514C144.574 4.57031 144.156 4.15295 143.641 4.15295Z" fill="black"/>
<path d="M147.21 4.26453C146.757 4.26453 146.39 4.63188 146.39 5.08502C146.39 5.53817 146.757 5.90552 147.21 5.90552C147.663 5.90552 148.031 5.53817 148.031 5.08502C148.031 4.63188 147.663 4.26453 147.21 4.26453Z" fill="black"/>
<path d="M150.549 4.38289C150.161 4.38289 149.847 4.69729 149.847 5.08512C149.847 5.47295 150.161 5.78735 150.549 5.78735C150.937 5.78735 151.252 5.47295 151.252 5.08512C151.252 4.69729 150.937 4.38289 150.549 4.38289Z" fill="black"/>
<path d="M153.656 4.49693C153.331 4.49693 153.068 4.76028 153.068 5.08514C153.068 5.40999 153.331 5.67334 153.656 5.67334C153.981 5.67334 154.244 5.40999 154.244 5.08514C154.244 4.76028 153.981 4.49693 153.656 4.49693Z" fill="black"/>
<path d="M156.571 4.57381C156.289 4.57381 156.06 4.80268 156.06 5.085C156.06 5.36732 156.289 5.59619 156.571 5.59619C156.854 5.59619 157.082 5.36732 157.082 5.085C157.082 4.80268 156.854 4.57381 156.571 4.57381Z" fill="black"/>
<path d="M159.334 4.64986C159.094 4.64986 158.899 4.84476 158.899 5.08518C158.899 5.32561 159.094 5.52051 159.334 5.52051C159.575 5.52051 159.769 5.32561 159.769 5.08518C159.769 4.84476 159.575 4.64986 159.334 4.64986Z" fill="black"/>
<path d="M161.949 4.7219C161.748 4.7219 161.586 4.8845 161.586 5.08507C161.586 5.28564 161.748 5.44824 161.949 5.44824C162.15 5.44824 162.312 5.28564 162.312 5.08507C162.312 4.8845 162.15 4.7219 161.949 4.7219Z" fill="black"/>
<path d="M164.411 4.8025C164.255 4.8025 164.128 4.92907 164.128 5.08521C164.128 5.24135 164.255 5.36792 164.411 5.36792C164.567 5.36792 164.694 5.24135 164.694 5.08521C164.694 4.92907 164.567 4.8025 164.411 4.8025Z" fill="black"/>
<path d="M29.4621 15.7907C30.1015 15.7907 30.6199 15.2724 30.6199 14.6329C30.6199 13.9935 30.1015 13.4751 29.4621 13.4751C28.8226 13.4751 28.3043 13.9935 28.3043 14.6329C28.3043 15.2724 28.8226 15.7907 29.4621 15.7907Z" fill="black"/>
<path d="M25.449 15.6722C26.0229 15.6722 26.4882 15.2069 26.4882 14.633C26.4882 14.059 26.0229 13.5938 25.449 13.5938C24.8751 13.5938 24.4098 14.059 24.4098 14.633C24.4098 15.2069 24.8751 15.6722 25.449 15.6722Z" fill="black"/>
<path d="M21.6614 15.5653C22.1763 15.5653 22.5936 15.148 22.5936 14.6331C22.5936 14.1183 22.1763 13.7009 21.6614 13.7009C21.1466 13.7009 20.7292 14.1183 20.7292 14.6331C20.7292 15.148 21.1466 15.5653 21.6614 15.5653Z" fill="black"/>
<path d="M18.0927 15.4535C18.5458 15.4535 18.9131 15.0861 18.9131 14.633C18.9131 14.1798 18.5458 13.8125 18.0927 13.8125C17.6395 13.8125 17.2722 14.1798 17.2722 14.633C17.2722 15.0861 17.6395 15.4535 18.0927 15.4535Z" fill="black"/>
<path d="M14.7537 15.3351C15.1416 15.3351 15.456 15.0207 15.456 14.6329C15.456 14.2451 15.1416 13.9307 14.7537 13.9307C14.3659 13.9307 14.0515 14.2451 14.0515 14.6329C14.0515 15.0207 14.3659 15.3351 14.7537 15.3351Z" fill="black"/>
<path d="M11.6472 15.2208C11.972 15.2208 12.2354 14.9575 12.2354 14.6326C12.2354 14.3078 11.972 14.0444 11.6472 14.0444C11.3223 14.0444 11.059 14.3078 11.059 14.6326C11.059 14.9575 11.3223 15.2208 11.6472 15.2208Z" fill="black"/>
<path d="M8.73147 15.144C9.01379 15.144 9.24266 14.9151 9.24266 14.6328C9.24266 14.3505 9.01379 14.1216 8.73147 14.1216C8.44914 14.1216 8.22028 14.3505 8.22028 14.6328C8.22028 14.9151 8.44914 15.144 8.73147 15.144Z" fill="black"/>
<path d="M5.96871 15.0682C6.20914 15.0682 6.40404 14.8733 6.40404 14.6328C6.40404 14.3924 6.20914 14.1975 5.96871 14.1975C5.72829 14.1975 5.53339 14.3924 5.53339 14.6328C5.53339 14.8733 5.72829 15.0682 5.96871 15.0682Z" fill="black"/>
<path d="M3.35402 14.9959C3.55459 14.9959 3.71719 14.8333 3.71719 14.6327C3.71719 14.4321 3.55459 14.2695 3.35402 14.2695C3.15344 14.2695 2.99084 14.4321 2.99084 14.6327C2.99084 14.8333 3.15344 14.9959 3.35402 14.9959Z" fill="black"/>
<path d="M0.891842 14.9155C1.04798 14.9155 1.17455 14.7889 1.17455 14.6328C1.17455 14.4767 1.04798 14.3501 0.891842 14.3501C0.735705 14.3501 0.609131 14.4767 0.609131 14.6328C0.609131 14.7889 0.735705 14.9155 0.891842 14.9155Z" fill="black"/>
<path d="M135.841 7.10989C135.201 7.10989 134.683 7.62826 134.683 8.26771C134.683 8.90716 135.201 9.42554 135.841 9.42554C136.48 9.42554 136.998 8.90716 136.998 8.26771C136.998 7.62826 136.48 7.10989 135.841 7.10989Z" fill="black"/>
<path d="M139.854 7.22848C139.28 7.22848 138.815 7.69375 138.815 8.26768C138.815 8.84162 139.28 9.30688 139.854 9.30688C140.428 9.30688 140.893 8.84162 140.893 8.26768C140.893 7.69375 140.428 7.22848 139.854 7.22848Z" fill="black"/>
<path d="M143.641 7.33532C143.127 7.33532 142.709 7.75268 142.709 8.26751C142.709 8.78235 143.127 9.19971 143.641 9.19971C144.156 9.19971 144.574 8.78235 144.574 8.26751C144.574 7.75268 144.156 7.33532 143.641 7.33532Z" fill="black"/>
<path d="M147.21 7.44715C146.757 7.44715 146.39 7.81449 146.39 8.26764C146.39 8.72079 146.757 9.08813 147.21 9.08813C147.663 9.08813 148.031 8.72079 148.031 8.26764C148.031 7.81449 147.663 7.44715 147.21 7.44715Z" fill="black"/>
<path d="M150.549 7.56551C150.161 7.56551 149.847 7.87991 149.847 8.26774C149.847 8.65557 150.161 8.96997 150.549 8.96997C150.937 8.96997 151.252 8.65557 151.252 8.26774C151.252 7.87991 150.937 7.56551 150.549 7.56551Z" fill="black"/>
<path d="M153.656 7.67931C153.331 7.67931 153.068 7.94265 153.068 8.26751C153.068 8.59237 153.331 8.85571 153.656 8.85571C153.981 8.85571 154.244 8.59237 154.244 8.26751C154.244 7.94265 153.981 7.67931 153.656 7.67931Z" fill="black"/>
<path d="M156.571 7.75643C156.289 7.75643 156.06 7.98529 156.06 8.26762C156.06 8.54994 156.289 8.77881 156.571 8.77881C156.854 8.77881 157.082 8.54994 157.082 8.26762C157.082 7.98529 156.854 7.75643 156.571 7.75643Z" fill="black"/>
<path d="M159.334 7.83247C159.094 7.83247 158.899 8.02738 158.899 8.2678C158.899 8.50822 159.094 8.70312 159.334 8.70312C159.575 8.70312 159.769 8.50822 159.769 8.2678C159.769 8.02738 159.575 7.83247 159.334 7.83247Z" fill="black"/>
<path d="M161.949 7.90452C161.748 7.90452 161.586 8.06711 161.586 8.26769C161.586 8.46826 161.748 8.63086 161.949 8.63086C162.15 8.63086 162.312 8.46826 162.312 8.26769C162.312 8.06711 162.15 7.90452 161.949 7.90452Z" fill="black"/>
<path d="M164.411 7.98511C164.255 7.98511 164.128 8.11169 164.128 8.26783C164.128 8.42396 164.255 8.55054 164.411 8.55054C164.567 8.55054 164.694 8.42396 164.694 8.26783C164.694 8.11169 164.567 7.98511 164.411 7.98511Z" fill="black"/>
<path d="M29.4621 12.6084C30.1015 12.6084 30.6199 12.09 30.6199 11.4505C30.6199 10.8111 30.1015 10.2927 29.4621 10.2927C28.8226 10.2927 28.3043 10.8111 28.3043 11.4505C28.3043 12.09 28.8226 12.6084 29.4621 12.6084Z" fill="black"/>
<path d="M25.449 12.4895C26.0229 12.4895 26.4882 12.0243 26.4882 11.4503C26.4882 10.8764 26.0229 10.4111 25.449 10.4111C24.8751 10.4111 24.4098 10.8764 24.4098 11.4503C24.4098 12.0243 24.8751 12.4895 25.449 12.4895Z" fill="black"/>
<path d="M21.6614 12.3825C22.1763 12.3825 22.5936 11.9651 22.5936 11.4503C22.5936 10.9354 22.1763 10.5181 21.6614 10.5181C21.1466 10.5181 20.7292 10.9354 20.7292 11.4503C20.7292 11.9651 21.1466 12.3825 21.6614 12.3825Z" fill="black"/>
<path d="M18.0927 12.2706C18.5458 12.2706 18.9131 11.9033 18.9131 11.4501C18.9131 10.997 18.5458 10.6296 18.0927 10.6296C17.6395 10.6296 17.2722 10.997 17.2722 11.4501C17.2722 11.9033 17.6395 12.2706 18.0927 12.2706Z" fill="black"/>
<path d="M14.7537 12.1525C15.1416 12.1525 15.456 11.8381 15.456 11.4503C15.456 11.0624 15.1416 10.748 14.7537 10.748C14.3659 10.748 14.0515 11.0624 14.0515 11.4503C14.0515 11.8381 14.3659 12.1525 14.7537 12.1525Z" fill="black"/>
<path d="M11.6472 12.0387C11.972 12.0387 12.2354 11.7754 12.2354 11.4505C12.2354 11.1257 11.972 10.8623 11.6472 10.8623C11.3223 10.8623 11.059 11.1257 11.059 11.4505C11.059 11.7754 11.3223 12.0387 11.6472 12.0387Z" fill="black"/>
<path d="M8.73147 11.9616C9.01379 11.9616 9.24266 11.7327 9.24266 11.4504C9.24266 11.1681 9.01379 10.9392 8.73147 10.9392C8.44914 10.9392 8.22028 11.1681 8.22028 11.4504C8.22028 11.7327 8.44914 11.9616 8.73147 11.9616Z" fill="black"/>
<path d="M5.96871 11.8858C6.20914 11.8858 6.40404 11.6909 6.40404 11.4505C6.40404 11.21 6.20914 11.0151 5.96871 11.0151C5.72829 11.0151 5.53339 11.21 5.53339 11.4505C5.53339 11.6909 5.72829 11.8858 5.96871 11.8858Z" fill="black"/>
<path d="M3.35402 11.8135C3.55459 11.8135 3.71719 11.6509 3.71719 11.4503C3.71719 11.2498 3.55459 11.0872 3.35402 11.0872C3.15344 11.0872 2.99084 11.2498 2.99084 11.4503C2.99084 11.6509 3.15344 11.8135 3.35402 11.8135Z" fill="black"/>
<path d="M0.891842 11.7331C1.04798 11.7331 1.17455 11.6066 1.17455 11.4504C1.17455 11.2943 1.04798 11.1677 0.891842 11.1677C0.735705 11.1677 0.609131 11.2943 0.609131 11.4504C0.609131 11.6066 0.735705 11.7331 0.891842 11.7331Z" fill="black"/>
<path d="M135.841 10.2923C135.201 10.2923 134.683 10.8106 134.683 11.4501C134.683 12.0895 135.201 12.6079 135.841 12.6079C136.48 12.6079 136.998 12.0895 136.998 11.4501C136.998 10.8106 136.48 10.2923 135.841 10.2923Z" fill="black"/>
<path d="M139.854 10.4109C139.28 10.4109 138.815 10.8761 138.815 11.4501C138.815 12.024 139.28 12.4893 139.854 12.4893C140.428 12.4893 140.893 12.024 140.893 11.4501C140.893 10.8761 140.428 10.4109 139.854 10.4109Z" fill="black"/>
<path d="M143.641 10.5182C143.127 10.5182 142.709 10.9355 142.709 11.4504C142.709 11.9652 143.127 12.3826 143.641 12.3826C144.156 12.3826 144.574 11.9652 144.574 11.4504C144.574 10.9355 144.156 10.5182 143.641 10.5182Z" fill="black"/>
<path d="M147.21 10.6295C146.757 10.6295 146.39 10.9969 146.39 11.45C146.39 11.9032 146.757 12.2705 147.21 12.2705C147.663 12.2705 148.031 11.9032 148.031 11.45C148.031 10.9969 147.663 10.6295 147.21 10.6295Z" fill="black"/>
<path d="M150.549 10.7479C150.161 10.7479 149.847 11.0623 149.847 11.4501C149.847 11.8379 150.161 12.1523 150.549 12.1523C150.937 12.1523 151.252 11.8379 151.252 11.4501C151.252 11.0623 150.937 10.7479 150.549 10.7479Z" fill="black"/>
<path d="M153.656 10.8619C153.331 10.8619 153.068 11.1253 153.068 11.4501C153.068 11.775 153.331 12.0383 153.656 12.0383C153.981 12.0383 154.244 11.775 154.244 11.4501C154.244 11.1253 153.981 10.8619 153.656 10.8619Z" fill="black"/>
<path d="M156.571 10.939C156.289 10.939 156.06 11.1679 156.06 11.4502C156.06 11.7326 156.289 11.9614 156.571 11.9614C156.854 11.9614 157.082 11.7326 157.082 11.4502C157.082 11.1679 156.854 10.939 156.571 10.939Z" fill="black"/>
<path d="M159.334 11.0148C159.094 11.0148 158.899 11.2097 158.899 11.4502C158.899 11.6906 159.094 11.8855 159.334 11.8855C159.575 11.8855 159.769 11.6906 159.769 11.4502C159.769 11.2097 159.575 11.0148 159.334 11.0148Z" fill="black"/>
<path d="M161.949 11.0869C161.748 11.0869 161.586 11.2495 161.586 11.4501C161.586 11.6506 161.748 11.8132 161.949 11.8132C162.15 11.8132 162.312 11.6506 162.312 11.4501C162.312 11.2495 162.15 11.0869 161.949 11.0869Z" fill="black"/>
<path d="M164.411 11.1675C164.255 11.1675 164.128 11.2941 164.128 11.4502C164.128 11.6063 164.255 11.7329 164.411 11.7329C164.567 11.7329 164.694 11.6063 164.694 11.4502C164.694 11.2941 164.567 11.1675 164.411 11.1675Z" fill="black"/>
<path d="M29.4621 9.42576C30.1015 9.42576 30.6199 8.90738 30.6199 8.26793C30.6199 7.62848 30.1015 7.11011 29.4621 7.11011C28.8226 7.11011 28.3043 7.62848 28.3043 8.26793C28.3043 8.90738 28.8226 9.42576 29.4621 9.42576Z" fill="black"/>
<path d="M25.449 9.30692C26.0229 9.30692 26.4882 8.84165 26.4882 8.26772C26.4882 7.69378 26.0229 7.22852 25.449 7.22852C24.8751 7.22852 24.4098 7.69378 24.4098 8.26772C24.4098 8.84165 24.8751 9.30692 25.449 9.30692Z" fill="black"/>
<path d="M21.6614 9.20008C22.1763 9.20008 22.5936 8.78272 22.5936 8.26789C22.5936 7.75305 22.1763 7.33569 21.6614 7.33569C21.1466 7.33569 20.7292 7.75305 20.7292 8.26789C20.7292 8.78272 21.1466 9.20008 21.6614 9.20008Z" fill="black"/>
<path d="M18.0927 9.0885C18.5458 9.0885 18.9131 8.72115 18.9131 8.268C18.9131 7.81486 18.5458 7.44751 18.0927 7.44751C17.6395 7.44751 17.2722 7.81486 17.2722 8.268C17.2722 8.72115 17.6395 9.0885 18.0927 9.0885Z" fill="black"/>
<path d="M14.7537 8.97014C15.1416 8.97014 15.456 8.65574 15.456 8.26791C15.456 7.88007 15.1416 7.56567 14.7537 7.56567C14.3659 7.56567 14.0515 7.88007 14.0515 8.26791C14.0515 8.65574 14.3659 8.97014 14.7537 8.97014Z" fill="black"/>
<path d="M11.6472 8.85609C11.972 8.85609 12.2354 8.59275 12.2354 8.26789C12.2354 7.94303 11.972 7.67969 11.6472 7.67969C11.3223 7.67969 11.059 7.94303 11.059 8.26789C11.059 8.59275 11.3223 8.85609 11.6472 8.85609Z" fill="black"/>
<path d="M8.73147 8.77898C9.01379 8.77898 9.24266 8.55011 9.24266 8.26778C9.24266 7.98546 9.01379 7.75659 8.73147 7.75659C8.44914 7.75659 8.22028 7.98546 8.22028 8.26778C8.22028 8.55011 8.44914 8.77898 8.73147 8.77898Z" fill="black"/>
<path d="M5.96871 8.70317C6.20914 8.70317 6.40404 8.50827 6.40404 8.26785C6.40404 8.02742 6.20914 7.83252 5.96871 7.83252C5.72829 7.83252 5.53339 8.02742 5.53339 8.26785C5.53339 8.50827 5.72829 8.70317 5.96871 8.70317Z" fill="black"/>
<path d="M3.35402 8.63089C3.55459 8.63089 3.71719 8.46829 3.71719 8.26771C3.71719 8.06714 3.55459 7.90454 3.35402 7.90454C3.15344 7.90454 2.99084 8.06714 2.99084 8.26771C2.99084 8.46829 3.15344 8.63089 3.35402 8.63089Z" fill="black"/>
<path d="M0.891842 8.55053C1.04798 8.55053 1.17455 8.42396 1.17455 8.26782C1.17455 8.11168 1.04798 7.98511 0.891842 7.98511C0.735705 7.98511 0.609131 8.11168 0.609131 8.26782C0.609131 8.42396 0.735705 8.55053 0.891842 8.55053Z" fill="black"/>
<path d="M135.841 13.4749C135.201 13.4749 134.683 13.9933 134.683 14.6327C134.683 15.2722 135.201 15.7905 135.841 15.7905C136.48 15.7905 136.998 15.2722 136.998 14.6327C136.998 13.9933 136.48 13.4749 135.841 13.4749Z" fill="black"/>
<path d="M139.854 13.5935C139.28 13.5935 138.815 14.0587 138.815 14.6327C138.815 15.2066 139.28 15.6719 139.854 15.6719C140.428 15.6719 140.893 15.2066 140.893 14.6327C140.893 14.0587 140.428 13.5935 139.854 13.5935Z" fill="black"/>
<path d="M143.641 13.7003C143.127 13.7003 142.709 14.1177 142.709 14.6325C142.709 15.1473 143.127 15.5647 143.641 15.5647C144.156 15.5647 144.574 15.1473 144.574 14.6325C144.574 14.1177 144.156 13.7003 143.641 13.7003Z" fill="black"/>
<path d="M147.21 13.8124C146.757 13.8124 146.39 14.1797 146.39 14.6329C146.39 15.086 146.757 15.4534 147.21 15.4534C147.663 15.4534 148.031 15.086 148.031 14.6329C148.031 14.1797 147.663 13.8124 147.21 13.8124Z" fill="black"/>
<path d="M150.549 13.9305C150.161 13.9305 149.847 14.2449 149.847 14.6327C149.847 15.0206 150.161 15.335 150.549 15.335C150.937 15.335 151.252 15.0206 151.252 14.6327C151.252 14.2449 150.937 13.9305 150.549 13.9305Z" fill="black"/>
<path d="M153.656 14.0448C153.331 14.0448 153.068 14.3081 153.068 14.633C153.068 14.9578 153.331 15.2212 153.656 15.2212C153.981 15.2212 154.244 14.9578 154.244 14.633C154.244 14.3081 153.981 14.0448 153.656 14.0448Z" fill="black"/>
<path d="M156.571 14.1214C156.289 14.1214 156.06 14.3503 156.06 14.6326C156.06 14.9149 156.289 15.1438 156.571 15.1438C156.854 15.1438 157.082 14.9149 157.082 14.6326C157.082 14.3503 156.854 14.1214 156.571 14.1214Z" fill="black"/>
<path d="M159.334 14.1977C159.094 14.1977 158.899 14.3926 158.899 14.633C158.899 14.8735 159.094 15.0684 159.334 15.0684C159.575 15.0684 159.769 14.8735 159.769 14.633C159.769 14.3926 159.575 14.1977 159.334 14.1977Z" fill="black"/>
<path d="M161.949 14.2697C161.748 14.2697 161.586 14.4323 161.586 14.6329C161.586 14.8335 161.748 14.9961 161.949 14.9961C162.15 14.9961 162.312 14.8335 162.312 14.6329C162.312 14.4323 162.15 14.2697 161.949 14.2697Z" fill="black"/>
<path d="M164.411 14.3501C164.255 14.3501 164.128 14.4767 164.128 14.6328C164.128 14.789 164.255 14.9155 164.411 14.9155C164.567 14.9155 164.694 14.789 164.694 14.6328C164.694 14.4767 164.567 14.3501 164.411 14.3501Z" fill="black"/>
<path d="M39.6656 6.83862C41.4068 6.83862 42.8046 7.49988 43.8592 8.8224C44.755 9.9523 45.203 11.2495 45.203 12.7146C45.203 13.7445 44.9557 14.7864 44.4618 15.841C43.9678 16.8955 43.2882 17.6908 42.4217 18.2267C41.5551 18.7626 40.5908 19.03 39.5276 19.03C37.7946 19.03 36.418 18.3394 35.3968 16.9588C34.5343 15.795 34.1036 14.4891 34.1036 13.0412C34.1036 11.9867 34.3652 10.9379 34.8879 9.89594C35.4111 8.85345 36.1 8.08352 36.9533 7.58556C37.8072 7.0876 38.7117 6.83862 39.6656 6.83862ZM39.2764 7.65456C38.833 7.65456 38.3868 7.78624 37.9395 8.05017C37.4915 8.31409 37.1293 8.7764 36.8533 9.43766C36.5767 10.0989 36.4387 10.9482 36.4387 11.9867C36.4387 13.6605 36.7716 15.1044 37.4369 16.3182C38.1022 17.5321 38.9791 18.1387 40.0676 18.1387C40.8795 18.1387 41.5488 17.804 42.0766 17.1342C42.6039 16.4648 42.8673 15.3137 42.8673 13.6812C42.8673 11.6388 42.428 10.0316 41.5488 8.85978C40.9548 8.05649 40.1969 7.65456 39.2764 7.65456Z" fill="black"/>
<path d="M56.9803 7.17725V14.1458C56.9803 15.4769 57.0113 16.2911 57.074 16.5878C57.1372 16.8851 57.2373 17.0921 57.3759 17.2094C57.5139 17.3267 57.6749 17.3854 57.8589 17.3854C58.1182 17.3854 58.4115 17.3141 58.7381 17.172L58.9135 17.6114L55.4732 19.0299H54.9085V16.5942C53.9206 17.666 53.1674 18.3393 52.6482 18.6159C52.1295 18.8919 51.5809 19.0299 51.0036 19.0299C50.359 19.0299 49.8001 18.8442 49.3275 18.4716C48.8542 18.099 48.5259 17.62 48.3419 17.034C48.1573 16.4481 48.0653 15.619 48.0653 14.5477V9.41231C48.0653 8.86835 48.0067 8.49171 47.89 8.28241C47.7727 8.07311 47.599 7.91211 47.3684 7.79883C47.1384 7.68613 46.7221 7.6338 46.1195 7.64185V7.17725H50.1497V14.8743C50.1497 15.9456 50.336 16.6488 50.7086 16.9834C51.0807 17.3181 51.5309 17.486 52.0582 17.486C52.4181 17.486 52.8264 17.3727 53.2824 17.1467C53.7384 16.9208 54.2806 16.4895 54.9085 15.8536V9.33698C54.9085 8.68434 54.7889 8.24274 54.5503 8.01216C54.3122 7.78215 53.816 7.65853 53.0627 7.64185V7.17725H56.9803Z" fill="black"/>
<path d="M63.0949 3.39819V7.17715H65.7819V8.05634H63.0949V15.5142C63.0949 16.2594 63.2013 16.7614 63.4152 17.0213C63.6285 17.2806 63.9028 17.4106 64.2375 17.4106C64.5135 17.4106 64.7814 17.3243 65.0408 17.153C65.3007 16.9816 65.5013 16.7281 65.6434 16.3934H66.1333C65.8406 17.2139 65.426 17.8309 64.8901 18.2455C64.3548 18.6595 63.8022 18.8671 63.2329 18.8671C62.8477 18.8671 62.4711 18.7601 62.103 18.5468C61.7345 18.3335 61.4625 18.0276 61.2865 17.6302C61.1112 17.2323 61.0232 16.6194 61.0232 15.7908V8.05634H59.2027V7.64176C59.6627 7.45776 60.1336 7.1461 60.6149 6.7068C61.0962 6.26691 61.5252 5.74595 61.9018 5.14335C62.0944 4.82537 62.3624 4.24346 62.7057 3.39819H63.0949Z" fill="black"/>
<path d="M77.8853 1.26392V7.15258H77.4207C77.2701 6.02211 77.0004 5.1228 76.6111 4.45291C76.2218 3.78303 75.6675 3.25172 74.9476 2.85841C74.2277 2.46511 73.4825 2.26846 72.7125 2.26846C71.842 2.26846 71.1221 2.53411 70.5528 3.06542C69.9835 3.5973 69.6989 4.20163 69.6989 4.87957C69.6989 5.3988 69.8789 5.87146 70.2389 6.29869C70.7581 6.9266 71.9926 7.76324 73.9431 8.80975C75.5335 9.66364 76.6197 10.3186 77.2011 10.7746C77.783 11.2311 78.2309 11.7688 78.5449 12.388C78.8588 13.0073 79.0158 13.6565 79.0158 14.3344C79.0158 15.6236 78.5155 16.7345 77.515 17.6678C76.5151 18.601 75.2276 19.0679 73.6544 19.0679C73.1605 19.0679 72.6959 19.03 72.2606 18.9546C72.0013 18.9132 71.463 18.7603 70.6471 18.4964C69.8312 18.233 69.3142 18.1013 69.0963 18.1013C68.887 18.1013 68.722 18.164 68.6007 18.2894C68.4793 18.4147 68.3891 18.6746 68.3304 19.0679H67.8658V13.2293H68.3304C68.5483 14.4517 68.841 15.366 69.2096 15.9726C69.5776 16.5798 70.1405 17.0841 70.8984 17.4861C71.6557 17.8874 72.4866 18.0887 73.3905 18.0887C74.437 18.0887 75.2633 17.8121 75.8705 17.2601C76.4771 16.7075 76.7807 16.0543 76.7807 15.301C76.7807 14.8824 76.6657 14.4598 76.4352 14.0331C76.2051 13.6059 75.8475 13.2086 75.3616 12.84C75.0356 12.5893 74.1437 12.0557 72.6872 11.2392C71.2307 10.4232 70.1951 9.77232 69.5799 9.28701C68.9646 8.80113 68.4977 8.2658 68.1797 7.67986C67.8618 7.09393 67.7031 6.44934 67.7031 5.74611C67.7031 4.52421 68.1717 3.47137 69.109 2.58816C70.0468 1.70552 71.2394 1.26392 72.6872 1.26392C73.5917 1.26392 74.5497 1.48529 75.5629 1.9292C76.0315 2.1385 76.3621 2.24316 76.5547 2.24316C76.7721 2.24316 76.9504 2.17818 77.0884 2.04823C77.2264 1.91885 77.3373 1.65722 77.4207 1.26392H77.8853Z" fill="black"/>
<path d="M84.1259 0.824219C84.4772 0.824219 84.7768 0.947846 85.0235 1.1951C85.2707 1.44178 85.3938 1.74078 85.3938 2.09269C85.3938 2.44402 85.2707 2.74532 85.0235 2.9966C84.7768 3.24788 84.4772 3.37323 84.1259 3.37323C83.774 3.37323 83.4727 3.24788 83.222 2.9966C82.9707 2.74532 82.8453 2.44402 82.8453 2.09269C82.8453 1.74078 82.9684 1.44178 83.2156 1.1951C83.4623 0.947846 83.7659 0.824219 84.1259 0.824219ZM85.1678 6.83881V16.0798C85.1678 16.7997 85.2201 17.2787 85.3248 17.5173C85.4294 17.7559 85.5841 17.9336 85.7894 18.0509C85.9947 18.1682 86.369 18.2269 86.9129 18.2269V18.6788H81.3256V18.2269C81.8868 18.2269 82.2634 18.1722 82.4561 18.0636C82.6481 17.9549 82.8011 17.7749 82.9143 17.5236C83.027 17.2723 83.0834 16.7911 83.0834 16.0798V11.6476C83.0834 10.4004 83.046 9.59253 82.9707 9.22452C82.912 8.95657 82.82 8.77026 82.6947 8.66561C82.5688 8.56096 82.3974 8.50864 82.1795 8.50864C81.9454 8.50864 81.6608 8.57131 81.3256 8.69724L81.1502 8.24471L84.6152 6.83881H85.1678Z" fill="black"/>
<path d="M91.4204 14.4851C90.7178 14.1418 90.1778 13.6628 89.8012 13.0476C89.4246 12.4323 89.236 11.7521 89.236 11.0069C89.236 9.86892 89.6649 8.88911 90.5228 8.06914C91.3808 7.24861 92.4796 6.83862 93.8188 6.83862C94.9153 6.83862 95.8653 7.10658 96.6691 7.64191H99.1048C99.4648 7.64191 99.6741 7.65226 99.7328 7.67354C99.7914 7.69424 99.8334 7.72989 99.8581 7.77991C99.9087 7.85581 99.9334 7.98922 99.9334 8.18184C99.9334 8.39977 99.9127 8.55042 99.8708 8.6338C99.8455 8.67577 99.8018 8.70913 99.7391 8.73443C99.6764 8.75973 99.4648 8.77238 99.1048 8.77238H97.611C98.0796 9.37499 98.3136 10.1449 98.3136 11.0822C98.3136 12.154 97.9037 13.0706 97.0831 13.8319C96.2632 14.5938 95.1626 14.9744 93.7814 14.9744C93.2122 14.9744 92.6303 14.891 92.0357 14.7237C91.6677 15.0417 91.4187 15.32 91.2888 15.5586C91.1594 15.7973 91.0944 16.0002 91.0944 16.1676C91.0944 16.3096 91.1634 16.4482 91.3014 16.5816C91.4394 16.7155 91.7097 16.8122 92.111 16.8708C92.3456 16.9042 92.9316 16.9335 93.8688 16.9588C95.5933 17.0002 96.7111 17.0588 97.2217 17.1342C97.9997 17.2428 98.6213 17.5321 99.0859 18.0007C99.5505 18.4693 99.7828 19.0472 99.7828 19.7332C99.7828 20.6791 99.3395 21.5663 98.4522 22.3949C97.1464 23.6174 95.4426 24.228 93.3415 24.228C91.7263 24.228 90.3618 23.8641 89.2486 23.1361C88.6207 22.7175 88.3068 22.2822 88.3068 21.8303C88.3068 21.629 88.3528 21.4283 88.4448 21.2276C88.5874 20.9177 88.88 20.4865 89.324 19.9344C89.3826 19.8591 89.8093 19.4072 90.6045 18.578C90.1692 18.3187 89.8616 18.0864 89.6816 17.8811C89.5016 17.6764 89.4119 17.4441 89.4119 17.1848C89.4119 16.8915 89.531 16.5482 89.7696 16.1549C90.0082 15.7616 90.5585 15.205 91.4204 14.4851ZM93.6055 7.44123C92.9862 7.44123 92.467 7.68791 92.0483 8.18184C91.6297 8.67578 91.4204 9.43364 91.4204 10.4549C91.4204 11.7774 91.7051 12.8026 92.2743 13.5306C92.7096 14.0832 93.2622 14.3592 93.9321 14.3592C94.568 14.3592 95.0913 14.1211 95.5013 13.6439C95.9113 13.1666 96.1165 12.4174 96.1165 11.3961C96.1165 10.0656 95.8279 9.02308 95.25 8.26982C94.8233 7.71724 94.2754 7.44123 93.6055 7.44123ZM91.2951 18.6786C90.9018 19.1053 90.6045 19.5032 90.4038 19.8712C90.2026 20.2398 90.1025 20.579 90.1025 20.8884C90.1025 21.2903 90.3452 21.6417 90.8305 21.943C91.6677 22.4622 92.8769 22.7215 94.4594 22.7215C95.9659 22.7215 97.0774 22.4559 97.7927 21.9246C98.5086 21.3927 98.8662 20.8257 98.8662 20.2231C98.8662 19.7878 98.6529 19.4779 98.2262 19.2939C97.791 19.1099 96.9284 19.0006 95.6393 18.9673C93.7561 18.9173 92.3083 18.8212 91.2951 18.6786Z" fill="black"/>
<path d="M104.554 9.27436C105.902 7.65053 107.187 6.83862 108.409 6.83862C109.036 6.83862 109.576 6.9956 110.028 7.30956C110.48 7.62351 110.84 8.13987 111.108 8.85978C111.292 9.36234 111.385 10.1323 111.385 11.1702V16.0796C111.385 16.8076 111.443 17.3015 111.56 17.5614C111.652 17.7707 111.801 17.9334 112.006 18.0507C112.211 18.168 112.59 18.2267 113.143 18.2267V18.6786H107.455V18.2267H107.693C108.229 18.2267 108.603 18.145 108.817 17.9817C109.03 17.8184 109.179 17.5781 109.262 17.2601C109.296 17.1342 109.313 16.7409 109.313 16.0796V11.3714C109.313 10.3249 109.177 9.56532 108.905 9.09208C108.633 8.61943 108.174 8.3831 107.53 8.3831C106.534 8.3831 105.542 8.92705 104.554 10.015V16.0796C104.554 16.8582 104.6 17.3394 104.692 17.5234C104.81 17.7661 104.971 17.9443 105.176 18.057C105.381 18.1703 105.797 18.2267 106.425 18.2267V18.6786H100.737V18.2267H100.988C101.574 18.2267 101.97 18.0783 102.175 17.781C102.38 17.4838 102.482 16.9168 102.482 16.0796V11.8107C102.482 10.4296 102.451 9.58831 102.388 9.28701C102.325 8.98571 102.229 8.78043 102.1 8.67175C101.97 8.56307 101.796 8.50845 101.579 8.50845C101.344 8.50845 101.063 8.57112 100.737 8.69705L100.549 8.24452L104.014 6.83862H104.554V9.27436Z" fill="black"/>
<path d="M120.575 17.0215C119.395 17.9334 118.654 18.4613 118.353 18.6033C117.901 18.8126 117.42 18.9173 116.909 18.9173C116.114 18.9173 115.459 18.6453 114.944 18.1013C114.429 17.5568 114.172 16.8415 114.172 15.9542C114.172 15.393 114.297 14.9077 114.549 14.4977C114.892 13.9285 115.488 13.3926 116.338 12.8906C117.187 12.388 118.6 11.7774 120.575 11.0575V10.6055C120.575 9.45836 120.393 8.67175 120.029 8.24452C119.665 7.81787 119.136 7.60453 118.441 7.60453C117.913 7.60453 117.495 7.74656 117.185 8.03119C116.868 8.31582 116.708 8.64242 116.708 9.01043L116.734 9.73897C116.734 10.1242 116.635 10.4209 116.438 10.6302C116.241 10.8395 115.984 10.9442 115.666 10.9442C115.356 10.9442 115.103 10.8355 114.906 10.6176C114.71 10.4002 114.611 10.1029 114.611 9.72632C114.611 9.00641 114.98 8.34515 115.716 7.74254C116.453 7.13993 117.487 6.83862 118.817 6.83862C119.839 6.83862 120.676 7.00998 121.329 7.35326C121.822 7.61259 122.187 8.01854 122.421 8.57112C122.572 8.93108 122.647 9.66767 122.647 10.7809V14.6858C122.647 15.7823 122.668 16.4539 122.71 16.7012C122.752 16.9479 122.821 17.1135 122.917 17.1968C123.013 17.2808 123.124 17.3228 123.25 17.3228C123.384 17.3228 123.501 17.2934 123.601 17.2348C123.777 17.1261 124.116 16.8202 124.619 16.3182V17.0215C123.681 18.2767 122.785 18.9046 121.932 18.9046C121.521 18.9046 121.195 18.7626 120.952 18.478C120.709 18.1933 120.584 17.7074 120.575 17.0215ZM120.575 16.2049V11.8234C119.311 12.3254 118.495 12.6813 118.127 12.8906C117.466 13.2586 116.993 13.6439 116.708 14.0458C116.424 14.4471 116.282 14.887 116.282 15.3637C116.282 15.9663 116.461 16.4666 116.821 16.8645C117.181 17.2618 117.595 17.4608 118.064 17.4608C118.701 17.4608 119.537 17.0422 120.575 16.2049Z" fill="black"/>
<path d="M129.427 0.824219V16.0798C129.427 16.7997 129.48 17.2769 129.584 17.511C129.689 17.7456 129.85 17.9233 130.067 18.0446C130.285 18.1659 130.691 18.2269 131.285 18.2269V18.6788H125.648V18.2269C126.175 18.2269 126.535 18.1722 126.728 18.0636C126.92 17.9549 127.071 17.7749 127.18 17.5236C127.288 17.2723 127.343 16.7911 127.343 16.0798V5.63359C127.343 4.3358 127.314 3.53883 127.255 3.24155C127.196 2.94428 127.102 2.7413 126.973 2.63262C126.843 2.52395 126.678 2.46932 126.476 2.46932C126.259 2.46932 125.982 2.53602 125.648 2.67L125.434 2.23069L128.862 0.824219H129.427Z" fill="black"/>
</svg>
