<svg width="119" height="119" viewBox="0 0 119 119" fill="none" xmlns="http://www.w3.org/2000/svg">
<circle cx="59.2443" cy="59.2443" r="58.9967" fill="white" fill-opacity="0.89"/>
<path d="M97.3977 96.436C96.5372 97.2965 95.5754 98.2583 94.563 99.0682C95.5754 98.2077 96.5372 97.3472 97.3977 96.436Z" fill="#26A9E0"/>
<path d="M55.6376 112.431C55.3339 112.431 54.9795 112.431 54.6758 112.33C54.9289 112.33 55.2326 112.431 55.6376 112.431Z" fill="#26A9E0"/>
<path d="M111.773 50.0188C111.874 50.6768 111.976 51.2843 112.077 51.9423C111.976 51.3349 111.874 50.6768 111.773 50.0188Z" fill="#26A9E0"/>
<path d="M44.7546 110.609C44.3497 110.508 43.9953 110.406 43.6916 110.305C44.0966 110.406 44.3497 110.508 44.7546 110.609Z" fill="#26A9E0"/>
<path d="M38.8323 108.584C38.5285 108.483 38.2755 108.28 37.9717 108.179C38.1742 108.28 38.4779 108.382 38.8323 108.584Z" fill="#26A9E0"/>
<path d="M43.3879 110.204C42.8818 110.002 42.4262 109.9 42.0212 109.698C42.4262 109.951 42.9324 110.002 43.3879 110.204Z" fill="#26A9E0"/>
<path d="M112.077 52.2463C112.178 52.9044 112.279 53.613 112.279 54.2711C112.279 53.5624 112.178 52.9044 112.077 52.2463Z" fill="#26A9E0"/>
<path d="M41.7681 109.647C41.3632 109.546 41.0088 109.343 40.6039 109.242C40.9582 109.343 41.3632 109.546 41.7681 109.647Z" fill="#26A9E0"/>
<path d="M110.812 45.5139C111.014 46.172 111.115 46.7794 111.318 47.4374C111.115 46.7794 111.014 46.2226 110.812 45.5139Z" fill="#26A9E0"/>
<path d="M37.4656 107.977C37.1619 107.774 36.8075 107.673 36.5038 107.471C36.8075 107.623 37.1112 107.774 37.4656 107.977Z" fill="#26A9E0"/>
<path d="M110.103 43.2866C110.305 43.9447 110.508 44.5521 110.66 45.2101C110.508 44.5521 110.305 43.894 110.103 43.2866Z" fill="#26A9E0"/>
<path d="M111.267 47.8423C111.368 48.5003 111.571 49.209 111.672 49.867C111.571 49.1077 111.47 48.5509 111.267 47.8423Z" fill="#26A9E0"/>
<path d="M36.1495 107.319C35.289 106.914 34.4285 106.458 33.5173 105.952C34.3778 106.458 35.2384 106.914 36.1495 107.319Z" fill="#26A9E0"/>
<path d="M49.209 111.571C48.8041 111.47 48.551 111.47 48.146 111.368C48.551 111.47 48.8547 111.571 49.209 111.571Z" fill="#26A9E0"/>
<path d="M112.431 61.5598C112.431 62.1166 112.33 62.8253 112.33 63.3821C112.431 62.7747 112.431 62.2179 112.431 61.5598Z" fill="#26A9E0"/>
<path d="M52.4992 112.178C52.0943 112.077 51.6387 112.077 51.2338 111.976C51.7399 112.077 52.1449 112.077 52.4992 112.178Z" fill="#26A9E0"/>
<path d="M54.0684 112.33C53.7647 112.33 53.4103 112.229 53.1066 112.229C53.4103 112.28 53.6634 112.28 54.0684 112.33Z" fill="#26A9E0"/>
<path d="M57.1561 112.533H56.0931C56.498 112.431 56.8017 112.431 57.1561 112.533Z" fill="#26A9E0"/>
<path d="M112.33 63.6858C112.33 64.2426 112.229 64.85 112.128 65.3562C112.279 64.85 112.33 64.2426 112.33 63.6858Z" fill="#26A9E0"/>
<path d="M46.2225 111.014C45.9188 110.913 45.5645 110.811 45.2608 110.71C45.5139 110.811 45.9188 110.913 46.2225 111.014Z" fill="#26A9E0"/>
<path d="M112.33 54.676C112.431 55.3341 112.431 56.0427 112.431 56.7008C112.431 55.9921 112.431 55.3341 112.33 54.676Z" fill="#26A9E0"/>
<path d="M47.6905 111.267C47.3868 111.166 47.0324 111.166 46.7287 111.064C47.0831 111.166 47.3868 111.166 47.6905 111.267Z" fill="#26A9E0"/>
<path d="M112.431 57.0547V59.1807C112.533 58.4214 112.533 57.7633 112.431 57.0547Z" fill="#26A9E0"/>
<path d="M31.9482 105.092C31.6445 104.889 31.3914 104.687 31.0877 104.585C31.3914 104.687 31.6951 104.889 31.9482 105.092Z" fill="#26A9E0"/>
<path d="M22.4826 97.9038C22.0776 97.4989 21.8245 97.2458 21.4196 96.8408C21.6727 97.2458 22.0776 97.4989 22.4826 97.9038Z" fill="#26A9E0"/>
<path d="M99.3718 24.1023C99.7767 24.6085 100.232 25.064 100.637 25.6715C100.232 25.064 99.7261 24.6085 99.3718 24.1023Z" fill="#26A9E0"/>
<path d="M100.789 25.8738C101.194 26.38 101.65 26.9368 102.055 27.4429C101.7 26.8355 101.194 26.3293 100.789 25.8738Z" fill="#26A9E0"/>
<path d="M91.2222 16.5603C91.779 16.9652 92.3865 17.4208 92.8926 17.927C92.3865 17.4208 91.779 16.9146 91.2222 16.5603Z" fill="#26A9E0"/>
<path d="M102.156 27.4939C102.561 28.0507 102.915 28.5569 103.32 29.1643C102.966 28.6581 102.561 28.1013 102.156 27.4939Z" fill="#26A9E0"/>
<path d="M81.8072 10.8401C82.364 11.1438 83.0727 11.3969 83.6295 11.7006C83.0727 11.4981 82.4653 11.1944 81.8072 10.8401Z" fill="#26A9E0"/>
<path d="M79.7825 9.9292C80.4405 10.2329 81.0479 10.486 81.706 10.7897C81.0479 10.5366 80.3393 10.2329 79.7825 9.9292Z" fill="#26A9E0"/>
<path d="M92.9433 17.8762C93.4495 18.2812 94.0063 18.7367 94.5124 19.2429C94.0063 18.7874 93.5507 18.3824 92.9433 17.8762Z" fill="#26A9E0"/>
<path d="M89.5518 15.2947C90.1086 15.6996 90.716 16.054 91.2222 16.5601C90.6148 16.054 90.1592 15.649 89.5518 15.2947Z" fill="#26A9E0"/>
<path d="M96.3347 20.9131C97.2964 21.8748 98.2582 22.8366 99.1693 23.8996C98.3088 22.8366 97.347 21.8748 96.3347 20.9131Z" fill="#26A9E0"/>
<path d="M83.8319 11.9033C85.0974 12.5614 86.3629 13.27 87.5271 14.0293C86.2616 13.27 85.0974 12.4601 83.8319 11.9033Z" fill="#26A9E0"/>
<path d="M94.7149 19.3442C95.2211 19.8504 95.6767 20.2047 96.1828 20.7109C95.6767 20.306 95.1705 19.8504 94.7149 19.3442Z" fill="#26A9E0"/>
<path d="M23.4443 98.8656C23.0393 98.5618 22.7863 98.3088 22.4825 97.9038C22.7356 98.2075 23.1406 98.4606 23.4443 98.8656Z" fill="#26A9E0"/>
<path d="M103.32 29.2651C103.725 29.8219 104.079 30.4294 104.383 30.9355C104.13 30.4294 103.725 29.8219 103.32 29.2651Z" fill="#26A9E0"/>
<path d="M26.937 101.7C26.6333 101.498 26.3802 101.194 26.0765 101.042C26.3296 101.194 26.6333 101.498 26.937 101.7Z" fill="#26A9E0"/>
<path d="M106.711 34.9851C107.015 35.5419 107.268 36.1493 107.572 36.8074C107.319 36.2506 107.015 35.6431 106.711 34.9851Z" fill="#26A9E0"/>
<path d="M29.5185 103.522C28.7592 102.966 27.9493 102.459 27.19 101.852C27.8987 102.459 28.658 103.067 29.5185 103.522Z" fill="#26A9E0"/>
<path d="M30.6827 104.282C30.379 104.079 30.1259 103.877 29.8222 103.725C30.1259 103.927 30.4296 104.13 30.6827 104.282Z" fill="#26A9E0"/>
<path d="M108.686 39.2373C108.989 39.7941 109.192 40.5028 109.344 41.0596C109.141 40.4015 108.837 39.7941 108.686 39.2373Z" fill="#26A9E0"/>
<path d="M107.673 37.01C107.977 37.5668 108.179 38.1742 108.432 38.8323C108.281 38.2755 107.977 37.668 107.673 37.01Z" fill="#26A9E0"/>
<path d="M109.445 41.262C109.647 41.8188 109.951 42.5274 110.103 43.1855C109.951 42.5274 109.647 41.9706 109.445 41.262Z" fill="#26A9E0"/>
<path d="M104.585 31.189C104.99 31.7458 105.243 32.3532 105.547 32.8594C105.294 32.3532 104.99 31.7458 104.585 31.189Z" fill="#26A9E0"/>
<path d="M105.75 33.1125C106.053 33.6694 106.408 34.2768 106.711 34.8336C106.458 34.378 106.155 33.8212 105.75 33.1125Z" fill="#26A9E0"/>
<path d="M25.6715 100.739C25.3678 100.536 25.1147 100.232 24.9122 100.081C25.1653 100.334 25.3678 100.536 25.6715 100.739Z" fill="#26A9E0"/>
<path d="M24.6085 99.7259C24.3048 99.5234 24.0517 99.2197 23.8492 99.0679C24.0011 99.3716 24.3048 99.5741 24.6085 99.7259Z" fill="#26A9E0"/>
<path d="M75.5812 8.4104C76.9479 8.91658 78.3146 9.37215 79.6306 9.87833C78.3146 9.37215 76.9479 8.86597 75.5812 8.4104Z" fill="#26A9E0"/>
<path d="M102.662 90.1592C102.257 90.6654 101.903 91.1209 101.498 91.7284C101.903 91.2222 102.257 90.716 102.662 90.1592Z" fill="#26A9E0"/>
<path d="M103.725 88.5901C103.32 89.0963 103.067 89.6531 102.662 90.1593C102.966 89.6531 103.32 89.1975 103.725 88.5901Z" fill="#26A9E0"/>
<path d="M94.5124 99.1692C93.5507 100.03 92.5889 100.84 91.5259 101.599C92.5889 100.89 93.5507 100.03 94.5124 99.1692Z" fill="#26A9E0"/>
<path d="M100.131 93.4495C99.7261 93.9556 99.3718 94.4112 98.8656 94.9174C99.2705 94.4112 99.6248 93.905 100.131 93.4495Z" fill="#26A9E0"/>
<path d="M109.242 77.8083C109.04 78.3652 108.837 78.8713 108.584 79.4788C108.787 78.922 108.939 78.3145 109.242 77.8083Z" fill="#26A9E0"/>
<path d="M108.483 79.6814C108.281 80.2382 107.977 80.8456 107.724 81.3518C107.977 80.8456 108.179 80.2382 108.483 79.6814Z" fill="#26A9E0"/>
<path d="M106.813 83.3765C106.509 83.9333 106.256 84.4395 105.952 85.0469C106.256 84.4395 106.56 83.832 106.813 83.3765Z" fill="#26A9E0"/>
<path d="M107.623 81.6045C107.319 82.1107 107.116 82.6675 106.863 83.1737C107.116 82.6675 107.42 82.1107 107.623 81.6045Z" fill="#26A9E0"/>
<path d="M91.4247 101.7C89.8555 102.864 88.2358 104.029 86.4641 105.092C88.1851 104.029 89.8555 102.966 91.4247 101.7Z" fill="#26A9E0"/>
<path d="M83.4776 106.711C84.5406 106.205 85.5024 105.648 86.4641 105.041C85.4011 105.648 84.4394 106.256 83.4776 106.711Z" fill="#26A9E0"/>
<path d="M109.85 75.8848C109.647 76.4416 109.445 77.049 109.293 77.6058C109.445 77.049 109.647 76.4922 109.85 75.8848Z" fill="#26A9E0"/>
<path d="M97.4989 96.3347C98.0051 95.8285 98.3594 95.373 98.8656 94.968C98.41 95.373 98.0051 95.8791 97.4989 96.3347Z" fill="#26A9E0"/>
<path d="M69.6082 111.571C70.165 111.47 70.6712 111.368 71.1774 111.267C70.6712 111.267 70.0637 111.47 69.6082 111.571Z" fill="#26A9E0"/>
<path d="M20.7109 96.1831C20.9134 96.3856 21.1159 96.588 21.2677 96.7399C21.1159 96.5374 20.9134 96.335 20.7109 96.1831Z" fill="#26A9E0"/>
<path d="M41.4644 41.9707H41.9706C44.7546 36.0483 47.2855 31.3914 50.9806 24.9629L62.1167 5.8798C61.1549 5.77856 60.1932 5.77856 59.2314 5.77856C47.2855 5.77856 36.3013 9.67617 27.3925 16.2566L32.2519 24.9123C35.947 31.4927 38.731 36.6051 41.4644 41.9707Z" fill="#26A9E0"/>
<path d="M18.0788 25.1653C10.4354 34.3778 5.7785 46.3237 5.7785 59.2314C5.7785 68.7476 8.30942 77.6565 12.6626 85.4011L33.4161 50.9806L18.0788 25.1653Z" fill="#26A9E0"/>
<path d="M111.014 71.9871C110.71 73.1513 110.356 74.4167 110.052 75.581C110.305 74.3155 110.71 73.1513 111.014 71.9871Z" fill="#26A9E0"/>
<path d="M62.4204 112.431C62.0154 112.431 61.6611 112.431 61.2562 112.532C61.6105 112.431 62.0154 112.431 62.4204 112.431Z" fill="#26A9E0"/>
<path d="M111.874 67.9377C111.773 68.4945 111.672 69.0007 111.571 69.6081C111.672 69.0007 111.773 68.4439 111.874 67.9377Z" fill="#26A9E0"/>
<path d="M64.2426 112.33C63.7365 112.33 63.3821 112.431 62.8759 112.431C63.3821 112.33 63.7871 112.33 64.2426 112.33Z" fill="#26A9E0"/>
<path d="M67.7353 111.875C67.2292 111.976 66.6724 112.077 66.1662 112.077C66.6724 112.077 67.1785 111.976 67.7353 111.875Z" fill="#26A9E0"/>
<path d="M66.1155 112.077C65.5587 112.178 65.0525 112.178 64.4451 112.279C65.0525 112.279 65.6093 112.178 66.1155 112.077Z" fill="#26A9E0"/>
<path d="M112.178 65.7104C112.077 66.2673 111.976 66.9759 111.875 67.5327C111.976 66.9759 112.077 66.3685 112.178 65.7104Z" fill="#26A9E0"/>
<path d="M111.47 69.76C111.368 70.3168 111.166 70.9242 111.065 71.5823C111.166 71.0255 111.368 70.4687 111.47 69.76Z" fill="#26A9E0"/>
<path d="M52.398 79.4788C47.1843 71.0255 43.9447 65.5081 40.857 59.687H40.5533C37.7186 65.5081 34.9346 70.823 29.6703 79.58L20.6603 96.0816L23.343 98.7644C23.4443 98.8656 23.5455 98.9668 23.6468 98.9668C23.9505 99.1693 24.2036 99.473 24.406 99.6249C24.5073 99.7261 24.6085 99.8273 24.7097 99.9286C25.0135 100.131 25.2665 100.435 25.469 100.587C25.5703 100.688 25.6715 100.789 25.7727 100.89C26.0764 101.093 26.3295 101.396 26.6332 101.548C26.7345 101.65 26.8357 101.65 26.8357 101.751C27.595 102.308 28.4049 102.915 29.1642 103.421C29.2654 103.522 29.3666 103.522 29.4679 103.624C29.7716 103.826 30.0247 104.029 30.3284 104.181C30.4296 104.282 30.6321 104.383 30.7333 104.383C31.037 104.585 31.2901 104.788 31.5938 104.889C31.6951 104.99 31.8975 105.092 31.9988 105.092C32.3025 105.294 32.5556 105.497 32.9605 105.598C33.0618 105.699 33.163 105.699 33.2642 105.8C34.1247 106.306 34.9853 106.661 35.8964 107.167C35.9976 107.268 36.0989 107.268 36.2001 107.268C36.5038 107.471 36.8581 107.572 37.1618 107.774C37.2631 107.876 37.4656 107.876 37.5668 107.977C37.8705 108.078 38.1236 108.281 38.4273 108.382C38.6298 108.483 38.731 108.483 38.9335 108.584C39.2372 108.686 39.4903 108.888 39.8952 108.989C39.9965 109.09 40.1989 109.09 40.3002 109.192C40.7051 109.293 41.0595 109.495 41.4644 109.597C41.5656 109.597 41.6669 109.698 41.7681 109.698C42.2743 109.9 42.7299 110.002 43.1348 110.204C43.236 110.204 43.3373 110.305 43.4385 110.305C43.8435 110.407 44.1978 110.508 44.5015 110.609C44.704 110.609 44.8052 110.71 45.0077 110.71C45.3114 110.812 45.6657 110.913 45.9694 111.014C46.1719 111.014 46.3744 111.115 46.4756 111.115C46.7793 111.216 47.1337 111.318 47.4374 111.318C47.6398 111.318 47.7411 111.419 47.9435 111.419C48.3485 111.52 48.6016 111.52 49.0065 111.621C49.1078 111.621 49.3102 111.723 49.4115 111.723C49.9177 111.824 50.3732 111.925 50.8794 112.026H51.0819C51.4868 112.128 51.8412 112.128 52.3473 112.229C52.5498 112.229 52.651 112.229 52.8535 112.33C53.1572 112.33 53.5116 112.431 53.8153 112.431C54.0177 112.431 54.2202 112.431 54.3721 112.533C54.6758 112.533 55.0301 112.634 55.3338 112.634H61.2055C61.6105 112.634 61.9648 112.634 62.3698 112.533H62.8759C63.3821 112.533 63.7365 112.431 64.2426 112.431H64.4451C65.0019 112.33 65.5081 112.33 66.1155 112.229C66.6217 112.128 67.1785 112.026 67.6847 112.026H67.8872C68.3933 111.925 68.8489 111.824 69.3551 111.723H69.4563C70.0131 111.621 70.5193 111.52 71.0255 111.318L52.398 79.4788Z" fill="#FAAF40"/>
<path d="M112.431 57.0548V56.6498C112.431 55.9918 112.33 55.2831 112.33 54.6251V54.2201C112.229 53.5621 112.229 52.8534 112.128 52.1954V51.8917C112.026 51.2337 111.925 50.525 111.824 49.9682V49.7657C111.723 49.1077 111.52 48.399 111.419 47.741C111.419 47.6398 111.318 47.5385 111.318 47.336C111.216 46.678 111.014 46.0706 110.811 45.4126C110.811 45.3113 110.71 45.2101 110.71 45.1088C110.508 44.4508 110.305 43.7421 110.153 43.1853V43.0841C109.951 42.4261 109.748 41.8186 109.495 41.1606C109.495 41.0594 109.394 40.9581 109.394 40.8569C109.192 40.3001 108.888 39.5914 108.736 39.0346C108.736 38.9334 108.635 38.8322 108.635 38.7309C108.331 38.1741 108.129 37.5667 107.876 36.9087C107.876 36.8074 107.774 36.7062 107.774 36.7062C107.471 36.1494 107.218 35.542 106.914 34.8839V34.7827C106.61 34.2259 106.357 33.6185 105.952 33.0617C105.851 32.9604 105.851 32.8592 105.75 32.758C105.446 32.2012 105.092 31.5938 104.788 31.0876C104.687 30.9863 104.687 30.8851 104.585 30.7839C104.18 30.2271 103.927 29.6196 103.522 29.1135C103.522 29.1135 103.522 29.0122 103.421 29.0122C103.016 28.4554 102.662 27.9492 102.257 27.3418L102.156 27.2406C101.751 26.6838 101.396 26.1776 100.89 25.6714C100.789 25.5702 100.789 25.4689 100.688 25.4689C100.283 24.9628 99.8273 24.4059 99.4224 23.8998C99.4224 23.7985 99.3211 23.7985 99.3211 23.6973C98.4606 22.6343 97.4989 21.6726 96.4865 20.7108C96.3853 20.7108 96.3853 20.6096 96.284 20.6096C95.7778 20.1034 95.3223 19.7491 94.8161 19.2429C94.7149 19.1416 94.7149 19.1416 94.6136 19.0404C94.1074 18.5342 93.5506 18.1799 93.0445 17.6737L92.9432 17.5725C92.3864 17.0663 91.8802 16.712 91.2728 16.2058C90.716 15.8008 90.2098 15.4465 89.6024 14.9403C89.5012 14.9403 89.5012 14.8391 89.3999 14.8391C88.8431 14.4341 88.2357 14.0798 87.6789 13.6749C87.5777 13.6749 87.5777 13.5736 87.4764 13.5736C86.3122 12.8144 85.0468 12.1057 83.7813 11.4477C83.7813 11.4477 83.6801 11.4477 83.6801 11.3464C83.1233 11.0427 82.4146 10.7896 81.8578 10.4859C81.7566 10.4859 81.7566 10.3847 81.6553 10.3847C80.9973 10.081 80.3899 9.82787 79.7318 9.52416H79.6306C78.2639 8.96736 76.8972 8.46118 75.5811 8.05623L75.1762 7.85376L49.0065 50.1707L60.75 69.4562V67.7858C60.75 60.6993 62.2179 54.8782 65.6093 50.4238C68.5958 46.0706 72.9996 44.0965 79.0738 43.0335C81.6047 42.6285 84.6924 42.173 86.8184 41.3631L86.5147 46.1212C84.8443 46.678 82.0603 47.1842 80.0356 47.5891C74.9737 48.3484 71.3292 50.0188 68.8995 53.5115C66.8748 56.3461 65.7106 60.598 65.5081 63.8882H65.7106C67.7353 59.3326 72.0885 56.8017 76.5935 56.8017C84.2369 56.8017 89.8555 62.3191 89.8555 72.2403C89.8555 82.4145 84.5406 88.8431 75.4293 88.8431C74.3663 88.8431 73.4046 88.7418 72.4428 88.5394L83.4776 106.762C84.5406 106.256 85.5023 105.699 86.4641 105.092H86.5653C88.2863 104.029 89.9567 102.966 91.5259 101.7L91.6271 101.599C92.6901 100.84 93.6519 99.9285 94.6136 99.1692L94.7149 99.068C95.6766 98.2075 96.5371 97.3469 97.5495 96.4358L97.6507 96.3346C98.1569 95.8284 98.5112 95.3728 99.0174 94.9679C99.4224 94.4617 99.8779 94.0061 100.283 93.4999L100.384 93.3987C100.789 92.8925 101.143 92.437 101.548 91.9308C101.548 91.8295 101.65 91.8295 101.65 91.7283C102.055 91.2221 102.409 90.7666 102.814 90.1591C103.219 89.653 103.472 89.0962 103.877 88.59C103.978 88.4887 103.978 88.3875 104.079 88.3875C104.737 87.3245 105.446 86.2615 106.003 85.1985C106.003 85.0973 106.104 84.9961 106.104 84.8948C106.408 84.338 106.661 83.8318 106.964 83.2244C106.964 83.1232 107.066 83.1232 107.066 83.022C107.369 82.5158 107.572 81.959 107.825 81.4528C107.825 81.3515 107.926 81.2503 107.926 81.1491C108.23 80.5923 108.432 80.0861 108.686 79.4787C108.686 79.3774 108.787 79.2762 108.787 79.175C108.989 78.6688 109.192 78.112 109.445 77.5046C109.445 77.4033 109.445 77.4033 109.546 77.3021C109.749 76.7453 109.951 76.1379 110.103 75.5811C110.103 75.4798 110.204 75.3786 110.204 75.1761C110.609 74.0119 110.862 72.8477 111.166 71.5822C111.166 71.481 111.267 71.2785 111.267 71.1773C111.368 70.6205 111.571 70.0131 111.672 69.355V69.0513C111.773 68.4945 111.874 67.9883 111.976 67.3809C111.976 67.2797 111.976 67.1784 112.077 66.976C112.178 66.4192 112.279 65.8117 112.381 65.1537V64.7487C112.482 64.1919 112.482 63.5845 112.583 63.0783V62.7746C112.583 62.2178 112.684 61.5092 112.684 60.9524V58.6239C112.533 58.4215 112.533 57.7634 112.431 57.0548Z" fill="#37B34A"/>
<path d="M84.0344 72.6958C84.0344 67.5328 82.0097 60.9524 75.3281 60.9524C71.9366 60.9524 69.6082 62.6734 68.2415 65.2043C67.1785 67.0266 66.6723 69.355 66.6723 71.886C66.6723 77.049 69.2032 84.4899 75.3787 84.4899C81.706 84.5405 84.0344 78.5169 84.0344 72.6958Z" fill="#37B34A"/>
</svg>
