<svg width="115" height="81" viewBox="0 0 115 81" fill="none" xmlns="http://www.w3.org/2000/svg">
<path fill-rule="evenodd" clip-rule="evenodd" d="M83.1996 11.2313H83.1492L85.2855 0.268992L87.4244 11.0852C86.9069 11.0331 86.368 10.9348 85.8371 10.9348C84.9332 10.9348 84.0615 11.0835 83.1996 11.2313ZM20.2562 11.2419H25.1445V34.7304C25.1445 35.6575 25.3124 36.2876 25.6479 36.6236C25.983 36.9588 26.6133 37.1747 27.5403 37.2705V41.8712C26.4219 41.8712 25.4155 41.7826 24.5213 41.6079C23.6268 41.4327 22.8599 41.0887 22.2209 40.5771C21.5819 40.0978 21.0947 39.4194 20.7596 38.5403C20.4241 37.662 20.2562 36.5035 20.2562 35.0665V11.2419ZM0.417206 41.5835V0.247559H7.55762C9.12202 0.247559 10.4568 0.487 11.5588 0.966693C12.6608 1.44555 13.5631 2.08527 14.2669 2.88336C14.9687 3.68229 15.4717 4.6005 15.7762 5.63928C16.0791 6.67763 16.2315 7.75589 16.2315 8.87364V10.1195C16.2315 11.0461 16.1593 11.8287 16.0156 12.4675C15.8719 13.1073 15.656 13.6655 15.3689 14.1452C14.8249 15.0399 13.9946 15.8065 12.8767 16.4454C14.0268 16.9885 14.873 17.787 15.4166 18.8409C15.9592 19.8952 16.2315 21.3331 16.2315 23.154V32.2866C16.2315 35.2904 15.5039 37.5905 14.051 39.1871C12.5967 40.7854 10.2724 41.5835 7.07812 41.5835H0.417206ZM11.6307 31.1231H11.626C11.6112 30.4581 11.5645 21.9955 11.4869 21.4767C11.3909 20.8378 11.1995 20.2955 10.9121 19.8474C10.5921 19.4008 10.1609 19.0732 9.61797 18.8653C9.07467 18.6582 8.3551 18.5536 7.46192 18.5536H5.30485V36.6954H7.4139C8.40378 36.6954 9.17843 36.5518 9.73784 36.2644C10.2962 35.9771 10.72 35.5777 11.0078 35.0656C11.2952 34.5553 11.4705 33.9479 11.5353 33.2447C11.5937 32.5933 11.6263 31.8859 11.6307 31.1231ZM5.30485 4.84792V14.241H7.5096C9.13915 14.241 10.2325 13.8335 10.7922 13.0186C11.3503 12.2042 11.631 11.0142 11.631 9.4491C11.631 7.91551 11.3187 6.76458 10.6962 5.998C10.0733 5.23099 8.94675 4.84792 7.31753 4.84792H5.30485ZM30.3371 25.434C30.3371 24.4439 30.4015 23.5337 30.5295 22.7024C30.6567 21.872 30.8961 21.1373 31.2484 20.4976C31.8229 19.4437 32.6449 18.5973 33.716 17.958C34.7858 17.3195 36.088 16.9994 37.6219 16.9994C39.1554 16.9994 40.4569 17.3195 41.5273 17.958C42.5971 18.5973 43.4205 19.4437 43.995 20.4976C44.3459 21.1373 44.586 21.872 44.7139 22.7024C44.8412 23.5337 44.9057 24.4439 44.9057 25.434V47.1378C44.9057 48.1282 44.8412 49.0389 44.7139 49.8693C44.586 50.7006 44.3459 51.4353 43.995 52.0742C43.4205 53.1281 42.5971 53.9749 41.5273 54.6138C40.4569 55.2535 39.1554 55.5723 37.6219 55.5723C36.088 55.5723 34.7858 55.2535 33.716 54.6138C32.6449 53.9749 31.8229 53.1281 31.2484 52.0742C30.8961 51.4353 30.6567 50.7006 30.5295 49.8693C30.4015 49.0389 30.3371 48.1282 30.3371 47.1378V25.434ZM35.2254 47.9048C35.2254 48.8314 35.4413 49.527 35.8721 49.9895C36.3039 50.4524 36.8865 50.6842 37.6219 50.6842C38.3559 50.6842 38.9395 50.4524 39.3706 49.9895C39.8021 49.527 40.018 48.8314 40.018 47.9048V24.667C40.018 23.7408 39.8021 23.046 39.3706 22.5823C38.9395 22.1198 38.3559 21.8875 37.6219 21.8875C36.8865 21.8875 36.3039 22.1198 35.8721 22.5823C35.4413 23.046 35.2254 23.7408 35.2254 24.667V47.9048ZM62.5943 16.81V48.4912C62.5943 49.3208 62.458 50.16 62.187 51.0068C61.9147 51.8528 61.4758 52.6118 60.8691 53.2822C60.2616 53.9854 59.495 54.5528 58.5686 54.9838C57.6419 55.4156 56.5398 55.6307 55.2625 55.6307C54.5271 55.6307 53.7606 55.5114 52.9621 55.272C52.1632 55.0317 51.4285 54.6243 50.758 54.0496C50.0542 53.5053 49.4552 52.7798 48.9606 51.8692C48.4649 50.9581 48.1382 49.7849 47.978 48.3467H52.8664C52.8979 48.9221 53.13 49.4644 53.5611 49.9756C53.9926 50.4872 54.6232 50.743 55.4542 50.743C56.2524 50.743 56.8269 50.4944 57.1795 50C57.5304 49.5047 57.706 48.8743 57.706 48.1073V39.3791H57.6103C57.067 40.178 56.4196 40.7926 55.6691 41.2244C54.9183 41.6553 54.0476 41.8712 53.0578 41.8712C51.0132 41.8712 49.5912 41.1042 48.7927 39.5706C48.5056 39.0275 48.2974 38.3571 48.1694 37.5582C48.0422 36.7597 47.978 35.6894 47.978 34.3469V25.0988C47.978 23.3421 48.0261 22.0476 48.1224 21.2167C48.3138 19.6201 49.0643 18.4217 50.3742 17.6228C50.9803 17.2082 51.8916 16.9994 53.1058 16.9994C53.7125 16.9994 54.232 17.0646 54.6631 17.191C55.0946 17.3195 55.4855 17.4955 55.8374 17.7186C56.1883 17.942 56.5083 18.2058 56.7957 18.5095C57.0835 18.8132 57.3867 19.1404 57.706 19.4916V16.81H62.5943ZM52.8664 34.1075C52.8664 34.8745 53.0336 35.5449 53.3694 36.1204C53.7048 36.6954 54.3351 36.9827 55.2625 36.9827C55.9646 36.9827 56.5476 36.7353 57.0113 36.2401C57.474 35.7457 57.706 35.1139 57.706 34.3469V24.9072C57.706 24.0125 57.4824 23.2854 57.0351 22.7259C56.5875 22.1677 55.9965 21.8875 55.2625 21.8875C54.4315 21.8875 53.8247 22.1912 53.4409 22.7982C53.0578 23.4056 52.8664 24.2045 52.8664 25.1945V34.1075ZM96.8444 27.6342C90.7604 28.2483 86.0047 33.3909 86.0047 39.6362L86.0044 54.8162L81.1416 56.4607L81.3696 42.0031L81.4129 39.6362C81.4129 37.3116 81.89 35.098 82.7516 33.0876C85.0746 27.6669 90.1929 23.7236 96.289 23.075C96.8736 23.0128 97.4669 22.9809 98.068 22.9809C99.0999 22.9809 100.11 23.075 101.09 23.2552C108.842 24.6783 114.723 31.4759 114.723 39.6362V57.1294H110.131V39.6362C110.131 34.147 106.457 29.5093 101.436 28.05C100.367 27.7392 99.2369 27.5729 98.068 27.5729C97.655 27.5729 97.2467 27.5934 96.8444 27.6342ZM91.3161 46.0318C93.077 46.0318 94.506 47.4608 94.506 49.2216C94.506 50.982 93.077 52.4115 91.3161 52.4115C89.5556 52.4115 88.1262 50.982 88.1262 49.2216C88.1262 47.4608 89.5556 46.0318 91.3161 46.0318Z" fill="#5276D2"/>
<path fill-rule="evenodd" clip-rule="evenodd" d="M25.4323 43.9994V58.8367H25.5281C26.0384 58.0692 26.6537 57.4388 27.3726 56.9429C28.0916 56.4483 29.0093 56.2003 30.1284 56.2003C30.7351 56.2003 31.3419 56.3053 31.9493 56.5119C32.5561 56.7199 33.0992 57.0636 33.5788 57.5424C34.0583 58.022 34.4413 58.6366 34.7287 59.3877C35.016 60.1381 35.1603 61.0571 35.1603 62.1427V80.9841H30.272V63.9637C30.272 63.0696 30.0641 62.3664 29.6489 61.8554C29.2336 61.3444 28.6426 61.0893 27.8758 61.0893C26.9489 61.0893 26.3106 61.3759 25.959 61.9512C25.6074 62.5265 25.4323 63.3582 25.4323 64.4432V80.9841H20.544V41.918L20.6437 41.9304C20.7802 42.097 20.9278 42.2499 21.0872 42.3896C21.6854 42.9485 22.424 43.3493 23.303 43.592C23.9485 43.7698 24.6583 43.9062 25.4323 43.9994ZM61.8037 54.6044V59.0761C62.7929 58.182 63.7683 57.4788 64.7267 56.9672C65.6851 56.4562 66.8665 56.2003 68.2729 56.2003V61.3759C67.7933 61.1844 67.2981 61.0893 66.7871 61.0893C66.2761 61.0893 65.7251 61.1772 65.134 61.3523C64.5424 61.5288 64.0077 61.8239 63.5289 62.2392C63.0172 62.6544 62.6014 63.1969 62.2826 63.8679C61.9631 64.539 61.8037 65.3708 61.8037 66.36V80.9841H56.9154V56.9232C57.8948 56.857 58.7587 56.649 59.5085 56.3C60.4321 55.8704 61.1976 55.3049 61.8037 54.6044ZM0.416992 80.9841V46.6639H5.3046V62.2392H5.40103L12.5406 46.6639H17.4288L10.7682 60.3218L18.7519 80.9841H13.577L7.94028 65.641L5.3046 70.5772V80.9841H0.416992ZM48.4338 80.9841V78.2152H48.338C47.6984 79.106 47.0517 79.7909 46.397 80.2684C45.7417 80.746 44.8233 80.9841 43.6413 80.9841C43.0667 80.9841 42.4835 80.8968 41.8925 80.7217C41.3008 80.5479 40.734 80.2205 40.1916 79.7437C39.6478 79.2976 39.2089 78.6534 38.8731 77.8092C38.5379 76.9656 38.3699 75.8754 38.3699 74.5386C38.3699 73.1695 38.4821 71.9672 38.7058 70.9327C38.9288 69.8989 39.3447 69.0304 39.9515 68.3298C40.5268 67.6607 41.3093 67.1602 42.2998 66.8257C43.2897 66.4911 44.5524 66.3245 46.0854 66.3245H46.6128C46.8044 66.3245 46.9795 66.3409 47.1396 66.3731C47.2996 66.4046 47.4912 66.4196 47.7148 66.4196C47.9379 66.4196 48.1773 66.436 48.4338 66.4669V63.9368C48.4338 63.1096 48.2573 62.4255 47.9064 61.8836C47.5548 61.3425 46.9159 61.0716 45.9896 61.0716C45.3501 61.0716 44.7676 61.2788 44.2402 61.6927C43.7134 62.106 43.3697 62.7108 43.2103 63.5065H38.4664C38.5936 61.3425 39.329 59.591 40.6704 58.2542C41.3093 57.6172 42.0761 57.1161 42.9709 56.75C43.865 56.384 44.8712 56.2003 45.9896 56.2003C47.0116 56.2003 47.97 56.3597 48.8648 56.6785C49.7595 56.9967 50.5421 57.4736 51.2131 58.1112C51.852 58.7488 52.363 59.5438 52.7468 60.4982C53.1298 61.4533 53.322 62.5678 53.322 63.841V80.9841H48.4338ZM48.4338 70.2885C47.89 70.1928 47.4433 70.1436 47.0923 70.1436C46.0375 70.1436 45.1349 70.3915 44.3845 70.8842C43.6334 71.3788 43.2582 72.2774 43.2582 73.5835C43.2582 74.5064 43.4812 75.2549 43.9293 75.8282C44.376 76.4002 44.9991 76.6868 45.7981 76.6868C46.6286 76.6868 47.2753 76.4166 47.7385 75.8754C48.2016 75.3342 48.4338 74.5707 48.4338 73.5835V70.2885ZM81.1114 56.4962H85.9997L80.2055 66.36L87.2985 80.9841H81.9793L77.4741 70.2892L75.1264 73.979V80.9841H70.2381V42.6645H75.1264V67.0782H75.2222L81.1114 56.4962ZM88.8787 56.4883H93.767V80.9841H88.8787V56.4883ZM103.216 80.9841L96.8933 56.6759H101.485L105.637 72.5051L110.131 57.1305H114.723L107.808 80.9841H103.216Z" fill="#FBB03B"/>
<path fill-rule="evenodd" clip-rule="evenodd" d="M81.3694 42.0041C81.3694 35.9285 76.6681 30.9963 71.1711 30.9963C67.522 30.9963 64.3287 33.1709 62.5943 36.41V29.6181C64.7407 27.7991 67.3737 26.6453 70.2383 26.4387C70.2842 18.7757 75.8672 12.4154 83.1851 11.1599C84.0471 11.0123 84.9333 10.9355 85.8366 10.9355C86.3679 10.9355 86.8927 10.9618 87.4096 11.0136C94.1857 11.6938 99.6893 16.7172 101.09 23.2553C100.11 23.0755 99.0996 22.9817 98.0677 22.9817C97.4669 22.9817 96.8732 23.0132 96.2888 23.0755C94.8371 18.693 90.7038 15.5273 85.8366 15.5273C79.7616 15.5273 74.8294 20.4595 74.8294 26.5344V26.9346C78.0824 27.8982 80.8735 30.1154 82.7515 33.0882C81.8896 35.0987 81.4127 37.3126 81.4127 39.6367L81.3694 42.0041ZM96.8443 54.947V27.6345C97.2465 27.5938 97.6545 27.5735 98.0677 27.5735C99.2367 27.5735 100.367 27.7401 101.436 28.0504V56.5016L96.8443 54.947Z" fill="#FBB03B"/>
<path fill-rule="evenodd" clip-rule="evenodd" d="M81.1036 56.4739L81.3693 42.0039L81.141 56.4608L81.1036 56.4739Z" fill="#5276D2"/>
<path fill-rule="evenodd" clip-rule="evenodd" d="M81.1119 56.4953H81.0387L81.1045 56.4729H81.1416V56.4874H81.1165L81.1119 56.4953Z" fill="white"/>
<path fill-rule="evenodd" clip-rule="evenodd" d="M86.0051 56.4875L86.0005 56.4954H85.2867V56.4875H86.0051Z" fill="white"/>
<path fill-rule="evenodd" clip-rule="evenodd" d="M81.1416 56.4954H81.1121L81.1167 56.4875H81.1416V56.4954Z" fill="white"/>
<path fill-rule="evenodd" clip-rule="evenodd" d="M81.1415 56.4731H81.1039L81.1424 56.4604L81.1415 56.4731Z" fill="white"/>
<path fill-rule="evenodd" clip-rule="evenodd" d="M81.1416 56.4873V56.4729H85.2867V56.4873H81.1416Z" fill="white"/>
<path fill-rule="evenodd" clip-rule="evenodd" d="M86.0051 56.4873L85.319 56.4729H85.2867V56.4873H86.0051Z" fill="white"/>
<path fill-rule="evenodd" clip-rule="evenodd" d="M85.2867 56.4875V56.4954H81.1416V56.4875H85.2867Z" fill="white"/>
</svg>
