<svg width="149" height="100" viewBox="0 0 149 100" fill="none" xmlns="http://www.w3.org/2000/svg">
<path d="M27.975 62.3213H21.9746C21.6515 62.3213 21.4669 62.5521 21.4669 62.7367V86.9227C21.4669 90.6614 18.0513 92.4615 14.5896 92.4615C11.174 92.4615 8.1277 90.5229 7.71229 86.8765V69.014H0.742661V86.9227C0.742661 94.5385 6.97378 99.2465 14.5896 99.2465C22.4362 99.2465 28.4365 94.7231 28.4365 86.9227V62.7367C28.4365 62.5521 28.2058 62.3213 27.975 62.3213Z" fill="white"/>
<path d="M62.5002 98.6926L48.4686 62.5982C48.3301 62.229 47.6839 62.229 47.5455 62.5982L33.5601 98.6926C33.4216 98.9695 33.6062 99.2465 34.0216 99.2465H40.3451C40.5297 99.2465 40.7605 99.1542 40.8066 98.9695L48.007 78.3837L55.2998 98.9695C55.3459 99.1542 55.5767 99.2465 55.7152 99.2465H62.0848C62.4079 99.2465 62.6386 98.9695 62.5002 98.6926Z" fill="white"/>
<path d="M89.2247 77.3683H74.7316V69.014H85.2091V62.3213H68.1774C67.9004 62.3213 67.6696 62.5521 67.6696 62.7367V98.8311C67.6696 99.0157 67.9004 99.2465 68.1774 99.2465H74.7316V84.061H89.2247C89.5016 84.061 89.7324 83.8302 89.7324 83.6456V77.7837C89.7324 77.5529 89.5016 77.3683 89.2247 77.3683Z" fill="white"/>
<path d="M109.58 92.923H105.887V62.3213H98.8251V92.923H95.0403C94.7633 92.923 94.5326 93.1077 94.5326 93.3384V98.8311C94.5326 99.0157 94.7633 99.2465 95.0403 99.2465H109.58C109.903 99.2465 110.087 99.0157 110.087 98.8311V93.3384C110.087 93.1077 109.903 92.923 109.58 92.923Z" fill="white"/>
<path d="M148.213 62.3213H140.828C140.736 62.3213 140.459 62.3674 140.413 62.4598L131.689 74.7835L127.812 69.3832H119.227C121.95 73.2142 124.627 77.0452 127.35 80.7839L114.704 98.5541C114.427 98.8772 114.611 99.2465 115.073 99.2465H122.458C122.55 99.2465 122.827 99.2003 122.873 99.108L131.689 86.7842L135.52 92.1845H144.105C141.382 88.3535 138.659 84.5226 135.935 80.7839L148.675 63.0136C148.905 62.6905 148.721 62.3213 148.213 62.3213Z" fill="white"/>
<path fill-rule="evenodd" clip-rule="evenodd" d="M99.4416 21.2918C99.5606 21.5007 99.5606 21.7097 99.4416 21.9186C97.968 24.4773 88.5058 40.8743 87.4082 42.7542C87.3408 42.9109 87.239 43.0151 87.1168 43.0674C85.5643 43.7984 74.899 48.8635 74.899 48.8635C74.899 48.8635 74.9069 45.1559 74.9106 43.6416C74.9106 43.4327 74.8406 43.2763 74.7152 43.1719C74.5904 43.0152 74.4202 42.9628 74.2432 42.9628H63.0307C62.7926 42.9628 62.5722 42.8064 62.4531 42.6497C61.0129 40.1432 51.9482 24.4251 50.5085 21.9186C50.3894 21.7097 50.3894 21.5007 50.5085 21.2918C51.9482 18.7853 61.0129 3.06719 62.4531 0.56067C62.5722 0.351793 62.7926 0.247559 63.0307 0.247559L86.9194 0.247559C87.1575 0.247559 87.3779 0.351793 87.4969 0.56067C88.9372 3.06719 98.0014 18.7853 99.4416 21.2918Z" fill="white"/>
<path d="M73.2074 15.2295H64.2093L66.5067 30.7372H75.5048L73.2074 15.2295Z" fill="#25242F"/>
<path d="M77.2667 9.04517H86.2648L83.9673 24.5529H74.9692L77.2667 9.04517Z" fill="#25242F"/>
</svg>
