<svg width="168" height="24" viewBox="0 0 168 24" fill="none" xmlns="http://www.w3.org/2000/svg">
<path fill-rule="evenodd" clip-rule="evenodd" d="M67.392 9.88418H67.3881L67.3916 7.6181C67.3916 3.90227 70.4143 0.87915 74.1303 0.87915H83.9318C87.6459 0.87915 90.6674 3.89917 90.6706 7.61227V7.92248C90.6706 11.6381 87.6478 14.6612 83.9318 14.6612H67.392V9.88418ZM83.9318 5.66048H74.1303C73.0508 5.66048 72.1725 6.53861 72.1725 7.6181C72.1725 8.06805 72.1315 9.11819 72.1661 9.8799H83.753C83.7973 9.88282 83.842 9.88418 83.8869 9.88418C83.9767 9.88418 84.0652 9.87854 84.1518 9.86766C84.3802 9.842 84.5967 9.77689 84.7946 9.67932C85.5065 9.33977 85.9989 8.61304 85.9989 7.77242C85.9989 7.00761 85.5915 6.33745 84.9824 5.9668C84.6786 5.77302 84.318 5.66048 83.9318 5.66048Z" fill="black"/>
<path fill-rule="evenodd" clip-rule="evenodd" d="M141.53 23.019H126.96C123.246 23.019 120.224 19.999 120.221 16.2859V15.9757C120.221 12.2601 123.244 9.23696 126.96 9.23696H138.721C138.756 8.47486 138.719 8.06885 138.719 7.61792C138.719 6.53843 137.841 5.6605 136.762 5.6605H122.026V0.879166H136.762C140.478 0.879166 143.5 3.90229 143.5 7.61792L143.5 9.23696H143.496V14.014H148.272L148.269 16.2801C148.269 19.9959 145.246 23.019 141.53 23.019ZM143.494 14.0183H127.139C127.095 14.0154 127.05 14.014 127.005 14.014C126.915 14.014 126.827 14.0196 126.74 14.0305C126.512 14.0562 126.295 14.1213 126.097 14.2189C125.385 14.5584 124.893 15.2852 124.893 16.1258C124.893 16.8906 125.3 17.5607 125.91 17.9314C126.213 18.1252 126.574 18.2377 126.96 18.2377H141.53C142.61 18.2377 143.488 17.3596 143.488 16.2801C143.488 15.8301 143.529 14.78 143.494 14.0183Z" fill="black"/>
<path fill-rule="evenodd" clip-rule="evenodd" d="M112.094 5.66048H102.937C101.857 5.66048 100.979 6.53861 100.979 7.6181C100.979 8.06902 100.925 13.8993 100.96 14.6612H96.1817L96.1982 7.6181C96.1982 3.90227 99.2209 0.87915 102.937 0.87915H112.094C115.81 0.87915 118.832 3.90227 118.832 7.6181V7.85386H114.054C114.052 7.76795 114.051 7.68885 114.051 7.6181C114.051 6.53861 113.173 5.66048 112.094 5.66048Z" fill="black"/>
<path fill-rule="evenodd" clip-rule="evenodd" d="M84.0916 18.2378V23.0192H69.3556C65.6396 23.0192 62.6169 19.9959 62.6169 16.2802L62.6173 14.6614H67.3957C67.3607 15.4233 67.3978 15.8293 67.3978 16.2802C67.3978 17.3597 68.2761 18.2378 69.3556 18.2378H84.0916Z" fill="black"/>
<path fill-rule="evenodd" clip-rule="evenodd" d="M98.0296 23.0182C94.3616 22.9622 91.3954 19.9611 91.3954 16.2802L91.3958 14.6614H96.1742C96.1392 15.4233 96.1763 15.8293 96.1763 16.2802C96.1763 17.3597 97.0547 18.2378 98.1341 18.2378H107.622V18.2806C108.653 18.2262 109.476 17.3702 109.476 16.3259C109.476 15.875 109.513 15.469 109.478 14.707H114.256L114.256 16.3259C114.256 20.0415 111.234 23.0648 107.518 23.0648H98.0296V23.0182Z" fill="black"/>
<path fill-rule="evenodd" clip-rule="evenodd" d="M36.5812 3.24668C36.5812 4.56057 35.5157 5.62568 34.2036 5.62568C32.8912 5.62568 31.8257 4.56057 31.8257 3.24668C31.8257 1.93473 32.8912 0.869629 34.2036 0.869629C35.5157 0.869629 36.5812 1.93473 36.5812 3.24668Z" fill="black"/>
<path d="M41.3414 9.23438H36.5859V23.0623H41.3414V9.23438Z" fill="black"/>
<path d="M39.7749 0.915915V5.67139L64.5849 5.67139V0.915915L39.7749 0.915915Z" fill="black"/>
<path d="M145.763 0.915915V5.67139L167.938 5.67139V0.915915L145.763 0.915915Z" fill="black"/>
<path d="M54.6162 23.0645V5.625H49.8349V23.0645H54.6162Z" fill="black"/>
<path d="M157.491 23.0645V5.625H152.71V23.0645H157.491Z" fill="black"/>
<path fill-rule="evenodd" clip-rule="evenodd" d="M0.442854 7.7373C0.440716 7.66825 0.439745 7.59723 0.439745 7.52621C0.439745 5.74459 1.12021 4.07742 2.35557 2.8226C3.59133 1.56975 5.23408 0.879187 6.9814 0.879187H20.8365C22.4783 0.879187 24.0217 1.5283 25.1826 2.70618C26.3434 3.88405 26.9826 5.45061 26.9826 7.11778V7.27958H22.3179V7.11778C22.3179 6.71529 22.1638 6.33845 21.8841 6.05434C21.6042 5.77023 21.2322 5.61436 20.8365 5.61436H6.9814C6.48733 5.61436 6.00356 5.8176 5.6541 6.17076C5.29958 6.53182 5.10444 7.00927 5.10444 7.51831C5.10444 7.59328 5.10833 7.66628 5.1163 7.7373H0.442854Z" fill="black"/>
<path fill-rule="evenodd" clip-rule="evenodd" d="M9.78915 7.73707C9.83638 8.16915 10.023 8.56573 10.3269 8.87351C10.6764 9.22865 11.1602 9.43188 11.6542 9.43188H26.4707C30.0798 9.43188 33.016 12.4131 33.016 16.0749C33.016 19.7407 30.0798 22.72 26.4707 22.72H11.2587C9.61694 22.72 8.07331 22.0709 6.91258 20.893C5.75185 19.7151 5.11259 18.1486 5.11259 16.4814H9.77729C9.77729 16.8839 9.93142 17.2607 10.2109 17.5448C10.491 17.8289 10.863 17.9848 11.2587 17.9848H26.4707C27.5076 17.9848 28.3513 17.1285 28.3513 16.0769C28.3513 15.0233 27.5076 14.1671 26.4707 14.1671H11.6542C9.90693 14.1671 8.26418 13.4765 7.02842 12.2217C5.84223 11.0181 5.1676 9.43187 5.1157 7.73707H9.78915Z" fill="black"/>
</svg>
