<svg width="149" height="50" viewBox="0 0 149 50" fill="none" xmlns="http://www.w3.org/2000/svg">
<path d="M31.6311 30.4804C33.7025 37.4353 31.7763 43.3141 26.5179 50H32.2987C36.9943 46.1967 39.9957 37.0681 37.2152 27.7287L37.196 27.6847L34.7837 19.5196C32.7132 12.5647 34.6385 6.6859 39.8999 0H34.1171C29.4154 3.80327 26.4191 12.933 29.1995 22.2713L31.6119 30.4364L31.6311 30.4804ZM136.35 24.9831L149 10.3899H141.751L132.725 20.8003L123.701 10.3899H116.452L129.102 24.9811L116.452 39.5753H123.701L132.725 29.1618L141.751 39.5753H149L136.35 24.9831ZM112.928 10.3859H107.804V39.5702H112.928V10.3859ZM22.6714 10.0135H0V15.9261H8.77307V39.2009H13.8973V15.9261H22.6714V10.0135ZM76.4303 10.0135V39.1988H81.5535V15.9261H84.1182C91.1808 15.9261 96.9304 22.5557 96.9304 30.7054V39.1988H102.052V30.7054C102.052 19.2966 94.0057 10.0135 84.1182 10.0135H76.4303ZM68.7948 33.2853H47.4264V39.1978H68.7948V33.2853ZM68.7948 22.0289H47.4264V27.9425H68.7948V22.0289ZM68.7948 10.7602H47.4264V16.6718H68.7948V10.7602ZM112.928 0.163669H107.804V6.07418H112.928V0.163669Z" fill="black"/>
</svg>
